<svg xmlns="http://www.w3.org/2000/svg" xmlns:xlink="http://www.w3.org/1999/xlink" viewBox="8322 -2174 69.768 106.881">
  <defs>
    <style>
      .cls-1 {
        fill: url(#linear-gradient);
      }

      .cls-2 {
        fill: url(#linear-gradient-2);
      }

      .cls-3 {
        fill: url(#linear-gradient-3);
      }

      .cls-4 {
        fill: url(#linear-gradient-4);
      }

      .cls-5 {
        fill: url(#linear-gradient-5);
      }

      .cls-6 {
        fill: url(#linear-gradient-6);
      }

      .cls-7 {
        fill: url(#linear-gradient-7);
      }

      .cls-8 {
        fill: url(#linear-gradient-8);
      }

      .cls-9 {
        fill: url(#linear-gradient-9);
      }

      .cls-10 {
        fill: url(#linear-gradient-10);
      }

      .cls-11 {
        fill: #fff;
      }

      .cls-12 {
        fill: url(#linear-gradient-11);
      }

      .cls-13 {
        fill: url(#linear-gradient-12);
      }

      .cls-14 {
        fill: url(#linear-gradient-13);
      }

      .cls-15 {
        fill: url(#linear-gradient-14);
      }

      .cls-16 {
        fill: url(#linear-gradient-15);
      }
    </style>
    <linearGradient id="linear-gradient" y1="0.5" x2="1" y2="0.5" gradientUnits="objectBoundingBox">
      <stop offset="0" stop-color="#3e77bc"/>
      <stop offset="1" stop-color="#529fd8"/>
    </linearGradient>
    <linearGradient id="linear-gradient-2" x1="0" y1="0.5" x2="1" y2="0.5" xlink:href="#linear-gradient"/>
    <linearGradient id="linear-gradient-3" x1="-0.628" y1="0.5" x2="0.372" y2="0.5" xlink:href="#linear-gradient"/>
    <linearGradient id="linear-gradient-4" x1="-8.62" y1="0.5" x2="-7.621" y2="0.5" xlink:href="#linear-gradient"/>
    <linearGradient id="linear-gradient-5" x1="-6.158" y1="0.5" x2="-5.158" y2="0.5" xlink:href="#linear-gradient"/>
    <linearGradient id="linear-gradient-6" x1="-3.688" y1="0.5" x2="-2.688" y2="0.5" xlink:href="#linear-gradient"/>
    <linearGradient id="linear-gradient-7" x1="-1.216" y1="0.5" x2="-0.218" y2="0.5" xlink:href="#linear-gradient"/>
    <linearGradient id="linear-gradient-8" x1="-8.966" y1="0.5" x2="-7.742" y2="0.5" xlink:href="#linear-gradient"/>
    <linearGradient id="linear-gradient-9" x1="-5.858" y1="0.604" x2="-4.841" y2="0.604" xlink:href="#linear-gradient"/>
    <linearGradient id="linear-gradient-10" x1="0" y1="0.5" x2="1" y2="0.5" xlink:href="#linear-gradient"/>
    <linearGradient id="linear-gradient-11" x1="0" y1="0.503" x2="0.984" y2="0.503" xlink:href="#linear-gradient"/>
    <linearGradient id="linear-gradient-12" x1="-3.034" y1="0.5" x2="-2.034" y2="0.5" xlink:href="#linear-gradient"/>
    <linearGradient id="linear-gradient-13" x1="-2.484" y1="0.5" x2="-1.484" y2="0.5" xlink:href="#linear-gradient"/>
    <linearGradient id="linear-gradient-14" x1="-1.332" y1="0.5" x2="-0.332" y2="0.5" xlink:href="#linear-gradient"/>
    <linearGradient id="linear-gradient-15" x1="0.003" y1="0.502" x2="1" y2="0.502" xlink:href="#linear-gradient"/>
  </defs>
  <g id="icon_9" data-name="icon 9" transform="translate(8322 -2173.97)">
    <g id="_Group_" data-name="&lt;Group&gt;" transform="translate(16.742 25.227)">
      <path id="Path_3293" data-name="Path 3293" class="cls-1" d="M260.069,228.287a2.848,2.848,0,0,1-1.424-.386L211.3,200.568a2.858,2.858,0,0,1-1.424-2.467V149.508a2.848,2.848,0,0,1,4.27-2.465l46.305,26.74a4.912,4.912,0,0,1,2.45,4.232v47.418a2.821,2.821,0,0,1-1.412,2.472A2.853,2.853,0,0,1,260.069,228.287Zm-47.344-80.634a1.86,1.86,0,0,0-1.85,1.855V198.1a1.852,1.852,0,0,0,.926,1.6l47.341,27.333h0a1.852,1.852,0,0,0,2.778-1.6V178.026a3.921,3.921,0,0,0-1.952-3.381L213.644,147.9A1.85,1.85,0,0,0,212.726,147.653Z" transform="translate(-209.88 -146.663)"/>
    </g>
    <g id="_Group_2" data-name="&lt;Group&gt;" transform="translate(32.867 47.076)">
      <path id="Path_3294" data-name="Path 3294" class="cls-2" d="M287.255,257.057a8.071,8.071,0,0,1-3.983-1.215c-4.755-2.738-8.621-9.445-8.621-14.937,0-2.768.958-4.845,2.7-5.85s4.021-.8,6.418.585c4.753,2.738,8.621,9.445,8.621,14.937,0,2.768-.958,4.845-2.7,5.85A4.784,4.784,0,0,1,287.255,257.057Zm-7.469-21.632a3.819,3.819,0,0,0-1.932.5c-1.422.822-2.2,2.592-2.2,4.979,0,5.173,3.642,11.487,8.123,14.071,2.076,1.2,4,1.407,5.422.588s2.2-2.592,2.2-4.979c0-5.173-3.645-11.484-8.123-14.071a7.148,7.148,0,0,0-3.5-1.085Z" transform="translate(-274.65 -234.426)"/>
    </g>
    <path id="Path_3295" data-name="Path 3295" class="cls-3" d="M268.865,325.3a5.039,5.039,0,0,1-2.49-.747l-14.823-8.559a11.666,11.666,0,0,1-5.273-9.132h0a3.549,3.549,0,0,1,5.771-3.331l14.823,8.552a11.67,11.67,0,0,1,5.273,9.132,3.988,3.988,0,0,1-1.723,3.682A3.069,3.069,0,0,1,268.865,325.3Zm-21.584-18.442a10.565,10.565,0,0,0,4.775,8.27l14.818,8.557a2.582,2.582,0,0,0,4.277-2.47,10.575,10.575,0,0,0-4.775-8.27l-14.823-8.557a2.581,2.581,0,0,0-4.277,2.47Z" transform="translate(-220.476 -238.684)"/>
    <path id="Path_3296" data-name="Path 3296" class="cls-4" d="M314.658,354.711l-.814-1.133.388-.349.747,1.2-.052-1.187.627.363-.06,1.12.747-.334.386.787-.814.2,1,.772-.139.627-.961-.871.485,1.292-.568-.012-.386-1.295-.381.851-.568-.642.48-.747-.961-.232-.142-.789Z" transform="translate(-271.089 -276.577)"/>
    <path id="Path_3297" data-name="Path 3297" class="cls-5" d="M299.108,345.731l-.817-1.135.388-.346.747,1.2-.052-1.187.627.363-.06,1.12.747-.334.388.784-.817.2,1,.772-.139.627-.961-.874.485,1.292-.568-.012-.386-1.295-.381.851-.568-.645.48-.747-.961-.232-.139-.789Z" transform="translate(-259.41 -269.833)"/>
    <path id="Path_3298" data-name="Path 3298" class="cls-6" d="M283.548,336.749l-.814-1.133.386-.346.747,1.2-.052-1.187.627.361-.06,1.123.747-.336.388.787-.817.2,1,.769-.139.63-.961-.871.486,1.292-.568-.012-.386-1.295-.381.851-.568-.645.48-.747-.961-.232-.139-.789Z" transform="translate(-247.724 -263.088)"/>
    <path id="Path_3299" data-name="Path 3299" class="cls-7" d="M268,327.769l-.814-1.133.386-.346.747,1.2-.052-1.187.627.361-.06,1.123.747-.336.388.787-.817.2,1,.772-.139.627-.961-.869.5,1.29h-.568l-.406-1.3-.381.854-.568-.645.48-.747-.961-.232L267,327.4Z" transform="translate(-236.038 -256.344)"/>
    <ellipse id="Ellipse_401" data-name="Ellipse 401" class="cls-8" cx="2.36" cy="4.085" rx="2.36" ry="4.085" transform="translate(37.543 52.691) rotate(-30)"/>
    <path id="Path_3300" data-name="Path 3300" class="cls-9" d="M302.118,289.22l-.162-1.932a6.638,6.638,0,0,0-2.7-4.79l-1.125-.68c-1.392-.856-2.609-.269-2.853,1.377l-.249.934S298.373,289.265,302.118,289.22Z" transform="translate(-257.089 -222.65)"/>
    <path id="_Path_" data-name="&lt;Path&gt;" class="cls-10" d="M161.931,245.136l-18.686-10.379a1.227,1.227,0,0,1-.615-1.063v-45.27a1.227,1.227,0,0,1,1.842-1.063l18.151,10.07a2.3,2.3,0,0,1,1.15,1.992v44.65a1.227,1.227,0,0,1-1.842,1.063Z" transform="translate(-142.63 -151.878)"/>
    <path id="_Path_2" data-name="&lt;Path&gt;" class="cls-11" d="M172.2,260.485a.5.5,0,0,1-.249-.065L160.6,253.87a.5.5,0,0,1,.5-.861l11.342,6.55a.5.5,0,0,1-.249.926Z" transform="translate(-155.956 -201.264)"/>
    <path id="_Path_3" data-name="&lt;Path&gt;" class="cls-11" d="M172.2,280.725a.473.473,0,0,1-.249-.067L160.6,274.11a.5.5,0,0,1,.5-.861l11.342,6.55a.5.5,0,0,1-.249.926Z" transform="translate(-155.956 -216.465)"/>
    <path id="_Path_4" data-name="&lt;Path&gt;" class="cls-11" d="M172.2,300.965a.5.5,0,0,1-.249-.067L160.6,294.35a.5.5,0,0,1,.5-.861l11.345,6.557a.5.5,0,0,1-.249.926Z" transform="translate(-155.956 -231.666)"/>
    <path id="_Path_5" data-name="&lt;Path&gt;" class="cls-11" d="M172.041,321.111a.5.5,0,0,1-.249-.067l-11.345-6.55a.5.5,0,1,1,.5-.859l11.342,6.547a.5.5,0,0,1-.249.929Z" transform="translate(-155.8 -246.773)"/>
    <path id="_Path_6" data-name="&lt;Path&gt;" class="cls-11" d="M172.2,341.435a.5.5,0,0,1-.249-.065L160.6,334.82a.5.5,0,0,1,.5-.861l11.342,6.55a.5.5,0,0,1-.249.926Z" transform="translate(-155.956 -262.061)"/>
    <path id="_Path_7" data-name="&lt;Path&gt;" class="cls-12" d="M249.867,228.738a.433.433,0,0,1-.378-.217L246.877,224a.446.446,0,0,1-.042-.334.426.426,0,0,1,.2-.264l2.631-1.521a.438.438,0,1,1,.438.747l-2.241,1.3,2.39,4.143a.436.436,0,0,1-.378.655Z" transform="translate(-220.881 -177.854)"/>
    <path id="Path_3301" data-name="Path 3301" class="cls-13" d="M317.55,86.007a4.952,4.952,0,0,1-2.447-.747A11.444,11.444,0,0,1,309.93,76.3h0a3.487,3.487,0,0,1,5.674-3.271,11.448,11.448,0,0,1,5.171,8.962,3.932,3.932,0,0,1-1.693,3.62A3.022,3.022,0,0,1,317.55,86.007Zm-4.4-12.717a2.041,2.041,0,0,0-1.036.264,2.992,2.992,0,0,0-1.193,2.753h0a10.326,10.326,0,0,0,4.675,8.1,2.521,2.521,0,0,0,4.18-2.412,10.326,10.326,0,0,0-4.673-8.093A3.983,3.983,0,0,0,313.154,73.291Z" transform="translate(-268.28 -65.576)"/>
    <path id="Path_3302" data-name="Path 3302" class="cls-14" d="M317.333,132.789l-.354-3.012a10.4,10.4,0,0,0-4.556-7.19l-1.944-1.12a3.047,3.047,0,0,0-2.826-.4,2.5,2.5,0,0,0-1.232,2.054l-.356,2.6-1-.134.354-2.6a3.482,3.482,0,0,1,1.782-2.813,3.993,3.993,0,0,1,3.762.428l1.944,1.123a11.308,11.308,0,0,1,5.046,7.937l.356,3.01Z" transform="translate(-264.63 -101.316)"/>
    <path id="Path_3303" data-name="Path 3303" class="cls-15" d="M300.5,77.522a11.5,11.5,0,0,1-5.654-1.723c-6.824-3.941-12.376-13.556-12.376-21.435,0-3.919,1.352-6.856,3.807-8.273s5.674-1.118,9.067.841c6.824,3.938,12.375,13.553,12.375,21.432,0,3.921-1.352,6.859-3.807,8.275A6.744,6.744,0,0,1,300.5,77.522ZM289.692,46.213a5.766,5.766,0,0,0-2.918.747c-2.134,1.232-3.309,3.864-3.309,7.411,0,7.563,5.328,16.792,11.878,20.571,3.072,1.775,5.93,2.081,8.071.836s3.309-3.864,3.309-7.414c0-7.561-5.328-16.789-11.878-20.571A10.591,10.591,0,0,0,289.692,46.213Z" transform="translate(-247.656 -45.24)"/>
    <path id="_Path_8" data-name="&lt;Path&gt;" class="cls-16" d="M360.087,306.3a.4.4,0,0,1-.346-.2.4.4,0,0,1,.147-.543l2.027-1.17-2.193-3.8a.4.4,0,1,1,.69-.4l2.392,4.143a.406.406,0,0,1,.04.3.4.4,0,0,1-.187.249l-2.37,1.369A.393.393,0,0,1,360.087,306.3Z" transform="translate(-305.626 -236.576)"/>
  </g>
</svg>
