<svg xmlns="http://www.w3.org/2000/svg" xmlns:xlink="http://www.w3.org/1999/xlink" viewBox="-6646 722.345 100.188 149.664">
  <defs>
    <style>
      .cls-1, .cls-7 {
        fill: #fff;
      }

      .cls-1 {
        opacity: 0.51;
      }

      .cls-2 {
        fill: url(#linear-gradient);
      }

      .cls-3 {
        fill: url(#linear-gradient-2);
      }

      .cls-4 {
        fill: url(#linear-gradient-3);
      }

      .cls-5 {
        fill: url(#linear-gradient-4);
      }

      .cls-6, .cls-9 {
        opacity: 0.3;
      }

      .cls-6 {
        fill: url(#linear-gradient-6);
      }

      .cls-8 {
        fill: url(#linear-gradient-7);
      }

      .cls-9 {
        fill: url(#linear-gradient-8);
      }

      .cls-10 {
        fill: url(#linear-gradient-9);
      }

      .cls-11 {
        fill: url(#linear-gradient-11);
      }

      .cls-12 {
        fill: url(#linear-gradient-16);
      }

      .cls-13 {
        fill: url(#linear-gradient-17);
      }

      .cls-14 {
        fill: url(#linear-gradient-18);
      }
    </style>
    <linearGradient id="linear-gradient" y1="0.5" x2="1" y2="0.5" gradientUnits="objectBoundingBox">
      <stop offset="0" stop-color="#3e77bc"/>
      <stop offset="0.05" stop-color="#407bbf"/>
      <stop offset="0.37" stop-color="#4a8fcd"/>
      <stop offset="0.68" stop-color="#509bd5"/>
      <stop offset="1" stop-color="#529fd8"/>
    </linearGradient>
    <linearGradient id="linear-gradient-2" x1="0" y1="0.5" x2="1" y2="0.5" xlink:href="#linear-gradient"/>
    <linearGradient id="linear-gradient-3" y1="0.5" x2="1" y2="0.5" gradientUnits="objectBoundingBox">
      <stop offset="0" stop-color="#3e77bc"/>
      <stop offset="1" stop-color="#529fd8"/>
    </linearGradient>
    <linearGradient id="linear-gradient-4" x1="0" y1="0.5" y2="0.5" xlink:href="#linear-gradient-3"/>
    <linearGradient id="linear-gradient-6" x1="-0.233" y1="0.199" x2="0.624" y2="0.78" gradientUnits="objectBoundingBox">
      <stop offset="0" stop-color="#231f20"/>
      <stop offset="0.61" stop-color="#231f20" stop-opacity="0.29"/>
      <stop offset="1" stop-color="#231f20" stop-opacity="0"/>
    </linearGradient>
    <linearGradient id="linear-gradient-7" x1="0" y1="0.498" x2="1" y2="0.498" xlink:href="#linear-gradient"/>
    <linearGradient id="linear-gradient-8" x1="-0.232" y1="0.199" x2="0.624" y2="0.78" xlink:href="#linear-gradient-6"/>
    <linearGradient id="linear-gradient-9" x1="-0.001" y1="0.501" x2="1" y2="0.501" xlink:href="#linear-gradient"/>
    <linearGradient id="linear-gradient-11" x1="-0.197" y1="10.64" x2="0.841" y2="10.64" xlink:href="#linear-gradient-3"/>
    <linearGradient id="linear-gradient-16" x1="0.002" y1="0.5" x2="1.002" y2="0.5" xlink:href="#linear-gradient-3"/>
    <linearGradient id="linear-gradient-17" x1="0.004" y1="0.501" x2="1.003" y2="0.501" xlink:href="#linear-gradient-3"/>
    <linearGradient id="linear-gradient-18" x1="-0.001" y1="0.499" x2="0.999" y2="0.499" xlink:href="#linear-gradient-3"/>
  </defs>
  <g id="Group_3212" data-name="Group 3212" transform="translate(-7882 -81.581)">
    <g id="icon_22" data-name="icon 22" transform="translate(1236 796.926)">
      <g id="DESIGNED_BY_FREEPIK" data-name="DESIGNED BY FREEPIK" transform="translate(0 0)">
        <path id="Path_4885" data-name="Path 4885" class="cls-1" d="M180.178,297.4l14.574-8.091-.148,41.249L180.03,338.65Z" transform="translate(-120.777 -182.301)"/>
        <path id="Path_4886" data-name="Path 4886" class="cls-2" d="M321.949,364.849a.341.341,0,0,1-.165-.044.312.312,0,0,1-.165-.274l.145-41.249a.312.312,0,0,1,.165-.27l14.574-8.1a.343.343,0,0,1,.329,0,.312.312,0,0,1,.165.274l-.145,41.249a.312.312,0,0,1-.165.274l-14.574,8.088A.34.34,0,0,1,321.949,364.849Zm.474-41.384-.145,40.523,13.915-7.727.145-40.519Z" transform="translate(-262.693 -208.185)"/>
        <path id="Path_4887" data-name="Path 4887" class="cls-1" d="M60.085,244.177l-.148,41.249L1,252.922l.148-41.252Z" transform="translate(-0.684 -129.076)"/>
        <path id="Path_4888" data-name="Path 4888" class="cls-3" d="M201.876,311.652a.341.341,0,0,1-.165-.044l-58.927-32.5a.312.312,0,0,1-.165-.274l.125-41.252a.312.312,0,0,1,.165-.271.343.343,0,0,1,.328,0l58.927,32.507a.312.312,0,0,1,.165.274l-.145,41.249a.312.312,0,0,1-.165.271A.341.341,0,0,1,201.876,311.652Zm-58.6-33,58.269,32.142.145-40.526L143.4,238.126Z" transform="translate(-142.62 -154.988)"/>
        <path id="Path_4889" data-name="Path 4889" class="cls-4" d="M1.6,140.331l14.574-8.091,58.937,32.507-14.574,8.088Z" transform="translate(-1.086 -74.624)"/>
        <path id="Path_4890" data-name="Path 4890" class="cls-5" d="M180.529,243.7,195.1,235.61l-.049,16.887-14.574,8.091Z" transform="translate(-121.079 -145.488)"/>
        <path id="Path_4891" data-name="Path 4891" class="cls-4" d="M60.436,190.474l-.049,16.89L1.45,174.857,1.5,157.97Z" transform="translate(-0.986 -92.263)"/>
        <path id="Path_4892" data-name="Path 4892" class="cls-6" d="M47.52,202l.023,5.877L50,210.22l3.368-2.638Z" transform="translate(-31.89 -122.447)"/>
        <path id="Path_4893" data-name="Path 4893" class="cls-7" d="M181.858,226a5.764,5.764,0,0,1,2.759,4.572c-.007,1.682-1.244,2.355-2.778,1.513a5.75,5.75,0,0,1-2.759-4.569C179.087,225.837,180.328,225.158,181.858,226Z" transform="translate(-167.077 -147.017)"/>
        <path id="Path_4894" data-name="Path 4894" class="cls-8" d="M182.64,232.246a2.846,2.846,0,0,1-1.353-.393,6,6,0,0,1-2.867-4.749,2.009,2.009,0,0,1,.922-1.887,2.285,2.285,0,0,1,2.183.189h0a6.01,6.01,0,0,1,2.871,4.752,2.029,2.029,0,0,1-.922,1.887A1.731,1.731,0,0,1,182.64,232.246Zm-2.466-6.811a1.25,1.25,0,0,0-.616.148,1.635,1.635,0,0,0-.7,1.522,5.584,5.584,0,0,0,2.634,4.387,1.817,1.817,0,0,0,1.751.189,1.615,1.615,0,0,0,.7-1.519,5.6,5.6,0,0,0-2.65-4.4h0a2.381,2.381,0,0,0-1.116-.336Z" transform="translate(-166.635 -146.592)"/>
        <path id="Path_4895" data-name="Path 4895" class="cls-9" d="M139.76,255.26l.026,5.881,2.449,2.34,3.371-2.635Z" transform="translate(-93.764 -158.958)"/>
        <path id="Path_4896" data-name="Path 4896" class="cls-7" d="M274.112,279.267a5.767,5.767,0,0,1,2.759,4.569c-.007,1.679-1.251,2.355-2.778,1.513a5.77,5.77,0,0,1-2.762-4.569C271.336,279.1,272.578,278.421,274.112,279.267Z" transform="translate(-228.958 -183.531)"/>
        <path id="Path_4897" data-name="Path 4897" class="cls-10" d="M274.89,285.449a2.825,2.825,0,0,1-1.35-.393,5.993,5.993,0,0,1-2.871-4.749,2.026,2.026,0,0,1,.922-1.887,2.242,2.242,0,0,1,2.186.189,6,6,0,0,1,2.867,4.749,2.03,2.03,0,0,1-.922,1.887A1.731,1.731,0,0,1,274.89,285.449Zm-2.466-6.811a1.284,1.284,0,0,0-.616.148,1.622,1.622,0,0,0-.7,1.522,5.606,5.606,0,0,0,2.653,4.4,1.816,1.816,0,0,0,1.748.186,1.626,1.626,0,0,0,.7-1.519,5.6,5.6,0,0,0-2.653-4.4h0A2.382,2.382,0,0,0,272.425,278.638Z" transform="translate(-228.516 -183.059)"/>
        <path id="Path_4899" data-name="Path 4899" class="cls-7" d="M269.563,78.272,242.522,63.356a5.069,5.069,0,0,1-2.242-4.088V29.478c0-1.572,1-2.305,2.242-1.62l27.041,14.912a5.069,5.069,0,0,1,2.242,4.088V76.646C271.791,78.228,270.8,78.954,269.563,78.272Z" transform="translate(-208.13 -11.257)"/>
        <g id="Group_3211" data-name="Group 3211" transform="translate(2.611 7)">
          <path id="Path_4900" data-name="Path 4900" class="cls-4" d="M267.094,73.612a1.991,1.991,0,0,1-.964-.272l-24.656-13.6a4.872,4.872,0,0,1-2.194-3.98V28.6a1.96,1.96,0,0,1,.855-1.829,1.667,1.667,0,0,1,1.639.1l24.656,13.606a4.873,4.873,0,0,1,2.194,3.983v27.16a1.955,1.955,0,0,1-.856,1.827A1.379,1.379,0,0,1,267.094,73.612Zm-26.28-46.437a.794.794,0,0,0-.378.095,1.459,1.459,0,0,0-.555,1.333v27.16a4.317,4.317,0,0,0,1.894,3.484l24.656,13.6a1.089,1.089,0,0,0,1.039.1,1.447,1.447,0,0,0,.555-1.33V44.457a4.322,4.322,0,0,0-1.894-3.487l-24.656-13.6A1.427,1.427,0,0,0,240.814,27.175Z" transform="translate(-204.622 -8.194)"/>
          <path id="Path_4901" data-name="Path 4901" class="cls-11" d="M273.066,92.853l-2.3,1.385-.36-.717.066-.04a.369.369,0,0,0,.147-.49l-1.033-2.05a1.779,1.779,0,0,1-.105-1.3l.711-2.368a1.853,1.853,0,0,1,.81-1.049l2.008-1.213a.369.369,0,0,0,.147-.49l-.033-.066.714-.43,1.174,2.331a.424.424,0,0,0,.276.232.446.446,0,0,0,.363-.057.523.523,0,0,0,.2-.682l-1.174-2.334.408-.249a.392.392,0,0,0,.153-.508.317.317,0,0,0-.206-.171.334.334,0,0,0-.269.041l-.411.247-1.174-2.331a.424.424,0,0,0-.276-.232.446.446,0,0,0-.363.057.526.526,0,0,0-.2.682l1.177,2.334-.714.43-.033-.066a.3.3,0,0,0-.2-.17.312.312,0,0,0-.261.044l-2.011,1.216a1.588,1.588,0,0,1-1.243.192l-2.2-.611a1.5,1.5,0,0,1-.949-.791l-1.033-2.047a.3.3,0,0,0-.2-.168.312.312,0,0,0-.26.045l-.066.037L264,80.77l2.269-1.385a.526.526,0,0,0,.207-.682.424.424,0,0,0-.276-.232.446.446,0,0,0-.363.057l-2.269,1.385-.21-.419a.32.32,0,0,0-.205-.171.337.337,0,0,0-.269.039.4.4,0,0,0-.153.51l.21.419-2.29,1.382a.526.526,0,0,0-.2.685h0a.424.424,0,0,0,.275.231.446.446,0,0,0,.361-.056l2.29-1.385.366.725-.063.04a.369.369,0,0,0-.147.49l1.03,2.047a1.749,1.749,0,0,1,.105,1.3l-.708,2.368a1.855,1.855,0,0,1-.81,1.049l-2.011,1.213a.378.378,0,0,0-.147.49l.033.066-.711.433-1.177-2.334a.421.421,0,0,0-.275-.232.443.443,0,0,0-.362.057h0a.529.529,0,0,0-.207.685l1.177,2.331-.411.249a.4.4,0,0,0-.153.508.32.32,0,0,0,.206.169.337.337,0,0,0,.268-.04l.411-.247,1.177,2.331a.42.42,0,0,0,.275.232.443.443,0,0,0,.362-.057.526.526,0,0,0,.207-.682l-1.177-2.334.714-.43.033.066a.3.3,0,0,0,.2.17.311.311,0,0,0,.26-.044l2.011-1.216a1.585,1.585,0,0,1,1.225-.186l2.206.6a1.514,1.514,0,0,1,.949.791l1.048,2.047a.3.3,0,0,0,.2.17.312.312,0,0,0,.261-.044l.066-.04.366.725L267.864,96a.526.526,0,0,0-.2.682.424.424,0,0,0,.276.232.446.446,0,0,0,.363-.057l2.29-1.382.21.416a.317.317,0,0,0,.2.172.334.334,0,0,0,.27-.04h0a.4.4,0,0,0,.153-.51l-.213-.419,2.293-1.382a.528.528,0,0,0,.2-.685.426.426,0,0,0-.278-.236A.449.449,0,0,0,273.066,92.853Z" transform="translate(-217.885 -45.175)"/>
          <path id="Path_4997" data-name="Path 4997" class="cls-4" d="M267.094,73.612a1.991,1.991,0,0,1-.964-.272l-24.656-13.6a4.872,4.872,0,0,1-2.194-3.98V28.6a1.96,1.96,0,0,1,.855-1.829,1.667,1.667,0,0,1,1.639.1l24.656,13.606a4.873,4.873,0,0,1,2.194,3.983v27.16a1.955,1.955,0,0,1-.856,1.827A1.379,1.379,0,0,1,267.094,73.612Zm-26.28-46.437a.794.794,0,0,0-.378.095,1.459,1.459,0,0,0-.555,1.333v27.16a4.317,4.317,0,0,0,1.894,3.484l24.656,13.6a1.089,1.089,0,0,0,1.039.1,1.447,1.447,0,0,0,.555-1.33V44.457a4.322,4.322,0,0,0-1.894-3.487l-24.656-13.6A1.427,1.427,0,0,0,240.814,27.175Z" transform="translate(-239.28 -26.606)"/>
          <path id="Path_4998" data-name="Path 4998" class="cls-11" d="M273.066,92.853l-2.3,1.385-.36-.717.066-.04a.369.369,0,0,0,.147-.49l-1.033-2.05a1.779,1.779,0,0,1-.105-1.3l.711-2.368a1.853,1.853,0,0,1,.81-1.049l2.008-1.213a.369.369,0,0,0,.147-.49l-.033-.066.714-.43,1.174,2.331a.424.424,0,0,0,.276.232.446.446,0,0,0,.363-.057.523.523,0,0,0,.2-.682l-1.174-2.334.408-.249a.392.392,0,0,0,.153-.508.317.317,0,0,0-.206-.171.334.334,0,0,0-.269.041l-.411.247-1.174-2.331a.424.424,0,0,0-.276-.232.446.446,0,0,0-.363.057.526.526,0,0,0-.2.682l1.177,2.334-.714.43-.033-.066a.3.3,0,0,0-.2-.17.312.312,0,0,0-.261.044l-2.011,1.216a1.588,1.588,0,0,1-1.243.192l-2.2-.611a1.5,1.5,0,0,1-.949-.791l-1.033-2.047a.3.3,0,0,0-.2-.168.312.312,0,0,0-.26.045l-.066.037L264,80.77l2.269-1.385a.526.526,0,0,0,.207-.682.424.424,0,0,0-.276-.232.446.446,0,0,0-.363.057l-2.269,1.385-.21-.419a.32.32,0,0,0-.205-.171.337.337,0,0,0-.269.039.4.4,0,0,0-.153.51l.21.419-2.29,1.382a.526.526,0,0,0-.2.685h0a.424.424,0,0,0,.275.231.446.446,0,0,0,.361-.056l2.29-1.385.366.725-.063.04a.369.369,0,0,0-.147.49l1.03,2.047a1.749,1.749,0,0,1,.105,1.3l-.708,2.368a1.855,1.855,0,0,1-.81,1.049l-2.011,1.213a.378.378,0,0,0-.147.49l.033.066-.711.433-1.177-2.334a.421.421,0,0,0-.275-.232.443.443,0,0,0-.362.057h0a.529.529,0,0,0-.207.685l1.177,2.331-.411.249a.4.4,0,0,0-.153.508.32.32,0,0,0,.206.169.337.337,0,0,0,.268-.04l.411-.247,1.177,2.331a.42.42,0,0,0,.275.232.443.443,0,0,0,.362-.057.526.526,0,0,0,.207-.682l-1.177-2.334.714-.43.033.066a.3.3,0,0,0,.2.17.311.311,0,0,0,.26-.044l2.011-1.216a1.585,1.585,0,0,1,1.225-.186l2.206.6a1.514,1.514,0,0,1,.949.791l1.048,2.047a.3.3,0,0,0,.2.17.312.312,0,0,0,.261-.044l.066-.04.366.725L267.864,96a.526.526,0,0,0-.2.682.424.424,0,0,0,.276.232.446.446,0,0,0,.363-.057l2.29-1.382.21.416a.317.317,0,0,0,.2.172.334.334,0,0,0,.27-.04h0a.4.4,0,0,0,.153-.51l-.213-.419,2.293-1.382a.528.528,0,0,0,.2-.685.426.426,0,0,0-.278-.236A.449.449,0,0,0,273.066,92.853Z" transform="translate(-253.626 -63.587)"/>
          <path id="Path_4999" data-name="Path 4999" class="cls-4" d="M267.094,73.612a1.991,1.991,0,0,1-.964-.272l-24.656-13.6a4.872,4.872,0,0,1-2.194-3.98V28.6a1.96,1.96,0,0,1,.855-1.829,1.667,1.667,0,0,1,1.639.1l24.656,13.606a4.873,4.873,0,0,1,2.194,3.983v27.16a1.955,1.955,0,0,1-.856,1.827A1.379,1.379,0,0,1,267.094,73.612Zm-26.28-46.437a.794.794,0,0,0-.378.095,1.459,1.459,0,0,0-.555,1.333v27.16a4.317,4.317,0,0,0,1.894,3.484l24.656,13.6a1.089,1.089,0,0,0,1.039.1,1.447,1.447,0,0,0,.555-1.33V44.457a4.322,4.322,0,0,0-1.894-3.487l-24.656-13.6A1.427,1.427,0,0,0,240.814,27.175Z" transform="translate(-171.047 10.218)"/>
          <path id="Path_5000" data-name="Path 5000" class="cls-11" d="M273.066,92.853l-2.3,1.385-.36-.717.066-.04a.369.369,0,0,0,.147-.49l-1.033-2.05a1.779,1.779,0,0,1-.105-1.3l.711-2.368a1.853,1.853,0,0,1,.81-1.049l2.008-1.213a.369.369,0,0,0,.147-.49l-.033-.066.714-.43,1.174,2.331a.424.424,0,0,0,.276.232.446.446,0,0,0,.363-.057.523.523,0,0,0,.2-.682l-1.174-2.334.408-.249a.392.392,0,0,0,.153-.508.317.317,0,0,0-.206-.171.334.334,0,0,0-.269.041l-.411.247-1.174-2.331a.424.424,0,0,0-.276-.232.446.446,0,0,0-.363.057.526.526,0,0,0-.2.682l1.177,2.334-.714.43-.033-.066a.3.3,0,0,0-.2-.17.312.312,0,0,0-.261.044l-2.011,1.216a1.588,1.588,0,0,1-1.243.192l-2.2-.611a1.5,1.5,0,0,1-.949-.791l-1.033-2.047a.3.3,0,0,0-.2-.168.312.312,0,0,0-.26.045l-.066.037L264,80.77l2.269-1.385a.526.526,0,0,0,.207-.682.424.424,0,0,0-.276-.232.446.446,0,0,0-.363.057l-2.269,1.385-.21-.419a.32.32,0,0,0-.205-.171.337.337,0,0,0-.269.039.4.4,0,0,0-.153.51l.21.419-2.29,1.382a.526.526,0,0,0-.2.685h0a.424.424,0,0,0,.275.231.446.446,0,0,0,.361-.056l2.29-1.385.366.725-.063.04a.369.369,0,0,0-.147.49l1.03,2.047a1.749,1.749,0,0,1,.105,1.3l-.708,2.368a1.855,1.855,0,0,1-.81,1.049l-2.011,1.213a.378.378,0,0,0-.147.49l.033.066-.711.433-1.177-2.334a.421.421,0,0,0-.275-.232.443.443,0,0,0-.362.057h0a.529.529,0,0,0-.207.685l1.177,2.331-.411.249a.4.4,0,0,0-.153.508.32.32,0,0,0,.206.169.337.337,0,0,0,.268-.04l.411-.247,1.177,2.331a.42.42,0,0,0,.275.232.443.443,0,0,0,.362-.057.526.526,0,0,0,.207-.682l-1.177-2.334.714-.43.033.066a.3.3,0,0,0,.2.17.311.311,0,0,0,.26-.044l2.011-1.216a1.585,1.585,0,0,1,1.225-.186l2.206.6a1.514,1.514,0,0,1,.949.791l1.048,2.047a.3.3,0,0,0,.2.17.312.312,0,0,0,.261-.044l.066-.04.366.725L267.864,96a.526.526,0,0,0-.2.682.424.424,0,0,0,.276.232.446.446,0,0,0,.363-.057l2.29-1.382.21.416a.317.317,0,0,0,.2.172.334.334,0,0,0,.27-.04h0a.4.4,0,0,0,.153-.51l-.213-.419,2.293-1.382a.528.528,0,0,0,.2-.685.426.426,0,0,0-.278-.236A.449.449,0,0,0,273.066,92.853Z" transform="translate(-185.393 -26.763)"/>
        </g>
      </g>
    </g>
    <path id="Path_4994" data-name="Path 4994" class="cls-12" d="M134.533,345.032a4.939,4.939,0,0,1,.687-2.083,2.536,2.536,0,0,1,1.273-1.065,3.164,3.164,0,0,1,1.753-.059,7.341,7.341,0,0,1,2.131.863,10.908,10.908,0,0,1,2.131,1.625,11.382,11.382,0,0,1,1.614,2.035,9.664,9.664,0,0,1,1.033,2.211,7.126,7.126,0,0,1,.362,2.205,5.5,5.5,0,0,1-.181,1.55,2.13,2.13,0,0,1-.533.937,1.493,1.493,0,0,1-.852.4,3.439,3.439,0,0,1-1.151-.053,10.464,10.464,0,0,1,2.3,3.031,7.559,7.559,0,0,1,.762,3.308,4.82,4.82,0,0,1-.474,2.322,2.461,2.461,0,0,1-1.284,1.161,3.334,3.334,0,0,1-1.864.085,7.7,7.7,0,0,1-2.248-.906,12.335,12.335,0,0,1-2.253-1.641,10.864,10.864,0,0,1-1.667-1.971,12.655,12.655,0,0,1-1.209-2.328,20.242,20.242,0,0,1-.858-2.727l1.294.138a1.7,1.7,0,0,1,.954.421,2.088,2.088,0,0,1,.645.922c.144.4.3.8.469,1.209a8,8,0,0,0,.613,1.177,6.573,6.573,0,0,0,.836,1.065,4.959,4.959,0,0,0,1.145.884,3.166,3.166,0,0,0,1.3.474,1.455,1.455,0,0,0,.932-.192,1.385,1.385,0,0,0,.559-.676,2.584,2.584,0,0,0,.181-1A7,7,0,0,0,142.8,357a3.867,3.867,0,0,0-.533-1.305,6.421,6.421,0,0,0-1.188-1.326A13.51,13.51,0,0,0,139,352.937v-2.392a8.255,8.255,0,0,0,1.79.8,1.913,1.913,0,0,0,1.135.048.938.938,0,0,0,.586-.591,3.163,3.163,0,0,0,.165-1.1,4.7,4.7,0,0,0-.682-2.5,5,5,0,0,0-1.8-1.758,3.051,3.051,0,0,0-.959-.383,1.6,1.6,0,0,0-.788,0,1.246,1.246,0,0,0-.591.378,1.736,1.736,0,0,0-.352.692c-.138.341-.314.533-.533.533a1.7,1.7,0,0,1-.922-.437Z" transform="translate(1110.73 555.529)"/>
    <path id="Path_4995" data-name="Path 4995" class="cls-13" d="M165.415,365.959l-.6.5a3.688,3.688,0,0,1,1.065.176,6.012,6.012,0,0,1,1.236.533,9.539,9.539,0,0,1,1.891,1.46,10.422,10.422,0,0,1,1.6,2.045,11.03,11.03,0,0,1,1.124,2.493,9.17,9.17,0,0,1,.431,2.818,5.508,5.508,0,0,1-.442,2.323,2.935,2.935,0,0,1-1.23,1.39,3.148,3.148,0,0,1-1.918.309,6.541,6.541,0,0,1-2.472-.911,11.115,11.115,0,0,1-2.466-1.928,12.593,12.593,0,0,1-1.859-2.482,12.172,12.172,0,0,1-1.177-2.855,11.457,11.457,0,0,1-.41-3.058,6.642,6.642,0,0,1,.49-2.567,6.445,6.445,0,0,1,1.523-2.163l4.091-3.936a.863.863,0,0,1,.623-.2,2,2,0,0,1,.943.314l2.6,1.5Zm.661,10.382a3.408,3.408,0,0,0,1.289.469,1.566,1.566,0,0,0,1.007-.181,1.6,1.6,0,0,0,.655-.767,3.131,3.131,0,0,0,.24-1.3,6.13,6.13,0,0,0-.224-1.646,6.564,6.564,0,0,0-.645-1.513,6.323,6.323,0,0,0-1-1.289,6.022,6.022,0,0,0-1.278-.985,3.259,3.259,0,0,0-1.268-.458,1.513,1.513,0,0,0-.969.192,1.646,1.646,0,0,0-.629.783,3.2,3.2,0,0,0-.229,1.289,6.738,6.738,0,0,0,.2,1.6,6.391,6.391,0,0,0,.581,1.486,6.163,6.163,0,0,0,.953,1.289,5.83,5.83,0,0,0,1.326,1.034Z" transform="translate(1098.491 547.036)"/>
    <path id="Path_4996" data-name="Path 4996" class="cls-14" d="M189.941,377.712a11.679,11.679,0,0,1,1.092.431,10.064,10.064,0,0,1,1.007.533,11.07,11.07,0,0,1,2.381,1.838,11.309,11.309,0,0,1,1.731,2.28,10.548,10.548,0,0,1,1.065,2.52,9.587,9.587,0,0,1,.357,2.567,6.056,6.056,0,0,1-.479,2.578,2.924,2.924,0,0,1-1.337,1.438,3.292,3.292,0,0,1-2.019.256,7.275,7.275,0,0,1-2.541-.964,10.375,10.375,0,0,1-1.529-1.065,14.881,14.881,0,0,1-1.358-1.294,17.944,17.944,0,0,1-1.177-1.412c-.357-.485-.682-.964-.964-1.438l.9-.906a.533.533,0,0,1,.746-.032,2.244,2.244,0,0,1,.607.565c.2.266.442.533.7.884a13.093,13.093,0,0,0,.937,1.017,6.4,6.4,0,0,0,1.3.964,3.544,3.544,0,0,0,1.422.533,1.433,1.433,0,0,0,1.023-.24,1.806,1.806,0,0,0,.618-.927,4.732,4.732,0,0,0,.208-1.492,5.775,5.775,0,0,0-.81-2.978,6.472,6.472,0,0,0-2.418-2.291,7.611,7.611,0,0,0-2.5-.927l-1.822-1.651,1.422-8.731,8.464,4.89v1.428a1,1,0,0,1-.394.943q-.394.224-1.326-.32l-4.709-2.717Z" transform="translate(1086.35 542.425)"/>
  </g>
</svg>
