<svg xmlns="http://www.w3.org/2000/svg" viewBox="3359.88 1495.9 171.92 27.701">
  <defs>
    <style>
      .cls-1 {
        fill: #2e5aa8;
      }

      .cls-2 {
        fill: #92c741;
      }
    </style>
  </defs>
  <g id="acend_logo" data-name="acend logo" transform="translate(3350.08 1439.1)">
    <g id="Group_1710" data-name="Group 1710" transform="translate(9.8 56.8)">
      <path id="Path_2640" data-name="Path 2640" class="cls-1" d="M40.214,85.977a.714.714,0,0,1-.785.785.872.872,0,0,1-.643-.286l-4.569-5.426H15.726l-4.5,5.355a.649.649,0,0,1-.571.286c-.571,0-.857-.286-.857-.785a1.032,1.032,0,0,1,.143-.5L24.65,67.7,39.857,85.406a.588.588,0,0,1,.357.571m-7.354-6.5L24.793,70.2,17.082,79.48Z" transform="translate(-9.8 -59.918)"/>
      <path id="Path_2641" data-name="Path 2641" class="cls-1" d="M86.189,73.055a.811.811,0,0,1-.571.214.649.649,0,0,1-.571-.286,11.785,11.785,0,0,0-4-2.784,14.106,14.106,0,0,0-5.212-1,12.343,12.343,0,0,0-7.782,2.427,6.977,6.977,0,0,0-3.213,5.783,7.167,7.167,0,0,0,3.213,5.783,12.789,12.789,0,0,0,7.782,2.427,13.829,13.829,0,0,0,5.212-1,9.614,9.614,0,0,0,4-2.784.881.881,0,0,1,.571-.286.949.949,0,0,1,.571.214.67.67,0,0,1,.071,1.071,11.59,11.59,0,0,1-4.5,3.141,15.108,15.108,0,0,1-5.926,1.142,14.24,14.24,0,0,1-8.853-2.784c-2.5-1.928-3.784-4.212-3.784-6.925a8.449,8.449,0,0,1,3.784-6.925A14.1,14.1,0,0,1,75.837,67.7a15.108,15.108,0,0,1,5.926,1.142,11.59,11.59,0,0,1,4.5,3.141.666.666,0,0,1-.071,1.071" transform="translate(-25.075 -59.918)"/>
      <path id="Path_2642" data-name="Path 2642" class="cls-1" d="M115.371,78.367v6.925h21.847a.785.785,0,1,1,0,1.571H113.8V68.3h23.418a.785.785,0,1,1,0,1.571H115.371V76.8h21.847a.785.785,0,1,1,0,1.571H115.371Z" transform="translate(-39.549 -60.09)"/>
      <path id="Path_2643" data-name="Path 2643" class="cls-1" d="M189.3,69.042V87.534L166.671,70.541V85.963a.785.785,0,0,1-1.571,0V67.4l22.632,16.992V69.042a.714.714,0,0,1,.785-.785.685.685,0,0,1,.785.785" transform="translate(-54.223 -59.832)"/>
      <path id="Path_2644" data-name="Path 2644" class="cls-1" d="M239.19,72.227a9.223,9.223,0,0,1,0,10.709,8.778,8.778,0,0,1-4.5,3.356,9.326,9.326,0,0,1-3.07.571H216.7V68.3h14.922a9,9,0,0,1,3.07.571,9.185,9.185,0,0,1,4.5,3.356M237.9,82.079a7.575,7.575,0,0,0,0-8.853,7.715,7.715,0,0,0-3.713-2.856,7.468,7.468,0,0,0-2.57-.428H218.271V85.364h13.351a7.468,7.468,0,0,0,2.57-.428,8.171,8.171,0,0,0,3.713-2.856" transform="translate(-68.983 -60.09)"/>
      <path id="Path_2645" data-name="Path 2645" class="cls-2" d="M35.693,66.224l-3.141-3.641-5-5.783-7.425,9.139h0l-.286.286a.6.6,0,0,0-.143.5.685.685,0,0,0,.785.785.649.649,0,0,0,.571-.286l4-4.783h0L27.7,59.3l3.927,4.569L34.55,67.3a.649.649,0,0,0,.571.286.685.685,0,0,0,.785-.785.7.7,0,0,0-.214-.571" transform="translate(-12.632 -56.8)"/>
    </g>
  </g>
</svg>
