<svg xmlns="http://www.w3.org/2000/svg" xmlns:xlink="http://www.w3.org/1999/xlink" viewBox="8172.2 -2360 86.02 119.799">
  <defs>
    <style>
      .cls-1 {
        opacity: 0.51;
      }

      .cls-2 {
        fill: #fff;
      }

      .cls-3 {
        fill: url(#linear-gradient);
      }

      .cls-4 {
        fill: url(#linear-gradient-2);
      }

      .cls-5 {
        fill: url(#linear-gradient-5);
      }

      .cls-6 {
        fill: url(#linear-gradient-7);
      }

      .cls-7 {
        stroke: #fff;
        stroke-miterlimit: 10;
        fill: url(#linear-gradient-8);
      }

      .cls-8 {
        fill: url(#linear-gradient-9);
      }

      .cls-9 {
        fill: url(#linear-gradient-11);
      }

      .cls-10 {
        fill: #fdffff;
      }

      .cls-11 {
        fill: url(#linear-gradient-12);
      }

      .cls-12 {
        fill: url(#linear-gradient-16);
      }

      .cls-13 {
        fill: url(#linear-gradient-17);
      }

      .cls-14 {
        fill: url(#linear-gradient-19);
      }

      .cls-15 {
        fill: url(#linear-gradient-21);
      }
    </style>
    <linearGradient id="linear-gradient" x1="7.175" y1="0.5" x2="8.175" y2="0.5" gradientUnits="objectBoundingBox">
      <stop offset="0" stop-color="#3e77bc"/>
      <stop offset="0.05" stop-color="#407bbf"/>
      <stop offset="0.37" stop-color="#4a8fcd"/>
      <stop offset="0.68" stop-color="#509bd5"/>
      <stop offset="1" stop-color="#529fd8"/>
    </linearGradient>
    <linearGradient id="linear-gradient-2" y1="0.5" x2="1" y2="0.5" gradientUnits="objectBoundingBox">
      <stop offset="0" stop-color="#3e77bc"/>
      <stop offset="1" stop-color="#529fd8"/>
    </linearGradient>
    <linearGradient id="linear-gradient-5" x1="0" y1="0.5" x2="1" y2="0.5" xlink:href="#linear-gradient-2"/>
    <linearGradient id="linear-gradient-7" x1="0.001" y1="0.5" x2="1.001" y2="0.5" xlink:href="#linear-gradient-2"/>
    <linearGradient id="linear-gradient-8" x1="-0.114" y1="0.5" x2="1.114" y2="0.5" xlink:href="#linear-gradient-2"/>
    <linearGradient id="linear-gradient-9" x1="0" y1="0.5" x2="1" y2="0.5" xlink:href="#linear-gradient-2"/>
    <linearGradient id="linear-gradient-11" x1="0.368" y1="0.265" x2="0.675" y2="0.711" xlink:href="#linear-gradient-2"/>
    <linearGradient id="linear-gradient-12" x1="0" y1="0.5" x2="1" y2="0.5" xlink:href="#linear-gradient-2"/>
    <linearGradient id="linear-gradient-16" x1="0" y1="0.5" x2="1" y2="0.5" xlink:href="#linear-gradient-2"/>
    <linearGradient id="linear-gradient-17" x1="0" y1="0.5" x2="1" y2="0.5" xlink:href="#linear-gradient-2"/>
    <linearGradient id="linear-gradient-19" x1="0" y1="0.5" x2="1" y2="0.5" xlink:href="#linear-gradient-2"/>
    <linearGradient id="linear-gradient-21" x1="0" y1="0.5" x2="1" y2="0.5" xlink:href="#linear-gradient-2"/>
  </defs>
  <g id="icon_8" data-name="icon 8" transform="translate(8172.25 -2359.996)">
    <g id="Group_2354" data-name="Group 2354" class="cls-1" transform="translate(59.504 0.26)">
      <path id="Path_3304" data-name="Path 3304" class="cls-2" d="M324.2,37.171a54.1,54.1,0,0,1-12-11.133c-.263.034-5.219.7-12.025-2.728-.079.852-1.61,17.1,11.938,33.41C325.706,56.073,324.262,38.124,324.2,37.171Z" transform="translate(-300.08 -23.31)"/>
    </g>
    <path id="Path_3305" data-name="Path 3305" class="cls-3" d="M311.379,56.251a.263.263,0,0,1-.21-.089C297.938,40.2,299.014,24.3,299.18,22.544a.263.263,0,0,1,.379-.21c6.543,3.3,11.346,2.786,11.872,2.7a.263.263,0,0,1,.242.1,54.2,54.2,0,0,0,11.938,11.083.263.263,0,0,1,.118.2c.139,1.752.6,10.754-4.057,16.047a11.3,11.3,0,0,1-8.281,3.78ZM299.672,22.978c-.205,2.983-.51,17.807,11.825,32.742a10.758,10.758,0,0,0,7.782-3.6c4.472-5.077,4.043-14.009,3.946-15.534A54.78,54.78,0,0,1,311.36,25.577C310.358,25.682,305.767,25.95,299.672,22.978Z" transform="translate(-239.847 -22.31)"/>
    <path id="Path_3306" data-name="Path 3306" class="cls-4" d="M302.191,238.106h-.476l-.418-.971.439.034a1.639,1.639,0,0,0,1.273-.413,2.6,2.6,0,0,0,.673-1.949V174.262a7.916,7.916,0,0,0-3.591-6.193l-21.119-12.2a2.381,2.381,0,0,0-2.352-.276,2.2,2.2,0,0,0-.971,2l-.018.463-.881-.573v-.142a4.071,4.071,0,0,1,1.407-2.973,6.683,6.683,0,0,1,4.58-1.784h0a3.993,3.993,0,0,1,1.973.6l21.122,12.193a8.932,8.932,0,0,1,4.046,6.982v60.717a4.582,4.582,0,0,1-1.449,3.42A6.472,6.472,0,0,1,302.191,238.106Zm-24.744-83.238a3.683,3.683,0,0,1,1.8.545l21.119,12.2a8.5,8.5,0,0,1,3.854,6.648v60.562a3.1,3.1,0,0,1-.842,2.336,2.1,2.1,0,0,1-.629.4,5.846,5.846,0,0,0,3.328-1.439,4,4,0,0,0,1.273-2.925h0V172.36a8.351,8.351,0,0,0-3.783-6.527l-21.122-12.193a3.467,3.467,0,0,0-1.728-.526,6.254,6.254,0,0,0-4.209,1.642,4.539,4.539,0,0,0-.671.789,2.021,2.021,0,0,1,.526-.408A2.165,2.165,0,0,1,277.446,154.868Z" transform="translate(-221.91 -118.312)"/>
    <path id="Path_3307" data-name="Path 3307" class="cls-2" d="M302.576,243.908a3.756,3.756,0,0,1-1.86-.56l-21.119-12.2a8.634,8.634,0,0,1-3.917-6.753V163.837c0-1.842.96-3.017,2.441-3.017a3.756,3.756,0,0,1,1.852.573l21.119,12.193a8.571,8.571,0,0,1,3.925,6.748v60.556C305.018,242.725,304.06,243.908,302.576,243.908Z" transform="translate(-222.595 -124.385)"/>
    <path id="Path_3308" data-name="Path 3308" class="cls-4" d="M301.839,243.435a3.991,3.991,0,0,1-1.991-.6l-21.119-12.2a8.928,8.928,0,0,1-4.049-6.982V163.1c0-1.994,1.052-3.281,2.7-3.281a4,4,0,0,1,1.991.595l21.119,12.2a8.924,8.924,0,0,1,4.049,6.982v60.562C304.544,242.146,303.481,243.435,301.839,243.435Zm-24.445-83.088c-1.342,0-2.178,1.052-2.178,2.754v60.562A8.353,8.353,0,0,0,279,230.189l21.119,12.193a3.483,3.483,0,0,0,1.728.526c1.344,0,2.178-1.052,2.178-2.754V179.6a8.346,8.346,0,0,0-3.786-6.527l-21.119-12.193A3.483,3.483,0,0,0,277.395,160.346Z" transform="translate(-221.858 -123.648)"/>
    <path id="Path_3309" data-name="Path 3309" class="cls-2" d="M302.576,243.908a3.756,3.756,0,0,1-1.86-.56l-21.119-12.2a8.634,8.634,0,0,1-3.917-6.753V163.837c0-1.842.96-3.017,2.441-3.017a3.756,3.756,0,0,1,1.852.573l21.119,12.193a8.571,8.571,0,0,1,3.925,6.748v60.556C305.018,242.725,304.06,243.908,302.576,243.908Z" transform="translate(-222.595 -124.385)"/>
    <path id="Path_3310" data-name="Path 3310" class="cls-4" d="M301.839,243.435a3.991,3.991,0,0,1-1.991-.6l-21.119-12.2a8.928,8.928,0,0,1-4.049-6.982V163.1c0-1.994,1.052-3.281,2.7-3.281a4,4,0,0,1,1.991.595l21.119,12.2a8.924,8.924,0,0,1,4.049,6.982v60.562C304.544,242.146,303.481,243.435,301.839,243.435Zm-24.445-83.088c-1.342,0-2.178,1.052-2.178,2.754v60.562A8.353,8.353,0,0,0,279,230.189l21.119,12.193a3.483,3.483,0,0,0,1.728.526c1.344,0,2.178-1.052,2.178-2.754V179.6a8.346,8.346,0,0,0-3.786-6.527l-21.119-12.193A3.483,3.483,0,0,0,277.395,160.346Z" transform="translate(-221.858 -123.648)"/>
    <ellipse id="Ellipse_402" data-name="Ellipse 402" class="cls-2" cx="1.697" cy="2.939" rx="1.697" ry="2.939" transform="translate(64.804 107.189) rotate(-30.31)"/>
    <path id="Path_3311" data-name="Path 3311" class="cls-5" d="M325.8,430.852a2.149,2.149,0,0,1-1.068-.324,4.817,4.817,0,0,1-2.215-3.822A1.521,1.521,0,0,1,325,425.291a4.811,4.811,0,0,1,2.218,3.822,1.7,1.7,0,0,1-.739,1.565A1.339,1.339,0,0,1,325.8,430.852Zm-1.87-5.351a.805.805,0,0,0-.413.105,1.2,1.2,0,0,0-.474,1.108A4.309,4.309,0,0,0,325,430.081a1.253,1.253,0,0,0,1.215.147,1.2,1.2,0,0,0,.476-1.108,4.3,4.3,0,0,0-1.955-3.367,1.637,1.637,0,0,0-.8-.253Z" transform="translate(-257.113 -319.042)"/>
    <path id="Path_3312" data-name="Path 3312" class="cls-4" d="M234.2,236.348,208.12,221.293V168.26L234.2,183.318Z" transform="translate(-153.406 -123.999)"/>
    <path id="Path_3313" data-name="Path 3313" class="cls-6" d="M336.05,67.461q.566.526,1.118,1.081a9.3,9.3,0,0,1,.992,1.181,5.908,5.908,0,0,1,.71,1.334,4.286,4.286,0,0,1,.263,1.547A3.631,3.631,0,0,1,338.893,74a1.791,1.791,0,0,1-.695.871,1.841,1.841,0,0,1-1.118.245,3.973,3.973,0,0,1-1.51-.466l-.095,1.447a.3.3,0,0,1-.124.263.279.279,0,0,1-.3-.029L334.487,76l.126-1.926a9.851,9.851,0,0,1-1.726-1.549,11.231,11.231,0,0,1-1.357-1.886l.463-.545a.3.3,0,0,1,.171-.079.363.363,0,0,1,.229.058,1.25,1.25,0,0,1,.35.363c.126.184.281.4.458.639s.389.505.631.789a5.6,5.6,0,0,0,.876.789L335,68.24q-.549-.509-1.081-1.052a7.939,7.939,0,0,1-.947-1.2,6.123,6.123,0,0,1-.684-1.371,4.887,4.887,0,0,1-.263-1.618,2.807,2.807,0,0,1,.226-1.165,1.578,1.578,0,0,1,.663-.742,1.841,1.841,0,0,1,1.076-.189,3.875,3.875,0,0,1,1.463.492l.079-1.215a.292.292,0,0,1,.126-.25.263.263,0,0,1,.3.026l.566.326-.11,1.71a8.006,8.006,0,0,1,1.426,1.315,10.931,10.931,0,0,1,1.052,1.5l-.371.437a.263.263,0,0,1-.384.074,1.146,1.146,0,0,1-.263-.263c-.105-.134-.234-.292-.384-.471s-.321-.371-.513-.579a5.464,5.464,0,0,0-.652-.592Zm-.689-4.612a2.728,2.728,0,0,0-.852-.263,1.052,1.052,0,0,0-.589.084.724.724,0,0,0-.342.379,1.616,1.616,0,0,0-.108.613,2.469,2.469,0,0,0,.124.789,3.422,3.422,0,0,0,.35.729,5.511,5.511,0,0,0,.526.705c.2.229.416.458.647.689Zm.313,10.347a1.611,1.611,0,0,0,1.5.132,1.391,1.391,0,0,0,.526-1.281,2.384,2.384,0,0,0-.137-.81,3.623,3.623,0,0,0-.374-.75,5.049,5.049,0,0,0-.552-.713q-.316-.342-.679-.687Z" transform="translate(-263.752 -50.007)"/>
    <ellipse id="Ellipse_403" data-name="Ellipse 403" class="cls-7" cx="2.57" cy="4.449" rx="2.57" ry="4.449" transform="translate(61.709 68.106) rotate(-30.31)"/>
    <path id="Path_3314" data-name="Path 3314" class="cls-2" d="M206.154,305.6c3.886-.61,3.325-2.5,2.575-2.631s-8.118,1.052-8.118,1.052-.568-.129-.789.687,1.484,1.76,1.484,1.76.174-.047.666-.147l-5.556,4.172-3.083-2.081-20.912,12.13,17.962-.971,8.784-4.08c2.844.76,4.58-1.26,5.364-2.631a1.008,1.008,0,0,0,.182.032l.818.063a1.155,1.155,0,0,0,1.236-1.065l.061-.818a1.144,1.144,0,0,0-.171-.689,1.271,1.271,0,0,0,.965-1.134l.066-.9A1.265,1.265,0,0,0,206.509,307l-.894-.079a1.268,1.268,0,0,0-1.315.944,11.174,11.174,0,0,0-1.21-1.734C203.812,305.988,204.807,305.817,206.154,305.6Z" transform="translate(-146.5 -229.135)"/>
    <path id="Path_3315" data-name="Path 3315" class="cls-8" d="M168.32,320.115l22.014-12.756,3.065,2.068,4.675-3.517c-.392-.231-1.765-1.113-1.526-2.01.21-.789.744-.923,1.052-.884.939-.153,7.4-1.194,8.155-1.052a.989.989,0,0,1,.755,1.01c0,.489-.339,1.676-3.336,2.147-.987.155-1.868.3-2.631.434a11.157,11.157,0,0,1,.7,1.01,1.539,1.539,0,0,1,1.365-.645l.9.068a1.531,1.531,0,0,1,1.415,1.644l-.066.9a1.521,1.521,0,0,1-.868,1.263,1.41,1.41,0,0,1,.074.563l-.05.813a1.418,1.418,0,0,1-1.521,1.315l-.818-.061h-.029a4.957,4.957,0,0,1-5.472,2.61l-8.75,4.054h-.05Zm21.98-12.141-19.822,11.5,16.818-.908,8.826-4.093.092.024c2.739.731,4.351-1.252,5.067-2.5l.1-.168.192.045a1.188,1.188,0,0,0,.139.026l.818.06a.894.894,0,0,0,.955-.821l.061-.818a.876.876,0,0,0-.132-.526l-.189-.308.35-.084a1,1,0,0,0,.766-.9l.068-.9a1.01,1.01,0,0,0-.929-1.081l-.9-.066a1,1,0,0,0-1.052.747l-.168.637-.316-.576a11.05,11.05,0,0,0-1.179-1.713l-.16-.189-6.314,4.722Zm7.192-4.433c-.092,0-.316.05-.434.5s.752,1.108,1.268,1.413c.1-.024.284-.066.574-.124l1.15-.234-.029.018c.855-.153,1.886-.326,3.073-.526h0c2.123-.334,2.894-1.052,2.894-1.631a.471.471,0,0,0-.324-.487c-.513-.089-5.2.605-8.029,1.052h-.1Z" transform="translate(-143.478 -228.388)"/>
    <path id="Path_3316" data-name="Path 3316" class="cls-2" d="M202.192,291.609l7.416-2.286a2.82,2.82,0,0,0,1.841-3.533l-3.273.958-10.123,2.988a1.684,1.684,0,0,0-.837.613l-3.893,5.411-20.9,12.13,17.16-2.126,9.01-4.135c5.585.729,5.927-4.785,5.948-5.261l3.588-2.07h0l1.526-.881a1.89,1.89,0,1,0-1.891-3.273l-4.935,2.87a.789.789,0,0,1-.773,0h0a.773.773,0,0,1,.139-1.4Z" transform="translate(-146.5 -216.479)"/>
    <path id="Path_3317" data-name="Path 3317" class="cls-4" d="M167.68,307.4l21.977-12.748,3.862-5.364a1.939,1.939,0,0,1,.968-.71l10.131-2.991,3.52-1.031.076.247a3.086,3.086,0,0,1-2.02,3.864l-.445.137h.021a2.155,2.155,0,0,1,.526,3.946l-5,2.881a6.547,6.547,0,0,1-1.981,4.338,5.231,5.231,0,0,1-4.178,1.029l-8.979,4.109h-.039Zm40.1-22.2-3.01.881-10.123,2.988a1.4,1.4,0,0,0-.7.526l-3.925,5.456-.05.026-19.8,11.483,15.842-1.963,9.042-4.141h.074a4.766,4.766,0,0,0,3.846-.9,6.108,6.108,0,0,0,1.8-4.1V295.3l5.246-3.007a1.628,1.628,0,1,0-1.628-2.82l-4.94,2.852a1.037,1.037,0,1,1-.842-1.881h0l7.413-2.286a2.557,2.557,0,0,0,1.747-2.967Zm-9,5.743a.509.509,0,1,0,.416.923l3.914-2.26Z" transform="translate(-143.007 -215.565)"/>
    <path id="Path_3319" data-name="Path 3319" class="cls-9" d="M179.128,334.84a10.363,10.363,0,0,0-4.712-8.124c-1.4-.81-2.662-.834-3.525-.216l-20.425,10.318,6.7,11.467,20.6-10.428A3.3,3.3,0,0,0,179.128,334.84Z" transform="translate(-129.378 -246.162)"/>
    <path id="Path_3334" data-name="Path 3334" class="cls-2" d="M0,1.058Z" transform="translate(20.618 97.397) rotate(-30.31)"/>
    <path id="Path_3320" data-name="Path 3320" class="cls-10" d="M140.013,275.889l-2.973-1.715V272.33l2.973,1.715Z" transform="translate(-101.026 -200.691)"/>
    <path id="Path_3321" data-name="Path 3321" class="cls-2" d="M158.59,198.787l-23.6-13.624a4.691,4.691,0,0,1-1.957-3.741V164.727c0-1.442.876-2.1,1.957-1.478l23.6,13.624a4.691,4.691,0,0,1,1.957,3.741V197.3C160.547,198.745,159.671,199.408,158.59,198.787Z" transform="translate(-117.472 -126.001)"/>
    <path id="Path_3322" data-name="Path 3322" class="cls-11" d="M158.654,198.535a1.841,1.841,0,0,1-.91-.263l-23.595-13.635a4.912,4.912,0,0,1-2.089-3.967V163.98a1.988,1.988,0,0,1,.808-1.81,1.489,1.489,0,0,1,1.544.1l23.6,13.627a4.913,4.913,0,0,1,2.089,3.967v16.689a1.988,1.988,0,0,1-.808,1.81,1.237,1.237,0,0,1-.642.168Zm-.647-.726a1.029,1.029,0,0,0,1.018.1,1.5,1.5,0,0,0,.545-1.355V179.867a4.4,4.4,0,0,0-1.826-3.512l-23.595-13.627a1.026,1.026,0,0,0-1.018-.1,1.508,1.508,0,0,0-.545,1.355v16.7a4.411,4.411,0,0,0,1.826,3.512Z" transform="translate(-116.757 -125.254)"/>
    <path id="Path_3323" data-name="Path 3323" class="cls-4" d="M86.8,167.645,59.28,151.758V146.91L86.8,162.8Z" transform="translate(-43.722 -108.265)"/>
    <path id="Path_3324" data-name="Path 3324" class="cls-10" d="M84.421,190.679,69.86,182.274V180.43l14.561,8.408Z" transform="translate(-51.519 -132.967)"/>
    <path id="Path_3325" data-name="Path 3325" class="cls-4" d="M84.421,213.254,69.86,204.847v-.737l14.561,8.408Z" transform="translate(-51.519 -150.418)"/>
    <path id="Path_3326" data-name="Path 3326" class="cls-5" d="M87.633,222.629,69.86,212.367v-.737l17.773,10.26Z" transform="translate(-51.519 -155.959)"/>
    <path id="Path_3327" data-name="Path 3327" class="cls-2" d="M100.31,219.175l-23.6-13.627a4.694,4.694,0,0,1-1.96-3.741V185.117c0-1.442.879-2.1,1.96-1.478l23.6,13.624A4.694,4.694,0,0,1,102.27,201v16.689C102.27,219.135,101.386,219.8,100.31,219.175Z" transform="translate(-74.524 -141.027)"/>
    <path id="Path_3328" data-name="Path 3328" class="cls-12" d="M100.315,218.925a1.842,1.842,0,0,1-.91-.263L75.8,205.027a4.915,4.915,0,0,1-2.1-3.967V184.37a1.987,1.987,0,0,1,.81-1.81,1.49,1.49,0,0,1,1.544.1l23.6,13.627a4.919,4.919,0,0,1,2.1,3.967v16.689a1.984,1.984,0,0,1-.81,1.81A1.236,1.236,0,0,1,100.315,218.925Zm-.647-.726a1.029,1.029,0,0,0,1.018.1,1.5,1.5,0,0,0,.547-1.355V200.257a4.381,4.381,0,0,0-1.841-3.512L75.8,183.118a1.029,1.029,0,0,0-1.018-.1,1.5,1.5,0,0,0-.547,1.355V201.06a4.381,4.381,0,0,0,1.841,3.512Z" transform="translate(-73.75 -140.28)"/>
    <path id="Path_3329" data-name="Path 3329" class="cls-13" d="M152.5,246.094l-2.875-1.66a2.383,2.383,0,0,1-1-1.9v-2.973c0-.734.445-1.071,1-.752l2.875,1.66a2.383,2.383,0,0,1,1,1.9v2.975C153.5,246.075,153.055,246.412,152.5,246.094Z" transform="translate(-128.968 -181.765)"/>
    <path id="Path_3330" data-name="Path 3330" class="cls-4" d="M26.144,223.444,11.58,215.037V214.3l14.564,8.405Z" transform="translate(-8.57 -157.927)"/>
    <path id="Path_3331" data-name="Path 3331" class="cls-14" d="M29.356,232.809,11.58,222.547v-.737l17.776,10.262Z" transform="translate(-8.57 -163.461)"/>
    <path id="Path_3332" data-name="Path 3332" class="cls-4" d="M26.144,239.579,11.58,231.171V229.33l14.564,8.405Z" transform="translate(-8.57 -169.003)"/>
    <path id="Path_3333" data-name="Path 3333" class="cls-15" d="M75.81,268.249l-2.97-1.715V264.69l2.97,1.715Z" transform="translate(-53.715 -195.061)"/>
  </g>
</svg>
