<svg xmlns="http://www.w3.org/2000/svg" xmlns:xlink="http://www.w3.org/1999/xlink" viewBox="11041 9009.741 86.443 117.39">
  <defs>
    <style>
      .cls-1 {
        fill: #fff;
      }

      .cls-2 {
        fill: url(#linear-gradient);
      }

      .cls-3 {
        fill: url(#linear-gradient-2);
      }

      .cls-4 {
        fill: url(#linear-gradient-3);
      }

      .cls-5 {
        fill: url(#linear-gradient-4);
      }

      .cls-6 {
        fill: url(#linear-gradient-5);
      }

      .cls-7 {
        fill: url(#linear-gradient-6);
      }

      .cls-8 {
        fill: url(#linear-gradient-7);
      }

      .cls-9 {
        fill: url(#linear-gradient-8);
      }

      .cls-10 {
        fill: url(#linear-gradient-9);
      }

      .cls-11 {
        fill: #f9a61a;
      }

      .cls-12 {
        fill: #f58921;
      }

      .cls-13 {
        fill: url(#linear-gradient-10);
      }

      .cls-14 {
        fill: url(#linear-gradient-12);
      }

      .cls-15 {
        fill: url(#linear-gradient-13);
      }

      .cls-16 {
        fill: url(#linear-gradient-14);
      }

      .cls-17 {
        fill: url(#linear-gradient-15);
      }

      .cls-18 {
        fill: url(#linear-gradient-16);
      }

      .cls-19 {
        fill: url(#linear-gradient-17);
      }

      .cls-20 {
        fill: url(#linear-gradient-18);
      }
    </style>
    <linearGradient id="linear-gradient" y1="0.499" x2="1" y2="0.499" gradientUnits="objectBoundingBox">
      <stop offset="0" stop-color="#3e77bc"/>
      <stop offset="1" stop-color="#529fd8"/>
    </linearGradient>
    <linearGradient id="linear-gradient-2" x1="0" y1="0.5" x2="1" y2="0.5" xlink:href="#linear-gradient"/>
    <linearGradient id="linear-gradient-3" x1="0.001" y1="0.501" x2="1.002" y2="0.501" xlink:href="#linear-gradient"/>
    <linearGradient id="linear-gradient-4" x1="0" y1="0.5" x2="1" y2="0.5" xlink:href="#linear-gradient"/>
    <linearGradient id="linear-gradient-5" x1="0" y1="0.5" x2="1" y2="0.5" xlink:href="#linear-gradient"/>
    <linearGradient id="linear-gradient-6" x1="0" y1="0.5" x2="1" y2="0.5" xlink:href="#linear-gradient"/>
    <linearGradient id="linear-gradient-7" x1="-0.001" y1="0.5" x2="0.999" y2="0.5" gradientUnits="objectBoundingBox">
      <stop offset="0" stop-color="#3e77bc"/>
      <stop offset="0.05" stop-color="#407bbf"/>
      <stop offset="0.37" stop-color="#4a8fcd"/>
      <stop offset="0.68" stop-color="#509bd5"/>
      <stop offset="1" stop-color="#529fd8"/>
    </linearGradient>
    <linearGradient id="linear-gradient-8" x1="0" y1="0.5" x2="1" y2="0.5" xlink:href="#linear-gradient-7"/>
    <linearGradient id="linear-gradient-9" x1="0" y1="0.5" x2="1" y2="0.5" xlink:href="#linear-gradient-7"/>
    <linearGradient id="linear-gradient-10" x1="0" y1="0.499" x2="1" y2="0.499" xlink:href="#linear-gradient"/>
    <linearGradient id="linear-gradient-12" x1="0.001" y1="0.499" x2="1.001" y2="0.499" xlink:href="#linear-gradient"/>
    <linearGradient id="linear-gradient-13" x1="0" y1="0.5" x2="1" y2="0.5" xlink:href="#linear-gradient"/>
    <linearGradient id="linear-gradient-14" x1="0" y1="0.5" x2="1" y2="0.5" xlink:href="#linear-gradient"/>
    <linearGradient id="linear-gradient-15" x1="0.001" y1="0.495" x2="1.001" y2="0.495" xlink:href="#linear-gradient"/>
    <linearGradient id="linear-gradient-16" x1="1.854" y1="-34.848" x2="2.865" y2="-34.848" xlink:href="#linear-gradient"/>
    <linearGradient id="linear-gradient-17" x1="0" y1="0.5" x2="1" y2="0.5" xlink:href="#linear-gradient"/>
    <linearGradient id="linear-gradient-18" x1="0.002" y1="0.5" x2="1" y2="0.5" xlink:href="#linear-gradient"/>
  </defs>
  <g id="icon_10" data-name="icon 10" transform="translate(11041.013 9009.741)">
    <path id="Path_3337" data-name="Path 3337" class="cls-1" d="M363.367,368.665c-1.018,3.1-5.286,5.428-10.4,5.428s-9.375-2.326-10.4-5.428a4.509,4.509,0,0,1-.233-1.372V370.1c0,3.8,4.759,6.878,10.629,6.878S363.6,373.891,363.6,370.1V367.23A4.415,4.415,0,0,1,363.367,368.665Z" transform="translate(-277.56 -277.991)"/>
    <path id="Path_3338" data-name="Path 3338" class="cls-2" d="M351.856,377.395c-6.074,0-11.016-3.259-11.016-7.266v-2.807h.775a4.121,4.121,0,0,0,.212,1.259c.987,3,5.206,5.17,10.029,5.17s9.047-2.174,10.031-5.17h0a4.082,4.082,0,0,0,.215-1.31h.776v2.869C362.878,374.135,357.941,377.395,351.856,377.395Zm-10.241-7.452v.186c0,3.577,4.593,6.49,10.241,6.49s10.246-2.913,10.246-6.49v-.186c-1.636,2.709-5.7,4.575-10.246,4.575S343.254,372.651,341.615,369.943Z" transform="translate(-276.448 -278.021)"/>
    <path id="Path_3339" data-name="Path 3339" class="cls-1" d="M352.969,354.413c5.113,0,9.38-2.326,10.4-5.428a4.412,4.412,0,0,0,.235-1.435c0-3.8-4.759-6.87-10.634-6.87s-10.629,3.071-10.629,6.87v.062a4.511,4.511,0,0,0,.233,1.373C343.594,352.079,347.861,354.413,352.969,354.413Z" transform="translate(-277.56 -258.304)"/>
    <path id="Path_3340" data-name="Path 3340" class="cls-3" d="M351.842,353.666c-5.149,0-9.675-2.4-10.763-5.7a4.878,4.878,0,0,1-.259-1.489v-.067c0-4,4.942-7.258,11.016-7.258s11.021,3.257,11.021,7.258a4.819,4.819,0,0,1-.258,1.551C361.524,351.26,357,353.666,351.842,353.666Zm0-13.741c-5.648,0-10.241,2.908-10.241,6.483v.062a4.11,4.11,0,0,0,.212,1.251c.987,3,5.206,5.169,10.029,5.169s9.047-2.174,10.031-5.169a4.135,4.135,0,0,0,.215-1.316C362.088,342.833,357.492,339.925,351.842,339.925Z" transform="translate(-276.433 -257.169)"/>
    <path id="Path_3341" data-name="Path 3341" class="cls-4" d="M362.517,352.972c.155.09.305.186.46.277a2.931,2.931,0,0,0-.3.336c-.031.036-.059.077-.09.121a1.809,1.809,0,0,0-.336.982h0a2.408,2.408,0,0,0,1.416,2c1.393.775,2.724.041,3.96-.654l2.843,1.7c-.158.083-.313.171-.473.24a13.261,13.261,0,0,1-1.329.517c-.083.023-.191.078-.305.1v.036l.486.246.863.437a9.039,9.039,0,0,0,1.809-.941c.2.119.414.246.623.372l.594-.408.39-.259h0l-.013-.013c-.178-.109-.359-.215-.535-.326-.065-.039-.129-.075-.2-.119a3.961,3.961,0,0,0,.426-.582.992.992,0,0,0,.119-.259c.4-1.086-.791-1.962-1.7-2.326a4.113,4.113,0,0,0-3.6.318c-.685-.408-1.362-.822-2.052-1.236-.142-.09-.295-.176-.437-.258.3-.134.6-.258.9-.359.091-.031.173-.067.259-.1a.49.49,0,0,0,.15-.083.247.247,0,0,0,.047-.036l-.047-.026-1.21-.682a11.563,11.563,0,0,0-1.261.558l-.827-.5-.212.142-.775.517v.09c.059.031.145.049.2.078S362.468,352.943,362.517,352.972Zm3.955,2.412a4.066,4.066,0,0,1-.432.222,2.218,2.218,0,0,1-1.6.189,1.1,1.1,0,0,1-.938-.884,1.166,1.166,0,0,1,.535-1.034c.822.491,1.644.99,2.466,1.484Zm5.185,1.352a.675.675,0,0,1-.1.155c-.041.049-.1.1-.137.145l-2.125-1.292c-.168-.1-.341-.2-.517-.3a2.489,2.489,0,0,1,1.517-.142C370.767,355.422,372.119,355.908,371.656,356.735Z" transform="translate(-292.257 -266.698)"/>
    <path id="_Path_" data-name="&lt;Path&gt;" class="cls-5" d="M153.871,297.091c-1.4-1.435-10.274,9.535-12.363,8.315-12.572-7.341-27.189-9.08-39.9-1.742,0,0,1.07-10.577,1.065-10.574a24.587,24.587,0,0,0-5.268,4H93.15v8.53h.031c-.37,5.1,2.792,10.269,9.491,14.141h0c12.709,7.338,33.4,7.341,45.97,0,7.292-4.254,9.429-9.944,9.429-15.658v-7.012Z" transform="translate(-92.78 -223.014)"/>
    <g id="_Group_" data-name="&lt;Group&gt;" transform="translate(6.494 55.569)">
      <path id="Path_3342" data-name="Path 3342" class="cls-1" d="M168.355,244.1l-.111-.07c-12.572-7.338-33.261-7.341-45.97,0a28.3,28.3,0,0,0-2.7,1.778l22.914,13.229Z" transform="translate(-118.864 -238.121)"/>
      <path id="Path_3343" data-name="Path 3343" class="cls-6" d="M140.46,258.327l-.194-.114L116.84,244.69l.473-.352a28.318,28.318,0,0,1,2.742-1.809c12.851-7.418,33.648-7.418,46.36,0l.067.041.044.026.574.339Zm-22.2-13.715,22.2,12.818,25.1-14.49c-12.534-7.028-32.633-6.937-45.112.258C119.686,243.643,118.967,244.105,118.256,244.612Z" transform="translate(-116.84 -236.965)"/>
    </g>
    <g id="_Group_2" data-name="&lt;Group&gt;" transform="translate(-0.013 60.706)">
      <path id="Path_3344" data-name="Path 3344" class="cls-1" d="M148.769,258.948,125.62,272.311h0L103.285,258.55c-.2.109-.4.214-.6.326a28.292,28.292,0,0,0-2.7,1.778c-.279.209-.545.419-.806.631-.137.111-.258.225-.4.339s-.217.184-.321.277c-.173.153-.341.308-.517.463l-.14.134c-7.527,7.243-5.9,16.829,4.88,23.051h0c12.709,7.338,33.4,7.338,45.97,0S161.228,266.294,148.769,258.948Z" transform="translate(-92.772 -258.108)"/>
      <path id="Path_3345" data-name="Path 3345" class="cls-7" d="M124.624,290.2c-8.4,0-16.8-1.856-23.234-5.565-5.648-3.265-9.067-7.622-9.636-12.28-.491-4.037,1.127-7.982,4.684-11.4l.142-.134c.168-.158.336-.315.517-.47l.277-.24.134-.114c.106-.09.212-.181.323-.258.287-.233.553-.442.819-.641a28.312,28.312,0,0,1,2.742-1.809c.132-.075.258-.15.4-.222l.4-.217,22.33,13.741,23.144-13.361.194.114c6.144,3.619,9.52,8.468,9.509,13.64s-3.43,10.034-9.62,13.648C141.394,288.341,133.016,290.2,124.624,290.2Zm-22.456-32.467h0l-.383.212A26.756,26.756,0,0,0,99.12,259.7c-.258.191-.517.393-.8.62-.1.085-.207.171-.308.258l-.134.116-.258.227c-.168.15-.333.3-.494.455l-.137.129c-3.36,3.246-4.911,6.963-4.451,10.753.538,4.407,3.818,8.561,9.241,11.7,12.645,7.3,33.085,7.3,45.59,0,5.945-3.469,9.225-8.077,9.238-12.981,0-4.831-3.161-9.39-8.933-12.852l-23.152,13.366-.2-.121Z" transform="translate(-91.667 -256.84)"/>
    </g>
    <path id="Path_3346" data-name="Path 3346" class="cls-1" d="M245.447,76.23q1.951,1.809,1.964,7.224a21.869,21.869,0,0,1-1.884,9.6,13.7,13.7,0,0,1-5.593,6.082q-3.539,2.047-5.48.238T232.5,92.064q-.034-11.267,7.367-15.542Q243.5,74.428,245.447,76.23Zm-5.485,17.8q2.068-1.192,2.045-7.408-.016-6.165-2.068-4.97a3.7,3.7,0,0,0-1.551,2.412,19.892,19.892,0,0,0-.468,4.927,13.842,13.842,0,0,0,.494,4.394c.323.843.845,1.055,1.551.644" transform="translate(-196.11 -61.589)"/>
    <path id="Path_3347" data-name="Path 3347" class="cls-8" d="M235.537,99.511a3.456,3.456,0,0,1-2.43-.951c-1.388-1.292-2.068-3.776-2.068-7.589-.023-7.628,2.523-12.97,7.563-15.881,2.572-1.484,4.6-1.551,6.035-.24h0c1.4,1.292,2.068,3.745,2.088,7.509a22.533,22.533,0,0,1-1.92,9.765,14.177,14.177,0,0,1-5.764,6.25A7.2,7.2,0,0,1,235.537,99.511Zm6.656-24.827a6.7,6.7,0,0,0-3.213,1.078c-4.782,2.761-7.2,7.878-7.175,15.206,0,3.536.626,5.9,1.83,7.023,1.166,1.083,2.81.99,5.022-.289a13.376,13.376,0,0,0,5.428-5.914,21.576,21.576,0,0,0,1.846-9.427c0-3.487-.628-5.823-1.84-6.943h0a2.711,2.711,0,0,0-1.9-.734Zm-3.957,18.843a1.145,1.145,0,0,1-.377-.065,1.612,1.612,0,0,1-.9-1.034,13.861,13.861,0,0,1-.517-4.536,20.258,20.258,0,0,1,.481-5.027,4.1,4.1,0,0,1,1.732-2.647,1.3,1.3,0,0,1,1.378-.093c.868.5,1.277,2.215,1.292,5.4.013,4.332-.721,6.865-2.238,7.754h0a1.7,1.7,0,0,1-.848.248Zm1.223-12.777a.851.851,0,0,0-.421.142,3.367,3.367,0,0,0-1.37,2.174,19.579,19.579,0,0,0-.455,4.826,13.571,13.571,0,0,0,.468,4.262c.088.222.233.5.437.576a.724.724,0,0,0,.569-.132h0c.853-.494,1.864-2.12,1.851-7.069,0-3.81-.628-4.578-.894-4.73A.349.349,0,0,0,239.458,80.751Z" transform="translate(-195.028 -60.494)"/>
    <path id="Path_3348" data-name="Path 3348" class="cls-1" d="M100.792,6.362l5.146-2.972-17.3,46.1L83.49,52.462Z" transform="translate(-61.919 -2.514)"/>
    <path id="Path_3349" data-name="Path 3349" class="cls-9" d="M172.29,72.8l17.731-47.242,6.2-3.582L178.5,69.222Zm18.352-46.709L173.766,71.052l4.092-2.362,16.881-44.957Z" transform="translate(-151.464 -21.98)"/>
    <path id="Path_3350" data-name="Path 3350" class="cls-1" d="M160.347,86.447a13.7,13.7,0,0,1-5.593,6.079q-3.536,2.045-5.477.24t-1.957-7.33q-.034-11.275,7.372-15.545,3.619-2.094,5.578-.292t1.967,7.237A21.862,21.862,0,0,1,160.347,86.447Zm-7.121.305c.323.845.845,1.06,1.551.646q2.068-1.186,2.042-7.4-.015-6.167-2.068-4.976a3.724,3.724,0,0,0-1.551,2.412,19.84,19.84,0,0,0-.473,4.929,13.357,13.357,0,0,0,.5,4.394" transform="translate(-132.947 -56.673)"/>
    <path id="Path_3351" data-name="Path 3351" class="cls-10" d="M150.325,92.906a3.427,3.427,0,0,1-2.425-.951c-1.391-1.292-2.068-3.779-2.081-7.612-.023-7.625,2.523-12.968,7.563-15.881,2.569-1.481,4.6-1.551,6.038-.243,1.4,1.292,2.081,3.743,2.091,7.509a22.586,22.586,0,0,1-1.926,9.794h0a14.152,14.152,0,0,1-5.751,6.25A7.254,7.254,0,0,1,150.325,92.906Zm6.656-24.85a6.712,6.712,0,0,0-3.215,1.078c-4.782,2.763-7.2,7.878-7.175,15.206,0,3.557.626,5.927,1.833,7.049,1.163,1.083,2.8.987,5.02-.292a13.381,13.381,0,0,0,5.428-5.911h0a21.676,21.676,0,0,0,1.851-9.455c0-3.489-.631-5.826-1.84-6.94A2.724,2.724,0,0,0,156.981,68.056ZM153.023,86.9a1.1,1.1,0,0,1-.377-.065,1.616,1.616,0,0,1-.9-1.034,13.673,13.673,0,0,1-.517-4.529,19.978,19.978,0,0,1,.486-5.033,4.1,4.1,0,0,1,1.732-2.647,1.289,1.289,0,0,1,1.372-.09c.869.5,1.277,2.215,1.292,5.4.013,4.335-.719,6.865-2.236,7.754a1.68,1.68,0,0,1-.848.243Zm1.223-12.774a.853.853,0,0,0-.419.14,3.385,3.385,0,0,0-1.373,2.176A19.541,19.541,0,0,0,152,81.267a13.365,13.365,0,0,0,.47,4.249h0c.085.227.233.517.434.582a.724.724,0,0,0,.569-.132c.85-.491,1.864-2.114,1.848-7.067,0-3.813-.628-4.578-.894-4.73a.346.346,0,0,0-.173-.047Z" transform="translate(-131.835 -55.579)"/>
    <path id="Path_3352" data-name="Path 3352" class="cls-11" d="M384.257,328.882a2.492,2.492,0,0,0-1.517.142l.517.308a2.222,2.222,0,0,1,.931.023c.372.09,1.292.414,1.435.954C386.077,329.481,384.725,329,384.257,328.882Z" transform="translate(-307.517 -249.511)"/>
    <path id="Path_3353" data-name="Path 3353" class="cls-11" d="M400.42,294.174c.057.039.114.07.171.1a1.425,1.425,0,0,0,.129-.2,1.129,1.129,0,0,0,.173-.641.8.8,0,0,1-.106.23,3.109,3.109,0,0,1-.367.5Z" transform="translate(-320.628 -223.274)"/>
    <path id="Path_3354" data-name="Path 3354" class="cls-12" d="M362.31,325.923a1.1,1.1,0,0,0,.936.884,2.215,2.215,0,0,0,1.6-.186c-.7-.414-1.388-.835-2.083-1.251A1.406,1.406,0,0,0,362.31,325.923Z" transform="translate(-292.368 -246.951)"/>
    <path id="Path_3355" data-name="Path 3355" class="cls-1" d="M342.187,345.1c-1.018,3.1-5.286,5.428-10.4,5.428s-9.375-2.326-10.4-5.428a4.43,4.43,0,0,1-.233-1.372v2.807c0,3.8,4.758,6.878,10.629,6.878s10.634-3.078,10.634-6.878V343.67A4.415,4.415,0,0,1,342.187,345.1Z" transform="translate(-261.854 -260.521)"/>
    <path id="Path_3356" data-name="Path 3356" class="cls-13" d="M330.676,353.827c-6.074,0-11.016-3.259-11.016-7.266v-2.807h.775a4.136,4.136,0,0,0,.212,1.256c.987,3,5.2,5.17,10.029,5.17s9.047-2.174,10.031-5.17h0a4.084,4.084,0,0,0,.215-1.31h.775v2.869C341.7,350.568,336.753,353.827,330.676,353.827Zm-10.241-7.452v.186c0,3.577,4.593,6.49,10.241,6.49s10.246-2.913,10.246-6.49v-.186c-1.639,2.709-5.7,4.575-10.246,4.575S322.074,349.084,320.435,346.375Z" transform="translate(-260.742 -260.543)"/>
    <path id="Path_3357" data-name="Path 3357" class="cls-1" d="M331.789,330.853c5.113,0,9.38-2.326,10.4-5.428a4.417,4.417,0,0,0,.235-1.435c0-3.8-4.759-6.87-10.634-6.87s-10.629,3.071-10.629,6.863v.062a4.43,4.43,0,0,0,.233,1.372C322.411,328.519,326.681,330.853,331.789,330.853Z" transform="translate(-261.854 -240.833)"/>
    <path id="Path_3358" data-name="Path 3358" class="cls-3" d="M330.661,330.106c-5.149,0-9.677-2.4-10.763-5.7a4.89,4.89,0,0,1-.258-1.489v-.067c0-4,4.942-7.258,11.016-7.258s11.021,3.257,11.021,7.258a4.834,4.834,0,0,1-.258,1.551C340.344,327.71,335.815,330.106,330.661,330.106Zm0-13.741c-5.648,0-10.241,2.908-10.241,6.483v.062a4.139,4.139,0,0,0,.212,1.251c.987,3,5.2,5.169,10.029,5.169s9.047-2.174,10.031-5.169a4.136,4.136,0,0,0,.215-1.316C340.907,319.273,336.312,316.365,330.661,316.365Z" transform="translate(-260.727 -239.699)"/>
    <path id="Path_3359" data-name="Path 3359" class="cls-14" d="M341.337,329.486c.155.09.3.186.46.277a2.922,2.922,0,0,0-.3.336c-.031.036-.06.077-.09.121a1.809,1.809,0,0,0-.336.982h0a2.408,2.408,0,0,0,1.416,2c1.393.775,2.724.041,3.96-.654.943.563,1.892,1.135,2.843,1.7-.155.085-.31.171-.473.243a13.59,13.59,0,0,1-1.326.517c-.083.026-.191.078-.305.1v.036l.486.246.863.437a8.93,8.93,0,0,0,1.809-.941c.2.119.414.246.623.372l.594-.408.39-.259h0l-.013-.013-.535-.323c-.065-.041-.132-.078-.2-.122a3.7,3.7,0,0,0,.427-.582.991.991,0,0,0,.119-.259c.4-1.086-.791-1.962-1.7-2.326a4.113,4.113,0,0,0-3.6.318c-.685-.408-1.362-.822-2.052-1.236-.145-.09-.295-.176-.437-.258.3-.132.6-.259.9-.359.091-.031.173-.067.258-.1a.492.492,0,0,0,.15-.083.246.246,0,0,0,.047-.036l-.047-.026-1.217-.659a11.356,11.356,0,0,0-1.256.532l-.827-.5-.212.142-.775.517v.09c.059.031.145.049.2.078S341.288,329.458,341.337,329.486Zm3.955,2.412c-.152.085-.295.165-.432.225a2.215,2.215,0,0,1-1.6.186,1.1,1.1,0,0,1-.938-.884,1.16,1.16,0,0,1,.535-1.034c.822.491,1.644.99,2.466,1.484Zm5.185,1.352a.852.852,0,0,1-.1.158c-.041.047-.1.093-.137.142l-2.125-1.272-.517-.308a2.487,2.487,0,0,1,1.517-.142C349.587,331.936,350.937,332.422,350.476,333.249Z" transform="translate(-276.551 -249.301)"/>
    <path id="Path_3360" data-name="Path 3360" class="cls-1" d="M281.427,428.862c-1.018,3.1-5.286,5.428-10.4,5.428s-9.375-2.326-10.4-5.428a4.465,4.465,0,0,1-.233-1.375v2.807c0,3.8,4.759,6.878,10.629,6.878s10.634-3.078,10.634-6.878V427.42A4.426,4.426,0,0,1,281.427,428.862Z" transform="translate(-216.799 -322.623)"/>
    <path id="Path_3361" data-name="Path 3361" class="cls-15" d="M269.916,437.567c-6.074,0-11.016-3.259-11.016-7.266v-2.807h.775a4.107,4.107,0,0,0,.212,1.256c.987,3,5.2,5.17,10.029,5.17s9.047-2.174,10.031-5.17h0a4.1,4.1,0,0,0,.215-1.31h.775v2.867C280.938,434.305,275.985,437.567,269.916,437.567Zm-10.241-7.449v.184c0,3.58,4.593,6.49,10.241,6.49s10.246-2.91,10.246-6.49v-.186c-1.636,2.709-5.7,4.578-10.246,4.578S261.314,432.827,259.675,430.118Z" transform="translate(-215.687 -322.638)"/>
    <path id="Path_3362" data-name="Path 3362" class="cls-1" d="M271.029,414.6c5.113,0,9.38-2.326,10.4-5.428a4.426,4.426,0,0,0,.235-1.435c0-3.8-4.759-6.873-10.634-6.873s-10.629,3.073-10.629,6.873v.059a4.462,4.462,0,0,0,.233,1.375C261.654,412.269,265.921,414.6,271.029,414.6Z" transform="translate(-216.799 -302.928)"/>
    <path id="Path_3363" data-name="Path 3363" class="cls-16" d="M269.9,413.849c-5.149,0-9.677-2.4-10.763-5.7a4.9,4.9,0,0,1-.259-1.491v-.065c0-4,4.942-7.261,11.016-7.261s11.022,3.257,11.022,7.261a4.829,4.829,0,0,1-.259,1.551C279.589,411.45,275.055,413.849,269.9,413.849Zm0-13.743c-5.648,0-10.241,2.908-10.241,6.485v.059a4.1,4.1,0,0,0,.212,1.251c.987,3,5.2,5.17,10.029,5.17s9.047-2.174,10.031-5.17a4.134,4.134,0,0,0,.215-1.313C280.147,403.013,275.552,400.105,269.9,400.105Z" transform="translate(-215.672 -301.794)"/>
    <path id="Path_3364" data-name="Path 3364" class="cls-17" d="M280.562,413.338c.155.088.3.186.46.277a3.143,3.143,0,0,0-.3.333c-.031.036-.059.08-.091.121a1.81,1.81,0,0,0-.336.985h0a2.416,2.416,0,0,0,1.416,2.006c1.393.775,2.724.039,3.96-.654.943.561,1.892,1.132,2.843,1.7-.155.083-.31.168-.473.24a13.589,13.589,0,0,1-1.326.517c-.083.023-.191.078-.305.1V419l.486.259.863.437a8.935,8.935,0,0,0,1.809-.944l.623.372.594-.408.39-.258h-.013l-.535-.326-.2-.119a3.84,3.84,0,0,0,.426-.584.957.957,0,0,0,.119-.258c.4-1.086-.791-1.962-1.7-2.326a4.113,4.113,0,0,0-3.6.318c-.685-.408-1.362-.825-2.052-1.238-.145-.09-.295-.173-.437-.259.3-.132.6-.246.9-.359.09-.031.173-.067.258-.1a.554.554,0,0,0,.15-.085.17.17,0,0,0,.047-.036l-.047-.023-1.217-.659a11.327,11.327,0,0,0-1.261.556l-.827-.5-.212.145-.775.517v.09c.059.028.145.047.2.078S280.513,413.294,280.562,413.338Zm3.955,2.412c-.153.083-.295.163-.432.222a2.2,2.2,0,0,1-1.6.186,1.1,1.1,0,0,1-.938-.881,1.166,1.166,0,0,1,.535-1.034l2.466,1.484Zm5.2,1.339a.77.77,0,0,1-.1.155c-.041.047-.1.1-.137.142l-2.125-1.277-.517-.305a2.507,2.507,0,0,1,1.517-.145C288.812,415.773,290.162,416.259,289.712,417.089Z" transform="translate(-231.482 -311.493)"/>
    <path id="Path_3365" data-name="Path 3365" class="cls-1" d="M236.29,420.416c.277,3.252-2.737,7.072-7.444,9.073s-9.538,1.52-11.691-.936a4.527,4.527,0,0,1-.755-1.173l1.1,2.585c1.489,3.495,7.072,4.467,12.474,2.169s8.581-6.994,7.1-10.489L235.941,419A4.481,4.481,0,0,1,236.29,420.416Z" transform="translate(-184.172 -316.38)"/>
    <path id="Path_3366" data-name="Path 3366" class="cls-18" d="M223.137,433.347a11.692,11.692,0,0,1-1.972-.165c-2.492-.434-4.288-1.672-5.061-3.487l-1.1-2.587.713-.308a4.086,4.086,0,0,0,.688,1.073c2.081,2.373,6.811,2.722,11.251.835s7.475-5.542,7.209-8.682h0a4.032,4.032,0,0,0-.313-1.292h0l.713-.3h0l1.119,2.634c.775,1.809.416,3.97-1,6.064a14.374,14.374,0,0,1-6.3,4.934A15.365,15.365,0,0,1,223.137,433.347Zm-6.392-4.136.075.171c.664,1.566,2.254,2.642,4.477,3.027a14.668,14.668,0,0,0,13.459-5.715c1.264-1.869,1.592-3.761.928-5.327l-.075-.171c-.447,3.138-3.464,6.446-7.648,8.238s-8.646,1.636-11.215-.215Z" transform="translate(-183.134 -315.957)"/>
    <path id="Path_3367" data-name="Path 3367" class="cls-1" d="M227.714,419.71c4.707-2,7.721-5.821,7.444-9.073a4.479,4.479,0,0,0-.349-1.416c-1.489-3.495-7.072-4.459-12.477-2.161s-8.579,6.979-7.093,10.484l.023.054a4.531,4.531,0,0,0,.755,1.173C218.176,421.229,223.015,421.707,227.714,419.71Z" transform="translate(-183.041 -306.6)"/>
    <path id="Path_3368" data-name="Path 3368" class="cls-19" d="M220.823,420.2a8.149,8.149,0,0,1-6.2-2.3,4.912,4.912,0,0,1-.817-1.279l-.026-.062c-1.566-3.683,1.709-8.612,7.3-10.99A14.394,14.394,0,0,1,229,404.45c2.492.429,4.288,1.667,5.061,3.484a4.911,4.911,0,0,1,.375,1.535c.292,3.461-2.936,7.439-7.679,9.458h0a15.36,15.36,0,0,1-5.932,1.269Zm6.2-15.129a14.641,14.641,0,0,0-5.643,1.212c-5.2,2.21-8.284,6.684-6.886,9.975l.023.054a4.112,4.112,0,0,0,.688,1.07c2.081,2.373,6.811,2.722,11.251.835h0c4.443-1.889,7.475-5.542,7.209-8.682a4.156,4.156,0,0,0-.318-1.292c-.664-1.566-2.254-2.639-4.477-3.024a10.906,10.906,0,0,0-1.835-.147Z" transform="translate(-181.937 -305.469)"/>
    <path id="Path_3369" data-name="Path 3369" class="cls-20" d="M230.062,426.485c.178.021.354.052.532.072a3.236,3.236,0,0,0-.15.429c-.013.044-.023.1-.034.145a1.778,1.778,0,0,0,.075,1.034h0a2.389,2.389,0,0,0,2.089,1.292c1.579.163,2.523-1.034,3.386-2.151,1.088.147,2.187.3,3.28.455-.111.14-.22.279-.341.408a13.561,13.561,0,0,1-1.016,1c-.07.057-.147.147-.243.215l.016.034.543.036.967.065a9.1,9.1,0,0,0,1.305-1.579l.721.1.385-.607.258-.4h-.015c-.207-.028-.416-.057-.62-.09l-.227-.031a3.812,3.812,0,0,0,.165-.7,1.01,1.01,0,0,0,0-.292c-.059-1.153-1.5-1.494-2.479-1.473a4.108,4.108,0,0,0-3.182,1.7c-.791-.106-1.577-.222-2.375-.333l-.517-.072c.222-.238.46-.463.688-.682.07-.062.132-.129.2-.189a.563.563,0,0,0,.106-.137.351.351,0,0,0,.028-.052h-.052l-1.38-.129a11.231,11.231,0,0,0-.941,1.005l-.956-.132-.14.215-.517.775.036.085a1.17,1.17,0,0,1,.212,0Zm4.583.682a4.357,4.357,0,0,1-.31.375,2.2,2.2,0,0,1-1.4.8,1.1,1.1,0,0,1-1.207-.445,1.163,1.163,0,0,1,.09-1.155l2.843.4Zm5.3-.775a.679.679,0,0,1-.034.184c-.018.059-.052.124-.07.186l-2.456-.346-.589-.08a2.494,2.494,0,0,1,1.341-.726c.476-.1,1.918-.181,1.807.763Z" transform="translate(-193.975 -320.411)"/>
  </g>
</svg>
