<svg xmlns="http://www.w3.org/2000/svg" xmlns:xlink="http://www.w3.org/1999/xlink" viewBox="11908 8997.741 73.038 134.39">
  <defs>
    <style>
      .cls-1 {
        fill: #fff;
      }

      .cls-2 {
        fill: url(#linear-gradient);
      }

      .cls-3 {
        fill: url(#linear-gradient-2);
      }

      .cls-4 {
        fill: url(#linear-gradient-3);
      }

      .cls-5 {
        fill: url(#linear-gradient-4);
      }

      .cls-6 {
        fill: url(#linear-gradient-5);
      }

      .cls-7 {
        fill: url(#linear-gradient-6);
      }

      .cls-8 {
        fill: url(#linear-gradient-7);
      }

      .cls-9 {
        fill: url(#linear-gradient-8);
      }

      .cls-10 {
        fill: url(#linear-gradient-9);
      }

      .cls-11 {
        fill: url(#linear-gradient-10);
      }

      .cls-12 {
        fill: url(#linear-gradient-11);
      }

      .cls-13 {
        fill: url(#linear-gradient-12);
      }

      .cls-14 {
        fill: url(#linear-gradient-13);
      }

      .cls-15 {
        fill: url(#linear-gradient-14);
      }

      .cls-16 {
        fill: url(#linear-gradient-15);
      }

      .cls-17 {
        fill: url(#linear-gradient-16);
      }

      .cls-18 {
        fill: url(#linear-gradient-17);
      }

      .cls-19 {
        fill: #f9a36d;
      }

      .cls-20 {
        fill: url(#linear-gradient-18);
      }

      .cls-21 {
        fill: #e8f6ff;
      }

      .cls-22 {
        fill: url(#linear-gradient-19);
      }

      .cls-23 {
        fill: url(#linear-gradient-20);
      }

      .cls-24 {
        fill: url(#linear-gradient-21);
      }

      .cls-25 {
        fill: url(#linear-gradient-22);
      }

      .cls-26 {
        fill: #350000;
      }

      .cls-27 {
        fill: url(#linear-gradient-23);
      }

      .cls-28 {
        fill: url(#linear-gradient-24);
      }

      .cls-29 {
        fill: url(#linear-gradient-25);
      }

      .cls-30 {
        fill: url(#linear-gradient-26);
      }

      .cls-31 {
        fill: url(#linear-gradient-27);
      }

      .cls-32 {
        fill: url(#linear-gradient-28);
      }

      .cls-33 {
        fill: url(#linear-gradient-29);
      }

      .cls-34 {
        fill: url(#linear-gradient-30);
      }

      .cls-35 {
        fill: #fbb686;
      }

      .cls-36 {
        fill: url(#linear-gradient-31);
      }

      .cls-37 {
        fill: url(#linear-gradient-32);
      }

      .cls-38 {
        fill: #e7a477;
      }

      .cls-39 {
        fill: url(#linear-gradient-33);
      }

      .cls-40 {
        fill: #222;
      }

      .cls-41 {
        fill: url(#linear-gradient-34);
      }

      .cls-42 {
        fill: url(#linear-gradient-35);
      }

      .cls-43 {
        fill: url(#linear-gradient-36);
      }

      .cls-44 {
        fill: url(#linear-gradient-37);
      }

      .cls-45 {
        fill: url(#linear-gradient-38);
      }

      .cls-46 {
        fill: url(#linear-gradient-39);
      }

      .cls-47 {
        fill: url(#linear-gradient-40);
      }

      .cls-48 {
        fill: url(#linear-gradient-41);
      }
    </style>
    <linearGradient id="linear-gradient" y1="0.5" x2="1" y2="0.5" gradientUnits="objectBoundingBox">
      <stop offset="0" stop-color="#3e77bc"/>
      <stop offset="1" stop-color="#529fd8"/>
    </linearGradient>
    <linearGradient id="linear-gradient-2" x1="-0.001" y1="0.499" x2="0.999" y2="0.499" xlink:href="#linear-gradient"/>
    <linearGradient id="linear-gradient-3" x1="0" y1="0.499" x2="0.999" y2="0.499" xlink:href="#linear-gradient"/>
    <linearGradient id="linear-gradient-4" x1="0" y1="0.5" x2="0.999" y2="0.5" xlink:href="#linear-gradient"/>
    <linearGradient id="linear-gradient-5" x1="0.001" y1="0.5" x2="1.002" y2="0.5" xlink:href="#linear-gradient"/>
    <linearGradient id="linear-gradient-6" x1="0.003" y1="0.498" x2="0.999" y2="0.498" xlink:href="#linear-gradient"/>
    <linearGradient id="linear-gradient-7" x1="-0.002" y1="0.502" x2="1.002" y2="0.502" xlink:href="#linear-gradient"/>
    <linearGradient id="linear-gradient-8" x1="0.003" y1="0.501" x2="0.991" y2="0.501" xlink:href="#linear-gradient"/>
    <linearGradient id="linear-gradient-9" x1="0" y1="0.499" x2="1.022" y2="0.499" xlink:href="#linear-gradient"/>
    <linearGradient id="linear-gradient-10" x1="0.002" y1="0.5" x2="1.003" y2="0.5" xlink:href="#linear-gradient"/>
    <linearGradient id="linear-gradient-11" x1="-0.004" y1="0.499" x2="0.997" y2="0.499" xlink:href="#linear-gradient"/>
    <linearGradient id="linear-gradient-12" x1="0" y1="0.497" x2="1.003" y2="0.497" xlink:href="#linear-gradient"/>
    <linearGradient id="linear-gradient-13" x1="0.003" y1="0.498" x2="1.003" y2="0.498" xlink:href="#linear-gradient"/>
    <linearGradient id="linear-gradient-14" x1="-0.003" y1="0.5" x2="1.001" y2="0.5" xlink:href="#linear-gradient"/>
    <linearGradient id="linear-gradient-15" x1="0.001" y1="0.501" x2="1" y2="0.501" xlink:href="#linear-gradient"/>
    <linearGradient id="linear-gradient-16" x1="0.001" y1="0.501" x2="0.996" y2="0.501" xlink:href="#linear-gradient"/>
    <linearGradient id="linear-gradient-17" x1="-0.001" y1="0.495" x2="0.999" y2="0.495" xlink:href="#linear-gradient"/>
    <linearGradient id="linear-gradient-18" x1="0" y1="0.497" x2="1" y2="0.497" xlink:href="#linear-gradient"/>
    <linearGradient id="linear-gradient-19" x1="0.004" y1="0.5" x2="1.019" y2="0.5" xlink:href="#linear-gradient"/>
    <linearGradient id="linear-gradient-20" x1="-0.012" y1="0.503" x2="0.989" y2="0.503" xlink:href="#linear-gradient"/>
    <linearGradient id="linear-gradient-21" x1="-0.004" y1="0.498" x2="0.993" y2="0.498" xlink:href="#linear-gradient"/>
    <linearGradient id="linear-gradient-22" x1="-0.009" y1="0.492" x2="0.986" y2="0.492" xlink:href="#linear-gradient"/>
    <linearGradient id="linear-gradient-23" x1="0" y1="0.503" x2="1.001" y2="0.503" xlink:href="#linear-gradient"/>
    <linearGradient id="linear-gradient-24" x1="-0.001" y1="0.495" x2="1.004" y2="0.495" xlink:href="#linear-gradient"/>
    <linearGradient id="linear-gradient-25" x1="0.001" y1="0.501" x2="0.994" y2="0.501" xlink:href="#linear-gradient"/>
    <linearGradient id="linear-gradient-26" x1="-0.002" y1="0.499" x2="0.999" y2="0.499" xlink:href="#linear-gradient"/>
    <linearGradient id="linear-gradient-27" x1="0.008" y1="0.501" x2="1" y2="0.501" xlink:href="#linear-gradient"/>
    <linearGradient id="linear-gradient-28" x1="0.001" y1="0.505" x2="0.998" y2="0.505" xlink:href="#linear-gradient"/>
    <linearGradient id="linear-gradient-29" x1="0" y1="0.505" x2="1.001" y2="0.505" xlink:href="#linear-gradient"/>
    <linearGradient id="linear-gradient-30" x1="-0.003" y1="0.496" x2="0.995" y2="0.496" xlink:href="#linear-gradient"/>
    <linearGradient id="linear-gradient-31" x1="-0.01" y1="0.506" x2="0.985" y2="0.506" xlink:href="#linear-gradient"/>
    <linearGradient id="linear-gradient-32" x1="-0.007" y1="0.495" x2="0.989" y2="0.495" xlink:href="#linear-gradient"/>
    <linearGradient id="linear-gradient-33" x1="0.006" y1="0.501" x2="1.003" y2="0.501" xlink:href="#linear-gradient"/>
    <linearGradient id="linear-gradient-34" x1="0" y1="0.504" x2="0.999" y2="0.504" xlink:href="#linear-gradient"/>
    <linearGradient id="linear-gradient-35" x1="0.001" y1="0.498" x2="1.003" y2="0.498" xlink:href="#linear-gradient"/>
    <linearGradient id="linear-gradient-36" x1="0.006" y1="0.504" x2="1.006" y2="0.504" xlink:href="#linear-gradient"/>
    <linearGradient id="linear-gradient-37" x1="-0.001" y1="0.5" x2="1" y2="0.5" xlink:href="#linear-gradient"/>
    <linearGradient id="linear-gradient-38" x1="0.001" y1="0.501" x2="1.001" y2="0.501" xlink:href="#linear-gradient"/>
    <linearGradient id="linear-gradient-39" x1="0.016" y1="0.497" x2="1.025" y2="0.497" xlink:href="#linear-gradient"/>
    <linearGradient id="linear-gradient-40" x1="0.004" y1="0.498" x2="1.009" y2="0.498" xlink:href="#linear-gradient"/>
    <linearGradient id="linear-gradient-41" x1="-0.001" y1="0.498" x2="0.992" y2="0.498" xlink:href="#linear-gradient"/>
  </defs>
  <g id="icon_18" data-name="icon 18" transform="translate(11767.6 8960.504)">
    <g id="Group_3044" data-name="Group 3044" transform="translate(140.4 37.237)">
      <g id="Group_3009" data-name="Group 3009" transform="translate(0 87.22)">
        <g id="Group_3007" data-name="Group 3007" transform="translate(0 9.866)">
          <path id="Path_4180" data-name="Path 4180" class="cls-1" d="M180.072,349.138l.033-3.1a5.72,5.72,0,0,1-.433,1.642c-2,4.612-10.226,7.96-19.786,7.739-8.927-.189-16.155-3.475-18.02-7.707a5.281,5.281,0,0,1-.466-2.116v4.264c0,5.243,8.094,9.6,18.453,9.855,10.459.221,19.353-3.79,20.185-9.065.033-.126.033-.221.067-.347A4.539,4.539,0,0,0,180.072,349.138Z" transform="translate(-141.067 -345.284)"/>
          <path id="Path_4181" data-name="Path 4181" class="cls-2" d="M160.052,359.351h-.866c-10.526-.253-18.786-4.706-18.786-10.171v-4.264a.334.334,0,0,1,.666,0,4.669,4.669,0,0,0,.433,1.99c1.832,4.233,9.127,7.328,17.72,7.518,9.293.221,17.487-2.969,19.486-7.549a4.266,4.266,0,0,0,.4-1.548.323.323,0,0,1,.333-.284.349.349,0,0,1,.333.316l-.033,3.064a4.787,4.787,0,0,1,.033,1.2,1.511,1.511,0,0,1-.067.379C178.872,355.339,170.312,359.351,160.052,359.351Zm-18.986-11.813v1.642c0,5.117,7.961,9.286,18.153,9.539,10.126.221,19.053-3.727,19.852-8.813a1.125,1.125,0,0,0,.033-.316,3.834,3.834,0,0,0-.033-1.074V347.6c-2.432,4.548-10.659,7.676-19.886,7.454C150.593,354.866,143.265,351.8,141.066,347.538Z" transform="translate(-140.4 -344.6)"/>
        </g>
        <g id="Group_3008" data-name="Group 3008" transform="translate(0.033)">
          <path id="Path_4182" data-name="Path 4182" class="cls-1" d="M159.787,333.987c9.56.221,17.787-3.127,19.786-7.739a5.719,5.719,0,0,0,.433-1.643v-.032a2.886,2.886,0,0,0,0-.758c-.3-5.085-8.261-9.318-18.453-9.539-10.692-.253-19.719,3.98-20.219,9.413a2.269,2.269,0,0,0-.033.474,5.167,5.167,0,0,0,.466,2.116C143.632,330.544,150.86,333.8,159.787,333.987Z" transform="translate(-141.034 -313.982)"/>
          <path id="Path_4183" data-name="Path 4183" class="cls-3" d="M160.152,333.719h-.866c-8.86-.19-16.388-3.443-18.32-7.9a5.321,5.321,0,0,1-.466-2.243,2.742,2.742,0,0,1,.033-.505c.5-5.591,9.726-9.95,20.585-9.7,10.226.221,18.453,4.548,18.753,9.823a3.384,3.384,0,0,1,0,.821h0v.063a5.44,5.44,0,0,1-.466,1.706C177.34,330.434,169.346,333.719,160.152,333.719Zm-.866-.663c9.293.221,17.487-2.969,19.486-7.549a4.267,4.267,0,0,0,.4-1.548V323.9a2.426,2.426,0,0,0,0-.695c-.3-4.959-8.261-9.034-18.12-9.255-10.492-.253-19.419,3.854-19.886,9.129v.442a4.669,4.669,0,0,0,.433,1.99c1.8,4.264,9.093,7.36,17.687,7.549Zm19.919-9.192Z" transform="translate(-140.5 -313.367)"/>
        </g>
      </g>
      <g id="Group_3012" data-name="Group 3012" transform="translate(33.642 109.721)">
        <g id="Group_3010" data-name="Group 3010" transform="translate(0 9.918)">
          <path id="Path_4184" data-name="Path 4184" class="cls-1" d="M280.972,420.538l.033-3.1a5.719,5.719,0,0,1-.433,1.643c-2,4.612-10.226,7.96-19.786,7.739-8.927-.19-16.155-3.475-18.02-7.707A5.281,5.281,0,0,1,242.3,417v4.264c0,5.243,8.094,9.6,18.453,9.855,10.459.221,19.353-3.79,20.185-9.065.033-.126.033-.221.067-.347A4.536,4.536,0,0,0,280.972,420.538Z" transform="translate(-242 -416.684)"/>
          <path id="Path_4185" data-name="Path 4185" class="cls-4" d="M261.052,430.751h-.866c-10.526-.253-18.786-4.706-18.786-10.171v-4.264a.334.334,0,0,1,.666,0,4.67,4.67,0,0,0,.433,1.99c1.832,4.233,9.127,7.328,17.72,7.518,9.293.221,17.487-2.969,19.486-7.549a4.267,4.267,0,0,0,.4-1.548.323.323,0,0,1,.333-.284.349.349,0,0,1,.333.316l-.033,3.064a4.789,4.789,0,0,1,.033,1.2,1.511,1.511,0,0,1-.067.379C279.839,426.708,271.312,430.751,261.052,430.751Zm-18.986-11.813v1.642c0,5.117,7.961,9.286,18.153,9.539,10.159.221,19.053-3.727,19.852-8.813a1.125,1.125,0,0,0,.033-.316,3.832,3.832,0,0,0-.033-1.074V419c-2.432,4.548-10.659,7.676-19.885,7.454C251.593,426.266,244.231,423.2,242.066,418.938Z" transform="translate(-241.4 -416)"/>
        </g>
        <g id="Group_3011" data-name="Group 3011">
          <path id="Path_4186" data-name="Path 4186" class="cls-1" d="M260.787,405.387c9.56.221,17.787-3.127,19.786-7.739a5.719,5.719,0,0,0,.433-1.643v-.032a2.887,2.887,0,0,0,0-.758c-.3-5.085-8.261-9.318-18.453-9.539-10.692-.253-19.719,3.98-20.219,9.413a2.268,2.268,0,0,0-.033.474,5.168,5.168,0,0,0,.466,2.116C244.6,401.912,251.86,405.2,260.787,405.387Z" transform="translate(-242 -385.329)"/>
          <path id="Path_4187" data-name="Path 4187" class="cls-5" d="M261.052,404.973h-.866c-8.86-.19-16.388-3.443-18.32-7.9a5.321,5.321,0,0,1-.466-2.243,2.745,2.745,0,0,1,.033-.505c.5-5.433,9.26-9.729,19.686-9.729h.9c10.226.221,18.453,4.549,18.753,9.823a3.386,3.386,0,0,1,0,.821h0v.063a5.44,5.44,0,0,1-.466,1.706C278.273,401.688,270.246,404.973,261.052,404.973Zm-.866-.632c9.293.221,17.487-2.969,19.486-7.549a4.266,4.266,0,0,0,.4-1.548v-.063a2.425,2.425,0,0,0,0-.695c-.3-4.959-8.261-9.034-18.12-9.255-10.459-.253-19.419,3.854-19.886,9.129v.442a4.669,4.669,0,0,0,.433,1.99c1.8,4.264,9.093,7.36,17.687,7.549Zm19.919-9.223Z" transform="translate(-241.4 -384.6)"/>
        </g>
      </g>
      <g id="Group_3013" data-name="Group 3013" transform="translate(31.61 0)">
        <path id="Path_4188" data-name="Path 4188" class="cls-1" d="M259.35,38.591,239.6,48.983a6.063,6.063,0,0,0-3.2,4.675v13.2a1.542,1.542,0,0,0,.666,1.3l.366.158a2.488,2.488,0,0,0,1.366,0,4.2,4.2,0,0,0,.8-.316l1.865-.979c-.6,1.643,2.7,4.548,3,4.391-.833-2.179,1.9-6.886,3.964-8.023l-.033-.032,10.959-5.749a6.063,6.063,0,0,0,3.2-4.675V39.886C262.548,39.349,261.915,37.643,259.35,38.591Z" transform="translate(-236.034 -37.971)"/>
        <path id="Path_4189" data-name="Path 4189" class="cls-6" d="M243.694,71.023c-.167,0-.433-.126-.966-.537-.866-.727-2.332-2.274-2.432-3.6l-1.3.695a3.52,3.52,0,0,1-.9.347,2.636,2.636,0,0,1-1.566,0H236.5l-.366-.158a.032.032,0,0,1-.033-.032,1.826,1.826,0,0,1-.8-1.548V52.924a6.353,6.353,0,0,1,3.364-4.959l19.752-10.392s.033,0,.033-.032a3.1,3.1,0,0,1,2.765.032,2.054,2.054,0,0,1,.9,1.548V52.166a6.433,6.433,0,0,1-3.364,4.959l-10.792,5.686c-.033.032-.067.095-.133.095-2.032,1.106-4.563,5.686-3.831,7.644a.274.274,0,0,1-.167.379C243.827,70.992,243.761,71.023,243.694,71.023ZM240.729,66a.37.37,0,0,1,.2.063.344.344,0,0,1,.1.347,1.728,1.728,0,0,0,.233,1.327,9.153,9.153,0,0,0,1.965,2.337c-.2-2.5,2.232-6.412,4.13-7.581a.254.254,0,0,1,.133-.126L258.45,56.62a5.742,5.742,0,0,0,3.031-4.391V39.152a1.356,1.356,0,0,0-.6-1.042,2.385,2.385,0,0,0-2.132.032L239.031,48.533A5.742,5.742,0,0,0,236,52.924v13.2a1.4,1.4,0,0,0,.5,1.074l.3.158a1.994,1.994,0,0,0,1.132-.032,2.453,2.453,0,0,0,.733-.316l1.865-.979A.443.443,0,0,1,240.729,66Z" transform="translate(-235.3 -37.237)"/>
      </g>
      <path id="Path_4190" data-name="Path 4190" class="cls-7" d="M314.234,157.415c0-.032,0-.032-.033-.063a3.753,3.753,0,0,0-4.5-1.548h0l-.4.19-.1-.095a2.387,2.387,0,0,0-1.7,1.579h0c-.6,1.643.2,3.948,1.965,4.485a4.889,4.889,0,0,0,3.031-.063A3.178,3.178,0,0,0,314.234,157.415Z" transform="translate(-251.712 -118.196)"/>
      <path id="Path_4191" data-name="Path 4191" class="cls-8" d="M293.5,160.54c-1.732-.505-2.531-2.843-1.965-4.485h0a2.448,2.448,0,0,1,1.7-1.579,3.957,3.957,0,0,0-2.232-.884,8.766,8.766,0,0,0-3.031.221,5.888,5.888,0,0,0-2.831,1.263,6.275,6.275,0,0,0-.5.442c-.266.253-.5.505-.733.758h.033c-.833.758-.7,2.464-.033,3.411a9.019,9.019,0,0,1,.033-.979,6.753,6.753,0,0,0,2.5,4.548l.033.032A10.907,10.907,0,0,0,287.8,164.3a5.092,5.092,0,0,0,.566.316,6.582,6.582,0,0,0,3.431.632,6.241,6.241,0,0,0,2.4-.758,4.387,4.387,0,0,0,2.1-2.748,8.407,8.407,0,0,0,.233-1.263A4.671,4.671,0,0,1,293.5,160.54Z" transform="translate(-235.742 -116.804)"/>
      <g id="Group_3014" data-name="Group 3014" transform="translate(54.516 113.352)">
        <path id="Path_4192" data-name="Path 4192" class="cls-1" d="M306.37,402c.133-.569.233-1.2.433-1.864V400.1c.133-.316.266-.79.5-1.263.3-.695.733-1.39,1.366-1.548a.127.127,0,0,0,.1-.032,2.189,2.189,0,0,1,1.5.126c.833.505.5,1.864.466,2.811a.032.032,0,0,1-.033.032,2.842,2.842,0,0,0-.733.853h0a12.021,12.021,0,0,0-.2,2.716c-.333,0-.8.032-1.2.063a11.231,11.231,0,0,0-.4-3.38c-.333.821-.5,2.874-.733,3.506v.032a5.351,5.351,0,0,1-2.132-.032A1.365,1.365,0,0,1,306.37,402Z" transform="translate(-304.793 -396.846)"/>
        <path id="Path_4193" data-name="Path 4193" class="cls-9" d="M305.51,403.678a4.019,4.019,0,0,1-1.033-.126.442.442,0,0,1-.233-.19,1.674,1.674,0,0,1,.1-1.674,1.594,1.594,0,0,1,1.033-.727l.033-.095c.1-.474.2-1.011.366-1.579a.1.1,0,0,1,.033-.063h0a2.31,2.31,0,0,1,.133-.347c.1-.284.233-.6.366-.948.3-.632.766-1.516,1.6-1.737l.133-.032a2.707,2.707,0,0,1,1.732.158c.833.505.733,1.611.666,2.5a3.82,3.82,0,0,0-.033.6.182.182,0,0,1-.033.126c0,.032-.033.032-.033.063s-.033.032-.033.063l-.2.19a1.79,1.79,0,0,0-.466.569,11.116,11.116,0,0,0-.167,2.622.325.325,0,0,1-.333.316c-.333,0-.766.032-1.2.063a.39.39,0,0,1-.266-.095.348.348,0,0,1-.1-.253,8.351,8.351,0,0,0-.1-1.832l-.1.569c-.1.6-.2,1.137-.266,1.453a.162.162,0,0,1-.067.126.341.341,0,0,1-.233.126A7.655,7.655,0,0,1,305.51,403.678Zm-.7-.695a5.63,5.63,0,0,0,1.632,0c.067-.284.133-.726.233-1.2a12.091,12.091,0,0,1,.466-2.148.3.3,0,0,1,.333-.19.311.311,0,0,1,.3.253,11.9,11.9,0,0,1,.433,3.127c.167,0,.366-.032.533-.032a12.063,12.063,0,0,1,.2-2.5.112.112,0,0,1,.033-.095,3.011,3.011,0,0,1,.6-.79l.1-.095c0-.158.033-.347.033-.505.067-.758.167-1.611-.333-1.927a1.928,1.928,0,0,0-1.266-.095l-.1.032c-.4.095-.766.569-1.133,1.358-.133.316-.266.632-.366.916-.033.126-.1.253-.133.347v.032c-.133.505-.266,1.042-.366,1.516l-.067.316a.348.348,0,0,1-.3.253,1,1,0,0,0-.766.474A1.325,1.325,0,0,0,304.811,402.983Z" transform="translate(-304.067 -396.096)"/>
      </g>
      <g id="Group_3015" data-name="Group 3015" transform="translate(57.818 120.018)">
        <path id="Path_4194" data-name="Path 4194" class="cls-1" d="M316.266,418.2v.853a1.551,1.551,0,0,1-1.366.126,7.62,7.62,0,0,0,.133-.916C315.466,418.232,315.933,418.2,316.266,418.2Z" transform="translate(-314.594 -417.884)"/>
        <path id="Path_4195" data-name="Path 4195" class="cls-10" d="M314.953,418.906a1.991,1.991,0,0,1-.733-.126.341.341,0,0,1-.233-.379,5.812,5.812,0,0,0,.133-.853.291.291,0,0,1,.3-.284c.433-.032.9-.032,1.2-.063a.31.31,0,0,1,.233.095.28.28,0,0,1,.1.221v.853a.241.241,0,0,1-.1.221A1.193,1.193,0,0,1,314.953,418.906Zm-.266-.663a1.346,1.346,0,0,0,.633-.032v-.347c-.167,0-.366.032-.566.032A1.552,1.552,0,0,1,314.687,418.242Z" transform="translate(-313.981 -417.2)"/>
      </g>
      <g id="Group_3016" data-name="Group 3016" transform="translate(53.188 94.335)">
        <path id="Path_4196" data-name="Path 4196" class="cls-1" d="M308.328,341.417c-.2-.632-.7-1.516-1.066-2.4a3.147,3.147,0,0,1-.333-1.737V336.9a17.81,17.81,0,0,1-3.8,1.958c-.633.253-1.3.442-1.932.632,1.1,4.422,3.731,15.13,3.431,18.068l.067.032c.3-.695.733-1.39,1.366-1.548a.127.127,0,0,0,.1-.032,2.189,2.189,0,0,1,1.5.126l.167-.032a86.563,86.563,0,0,0,1.066-10.518A11.913,11.913,0,0,0,308.328,341.417Z" transform="translate(-300.827 -336.581)"/>
        <path id="Path_4197" data-name="Path 4197" class="cls-11" d="M303.918,357.215h-.1l-.067-.032a.319.319,0,0,1-.233-.347c.2-1.99-.966-8.023-3.431-17.973a.341.341,0,0,1,.233-.379c.633-.158,1.266-.379,1.9-.6a17.344,17.344,0,0,0,3.731-1.927.374.374,0,0,1,.366-.032.328.328,0,0,1,.167.284v.411a3.022,3.022,0,0,0,.333,1.579c.133.347.333.727.5,1.074a9.447,9.447,0,0,1,.566,1.327,11.738,11.738,0,0,1,.533,4.233,62.76,62.76,0,0,1-.766,8.181c-.1.79-.233,1.579-.3,2.369a.34.34,0,0,1-.233.284l-.167.032a.394.394,0,0,1-.266-.032,1.929,1.929,0,0,0-1.266-.095l-.1.032c-.4.095-.766.569-1.133,1.358A.257.257,0,0,1,303.918,357.215Zm-3.1-18.194c2.132,8.5,3.231,13.993,3.4,16.709a2.072,2.072,0,0,1,1-.726l.133-.032a2.905,2.905,0,0,1,1.4.032c.1-.663.167-1.358.266-2.053a61.822,61.822,0,0,0,.766-8.118,10.669,10.669,0,0,0-.533-4.075h0a8.452,8.452,0,0,0-.533-1.263,11.308,11.308,0,0,1-.5-1.106,4.452,4.452,0,0,1-.4-1.579,16.753,16.753,0,0,1-3.331,1.611A10.415,10.415,0,0,1,300.82,339.021Z" transform="translate(-300.081 -335.891)"/>
      </g>
      <g id="Group_3017" data-name="Group 3017" transform="translate(44.751 96.514)">
        <path id="Path_4198" data-name="Path 4198" class="cls-1" d="M283.061,345.153v-.727c-2.3.442-4.6.379-6.129-.726v.221c.067,3.854,1.532,19.994.167,22.711h.033c-.333.695-.666,1.421-1.033,2.085-.133.221-.266.474-.4.663,1.232-.19,1.6-.853,2-2.148a9.122,9.122,0,0,1,.633-2.527,3.306,3.306,0,0,1,1.765-1.3,5.467,5.467,0,0,1,1.133-.221c-.733-3.506,2.032-7.8,2.465-11.276C283.927,349.607,283.161,347.427,283.061,345.153Z" transform="translate(-275.384 -343.413)"/>
        <path id="Path_4199" data-name="Path 4199" class="cls-12" d="M275.066,369.074a.42.42,0,0,1-.266-.126.326.326,0,0,1,0-.347,3.215,3.215,0,0,0,.366-.663c.233-.474.5-.948.7-1.421.1-.19.166-.347.266-.537a.112.112,0,0,1,.033-.095c1-1.958.4-11.877.067-17.783-.133-2.148-.233-3.822-.233-4.77v-.221a.3.3,0,0,1,.2-.284.32.32,0,0,1,.333.032c1.632,1.169,4.1,1.011,5.829.663a.269.269,0,0,1,.266.063.383.383,0,0,1,.133.253v.727a22.949,22.949,0,0,0,.333,2.59,16.336,16.336,0,0,1,.3,4.264,20.289,20.289,0,0,1-1.232,4.391c-.833,2.306-1.665,4.706-1.232,6.76a.237.237,0,0,1-.067.253.342.342,0,0,1-.233.126,5.291,5.291,0,0,0-1.066.19,3.306,3.306,0,0,0-1.6,1.169,5.546,5.546,0,0,0-.433,1.579,7.685,7.685,0,0,1-.167.853c-.366,1.2-.766,2.148-2.265,2.369A.032.032,0,0,0,275.066,369.074Zm1.732-3.032a.112.112,0,0,1-.033.095c-.1.221-.2.411-.3.632l-.7,1.421a2.75,2.75,0,0,0,.966-1.674c.033-.19.067-.379.1-.6C276.832,365.978,276.8,366.01,276.8,366.042Zm-.167-22.4c.033,1.011.133,2.59.233,4.391.3,5.243.766,12.7.3,16.362.067-.158.133-.284.2-.442a.032.032,0,0,1,.033-.032,3.969,3.969,0,0,1,2.8-1.611c-.3-2.148.5-4.485,1.3-6.76a21.708,21.708,0,0,0,1.2-4.264,14.086,14.086,0,0,0-.3-4.106c-.133-.853-.266-1.769-.333-2.653h0v-.379A8.515,8.515,0,0,1,276.632,343.647Z" transform="translate(-274.75 -342.791)"/>
      </g>
      <g id="Group_3018" data-name="Group 3018" transform="translate(41.859 116.038)">
        <path id="Path_4200" data-name="Path 4200" class="cls-1" d="M270.019,411.591c1.232-.19,1.6-.853,2-2.148a9.125,9.125,0,0,1,.633-2.527,3.306,3.306,0,0,1,1.765-1.3,5.47,5.47,0,0,1,1.133-.221h.2c1.366,2.369-.233,5.433.6,7.707-.633.411-1.865.284-1.432-.505-.033-1.011-.1-2.022-.1-3v-.063c-1.166.632-3.131,2.716-3.3,3.885a1.673,1.673,0,0,1-.233.095,10.934,10.934,0,0,1-4.064-.126,3.985,3.985,0,0,1,.2-1.9,10.5,10.5,0,0,0,3-.6C270.286,411.149,270.153,411.37,270.019,411.591Z" transform="translate(-266.811 -405.147)"/>
        <path id="Path_4201" data-name="Path 4201" class="cls-13" d="M268.543,413.444a8.7,8.7,0,0,1-2.2-.253.273.273,0,0,1-.233-.253,4.012,4.012,0,0,1,.233-2.053.278.278,0,0,1,.266-.19h.133a8.949,8.949,0,0,0,2.765-.569.32.32,0,0,1,.4.063.278.278,0,0,1,.067.347,2.75,2.75,0,0,0,.966-1.674,4.923,4.923,0,0,0,.133-.79,5.38,5.38,0,0,1,.5-1.8.031.031,0,0,1,.033-.032,3.783,3.783,0,0,1,1.932-1.421,4.724,4.724,0,0,1,1.2-.221h.233a.354.354,0,0,1,.3.158,7.392,7.392,0,0,1,.5,4.485,7.521,7.521,0,0,0,.1,3.253.352.352,0,0,1-.133.379,1.742,1.742,0,0,1-1.832.032.683.683,0,0,1-.133-.853c0-.411-.033-.79-.033-1.2-.033-.411-.033-.821-.033-1.232-1.133.821-2.531,2.464-2.631,3.348,0,.095-.1.19-.2.253-.067.032-.167.063-.233.095a.118.118,0,0,0-.067.032C269.909,413.381,269.243,413.444,268.543,413.444Zm-1.8-.821a11.008,11.008,0,0,0,3.664.063h0c.333-1.327,2.3-3.317,3.431-3.948a.316.316,0,0,1,.333,0,.328.328,0,0,1,.167.284v.063c0,.569.033,1.169.067,1.737.033.411.033.853.033,1.263a.272.272,0,0,1-.033.158c-.033.032-.067.126-.033.158a.963.963,0,0,0,.8,0,8.862,8.862,0,0,1-.067-3.253,7.176,7.176,0,0,0-.333-3.948,4.58,4.58,0,0,0-1.033.19,3.306,3.306,0,0,0-1.6,1.169,5.54,5.54,0,0,0-.433,1.579,7.709,7.709,0,0,1-.167.853c-.366,1.2-.766,2.148-2.265,2.369a.325.325,0,0,1-.333-.126.237.237,0,0,1-.033-.253,18,18,0,0,1-2.032.316A4.389,4.389,0,0,0,266.745,412.623Z" transform="translate(-266.068 -404.6)"/>
      </g>
      <g id="Group_3019" data-name="Group 3019" transform="translate(47.799 41.588)">
        <path id="Path_4202" data-name="Path 4202" class="cls-1" d="M292.994,176.538a6.229,6.229,0,0,1-3.431-.632c-.2-.095-.4-.221-.566-.316a11.569,11.569,0,0,1-1.332-1.011c0,.032-.033.032-.033.063v-.095a6.889,6.889,0,0,1-2.5-4.548,9.317,9.317,0,0,0-.033.979c0,2.179.6,4.991,1.965,5.97a1.958,1.958,0,0,0,.966.347,8.666,8.666,0,0,1,.133.916c0,.126.033.253.033.411,1.332-.347,2.7-.569,4.1-.79.133-.032.233-.032.366-.063l.6-.095C293.161,177.328,293.061,176.854,292.994,176.538Z" transform="translate(-284.7 -169.653)"/>
        <path id="Path_4203" data-name="Path 4203" class="cls-14" d="M287.331,178.155a.491.491,0,0,1-.2-.063.383.383,0,0,1-.133-.253,1.46,1.46,0,0,0-.033-.379,4.558,4.558,0,0,0-.1-.663,2.331,2.331,0,0,1-.866-.379c-1.532-1.074-2.1-4.012-2.1-6.223a9.936,9.936,0,0,1,.033-1.011.337.337,0,0,1,.666,0,6.483,6.483,0,0,0,2.4,4.359h0a.032.032,0,0,1,.033.032,15.827,15.827,0,0,0,1.3,1.011c.167.095.333.221.533.316a6.092,6.092,0,0,0,3.264.6.328.328,0,0,1,.366.253l.033.158a5.585,5.585,0,0,1,.133,1.042.345.345,0,0,1-.267.316l-.233.032c-.133.032-.233.032-.366.063-.1,0-.167.032-.266.032l-.333.063c-1.332.221-2.565.411-3.8.726A.106.106,0,0,0,287.331,178.155Zm-2.665-6.475c.2,1.769.766,3.569,1.732,4.264a1.736,1.736,0,0,0,.766.284.315.315,0,0,1,.3.253c.067.347.1.663.133.948v.032c1.133-.284,2.265-.442,3.464-.632l.333-.063c.1,0,.167-.032.267-.032.1-.032.2-.032.3-.063-.033-.158-.033-.347-.067-.505a6.393,6.393,0,0,1-3.331-.695,3.644,3.644,0,0,1-.6-.347,13.743,13.743,0,0,1-1.2-.884.127.127,0,0,1-.1-.032.354.354,0,0,1-.233-.284A9.925,9.925,0,0,1,284.666,171.68Z" transform="translate(-283.9 -168.9)"/>
      </g>
      <g id="Group_3020" data-name="Group 3020" transform="translate(41.137 79.724)">
        <path id="Path_4204" data-name="Path 4204" class="cls-1" d="M277.624,295.9c-.666-.316-2.365-1.074-4.33-1.927a.032.032,0,0,1-.033-.032c-.033.063-.067.158-.1.221h0a.112.112,0,0,1-.033.095c-.067.505.1,1.8-.5,1.8h-.067c-.067-.316-.133-.663-.2-1.011h0a2.6,2.6,0,0,1,.133-.884h0c-.1.253-.3.758-.4,1.105.133.6.266,1.579-.233,1.8h-.067l-.2-.853c.033.379.266,1.2-.4,1.232h0a8.134,8.134,0,0,1-.4-1.99v-.032a6.6,6.6,0,0,1,.167-1.769c-.033,0-.067-.032-.1-.032-.167.284-.366.474-.5.758.133.79.4,2.369-.233,2.4a1.877,1.877,0,0,1-.167-.379c0-.032,0-.063-.033-.063a13.788,13.788,0,0,1-.4-2.243h0a3.576,3.576,0,0,1,.266-.979,4.37,4.37,0,0,1,.266-.569c-1.865-.79-3.6-1.485-4.563-1.832-.266-.095-.466-.158-.6-.221l.133,4.3.167,5.812,4.164,1.8,2.865,1.263,5.929,2.559Z" transform="translate(-264.567 -290.227)"/>
        <path id="Path_4205" data-name="Path 4205" class="cls-15" d="M277.457,305.985a.209.209,0,0,1-.133-.032l-12.957-5.622a.363.363,0,0,1-.2-.284l-.266-10.108a.283.283,0,0,1,.133-.253.339.339,0,0,1,.3-.032c.133.032.366.126.633.221.933.347,2.6,1.011,4.563,1.864a.248.248,0,0,1,.167.19.237.237,0,0,1-.033.253c-.1.158-.167.347-.266.537a3.264,3.264,0,0,0-.233.853,15.514,15.514,0,0,0,.3,1.9,8.49,8.49,0,0,0-.167-1.516v-.19a2.694,2.694,0,0,1,.366-.6c.067-.063.1-.158.167-.221a.316.316,0,0,1,.4-.126l.1.032a.291.291,0,0,1,.2.379,7.139,7.139,0,0,0-.167,1.674v.063a3.928,3.928,0,0,0,.2,1.2.382.382,0,0,0-.033-.19c0-.095-.033-.19-.033-.253a.318.318,0,0,1,.3-.316.339.339,0,0,1,.366.19,3.873,3.873,0,0,0-.1-.79v-.19a2.319,2.319,0,0,1,.133-.347,4.718,4.718,0,0,1,.3-.758.322.322,0,0,1,.366-.19.275.275,0,0,1,.2.126.235.235,0,0,1,.067.126h0c0-.032,0-.032.033-.063.033-.063.033-.095.067-.158l.033-.063a.314.314,0,0,1,.4-.19.118.118,0,0,1,.067.032c1.566.663,3.6,1.548,4.363,1.927a.32.32,0,0,1,.167.253l.5,10.392a.459.459,0,0,1-.133.284ZM264.8,299.858,277.09,305.2l-.466-9.7c-.633-.316-1.965-.884-3.864-1.706v.347c0,.663-.033,1.642-.8,1.642h-.1a1.044,1.044,0,0,1-.566.979c-.033,0-.067.032-.1.032h-.067c-.033.063-.067.095-.1.158a.916.916,0,0,1-.566.253.359.359,0,0,1-.366-.253l-.1-.379c-.033-.095-.067-.221-.1-.316,0,.032-.033.032-.033.063a.593.593,0,0,1-.466.221.37.37,0,0,1-.333-.19,1.769,1.769,0,0,1-.167-.442.1.1,0,0,0-.033-.063,12.355,12.355,0,0,1-.4-2.306v-.063a3.553,3.553,0,0,1,.3-1.042,1.093,1.093,0,0,1,.133-.284c-1.832-.758-3.364-1.39-4.23-1.706-.033-.032-.1-.032-.133-.063Zm7.195-5.37c.033.095.033.19.067.284a4.665,4.665,0,0,0,.033-.632v-.316a2.084,2.084,0,0,0-.1.632Z" transform="translate(-263.9 -289.634)"/>
      </g>
      <path id="Path_4206" data-name="Path 4206" class="cls-16" d="M280.162,194.139c0-.032-.033-.032-.033-.063-1.066-1.643-4.03-1.2-6.529-.758l-.6.095c-.133.032-.233.032-.366.063-1.4.221-2.765.442-4.1.79-.266.063-.533.158-.8.221a23.313,23.313,0,0,0-2.965,1.2c-.433.221-.833.442-1.232.663a2.654,2.654,0,0,0-.533.663,4.991,4.991,0,0,0-.5,1.9c-.266.537-.533,1.106-.766,1.674-1.532-.379-3.264-1.137-4.8-1.39h0l-.033-.032a3.146,3.146,0,0,0-1.133,2.179h0a38.376,38.376,0,0,0,5.8,3,8.954,8.954,0,0,0,1.532,2.432c.233,1.864.433,5.243.9,7.107,0,.063.033.095.033.158a3.706,3.706,0,0,1-2.865,2.274,3.732,3.732,0,0,0,1.632,1.137,15.151,15.151,0,0,0-1.133,7.107c.6.253,1.3.569,2.032.853.366-.379.8-.758,1.066-1.011a2.759,2.759,0,0,0,.2-.316,4.259,4.259,0,0,0,2.831.569,16.85,16.85,0,0,1-.6,2.211c2.565,1.074,4.8,2.022,4.8,2.022h0v10.55l-5.929-2.559-2.865-1.263a35.991,35.991,0,0,1,.433,4.833c1.532,1.106,3.8,1.169,6.129.726.366-.063.766-.158,1.133-.253a19.716,19.716,0,0,0,5.729-2.59,74.323,74.323,0,0,1,.866-9.444c.433-3.348,1.832-6.317.533-10.013a11.969,11.969,0,0,0-1.166-2.4l-.333-.032c.533-.253.866-.474.933-.663A5.429,5.429,0,0,1,275,213.249a7.98,7.98,0,0,1-.1-.884,13.036,13.036,0,0,1,.133-2.306c.3-2.653,1.466-4.928,2.5-7.391.6-1.327,1.332-2.59,1.865-3.917a10.052,10.052,0,0,0,.966-2.748h.067A3.324,3.324,0,0,0,280.162,194.139Zm-15.455,29.6c.033,0,.1.032.133.032,0,.063-.033.126-.033.19A.333.333,0,0,1,264.707,223.736Zm7.495-5.844a4.711,4.711,0,0,0,.8-1.958,10.1,10.1,0,0,0,1.2,1.453C273.567,217.545,272.9,217.734,272.2,217.892Z" transform="translate(-217.341 -143.738)"/>
      <g id="Group_3021" data-name="Group 3021" transform="translate(45.733 80.092)">
        <path id="Path_4207" data-name="Path 4207" class="cls-1" d="M280.3,291.8a2.751,2.751,0,0,0-.2.316c-.266.253-.7.632-1.066,1.011.1.032.233.095.333.126-.033.063-.1.158-.133.221a4.364,4.364,0,0,0-.266.569,3.3,3.3,0,0,0-.266.979h0a10.942,10.942,0,0,0,.4,2.243c0,.032,0,.063.033.063a1.33,1.33,0,0,0,.167.379c.633-.032.366-1.643.233-2.4a2.742,2.742,0,0,1,.5-.758c.033,0,.067.032.1.032a6.376,6.376,0,0,0-.167,1.769v.032a6.83,6.83,0,0,0,.4,1.99h0c.666-.032.433-.853.4-1.232l.2.853h.067c.5-.221.4-1.2.233-1.8.133-.347.3-.853.4-1.106,0-.032.033-.032.033-.063v.063a2.594,2.594,0,0,0-.133.884h0c.067.348.133.695.2,1.011h.067c.6,0,.433-1.3.5-1.8a.112.112,0,0,1,.033-.095h0a1.5,1.5,0,0,0,.1-.221c.033-.063.067-.158.1-.221a16.854,16.854,0,0,0,.6-2.211A4.474,4.474,0,0,1,280.3,291.8Z" transform="translate(-278.367 -291.484)"/>
        <path id="Path_4208" data-name="Path 4208" class="cls-17" d="M279.665,298a.321.321,0,0,1-.333-.253l-.1-.379c-.033-.095-.067-.221-.1-.316,0,.032-.033.032-.033.063a.593.593,0,0,1-.466.221.37.37,0,0,1-.333-.19,1.763,1.763,0,0,1-.167-.442.1.1,0,0,0-.033-.063,12.349,12.349,0,0,1-.4-2.306v-.063a3.55,3.55,0,0,1,.3-1.042c.067-.158.167-.347.233-.505h0a.34.34,0,0,1-.2-.221.248.248,0,0,1,.1-.284,6.264,6.264,0,0,1,.5-.442l.566-.537v-.032c.067-.095.1-.158.167-.253a.386.386,0,0,1,.233-.158.373.373,0,0,1,.266.063,3.792,3.792,0,0,0,2.532.505.557.557,0,0,1,.3.095.426.426,0,0,1,.1.284,12.972,12.972,0,0,1-.6,2.243c-.033.063-.033.095-.067.158l-.067.126c-.033.063-.033.095-.067.158v.474c0,.663-.033,1.643-.8,1.643h-.1a1.044,1.044,0,0,1-.566.979c-.033,0-.067.032-.1.032h-.067c-.033.063-.067.095-.1.158a.637.637,0,0,1-.6.284Zm-.333-4.454a.127.127,0,0,1,.1.032l.1.032a.291.291,0,0,1,.2.379,7.141,7.141,0,0,0-.167,1.674v.063a3.929,3.929,0,0,0,.2,1.2.382.382,0,0,0-.033-.19c0-.095-.033-.19-.033-.253a.318.318,0,0,1,.3-.316.339.339,0,0,1,.366.19,3.868,3.868,0,0,0-.1-.79v-.19a2.324,2.324,0,0,1,.133-.347,4.724,4.724,0,0,1,.3-.758.032.032,0,0,1,.033-.032.352.352,0,0,1,.433-.19.392.392,0,0,1,.233.221v-.032c.033-.063.033-.095.067-.158l.033-.126c.033-.063.033-.095.067-.158.167-.474.333-1.074.5-1.769a4.684,4.684,0,0,1-2.3-.474v.032l-.033.032-.6.569-.133.126c.033.032.067.095.1.126a.229.229,0,0,1-.033.253l-.1.19a4.028,4.028,0,0,0-.266.537,3.267,3.267,0,0,0-.233.853,15.512,15.512,0,0,0,.3,1.9,8.491,8.491,0,0,0-.167-1.516v-.19a2.693,2.693,0,0,1,.366-.6c.067-.063.1-.158.167-.221C279.1,293.611,279.232,293.548,279.332,293.548Zm1.865,1.737c.033.095.033.19.067.284a4.656,4.656,0,0,0,.033-.632v-.316a2.083,2.083,0,0,0-.1.632Z" transform="translate(-277.7 -290.8)"/>
      </g>
      <g id="Group_3022" data-name="Group 3022" transform="translate(35.274 53.05)">
        <path id="Path_4209" data-name="Path 4209" class="cls-1" d="M247.133,209.452c.033-.19.067-.411.1-.6a5.9,5.9,0,0,1,.233-.695v-.063a10.45,10.45,0,0,0,1.765-.158c-.2-.79-.566-1.769.266-1.737a3.791,3.791,0,0,0,1.532,2.085,3.146,3.146,0,0,0-1.133,2.179h-.033c-1.033.063-1.9.158-2.8.158a2.335,2.335,0,0,1-.067-.505h0A2.876,2.876,0,0,0,247.133,209.452Z" transform="translate(-246.767 -205.878)"/>
        <path id="Path_4210" data-name="Path 4210" class="cls-18" d="M246.9,210.213h-.2a.317.317,0,0,1-.3-.221,2.848,2.848,0,0,1-.1-.6h0a4.426,4.426,0,0,1,.033-.663,4.271,4.271,0,0,1,.133-.632,3.468,3.468,0,0,1,.233-.695h0a.28.28,0,0,1,.1-.221.31.31,0,0,1,.233-.095,8.919,8.919,0,0,0,1.366-.095c-.167-.6-.3-1.169,0-1.548a.749.749,0,0,1,.7-.253.317.317,0,0,1,.3.221,3.71,3.71,0,0,0,1.432,1.958.383.383,0,0,1,.133.253.283.283,0,0,1-.133.253,2.824,2.824,0,0,0-1,1.864.237.237,0,0,1-.067.253.42.42,0,0,1-.266.126c-.3.032-.6.032-.9.063C248.032,210.15,247.466,210.213,246.9,210.213Zm-.333-.537Zm.4-.19v.063a14.456,14.456,0,0,0,1.6-.095c.2,0,.4-.032.6-.032a3.9,3.9,0,0,1,.966-1.864,3.755,3.755,0,0,1-1.232-1.674,3.026,3.026,0,0,0,.2,1.042l.067.19a.32.32,0,0,1-.033.253.283.283,0,0,1-.233.126,11.31,11.31,0,0,1-1.566.158,2.565,2.565,0,0,0-.167.537l-.1.569h0a2.123,2.123,0,0,0-.033.442A1.923,1.923,0,0,1,246.966,209.487Z" transform="translate(-246.3 -205.187)"/>
      </g>
      <path id="Path_4211" data-name="Path 4211" class="cls-19" d="M237.652,211.69c-.067-.095,0-.19.266-.19h.067a23.185,23.185,0,0,0,3.231.19v.063a3.467,3.467,0,0,0-.233.695,15.226,15.226,0,0,1-2.1-.316,9.73,9.73,0,0,1-1.033-.316A.225.225,0,0,1,237.652,211.69Z" transform="translate(-205.242 -156.456)"/>
      <path id="Path_4212" data-name="Path 4212" class="cls-19" d="M237.072,212.574c-.233-.126-.233-.284.1-.474a.392.392,0,0,0,.167.158,9.733,9.733,0,0,0,1.033.316c.7.19,1.4.19,2.1.316a3.251,3.251,0,0,0-.1.6c-.666-.158-1.632-.347-1.932-.442A7.854,7.854,0,0,1,237.072,212.574Z" transform="translate(-204.762 -156.867)"/>
      <path id="Path_4213" data-name="Path 4213" class="cls-19" d="M240.711,214.584a4.018,4.018,0,0,0-.033.632c-.733-.284-1.566-.474-2.332-.758-.4-.158-1.066-.284-.966-.758a6.979,6.979,0,0,0,1.4.442C239.112,214.205,240.078,214.426,240.711,214.584Z" transform="translate(-205.07 -157.961)"/>
      <path id="Path_4214" data-name="Path 4214" class="cls-19" d="M242.269,217.9a2.091,2.091,0,0,0,.067.505,7.86,7.86,0,0,1-2.531-.505c-.3-.411.9-.158,1.133-.126C241.237,217.834,241.869,217.834,242.269,217.9Z" transform="translate(-206.662 -160.674)"/>
      <g id="Group_3023" data-name="Group 3023" transform="translate(31.677 52)">
        <path id="Path_4215" data-name="Path 4215" class="cls-1" d="M243.695,207.348c-.9-.663-4.2-2.811-4.2-2.811.433-.347,1.232-.663,1.232-1.169a.547.547,0,0,0-.366-.569,6.043,6.043,0,0,1-2.6,1.074c-.233.032-.466.063-.666.095a5.9,5.9,0,0,0-.6,3.19h.033a15.1,15.1,0,0,0,1.6,1.074,11.03,11.03,0,0,1,1.9,1.169h0c.8.442,1.166.537,1.3.505h0a.07.07,0,0,0,.067-.063c0-.284-.9-.948-1.632-1.674a6.828,6.828,0,0,0,1.7,1.2c.167.095.6.221.8.316a.372.372,0,0,0,.233-.095.191.191,0,0,0,.033-.221c-.366-.442-1.8-1.39-2.5-2.053a18.778,18.778,0,0,0,3.364,1.737c.133,0,.3-.19.2-.284a20.6,20.6,0,0,0-3.131-2.211c.466.158,2.7,1.232,3.131,1.39C243.895,207.917,244.094,207.57,243.695,207.348Z" transform="translate(-236.167 -202.504)"/>
        <path id="Path_4216" data-name="Path 4216" class="cls-20" d="M240.6,209.55a3.194,3.194,0,0,1-1.4-.537c-.033,0-.033-.032-.067-.032a10.731,10.731,0,0,0-1.832-1.106,5.883,5.883,0,0,1-1-.663,4.414,4.414,0,0,0-.533-.379.312.312,0,0,1-.266-.316,6.277,6.277,0,0,1,.666-3.38.309.309,0,0,1,.266-.126,4.93,4.93,0,0,0,.6-.063,6.129,6.129,0,0,0,2.432-.979.331.331,0,0,1,.333-.095.862.862,0,0,1,.6.884c0,.537-.533.884-.966,1.137H239.4c.9.6,3.1,2.022,3.831,2.559a.64.64,0,0,1,.333.758.588.588,0,0,1-.633.379h-.033a1.309,1.309,0,0,1,.3.316.414.414,0,0,1,.067.442.6.6,0,0,1-.533.347,3.374,3.374,0,0,1-.666-.19l.033.032c.033.032.033.063.067.095a.593.593,0,0,1-.133.537.754.754,0,0,1-.5.19.127.127,0,0,1-.1-.032c-.1-.032-.2-.095-.333-.126a.032.032,0,0,1-.033-.032v.032a.112.112,0,0,1-.033.095.4.4,0,0,1-.3.253H240.6Zm-1.033-1.074a3.148,3.148,0,0,0,.333.158,1.96,1.96,0,0,1-.266-.253c-.233-.221-.5-.442-.733-.695a.3.3,0,0,1,0-.442.334.334,0,0,1,.466,0,6.46,6.46,0,0,0,1.6,1.137,2.373,2.373,0,0,0,.266.095c-.2-.158-.433-.347-.666-.505-.5-.379-1.033-.79-1.4-1.137a.3.3,0,0,1,0-.442.371.371,0,0,1,.466-.032,24.89,24.89,0,0,0,2.665,1.453c-.466-.379-1.1-.758-1.632-1.106-.366-.221-.733-.442-1-.632a.324.324,0,0,1-.1-.411.391.391,0,0,1,.4-.158c.233.095.9.379,1.6.727l.933.442c-1.166-.821-3.831-2.527-3.864-2.559a.306.306,0,0,1,0-.505c.133-.095.3-.221.433-.316.3-.19.666-.411.666-.632,0-.063,0-.126-.033-.158a7.09,7.09,0,0,1-2.531.979,3.5,3.5,0,0,1-.533.063,5.81,5.81,0,0,0-.466,2.685c.2.126.4.284.566.411a4.02,4.02,0,0,0,.866.569C238.331,207.655,238.9,208,239.564,208.476Zm3.131-.221Z" transform="translate(-235.5 -201.863)"/>
      </g>
      <path id="Path_4217" data-name="Path 4217" class="cls-21" d="M234.16,208.369a8.174,8.174,0,0,1,.833-3.569c.466.126.267.126.733.253a1.766,1.766,0,0,0-.2.253,5.9,5.9,0,0,0-.6,3.19v.095A1.8,1.8,0,0,1,234.16,208.369Z" transform="translate(-202.916 -151.872)"/>
      <g id="Group_3024" data-name="Group 3024" transform="translate(30.211 68.416)">
        <path id="Path_4218" data-name="Path 4218" class="cls-1" d="M234.9,255.684V254.8c-.7.474-1.3.853-1.932,1.3h0l-.7.442c0,3.19-.067,6.444-.067,9.634.833-.442,1.8-1.137,2.7-1.674,0-1.2.067-2.653.067-3.854v-.032h0C234.931,259.791,234.9,257.232,234.9,255.684Z" transform="translate(-231.834 -254.495)"/>
        <path id="Path_4219" data-name="Path 4219" class="cls-22" d="M231.433,265.826a.261.261,0,0,1-.167-.032.328.328,0,0,1-.167-.284c0-1.706.033-3.443.033-5.149.033-1.516.033-3,.033-4.485a.383.383,0,0,1,.133-.253l.7-.442c.4-.316.8-.569,1.232-.853.233-.158.433-.284.7-.442a.413.413,0,0,1,.333-.032.328.328,0,0,1,.167.284v.884c0,1.611.067,4.2.067,4.959v.032c0,.6-.033,1.263-.033,1.927-.033.663-.033,1.327-.033,1.927a.28.28,0,0,1-.167.253c-.366.221-.733.442-1.1.695-.566.348-1.133.727-1.632.979C231.566,265.826,231.5,265.826,231.433,265.826Zm.433-9.76c0,1.421-.033,2.874-.033,4.327,0,1.516-.033,3.064-.033,4.58.333-.19.7-.442,1.066-.663.3-.19.633-.411.966-.6,0-.569.033-1.169.033-1.769.033-.663.033-1.327.033-1.927-.033-.79-.067-3.38-.067-4.991h0v-.284c-.067.032-.1.063-.167.095-.433.284-.8.537-1.2.821l-.033.032Z" transform="translate(-231.1 -253.834)"/>
      </g>
      <g id="Group_3025" data-name="Group 3025" transform="translate(30.345 67.532)">
        <path id="Path_4220" data-name="Path 4220" class="cls-1" d="M235.031,252.953c-.7.474-1.3.853-1.932,1.3h0l-.7.442v-.6h0c.933-.695,2-1.327,3.064-1.99a.032.032,0,0,1,.033.032v6.57a.615.615,0,0,1-.3.126h-.1c-.033-.853-.067-3.411-.067-4.959Z" transform="translate(-232.1 -251.763)"/>
        <path id="Path_4221" data-name="Path 4221" class="cls-23" d="M234.5,258.383a.31.31,0,0,1-.233-.095.28.28,0,0,1-.1-.221c-.033-.758-.067-3.348-.067-4.959v-.284c-.067.032-.1.063-.167.095-.433.284-.8.537-1.2.821l-.033.032-.7.442a.316.316,0,0,1-.333,0,.329.329,0,0,1-.167-.284v-.6a.283.283,0,0,1,.133-.253c1-.726,2.065-1.39,3.064-1.99a.413.413,0,0,1,.333-.032c.033,0,.067.032.1.032a.283.283,0,0,1,.133.253v6.633a.281.281,0,0,1-.167.253,1.159,1.159,0,0,1-.466.158Zm.067-6.444Z" transform="translate(-231.5 -251.034)"/>
      </g>
      <g id="Group_3026" data-name="Group 3026" transform="translate(26.747 62.77)">
        <path id="Path_4222" data-name="Path 4222" class="cls-1" d="M221.9,239.053c.133-.316.067-1.39-.2-1.548a5.07,5.07,0,0,0,.2-.505h.033c.133.063.233.158.366.221.2.126.4.221.6.347.033.505.067,1.011.067,1.516v1.232h-.033a1.138,1.138,0,0,1-.933-.442l.067-.032v-.758a.314.314,0,0,0-.167-.032Z" transform="translate(-221.367 -236.671)"/>
        <path id="Path_4223" data-name="Path 4223" class="cls-24" d="M222.3,239.888h-.033a1.435,1.435,0,0,1-1.232-.632c-.033-.095-.067-.19-.033-.253a.109.109,0,0,1,.033-.063v-.316a.383.383,0,0,1-.133-.253.182.182,0,0,1,.033-.126,2.078,2.078,0,0,0-.1-1.2.284.284,0,0,1-.1-.379,2.679,2.679,0,0,0,.167-.474.249.249,0,0,1,.167-.19.371.371,0,0,1,.266-.032.258.258,0,0,1,.133.063,2.258,2.258,0,0,0,.366.221c.233.126.4.221.566.316a.32.32,0,0,1,.167.253c.033.474.067.979.067,1.548V239.6A.35.35,0,0,1,222.3,239.888Zm-.6-.821a.544.544,0,0,0,.233.126v-.853c0-.474-.033-.916-.067-1.327-.133-.063-.3-.158-.466-.253h0a2.714,2.714,0,0,1,.2,1.358.28.28,0,0,1,.1.221Z" transform="translate(-220.7 -235.959)"/>
      </g>
      <path id="Path_4224" data-name="Path 4224" class="cls-25" d="M218.4,225.221c0-.379.033-.79.033-1.169a2.9,2.9,0,0,0,1.4-.253,6.34,6.34,0,0,0,.067,1.137c-.033.032-.1.032-.133.063A3.639,3.639,0,0,1,218.4,225.221Z" transform="translate(-192.419 -164.871)"/>
      <path id="Path_4225" data-name="Path 4225" class="cls-26" d="M216.9,235.284l.433-.411V234.4c.167.063.3.158.433.221a.032.032,0,0,1,.033.032,3.525,3.525,0,0,0-.133.853h0l-.167.095Z" transform="translate(-191.419 -172.123)"/>
      <g id="Group_3027" data-name="Group 3027" transform="translate(18.674 92.143)">
        <path id="Path_4226" data-name="Path 4226" class="cls-1" d="M206.127,333.543a12.579,12.579,0,0,0-2.032.537v.032c-.966-.347-1.932-.663-2.931-.948a9.916,9.916,0,0,1-3.664-1.579,30,30,0,0,0,4.43-1.042,9.984,9.984,0,0,0,1.033-.442C203.129,331.427,204.728,332.974,206.127,333.543Z" transform="translate(-197.154 -329.737)"/>
        <path id="Path_4227" data-name="Path 4227" class="cls-27" d="M203.37,333.609a.127.127,0,0,1-.1-.032c-1-.347-1.965-.663-2.9-.916a9.777,9.777,0,0,1-3.8-1.674.293.293,0,0,1-.1-.316.318.318,0,0,1,.266-.221c.3-.063.6-.126.933-.19a21.256,21.256,0,0,0,3.464-.853A8.728,8.728,0,0,0,202.1,329a.261.261,0,0,1,.3,0,.28.28,0,0,1,.167.253c.167,1.263,1.732,2.716,3,3.222a.345.345,0,0,1,.2.316.305.305,0,0,1-.266.284c-.167.032-.366.095-.533.126a9.383,9.383,0,0,0-1.432.379A.261.261,0,0,1,203.37,333.609Zm-5.8-2.653a12.482,12.482,0,0,0,3,1.106c.9.253,1.832.537,2.8.884.366-.126.766-.221,1.132-.316a5.855,5.855,0,0,1-2.5-2.874c-.2.095-.433.19-.666.284a22.515,22.515,0,0,1-3.564.884A.444.444,0,0,0,197.574,330.956Z" transform="translate(-196.463 -328.95)"/>
      </g>
      <g id="Group_3028" data-name="Group 3028" transform="translate(25.015 59.856)">
        <path id="Path_4228" data-name="Path 4228" class="cls-1" d="M218.3,230.975a5.077,5.077,0,0,0,.2-.505h.033c.133.063.233.158.366.221,0-.505-.333-2.685-.333-3.19a2.535,2.535,0,0,1-1.332.221c0,.347-.033.695-.033.979,0,.347-.033.663-.033.948.167.063.3.158.433.221a.032.032,0,0,1,.033.032,3.524,3.524,0,0,0-.133.853h0l-.167.095-.6-.316c-.033.063-.1.095-.133.126a5.6,5.6,0,0,1,.033.884.79.79,0,0,0,.533.126c.167.253.433.569.733.474h0a.927.927,0,0,0,.633.379h0C218.632,232.238,218.565,231.164,218.3,230.975Z" transform="translate(-216.234 -227.258)"/>
        <path id="Path_4229" data-name="Path 4229" class="cls-28" d="M217.765,232.346h0a1.225,1.225,0,0,1-.8-.347,1.305,1.305,0,0,1-.766-.474,1.478,1.478,0,0,1-.566-.19.333.333,0,0,1-.1-.221c0-.537-.033-.758-.033-.853a.348.348,0,0,1,.1-.253l.133-.126a.369.369,0,0,1,.4-.063l.3.158a1.282,1.282,0,0,1,.067-.347.848.848,0,0,1-.233-.126.363.363,0,0,1-.2-.284c0-.284,0-.6.033-.948,0-.316.033-.632.033-.979a.283.283,0,0,1,.133-.253.269.269,0,0,1,.266-.063,2.387,2.387,0,0,0,1.1-.19l.067-.032a.339.339,0,0,1,.3.032.283.283,0,0,1,.133.253c0,.253.1.948.167,1.548a15.115,15.115,0,0,1,.167,1.643.328.328,0,0,1-.167.284.316.316,0,0,1-.333,0h0a2.492,2.492,0,0,1,.133,1.674c0,.063-.033.095-.1.126C217.932,232.314,217.865,232.346,217.765,232.346Zm-.633-1.011h.067a.385.385,0,0,1,.233.158l.1.095a1.915,1.915,0,0,0-.167-.884.284.284,0,0,1-.1-.379,2.678,2.678,0,0,0,.167-.474.248.248,0,0,1,.167-.19.314.314,0,0,1,.167-.032c-.033-.316-.067-.663-.133-1.011-.067-.442-.1-.884-.133-1.2a2.72,2.72,0,0,1-.7.126,4.43,4.43,0,0,1-.033.663,5.309,5.309,0,0,1-.033.758,1.179,1.179,0,0,1,.266.158s.033,0,.033.032a.312.312,0,0,1,.167.347,3.289,3.289,0,0,0-.133.758.25.25,0,0,1-.167.253l-.133.095a.374.374,0,0,1-.366.032l-.233-.126v.347c.067,0,.1.032.133,0a.342.342,0,0,1,.366.158.685.685,0,0,0,.333.316Z" transform="translate(-215.5 -226.734)"/>
      </g>
      <g id="Group_3029" data-name="Group 3029" transform="translate(25.048 63.855)">
        <path id="Path_4230" data-name="Path 4230" class="cls-1" d="M221.33,242.327c-.6-.316-1.232-.632-1.8-.948v1.232H219.5a1.138,1.138,0,0,1-.933-.442l.067-.032v-.758H218.5a.751.751,0,0,1-.633-.379h0c-.3.063-.566-.221-.733-.474a.79.79,0,0,1-.533-.126c.033.695.033,1.769,0,3,.4.221.833.411,1.266.632l.2.095c1.266.632,2.631,1.3,3.764,1.927h0c.933-.695,2-1.327,3.064-1.99C223.761,243.527,222.5,242.927,221.33,242.327Z" transform="translate(-216.267 -240.083)"/>
        <path id="Path_4231" data-name="Path 4231" class="cls-29" d="M221.163,245.715a.314.314,0,0,1-.167-.032c-.866-.474-1.9-.979-2.9-1.485l-1.066-.537c-.433-.221-.866-.442-1.266-.663a.328.328,0,0,1-.167-.284v-3a.277.277,0,0,1,.2-.284.316.316,0,0,1,.366.063.371.371,0,0,0,.266.032.342.342,0,0,1,.366.158.685.685,0,0,0,.333.316h.167a.386.386,0,0,1,.233.158.455.455,0,0,0,.366.221h.067a.269.269,0,0,1,.266.063.383.383,0,0,1,.133.253v.758a.545.545,0,0,0,.233.126v-.853a.328.328,0,0,1,.167-.284.316.316,0,0,1,.333,0c.5.284,1.1.569,1.765.916h0l2.1,1.042c.5.253,1,.505,1.5.727a.32.32,0,0,1,.167.253.372.372,0,0,1-.167.284c-1,.6-2.065,1.263-3.031,1.958l-.033.032A.374.374,0,0,1,221.163,245.715Zm-4.863-3.159a11,11,0,0,0,1.066.537l1.066.537c.933.474,1.9.948,2.731,1.39.8-.569,1.632-1.074,2.432-1.579-.333-.158-.666-.316-.966-.474l-2.1-1.042q-.7-.379-1.3-.663v.695a.307.307,0,0,1-.333.316h-.033a1.434,1.434,0,0,1-1.232-.632c-.033-.095-.067-.19-.033-.253a.109.109,0,0,1,.033-.063v-.284a.973.973,0,0,1-.6-.347,1.305,1.305,0,0,1-.766-.474h0C216.3,240.755,216.3,241.577,216.3,242.556Z" transform="translate(-215.6 -239.396)"/>
      </g>
      <g id="Group_3030" data-name="Group 3030" transform="translate(24.949 66.905)">
        <path id="Path_4232" data-name="Path 4232" class="cls-1" d="M221.563,252.653c-1.133-.632-2.5-1.263-3.764-1.927l-.2-.095c-.433-.221-.866-.442-1.266-.632,0,2.748-.067,6.507-.133,9.823.733.474,1.5.948,2.3,1.39,1,.6,2.032,1.169,3,1.706h.033c0-3.19.067-6.444.067-9.634a4.018,4.018,0,0,0-.033-.632Z" transform="translate(-215.9 -249.7)"/>
        <path id="Path_4233" data-name="Path 4233" class="cls-30" d="M220.9,262.585a1.514,1.514,0,0,1-.167-.032c-.5-.284-1.033-.6-1.566-.884-.466-.253-.933-.537-1.432-.821-.966-.569-1.665-.979-2.3-1.39a.282.282,0,0,1-.133-.253c.067-3.064.133-6.949.133-9.823a.328.328,0,0,1,.167-.284.316.316,0,0,1,.333,0c.4.221.833.411,1.232.632l1.066.537c1,.505,2.032,1.011,2.9,1.485a.032.032,0,0,1,.033.032.328.328,0,0,1,.167.284v.6c0,1.485-.033,3-.033,4.485-.033,1.674-.033,3.443-.033,5.149a.283.283,0,0,1-.133.253l-.033.032C221.029,262.553,220.963,262.585,220.9,262.585Zm-4.93-3.6c.6.379,1.232.79,2.132,1.3.466.284.933.537,1.4.821.366.221.733.411,1.1.632,0-1.548.033-3.1.033-4.612.033-1.516.033-3,.033-4.485v-.411c-.833-.442-1.8-.948-2.731-1.39l-1.066-.537c-.266-.126-.5-.253-.766-.379C216.066,252.6,216,256.141,215.966,258.984Z" transform="translate(-215.3 -249.05)"/>
      </g>
      <g id="Group_3031" data-name="Group 3031" transform="translate(18.348 38.966)">
        <path id="Path_4234" data-name="Path 4234" class="cls-1" d="M197.062,161.6c.633.095,1.232,1.327,1.6,2.179h0a32.87,32.87,0,0,1,.8,5.717v1.327c-.033-.032-.067-.063-.1-.063,0-.032-.033-.095-.033-.126a13.759,13.759,0,0,0-2.1-3.854c-.133-.758-.233-1.611-.366-2.369a17.224,17.224,0,0,1-.466-2.559h.033a2.868,2.868,0,0,0,.633-.253Z" transform="translate(-196.091 -161.284)"/>
        <path id="Path_4235" data-name="Path 4235" class="cls-31" d="M198.887,170.455a.491.491,0,0,1-.2-.063c-.033,0-.033-.032-.067-.032l-.033-.032a.259.259,0,0,1-.133-.19c0-.032,0-.032-.033-.063a14.236,14.236,0,0,0-2.065-3.79c-.033-.032-.033-.095-.067-.126-.067-.379-.133-.821-.2-1.232-.067-.379-.1-.79-.167-1.169-.033-.347-.133-.663-.2-1.011a5.246,5.246,0,0,1-.233-1.611.307.307,0,0,1,.233-.284h.033a3.225,3.225,0,0,0,.5-.19s.033,0,.033-.032a.443.443,0,0,1,.2-.032c.733.095,1.266,1.011,1.865,2.369,0,.032.033.063.033.095a33.782,33.782,0,0,1,.833,5.749v1.327a.328.328,0,0,1-.167.284A.314.314,0,0,1,198.887,170.455Zm-1.9-4.485a17.4,17.4,0,0,1,1.566,2.59,32.129,32.129,0,0,0-.8-5.338c-.5-1.169-.933-1.8-1.266-1.958a1.029,1.029,0,0,1-.333.126,5.426,5.426,0,0,0,.233,1.2,6.193,6.193,0,0,1,.233,1.074,11.079,11.079,0,0,1,.167,1.169C196.855,165.212,196.922,165.622,196.989,165.97Z" transform="translate(-195.484 -160.6)"/>
      </g>
      <g id="Group_3032" data-name="Group 3032" transform="translate(18.531 94.191)">
        <path id="Path_4236" data-name="Path 4236" class="cls-1" d="M197.106,337.416a3.737,3.737,0,0,1-.033-.916c.033,0,.033.032.067.032,1.6,1.137,6.362,3.064,7.261,2.748a8.561,8.561,0,0,1,1.832-.537,5.163,5.163,0,0,1,.033.632,8.211,8.211,0,0,1-2.332.6h0c-1-.063-4.064-.884-4.33-1.263-.3-.379-.8-1.421-1.2-.758A12.082,12.082,0,0,1,197.106,337.416Z" transform="translate(-196.717 -336.163)"/>
        <path id="Path_4237" data-name="Path 4237" class="cls-32" d="M203.218,339.593a.127.127,0,0,1-.1-.032c-.966-.095-4.1-.853-4.5-1.39a1.767,1.767,0,0,1-.2-.253,2.637,2.637,0,0,0-.433-.569.032.032,0,0,1-.033.032.376.376,0,0,1-.433.126c-.333-.126-1.232-.569-1.266-.569a.329.329,0,0,1-.167-.19,3.571,3.571,0,0,1-.033-1.042.278.278,0,0,1,.2-.253.413.413,0,0,1,.333.032l.067.032c1.7,1.232,6.3,2.938,6.928,2.716a8.567,8.567,0,0,1,1.9-.537.418.418,0,0,1,.266.063.316.316,0,0,1,.133.221,2.7,2.7,0,0,1,.033.695.307.307,0,0,1-.233.284c-.133.063-.3.095-.466.158a5.594,5.594,0,0,1-2,.474Zm-4.3-2.085c.033.032.033.063.067.095a1.34,1.34,0,0,0,.167.221,15.776,15.776,0,0,0,4.1,1.137h.067a5.9,5.9,0,0,0,1.7-.442c.067-.032.167-.063.233-.095v-.032a7.92,7.92,0,0,0-1.4.442C203.118,339.119,200.853,338.361,198.921,337.508Zm-2.2-1.042.866.411h0c-.333-.158-.633-.347-.9-.474C196.722,336.4,196.722,336.434,196.722,336.466Z" transform="translate(-196.034 -335.434)"/>
      </g>
      <g id="Group_3033" data-name="Group 3033" transform="translate(18.561 93.631)">
        <path id="Path_4238" data-name="Path 4238" class="cls-1" d="M197.189,334.632a9.917,9.917,0,0,0,3.664,1.579c.966.284,1.965.6,2.931.948v-.032c.633-.253,1.366-.347,2.032-.537a.492.492,0,0,0,.2.063c.067.284.133.537.167.758a9.838,9.838,0,0,0-1.832.537c-.866.316-5.663-1.611-7.261-2.748-.067-.126-.067-.253-.033-.6C197.123,334.663,197.156,334.632,197.189,334.632Z" transform="translate(-196.731 -334.304)"/>
        <path id="Path_4239" data-name="Path 4239" class="cls-33" d="M203.545,337.686c-1.566,0-5.9-1.9-7.228-2.843a.44.44,0,0,1-.1-.126.974.974,0,0,1-.033-.758.393.393,0,0,1,.266-.284h.067a.294.294,0,0,1,.3.095,9.615,9.615,0,0,0,3.531,1.516c.9.253,1.832.537,2.8.884a11.014,11.014,0,0,1,1.466-.379,3.263,3.263,0,0,0,.533-.126.23.23,0,0,1,.2.032c.067.032.1.032.167.063h.033a.34.34,0,0,1,.2.221c.067.284.133.537.167.79a.315.315,0,0,1-.266.347,10.9,10.9,0,0,0-1.765.505A.573.573,0,0,1,203.545,337.686Zm-4.9-2.243c2,.948,4.53,1.8,5,1.611a9.677,9.677,0,0,1,1.566-.474.713.713,0,0,0-.067-.253l-.4.095a9.377,9.377,0,0,0-1.432.379.339.339,0,0,1-.3.032c-1-.348-1.965-.663-2.9-.916C199.647,335.759,199.148,335.6,198.648,335.443Z" transform="translate(-196.125 -333.663)"/>
      </g>
      <g id="Group_3034" data-name="Group 3034" transform="translate(17.007 36.45)">
        <path id="Path_4240" data-name="Path 4240" class="cls-1" d="M193.832,156.448a12.584,12.584,0,0,0-1.366-.948H192.4c.167-.6.3-1.232.5-1.8a10.429,10.429,0,0,1,1.5,1.169,9.141,9.141,0,0,0-.033,1.358h0C194.2,156.29,194.032,156.385,193.832,156.448Z" transform="translate(-192.086 -153.363)"/>
        <path id="Path_4241" data-name="Path 4241" class="cls-34" d="M193.2,156.035a.37.37,0,0,1-.233-.095,9.4,9.4,0,0,0-1.266-.884h0c-.1-.032-.167-.063-.2-.158a.321.321,0,0,1-.033-.253,3.164,3.164,0,0,0,.133-.537c.1-.411.233-.853.366-1.263a.293.293,0,0,1,.2-.19.339.339,0,0,1,.3.032,15.117,15.117,0,0,1,1.566,1.2.309.309,0,0,1,.1.284,5.618,5.618,0,0,0-.033,1.074v.221a.294.294,0,0,1-.167.284,4.85,4.85,0,0,1-.6.253C193.271,156,193.238,156.035,193.2,156.035Zm-1.033-1.453c.3.19.766.505,1.1.758.033-.032.1-.032.133-.063v-.032a9.932,9.932,0,0,1,.033-1.011c-.3-.253-.633-.537-.966-.79-.067.284-.167.537-.233.821A1.327,1.327,0,0,1,192.172,154.582Z" transform="translate(-191.459 -152.634)"/>
      </g>
      <path id="Path_4242" data-name="Path 4242" class="cls-35" d="M197.2,117.095l.2-.095C197.333,117.032,197.267,117.095,197.2,117.095Z" transform="translate(-178.28 -91.806)"/>
      <g id="Group_3035" data-name="Group 3035" transform="translate(17.542 35.231)">
        <path id="Path_4243" data-name="Path 4243" class="cls-1" d="M194.033,151.006a2.017,2.017,0,0,0,.933-1.106h0a7.74,7.74,0,0,1,1.133,2.337c-.1.126-.167.221-.233.316-.133-.095-.233-.221-.366-.316a10.431,10.431,0,0,0-1.5-1.169C194,151.037,194,151.006,194.033,151.006Z" transform="translate(-193.688 -149.544)"/>
        <path id="Path_4244" data-name="Path 4244" class="cls-36" d="M195.241,152.1a.31.31,0,0,1-.233-.095l-.366-.316a10.007,10.007,0,0,0-1.432-1.137.293.293,0,0,1-.133-.347c0-.032.033-.095.033-.126a.319.319,0,0,1,.133-.158,1.789,1.789,0,0,0,.8-.948.288.288,0,0,1,.266-.19.347.347,0,0,1,.3.095l.033.032a9.514,9.514,0,0,1,1.2,2.432.309.309,0,0,1-.067.284l-.067.095a.962.962,0,0,0-.167.221.358.358,0,0,1-.3.158Zm-1.332-1.832a10.59,10.59,0,0,1,1.1.884,8.042,8.042,0,0,0-.666-1.39A2.088,2.088,0,0,1,193.909,150.266Z" transform="translate(-193.064 -148.773)"/>
      </g>
      <g id="Group_3036" data-name="Group 3036" transform="translate(12.558 36.395)">
        <path id="Path_4245" data-name="Path 4245" class="cls-1" d="M181,155.669h0c-.7-.632-1.4-1.263-2-1.927v-.126c.6.821,2.332.411,3.2.253.067-.032.167-.032.233-.063a5.2,5.2,0,0,0,1.6-.505.109.109,0,0,1-.033.063c-.2.569-.333,1.2-.5,1.8a7.857,7.857,0,0,1-.266.821A3.97,3.97,0,0,1,181,155.669Z" transform="translate(-178.7 -153.035)"/>
        <path id="Path_4246" data-name="Path 4246" class="cls-37" d="M182.2,155.758a4.459,4.459,0,0,1-1.932-.347c-.033,0-.067-.032-.1-.063a22.7,22.7,0,0,1-2-1.958c-.033-.063-.067-.095-.067-.158V153.1a.381.381,0,0,1,.233-.316.325.325,0,0,1,.366.126c.433.6,1.965.316,2.7.158l.266-.063c.033,0,.1-.032.133-.032a4.524,4.524,0,0,0,1.5-.474.37.37,0,0,1,.4.032.4.4,0,0,1,.1.379v.032c-.133.379-.233.821-.366,1.232a2.565,2.565,0,0,1-.167.537,8.446,8.446,0,0,1-.266.821.366.366,0,0,1-.3.221Zm-1.632-.916a.032.032,0,0,1,.033.032,3.656,3.656,0,0,0,1.765.253c.067-.19.1-.379.167-.6a4.123,4.123,0,0,0,.133-.537,4.836,4.836,0,0,0,.167-.663c-.3.095-.633.158-1,.253-.033,0-.1.032-.133.032l-.266.063a7.66,7.66,0,0,1-1.965.19C179.832,154.179,180.2,154.526,180.565,154.842Z" transform="translate(-178.1 -152.461)"/>
      </g>
      <path id="Path_4247" data-name="Path 4247" class="cls-38" d="M178.267,140a2.383,2.383,0,0,0,.233.505,3.453,3.453,0,0,1-.3-.442C178.233,140.032,178.233,140,178.267,140Z" transform="translate(-165.609 -107.541)"/>
      <g id="Group_3037" data-name="Group 3037" transform="translate(12.158 32.175)">
        <path id="Path_4248" data-name="Path 4248" class="cls-1" d="M184.4,142.032a3.56,3.56,0,0,1-.466.126,1.713,1.713,0,0,1-1.166.158,1.218,1.218,0,0,1-.3-.126h-.033c-.233-.063-.5-.095-.733-.158a13.522,13.522,0,0,1-1.432-.347h-.033a3.65,3.65,0,0,1-1.4-.726c-.1-.095-.167-.19-.266-.284v-.032a3.455,3.455,0,0,1-.3-.442c-.033.032-.033.063-.067.095a7.9,7.9,0,0,0,.067.884c.067.474.133.916.167,1.39v.126c.033.663,0,1.358.1,2.022.6.821,2.332.411,3.2.253.067-.032.167-.032.233-.063a5.2,5.2,0,0,0,1.6-.505,2.017,2.017,0,0,0,.933-1.106h0A2.787,2.787,0,0,1,184.4,142.032Z" transform="translate(-177.767 -139.853)"/>
        <path id="Path_4249" data-name="Path 4249" class="cls-39" d="M178.965,144.722a2.024,2.024,0,0,1-1.665-.632.235.235,0,0,1-.067-.158c-.033-.411-.067-.821-.067-1.232a6.266,6.266,0,0,0-.033-.79v-.126l-.1-.948c-.033-.126-.033-.284-.067-.411a7.427,7.427,0,0,1-.067-.916.333.333,0,0,1,.1-.221c0-.032.033-.032.033-.063a.332.332,0,0,1,.3-.126.3.3,0,0,1,.266.158,4.643,4.643,0,0,0,.266.411h0v.032a1.61,1.61,0,0,0,.233.253,3.1,3.1,0,0,0,1.066.569l.233.095h.033a9.737,9.737,0,0,0,1.033.284,1.255,1.255,0,0,0,.366.063c.167.032.3.063.466.095.1.032.2.032.3.063h.067l.333.126a1.294,1.294,0,0,0,.733-.126.5.5,0,0,1,.233-.063l.3-.095.167-.032a.333.333,0,0,1,.3.063.248.248,0,0,1,.1.284,6.661,6.661,0,0,0,.033,1.137v.032a.182.182,0,0,1-.033.126,2.425,2.425,0,0,1-1.066,1.263,6.517,6.517,0,0,1-1.7.569c-.033,0-.1.032-.133.032l-.266.063A8.8,8.8,0,0,1,178.965,144.722Zm-1.066-.948c.5.505,1.932.253,2.631.095l.266-.063c.033,0,.1-.032.133-.032a4.524,4.524,0,0,0,1.5-.474,1.6,1.6,0,0,0,.766-.884c-.033-.253-.033-.505-.067-.758H183.1c-.067.032-.133.032-.2.063a1.724,1.724,0,0,1-1.2.095l-.333-.126h0c-.1-.032-.167-.032-.266-.063a1.989,1.989,0,0,1-.466-.126c-.1-.032-.2-.032-.333-.063a5.605,5.605,0,0,1-1.132-.316h-.033l-.233-.095a3.469,3.469,0,0,1-1.3-.695c0,.126.033.221.033.347a9.756,9.756,0,0,1,.1.979v.126c0,.253.033.537.033.821A8.841,8.841,0,0,1,177.9,143.775Z" transform="translate(-176.9 -139.1)"/>
      </g>
      <path id="Path_4250" data-name="Path 4250" class="cls-40" d="M176.166,156.332a10.162,10.162,0,0,1-.666-2.432A12.58,12.58,0,0,0,176.166,156.332Z" transform="translate(-163.809 -117.05)"/>
      <g id="Group_3038" data-name="Group 3038" transform="translate(11.87 99.177)">
        <path id="Path_4251" data-name="Path 4251" class="cls-1" d="M182.43,354.3a10.17,10.17,0,0,1-3.064.632,4.435,4.435,0,0,1-1.7-1.737c-.1-.158-.167-.284-.233-.411h0c-.067-.126-.167-.253-.233-.379a7.083,7.083,0,0,0,1.932,3.159,5.449,5.449,0,0,0,3.464-.411h.067C182.563,354.832,182.5,354.579,182.43,354.3Z" transform="translate(-176.812 -352.028)"/>
        <path id="Path_4252" data-name="Path 4252" class="cls-41" d="M179.322,355.163a3.267,3.267,0,0,1-1.133-.158c-.033,0-.067-.032-.1-.063a7.5,7.5,0,0,1-2.032-3.317.3.3,0,0,1,.167-.379.376.376,0,0,1,.433.126,2.328,2.328,0,0,1,.233.379h0a.032.032,0,0,0,.033.032,1.477,1.477,0,0,0,.233.379,4.7,4.7,0,0,0,1.5,1.611,10.954,10.954,0,0,0,2.9-.6.383.383,0,0,1,.266,0c.1.032.133.126.167.19a5.057,5.057,0,0,1,.2.853.365.365,0,0,1-.067.253.342.342,0,0,1-.233.126h0A5.747,5.747,0,0,1,179.322,355.163Zm-.833-.726a5.008,5.008,0,0,0,3-.348c0-.063-.033-.126-.033-.19a9.968,9.968,0,0,1-2.865.537.209.209,0,0,1-.133-.032h0A.032.032,0,0,0,178.489,354.437Z" transform="translate(-176.036 -351.222)"/>
      </g>
      <g id="Group_3039" data-name="Group 3039" transform="translate(11.225 95.581)">
        <path id="Path_4253" data-name="Path 4253" class="cls-1" d="M179.264,346.07a10.546,10.546,0,0,0,1.665-.379c-.2-.632-.433-1.3-.633-2.021a12.683,12.683,0,0,1-.433-2.969,4.61,4.61,0,0,1-.8.284,8.771,8.771,0,0,1-1.665.347,7.525,7.525,0,0,1-2.2-.095,9.14,9.14,0,0,0,.333,1.99,12.142,12.142,0,0,0,2.1,2.59C178.1,346.354,178.5,346.228,179.264,346.07Z" transform="translate(-174.834 -340.427)"/>
        <path id="Path_4254" data-name="Path 4254" class="cls-42" d="M177.631,345.92a1.415,1.415,0,0,1-1.033-.442,12.906,12.906,0,0,1-2.132-2.653c0-.032-.033-.032-.033-.063a12.4,12.4,0,0,1-.333-2.053.348.348,0,0,1,.1-.253.333.333,0,0,1,.3-.063,6.976,6.976,0,0,0,2.1.095,7.848,7.848,0,0,0,1.6-.347c.266-.095.533-.189.733-.284a.327.327,0,0,1,.3.032c.067.063.167.158.167.253a11.334,11.334,0,0,0,.433,2.874c.133.474.3.979.433,1.421l.2.569a.291.291,0,0,1-.2.379,6.485,6.485,0,0,1-1.3.316,1.753,1.753,0,0,1-.4.063h0l-.2.032A1.991,1.991,0,0,1,177.631,345.92Zm-2.565-3.348a13.422,13.422,0,0,0,2,2.5c.3.316.5.284,1.133.158l.2-.032.4-.095.9-.19-.1-.284c-.167-.474-.333-.948-.466-1.453a12.875,12.875,0,0,1-.433-2.559c-.133.032-.233.095-.366.126a12.618,12.618,0,0,1-1.732.379,7.4,7.4,0,0,1-1.865-.032C174.866,341.529,174.933,342.034,175.066,342.572Z" transform="translate(-174.1 -339.834)"/>
      </g>
      <g id="Group_3040" data-name="Group 3040" transform="translate(10.511 24.778)">
        <path id="Path_4255" data-name="Path 4255" class="cls-1" d="M182.723,120.917a1.169,1.169,0,0,0-.2-.411c-.067-.126-.167-.221-.233-.347a1.19,1.19,0,0,1-.366-.758.357.357,0,0,1,.133-.316,14.056,14.056,0,0,1-.7-2.085h-.033l-.2.095h0c-.333.19-.633.379-.966.569a10.988,10.988,0,0,1-2.5,1.106,23.214,23.214,0,0,1-2.531.758,6.522,6.522,0,0,1-1.132.126v.032c0,.032.033.063.067.095a17.324,17.324,0,0,1,.9,1.927.032.032,0,0,0,.033.032c.233.537.666,1.137.9,1.611a4.465,4.465,0,0,1-.666.379,5.125,5.125,0,0,1-.366-.537,2.969,2.969,0,0,0-.333-.537c-.266-.158-.466-.411-.733-.537-.633-.316-.733.221-.6.695.133-.632,1.066.474,1.2.663a8.013,8.013,0,0,1,.466.916c0-.032.033-.032.033-.063a2.384,2.384,0,0,0,.233.505v.032a2.082,2.082,0,0,0,.266.284,3.906,3.906,0,0,0,1.4.726h.033a7.264,7.264,0,0,0,1.432.347,6.071,6.071,0,0,0,.733.158h.033c.1.032.2.095.3.126a2.105,2.105,0,0,0,1.166-.158c.133-.032.3-.095.466-.126l.3-.095a1.912,1.912,0,0,0,1.166-.726,20.507,20.507,0,0,0,.266-2.874A4.4,4.4,0,0,0,182.723,120.917Z" transform="translate(-172.749 -116.583)"/>
        <path id="Path_4256" data-name="Path 4256" class="cls-43" d="M178.865,125.921a1.756,1.756,0,0,1-.4-.063l-.333-.126h0c-.1-.032-.167-.032-.266-.063a1.989,1.989,0,0,1-.466-.126c-.1-.032-.2-.032-.333-.063a5.605,5.605,0,0,1-1.133-.316H175.9l-.233-.095a3.469,3.469,0,0,1-1.3-.695c-.133-.126-.2-.221-.3-.316a.032.032,0,0,0-.033-.032,1.675,1.675,0,0,1-.233-.411l-.1-.095c-.067-.126-.1-.221-.167-.347a2.843,2.843,0,0,0-.3-.537A2.921,2.921,0,0,0,172.6,122a.42.42,0,0,1-.266.126h0a.33.33,0,0,1-.333-.221c-.033-.158-.167-.758.233-1.042a.753.753,0,0,1,.866,0,4.878,4.878,0,0,1,.433.316,1.822,1.822,0,0,0,.3.221c.033.032.1.063.1.095a5.041,5.041,0,0,1,.333.569c0,.032.033.063.067.126s.067.095.1.158c.033,0,.033-.032.067-.032s.067-.032.1-.032c-.067-.126-.167-.253-.233-.411a9.347,9.347,0,0,1-.533-.979l-.033-.063c-.1-.19-.167-.379-.266-.569a9.4,9.4,0,0,0-.633-1.3l-.033-.032c0-.032-.033-.032-.033-.063-.033-.032-.033-.095-.033-.158a.352.352,0,0,1,.333-.347,4.455,4.455,0,0,0,1.066-.126,15.806,15.806,0,0,0,2-.569,3.043,3.043,0,0,1,.5-.158,12.017,12.017,0,0,0,2.432-1.074c.133-.063.233-.158.366-.221.2-.126.4-.253.633-.379.033,0,.033-.032.067-.032s.067-.032.1-.063c.033,0,.033-.032.067-.032s.067-.032.1-.032a.307.307,0,0,1,.366.221c.033.158.1.284.133.442a11.181,11.181,0,0,0,.566,1.579.278.278,0,0,1-.067.347.112.112,0,0,0-.033.095.84.84,0,0,0,.266.537c.033.032.033.032.033.063l.067.095c.067.095.1.158.167.253a2.181,2.181,0,0,1,.233.505h0a4.024,4.024,0,0,1,.033,1.263c0,.126-.033.253-.033.379,0,.221-.033.474-.033.695a12.506,12.506,0,0,1-.233,2.243c0,.032,0,.063-.033.063a2.308,2.308,0,0,1-1.366.916l-.5.126-.3.095c-.067.032-.133.032-.2.063A.9.9,0,0,1,178.865,125.921Zm-4.264-2.243h0c.067.095.167.19.233.284a3.1,3.1,0,0,0,1.066.569l.233.095h.033a9.734,9.734,0,0,0,1.033.284,1.256,1.256,0,0,0,.366.063c.167.032.3.063.466.095.1.032.2.032.3.063h.067l.333.126a1.293,1.293,0,0,0,.733-.126.5.5,0,0,1,.233-.063l.3-.095.466-.126a1.659,1.659,0,0,0,.933-.537,14.3,14.3,0,0,0,.2-2.116c0-.221.033-.474.033-.695a1.844,1.844,0,0,1,.033-.411,2.726,2.726,0,0,0-.033-1.042,1.062,1.062,0,0,0-.167-.347.962.962,0,0,0-.167-.221l-.033-.063a1.588,1.588,0,0,1-.433-.948,1.083,1.083,0,0,1,.067-.347,11.75,11.75,0,0,1-.533-1.516c0-.032,0-.032-.033-.063a3.076,3.076,0,0,1-.433.253c-.133.063-.233.158-.366.221a11.672,11.672,0,0,1-2.565,1.137c-.167.063-.333.095-.5.158a14.529,14.529,0,0,1-2.1.6c-.233.032-.433.063-.666.095.167.347.333.695.466,1.011a4.364,4.364,0,0,0,.266.569.109.109,0,0,0,.033.063c.133.253.3.569.5.884.133.253.266.474.4.695a.323.323,0,0,1-.067.379,1.543,1.543,0,0,1-.433.253,2.023,2.023,0,0,0-.266.126.413.413,0,0,1-.333.032.29.29,0,0,1,.133.19A.909.909,0,0,0,174.6,123.678Z" transform="translate(-171.956 -115.681)"/>
      </g>
      <path id="Path_4257" data-name="Path 4257" class="cls-44" d="M185.178,161.347c-.366-.126-.733-.253-1.1-.347-1.2-.379-2.465-.79-3.7-1.2a22.373,22.373,0,0,1-.233-4.2,40.822,40.822,0,0,0-.533-6.981,35.742,35.742,0,0,0-1.4-4.8c-.233-1.042-.733-1.99-1.8-2.116a21.934,21.934,0,0,0-4.2,1.516c-.067-.063-.133-.158-.2-.221l-.3.095a5.128,5.128,0,0,0,.033,1.232h0a7.741,7.741,0,0,1,1.132,2.337c-.1.126-.167.221-.233.316-.133-.095-.233-.221-.366-.316a9.143,9.143,0,0,0-.033,1.358h.033c.633.095,1.232,1.327,1.6,2.179h0a32.865,32.865,0,0,1,.8,5.717v1.327c-.033-.032-.067-.063-.1-.063,0-.032-.033-.095-.033-.126a13.758,13.758,0,0,0-2.1-3.854c-.666-.948-1.4-1.864-2.032-2.685a20.817,20.817,0,0,0-2.631-2.716,18.512,18.512,0,0,1-1.965-1.958v-.126c-.067-.663-.033-1.327-.1-2.022v-.126h-.033a6.5,6.5,0,0,1-.5.948c-.167.158-.4.442-.533.6v.284l-.133.126c-1.1.6-2.132,1.358-3.164,2.022a2.932,2.932,0,0,0-1.2.916,3.319,3.319,0,0,0-.9,2.369,4.036,4.036,0,0,0,.566,2.653c.433,1.358,1.166,3.759,2.165,6.6a23.593,23.593,0,0,0,.966,2.369,81.6,81.6,0,0,1-1.1,11.656,10.988,10.988,0,0,0,1.332.758c-.466,2.5.4,11.813.8,14.846a58.405,58.405,0,0,0-.833,8.149c0,2.148.633,4.422.7,7.012l-.033.032a1.838,1.838,0,0,0,.633.19.127.127,0,0,1,.1.032,7.522,7.522,0,0,0,2.2.095,11.234,11.234,0,0,0,1.665-.347l.8-.284a5.787,5.787,0,0,0,.766-.411h0c0-4.2.6-6.791,1.066-10.992.1-.979.2-1.99.333-2.969-.033,3.822.167,11.5.1,12.6.133-.032.3-.063.433-.095h.067a30,30,0,0,0,4.43-1.042,9.985,9.985,0,0,0,1.033-.442l.2-.095c-.067-2.653.5-5.243.5-7.865,0-.6.067-3.79.133-7.518.067-3.317.133-7.075.133-9.823v-3c0-.411-.033-.726-.033-.884l.133-.126.433-.411v-.474c0-.284,0-.6.033-.948,0-.316.033-.632.033-.979,0-.379.033-.79.033-1.169a2.9,2.9,0,0,0,1.4-.253.885.885,0,0,0,.266-.221c0-.853-.1-1.706-.1-2.653,1.9.474,3.5.821,3.8.853a.837.837,0,0,1-.1-.411,8.174,8.174,0,0,1,.833-3.569A.365.365,0,0,1,185.178,161.347Zm-19.852-13.361a10.16,10.16,0,0,1-.666-2.432A12.577,12.577,0,0,0,165.326,147.986Z" transform="translate(-152.968 -108.704)"/>
      <path id="Path_4258" data-name="Path 4258" class="cls-45" d="M176.858,112.049a4.465,4.465,0,0,0-.433-1.327,3.39,3.39,0,0,0-.2-.347,10.681,10.681,0,0,0-1.3-1.642,9.1,9.1,0,0,0-3.164-.537,8.137,8.137,0,0,0-4.363,1.453c-.233.158-.466.347-.733.537a3.624,3.624,0,0,0-.7.727,8.532,8.532,0,0,0-.633,1.074c0,.032,0,.032-.033.063h0a9.327,9.327,0,0,0,.266,2.337,4.039,4.039,0,0,0,.167.6,5.251,5.251,0,0,0,.233.663h0c.7.853,1.665,1.611,2.432,2.4.4.411.833.79,1.2,1.169a7.9,7.9,0,0,1-.067-.884c-.267.284-.433.063-.7-.316a4.055,4.055,0,0,1-.866-1.3v-.032c-.1-.442-.033-.979.6-.695.266.158.466.411.733.537a4.7,4.7,0,0,1,.333.537,3.118,3.118,0,0,0,.366.537,4.468,4.468,0,0,0,.666-.379c-.233-.474-.633-1.074-.9-1.611a.031.031,0,0,0-.033-.032,20.463,20.463,0,0,0-.9-1.927c0-.032-.033-.063-.067-.095v-.032a6.906,6.906,0,0,0,1.133-.126,17.849,17.849,0,0,0,2.531-.758,13.492,13.492,0,0,0,2.5-1.106c.333-.19.633-.411.966-.569h0l.2-.095h.033a14.057,14.057,0,0,0,.7,2.085.44.44,0,0,0-.133.316,1.049,1.049,0,0,0,.366.758,3.322,3.322,0,0,1,.233.347A12.723,12.723,0,0,1,176.858,112.049Z" transform="translate(-157.006 -85.78)"/>
      <g id="Group_3041" data-name="Group 3041" transform="translate(17.973 26.955)">
        <path id="Path_4259" data-name="Path 4259" class="cls-1" d="M197,123.5c-.067.063-1.5.695-1.5.695l.233.347Z" transform="translate(-195.12 -123.208)"/>
        <path id="Path_4260" data-name="Path 4260" class="cls-46" d="M194.939,124.257h-.067a.25.25,0,0,1-.233-.158l-.233-.347a.321.321,0,0,1-.033-.253.329.329,0,0,1,.167-.19c.6-.284,1.3-.569,1.432-.663a.364.364,0,0,1,.433,0,.287.287,0,0,1,.033.411l-.033.032-1.266,1.074A.2.2,0,0,1,194.939,124.257Z" transform="translate(-194.359 -122.575)"/>
      </g>
      <g id="Group_3042" data-name="Group 3042" transform="translate(13.911 28.156)">
        <path id="Path_4261" data-name="Path 4261" class="cls-1" d="M186.031,127.811l-.233-.411-2.465.632-.133.379.266-.221Z" transform="translate(-182.855 -127.076)"/>
        <path id="Path_4262" data-name="Path 4262" class="cls-47" d="M182.509,128.025a.491.491,0,0,1-.2-.063.336.336,0,0,1-.133-.379l.133-.379a.347.347,0,0,1,.233-.19l2.432-.632a.342.342,0,0,1,.366.158l.266.411a.227.227,0,0,1,0,.284.343.343,0,0,1-.266.19l-2.465.347-.2.158C182.676,127.993,182.576,128.025,182.509,128.025Z" transform="translate(-182.164 -126.375)"/>
      </g>
      <g id="Group_3043" data-name="Group 3043" transform="translate(18.145 30.602)">
        <path id="Path_4263" data-name="Path 4263" class="cls-1" d="M195.9,135.712a4.786,4.786,0,0,1,.933-.537.286.286,0,0,1,.333.158.886.886,0,0,1-.533.411A1.37,1.37,0,0,1,195.9,135.712Z" transform="translate(-195.558 -134.835)"/>
        <path id="Path_4264" data-name="Path 4264" class="cls-48" d="M195.615,135.378a1.243,1.243,0,0,1-.533-.095.278.278,0,0,1-.2-.253.25.25,0,0,1,.133-.284,4.835,4.835,0,0,1,1.033-.6.643.643,0,0,1,.733.316.288.288,0,0,1,0,.284,1.247,1.247,0,0,1-.733.569A2.41,2.41,0,0,1,195.615,135.378Z" transform="translate(-194.874 -134.121)"/>
      </g>
    </g>
  </g>
</svg>
