<svg xmlns="http://www.w3.org/2000/svg" xmlns:xlink="http://www.w3.org/1999/xlink" viewBox="8809.67 1530.323 76.27 122.382">
  <defs>
    <style>
      .cls-1, .cls-6 {
        fill: #fff;
      }

      .cls-1 {
        opacity: 0.51;
      }

      .cls-2 {
        fill: url(#linear-gradient);
      }

      .cls-3 {
        fill: url(#linear-gradient-2);
      }

      .cls-4 {
        fill: url(#linear-gradient-3);
      }

      .cls-5 {
        opacity: 0.3;
        fill: url(#linear-gradient-6);
      }

      .cls-7 {
        fill: url(#linear-gradient-7);
      }

      .cls-8 {
        fill: url(#linear-gradient-9);
      }

      .cls-9 {
        fill: url(#linear-gradient-11);
      }

      .cls-10 {
        fill: url(#linear-gradient-12);
      }

      .cls-11 {
        fill: url(#linear-gradient-13);
      }

      .cls-12 {
        fill: url(#linear-gradient-14);
      }

      .cls-13 {
        fill: url(#linear-gradient-15);
      }

      .cls-14 {
        fill: url(#linear-gradient-16);
      }

      .cls-15 {
        fill: url(#linear-gradient-17);
      }

      .cls-16 {
        fill: url(#linear-gradient-18);
      }

      .cls-17 {
        fill: url(#linear-gradient-19);
      }

      .cls-18 {
        fill: url(#linear-gradient-20);
      }

      .cls-19 {
        fill: url(#linear-gradient-21);
      }

      .cls-20 {
        fill: url(#linear-gradient-22);
      }

      .cls-21 {
        fill: url(#linear-gradient-23);
      }

      .cls-22 {
        fill: url(#linear-gradient-24);
      }

      .cls-23 {
        fill: url(#linear-gradient-25);
      }

      .cls-24 {
        fill: url(#linear-gradient-26);
      }
    </style>
    <linearGradient id="linear-gradient" y1="0.5" x2="1" y2="0.5" gradientUnits="objectBoundingBox">
      <stop offset="0" stop-color="#3e77bc"/>
      <stop offset="0.05" stop-color="#407bbf"/>
      <stop offset="0.37" stop-color="#4a8fcd"/>
      <stop offset="0.68" stop-color="#509bd5"/>
      <stop offset="1" stop-color="#529fd8"/>
    </linearGradient>
    <linearGradient id="linear-gradient-2" x1="0" y1="0.5" x2="1" y2="0.5" xlink:href="#linear-gradient"/>
    <linearGradient id="linear-gradient-3" y1="0.5" x2="1" y2="0.5" gradientUnits="objectBoundingBox">
      <stop offset="0" stop-color="#3e77bc"/>
      <stop offset="1" stop-color="#529fd8"/>
    </linearGradient>
    <linearGradient id="linear-gradient-6" x1="-0.233" y1="0.198" x2="0.624" y2="0.78" gradientUnits="objectBoundingBox">
      <stop offset="0" stop-color="#231f20"/>
      <stop offset="0.61" stop-color="#231f20" stop-opacity="0.29"/>
      <stop offset="1" stop-color="#231f20" stop-opacity="0"/>
    </linearGradient>
    <linearGradient id="linear-gradient-7" x1="0.002" y1="0.499" x2="1.002" y2="0.499" xlink:href="#linear-gradient"/>
    <linearGradient id="linear-gradient-9" x1="0.002" y1="0.5" x2="1.003" y2="0.5" xlink:href="#linear-gradient"/>
    <linearGradient id="linear-gradient-11" x1="-0.002" y1="0.5" y2="0.5" xlink:href="#linear-gradient-3"/>
    <linearGradient id="linear-gradient-12" x1="-0.001" y1="0.499" y2="0.499" xlink:href="#linear-gradient-3"/>
    <linearGradient id="linear-gradient-13" x1="0.001" y1="0.5" x2="1.001" y2="0.5" xlink:href="#linear-gradient-3"/>
    <linearGradient id="linear-gradient-14" x1="0" y1="0.5" x2="0.999" y2="0.5" xlink:href="#linear-gradient-3"/>
    <linearGradient id="linear-gradient-15" x1="-0.003" y1="0.501" x2="0.997" y2="0.501" xlink:href="#linear-gradient-3"/>
    <linearGradient id="linear-gradient-16" x1="0.005" y1="0.5" x2="1.002" y2="0.5" xlink:href="#linear-gradient-3"/>
    <linearGradient id="linear-gradient-17" x1="0.002" y1="0.5" x2="1.002" y2="0.5" xlink:href="#linear-gradient-3"/>
    <linearGradient id="linear-gradient-18" x1="0" y1="0.5" y2="0.5" xlink:href="#linear-gradient-3"/>
    <linearGradient id="linear-gradient-19" x1="0.001" y1="0.5" y2="0.5" xlink:href="#linear-gradient-3"/>
    <linearGradient id="linear-gradient-20" x1="0" y1="0.5" x2="0.997" y2="0.5" xlink:href="#linear-gradient-3"/>
    <linearGradient id="linear-gradient-21" x1="0.002" y1="0.5" y2="0.5" xlink:href="#linear-gradient-3"/>
    <linearGradient id="linear-gradient-22" x1="0" y1="0.499" y2="0.499" xlink:href="#linear-gradient-3"/>
    <linearGradient id="linear-gradient-23" x1="0" y1="0.5" y2="0.5" xlink:href="#linear-gradient-3"/>
    <linearGradient id="linear-gradient-24" x1="0" y1="0.501" y2="0.501" xlink:href="#linear-gradient-3"/>
    <linearGradient id="linear-gradient-25" x1="0" y1="0.5" y2="0.5" xlink:href="#linear-gradient-3"/>
    <linearGradient id="linear-gradient-26" x1="0" y1="0.5" y2="0.5" xlink:href="#linear-gradient-3"/>
  </defs>
  <g id="icon_14" data-name="icon 14" transform="translate(8817.01 1534.002)">
    <g id="DESIGNED_BY_FREEPIK" data-name="DESIGNED BY FREEPIK" transform="translate(-0.01 -0.002)">
      <path id="Path_3676" data-name="Path 3676" class="cls-1" d="M217.127,285.819l13.54-7.869-.137,40.118-13.54,7.869Z" transform="translate(-161.978 -207.486)"/>
      <path id="Path_3677" data-name="Path 3677" class="cls-2" d="M330.184,341.851a.251.251,0,0,1-.254-.254l.137-40.118a.254.254,0,0,1,.124-.221l13.54-7.859a.254.254,0,0,1,.38.218l-.137,40.121a.253.253,0,0,1-.127.218l-13.54,7.859A.236.236,0,0,1,330.184,341.851Zm.39-40.212-.137,39.53,13.033-7.588.134-39.533Z" transform="translate(-275.171 -223.146)"/>
      <path id="Path_3678" data-name="Path 3678" class="cls-1" d="M55.893,215.9l-.137,40.118L1,224.408l.137-40.118Z" transform="translate(-0.744 -137.57)"/>
      <path id="Path_3679" data-name="Path 3679" class="cls-3" d="M168.942,271.905a.253.253,0,0,1-.127-.033l-54.759-31.613a.253.253,0,0,1-.127-.221l.137-40.118a.254.254,0,0,1,.38-.221l54.766,31.613a.254.254,0,0,1,.127.221l-.137,40.118a.254.254,0,0,1-.254.254Zm-54.505-32.013,54.252,31.321.137-39.52-54.252-31.321Z" transform="translate(-113.93 -153.2)"/>
      <path id="Path_3680" data-name="Path 3680" class="cls-4" d="M1.72,96.336,15.26,88.47l54.756,31.613-13.54,7.866Z" transform="translate(-1.281 -66.041)"/>
      <path id="Path_3681" data-name="Path 3681" class="cls-4" d="M217.576,221.036l13.54-7.866-.046,16.423-13.54,7.869Z" transform="translate(-162.381 -159.128)"/>
      <path id="Path_3682" data-name="Path 3682" class="cls-4" d="M56.342,151.113,56.3,167.538,1.54,135.925,1.586,119.5Z" transform="translate(-1.147 -89.205)"/>
      <path id="Path_3683" data-name="Path 3683" class="cls-5" d="M57.12,172.62l.023,5.719,2.277,2.277,3.128-2.566Z" transform="translate(-42.637 -128.858)"/>
      <path id="Path_3684" data-name="Path 3684" class="cls-6" d="M160.341,185.788a5.644,5.644,0,0,1,2.566,4.444c-.005,1.635-1.159,2.282-2.581,1.47a5.634,5.634,0,0,1-2.566-4.442C157.765,185.628,158.919,184.964,160.341,185.788Z" transform="translate(-146.649 -142.576)"/>
      <path id="Path_3685" data-name="Path 3685" class="cls-7" d="M160.854,191.674a2.553,2.553,0,0,1-1.268-.383,5.879,5.879,0,0,1-2.667-4.616,1.977,1.977,0,0,1,.857-1.83,2.034,2.034,0,0,1,2.028.18h0a5.888,5.888,0,0,1,2.667,4.622,1.973,1.973,0,0,1-.857,1.828A1.521,1.521,0,0,1,160.854,191.674Zm-2.294-6.624a1.128,1.128,0,0,0-.57.145,1.6,1.6,0,0,0-.654,1.48,5.444,5.444,0,0,0,2.464,4.267,1.622,1.622,0,0,0,1.622.183,1.6,1.6,0,0,0,.654-1.478,5.444,5.444,0,0,0-2.464-4.269h0A2.135,2.135,0,0,0,158.56,185.049Z" transform="translate(-146.021 -141.99)"/>
      <path id="Path_3686" data-name="Path 3686" class="cls-5" d="M168.41,236.88l.023,5.717,2.277,2.279,3.128-2.566Z" transform="translate(-125.714 -176.828)"/>
      <path id="Path_3687" data-name="Path 3687" class="cls-6" d="M271.633,250.041a5.655,5.655,0,0,1,2.566,4.447c-.005,1.635-1.161,2.282-2.581,1.47a5.628,5.628,0,0,1-2.568-4.444C269.062,249.881,270.211,249.219,271.633,250.041Z" transform="translate(-229.725 -190.541)"/>
      <path id="Path_3688" data-name="Path 3688" class="cls-8" d="M272.137,255.927a2.535,2.535,0,0,1-1.268-.383,5.886,5.886,0,0,1-2.669-4.619,1.98,1.98,0,0,1,.857-1.83,2.029,2.029,0,0,1,2.028.183h0a5.888,5.888,0,0,1,2.667,4.622,1.973,1.973,0,0,1-.857,1.828A1.554,1.554,0,0,1,272.137,255.927Zm-2.282-6.627a1.115,1.115,0,0,0-.573.147,1.6,1.6,0,0,0-.654,1.478,5.455,5.455,0,0,0,2.467,4.269,1.628,1.628,0,0,0,1.622.183,1.6,1.6,0,0,0,.654-1.478,5.453,5.453,0,0,0-2.464-4.272h0a2.168,2.168,0,0,0-1.062-.327Z" transform="translate(-229.091 -189.952)"/>
      <path id="Path_3689" data-name="Path 3689" class="cls-1" d="M247.264,36.676a50.248,50.248,0,0,1-10.972-10.186c-.231.046-4.774.641-10.995-2.489-.074.783-1.473,15.626,10.916,30.556C248.644,53.952,247.333,37.545,247.264,36.676Z" transform="translate(-197.003 -22.068)"/>
      <path id="Path_3690" data-name="Path 3690" class="cls-4" d="M236.752,57.544a.282.282,0,0,1-.217-.1c-13.467-16.23-12.359-32.4-12.2-34.192a.282.282,0,0,1,.406-.226c6.655,3.35,11.53,2.82,12.066,2.749a.282.282,0,0,1,.259.107,55.5,55.5,0,0,0,12.125,11.279.282.282,0,0,1,.127.214c.141,1.782.612,10.943-4.128,16.332a11.508,11.508,0,0,1-8.434,3.852ZM224.859,23.708c-.209,3.082-.488,18.114,12.021,33.273a10.865,10.865,0,0,0,7.9-3.666c4.529-5.149,4.108-14.206,4-15.776a55.93,55.93,0,0,1-12.057-11.192c-1.026.113-5.676.378-11.857-2.634Z" transform="translate(-195.238 -24.807)"/>
      <path id="Path_3691" data-name="Path 3691" class="cls-9" d="M272.9,74.219a7.3,7.3,0,0,1,.75,3.1v3.133a2.335,2.335,0,0,1-.761,2.039,1.5,1.5,0,0,1-1.83-.231,5.9,5.9,0,0,1-1.822-2.36,7.235,7.235,0,0,1-.747-3.1V73.664a2.327,2.327,0,0,1,.761-2.036,1.5,1.5,0,0,1,1.824.223A5.871,5.871,0,0,1,272.9,74.219Zm-.22,5.561V76.644a4.512,4.512,0,0,0-.471-1.946,3.666,3.666,0,0,0-1.145-1.478.942.942,0,0,0-1.142-.144,1.454,1.454,0,0,0-.477,1.272v3.136a4.511,4.511,0,0,0,.471,1.951,3.666,3.666,0,0,0,1.128,1.475q.674.477,1.148.149a1.473,1.473,0,0,0,.479-1.28" transform="translate(-227.007 -59.568)"/>
      <path id="Path_3692" data-name="Path 3692" class="cls-10" d="M248.491,59.241a4.148,4.148,0,0,1,1.489,1.573,4.1,4.1,0,0,1,.609,2.041,1.312,1.312,0,0,1-1.038,1.331,3.812,3.812,0,0,1,1.04,1.258,5.693,5.693,0,0,1,.79,2.763,1.7,1.7,0,0,1-2.794,1.6,5.493,5.493,0,0,1-1.974-2.087,6.733,6.733,0,0,1-.823-2.572l1.153.186a4.616,4.616,0,0,0,.5,1.912,3.181,3.181,0,0,0,1.142,1.2,1.116,1.116,0,0,0,1.15.121,1.09,1.09,0,0,0,.479-1.043,3.432,3.432,0,0,0-.471-1.65,5.5,5.5,0,0,0-1.455-1.647l-.7-.42V62.5a3.927,3.927,0,0,0,1,.457.79.79,0,0,0,.524-.147.688.688,0,0,0,.282-.629,1.974,1.974,0,0,0-.916-1.582.634.634,0,0,0-.646-.073,1.308,1.308,0,0,0-.347.584l-1.074-1.122a1.48,1.48,0,0,1,.589-.9A1.447,1.447,0,0,1,248.491,59.241Z" transform="translate(-210.708 -50.618)"/>
      <path id="_Path_" data-name="&lt;Path&gt;" class="cls-11" d="M192.4,27.085a.677.677,0,0,1-.587-.338l-4.046-7a.674.674,0,0,1,.245-.925l4.077-2.354a.677.677,0,1,1,.677,1.173l-3.48,2.013,3.7,6.409a.682.682,0,0,1-.248.928.71.71,0,0,1-.341.093Z" transform="translate(-168.978 -20.055)"/>
      <path id="_Path_2" data-name="&lt;Path&gt;" class="cls-12" d="M329.352,114.248a.618.618,0,0,1-.31-1.15l3.13-1.81-3.384-5.882a.616.616,0,0,1,1.066-.618l3.705,6.415a.618.618,0,0,1-.226.846l-3.666,2.118A.609.609,0,0,1,329.352,114.248Z" transform="translate(-270.243 -83.315)"/>
      <path id="Path_3693" data-name="Path 3693" class="cls-13" d="M257.68,319.328a1.625,1.625,0,0,1,.218-.664.809.809,0,0,1,.406-.332,1.014,1.014,0,0,1,.56-.02,2.428,2.428,0,0,1,.677.276,3.249,3.249,0,0,1,.679.507,3.549,3.549,0,0,1,.52.641,2.989,2.989,0,0,1,.33.7,2.344,2.344,0,0,1,.117.7,1.774,1.774,0,0,1-.058.492.694.694,0,0,1-.17.3.479.479,0,0,1-.271.129,1.072,1.072,0,0,1-.365-.018,3.263,3.263,0,0,1,.73.963,2.4,2.4,0,0,1,.254,1.055,1.521,1.521,0,0,1-.152.738.761.761,0,0,1-.406.37,1.083,1.083,0,0,1-.6.028,2.49,2.49,0,0,1-.715-.289,3.932,3.932,0,0,1-.717-.522,3.573,3.573,0,0,1-.532-.626,4.027,4.027,0,0,1-.383-.743,6.447,6.447,0,0,1-.274-.867l.413.043a.565.565,0,0,1,.3.134.69.69,0,0,1,.205.294c.043.127.094.253.147.385a2.606,2.606,0,0,0,.2.373,2.119,2.119,0,0,0,.254.34,1.587,1.587,0,0,0,.365.281,1.014,1.014,0,0,0,.413.152.462.462,0,0,0,.3-.061.441.441,0,0,0,.177-.215.8.8,0,0,0,.058-.319,2.205,2.205,0,0,0-.041-.433,1.206,1.206,0,0,0-.175-.413,2,2,0,0,0-.378-.423,4.208,4.208,0,0,0-.662-.456v-.761a2.758,2.758,0,0,0,.568.254.637.637,0,0,0,.36.015.292.292,0,0,0,.188-.19,1,1,0,0,0,.053-.35,1.493,1.493,0,0,0-.215-.8,1.6,1.6,0,0,0-.573-.56,1.014,1.014,0,0,0-.307-.122.507.507,0,0,0-.254,0,.372.372,0,0,0-.185.119.535.535,0,0,0-.114.221q-.063.16-.167.167a.535.535,0,0,1-.294-.139Z" transform="translate(-221.126 -241.746)"/>
      <path id="Path_3694" data-name="Path 3694" class="cls-14" d="M294.735,348.387v.624a.134.134,0,0,1-.051.119c-.033.025-.079.018-.139-.018l-.507-.286v1.521l-.811-.469v-1.521l-2.3-1.328a.507.507,0,0,1-.167-.162.612.612,0,0,1-.089-.218l-.1-.6,2.586-2.469.882.507V348Zm-1.5-.867v-2.046a6.006,6.006,0,0,1,.033-.621l-1.693,1.709Z" transform="translate(-245.79 -260.631)"/>
      <path id="Path_3695" data-name="Path 3695" class="cls-15" d="M136.368,314.792l-.188.16a1.235,1.235,0,0,1,.342.056,1.936,1.936,0,0,1,.393.177,2.951,2.951,0,0,1,.6.466,3.335,3.335,0,0,1,.507.649,3.7,3.7,0,0,1,.357.793,2.938,2.938,0,0,1,.137.9,1.8,1.8,0,0,1-.139.74.948.948,0,0,1-.393.441.991.991,0,0,1-.608.1,2.107,2.107,0,0,1-.788-.289,3.549,3.549,0,0,1-.783-.614,3.982,3.982,0,0,1-.593-.791,3.868,3.868,0,0,1-.375-.91,3.721,3.721,0,0,1-.129-.973,2.109,2.109,0,0,1,.155-.816,2.049,2.049,0,0,1,.487-.687l1.3-1.252a.254.254,0,0,1,.2-.063.626.626,0,0,1,.3.1l.829.479Zm.213,3.3a1.034,1.034,0,0,0,.408.15.469.469,0,0,0,.53-.309.986.986,0,0,0,.076-.413,1.908,1.908,0,0,0-.071-.522,2.08,2.08,0,0,0-.2-.482,2.015,2.015,0,0,0-.725-.725,1.039,1.039,0,0,0-.4-.145.471.471,0,0,0-.309.061.507.507,0,0,0-.2.254,1.034,1.034,0,0,0-.074.411,2.157,2.157,0,0,0,.063.507,1.962,1.962,0,0,0,.489.885,1.846,1.846,0,0,0,.418.337Z" transform="translate(-129.442 -237.709)"/>
      <path id="Path_3696" data-name="Path 3696" class="cls-16" d="M176.3,331.655v.464a.966.966,0,0,1-.038.312,1.042,1.042,0,0,1-.076.172l-2.066,3.689a.33.33,0,0,1-.183.155.4.4,0,0,1-.312-.076l-.677-.39,2.109-3.564c.048-.071.1-.134.142-.19a.76.76,0,0,1,.157-.145l-2.611-1.508a.421.421,0,0,1-.152-.16.444.444,0,0,1-.063-.21v-.723Z" transform="translate(-157.674 -250.105)"/>
      <path id="Path_3697" data-name="Path 3697" class="cls-17" d="M211.258,355.134a3.2,3.2,0,0,1,.735.994,2.535,2.535,0,0,1,.238,1.075,1.425,1.425,0,0,1-.137.672.717.717,0,0,1-.388.352,1.065,1.065,0,0,1-.6.023,2.574,2.574,0,0,1-.761-.314,4.116,4.116,0,0,1-.761-.575,4.022,4.022,0,0,1-.6-.712,3.382,3.382,0,0,1-.408-.8,2.644,2.644,0,0,1-.137-.832,1.133,1.133,0,0,1,.236-.8.761.761,0,0,1,.738-.145,2.963,2.963,0,0,1-.6-.882,2.441,2.441,0,0,1-.2-.961,1.24,1.24,0,0,1,.127-.588.72.72,0,0,1,.352-.332.951.951,0,0,1,.543-.041,2.127,2.127,0,0,1,.692.271,3.47,3.47,0,0,1,.692.527,3.621,3.621,0,0,1,.54.667,3.415,3.415,0,0,1,.355.74,2.33,2.33,0,0,1,.124.735,1.131,1.131,0,0,1-.2.73A.644.644,0,0,1,211.258,355.134Zm-.92,1.965a1.121,1.121,0,0,0,.4.157.451.451,0,0,0,.292-.041.406.406,0,0,0,.18-.215.986.986,0,0,0,.061-.368,1.757,1.757,0,0,0-.254-.925,1.906,1.906,0,0,0-.687-.659.752.752,0,0,0-.687-.132c-.165.081-.254.292-.254.634a1.754,1.754,0,0,0,.058.439,1.773,1.773,0,0,0,.18.423,2.05,2.05,0,0,0,.292.38A1.916,1.916,0,0,0,210.337,357.1Zm0-4.756a.923.923,0,0,0-.36-.134.37.37,0,0,0-.254.053.385.385,0,0,0-.147.2.958.958,0,0,0-.046.309,2.046,2.046,0,0,0,.038.385,1.6,1.6,0,0,0,.383.761,1.547,1.547,0,0,0,.383.3.89.89,0,0,0,.38.137.332.332,0,0,0,.254-.076.434.434,0,0,0,.134-.233,1.287,1.287,0,0,0,.041-.34,1.453,1.453,0,0,0-.051-.365,1.568,1.568,0,0,0-.147-.368,1.521,1.521,0,0,0-.254-.342,1.571,1.571,0,0,0-.355-.289Z" transform="translate(-184.482 -266.351)"/>
      <path id="Path_3698" data-name="Path 3698" class="cls-18" d="M248.208,377.745c.043-.038.084-.074.119-.109l.112-.109a1.034,1.034,0,0,1-.416-.03,1.976,1.976,0,0,1-.477-.2,2.724,2.724,0,0,1-.553-.434,3.188,3.188,0,0,1-.484-.619,3.567,3.567,0,0,1-.342-.761,2.845,2.845,0,0,1-.129-.859,1.648,1.648,0,0,1,.137-.71.9.9,0,0,1,.38-.426.981.981,0,0,1,.588-.1,1.985,1.985,0,0,1,.761.276,3.463,3.463,0,0,1,.761.588,3.73,3.73,0,0,1,.57.761,3.787,3.787,0,0,1,.363.862,3.4,3.4,0,0,1,.127.908,2.969,2.969,0,0,1-.043.525,2.264,2.264,0,0,1-.124.431,1.854,1.854,0,0,1-.193.357,2.452,2.452,0,0,1-.254.309l-1.247,1.323a.254.254,0,0,1-.193.063.624.624,0,0,1-.292-.1l-.857-.494Zm-1.237-2.667a1.843,1.843,0,0,0,.236.933,1.775,1.775,0,0,0,.669.662,1.014,1.014,0,0,0,.4.152.474.474,0,0,0,.3-.053.469.469,0,0,0,.183-.233,1.065,1.065,0,0,0,.061-.383,1.909,1.909,0,0,0-.066-.507,2.028,2.028,0,0,0-.193-.451,2.065,2.065,0,0,0-.3-.383,1.853,1.853,0,0,0-.375-.289.971.971,0,0,0-.383-.139.451.451,0,0,0-.289.053.469.469,0,0,0-.185.233A1.06,1.06,0,0,0,246.971,375.078Z" transform="translate(-212.546 -282.875)"/>
      <path id="Path_3699" data-name="Path 3699" class="cls-19" d="M281.557,398.677v.8l-3.017-1.752v-.8l1.105.639v-4.079l-.781.3a.2.2,0,0,1-.134,0,.383.383,0,0,1-.124-.071.576.576,0,0,1-.1-.1.553.553,0,0,1-.068-.112l-.294-.634,1.663-.662.761.441v5.468Z" transform="translate(-236.511 -296.925)"/>
      <path id="Path_3700" data-name="Path 3700" class="cls-20" d="M298.223,405.563a4.817,4.817,0,0,1-.152,1.333,1.584,1.584,0,0,1-.423.761.862.862,0,0,1-.636.218,1.775,1.775,0,0,1-.793-.254,3.212,3.212,0,0,1-.791-.649,4.115,4.115,0,0,1-.634-.951,5.647,5.647,0,0,1-.418-1.24,7.218,7.218,0,0,1-.15-1.521,4.942,4.942,0,0,1,.15-1.336,1.6,1.6,0,0,1,.418-.761.852.852,0,0,1,.634-.221,1.775,1.775,0,0,1,.791.254,3.319,3.319,0,0,1,.793.652,4.056,4.056,0,0,1,.636.953,5.521,5.521,0,0,1,.423,1.24A7.054,7.054,0,0,1,298.223,405.563Zm-.961-.55a7.16,7.16,0,0,0-.086-1.176,4.1,4.1,0,0,0-.221-.852,2.028,2.028,0,0,0-.335-.563,1.6,1.6,0,0,0-.39-.332.793.793,0,0,0-.388-.117.4.4,0,0,0-.33.18,1.392,1.392,0,0,0-.228.578,5.228,5.228,0,0,0-.086,1.075,6.891,6.891,0,0,0,.086,1.176,3.933,3.933,0,0,0,.228.842,1.984,1.984,0,0,0,.33.56,1.58,1.58,0,0,0,.388.33.781.781,0,0,0,.39.119.408.408,0,0,0,.335-.177,1.422,1.422,0,0,0,.233-.575A5.394,5.394,0,0,0,297.263,405.013Z" transform="translate(-248.517 -303.45)"/>
      <path id="Path_3701" data-name="Path 3701" class="cls-21" d="M192.952,285.415v.8l-3.019-1.744v-.8l1.105.639v-3.651c0-.142,0-.289.013-.439l-.786.3a.22.22,0,0,1-.134,0,.383.383,0,0,1-.124-.071.673.673,0,0,1-.1-.1.554.554,0,0,1-.068-.112l-.294-.634,1.666-.662.761.441v5.468Z" transform="translate(-170.372 -212.378)"/>
      <path id="Path_3702" data-name="Path 3702" class="cls-22" d="M226.155,307.116a.631.631,0,0,1,.241.236.6.6,0,0,1,.089.307v.641l-3.744-2.16v-.36a.55.55,0,0,1,.041-.205.269.269,0,0,1,.127-.142l1.655-.948a3.519,3.519,0,0,0,.373-.254,1.2,1.2,0,0,0,.441-.621,1.521,1.521,0,0,0,.058-.436,1.574,1.574,0,0,0-.056-.428,1.5,1.5,0,0,0-.162-.38,1.46,1.46,0,0,0-.254-.319,1.589,1.589,0,0,0-.327-.254.989.989,0,0,0-.307-.122.489.489,0,0,0-.254,0,.4.4,0,0,0-.185.122.532.532,0,0,0-.112.221q-.066.16-.167.167a.525.525,0,0,1-.294-.139l-.489-.383a1.552,1.552,0,0,1,.218-.664.809.809,0,0,1,.406-.332,1,1,0,0,1,.558-.02,2.367,2.367,0,0,1,.677.276,3.4,3.4,0,0,1,.692.527,3.625,3.625,0,0,1,.535.669,3.5,3.5,0,0,1,.347.761,2.682,2.682,0,0,1,.124.8,1.757,1.757,0,0,1-.089.591,1.447,1.447,0,0,1-.238.426,1.593,1.593,0,0,1-.347.317c-.134.091-.274.18-.421.269l-1.217.753a2.284,2.284,0,0,1,.352.112,2.39,2.39,0,0,1,.335.16Z" transform="translate(-195.155 -228.554)"/>
      <path id="Path_3703" data-name="Path 3703" class="cls-23" d="M233.125,332.566a16.874,16.874,0,0,0-1.617-.634,7.364,7.364,0,0,0-3.258.145c1.838-1.169,2.261-2.446,5.876-1.775a11.361,11.361,0,0,1,5.281,2.834,20.963,20.963,0,0,1,6.272,10.085c.915,3.3,1.521,8.341-2.028,10.394l-2.692,1.64c3.516-2.043,3-7.352,2.01-10.647a21.313,21.313,0,0,0-8.632-11.591v.03C234.322,333.068,233.764,332.833,233.125,332.566Z" transform="translate(-232.269 -268.58)"/>
      <path id="Path_3704" data-name="Path 3704" class="cls-24" d="M224.6,337.895c-5.179-2.989-9.393-.588-9.408,5.362s4.168,13.2,9.347,16.189,9.4.6,9.418-5.354S229.787,340.891,224.6,337.895Z" transform="translate(-222.519 -273.427)"/>
      <path id="Path_3705" data-name="Path 3705" class="cls-6" d="M236.9,364.181c-.53-.307-.963-.061-.963.55V367.5l-2.408-1.389c-.527-.307-.958-.061-.961.553a2.1,2.1,0,0,0,.956,1.653l2.408,1.392v2.766a2.1,2.1,0,0,0,.958,1.66c.532.307.963.063.963-.55v-2.766l2.408,1.389c.53.307.963.063.966-.545a2.109,2.109,0,0,0-.958-1.66l-2.408-1.392v-2.766A2.1,2.1,0,0,0,236.9,364.181Z" transform="translate(-235.493 -293.911)"/>
    </g>
  </g>
</svg>
