<svg xmlns="http://www.w3.org/2000/svg" viewBox="10320.886 5293.02 105.103 114.93">
  <defs>
    <style>
      .cls-1 {
        fill: #c5d9f1;
      }

      .cls-2 {
        fill: #377bd0;
      }
    </style>
  </defs>
  <g id="company_swag" data-name="company swag" transform="matrix(0.574, 0.819, -0.819, 0.574, 10397.398, 5292.863)">
    <path id="Path_4015" data-name="Path 4015" class="cls-1" d="M0,13.357C0,6.174,5.838,0,12.207,0H48.475c6.369,0,12.384,6.077,12.384,13.357v56.1H48.829v.425c0,11.455-8.227,20.726-18.4,20.726s-18.4-9.3-18.4-20.726v-.4H0ZM30.429,83.008c6.457,0,11.676-5.882,11.676-13.154v-.4H18.841v.425C18.753,77.126,23.972,83.008,30.429,83.008Z" transform="translate(80.125 86.218) rotate(161)"/>
    <path id="Path_4016" data-name="Path 4016" class="cls-2" d="M9.469,0c-.953,0-1.4.618-1.222,1.342.3,1.215.671,2.423.913,3.645A25.426,25.426,0,0,1,6.986,21.352C5.643,24.117,4.16,26.8,2.737,29.52a24.364,24.364,0,0,0-2.524,6.5,11.994,11.994,0,0,0,2.3,9.491,31.062,31.062,0,0,0,5.974,6.115,1.007,1.007,0,0,0,1.5-.081,1.081,1.081,0,0,0-.248-1.544c-1.5-1.457-3.108-2.833-4.477-4.41A11,11,0,0,1,3.375,33.038c1.1-2.416,2.4-4.752,3.645-7.095A40.192,40.192,0,0,0,11.161,15.5,27.971,27.971,0,0,0,10.174.785C10.06.43,9.631.175,9.469,0Z" transform="matrix(-0.914, 0.407, -0.407, -0.914, 17.449, 73.868)"/>
    <path id="Path_4017" data-name="Path 4017" class="cls-2" d="M4.222,5.122A12.043,12.043,0,0,1,2.973,8.277l-.195.369c-.289.537-.591,1.094-.839,1.651A2.685,2.685,0,0,0,2.4,13.372c.282.309.577.6.886.879l.376.356a.832.832,0,0,1,.114,1.155.805.805,0,0,1-1.134.121h0A9.4,9.4,0,0,1,.819,14.016a3.974,3.974,0,0,1-.752-3.141A7.57,7.57,0,0,1,.845,8.861c.127-.248.262-.5.4-.745.275-.524.564-1.061.819-1.6a6.859,6.859,0,0,0,.591-4.4c-.04-.215-.1-.423-.161-.671l-.1-.389A.846.846,0,0,1,3.248,0H3.47l.148.161h0a.906.906,0,0,1,.309.416A8.585,8.585,0,0,1,4.222,5.122Z" transform="matrix(-0.914, 0.407, -0.407, -0.914, 32.271, 66.263)"/>
    <path id="Path_4018" data-name="Path 4018" class="cls-2" d="M9.5,18.371c.987-1.953,1.947-3.772,2.819-5.625a1.242,1.242,0,0,1,1.195-.758c1.826-.168,3.658-.356,5.632-.55-.2-.222-.322-.369-.463-.51L14.659,6.9a.987.987,0,0,1-.309-1.081c.383-1.658.732-3.323,1.094-4.994.04-.2.067-.416.121-.732L14.284.732c-1.477.758-2.96,1.51-4.43,2.289a.879.879,0,0,1-1,0c-1.5-.906-3.02-1.772-4.537-2.685C4.141.235,3.954.141,3.692,0c.349,2.161.671,4.235,1.027,6.289A1,1,0,0,1,4.343,7.35c-1.3,1.114-2.557,2.262-3.826,3.4-.161.141-.3.309-.517.53l4.209.671c.745.121,1.5.2,2.228.376a1.04,1.04,0,0,1,.631.5C7.867,14.619,8.645,16.418,9.5,18.371ZM6.4,3.96c.779.456,1.436.792,2.014,1.208a1.342,1.342,0,0,0,1.638.06c.779-.49,1.638-.859,2.571-1.342-.2.967-.349,1.839-.577,2.685a.859.859,0,0,0,.3.96c.745.671,1.457,1.45,2.282,2.282-.953.094-1.759.2-2.571.248a1.087,1.087,0,0,0-1.061.738c-.383.893-.866,1.745-1.376,2.745-.4-.9-.759-1.631-1.047-2.4a1.04,1.04,0,0,0-.987-.752c-.98-.1-1.947-.3-3.061-.47.785-.711,1.47-1.3,2.114-1.933a.953.953,0,0,0,.248-.671C6.766,6.236,6.585,5.175,6.4,3.96Z" transform="matrix(-0.914, 0.407, -0.407, -0.914, -2.485, 62.163)"/>
    <path id="Path_4019" data-name="Path 4019" class="cls-2" d="M8.169,15.66c.866-1.718,1.678-3.289,2.457-4.88a.832.832,0,0,1,.779-.53c1.624-.141,3.255-.322,4.947-.5-1.168-1.195-2.228-2.356-3.39-3.417A1.671,1.671,0,0,1,12.4,4.43c.383-1.389.624-2.812.96-4.363-1.4.711-2.685,1.282-3.907,2.014a2.188,2.188,0,0,1-2.786-.067A39.178,39.178,0,0,0,3.208,0,37.82,37.82,0,0,0,3.88,3.967,2.591,2.591,0,0,1,2.772,7.2,31.761,31.761,0,0,0,0,9.632c1.457.228,2.772.537,4.1.611a2.47,2.47,0,0,1,2.564,1.906,32.338,32.338,0,0,0,1.5,3.511ZM5.947,3.974c.618.356,1.1.671,1.624.913a1.08,1.08,0,0,0,.805,0c.671-.282,1.3-.671,2.014-1.02a13.338,13.338,0,0,1-.315,1.49,1.148,1.148,0,0,0,.4,1.41c.47.383.873.846,1.389,1.342-.752.074-1.342.1-1.866.208a1.1,1.1,0,0,0-.671.443c-.376.618-.671,1.282-1.067,2.014a14.769,14.769,0,0,1-.671-1.564.9.9,0,0,0-.886-.671c-.671-.054-1.3-.2-2.094-.329.5-.45.879-.826,1.289-1.155a.846.846,0,0,0,.4-.92,16.508,16.508,0,0,1-.356-2.161Z" transform="matrix(-0.914, 0.407, -0.407, -0.914, 25.653, 67.835)"/>
    <path id="Path_4020" data-name="Path 4020" class="cls-2" d="M0,7.2c1.631.745,3.114,1.45,4.618,2.1a1.436,1.436,0,0,1,.839.893C6,11.605,6.585,13,7.2,14.519c.611-1.342,1.248-2.531,1.7-3.792a3.068,3.068,0,0,1,2.128-2.014c1.148-.369,2.249-.886,3.484-1.389C13.1,6.652,11.787,5.981,10.437,5.47a2.537,2.537,0,0,1-1.6-1.678C8.4,2.551,7.867,1.342,7.323,0,6.786,1.175,6.2,2.215,5.826,3.323A3.772,3.772,0,0,1,3.067,6.007,27.974,27.974,0,0,0,0,7.2ZM7.3,9.4C7.041,8.162,6.222,7.712,5.121,7.3c1.235-.268,1.685-1.087,2.094-2.188C7.484,6.35,8.3,6.806,9.4,7.209,8.169,7.477,7.712,8.3,7.31,9.4Z" transform="matrix(-0.914, 0.407, -0.407, -0.914, 18.037, 33.218)"/>
    <path id="Path_4021" data-name="Path 4021" class="cls-2" d="M14.525,7.343c-1.53-.671-2.953-1.342-4.4-2.014A1.92,1.92,0,0,1,8.981,4.141C8.478,2.8,7.907,1.457,7.323,0,6.652,1.45,5.981,2.786,5.437,4.155A2.363,2.363,0,0,1,3.893,5.638C2.611,6.088,1.369,6.645,0,7.2c1.51.671,2.906,1.342,4.336,1.967a2.013,2.013,0,0,1,1.235,1.275c.483,1.342,1.054,2.685,1.631,4.081.725-1.591,1.43-3.068,2.081-4.571a1.517,1.517,0,0,1,.926-.9C11.626,8.551,13.015,7.954,14.525,7.343ZM9.39,7.249C8.155,7.5,7.726,8.35,7.3,9.417,7.048,8.176,6.2,7.753,5.283,7.323,6.4,7.095,6.786,6.2,7.236,5.182,7.491,6.39,8.33,6.826,9.4,7.249Z" transform="matrix(-0.914, 0.407, -0.407, -0.914, 1.593, 47.394)"/>
    <path id="Path_4022" data-name="Path 4022" class="cls-2" d="M6.82,0C6.256,1.222,5.679,2.309,5.256,3.457A2.846,2.846,0,0,1,3.242,5.363C2.181,5.7,1.161,6.189,0,6.659c1.45.671,2.786,1.3,4.141,1.879a1.591,1.591,0,0,1,.94.973c.483,1.289,1.027,2.551,1.584,3.933C7.336,11.961,8.008,10.592,8.6,9.2A1.342,1.342,0,0,1,9.437,8.4c1.3-.5,2.591-1.047,4.027-1.624C12.022,6.1,10.693,5.484,9.357,4.9A1.618,1.618,0,0,1,8.37,3.893C7.92,2.624,7.383,1.383,6.82,0ZM6.685,5.464,8.028,6.638,6.847,7.981,5.5,6.806Z" transform="matrix(-0.914, 0.407, -0.407, -0.914, 1.527, 80.384)"/>
    <path id="Path_4023" data-name="Path 4023" class="cls-2" d="M2.054,1.02a1.027,1.027,0,1,0-1.02,1.034h0A1.04,1.04,0,0,0,2.054,1.02Z" transform="matrix(-0.914, 0.407, -0.407, -0.914, -26.858, 43.544)"/>
    <path id="Path_4024" data-name="Path 4024" class="cls-2" d="M2.054,1.034a1.027,1.027,0,1,0-1.027,1.02h0A1.04,1.04,0,0,0,2.054,1.034Z" transform="matrix(-0.914, 0.407, -0.407, -0.914, 20.105, 44.251)"/>
    <path id="Path_4025" data-name="Path 4025" class="cls-2" d="M2.054,1.054A1.054,1.054,0,0,0,1.047,0,1.027,1.027,0,1,0,2.054,1.054Z" transform="matrix(-0.914, 0.407, -0.407, -0.914, 8.189, 60.938)"/>
    <path id="Path_4026" data-name="Path 4026" class="cls-2" d="M1,2.054A1.027,1.027,0,1,0,0,1,1.047,1.047,0,0,0,1,2.054Z" transform="matrix(-0.914, 0.407, -0.407, -0.914, -12.38, 73.504)"/>
    <path id="Path_4027" data-name="Path 4027" class="cls-2" d="M2.015,1.014A1.027,1.027,0,0,0,.974,0h0A1.027,1.027,0,0,0,0,1.074H0a.987.987,0,0,0,1.014.967,1.007,1.007,0,0,0,1-1.02Z" transform="matrix(-0.914, 0.407, -0.407, -0.914, 8.278, 37.702)"/>
    <path id="Path_4028" data-name="Path 4028" class="cls-2" d="M2.02.924A1.007,1.007,0,0,0,.92,0,1.02,1.02,0,0,0,0,.924,1.04,1.04,0,0,0,1.014,1.971,1.014,1.014,0,0,0,2.02.944Z" transform="matrix(-0.914, 0.407, -0.407, -0.914, -2.403, 59.031)"/>
    <path id="Path_4029" data-name="Path 4029" class="cls-2" d="M3.5,2.974a.993.993,0,0,0-.779.557c-.2.389-.463.745-.725,1.148-.128-.517-.255-.993-.362-1.477A.483.483,0,0,0,1.4,2.88C.94,2.6.5,2.309,0,1.994a9.069,9.069,0,0,1,1.047-.255A1.255,1.255,0,0,0,2.061,1a10.734,10.734,0,0,1,.631-1c.121.456.235.866.322,1.289a.852.852,0,0,0,.436.618c.416.235.805.5,1.235.779C4.249,2.786,3.866,2.906,3.5,2.974Z" transform="matrix(-0.914, 0.407, -0.407, -0.914, 14.424, 47.861)"/>
    <path id="Path_4030" data-name="Path 4030" class="cls-2" d="M2.43,2.114a.671.671,0,0,0-.564.369c-.154.262-.356.5-.55.785-.074-.376-.148-.712-.208-1.054a.329.329,0,0,0-.154-.242C.644,1.765.336,1.544,0,1.3a5.85,5.85,0,0,1,.745-.148A.873.873,0,0,0,1.483.671,7.929,7.929,0,0,1,1.96,0c.067.322.141.618.181.92a.584.584,0,0,0,.3.45c.282.175.55.383.839.591C2.98,2.014,2.705,2.081,2.43,2.114Z" transform="matrix(-0.914, 0.407, -0.407, -0.914, -21.405, 48.713)"/>
    <path id="Path_4031" data-name="Path 4031" class="cls-2" d="M2.322,1.987a.671.671,0,0,0-.517.369c-.141.262-.309.5-.483.765-.087-.342-.168-.671-.242-.98A.329.329,0,0,0,.926,1.92c-.3-.181-.6-.376-.926-.584a6.133,6.133,0,0,1,.671-.175.805.805,0,0,0,.671-.49c.114-.228.275-.43.423-.671.074.3.154.577.208.859a.571.571,0,0,0,.3.4c.275.154.537.336.826.524Q2.714,1.905,2.322,1.987Z" transform="matrix(-0.914, 0.407, -0.407, -0.914, -1.21, 68.642)"/>
  </g>
</svg>
