<svg xmlns="http://www.w3.org/2000/svg" xmlns:xlink="http://www.w3.org/1999/xlink" viewBox="9338 1536 81.448 108.412">
  <defs>
    <style>
      .cls-1 {
        fill: url(#linear-gradient);
      }

      .cls-2 {
        fill: url(#linear-gradient-2);
      }

      .cls-3 {
        fill: url(#linear-gradient-3);
      }

      .cls-4 {
        fill: url(#linear-gradient-4);
      }

      .cls-11, .cls-5, .cls-9 {
        fill: #fff;
      }

      .cls-5 {
        opacity: 0.51;
      }

      .cls-6 {
        fill: url(#linear-gradient-5);
      }

      .cls-7 {
        fill: url(#linear-gradient-6);
      }

      .cls-8 {
        fill: url(#linear-gradient-8);
      }

      .cls-9 {
        opacity: 0.48;
      }

      .cls-10 {
        fill: url(#linear-gradient-9);
      }

      .cls-12 {
        fill: url(#linear-gradient-10);
      }

      .cls-13 {
        fill: url(#linear-gradient-11);
      }

      .cls-14 {
        fill: url(#linear-gradient-12);
      }

      .cls-15 {
        fill: url(#linear-gradient-13);
      }

      .cls-16 {
        fill: url(#linear-gradient-14);
      }

      .cls-17 {
        fill: url(#linear-gradient-16);
      }

      .cls-18 {
        fill: url(#linear-gradient-17);
      }
    </style>
    <linearGradient id="linear-gradient" y1="0.5" x2="1" y2="0.5" gradientUnits="objectBoundingBox">
      <stop offset="0" stop-color="#3e77bc"/>
      <stop offset="1" stop-color="#529fd8"/>
    </linearGradient>
    <linearGradient id="linear-gradient-2" x1="0" y1="0.5" x2="1" y2="0.5" xlink:href="#linear-gradient"/>
    <linearGradient id="linear-gradient-3" x1="0.001" y1="0.5" x2="1" y2="0.5" xlink:href="#linear-gradient"/>
    <linearGradient id="linear-gradient-4" x1="0" y1="0.5" x2="1" y2="0.5" xlink:href="#linear-gradient"/>
    <linearGradient id="linear-gradient-5" y1="0.5" x2="1" y2="0.5" gradientUnits="objectBoundingBox">
      <stop offset="0" stop-color="#3e77bc"/>
      <stop offset="0.05" stop-color="#407bbf"/>
      <stop offset="0.37" stop-color="#4a8fcd"/>
      <stop offset="0.68" stop-color="#509bd5"/>
      <stop offset="1" stop-color="#529fd8"/>
    </linearGradient>
    <linearGradient id="linear-gradient-6" x1="-0.185" y1="12.345" x2="0.851" y2="12.345" xlink:href="#linear-gradient"/>
    <linearGradient id="linear-gradient-8" x1="-0.557" y1="13.139" x2="0.48" y2="13.139" xlink:href="#linear-gradient"/>
    <linearGradient id="linear-gradient-9" x1="0" y1="0.5" x2="1" y2="0.5" xlink:href="#linear-gradient"/>
    <linearGradient id="linear-gradient-10" x1="0" y1="0.5" x2="1" y2="0.5" xlink:href="#linear-gradient-5"/>
    <linearGradient id="linear-gradient-11" x1="0" y1="0.5" x2="1" y2="0.5" xlink:href="#linear-gradient-5"/>
    <linearGradient id="linear-gradient-12" x1="-0.001" y1="0.5" x2="1" y2="0.5" xlink:href="#linear-gradient-5"/>
    <linearGradient id="linear-gradient-13" x1="-0.007" y1="0.5" x2="1.007" y2="0.5" xlink:href="#linear-gradient-5"/>
    <linearGradient id="linear-gradient-14" x1="-0.002" y1="0.5" x2="0.998" y2="0.5" xlink:href="#linear-gradient-5"/>
    <linearGradient id="linear-gradient-16" x1="-0.001" y1="0.5" x2="1" y2="0.5" xlink:href="#linear-gradient-5"/>
    <linearGradient id="linear-gradient-17" x1="-0.006" y1="0.5" x2="0.993" y2="0.5" xlink:href="#linear-gradient-5"/>
  </defs>
  <g id="icon_16" data-name="icon 16" transform="translate(9338 1536.003)">
    <path id="Path_3707" data-name="Path 3707" class="cls-1" d="M142.739,316.872a1.276,1.276,0,0,1,0,.136.965.965,0,0,1,0,.119v.139a.36.36,0,0,1-.012.117,1.124,1.124,0,0,0-.019.139.436.436,0,0,1-.017.117.632.632,0,0,0-.024.141l-.022.114a.571.571,0,0,1-.032.139c-.012.046-.017.078-.024.114s-.024.095-.039.141l-.029.112-.044.144a.379.379,0,0,1-.034.109l-.054.146-.036.1c-.027.071-.056.141-.085.214l-.015.039c-.036.083-.073.168-.114.243a.731.731,0,0,1-.036.075c-.027.058-.056.117-.085.175l-.051.1c-.027.051-.054.1-.083.153l-.051.088-.1.173-.063.1-.1.158-.071.1-.107.153-.075.1c-.039.054-.078.107-.119.158l-.071.092c-.073.092-.148.185-.229.277l-.039.044c-.068.078-.136.156-.207.231l-.078.085-.2.2-.068.071c-.09.09-.183.178-.277.265l-.107.1-.139.124-.114.1-.141.122-.122.1-.146.117-.129.1-.148.114-.136.1c-.051.036-.1.075-.153.112l-.141.1-.158.11-.144.095-.165.107-.151.095-.17.1-.27.161c-.2.114-.4.224-.6.333l-.161.085c-.183.092-.367.187-.555.275l-.075.037c-.209.1-.423.195-.638.287l-.168.073-.557.224-.122.049c-.221.085-.445.165-.672.243l-.165.056-.462.148-.443.136-.377.107-.453.122c-.127.032-.243.066-.382.095s-.309.073-.462.107l-.387.085c-.158.034-.316.063-.475.092l-.423.08-.195.034c-.217.036-.436.071-.655.1l-.11.015c-.243.036-.5.068-.752.1l-.192.019c-.243.027-.487.051-.73.071h-.029c-.258.022-.518.041-.779.056h-.134c-.243,0-.487.022-.711.029h-1.472l-.355.024-.523-.019-.363-.015-.56-.039-.321-.022c-.226-.019-.45-.041-.674-.066l-.2-.019c-.292-.034-.582-.071-.871-.109l-.134-.022-.745-.117c-.1-.017-.2-.039-.3-.058-.187-.034-.377-.068-.562-.107-.243-.046-.467-.1-.7-.151l-.139-.032c-.243-.058-.487-.117-.713-.18l-.095-.027c-.207-.056-.414-.114-.618-.175l-.175-.054c-.243-.071-.465-.146-.694-.224l-.131-.046c-.19-.066-.38-.134-.565-.2l-.192-.071-.44-.178-.3-.127-.421-.187-.277-.127c-.153-.073-.3-.148-.453-.226l-.224-.112c-.224-.117-.443-.243-.657-.36a15.776,15.776,0,0,1-1.548-1.015c-.19-.141-.372-.285-.548-.428-.26-.219-.509-.44-.73-.667-.153-.151-.3-.3-.44-.458a9.2,9.2,0,0,1-.754-.942c-.112-.158-.217-.319-.316-.487a7.2,7.2,0,0,1-.835-1.986c-.044-.168-.078-.338-.1-.506-.015-.085-.027-.17-.037-.243a6.191,6.191,0,0,1-.046-.764l-.027,5.913c0,2.713,1.784,5.429,5.368,7.5.214.124.433.243.657.36.073.039.148.073.224.112.148.075.3.153.453.224l.268.109.423.19c.1.044.2.083.3.124l.29.122.153.056.19.073c.185.071.375.139.565.2l.131.046c.229.078.46.153.694.224l.175.051.3.09c.1.032.212.058.319.088l.092.027c.243.063.475.122.713.178l.136.034.635.139.063.012c.185.039.372.073.56.107l.307.058c.243.041.487.08.73.114l.134.022h0c.287.041.577.078.866.112l.209.019c.221.024.445.046.667.066H122l.331.034.557.037.365.017.518.019h1.905l.613-.027h.134c.26-.017.521-.034.779-.056h.029l.462-.041.263-.029.19-.022c.243-.027.5-.058.754-.095l.11-.017.657-.1.19-.032.156-.027.27-.054.487-.092.387-.085.462-.107.382-.095.453-.122.377-.107.443-.136.192-.058.27-.09.163-.056c.229-.078.453-.161.674-.243l.122-.049c.187-.073.372-.148.557-.226l.168-.071c.214-.092.428-.187.638-.287l.075-.037q.282-.136.555-.277l.161-.083c.2-.109.406-.219.6-.333l.221-.131a.333.333,0,0,0,.049-.032l.17-.1.151-.092.163-.107.146-.1.158-.107.141-.1.153-.112.136-.1.148-.112.129-.1.144-.117.124-.1.139-.119.117-.1.136-.124.1-.088h.012c.095-.088.187-.175.277-.265l.068-.071c.068-.068.134-.136.2-.207l.078-.083c.071-.075.139-.153.207-.231.012-.015.027-.029.039-.046.08-.09.156-.182.229-.275a.1.1,0,0,1,.019-.024l.051-.068.119-.158.075-.1c.037-.051.073-.1.107-.156l.071-.1.1-.158.063-.1c.034-.056.068-.112.1-.17l.041-.068.012-.022.08-.151c.019-.032.036-.066.054-.1l.085-.173c.012-.027.027-.051.037-.078.041-.083.078-.168.114-.243l.015-.039c.029-.071.058-.141.085-.214h0a.371.371,0,0,1,.034-.095c.01-.032.037-.1.054-.148s.022-.073.034-.109l.044-.141.029-.114q.022-.071.036-.139l.029-.117.029-.136a.087.087,0,0,0,0-.024.678.678,0,0,1,.017-.092c0-.032.017-.092.024-.139a.436.436,0,0,1,.017-.117.5.5,0,0,0,.019-.139.98.98,0,0,0,0-.119.536.536,0,0,1,.012-.136.972.972,0,0,0,0-.119,1.318,1.318,0,0,0,0-.136.3.3,0,0,0,0-.046v-.158l.027-5.913A.354.354,0,0,1,142.739,316.872Z" transform="translate(-106.122 -244.871)"/>
    <path id="Path_3708" data-name="Path 3708" class="cls-2" d="M137.431,276.563c7.123,4.115,7.159,10.783.083,14.9s-18.59,4.113-25.715,0-7.162-10.78-.083-14.893S130.306,272.451,137.431,276.563Z" transform="translate(-106.175 -212.267)"/>
    <path id="Path_3709" data-name="Path 3709" class="cls-3" d="M282.2,373.384v.358a.771.771,0,0,1-.017.192c-.017.066,0,.11-.017.165a1.515,1.515,0,0,0-.027.192c-.01.063-.015.109-.024.163s-.022.131-.034.2-.019.1-.032.158-.027.129-.041.192l-.066.166-.051.192-.044.158c-.019.068-.041.134-.061.2s-.032.1-.049.151l-.073.207c-.024.068-.032.095-.051.144-.036.1-.078.2-.119.3l-.022.054c-.049.119-.1.243-.156.353l-.051.1c-.039.083-.078.163-.122.243s-.046.09-.071.134-.075.144-.114.214l-.073.124c-.046.08-.092.161-.141.243l-.088.141-.144.221-.1.144c-.049.073-.1.144-.151.217l-.1.141-.168.209-.1.126c-.1.131-.207.26-.316.387l-.056.063c-.092.107-.19.217-.287.324l-.109.117-.277.285-.1.1c-.127.124-.256.243-.387.37l-.148.134c-.063.058-.127.117-.192.173l-.161.139-.2.168-.17.136-.2.163-.18.139-.209.158-.187.136-.214.156-.195.136c-.073.051-.146.1-.221.151l-.2.134-.231.148c-.068.046-.139.09-.209.134s-.156.1-.243.144q-.185.117-.38.226c-.275.161-.555.314-.84.465l-.224.117c-.256.134-.513.263-.776.387l-.1.051c-.294.139-.591.27-.891.4l-.243.1c-.258.107-.516.212-.776.314l-.173.068c-.307.117-.621.231-.937.338l-.229.078c-.214.073-.428.141-.645.209s-.411.126-.618.187l-.526.151c-.209.059-.419.114-.63.168l-.533.136-.647.148c-.178.039-.358.08-.538.117-.219.046-.44.09-.662.131l-.591.109-.268.046c-.3.051-.608.1-.915.144l-.153.022c-.348.049-.7.092-1.049.134l-.268.029c-.336.037-.672.071-1.01.1h-.041c-.36.032-.73.056-1.085.075l-.187.012c-.331.017-.662.029-.99.041l-.73.015h-1.779c-.243,0-.487-.019-.73-.029l-.5-.022c-.26-.015-.521-.034-.781-.054-.148,0-.3-.017-.448-.029-.316-.027-.628-.058-.942-.092l-.28-.027q-.606-.071-1.217-.153l-.187-.029c-.348-.051-.694-.1-1.037-.163l-.426-.08c-.263-.049-.526-.1-.786-.151q-.487-.1-.973-.212l-.19-.044c-.336-.08-.667-.163-1-.243l-.131-.036c-.29-.078-.577-.161-.864-.243l-.243-.073c-.326-.1-.647-.2-.973-.312l-.183-.066q-.4-.136-.788-.285l-.265-.1c-.207-.08-.411-.163-.616-.243l-.421-.173-.589-.265c-.129-.058-.258-.114-.384-.175-.214-.1-.423-.207-.63-.314-.1-.054-.212-.1-.314-.158-.311-.161-.616-.328-.915-.5a21.972,21.972,0,0,1-2.161-1.414q-.394-.294-.759-.6c-.367-.3-.711-.613-1.034-.93-.214-.209-.419-.423-.613-.638a13.23,13.23,0,0,1-1.054-1.312c-.156-.224-.3-.448-.438-.674a10.079,10.079,0,0,1-1.168-2.769c-.058-.243-.107-.47-.144-.706-.019-.117-.037-.243-.051-.353a8.687,8.687,0,0,1-.063-1.063l-.037,8.245c0,3.784,2.485,7.573,7.486,10.464.3.173.6.338.913.5l.314.156c.209.107.419.212.633.314.127.061.256.117.384.175.195.09.389.18.589.265l.419.173c.136.056.27.114.406.168l.212.08.265.1q.389.146.788.285c.061.019.119.044.182.063.319.11.642.212.973.314l.243.071.419.127.445.122.129.034c.331.09.662.173,1,.243l.19.046c.292.068.586.134.883.195l.088.017c.26.053.521.1.781.148.144.027.285.056.428.08.343.058.686.112,1.032.163l.185.029h0q.6.088,1.217.153l.292.029c.309.032.618.063.927.09h.024c.141.012.285.019.428.029.258.019.516.039.776.054l.511.019c.243,0,.487.022.73.029H257.5c.243,0,.487,0,.73-.015h.136c.287,0,.572-.024.857-.039h.185c.363-.022.73-.046,1.088-.078h.039c.214-.017.431-.036.645-.058l.367-.041a1.968,1.968,0,0,0,.265-.029q.526-.058,1.051-.131l.151-.024c.307-.044.613-.092.917-.144l.265-.044.217-.037.377-.075.662-.129.538-.119.645-.148.535-.134.63-.168.526-.151.616-.187.27-.083.377-.127.229-.078c.316-.11.628-.224.937-.341l.17-.066c.263-.1.521-.207.776-.316l.243-.1q.453-.195.891-.4l.1-.051c.263-.124.521-.243.774-.384l.226-.119c.282-.151.565-.3.84-.462l.309-.185a.624.624,0,0,0,.068-.041l.243-.146.209-.131.229-.148.2-.136.219-.151.2-.136.214-.153.187-.139c.071-.051.139-.1.207-.158s.122-.09.18-.139l.2-.161.173-.139.195-.165.163-.139.19-.173.136-.122.015-.015c.131-.122.26-.243.387-.37.032-.032.063-.066.1-.1.095-.095.185-.192.277-.287l.107-.117c.1-.107.195-.214.287-.321l.056-.066c.11-.126.217-.255.319-.384l.027-.034c.024-.032.046-.063.073-.095l.168-.221.1-.141c.051-.07.1-.144.151-.217s.066-.095.1-.144.095-.146.141-.221.061-.092.09-.139l.141-.243.056-.1.015-.029c.041-.068.078-.139.114-.209s.051-.092.073-.136.08-.161.119-.243c.017-.034.036-.071.053-.107.054-.117.107-.243.156-.35l.022-.056c.041-.1.08-.2.119-.3v-.012c.017-.044.032-.088.046-.131l.073-.2c.017-.051.032-.1.049-.153s.041-.131.061-.2.027-.107.041-.161.036-.127.051-.192.027-.11.039-.163.029-.127.041-.19v-.034a.6.6,0,0,1,.024-.129c.01-.044.024-.129.034-.192s.015-.109.024-.165.017-.129.024-.192.012-.109.019-.165.012-.129.017-.192,0-.11,0-.165v-.477l.036-8.245A.457.457,0,0,1,282.2,373.384Z" transform="translate(-200.755 -287.546)"/>
    <path id="Path_3710" data-name="Path 3710" class="cls-4" d="M274.929,317.166c9.934,5.736,9.977,15.034.114,20.77s-25.922,5.736-35.858,0-9.977-15.034-.117-20.77S264.993,311.44,274.929,317.166Z" transform="translate(-200.962 -242.069)"/>
    <path id="Path_3711" data-name="Path 3711" class="cls-5" d="M318.251,49.489a59.434,59.434,0,0,1-13.063-12.126c-.284.038-5.681.758-13.087-2.973-.088.932-1.754,18.6,12.993,36.377C319.9,70.052,318.342,50.517,318.251,49.489Z" transform="translate(-248.191 -33.849)"/>
    <path id="Path_3712" data-name="Path 3712" class="cls-6" d="M304.347,70.282a.268.268,0,0,1-.22-.1c-14.408-17.362-13.24-34.668-13.06-36.586a.282.282,0,0,1,.415-.222c7.122,3.587,12.348,3.019,12.921,2.946a.289.289,0,0,1,.268.107,58.816,58.816,0,0,0,12.991,12.053.289.289,0,0,1,.131.217l-.287.021.287-.021c.15,1.907.651,11.71-4.417,17.472a12.3,12.3,0,0,1-9.013,4.114ZM291.6,34.063c-.222,3.249-.552,19.384,12.873,35.638a11.705,11.705,0,0,0,8.467-3.913c4.805-5.459,4.444-14.748,4.286-16.907a60.111,60.111,0,0,1-12.913-11.986C303.232,37,298.24,37.3,291.6,34.063Z" transform="translate(-247.436 -33.078)"/>
    <path id="Path_3713" data-name="Path 3713" class="cls-7" d="M326.989,85.845l-1.712,1.071-.268-.568.048-.032a.3.3,0,0,0,.112-.383l-.771-1.607a1.438,1.438,0,0,1-.08-1.015l.536-1.851a1.454,1.454,0,0,1,.605-.822l1.5-.948a.3.3,0,0,0,.11-.386l-.024-.051.536-.337.879,1.824a.319.319,0,0,0,.477.137.421.421,0,0,0,.153-.536l-.879-1.827.305-.193a.316.316,0,0,0,.115-.4.238.238,0,0,0-.354-.1l-.308.193-.879-1.824a.319.319,0,0,0-.477-.137.423.423,0,0,0-.153.536l.879,1.824-.536.337-.024-.054a.228.228,0,0,0-.343-.1l-1.5.948a1.139,1.139,0,0,1-.93.15l-1.666-.445a1.144,1.144,0,0,1-.707-.619l-.771-1.607a.23.23,0,0,0-.343-.1l-.048.032-.268-.568,1.712-1.071a.421.421,0,0,0,.153-.536.319.319,0,0,0-.477-.137l-1.712,1.071-.155-.327a.244.244,0,0,0-.356-.1.319.319,0,0,0-.112.4l.158.327-1.712,1.071a.421.421,0,0,0-.155.536h0a.319.319,0,0,0,.477.137l1.712-1.071.268.568-.048.032a.3.3,0,0,0-.11.383l.771,1.607A1.425,1.425,0,0,1,320.7,80.3l-.536,1.854a1.425,1.425,0,0,1-.605.82l-1.5.951a.3.3,0,0,0-.11.383l.024.051-.536.337-.879-1.824a.319.319,0,0,0-.477-.137h0a.42.42,0,0,0-.153.536l.879,1.824-.308.193a.319.319,0,0,0-.112.4.241.241,0,0,0,.354.1l.308-.2.876,1.824a.319.319,0,0,0,.477.137.421.421,0,0,0,.155-.536l-.879-1.827.536-.335.024.051a.228.228,0,0,0,.343.1l1.5-.948a1.138,1.138,0,0,1,.929-.15l1.65.474a1.133,1.133,0,0,1,.707.619l.771,1.607a.225.225,0,0,0,.34.1l.051-.032.268.568-1.712,1.085a.421.421,0,0,0-.155.536.321.321,0,0,0,.477.137l1.712-1.071.158.327a.238.238,0,0,0,.354.1h0a.313.313,0,0,0,.115-.4l-.158-.327,1.712-1.085a.418.418,0,0,0,.153-.536.319.319,0,0,0-.461-.163Z" transform="translate(-265.678 -63.285)"/>
    <path id="Path_3714" data-name="Path 3714" class="cls-5" d="M160.92,36.718A53.811,53.811,0,0,1,149.055,25.7c-.258.034-5.164.689-11.893-2.7-.08.844-1.594,16.9,11.805,33.05C162.415,55.4,161,37.652,160.92,36.718Z" transform="translate(-129.36 -22.742)"/>
    <path id="Path_3715" data-name="Path 3715" class="cls-6" d="M148.18,55.5a.265.265,0,0,1-.2-.095c-13.1-15.774-12.041-31.5-11.876-33.239a.256.256,0,0,1,.375-.207c6.471,3.256,11.219,2.743,11.742,2.677a.26.26,0,0,1,.243.1,53.471,53.471,0,0,0,11.805,10.951.268.268,0,0,1,.117.2c.139,1.733.594,10.637-4.01,15.874a11.2,11.2,0,0,1-8.2,3.74ZM136.591,22.592c-.2,2.949-.5,17.611,11.693,32.378a10.64,10.64,0,0,0,7.695-3.555c4.414-5.018,4-13.852,3.894-15.36a54.33,54.33,0,0,1-11.734-10.89C147.158,25.267,142.619,25.532,136.591,22.592Z" transform="translate(-128.561 -21.93)"/>
    <path id="Path_3716" data-name="Path 3716" class="cls-8" d="M171.047,73.34l-1.555.973-.243-.518.044-.027a.27.27,0,0,0,.1-.348l-.7-1.46a1.3,1.3,0,0,1-.071-.925l.487-1.682a1.287,1.287,0,0,1,.55-.745l1.363-.864a.273.273,0,0,0,.1-.348l-.024-.046.487-.307.8,1.657a.29.29,0,0,0,.433.124.382.382,0,0,0,.139-.487l-.8-1.657.28-.175a.29.29,0,0,0,.1-.363.219.219,0,0,0-.321-.092l-.277.178-.8-1.66a.29.29,0,0,0-.433-.122.377.377,0,0,0-.139.487l.8,1.657-.487.307-.024-.046a.207.207,0,0,0-.309-.09l-1.365.864a1.042,1.042,0,0,1-.844.136l-1.5-.431a1.034,1.034,0,0,1-.645-.562l-.7-1.46a.2.2,0,0,0-.309-.09l-.044.027-.243-.516,1.555-.973a.382.382,0,0,0,.141-.487.29.29,0,0,0-.433-.124l-1.555.973-.144-.3a.217.217,0,0,0-.321-.092.287.287,0,0,0-.1.36l.144.3-1.555.973a.385.385,0,0,0-.139.487h0a.29.29,0,0,0,.433.124L164.474,65l.243.516-.044.027a.273.273,0,0,0-.1.35l.7,1.46a1.307,1.307,0,0,1,.073.922l-.487,1.682a1.322,1.322,0,0,1-.55.747l-1.37.886a.275.275,0,0,0-.1.35l.022.046-.487.307-.8-1.657a.29.29,0,0,0-.433-.124h0A.382.382,0,0,0,161,71l.8,1.657-.277.178a.285.285,0,0,0-.1.36.217.217,0,0,0,.321.092l.28-.175.8,1.657a.29.29,0,0,0,.433.124.384.384,0,0,0,.139-.487l-.8-1.657.487-.307.022.049a.207.207,0,0,0,.307.073l1.365-.861a1.027,1.027,0,0,1,.842-.136l1.5.428a1.039,1.039,0,0,1,.642.562l.7,1.46a.207.207,0,0,0,.311.088l.044-.027.243.516-1.555.973a.382.382,0,0,0-.139.487.29.29,0,0,0,.433.124l1.555-.973.141.3a.221.221,0,0,0,.324.092h0a.29.29,0,0,0,.1-.363l-.144-.3,1.555-.973a.384.384,0,0,0,.141-.487.292.292,0,0,0-.423-.131Z" transform="translate(-147.439 -53.079)"/>
    <path id="Path_3717" data-name="Path 3717" class="cls-9" d="M137.381,266.769c7.125,4.113,7.162,10.781.083,14.9s-18.59,4.113-25.713,0-7.162-10.783-.085-14.9S130.258,262.657,137.381,266.769Z" transform="translate(-106.139 -204.856)"/>
    <path id="Path_3718" data-name="Path 3718" class="cls-10" d="M123.865,284.269a26.562,26.562,0,0,1-12.995-3.11c-3.536-2.042-5.485-4.77-5.49-7.683s1.915-5.6,5.4-7.634c7.133-4.137,18.779-4.137,25.958,0,3.536,2.042,5.485,4.77,5.49,7.683s-1.915,5.6-5.4,7.634A26.208,26.208,0,0,1,123.865,284.269Zm-.119-21.055a25.9,25.9,0,0,0-12.718,3.049c-3.331,1.947-5.166,4.5-5.161,7.211s1.867,5.312,5.247,7.264c7.045,4.066,18.47,4.066,25.469,0,3.334-1.947,5.166-4.5,5.164-7.211s-1.867-5.312-5.247-7.264A26.09,26.09,0,0,0,123.746,263.215Z" transform="translate(-105.38 -204.141)"/>
    <path id="Path_3719" data-name="Path 3719" class="cls-11" d="M82.27,225.171l3.246-1.886.061-20.775L82.328,204.4Z" transform="translate(-62.249 -153.231)"/>
    <path id="Path_3720" data-name="Path 3720" class="cls-12" d="M186.84,246.56a.243.243,0,0,1-.129-.036.256.256,0,0,1-.131-.226l.058-20.773a.26.26,0,0,1,.131-.224l3.246-1.888a.263.263,0,0,1,.26,0,.256.256,0,0,1,.129.226l-.058,20.773a.265.265,0,0,1-.129.226l-3.246,1.886a.243.243,0,0,1-.131.036Zm.329-20.884-.058,20.171,2.728-1.584.056-20.171Z" transform="translate(-166.82 -174.358)"/>
    <path id="Path_3721" data-name="Path 3721" class="cls-11" d="M74.258,167.915l3.246-1.886L72.416,152.89l-3.246,1.886Z" transform="translate(-52.337 -115.686)"/>
    <path id="Path_3722" data-name="Path 3722" class="cls-13" d="M178.827,189.292a.274.274,0,0,1-.088-.015.268.268,0,0,1-.156-.153L173.5,175.983a.26.26,0,0,1,.112-.319l3.246-1.886a.26.26,0,0,1,.217-.022.265.265,0,0,1,.158.153l5.088,13.141a.263.263,0,0,1-.112.319l-3.246,1.886A.243.243,0,0,1,178.827,189.292Zm-4.767-13.3,4.9,12.654,2.791-1.621-4.9-12.654Z" transform="translate(-156.906 -136.8)"/>
    <path id="Path_3723" data-name="Path 3723" class="cls-11" d="M53.167,160.64l-5.147,7.23,1.84,1.063L49.8,189.708l6.553,3.782.058-20.773,1.842,1.061Z" transform="translate(-36.334 -121.55)"/>
    <path id="Path_3724" data-name="Path 3724" class="cls-14" d="M160.947,214.909a.243.243,0,0,1-.129-.036l-6.556-3.784a.258.258,0,0,1-.129-.226l.058-20.622-1.7-.988a.26.26,0,0,1-.08-.377l5.137-7.218a.259.259,0,0,1,.453.056l5.088,13.141a.259.259,0,0,1-.372.319l-1.46-.837-.058,20.325a.26.26,0,0,1-.131.224A.243.243,0,0,1,160.947,214.909Zm-6.293-4.2,6.035,3.485.056-20.325a.263.263,0,0,1,.392-.226l1.2.694-4.648-12L153,188.958l1.594.92a.258.258,0,0,1,.129.224Z" transform="translate(-140.926 -142.706)"/>
    <path id="Path_3725" data-name="Path 3725" class="cls-11" d="M160.818,216.85l-.058,20.775S161.171,224.046,160.818,216.85Z" transform="translate(-147.283 -169.418)"/>
    <path id="Path_3726" data-name="Path 3726" class="cls-15" d="M159.975,237.076h0a.26.26,0,0,1-.256-.263l.058-20.773a.26.26,0,0,1,.243-.26.268.268,0,0,1,.268.243c.348,7.123-.056,20.658-.061,20.794a.258.258,0,0,1-.253.258Z" transform="translate(-146.496 -168.608)"/>
    <path id="Path_3729" data-name="Path 3729" class="cls-11" d="M239.57,267.152l4.529-2.631.08-28.971-4.526,2.633Z" transform="translate(-181.27 -178.231)"/>
    <path id="Path_3730" data-name="Path 3730" class="cls-16" d="M344.19,288.568a.277.277,0,0,1-.131-.034.26.26,0,0,1-.129-.226l.08-28.959a.265.265,0,0,1,.131-.224l4.526-2.633a.265.265,0,0,1,.263,0,.26.26,0,0,1,.129.226l-.083,28.959a.258.258,0,0,1-.129.224l-4.529,2.633A.268.268,0,0,1,344.19,288.568Zm.341-29.078-.1,28.365,4.008-2.329.08-28.365Z" transform="translate(-285.878 -199.386)"/>
    <path id="Path_3731" data-name="Path 3731" class="cls-11" d="M228.386,187.305l4.529-2.633-7.1-18.322-4.529,2.633Z" transform="translate(-167.439 -125.871)"/>
    <path id="Path_3732" data-name="Path 3732" class="cls-6" d="M332.959,208.687a.245.245,0,0,1-.085-.015.265.265,0,0,1-.158-.153l-7.1-18.322a.265.265,0,0,1,.112-.319l4.529-2.631a.243.243,0,0,1,.217-.019.263.263,0,0,1,.158.151l7.1,18.322a.263.263,0,0,1-.112.319l-4.529,2.631A.243.243,0,0,1,332.959,208.687Zm-6.773-18.47,6.906,17.83,4.071-2.365-6.906-17.83Z" transform="translate(-272.011 -146.992)"/>
    <path id="Path_3733" data-name="Path 3733" class="cls-11" d="M198.976,177.17,191.8,187.252l2.567,1.48-.083,28.971,9.14,5.276.083-28.969,2.565,1.482Z" transform="translate(-145.125 -134.057)"/>
    <path id="Path_3734" data-name="Path 3734" class="cls-17" d="M308.058,244.358a.277.277,0,0,1-.131-.034l-9.138-5.278a.243.243,0,0,1-.131-.224L298.74,210l-2.434-1.407a.26.26,0,0,1-.083-.375l7.176-10.082a.26.26,0,0,1,.455.056l7.082,18.322a.265.265,0,0,1-.073.292.26.26,0,0,1-.3.027l-2.178-1.256L308.3,244.1a.265.265,0,0,1-.131.224A.274.274,0,0,1,308.058,244.358Zm-8.892-5.7,8.62,4.977.08-28.518a.262.262,0,0,1,.392-.226l1.927,1.115-6.656-17.186-6.731,9.457,2.319,1.338a.263.263,0,0,1,.131.226Z" transform="translate(-249.746 -155.177)"/>
    <path id="Path_3735" data-name="Path 3735" class="cls-11" d="M307.54,246.89l-.08,28.971S308.032,256.926,307.54,246.89Z" transform="translate(-258.283 -192.148)"/>
    <path id="Path_3736" data-name="Path 3736" class="cls-18" d="M306.665,275.34h0a.26.26,0,0,1-.256-.26l.08-28.959a.26.26,0,0,1,.521,0c.487,9.929-.075,28.8-.083,28.991A.258.258,0,0,1,306.665,275.34Z" transform="translate(-257.489 -191.368)"/>
  </g>
</svg>
