<svg xmlns="http://www.w3.org/2000/svg" xmlns:xlink="http://www.w3.org/1999/xlink" viewBox="5122.575 1899 491.279 356.327">
  <defs>
    <style>
      .cls-1 {
        opacity: 0.22;
      }

      .cls-11, .cls-12, .cls-14, .cls-2, .cls-7 {
        fill: #377bd0;
      }

      .cls-15, .cls-3, .cls-6, .cls-9 {
        fill: #fff;
      }

      .cls-4 {
        opacity: 0.11;
        fill: url(#linear-gradient);
      }

      .cls-13, .cls-5 {
        fill: #c5d9f1;
      }

      .cls-5 {
        font-size: 19px;
      }

      .cls-12, .cls-13, .cls-5 {
        font-family: Lato-Regular, Lato;
      }

      .cls-16, .cls-6 {
        stroke: #c5d9f1;
      }

      .cls-12, .cls-13, .cls-7, .cls-9 {
        font-size: 14px;
      }

      .cls-7, .cls-9 {
        font-family: Lato-Medium, Lato;
        font-weight: 500;
      }

      .cls-8 {
        fill: url(#linear-gradient-3);
      }

      .cls-10 {
        fill: #227adb;
      }

      .cls-11 {
        font-size: 15px;
      }

      .cls-11, .cls-15 {
        font-family: Lato-Bold, Lato;
        font-weight: 700;
      }

      .cls-14 {
        font-size: 11px;
        font-family: FontAwesome;
      }

      .cls-16, .cls-18 {
        fill: none;
      }

      .cls-17 {
        stroke: none;
      }

      .cls-19 {
        filter: url(#Path_2712);
      }
    </style>
    <linearGradient id="linear-gradient" x1="1" y1="0.5" x2="0.022" y2="0.5" gradientUnits="objectBoundingBox">
      <stop offset="0" stop-color="#377bd0"/>
      <stop offset="1" stop-color="#c5d9f1"/>
    </linearGradient>
    <linearGradient id="linear-gradient-3" x1="0.5" y1="0" x2="0.5" y2="1" xlink:href="#linear-gradient"/>
    <filter id="Path_2712" x="5122.575" y="1899" width="314.957" height="318.618" filterUnits="userSpaceOnUse">
      <feOffset dy="3" input="SourceAlpha"/>
      <feGaussianBlur stdDeviation="6" result="blur"/>
      <feFlood flood-color="#377bd0" flood-opacity="0.278"/>
      <feComposite operator="in" in2="blur"/>
      <feComposite in="SourceGraphic"/>
    </filter>
  </defs>
  <g id="Group_2278" data-name="Group 2278" transform="translate(4157 1559)">
    <g id="Group_2250" data-name="Group 2250" class="cls-1" transform="translate(1280 402)">
      <g id="Group_1037" data-name="Group 1037" transform="translate(26.602 18.865)">
        <path id="Path_1909" data-name="Path 1909" class="cls-2" d="M21.953,12.174a.711.711,0,0,1-.659-.418C18.28,4.879,15.077,1.394,11.733,1.394h0C5.988,1.394,1.42,11.663,1.372,11.756a.713.713,0,0,1-.942.372A.7.7,0,0,1,.054,11.2C.242,10.734,5.046,0,11.686,0h0c3.956,0,7.582,3.764,10.832,11.2a.713.713,0,0,1-.377.929C22.141,12.174,22.047,12.174,21.953,12.174Z"/>
      </g>
      <g id="Group_1039" data-name="Group 1039" transform="translate(21.024 17.193)">
        <path id="Path_1912" data-name="Path 1912" class="cls-2" d="M32.9,15.52a.68.68,0,0,1-.612-.372C27.531,5.994,22.445,1.394,17.17,1.394h-.141c-8.9.139-15.636,13.615-15.683,13.754a.724.724,0,0,1-.942.325.706.706,0,0,1-.33-.929C.357,13.94,7.233.139,17.029,0h.141C23.01,0,28.52,4.879,33.56,14.544a.687.687,0,0,1-.282.929A1.343,1.343,0,0,1,32.9,15.52Z"/>
      </g>
      <g id="Group_1040" data-name="Group 1040" transform="translate(26.185 0)">
        <path id="Path_1913" data-name="Path 1913" class="cls-3" d="M22.982,11.338A11.4,11.4,0,0,1,11.491,22.676,11.4,11.4,0,0,1,0,11.338,11.4,11.4,0,0,1,11.491,0,11.4,11.4,0,0,1,22.982,11.338Z" transform="translate(0.706 0.697)"/>
        <path id="Path_1914" data-name="Path 1914" class="cls-2" d="M12.2,24.07A12.12,12.12,0,0,1,0,12.035,12.12,12.12,0,0,1,12.2,0,12.12,12.12,0,0,1,24.4,12.035,12.12,12.12,0,0,1,12.2,24.07Zm0-22.676A10.742,10.742,0,0,0,1.413,12.035a10.786,10.786,0,0,0,21.57,0A10.742,10.742,0,0,0,12.2,1.394Z"/>
      </g>
      <g id="Group_1041" data-name="Group 1041" transform="translate(3.25 8.829)">
        <path id="Path_1915" data-name="Path 1915" class="cls-3" d="M65.886,0H59.952a2.323,2.323,0,0,0-2.166,1.44H10.455A2.373,2.373,0,0,0,8.289,0H2.355a2.324,2.324,0,1,0,0,4.647H8.289a2.4,2.4,0,0,0,1.837-.883h47.99a2.265,2.265,0,0,0,1.837.883h5.934a2.324,2.324,0,1,0,0-4.647Z" transform="translate(0.753 0.743)"/>
        <path id="Path_1916" data-name="Path 1916" class="cls-2" d="M66.64,6.134H60.706a3.127,3.127,0,0,1-2.166-.883H11.209a3.128,3.128,0,0,1-2.166.883H3.108A3.115,3.115,0,0,1,0,3.067,3.115,3.115,0,0,1,3.108,0H9.042A3.134,3.134,0,0,1,11.68,1.44H58.068A3.134,3.134,0,0,1,60.706,0H66.64a3.115,3.115,0,0,1,3.108,3.067A3.085,3.085,0,0,1,66.64,6.134ZM10.5,3.764H59.2l.235.279a1.643,1.643,0,0,0,1.224.6h5.934a1.58,1.58,0,1,0,0-3.16H60.659a1.531,1.531,0,0,0-1.46.976l-.188.465H10.738l-.188-.465a1.578,1.578,0,0,0-1.46-.976H3.155a1.58,1.58,0,1,0,0,3.16H9.042a1.569,1.569,0,0,0,1.225-.6Z"/>
      </g>
      <g id="Group_1042" data-name="Group 1042" transform="translate(18.037 6.691)">
        <path id="Path_1917" data-name="Path 1917" class="cls-3" d="M39.278,4.647a4.692,4.692,0,0,1-4.709,4.647H4.71A4.692,4.692,0,0,1,0,4.647H0A4.692,4.692,0,0,1,4.71,0H34.568a4.692,4.692,0,0,1,4.709,4.647Z" transform="translate(0.706 0.697)"/>
        <path id="Path_1918" data-name="Path 1918" class="cls-2" d="M35.274,10.687H5.416A5.344,5.344,0,1,1,5.416,0H35.274A5.381,5.381,0,0,1,40.69,5.344,5.381,5.381,0,0,1,35.274,10.687ZM5.416,1.394a3.95,3.95,0,1,0,0,7.9H35.274a3.95,3.95,0,1,0,0-7.9Z"/>
      </g>
      <g id="Group_1043" data-name="Group 1043" transform="translate(0 6.041)">
        <line id="Line_283" data-name="Line 283" class="cls-3" x2="18.414" transform="translate(0 0.743)"/>
        <rect id="Rectangle_1796" data-name="Rectangle 1796" class="cls-2" width="18.414" height="1.487" transform="translate(0 0)"/>
      </g>
      <g id="Group_1044" data-name="Group 1044" transform="translate(57.739 6.18)">
        <line id="Line_284" data-name="Line 284" class="cls-3" x2="18.414" transform="translate(0 0.743)"/>
        <rect id="Rectangle_1797" data-name="Rectangle 1797" class="cls-2" width="18.414" height="1.487" transform="translate(0 0)"/>
      </g>
      <g id="Group_1047" data-name="Group 1047" transform="translate(30.565 6.877)">
        <path id="Path_1920" data-name="Path 1920" class="cls-3" d="M14.364,1.859A1.877,1.877,0,0,1,12.48,3.717H1.884A1.877,1.877,0,0,1,0,1.859H0A1.877,1.877,0,0,1,1.884,0h10.6a1.877,1.877,0,0,1,1.884,1.859Z" transform="translate(0.753 0.743)"/>
        <path id="Path_1921" data-name="Path 1921" class="cls-2" d="M13.234,5.2H2.637A2.616,2.616,0,0,1,0,2.6,2.616,2.616,0,0,1,2.637,0h10.6a2.616,2.616,0,0,1,2.637,2.6A2.646,2.646,0,0,1,13.234,5.2ZM2.637,1.487A1.138,1.138,0,0,0,1.507,2.6a1.138,1.138,0,0,0,1.13,1.115h10.6A1.138,1.138,0,0,0,14.364,2.6a1.138,1.138,0,0,0-1.13-1.115Z"/>
      </g>
    </g>
    <g id="Group_2259" data-name="Group 2259" class="cls-1" transform="translate(1280 494)">
      <g id="Group_1037-2" data-name="Group 1037" transform="translate(26.602 18.865)">
        <path id="Path_1909-2" data-name="Path 1909" class="cls-2" d="M21.953,12.174a.711.711,0,0,1-.659-.418C18.28,4.879,15.077,1.394,11.733,1.394h0C5.988,1.394,1.42,11.663,1.372,11.756a.713.713,0,0,1-.942.372A.7.7,0,0,1,.054,11.2C.242,10.734,5.046,0,11.686,0h0c3.956,0,7.582,3.764,10.832,11.2a.713.713,0,0,1-.377.929C22.141,12.174,22.047,12.174,21.953,12.174Z"/>
      </g>
      <g id="Group_1039-2" data-name="Group 1039" transform="translate(21.024 17.193)">
        <path id="Path_1912-2" data-name="Path 1912" class="cls-2" d="M32.9,15.52a.68.68,0,0,1-.612-.372C27.531,5.994,22.445,1.394,17.17,1.394h-.141c-8.9.139-15.636,13.615-15.683,13.754a.724.724,0,0,1-.942.325.706.706,0,0,1-.33-.929C.357,13.94,7.233.139,17.029,0h.141C23.01,0,28.52,4.879,33.56,14.544a.687.687,0,0,1-.282.929A1.343,1.343,0,0,1,32.9,15.52Z"/>
      </g>
      <g id="Group_1040-2" data-name="Group 1040" transform="translate(26.185 0)">
        <path id="Path_1913-2" data-name="Path 1913" class="cls-3" d="M22.982,11.338A11.4,11.4,0,0,1,11.491,22.676,11.4,11.4,0,0,1,0,11.338,11.4,11.4,0,0,1,11.491,0,11.4,11.4,0,0,1,22.982,11.338Z" transform="translate(0.706 0.697)"/>
        <path id="Path_1914-2" data-name="Path 1914" class="cls-2" d="M12.2,24.07A12.12,12.12,0,0,1,0,12.035,12.12,12.12,0,0,1,12.2,0,12.12,12.12,0,0,1,24.4,12.035,12.12,12.12,0,0,1,12.2,24.07Zm0-22.676A10.742,10.742,0,0,0,1.413,12.035a10.786,10.786,0,0,0,21.57,0A10.742,10.742,0,0,0,12.2,1.394Z"/>
      </g>
      <g id="Group_1041-2" data-name="Group 1041" transform="translate(3.25 8.829)">
        <path id="Path_1915-2" data-name="Path 1915" class="cls-3" d="M65.886,0H59.952a2.323,2.323,0,0,0-2.166,1.44H10.455A2.373,2.373,0,0,0,8.289,0H2.355a2.324,2.324,0,1,0,0,4.647H8.289a2.4,2.4,0,0,0,1.837-.883h47.99a2.265,2.265,0,0,0,1.837.883h5.934a2.324,2.324,0,1,0,0-4.647Z" transform="translate(0.753 0.743)"/>
        <path id="Path_1916-2" data-name="Path 1916" class="cls-2" d="M66.64,6.134H60.706a3.127,3.127,0,0,1-2.166-.883H11.209a3.128,3.128,0,0,1-2.166.883H3.108A3.115,3.115,0,0,1,0,3.067,3.115,3.115,0,0,1,3.108,0H9.042A3.134,3.134,0,0,1,11.68,1.44H58.068A3.134,3.134,0,0,1,60.706,0H66.64a3.115,3.115,0,0,1,3.108,3.067A3.085,3.085,0,0,1,66.64,6.134ZM10.5,3.764H59.2l.235.279a1.643,1.643,0,0,0,1.224.6h5.934a1.58,1.58,0,1,0,0-3.16H60.659a1.531,1.531,0,0,0-1.46.976l-.188.465H10.738l-.188-.465a1.578,1.578,0,0,0-1.46-.976H3.155a1.58,1.58,0,1,0,0,3.16H9.042a1.569,1.569,0,0,0,1.225-.6Z"/>
      </g>
      <g id="Group_1042-2" data-name="Group 1042" transform="translate(18.037 6.691)">
        <path id="Path_1917-2" data-name="Path 1917" class="cls-3" d="M39.278,4.647a4.692,4.692,0,0,1-4.709,4.647H4.71A4.692,4.692,0,0,1,0,4.647H0A4.692,4.692,0,0,1,4.71,0H34.568a4.692,4.692,0,0,1,4.709,4.647Z" transform="translate(0.706 0.697)"/>
        <path id="Path_1918-2" data-name="Path 1918" class="cls-2" d="M35.274,10.687H5.416A5.344,5.344,0,1,1,5.416,0H35.274A5.381,5.381,0,0,1,40.69,5.344,5.381,5.381,0,0,1,35.274,10.687ZM5.416,1.394a3.95,3.95,0,1,0,0,7.9H35.274a3.95,3.95,0,1,0,0-7.9Z"/>
      </g>
      <g id="Group_1043-2" data-name="Group 1043" transform="translate(0 6.041)">
        <line id="Line_283-2" data-name="Line 283" class="cls-3" x2="18.414" transform="translate(0 0.743)"/>
        <rect id="Rectangle_1796-2" data-name="Rectangle 1796" class="cls-2" width="18.414" height="1.487" transform="translate(0 0)"/>
      </g>
      <g id="Group_1044-2" data-name="Group 1044" transform="translate(57.739 6.18)">
        <line id="Line_284-2" data-name="Line 284" class="cls-3" x2="18.414" transform="translate(0 0.743)"/>
        <rect id="Rectangle_1797-2" data-name="Rectangle 1797" class="cls-2" width="18.414" height="1.487" transform="translate(0 0)"/>
      </g>
      <g id="Group_1047-2" data-name="Group 1047" transform="translate(30.565 6.877)">
        <path id="Path_1920-2" data-name="Path 1920" class="cls-3" d="M14.364,1.859A1.877,1.877,0,0,1,12.48,3.717H1.884A1.877,1.877,0,0,1,0,1.859H0A1.877,1.877,0,0,1,1.884,0h10.6a1.877,1.877,0,0,1,1.884,1.859Z" transform="translate(0.753 0.743)"/>
        <path id="Path_1921-2" data-name="Path 1921" class="cls-2" d="M13.234,5.2H2.637A2.616,2.616,0,0,1,0,2.6,2.616,2.616,0,0,1,2.637,0h10.6a2.616,2.616,0,0,1,2.637,2.6A2.646,2.646,0,0,1,13.234,5.2ZM2.637,1.487A1.138,1.138,0,0,0,1.507,2.6a1.138,1.138,0,0,0,1.13,1.115h10.6A1.138,1.138,0,0,0,14.364,2.6a1.138,1.138,0,0,0-1.13-1.115Z"/>
      </g>
    </g>
    <path id="Path_3084" data-name="Path 3084" class="cls-4" d="M124.2,25.341V0H0V25.341Z" transform="translate(1279.7 444)"/>
    <text id="_" data-name="$" class="cls-5" transform="translate(1289 463)"><tspan x="0" y="0">$</tspan></text>
    <path id="Path_3085" data-name="Path 3085" class="cls-4" d="M124.2,25.341V0H0V25.341Z" transform="translate(1279.7 538.659)"/>
    <text id="_2" data-name="$" class="cls-5" transform="translate(1289 557)"><tspan x="0" y="0">$</tspan></text>
    <g id="Group_2265" data-name="Group 2265" transform="translate(0 -10)">
      <g id="Rectangle_2077" data-name="Rectangle 2077" class="cls-6" transform="translate(1160 631.473)">
        <rect class="cls-17" width="74.854" height="74.854"/>
        <rect class="cls-18" x="0.5" y="0.5" width="73.854" height="73.854"/>
      </g>
      <g id="Rectangle_2058" data-name="Rectangle 2058" class="cls-6" transform="translate(1234 631.473)">
        <rect class="cls-17" width="74.854" height="74.854"/>
        <rect class="cls-18" x="0.5" y="0.5" width="73.854" height="73.854"/>
      </g>
      <g id="Rectangle_2059" data-name="Rectangle 2059" class="cls-6" transform="translate(1308 631.473)">
        <rect class="cls-17" width="74.854" height="74.854"/>
        <rect class="cls-18" x="0.5" y="0.5" width="73.854" height="73.854"/>
      </g>
      <g id="Rectangle_2060" data-name="Rectangle 2060" class="cls-6" transform="translate(1382 631.473)">
        <rect class="cls-17" width="74.854" height="74.854"/>
        <rect class="cls-18" x="0.5" y="0.5" width="73.854" height="73.854"/>
      </g>
      <text id="_1_Month" data-name="1
Month" class="cls-7" transform="translate(1272 662.613)"><tspan x="-4.06" y="0">1</tspan><tspan x="-20.72" y="17">Month</tspan></text>
      <text id="_3_Months" data-name="3
Months" class="cls-7" transform="translate(1345 662.613)"><tspan x="-4.06" y="0">3</tspan><tspan x="-23.762" y="17">Months</tspan></text>
      <text id="_1_Year" data-name="1
Year" class="cls-7" transform="translate(1419 662.613)"><tspan x="-4.06" y="0">1</tspan><tspan x="-13.405" y="17">Year</tspan></text>
      <text id="_1_Day" data-name="1
Day" class="cls-7" transform="translate(1198 662.613)"><tspan x="-4.06" y="0">1</tspan><tspan x="-12.268" y="17">Day</tspan></text>
      <path id="Path_3091" data-name="Path 3091" class="cls-8" d="M.5.5H74.354V74.354H.5Z" transform="translate(1085.5 631.473)"/>
      <text id="Custom" class="cls-9" transform="translate(1123 672.976)"><tspan x="-23.845" y="0">Custom</tspan></text>
    </g>
    <g id="Group_2221" data-name="Group 2221" transform="translate(982.6 355)">
      <g class="cls-19" transform="matrix(1, 0, 0, 1, -5139.6, -1914)">
        <path id="Path_2712-2" data-name="Path 2712" class="cls-3" d="M4.359,0H274.6a4.292,4.292,0,0,1,4.359,4.222v265.4a4.292,4.292,0,0,1-4.359,4.222H147.74l-10.615,8.77-11.36-8.77H4.359A4.292,4.292,0,0,1,0,269.626V4.222A4.292,4.292,0,0,1,4.359,0Z" transform="translate(5140.58 1914)"/>
      </g>
      <rect id="Rectangle_2070" data-name="Rectangle 2070" class="cls-10" width="212.933" height="26.152" rx="13.076" transform="translate(49.73 191.347)"/>
      <text id="December_2017" data-name="December, 2017" class="cls-11" transform="translate(0 16.231)"><tspan x="84.252" y="15">December, 2017</tspan></text>
      <text id="_01_02_03_04_05" data-name="01     02     03     04     05" class="cls-12" transform="translate(99.525 114.158)"><tspan x="0" y="0" xml:space="preserve">01     02     03     04     05</tspan></text>
      <text id="Su_Mo_Tu_We_Th_Fr_Sa" data-name="Su     Mo    Tu     We    Th      Fr      Sa" class="cls-13" transform="translate(24.285 63.228)"><tspan x="0" y="0" xml:space="preserve">Su     Mo    Tu     We    Th      Fr      Sa</tspan></text>
      <text id="_3" data-name="" class="cls-14" transform="translate(246.702 30.947) rotate(-90)"><tspan x="0" y="0"></tspan></text>
      <text id="_4" data-name="" class="cls-14" transform="translate(30.511 22.229) rotate(90)"><tspan x="0" y="0"></tspan></text>
      <text id="_06_07_08_09_10_11_12_13_14_15_16_17_18_19_20_21_22_23_24_25_26_27_28_20_30_31" data-name="06     07     08     09     10     11     12
13     14     15     16     17     18     19
20     21     22     23     24     25     26
27     28     20     30     31" class="cls-12" transform="translate(28.31 145.66)"><tspan x="0" y="0" xml:space="preserve">06     07     08     09     10     11     12</tspan><tspan x="0" y="32" xml:space="preserve">13     14     15     16     17     18     19</tspan><tspan x="0" y="64" xml:space="preserve">20    </tspan><tspan class="cls-3" y="64"> </tspan><tspan class="cls-15" y="64">21</tspan><tspan class="cls-3" y="64" xml:space="preserve">     22     23     24     25     26</tspan><tspan x="0" y="96" xml:space="preserve">27     28     20     30     31</tspan></text>
      <line id="Line_482" data-name="Line 482" class="cls-16" x2="278.956" transform="translate(0.436 80.2)"/>
    </g>
  </g>
</svg>
