<svg xmlns="http://www.w3.org/2000/svg" xmlns:xlink="http://www.w3.org/1999/xlink" viewBox="1257.5 1961 377 262">
  <defs>
    <style>
      .cls-1, .cls-5, .cls-8 {
        fill: #fff;
      }

      .cls-1, .cls-7 {
        stroke: #c5d9f1;
      }

      .cls-2, .cls-6 {
        fill: #c5d9f1;
      }

      .cls-2 {
        opacity: 0.35;
      }

      .cls-3, .cls-4 {
        fill: #377bd0;
      }

      .cls-3, .cls-6 {
        font-size: 22px;
      }

      .cls-3, .cls-5, .cls-6 {
        font-family: FontAwesome;
      }

      .cls-5 {
        font-size: 11px;
      }

      .cls-11, .cls-7 {
        fill: none;
      }

      .cls-9 {
        opacity: 0.23;
      }

      .cls-10 {
        stroke: none;
      }

      .cls-12 {
        filter: url(#Path_3093);
      }

      .cls-13 {
        filter: url(#_2);
      }

      .cls-14 {
        filter: url(#Rectangle_125);
      }

      .cls-15 {
        filter: url(#_);
      }
    </style>
    <filter id="_" x="1605.5" y="1964.5" width="29" height="31" filterUnits="userSpaceOnUse">
      <feOffset dy="3" input="SourceAlpha"/>
      <feGaussianBlur stdDeviation="1.5" result="blur"/>
      <feFlood flood-color="#377bd0" flood-opacity="0.38"/>
      <feComposite operator="in" in2="blur"/>
      <feComposite in="SourceGraphic"/>
    </filter>
    <filter id="Rectangle_125" x="1257.5" y="2038.5" width="27.304" height="27.304" filterUnits="userSpaceOnUse">
      <feOffset dy="3" input="SourceAlpha"/>
      <feGaussianBlur stdDeviation="1.5" result="blur-2"/>
      <feFlood flood-color="#377bd0" flood-opacity="0.38"/>
      <feComposite operator="in" in2="blur-2"/>
      <feComposite in="SourceGraphic"/>
    </filter>
    <filter id="_2" x="1605.5" y="2036.5" width="29" height="31" filterUnits="userSpaceOnUse">
      <feOffset dy="3" input="SourceAlpha"/>
      <feGaussianBlur stdDeviation="1.5" result="blur-3"/>
      <feFlood flood-color="#377bd0" flood-opacity="0.38"/>
      <feComposite operator="in" in2="blur-3"/>
      <feComposite in="SourceGraphic"/>
    </filter>
    <filter id="Path_3093" x="1257.5" y="1966.5" width="27.304" height="27.304" filterUnits="userSpaceOnUse">
      <feOffset dy="3" input="SourceAlpha"/>
      <feGaussianBlur stdDeviation="1.5" result="blur-4"/>
      <feFlood flood-color="#377bd0" flood-opacity="0.38"/>
      <feComposite operator="in" in2="blur-4"/>
      <feComposite in="SourceGraphic"/>
    </filter>
  </defs>
  <g id="Group_2280" data-name="Group 2280" transform="translate(177 1559)">
    <g id="Rectangle_2059" data-name="Rectangle 2059" class="cls-1" transform="translate(1085 621)">
      <rect class="cls-10" width="18.304" height="18.304" rx="3"/>
      <rect class="cls-11" x="0.5" y="0.5" width="17.304" height="17.304" rx="2.5"/>
    </g>
    <rect id="Rectangle_2170" data-name="Rectangle 2170" class="cls-2" width="212.496" height="20.348" rx="10" transform="translate(1203.704 408)"/>
    <g class="cls-15" transform="matrix(1, 0, 0, 1, -177, -1559)">
      <text id="_3" data-name="" class="cls-3" transform="translate(1620 1985)"><tspan x="-9.429" y="0"></tspan></text>
    </g>
    <g id="Group_2213" data-name="Group 2213" transform="translate(1085 481)">
      <g class="cls-14" transform="matrix(1, 0, 0, 1, -1262, -2040)">
        <rect id="Rectangle_125-2" data-name="Rectangle 125" class="cls-4" width="18.304" height="18.304" rx="3" transform="translate(1262 2040)"/>
      </g>
      <text id="_4" data-name="" class="cls-5" transform="translate(3.225 13.397)"><tspan x="0" y="0"></tspan></text>
    </g>
    <rect id="Rectangle_2231" data-name="Rectangle 2231" class="cls-2" width="212.608" height="20.348" rx="10" transform="translate(1203.704 480)"/>
    <rect id="Rectangle_2232" data-name="Rectangle 2232" class="cls-2" width="212.496" height="20.348" rx="10" transform="translate(1203.704 554)"/>
    <rect id="Rectangle_2233" data-name="Rectangle 2233" class="cls-2" width="212.019" height="20.348" rx="10" transform="translate(1203.704 620)"/>
    <g id="Rectangle_2234" data-name="Rectangle 2234" class="cls-1" transform="translate(1085 555)">
      <rect class="cls-10" width="18.304" height="18.304" rx="3"/>
      <rect class="cls-11" x="0.5" y="0.5" width="17.304" height="17.304" rx="2.5"/>
    </g>
    <g class="cls-13" transform="matrix(1, 0, 0, 1, -177, -1559)">
      <text id="_5" data-name="" class="cls-3" transform="translate(1620 2057)"><tspan x="-9.429" y="0"></tspan></text>
    </g>
    <text id="_6" data-name="" class="cls-6" transform="translate(1443 572)"><tspan x="-9.429" y="0"></tspan></text>
    <text id="_7" data-name="" class="cls-6" transform="translate(1443 638)"><tspan x="-9.429" y="0"></tspan></text>
    <line id="Line_669" data-name="Line 669" class="cls-7" x2="371" transform="translate(1085.5 452.5)"/>
    <line id="Line_670" data-name="Line 670" class="cls-7" x2="371" transform="translate(1085.5 663.5)"/>
    <line id="Line_671" data-name="Line 671" class="cls-7" x2="371" transform="translate(1085.5 594.5)"/>
    <line id="Line_672" data-name="Line 672" class="cls-7" x2="371" transform="translate(1085.5 527.5)"/>
    <g id="Group_2219" data-name="Group 2219" transform="translate(1085 409)">
      <g class="cls-12" transform="matrix(1, 0, 0, 1, -1262, -1968)">
        <path id="Path_3093-2" data-name="Path 3093" class="cls-4" d="M3,0H15.3a3,3,0,0,1,3,3V15.3a3,3,0,0,1-3,3H3a3,3,0,0,1-3-3V3A3,3,0,0,1,3,0Z" transform="translate(1262 1968)"/>
      </g>
      <text id="_8" data-name="" class="cls-5" transform="translate(3.225 13.397)"><tspan x="0" y="0"></tspan></text>
    </g>
    <g id="Group_2237" data-name="Group 2237" transform="translate(1116.867 402)">
      <g id="Group_1037" data-name="Group 1037" transform="translate(26.602 18.865)">
        <path id="Path_1909" data-name="Path 1909" class="cls-4" d="M21.953,12.174a.711.711,0,0,1-.659-.418C18.28,4.879,15.077,1.394,11.733,1.394h0C5.988,1.394,1.42,11.663,1.372,11.756a.713.713,0,0,1-.942.372A.7.7,0,0,1,.054,11.2C.242,10.734,5.046,0,11.686,0h0c3.956,0,7.582,3.764,10.832,11.2a.713.713,0,0,1-.377.929C22.141,12.174,22.047,12.174,21.953,12.174Z"/>
      </g>
      <g id="Group_1039" data-name="Group 1039" transform="translate(21.024 17.193)">
        <path id="Path_1912" data-name="Path 1912" class="cls-4" d="M32.9,15.52a.68.68,0,0,1-.612-.372C27.531,5.994,22.445,1.394,17.17,1.394h-.141c-8.9.139-15.636,13.615-15.683,13.754a.724.724,0,0,1-.942.325.706.706,0,0,1-.33-.929C.357,13.94,7.233.139,17.029,0h.141C23.01,0,28.52,4.879,33.56,14.544a.687.687,0,0,1-.282.929A1.343,1.343,0,0,1,32.9,15.52Z"/>
      </g>
      <g id="Group_1040" data-name="Group 1040" transform="translate(26.185 0)">
        <path id="Path_1913" data-name="Path 1913" class="cls-8" d="M22.982,11.338A11.4,11.4,0,0,1,11.491,22.676,11.4,11.4,0,0,1,0,11.338,11.4,11.4,0,0,1,11.491,0,11.4,11.4,0,0,1,22.982,11.338Z" transform="translate(0.706 0.697)"/>
        <path id="Path_1914" data-name="Path 1914" class="cls-4" d="M12.2,24.07A12.12,12.12,0,0,1,0,12.035,12.12,12.12,0,0,1,12.2,0,12.12,12.12,0,0,1,24.4,12.035,12.12,12.12,0,0,1,12.2,24.07Zm0-22.676A10.742,10.742,0,0,0,1.413,12.035a10.786,10.786,0,0,0,21.57,0A10.742,10.742,0,0,0,12.2,1.394Z"/>
      </g>
      <g id="Group_1041" data-name="Group 1041" transform="translate(3.25 8.829)">
        <path id="Path_1915" data-name="Path 1915" class="cls-8" d="M65.886,0H59.952a2.323,2.323,0,0,0-2.166,1.44H10.455A2.373,2.373,0,0,0,8.289,0H2.355a2.324,2.324,0,1,0,0,4.647H8.289a2.4,2.4,0,0,0,1.837-.883h47.99a2.265,2.265,0,0,0,1.837.883h5.934a2.324,2.324,0,1,0,0-4.647Z" transform="translate(0.753 0.743)"/>
        <path id="Path_1916" data-name="Path 1916" class="cls-4" d="M66.64,6.134H60.706a3.127,3.127,0,0,1-2.166-.883H11.209a3.128,3.128,0,0,1-2.166.883H3.108A3.115,3.115,0,0,1,0,3.067,3.115,3.115,0,0,1,3.108,0H9.042A3.134,3.134,0,0,1,11.68,1.44H58.068A3.134,3.134,0,0,1,60.706,0H66.64a3.115,3.115,0,0,1,3.108,3.067A3.085,3.085,0,0,1,66.64,6.134ZM10.5,3.764H59.2l.235.279a1.643,1.643,0,0,0,1.224.6h5.934a1.58,1.58,0,1,0,0-3.16H60.659a1.531,1.531,0,0,0-1.46.976l-.188.465H10.738l-.188-.465a1.578,1.578,0,0,0-1.46-.976H3.155a1.58,1.58,0,1,0,0,3.16H9.042a1.569,1.569,0,0,0,1.225-.6Z"/>
      </g>
      <g id="Group_1042" data-name="Group 1042" transform="translate(18.037 6.691)">
        <path id="Path_1917" data-name="Path 1917" class="cls-8" d="M39.278,4.647a4.692,4.692,0,0,1-4.709,4.647H4.71A4.692,4.692,0,0,1,0,4.647H0A4.692,4.692,0,0,1,4.71,0H34.568a4.692,4.692,0,0,1,4.709,4.647Z" transform="translate(0.706 0.697)"/>
        <path id="Path_1918" data-name="Path 1918" class="cls-4" d="M35.274,10.687H5.416A5.344,5.344,0,1,1,5.416,0H35.274A5.381,5.381,0,0,1,40.69,5.344,5.381,5.381,0,0,1,35.274,10.687ZM5.416,1.394a3.95,3.95,0,1,0,0,7.9H35.274a3.95,3.95,0,1,0,0-7.9Z"/>
      </g>
      <g id="Group_1043" data-name="Group 1043" transform="translate(0 6.041)">
        <line id="Line_283" data-name="Line 283" class="cls-8" x2="18.414" transform="translate(0 0.743)"/>
        <rect id="Rectangle_1796" data-name="Rectangle 1796" class="cls-4" width="18.414" height="1.487" transform="translate(0 0)"/>
      </g>
      <g id="Group_1044" data-name="Group 1044" transform="translate(57.739 6.18)">
        <line id="Line_284" data-name="Line 284" class="cls-8" x2="18.414" transform="translate(0 0.743)"/>
        <rect id="Rectangle_1797" data-name="Rectangle 1797" class="cls-4" width="18.414" height="1.487" transform="translate(0 0)"/>
      </g>
      <g id="Group_1047" data-name="Group 1047" transform="translate(30.565 6.877)">
        <path id="Path_1920" data-name="Path 1920" class="cls-8" d="M14.364,1.859A1.877,1.877,0,0,1,12.48,3.717H1.884A1.877,1.877,0,0,1,0,1.859H0A1.877,1.877,0,0,1,1.884,0h10.6a1.877,1.877,0,0,1,1.884,1.859Z" transform="translate(0.753 0.743)"/>
        <path id="Path_1921" data-name="Path 1921" class="cls-4" d="M13.234,5.2H2.637A2.616,2.616,0,0,1,0,2.6,2.616,2.616,0,0,1,2.637,0h10.6a2.616,2.616,0,0,1,2.637,2.6A2.646,2.646,0,0,1,13.234,5.2ZM2.637,1.487A1.138,1.138,0,0,0,1.507,2.6a1.138,1.138,0,0,0,1.13,1.115h10.6A1.138,1.138,0,0,0,14.364,2.6a1.138,1.138,0,0,0-1.13-1.115Z"/>
      </g>
    </g>
    <g id="Group_2238" data-name="Group 2238" transform="translate(1116.867 474)">
      <g id="Group_1037-2" data-name="Group 1037" transform="translate(26.602 18.865)">
        <path id="Path_1909-2" data-name="Path 1909" class="cls-4" d="M21.953,12.174a.711.711,0,0,1-.659-.418C18.28,4.879,15.077,1.394,11.733,1.394h0C5.988,1.394,1.42,11.663,1.372,11.756a.713.713,0,0,1-.942.372A.7.7,0,0,1,.054,11.2C.242,10.734,5.046,0,11.686,0h0c3.956,0,7.582,3.764,10.832,11.2a.713.713,0,0,1-.377.929C22.141,12.174,22.047,12.174,21.953,12.174Z"/>
      </g>
      <g id="Group_1039-2" data-name="Group 1039" transform="translate(21.024 17.193)">
        <path id="Path_1912-2" data-name="Path 1912" class="cls-4" d="M32.9,15.52a.68.68,0,0,1-.612-.372C27.531,5.994,22.445,1.394,17.17,1.394h-.141c-8.9.139-15.636,13.615-15.683,13.754a.724.724,0,0,1-.942.325.706.706,0,0,1-.33-.929C.357,13.94,7.233.139,17.029,0h.141C23.01,0,28.52,4.879,33.56,14.544a.687.687,0,0,1-.282.929A1.343,1.343,0,0,1,32.9,15.52Z"/>
      </g>
      <g id="Group_1040-2" data-name="Group 1040" transform="translate(26.185 0)">
        <path id="Path_1913-2" data-name="Path 1913" class="cls-8" d="M22.982,11.338A11.4,11.4,0,0,1,11.491,22.676,11.4,11.4,0,0,1,0,11.338,11.4,11.4,0,0,1,11.491,0,11.4,11.4,0,0,1,22.982,11.338Z" transform="translate(0.706 0.697)"/>
        <path id="Path_1914-2" data-name="Path 1914" class="cls-4" d="M12.2,24.07A12.12,12.12,0,0,1,0,12.035,12.12,12.12,0,0,1,12.2,0,12.12,12.12,0,0,1,24.4,12.035,12.12,12.12,0,0,1,12.2,24.07Zm0-22.676A10.742,10.742,0,0,0,1.413,12.035a10.786,10.786,0,0,0,21.57,0A10.742,10.742,0,0,0,12.2,1.394Z"/>
      </g>
      <g id="Group_1041-2" data-name="Group 1041" transform="translate(3.25 8.829)">
        <path id="Path_1915-2" data-name="Path 1915" class="cls-8" d="M65.886,0H59.952a2.323,2.323,0,0,0-2.166,1.44H10.455A2.373,2.373,0,0,0,8.289,0H2.355a2.324,2.324,0,1,0,0,4.647H8.289a2.4,2.4,0,0,0,1.837-.883h47.99a2.265,2.265,0,0,0,1.837.883h5.934a2.324,2.324,0,1,0,0-4.647Z" transform="translate(0.753 0.743)"/>
        <path id="Path_1916-2" data-name="Path 1916" class="cls-4" d="M66.64,6.134H60.706a3.127,3.127,0,0,1-2.166-.883H11.209a3.128,3.128,0,0,1-2.166.883H3.108A3.115,3.115,0,0,1,0,3.067,3.115,3.115,0,0,1,3.108,0H9.042A3.134,3.134,0,0,1,11.68,1.44H58.068A3.134,3.134,0,0,1,60.706,0H66.64a3.115,3.115,0,0,1,3.108,3.067A3.085,3.085,0,0,1,66.64,6.134ZM10.5,3.764H59.2l.235.279a1.643,1.643,0,0,0,1.224.6h5.934a1.58,1.58,0,1,0,0-3.16H60.659a1.531,1.531,0,0,0-1.46.976l-.188.465H10.738l-.188-.465a1.578,1.578,0,0,0-1.46-.976H3.155a1.58,1.58,0,1,0,0,3.16H9.042a1.569,1.569,0,0,0,1.225-.6Z"/>
      </g>
      <g id="Group_1042-2" data-name="Group 1042" transform="translate(18.037 6.691)">
        <path id="Path_1917-2" data-name="Path 1917" class="cls-8" d="M39.278,4.647a4.692,4.692,0,0,1-4.709,4.647H4.71A4.692,4.692,0,0,1,0,4.647H0A4.692,4.692,0,0,1,4.71,0H34.568a4.692,4.692,0,0,1,4.709,4.647Z" transform="translate(0.706 0.697)"/>
        <path id="Path_1918-2" data-name="Path 1918" class="cls-4" d="M35.274,10.687H5.416A5.344,5.344,0,1,1,5.416,0H35.274A5.381,5.381,0,0,1,40.69,5.344,5.381,5.381,0,0,1,35.274,10.687ZM5.416,1.394a3.95,3.95,0,1,0,0,7.9H35.274a3.95,3.95,0,1,0,0-7.9Z"/>
      </g>
      <g id="Group_1043-2" data-name="Group 1043" transform="translate(0 6.041)">
        <line id="Line_283-2" data-name="Line 283" class="cls-8" x2="18.414" transform="translate(0 0.743)"/>
        <rect id="Rectangle_1796-2" data-name="Rectangle 1796" class="cls-4" width="18.414" height="1.487" transform="translate(0 0)"/>
      </g>
      <g id="Group_1044-2" data-name="Group 1044" transform="translate(57.739 6.18)">
        <line id="Line_284-2" data-name="Line 284" class="cls-8" x2="18.414" transform="translate(0 0.743)"/>
        <rect id="Rectangle_1797-2" data-name="Rectangle 1797" class="cls-4" width="18.414" height="1.487" transform="translate(0 0)"/>
      </g>
      <g id="Group_1047-2" data-name="Group 1047" transform="translate(30.565 6.877)">
        <path id="Path_1920-2" data-name="Path 1920" class="cls-8" d="M14.364,1.859A1.877,1.877,0,0,1,12.48,3.717H1.884A1.877,1.877,0,0,1,0,1.859H0A1.877,1.877,0,0,1,1.884,0h10.6a1.877,1.877,0,0,1,1.884,1.859Z" transform="translate(0.753 0.743)"/>
        <path id="Path_1921-2" data-name="Path 1921" class="cls-4" d="M13.234,5.2H2.637A2.616,2.616,0,0,1,0,2.6,2.616,2.616,0,0,1,2.637,0h10.6a2.616,2.616,0,0,1,2.637,2.6A2.646,2.646,0,0,1,13.234,5.2ZM2.637,1.487A1.138,1.138,0,0,0,1.507,2.6a1.138,1.138,0,0,0,1.13,1.115h10.6A1.138,1.138,0,0,0,14.364,2.6a1.138,1.138,0,0,0-1.13-1.115Z"/>
      </g>
    </g>
    <g id="Group_2239" data-name="Group 2239" class="cls-9" transform="translate(1116.867 548)">
      <g id="Group_1037-3" data-name="Group 1037" transform="translate(26.602 18.865)">
        <path id="Path_1909-3" data-name="Path 1909" class="cls-4" d="M21.953,12.174a.711.711,0,0,1-.659-.418C18.28,4.879,15.077,1.394,11.733,1.394h0C5.988,1.394,1.42,11.663,1.372,11.756a.713.713,0,0,1-.942.372A.7.7,0,0,1,.054,11.2C.242,10.734,5.046,0,11.686,0h0c3.956,0,7.582,3.764,10.832,11.2a.713.713,0,0,1-.377.929C22.141,12.174,22.047,12.174,21.953,12.174Z"/>
      </g>
      <g id="Group_1039-3" data-name="Group 1039" transform="translate(21.024 17.193)">
        <path id="Path_1912-3" data-name="Path 1912" class="cls-4" d="M32.9,15.52a.68.68,0,0,1-.612-.372C27.531,5.994,22.445,1.394,17.17,1.394h-.141c-8.9.139-15.636,13.615-15.683,13.754a.724.724,0,0,1-.942.325.706.706,0,0,1-.33-.929C.357,13.94,7.233.139,17.029,0h.141C23.01,0,28.52,4.879,33.56,14.544a.687.687,0,0,1-.282.929A1.343,1.343,0,0,1,32.9,15.52Z"/>
      </g>
      <g id="Group_1040-3" data-name="Group 1040" transform="translate(26.185 0)">
        <path id="Path_1913-3" data-name="Path 1913" class="cls-8" d="M22.982,11.338A11.4,11.4,0,0,1,11.491,22.676,11.4,11.4,0,0,1,0,11.338,11.4,11.4,0,0,1,11.491,0,11.4,11.4,0,0,1,22.982,11.338Z" transform="translate(0.706 0.697)"/>
        <path id="Path_1914-3" data-name="Path 1914" class="cls-4" d="M12.2,24.07A12.12,12.12,0,0,1,0,12.035,12.12,12.12,0,0,1,12.2,0,12.12,12.12,0,0,1,24.4,12.035,12.12,12.12,0,0,1,12.2,24.07Zm0-22.676A10.742,10.742,0,0,0,1.413,12.035a10.786,10.786,0,0,0,21.57,0A10.742,10.742,0,0,0,12.2,1.394Z"/>
      </g>
      <g id="Group_1041-3" data-name="Group 1041" transform="translate(3.25 8.829)">
        <path id="Path_1915-3" data-name="Path 1915" class="cls-8" d="M65.886,0H59.952a2.323,2.323,0,0,0-2.166,1.44H10.455A2.373,2.373,0,0,0,8.289,0H2.355a2.324,2.324,0,1,0,0,4.647H8.289a2.4,2.4,0,0,0,1.837-.883h47.99a2.265,2.265,0,0,0,1.837.883h5.934a2.324,2.324,0,1,0,0-4.647Z" transform="translate(0.753 0.743)"/>
        <path id="Path_1916-3" data-name="Path 1916" class="cls-4" d="M66.64,6.134H60.706a3.127,3.127,0,0,1-2.166-.883H11.209a3.128,3.128,0,0,1-2.166.883H3.108A3.115,3.115,0,0,1,0,3.067,3.115,3.115,0,0,1,3.108,0H9.042A3.134,3.134,0,0,1,11.68,1.44H58.068A3.134,3.134,0,0,1,60.706,0H66.64a3.115,3.115,0,0,1,3.108,3.067A3.085,3.085,0,0,1,66.64,6.134ZM10.5,3.764H59.2l.235.279a1.643,1.643,0,0,0,1.224.6h5.934a1.58,1.58,0,1,0,0-3.16H60.659a1.531,1.531,0,0,0-1.46.976l-.188.465H10.738l-.188-.465a1.578,1.578,0,0,0-1.46-.976H3.155a1.58,1.58,0,1,0,0,3.16H9.042a1.569,1.569,0,0,0,1.225-.6Z"/>
      </g>
      <g id="Group_1042-3" data-name="Group 1042" transform="translate(18.037 6.691)">
        <path id="Path_1917-3" data-name="Path 1917" class="cls-8" d="M39.278,4.647a4.692,4.692,0,0,1-4.709,4.647H4.71A4.692,4.692,0,0,1,0,4.647H0A4.692,4.692,0,0,1,4.71,0H34.568a4.692,4.692,0,0,1,4.709,4.647Z" transform="translate(0.706 0.697)"/>
        <path id="Path_1918-3" data-name="Path 1918" class="cls-4" d="M35.274,10.687H5.416A5.344,5.344,0,1,1,5.416,0H35.274A5.381,5.381,0,0,1,40.69,5.344,5.381,5.381,0,0,1,35.274,10.687ZM5.416,1.394a3.95,3.95,0,1,0,0,7.9H35.274a3.95,3.95,0,1,0,0-7.9Z"/>
      </g>
      <g id="Group_1043-3" data-name="Group 1043" transform="translate(0 6.041)">
        <line id="Line_283-3" data-name="Line 283" class="cls-8" x2="18.414" transform="translate(0 0.743)"/>
        <rect id="Rectangle_1796-3" data-name="Rectangle 1796" class="cls-4" width="18.414" height="1.487" transform="translate(0 0)"/>
      </g>
      <g id="Group_1044-3" data-name="Group 1044" transform="translate(57.739 6.18)">
        <line id="Line_284-3" data-name="Line 284" class="cls-8" x2="18.414" transform="translate(0 0.743)"/>
        <rect id="Rectangle_1797-3" data-name="Rectangle 1797" class="cls-4" width="18.414" height="1.487" transform="translate(0 0)"/>
      </g>
      <g id="Group_1047-3" data-name="Group 1047" transform="translate(30.565 6.877)">
        <path id="Path_1920-3" data-name="Path 1920" class="cls-8" d="M14.364,1.859A1.877,1.877,0,0,1,12.48,3.717H1.884A1.877,1.877,0,0,1,0,1.859H0A1.877,1.877,0,0,1,1.884,0h10.6a1.877,1.877,0,0,1,1.884,1.859Z" transform="translate(0.753 0.743)"/>
        <path id="Path_1921-3" data-name="Path 1921" class="cls-4" d="M13.234,5.2H2.637A2.616,2.616,0,0,1,0,2.6,2.616,2.616,0,0,1,2.637,0h10.6a2.616,2.616,0,0,1,2.637,2.6A2.646,2.646,0,0,1,13.234,5.2ZM2.637,1.487A1.138,1.138,0,0,0,1.507,2.6a1.138,1.138,0,0,0,1.13,1.115h10.6A1.138,1.138,0,0,0,14.364,2.6a1.138,1.138,0,0,0-1.13-1.115Z"/>
      </g>
    </g>
    <g id="Group_2240" data-name="Group 2240" class="cls-9" transform="translate(1116.867 614)">
      <g id="Group_1037-4" data-name="Group 1037" transform="translate(26.602 18.865)">
        <path id="Path_1909-4" data-name="Path 1909" class="cls-4" d="M21.953,12.174a.711.711,0,0,1-.659-.418C18.28,4.879,15.077,1.394,11.733,1.394h0C5.988,1.394,1.42,11.663,1.372,11.756a.713.713,0,0,1-.942.372A.7.7,0,0,1,.054,11.2C.242,10.734,5.046,0,11.686,0h0c3.956,0,7.582,3.764,10.832,11.2a.713.713,0,0,1-.377.929C22.141,12.174,22.047,12.174,21.953,12.174Z"/>
      </g>
      <g id="Group_1039-4" data-name="Group 1039" transform="translate(21.024 17.193)">
        <path id="Path_1912-4" data-name="Path 1912" class="cls-4" d="M32.9,15.52a.68.68,0,0,1-.612-.372C27.531,5.994,22.445,1.394,17.17,1.394h-.141c-8.9.139-15.636,13.615-15.683,13.754a.724.724,0,0,1-.942.325.706.706,0,0,1-.33-.929C.357,13.94,7.233.139,17.029,0h.141C23.01,0,28.52,4.879,33.56,14.544a.687.687,0,0,1-.282.929A1.343,1.343,0,0,1,32.9,15.52Z"/>
      </g>
      <g id="Group_1040-4" data-name="Group 1040" transform="translate(26.185 0)">
        <path id="Path_1913-4" data-name="Path 1913" class="cls-8" d="M22.982,11.338A11.4,11.4,0,0,1,11.491,22.676,11.4,11.4,0,0,1,0,11.338,11.4,11.4,0,0,1,11.491,0,11.4,11.4,0,0,1,22.982,11.338Z" transform="translate(0.706 0.697)"/>
        <path id="Path_1914-4" data-name="Path 1914" class="cls-4" d="M12.2,24.07A12.12,12.12,0,0,1,0,12.035,12.12,12.12,0,0,1,12.2,0,12.12,12.12,0,0,1,24.4,12.035,12.12,12.12,0,0,1,12.2,24.07Zm0-22.676A10.742,10.742,0,0,0,1.413,12.035a10.786,10.786,0,0,0,21.57,0A10.742,10.742,0,0,0,12.2,1.394Z"/>
      </g>
      <g id="Group_1041-4" data-name="Group 1041" transform="translate(3.25 8.829)">
        <path id="Path_1915-4" data-name="Path 1915" class="cls-8" d="M65.886,0H59.952a2.323,2.323,0,0,0-2.166,1.44H10.455A2.373,2.373,0,0,0,8.289,0H2.355a2.324,2.324,0,1,0,0,4.647H8.289a2.4,2.4,0,0,0,1.837-.883h47.99a2.265,2.265,0,0,0,1.837.883h5.934a2.324,2.324,0,1,0,0-4.647Z" transform="translate(0.753 0.743)"/>
        <path id="Path_1916-4" data-name="Path 1916" class="cls-4" d="M66.64,6.134H60.706a3.127,3.127,0,0,1-2.166-.883H11.209a3.128,3.128,0,0,1-2.166.883H3.108A3.115,3.115,0,0,1,0,3.067,3.115,3.115,0,0,1,3.108,0H9.042A3.134,3.134,0,0,1,11.68,1.44H58.068A3.134,3.134,0,0,1,60.706,0H66.64a3.115,3.115,0,0,1,3.108,3.067A3.085,3.085,0,0,1,66.64,6.134ZM10.5,3.764H59.2l.235.279a1.643,1.643,0,0,0,1.224.6h5.934a1.58,1.58,0,1,0,0-3.16H60.659a1.531,1.531,0,0,0-1.46.976l-.188.465H10.738l-.188-.465a1.578,1.578,0,0,0-1.46-.976H3.155a1.58,1.58,0,1,0,0,3.16H9.042a1.569,1.569,0,0,0,1.225-.6Z"/>
      </g>
      <g id="Group_1042-4" data-name="Group 1042" transform="translate(18.037 6.691)">
        <path id="Path_1917-4" data-name="Path 1917" class="cls-8" d="M39.278,4.647a4.692,4.692,0,0,1-4.709,4.647H4.71A4.692,4.692,0,0,1,0,4.647H0A4.692,4.692,0,0,1,4.71,0H34.568a4.692,4.692,0,0,1,4.709,4.647Z" transform="translate(0.706 0.697)"/>
        <path id="Path_1918-4" data-name="Path 1918" class="cls-4" d="M35.274,10.687H5.416A5.344,5.344,0,1,1,5.416,0H35.274A5.381,5.381,0,0,1,40.69,5.344,5.381,5.381,0,0,1,35.274,10.687ZM5.416,1.394a3.95,3.95,0,1,0,0,7.9H35.274a3.95,3.95,0,1,0,0-7.9Z"/>
      </g>
      <g id="Group_1043-4" data-name="Group 1043" transform="translate(0 6.041)">
        <line id="Line_283-4" data-name="Line 283" class="cls-8" x2="18.414" transform="translate(0 0.743)"/>
        <rect id="Rectangle_1796-4" data-name="Rectangle 1796" class="cls-4" width="18.414" height="1.487" transform="translate(0 0)"/>
      </g>
      <g id="Group_1044-4" data-name="Group 1044" transform="translate(57.739 6.18)">
        <line id="Line_284-4" data-name="Line 284" class="cls-8" x2="18.414" transform="translate(0 0.743)"/>
        <rect id="Rectangle_1797-4" data-name="Rectangle 1797" class="cls-4" width="18.414" height="1.487" transform="translate(0 0)"/>
      </g>
      <g id="Group_1047-4" data-name="Group 1047" transform="translate(30.565 6.877)">
        <path id="Path_1920-4" data-name="Path 1920" class="cls-8" d="M14.364,1.859A1.877,1.877,0,0,1,12.48,3.717H1.884A1.877,1.877,0,0,1,0,1.859H0A1.877,1.877,0,0,1,1.884,0h10.6a1.877,1.877,0,0,1,1.884,1.859Z" transform="translate(0.753 0.743)"/>
        <path id="Path_1921-4" data-name="Path 1921" class="cls-4" d="M13.234,5.2H2.637A2.616,2.616,0,0,1,0,2.6,2.616,2.616,0,0,1,2.637,0h10.6a2.616,2.616,0,0,1,2.637,2.6A2.646,2.646,0,0,1,13.234,5.2ZM2.637,1.487A1.138,1.138,0,0,0,1.507,2.6a1.138,1.138,0,0,0,1.13,1.115h10.6A1.138,1.138,0,0,0,14.364,2.6a1.138,1.138,0,0,0-1.13-1.115Z"/>
      </g>
    </g>
  </g>
</svg>
