<svg xmlns="http://www.w3.org/2000/svg" xmlns:xlink="http://www.w3.org/1999/xlink" viewBox="3252.5 1927.625 371 320.375">
  <defs>
    <style>
      .cls-1 {
        fill: #c5d9f1;
      }

      .cls-2, .cls-3, .cls-6, .cls-8 {
        fill: #377bd0;
      }

      .cls-3, .cls-9 {
        stroke: #fff;
      }

      .cls-3 {
        stroke-width: 2px;
      }

      .cls-4, .cls-5 {
        opacity: 0.23;
      }

      .cls-4 {
        fill: url(#linear-gradient);
      }

      .cls-5 {
        fill: url(#linear-gradient-2);
      }

      .cls-6 {
        font-size: 19px;
        font-family: Lato-Regular, Lato;
      }

      .cls-7 {
        fill: #fff;
      }

      .cls-8 {
        stroke: #377bd0;
      }

      .cls-9 {
        fill: none;
        stroke-width: 3px;
      }

      .cls-10 {
        filter: url(#Path_3094);
      }
    </style>
    <filter id="Path_3094" x="3309" y="2201" width="47" height="47" filterUnits="userSpaceOnUse">
      <feOffset dy="4" input="SourceAlpha"/>
      <feGaussianBlur stdDeviation="3" result="blur"/>
      <feFlood flood-color="#377bd0" flood-opacity="0.42"/>
      <feComposite operator="in" in2="blur"/>
      <feComposite in="SourceGraphic"/>
    </filter>
    <linearGradient id="linear-gradient" x1="0.5" x2="0.5" y2="1" gradientUnits="objectBoundingBox">
      <stop offset="0" stop-color="#c5d9f1"/>
      <stop offset="0.544" stop-color="#c5d9f1"/>
      <stop offset="1" stop-color="#c5d9f1" stop-opacity="0"/>
    </linearGradient>
    <linearGradient id="linear-gradient-2" x1="0.5" x2="0.5" y2="1" gradientUnits="objectBoundingBox">
      <stop offset="0" stop-color="#377bd0"/>
      <stop offset="1" stop-color="#377bd0" stop-opacity="0"/>
    </linearGradient>
  </defs>
  <g id="Group_2279" data-name="Group 2279" transform="translate(2167 1559)">
    <rect id="Rectangle_2267" data-name="Rectangle 2267" class="cls-1" width="279.5" height="2" transform="translate(1176.5 660)"/>
    <rect id="Rectangle_2268" data-name="Rectangle 2268" class="cls-2" width="93.701" height="2" transform="translate(1085.7 660)"/>
    <g class="cls-10" transform="matrix(1, 0, 0, 1, -2167, -1559)">
      <path id="Path_3094-2" data-name="Path 3094" class="cls-3" d="M14.5,1A13.5,13.5,0,1,1,1,14.5,13.5,13.5,0,0,1,14.5,1Z" transform="translate(3318 2206)"/>
    </g>
    <path id="Path_3076" data-name="Path 3076" class="cls-4" d="M371,218.76V0H0V218.76Z" transform="translate(1085.5 443)"/>
    <path id="Path_3077" data-name="Path 3077" class="cls-5" d="M79.9,220V0H0V220Z" transform="translate(1085.7 443)"/>
    <text id="_" data-name="$" class="cls-6" transform="translate(1094 649)"><tspan x="0" y="0">$</tspan></text>
    <text id="_2" data-name="$$$" class="cls-6" transform="translate(1418 649)"><tspan x="0" y="0">$$$</tspan></text>
    <g id="Group_2248" data-name="Group 2248" transform="translate(1127.867 402)">
      <g id="Group_1037" data-name="Group 1037" transform="translate(26.602 18.865)">
        <path id="Path_1909" data-name="Path 1909" class="cls-2" d="M21.953,12.174a.711.711,0,0,1-.659-.418C18.28,4.879,15.077,1.394,11.733,1.394h0C5.988,1.394,1.42,11.663,1.372,11.756a.713.713,0,0,1-.942.372A.7.7,0,0,1,.054,11.2C.242,10.734,5.046,0,11.686,0h0c3.956,0,7.582,3.764,10.832,11.2a.713.713,0,0,1-.377.929C22.141,12.174,22.047,12.174,21.953,12.174Z"/>
      </g>
      <g id="Group_1039" data-name="Group 1039" transform="translate(21.024 17.193)">
        <path id="Path_1912" data-name="Path 1912" class="cls-2" d="M32.9,15.52a.68.68,0,0,1-.612-.372C27.531,5.994,22.445,1.394,17.17,1.394h-.141c-8.9.139-15.636,13.615-15.683,13.754a.724.724,0,0,1-.942.325.706.706,0,0,1-.33-.929C.357,13.94,7.233.139,17.029,0h.141C23.01,0,28.52,4.879,33.56,14.544a.687.687,0,0,1-.282.929A1.343,1.343,0,0,1,32.9,15.52Z"/>
      </g>
      <g id="Group_1040" data-name="Group 1040" transform="translate(26.185 0)">
        <path id="Path_1913" data-name="Path 1913" class="cls-7" d="M22.982,11.338A11.4,11.4,0,0,1,11.491,22.676,11.4,11.4,0,0,1,0,11.338,11.4,11.4,0,0,1,11.491,0,11.4,11.4,0,0,1,22.982,11.338Z" transform="translate(0.706 0.697)"/>
        <path id="Path_1914" data-name="Path 1914" class="cls-2" d="M12.2,24.07A12.12,12.12,0,0,1,0,12.035,12.12,12.12,0,0,1,12.2,0,12.12,12.12,0,0,1,24.4,12.035,12.12,12.12,0,0,1,12.2,24.07Zm0-22.676A10.742,10.742,0,0,0,1.413,12.035a10.786,10.786,0,0,0,21.57,0A10.742,10.742,0,0,0,12.2,1.394Z"/>
      </g>
      <g id="Group_1041" data-name="Group 1041" transform="translate(3.25 8.829)">
        <path id="Path_1915" data-name="Path 1915" class="cls-7" d="M65.886,0H59.952a2.323,2.323,0,0,0-2.166,1.44H10.455A2.373,2.373,0,0,0,8.289,0H2.355a2.324,2.324,0,1,0,0,4.647H8.289a2.4,2.4,0,0,0,1.837-.883h47.99a2.265,2.265,0,0,0,1.837.883h5.934a2.324,2.324,0,1,0,0-4.647Z" transform="translate(0.753 0.743)"/>
        <path id="Path_1916" data-name="Path 1916" class="cls-2" d="M66.64,6.134H60.706a3.127,3.127,0,0,1-2.166-.883H11.209a3.128,3.128,0,0,1-2.166.883H3.108A3.115,3.115,0,0,1,0,3.067,3.115,3.115,0,0,1,3.108,0H9.042A3.134,3.134,0,0,1,11.68,1.44H58.068A3.134,3.134,0,0,1,60.706,0H66.64a3.115,3.115,0,0,1,3.108,3.067A3.085,3.085,0,0,1,66.64,6.134ZM10.5,3.764H59.2l.235.279a1.643,1.643,0,0,0,1.224.6h5.934a1.58,1.58,0,1,0,0-3.16H60.659a1.531,1.531,0,0,0-1.46.976l-.188.465H10.738l-.188-.465a1.578,1.578,0,0,0-1.46-.976H3.155a1.58,1.58,0,1,0,0,3.16H9.042a1.569,1.569,0,0,0,1.225-.6Z"/>
      </g>
      <g id="Group_1042" data-name="Group 1042" transform="translate(18.037 6.691)">
        <path id="Path_1917" data-name="Path 1917" class="cls-7" d="M39.278,4.647a4.692,4.692,0,0,1-4.709,4.647H4.71A4.692,4.692,0,0,1,0,4.647H0A4.692,4.692,0,0,1,4.71,0H34.568a4.692,4.692,0,0,1,4.709,4.647Z" transform="translate(0.706 0.697)"/>
        <path id="Path_1918" data-name="Path 1918" class="cls-2" d="M35.274,10.687H5.416A5.344,5.344,0,1,1,5.416,0H35.274A5.381,5.381,0,0,1,40.69,5.344,5.381,5.381,0,0,1,35.274,10.687ZM5.416,1.394a3.95,3.95,0,1,0,0,7.9H35.274a3.95,3.95,0,1,0,0-7.9Z"/>
      </g>
      <g id="Group_1043" data-name="Group 1043" transform="translate(0 6.041)">
        <line id="Line_283" data-name="Line 283" class="cls-7" x2="18.414" transform="translate(0 0.743)"/>
        <rect id="Rectangle_1796" data-name="Rectangle 1796" class="cls-2" width="18.414" height="1.487" transform="translate(0 0)"/>
      </g>
      <g id="Group_1044" data-name="Group 1044" transform="translate(57.739 6.18)">
        <line id="Line_284" data-name="Line 284" class="cls-7" x2="18.414" transform="translate(0 0.743)"/>
        <rect id="Rectangle_1797" data-name="Rectangle 1797" class="cls-2" width="18.414" height="1.487" transform="translate(0 0)"/>
      </g>
      <g id="Group_1047" data-name="Group 1047" transform="translate(30.565 6.877)">
        <path id="Path_1920" data-name="Path 1920" class="cls-7" d="M14.364,1.859A1.877,1.877,0,0,1,12.48,3.717H1.884A1.877,1.877,0,0,1,0,1.859H0A1.877,1.877,0,0,1,1.884,0h10.6a1.877,1.877,0,0,1,1.884,1.859Z" transform="translate(0.753 0.743)"/>
        <path id="Path_1921" data-name="Path 1921" class="cls-2" d="M13.234,5.2H2.637A2.616,2.616,0,0,1,0,2.6,2.616,2.616,0,0,1,2.637,0h10.6a2.616,2.616,0,0,1,2.637,2.6A2.646,2.646,0,0,1,13.234,5.2ZM2.637,1.487A1.138,1.138,0,0,0,1.507,2.6a1.138,1.138,0,0,0,1.13,1.115h10.6A1.138,1.138,0,0,0,14.364,2.6a1.138,1.138,0,0,0-1.13-1.115Z"/>
      </g>
    </g>
    <g id="Group_2249" data-name="Group 2249" transform="translate(1156 369.044)">
      <path id="Path_1795" data-name="Path 1795" class="cls-8" d="M5732.948,952.6a19.859,19.859,0,0,0,11.258-16.543c-10.8-6.538-10.893-6.457-10.893-6.457s0,.161-10.616,5.892C5721.965,947.76,5732.948,952.6,5732.948,952.6Z" transform="translate(-5722.663 -929.6)"/>
      <path id="Path_1796" data-name="Path 1796" class="cls-9" d="M5690.523,947.4l-5.751,7.121-3.661-3.079-.31-.344" transform="translate(-5675.134 -939.047)"/>
    </g>
  </g>
</svg>
