<svg xmlns="http://www.w3.org/2000/svg" xmlns:xlink="http://www.w3.org/1999/xlink" viewBox="11475 9006.741 94.801 120.39">
  <defs>
    <style>
      .cls-1 {
        fill: url(#linear-gradient);
      }

      .cls-2 {
        fill: url(#linear-gradient-2);
      }

      .cls-3 {
        fill: url(#linear-gradient-3);
      }

      .cls-4 {
        fill: url(#linear-gradient-4);
      }

      .cls-5 {
        fill: url(#linear-gradient-6);
      }

      .cls-6 {
        fill: #445061;
      }

      .cls-7 {
        fill: url(#linear-gradient-7);
      }

      .cls-8 {
        fill: #fcfcfc;
      }

      .cls-9 {
        fill: url(#linear-gradient-8);
      }

      .cls-10 {
        fill: url(#linear-gradient-9);
      }

      .cls-11 {
        fill: url(#linear-gradient-10);
      }

      .cls-12 {
        fill: url(#linear-gradient-11);
      }

      .cls-13 {
        fill: url(#linear-gradient-12);
      }

      .cls-14 {
        fill: url(#linear-gradient-13);
      }

      .cls-15 {
        fill: url(#linear-gradient-14);
      }

      .cls-16 {
        fill: url(#linear-gradient-15);
      }

      .cls-17 {
        fill: url(#linear-gradient-16);
      }

      .cls-18 {
        fill: url(#linear-gradient-17);
      }

      .cls-19 {
        fill: url(#linear-gradient-18);
      }

      .cls-20 {
        fill: url(#linear-gradient-19);
      }

      .cls-21 {
        fill: url(#linear-gradient-20);
      }

      .cls-22 {
        fill: url(#linear-gradient-21);
      }

      .cls-23 {
        fill: url(#linear-gradient-22);
      }

      .cls-24 {
        fill: url(#linear-gradient-23);
      }

      .cls-25 {
        fill: url(#linear-gradient-24);
      }

      .cls-26 {
        fill: url(#linear-gradient-25);
      }

      .cls-27 {
        fill: url(#linear-gradient-26);
      }

      .cls-28 {
        fill: url(#linear-gradient-27);
      }

      .cls-29 {
        fill: url(#linear-gradient-28);
      }

      .cls-30 {
        fill: url(#linear-gradient-29);
      }

      .cls-31 {
        fill: url(#linear-gradient-30);
      }

      .cls-32 {
        fill: url(#linear-gradient-31);
      }

      .cls-33 {
        fill: url(#linear-gradient-32);
      }

      .cls-34 {
        fill: url(#linear-gradient-33);
      }

      .cls-35 {
        fill: url(#linear-gradient-34);
      }

      .cls-36 {
        fill: url(#linear-gradient-35);
      }

      .cls-37 {
        fill: url(#linear-gradient-36);
      }

      .cls-38 {
        fill: url(#linear-gradient-37);
      }

      .cls-39 {
        fill: url(#linear-gradient-38);
      }

      .cls-40 {
        fill: url(#linear-gradient-39);
      }

      .cls-41 {
        fill: url(#linear-gradient-40);
      }

      .cls-42 {
        fill: url(#linear-gradient-41);
      }

      .cls-43 {
        fill: url(#linear-gradient-42);
      }

      .cls-44 {
        fill: url(#linear-gradient-43);
      }

      .cls-45 {
        fill: url(#linear-gradient-44);
      }

      .cls-46 {
        fill: url(#linear-gradient-45);
      }

      .cls-47 {
        fill: url(#linear-gradient-46);
      }

      .cls-48 {
        fill: url(#linear-gradient-47);
      }

      .cls-49 {
        fill: url(#linear-gradient-48);
      }

      .cls-50 {
        fill: url(#linear-gradient-50);
      }

      .cls-51 {
        fill: url(#linear-gradient-51);
      }

      .cls-52 {
        fill: url(#linear-gradient-52);
      }

      .cls-53 {
        fill: url(#linear-gradient-53);
      }

      .cls-54 {
        fill: url(#linear-gradient-54);
      }

      .cls-55 {
        fill: url(#linear-gradient-55);
      }

      .cls-56 {
        fill: url(#linear-gradient-56);
      }

      .cls-57 {
        fill: url(#linear-gradient-57);
      }

      .cls-58 {
        fill: url(#linear-gradient-59);
      }

      .cls-59 {
        fill: #fff;
      }
    </style>
    <linearGradient id="linear-gradient" x1="-0.004" y1="0.501" x2="0.999" y2="0.501" gradientUnits="objectBoundingBox">
      <stop offset="0" stop-color="#3e77bc"/>
      <stop offset="1" stop-color="#529fd8"/>
    </linearGradient>
    <linearGradient id="linear-gradient-2" x1="0.001" y1="0.502" x2="1.001" y2="0.502" xlink:href="#linear-gradient"/>
    <linearGradient id="linear-gradient-3" x1="-0.005" y1="0.5" x2="0.997" y2="0.5" xlink:href="#linear-gradient"/>
    <linearGradient id="linear-gradient-4" x1="0" y1="0.5" x2="0.999" y2="0.5" xlink:href="#linear-gradient"/>
    <linearGradient id="linear-gradient-6" x1="0.002" y1="0.499" x2="1.001" y2="0.499" xlink:href="#linear-gradient"/>
    <linearGradient id="linear-gradient-7" x1="0" y1="0.5" x2="1" y2="0.5" xlink:href="#linear-gradient"/>
    <linearGradient id="linear-gradient-8" x1="0" y1="0.5" x2="1" y2="0.5" xlink:href="#linear-gradient"/>
    <linearGradient id="linear-gradient-9" x1="0" y1="0.5" x2="1" y2="0.5" xlink:href="#linear-gradient"/>
    <linearGradient id="linear-gradient-10" x1="-0.004" y1="0.5" x2="1" y2="0.5" xlink:href="#linear-gradient"/>
    <linearGradient id="linear-gradient-11" x1="-0.002" y1="0.501" x2="1.001" y2="0.501" xlink:href="#linear-gradient"/>
    <linearGradient id="linear-gradient-12" x1="-0.004" y1="0.499" x2="0.999" y2="0.499" xlink:href="#linear-gradient"/>
    <linearGradient id="linear-gradient-13" x1="-0.002" y1="0.502" x2="1.001" y2="0.502" xlink:href="#linear-gradient"/>
    <linearGradient id="linear-gradient-14" x1="0" y1="0.503" x2="1.003" y2="0.503" xlink:href="#linear-gradient"/>
    <linearGradient id="linear-gradient-15" x1="-0.003" y1="0.502" x2="0.998" y2="0.502" xlink:href="#linear-gradient"/>
    <linearGradient id="linear-gradient-16" x1="0" y1="0.502" x2="1.003" y2="0.502" xlink:href="#linear-gradient"/>
    <linearGradient id="linear-gradient-17" x1="-0.003" y1="0.503" x2="1.001" y2="0.503" xlink:href="#linear-gradient"/>
    <linearGradient id="linear-gradient-18" x1="-0.003" y1="0.503" x2="1.001" y2="0.503" xlink:href="#linear-gradient"/>
    <linearGradient id="linear-gradient-19" x1="0" y1="0.502" x2="1.003" y2="0.502" xlink:href="#linear-gradient"/>
    <linearGradient id="linear-gradient-20" x1="-0.002" y1="0.501" x2="0.998" y2="0.501" xlink:href="#linear-gradient"/>
    <linearGradient id="linear-gradient-21" x1="-0.002" y1="0.499" x2="0.998" y2="0.499" xlink:href="#linear-gradient"/>
    <linearGradient id="linear-gradient-22" x1="-0.002" y1="0.5" x2="1.002" y2="0.5" xlink:href="#linear-gradient"/>
    <linearGradient id="linear-gradient-23" x1="-0.003" y1="0.504" x2="1.001" y2="0.504" xlink:href="#linear-gradient"/>
    <linearGradient id="linear-gradient-24" x1="-0.004" y1="0.502" x2="0.996" y2="0.502" xlink:href="#linear-gradient"/>
    <linearGradient id="linear-gradient-25" x1="-0.004" y1="0.499" x2="1" y2="0.499" xlink:href="#linear-gradient"/>
    <linearGradient id="linear-gradient-26" x1="-0.003" y1="0.499" x2="1.001" y2="0.499" xlink:href="#linear-gradient"/>
    <linearGradient id="linear-gradient-27" x1="-0.002" y1="0.501" x2="1.002" y2="0.501" xlink:href="#linear-gradient"/>
    <linearGradient id="linear-gradient-28" x1="-0.003" y1="0.5" x2="0.997" y2="0.5" xlink:href="#linear-gradient"/>
    <linearGradient id="linear-gradient-29" x1="-0.001" y1="0.502" x2="1" y2="0.502" xlink:href="#linear-gradient"/>
    <linearGradient id="linear-gradient-30" x1="-0.002" y1="0.503" x2="1.001" y2="0.503" xlink:href="#linear-gradient"/>
    <linearGradient id="linear-gradient-31" x1="0" y1="0.502" x2="1" y2="0.502" xlink:href="#linear-gradient"/>
    <linearGradient id="linear-gradient-32" x1="-0.002" y1="0.5" x2="0.998" y2="0.5" xlink:href="#linear-gradient"/>
    <linearGradient id="linear-gradient-33" x1="-0.003" y1="0.499" x2="1.001" y2="0.499" xlink:href="#linear-gradient"/>
    <linearGradient id="linear-gradient-34" x1="-0.002" y1="0.498" x2="1.002" y2="0.498" xlink:href="#linear-gradient"/>
    <linearGradient id="linear-gradient-35" x1="-0.001" y1="0.504" x2="0.999" y2="0.504" xlink:href="#linear-gradient"/>
    <linearGradient id="linear-gradient-36" x1="-0.001" y1="0.504" x2="1.003" y2="0.504" xlink:href="#linear-gradient"/>
    <linearGradient id="linear-gradient-37" x1="0" y1="0.504" x2="1.003" y2="0.504" xlink:href="#linear-gradient"/>
    <linearGradient id="linear-gradient-38" x1="-0.003" y1="0.499" x2="1" y2="0.499" xlink:href="#linear-gradient"/>
    <linearGradient id="linear-gradient-39" x1="0" y1="0.5" x2="1.003" y2="0.5" xlink:href="#linear-gradient"/>
    <linearGradient id="linear-gradient-40" x1="-0.002" y1="0.5" x2="0.998" y2="0.5" xlink:href="#linear-gradient"/>
    <linearGradient id="linear-gradient-41" x1="0" y1="0.5" x2="1.001" y2="0.5" xlink:href="#linear-gradient"/>
    <linearGradient id="linear-gradient-42" x1="-0.003" y1="0.499" x2="1.001" y2="0.499" xlink:href="#linear-gradient"/>
    <linearGradient id="linear-gradient-43" x1="-0.001" y1="0.503" x2="1.003" y2="0.503" xlink:href="#linear-gradient"/>
    <linearGradient id="linear-gradient-44" x1="-0.002" y1="0.501" x2="1.001" y2="0.501" xlink:href="#linear-gradient"/>
    <linearGradient id="linear-gradient-45" x1="-0.002" y1="0.502" x2="0.998" y2="0.502" xlink:href="#linear-gradient"/>
    <linearGradient id="linear-gradient-46" x1="-0.003" y1="0.501" x2="1" y2="0.501" xlink:href="#linear-gradient"/>
    <linearGradient id="linear-gradient-47" x1="-0.001" y1="0.5" x2="1.002" y2="0.5" xlink:href="#linear-gradient"/>
    <linearGradient id="linear-gradient-48" x1="-0.002" y1="0.504" x2="1.001" y2="0.504" xlink:href="#linear-gradient"/>
    <linearGradient id="linear-gradient-50" x1="-0.003" y1="0.501" x2="1" y2="0.501" xlink:href="#linear-gradient"/>
    <linearGradient id="linear-gradient-51" x1="-0.001" y1="0.502" x2="1.001" y2="0.502" xlink:href="#linear-gradient"/>
    <linearGradient id="linear-gradient-52" x1="-0.002" y1="0.502" x2="0.998" y2="0.502" xlink:href="#linear-gradient"/>
    <linearGradient id="linear-gradient-53" x1="-0.003" y1="0.501" x2="1" y2="0.501" xlink:href="#linear-gradient"/>
    <linearGradient id="linear-gradient-54" x1="0.001" y1="0.5" x2="1.004" y2="0.5" xlink:href="#linear-gradient"/>
    <linearGradient id="linear-gradient-55" x1="-0.002" y1="0.503" x2="1.001" y2="0.503" xlink:href="#linear-gradient"/>
    <linearGradient id="linear-gradient-56" x1="-0.001" y1="0.5" x2="1" y2="0.5" xlink:href="#linear-gradient"/>
    <linearGradient id="linear-gradient-57" x1="0" y1="0.502" x2="1" y2="0.502" xlink:href="#linear-gradient"/>
    <linearGradient id="linear-gradient-59" x1="0" y1="0.5" x2="1" y2="0.5" xlink:href="#linear-gradient"/>
  </defs>
  <g id="icon_17" data-name="icon 17" transform="translate(11412.7 8999.184)">
    <g id="Group_2877" data-name="Group 2877" transform="translate(131.771 58.518)">
      <path id="Path_4108" data-name="Path 4108" class="cls-1" d="M366.884,229.141l-1.195-.708a1.039,1.039,0,0,1-.328-.317,1.319,1.319,0,0,1-.187-.415l-.609-2.392-3.444-2.075-.609,1.66a.23.23,0,0,1-.187.171.449.449,0,0,1-.328-.073l-1.195-.732,3.257-7.959,1.57.952Zm-2.741-5.371-1.007-3.906c-.047-.171-.094-.391-.164-.61-.047-.244-.117-.488-.164-.757a3.9,3.9,0,0,1-.164.561,1.878,1.878,0,0,1-.164.439l-1.008,2.685Z" transform="translate(-358.8 -216.3)"/>
      <path id="Path_4109" data-name="Path 4109" class="cls-2" d="M399.595,231.936a8.948,8.948,0,0,1,1.453,1.1,6.875,6.875,0,0,1,1.008,1.245,5,5,0,0,1,.586,1.367,5.683,5.683,0,0,1,.187,1.392,2.934,2.934,0,0,1-.211,1.2,1.181,1.181,0,0,1-.609.659,1.684,1.684,0,0,1-1.008.073,4.638,4.638,0,0,1-1.406-.61l-1.148-.684v3.491l-1.546-.928V230.3Zm0,5a2.587,2.587,0,0,0,.75.317.717.717,0,0,0,.515-.049.648.648,0,0,0,.3-.391,2.059,2.059,0,0,0,.094-.708,2.852,2.852,0,0,0-.094-.781,2.524,2.524,0,0,0-.3-.732,2.748,2.748,0,0,0-.515-.659,4.749,4.749,0,0,0-.75-.561l-1.148-.684v3.564Z" transform="translate(-387.973 -226.882)"/>
      <path id="Path_4110" data-name="Path 4110" class="cls-3" d="M428.846,258.764l-1.546-.928V247.9l1.546.928Z" transform="translate(-411.25 -240.186)"/>
    </g>
    <g id="Group_2886" data-name="Group 2886" transform="translate(69.048 7.558)">
      <g id="Group_2881" data-name="Group 2881" transform="translate(0 0)">
        <g id="Group_2880" data-name="Group 2880">
          <g id="Group_2879" data-name="Group 2879">
            <g id="Group_2878" data-name="Group 2878">
              <path id="Path_4111" data-name="Path 4111" class="cls-4" d="M96.254,41.6a4.635,4.635,0,0,1-2.437-.659c-1.757-1.05-2.718-3.247-2.718-6.176-.023-5.957,4.007-13.232,9-16.21a7.927,7.927,0,0,1,4.358-1.294,21.707,21.707,0,0,1,7.334-8.252h0c2.413-1.465,4.78-1.831,6.631-1.05a5.684,5.684,0,0,1,3.163,3.662,10.262,10.262,0,0,1,1.8-1.392c1.828-1.1,3.561-1.269,4.874-.488s2.038,2.417,2.038,4.59a15.335,15.335,0,0,1-6.631,11.962L100.4,40.306A8.447,8.447,0,0,1,96.254,41.6ZM104.2,17.748a7.465,7.465,0,0,0-3.866,1.245c-4.85,2.905-8.786,9.985-8.763,15.771,0,2.734.89,4.785,2.484,5.737,1.617.977,3.772.732,6.092-.659L123.41,25.853c3.538-2.124,6.4-7.3,6.4-11.523,0-1.977-.633-3.467-1.8-4.15-1.172-.708-2.718-.537-4.4.488a10.364,10.364,0,0,0-1.992,1.562l-.281.269-.117-.391a5.4,5.4,0,0,0-3-3.711c-1.734-.708-3.936-.342-6.233,1.025h0a21,21,0,0,0-7.24,8.2l-.07.146h-.141A1.384,1.384,0,0,0,104.2,17.748Z" transform="translate(-91.1 -7.558)"/>
            </g>
          </g>
        </g>
      </g>
      <g id="Group_2885" data-name="Group 2885" transform="translate(0 0)">
        <g id="Group_2884" data-name="Group 2884">
          <g id="Group_2883" data-name="Group 2883">
            <g id="Group_2882" data-name="Group 2882">
              <path id="Path_4112" data-name="Path 4112" class="cls-4" d="M96.254,41.6a4.635,4.635,0,0,1-2.437-.659c-1.757-1.05-2.718-3.247-2.718-6.176-.023-5.957,4.007-13.232,9-16.21a7.927,7.927,0,0,1,4.358-1.294,21.707,21.707,0,0,1,7.334-8.252h0c2.413-1.465,4.78-1.831,6.631-1.05a5.684,5.684,0,0,1,3.163,3.662,10.262,10.262,0,0,1,1.8-1.392c1.828-1.1,3.561-1.269,4.874-.488s2.038,2.417,2.038,4.59a15.335,15.335,0,0,1-6.631,11.962L100.4,40.306A8.447,8.447,0,0,1,96.254,41.6ZM104.2,17.748a7.465,7.465,0,0,0-3.866,1.245c-4.85,2.905-8.786,9.985-8.763,15.771,0,2.734.89,4.785,2.484,5.737,1.617.977,3.772.732,6.092-.659L123.41,25.853c3.538-2.124,6.4-7.3,6.4-11.523,0-1.977-.633-3.467-1.8-4.15-1.172-.708-2.718-.537-4.4.488a10.364,10.364,0,0,0-1.992,1.562l-.281.269-.117-.391a5.4,5.4,0,0,0-3-3.711c-1.734-.708-3.936-.342-6.233,1.025h0a21,21,0,0,0-7.24,8.2l-.07.146h-.141A1.384,1.384,0,0,0,104.2,17.748Z" transform="translate(-91.1 -7.558)"/>
            </g>
          </g>
        </g>
      </g>
    </g>
    <g id="Group_2888" data-name="Group 2888" transform="translate(83.715 14.135)">
      <g id="Group_2887" data-name="Group 2887" transform="translate(0)">
        <path id="Path_4113" data-name="Path 4113" class="cls-5" d="M158.035,49.782a.4.4,0,0,1-.328-.171l-.047-.073v-.146c.023-.269.07-1.294.07-1.514h-.023a2.456,2.456,0,0,1-.609-.073c-.07.049-.094.073-.094.1-.094.146-.8,1.1-1.031,1.392l-.094.122-.047.024a.493.493,0,0,1-.515-.024L154.825,49a.587.587,0,0,1-.164-.513V48.44l.07-.122c.164-.317.773-1.416.843-1.587,0-.024.023-.073.047-.171a3.4,3.4,0,0,1-.258-.684c-.211.1-1.054.464-1.195.537l-.094.049-.117-.049a.514.514,0,0,1-.258-.488V45a1.04,1.04,0,0,1,.164-.537l.023-.049.047-.024c.047-.024,1.148-.83,1.289-.928a.527.527,0,0,0,.141-.171,10.786,10.786,0,0,1,.3-1.172v-.024l-.844-.586-.094-.073-.023-.122a1.01,1.01,0,0,1,.117-.537l.515-1a1.031,1.031,0,0,1,.351-.415l.07-.049.094.024s.844.171,1.054.22c.023,0,.047-.024.07-.024a10.258,10.258,0,0,1,.773-1,.8.8,0,0,0,.047-.2c0-.146-.047-1.1-.07-1.416V36.77l.023-.049a.913.913,0,0,1,.328-.439l.773-.61a.12.12,0,0,1,.094-.049.5.5,0,0,1,.422-.073l.117.049.047.122c.023.1.258.9.328,1.2a3.239,3.239,0,0,1,.773-.269c.094-.1.117-.146.117-.171.07-.171.679-1.465.773-1.684l.023-.073.023-.024a.36.36,0,0,1,.141-.1.621.621,0,0,1,.328-.1l.328.024c.023,0,.211.024.351.049a.432.432,0,0,1,.375.366l.023.073-.023.049c-.07.2-.469,1.562-.515,1.733v.073a2.372,2.372,0,0,1,.469.391h0c.117-.1.961-.83,1.195-1.05l.117-.1h.07a.432.432,0,0,1,.445.293l.258.732a.946.946,0,0,1-.023.537l-.023.049-.117.146c-.258.317-.961,1.147-1.078,1.269a.542.542,0,0,0-.094.2,6.787,6.787,0,0,1,0,.977c.234,0,.867.024,1.078.024h.117l.07.122a.781.781,0,0,1,.047.537l-.281,1.025a1.271,1.271,0,0,1-.258.488l-.047.049-.07.024s-1.125.342-1.265.391a.523.523,0,0,0-.117.1,9.114,9.114,0,0,1-.586,1.172v.122c.07.171.469,1.074.492,1.123l.023.073v.073a1.175,1.175,0,0,1-.234.513l-.679.854a.74.74,0,0,1-.258.22.4.4,0,0,1-.164.073l-.117.024-.094-.1s-.562-.561-.726-.757c-.141.122-.281.244-.4.342a5.015,5.015,0,0,1-.445.317.48.48,0,0,0-.094.22c-.023.171-.3,1.392-.375,1.66l-.023.1-.023.049a1.245,1.245,0,0,1-.3.293.175.175,0,0,1-.094.049l-.375.146s-.211.073-.375.146Zm-.023-2.392.07.122a.68.68,0,0,1,.117.391c0,.122-.047.952-.07,1.367a.818.818,0,0,0,.3-.122l.375-.146a.023.023,0,0,0,.023-.024.289.289,0,0,0,.117-.122c.07-.269.328-1.489.375-1.66a1.692,1.692,0,0,1,.187-.415l.023-.049.047-.024c.141-.1.3-.22.445-.317.141-.122.281-.244.445-.391l.047-.049h.07a.463.463,0,0,1,.422.1l.633.659.07-.073.679-.854a.686.686,0,0,0,.117-.22c-.117-.244-.422-.952-.469-1.05a.823.823,0,0,1-.023-.439v-.049l.023-.049a8.025,8.025,0,0,0,.586-1.2l.023-.049.023-.024a1.725,1.725,0,0,1,.258-.22c.047-.024.07-.024.094-.049.117-.024.867-.269,1.172-.366a.752.752,0,0,0,.117-.244L164.6,40.8V40.75c-.422,0-.867-.024-.937-.024a.455.455,0,0,1-.351-.244l-.047-.073v-.1a4.109,4.109,0,0,0,0-1.074v-.049l.023-.049a1.149,1.149,0,0,1,.211-.391c.094-.122.8-.952,1.054-1.269l.07-.073a.216.216,0,0,0,0-.171l-.234-.635c-.3.269-1.007.879-1.125.977-.023.024-.047.049-.07.049a.769.769,0,0,1-.281.1l-.141.024-.094-.1a1.682,1.682,0,0,0-.539-.464l-.094-.049-.023-.122a.777.777,0,0,1,.023-.415c.047-.146.375-1.221.469-1.587a1.688,1.688,0,0,0-.281-.024l-.328-.049a.071.071,0,0,0-.047.024l-.023.024c-.117.269-.679,1.489-.75,1.636a1.353,1.353,0,0,1-.258.366l-.047.049-.07.024a4.143,4.143,0,0,0-.867.317l-.094.049-.094-.049a.427.427,0,0,1-.281-.293c-.023-.1-.187-.708-.3-1.05l-.75.61a.606.606,0,0,0-.164.2v.024c.023.317.047,1.269.047,1.416a1.486,1.486,0,0,1-.094.439l-.023.049-.023.024a8.406,8.406,0,0,0-.8,1.025l-.023.049-.047.024a.657.657,0,0,1-.422.122c-.094-.024-.679-.146-.961-.2-.047.024-.07.1-.117.171l-.515,1a.522.522,0,0,0-.047.146c.351.244.7.488.75.537a.551.551,0,0,1,.187.391v.073l-.023.049a8.658,8.658,0,0,0-.328,1.221v.049l-.023.049a1.115,1.115,0,0,1-.281.342c-.117.1-1.031.757-1.242.9a.6.6,0,0,0-.07.22h0v.879c.351-.146.961-.439,1.054-.464a.556.556,0,0,1,.4,0l.117.049.023.122a3.554,3.554,0,0,0,.281.806l.047.073-.023.073a1.244,1.244,0,0,1-.117.415c-.094.146-.679,1.269-.844,1.562l-.023.024v.049l.469.391.023-.024c.211-.293.914-1.269,1.008-1.392a1,1,0,0,1,.328-.269l.094-.049.094.024a1.8,1.8,0,0,0,.726.073Zm4.5-3.076Zm.164-9.277ZM158.316,46.12a1.457,1.457,0,0,1-.726-.171,2,2,0,0,1-.984-1.562,6.56,6.56,0,0,1,2.343-5.371,5.684,5.684,0,0,1,.469-.342,2.206,2.206,0,0,1,2.085-.269,2,2,0,0,1,.984,1.562,6.53,6.53,0,0,1-2.343,5.371,5.686,5.686,0,0,1-.469.342A2.675,2.675,0,0,1,158.316,46.12Zm2.437-7.348a2.1,2.1,0,0,0-1.1.366,4.388,4.388,0,0,0-.422.293,5.907,5.907,0,0,0-2.156,4.907h0a1.543,1.543,0,0,0,.726,1.2,1.736,1.736,0,0,0,1.64-.244,4.386,4.386,0,0,0,.422-.293,5.907,5.907,0,0,0,2.156-4.907,1.543,1.543,0,0,0-.726-1.2A.983.983,0,0,0,160.753,38.772Z" transform="translate(-153.7 -34.5)"/>
      </g>
    </g>
    <g id="Group_2889" data-name="Group 2889" transform="translate(134.981 102.363)">
      <path id="Path_4114" data-name="Path 4114" class="cls-6" d="M372.687,397.194v-1.025a.342.342,0,0,0-.187-.269v1.025A.3.3,0,0,1,372.687,397.194Z" transform="translate(-372.5 -395.9)"/>
    </g>
    <g id="Group_2891" data-name="Group 2891" transform="translate(64.596 71.939)">
      <g id="Group_2890" data-name="Group 2890" transform="translate(0)">
        <path id="Path_4115" data-name="Path 4115" class="cls-7" d="M106.262,327.284a2.91,2.91,0,0,1-1.382-.342L72.733,307.461a1.07,1.07,0,0,1,0-1.953l56.327-33.885a2.921,2.921,0,0,1,2.765,0l32.147,19.457a1.07,1.07,0,0,1,0,1.953l-56.327,33.885A2.67,2.67,0,0,1,106.262,327.284Zm24.18-55.515a2.182,2.182,0,0,0-1.148.293L72.967,305.923a.7.7,0,0,0-.4.561.666.666,0,0,0,.4.537L105.114,326.5a2.537,2.537,0,0,0,2.3,0l56.327-33.885a.7.7,0,0,0,.4-.561.667.667,0,0,0-.4-.537L131.59,272.038A2.431,2.431,0,0,0,130.442,271.769Zm-6.068,43.015a1.078,1.078,0,0,1-.562-.147l-8.2-4.956a.524.524,0,0,1,0-.952l18.651-11.23a1.108,1.108,0,0,1,1.1,0l8.2,4.956a.59.59,0,0,1,.3.464.527.527,0,0,1-.3.464l-18.651,11.23A.84.84,0,0,1,124.373,314.785Zm-8.576-5.566a.29.29,0,0,0,.07.049l8.2,4.956a.72.72,0,0,0,.633,0l18.651-11.23a.052.052,0,1,0,0-.1l-8.2-4.956a.72.72,0,0,0-.633,0l-18.651,11.23a.291.291,0,0,0-.07.049Z" transform="translate(-72.1 -271.275)"/>
      </g>
    </g>
    <g id="Group_2892" data-name="Group 2892" transform="translate(110.59 68.185)">
      <path id="Path_4116" data-name="Path 4116" class="cls-8" d="M269.244,256.413l-.844-.513v.244l.844.513Z" transform="translate(-268.4 -255.9)"/>
    </g>
    <g id="Group_2893" data-name="Group 2893" transform="translate(96.368 63.791)">
      <path id="Path_4117" data-name="Path 4117" class="cls-8" d="M213.183,238.413l-.844-.513-4.639,7.251.843.513Z" transform="translate(-207.7 -237.9)"/>
    </g>
    <g id="Group_2894" data-name="Group 2894" transform="translate(101.007 63.791)">
      <path id="Path_4118" data-name="Path 4118" class="cls-8" d="M235.748,242.563l-.843-.513-7.4-4.15.844.513Z" transform="translate(-227.5 -237.9)"/>
    </g>
    <g id="Group_2895" data-name="Group 2895" transform="translate(84.91 67.672)">
      <path id="Path_4119" data-name="Path 4119" class="cls-8" d="M165.056,254.313l-.844-.513-5.412,7.568.844.513Z" transform="translate(-158.8 -253.8)"/>
    </g>
    <g id="Group_2896" data-name="Group 2896" transform="translate(90.323 67.672)">
      <path id="Path_4120" data-name="Path 4120" class="cls-8" d="M188.789,257.682l-.844-.513L181.9,253.8l.844.513Z" transform="translate(-181.9 -253.8)"/>
    </g>
    <g id="Group_2897" data-name="Group 2897" transform="translate(64.549 64.767)">
      <path id="Path_4121" data-name="Path 4121" class="cls-8" d="M72.743,242.413,71.9,241.9l.094,38.133.843.513Z" transform="translate(-71.9 -241.9)"/>
    </g>
    <g id="Group_2899" data-name="Group 2899" transform="translate(63.167 29.59)">
      <g id="Group_2898" data-name="Group 2898">
        <path id="Path_4122" data-name="Path 4122" class="cls-9" d="M67.031,174.314a.939.939,0,0,1-.445-.122,1.187,1.187,0,0,1-.492-1.05L66,134.4a3.169,3.169,0,0,1,1.382-2.49l56.327-33.885a1.065,1.065,0,0,1,1.125-.1,1.187,1.187,0,0,1,.492,1.05l.117,38.743a3.207,3.207,0,0,1-1.382,2.49L67.734,174.119A1.336,1.336,0,0,1,67.031,174.314Zm57.358-76.021a.867.867,0,0,0-.445.146L67.617,132.324a2.663,2.663,0,0,0-1.148,2.075l.117,38.743a.7.7,0,0,0,.258.635.619.619,0,0,0,.656-.1l56.327-33.885a2.663,2.663,0,0,0,1.148-2.075l-.117-38.743a.7.7,0,0,0-.258-.635A.661.661,0,0,0,124.389,98.293Zm-56.3,73.751-.094-38.694.117-.073,55.226-33.226.094,38.694-.117.073Zm.375-38.4.094,37.571,54.406-32.738-.094-37.571Z" transform="translate(-66 -97.806)"/>
      </g>
    </g>
    <g id="Group_2900" data-name="Group 2900" transform="translate(108.997 66.842)">
      <path id="Path_4123" data-name="Path 4123" class="cls-8" d="M261.623,250.4l.843.513-.609,1.1.609-1.1-.867-.488Z" transform="translate(-261.6 -250.4)"/>
    </g>
    <g id="Group_2901" data-name="Group 2901" transform="translate(62.3 29.077)">
      <path id="Path_4124" data-name="Path 4124" class="cls-10" d="M63.753,172.605h0l-.844-.513a1.187,1.187,0,0,1-.492-1.05L62.3,132.3a3.169,3.169,0,0,1,1.382-2.49l56.327-33.885a1.065,1.065,0,0,1,1.125-.1l.843.513h0l-.234.415a.619.619,0,0,0-.656.1l-56.3,33.885a2.663,2.663,0,0,0-1.148,2.075l.117,38.743a.7.7,0,0,0,.258.635Zm56.96-76.412a.867.867,0,0,0-.445.146l-56.35,33.885a2.663,2.663,0,0,0-1.148,2.075l.117,38.743a.7.7,0,0,0,.258.635l.141.073v-.2l-.117-38.743a3.169,3.169,0,0,1,1.382-2.49l56.327-33.885a.691.691,0,0,1,.187-.1l-.141-.073A.368.368,0,0,0,120.712,96.193Z" transform="translate(-62.3 -95.706)"/>
    </g>
    <g id="Group_2998" data-name="Group 2998" transform="translate(72.399 74.996)">
      <g id="Group_2903" data-name="Group 2903" transform="translate(46.838)">
        <g id="Group_2902" data-name="Group 2902">
          <path id="Path_4125" data-name="Path 4125" class="cls-11" d="M308.533,287.95a1.054,1.054,0,0,1-.539-.146l-2.413-1.465a.531.531,0,0,1-.281-.464.583.583,0,0,1,.281-.464l2.437-1.465a1.065,1.065,0,0,1,1.078,0l2.413,1.465a.514.514,0,0,1-.023.928l-2.437,1.465A.916.916,0,0,1,308.533,287.95Zm-2.788-2.075.047.049,2.413,1.465a.67.67,0,0,0,.609,0l2.437-1.465.047-.049-.047-.049-2.413-1.465a.67.67,0,0,0-.609,0l-2.437,1.465Z" transform="translate(-305.3 -283.8)"/>
        </g>
      </g>
      <g id="Group_2905" data-name="Group 2905" transform="translate(38.239 5.102)">
        <g id="Group_2904" data-name="Group 2904">
          <path id="Path_4126" data-name="Path 4126" class="cls-12" d="M271.833,308.85a1.055,1.055,0,0,1-.539-.146l-2.413-1.465a.561.561,0,0,1-.281-.464.583.583,0,0,1,.281-.464h0l2.437-1.465a1.065,1.065,0,0,1,1.078,0l2.413,1.465a.514.514,0,0,1-.023.928l-2.437,1.465A.916.916,0,0,1,271.833,308.85Zm-2.765-2.075.047.049,2.413,1.465a.67.67,0,0,0,.609,0l2.437-1.465.047-.049-.047-.049-2.413-1.465a.67.67,0,0,0-.609,0l-2.437,1.465C269.069,306.751,269.069,306.775,269.069,306.775Z" transform="translate(-268.6 -304.7)"/>
        </g>
      </g>
      <g id="Group_2907" data-name="Group 2907" transform="translate(42.784 2.368)">
        <g id="Group_2906" data-name="Group 2906">
          <path id="Path_4127" data-name="Path 4127" class="cls-13" d="M291.233,297.65a1.055,1.055,0,0,1-.539-.146l-2.413-1.465a.531.531,0,0,1-.281-.464.55.55,0,0,1,.281-.464h0l2.437-1.465a1.065,1.065,0,0,1,1.078,0l2.413,1.465a.514.514,0,0,1-.023.928l-2.437,1.465A.916.916,0,0,1,291.233,297.65Zm-2.788-2.075.047.049,2.413,1.465a.67.67,0,0,0,.609,0l2.437-1.465.047-.049-.047-.049-2.413-1.465a.67.67,0,0,0-.609,0l-2.437,1.465Z" transform="translate(-288 -293.5)"/>
        </g>
      </g>
      <g id="Group_2909" data-name="Group 2909" transform="translate(33.951 7.708)">
        <g id="Group_2908" data-name="Group 2908">
          <path id="Path_4128" data-name="Path 4128" class="cls-14" d="M253.533,319.507a1.054,1.054,0,0,1-.539-.146l-2.413-1.465a.56.56,0,0,1-.281-.464.583.583,0,0,1,.281-.464h0l2.437-1.465a1.2,1.2,0,0,1,1.078,0l2.413,1.465a.514.514,0,0,1-.023.928l-2.437,1.465A.759.759,0,0,1,253.533,319.507Zm-2.765-2.051.047.049,2.413,1.465a.67.67,0,0,0,.609,0l2.437-1.465.047-.049-.047-.049-2.413-1.465a.67.67,0,0,0-.609,0l-2.437,1.465C250.769,317.432,250.769,317.432,250.769,317.456Z" transform="translate(-250.3 -315.375)"/>
        </g>
      </g>
      <g id="Group_2911" data-name="Group 2911" transform="translate(29.71 10.229)">
        <g id="Group_2910" data-name="Group 2910">
          <path id="Path_4129" data-name="Path 4129" class="cls-15" d="M235.433,329.85a1.054,1.054,0,0,1-.539-.146l-2.413-1.465a.56.56,0,0,1-.281-.464.55.55,0,0,1,.281-.464h0l2.437-1.465a1.065,1.065,0,0,1,1.078,0l2.413,1.465a.56.56,0,0,1,.281.464.583.583,0,0,1-.281.464l-2.437,1.465A.941.941,0,0,1,235.433,329.85Zm-2.765-2.051.047.049,2.413,1.465a.67.67,0,0,0,.609,0l2.437-1.465.047-.049-.047-.049-2.413-1.465a.67.67,0,0,0-.609,0l-2.437,1.465C232.692,327.775,232.669,327.775,232.669,327.8Z" transform="translate(-232.2 -325.7)"/>
        </g>
      </g>
      <g id="Group_2913" data-name="Group 2913" transform="translate(25.492 12.777)">
        <g id="Group_2912" data-name="Group 2912">
          <path id="Path_4130" data-name="Path 4130" class="cls-16" d="M217.433,340.278a1.054,1.054,0,0,1-.539-.146l-2.413-1.465a.514.514,0,0,1,.023-.928l2.437-1.465a1.126,1.126,0,0,1,1.078,0l2.413,1.465a.514.514,0,0,1-.023.928l-2.437,1.465A1.054,1.054,0,0,1,217.433,340.278Zm-2.788-2.051.047.049,2.413,1.465a.67.67,0,0,0,.609,0l2.437-1.465.047-.049-.047-.049-2.413-1.465a.67.67,0,0,0-.609,0l-2.437,1.465Z" transform="translate(-214.2 -336.137)"/>
        </g>
      </g>
      <g id="Group_2915" data-name="Group 2915" transform="translate(46.627 2.792)">
        <g id="Group_2914" data-name="Group 2914">
          <path id="Path_4131" data-name="Path 4131" class="cls-17" d="M307.633,301.941a1.054,1.054,0,0,1-.539-.146l-2.413-1.465a.531.531,0,0,1-.281-.464.55.55,0,0,1,.281-.464h0l6.678-4.028a1.126,1.126,0,0,1,1.078,0l2.413,1.465a.514.514,0,0,1-.023.928l-6.678,4.028A.817.817,0,0,1,307.633,301.941Zm-2.765-2.051.047.049,2.413,1.465a.67.67,0,0,0,.609,0l6.678-4.028.047-.049-.047-.049-2.413-1.465a.67.67,0,0,0-.609,0l-6.678,4.028C304.892,299.866,304.869,299.866,304.869,299.891Z" transform="translate(-304.4 -295.237)"/>
        </g>
      </g>
      <g id="Group_2917" data-name="Group 2917" transform="translate(42.597 7.69)">
        <g id="Group_2916" data-name="Group 2916">
          <path id="Path_4132" data-name="Path 4132" class="cls-18" d="M290.433,319.45a1.054,1.054,0,0,1-.539-.146l-2.413-1.465a.561.561,0,0,1-.281-.464.583.583,0,0,1,.281-.464l2.437-1.465a1.065,1.065,0,0,1,1.078,0l2.413,1.465a.514.514,0,0,1-.023.928l-2.437,1.465A.916.916,0,0,1,290.433,319.45Zm-2.788-2.051.047.049,2.413,1.465a.67.67,0,0,0,.609,0l2.437-1.465.047-.049-.047-.049-2.413-1.465a.67.67,0,0,0-.609,0l-2.437,1.465Z" transform="translate(-287.2 -315.3)"/>
        </g>
      </g>
      <g id="Group_2919" data-name="Group 2919" transform="translate(38.028 10.424)">
        <g id="Group_2918" data-name="Group 2918">
          <path id="Path_4133" data-name="Path 4133" class="cls-19" d="M270.933,330.65a1.054,1.054,0,0,1-.539-.146l-2.413-1.465a.531.531,0,0,1-.281-.464.583.583,0,0,1,.281-.464l2.437-1.465a1.065,1.065,0,0,1,1.078,0l2.413,1.465a.531.531,0,0,1,.281.464.55.55,0,0,1-.281.464l-2.437,1.465A1.054,1.054,0,0,1,270.933,330.65Zm-2.788-2.051.047.049,2.413,1.465a.67.67,0,0,0,.609,0l2.437-1.465.047-.049-.047-.049-2.413-1.465a.67.67,0,0,0-.609,0l-2.437,1.465Z" transform="translate(-267.7 -326.5)"/>
        </g>
      </g>
      <g id="Group_2921" data-name="Group 2921" transform="translate(33.763 12.988)">
        <g id="Group_2920" data-name="Group 2920">
          <path id="Path_4134" data-name="Path 4134" class="cls-20" d="M252.733,341.15a1.054,1.054,0,0,1-.539-.147l-2.413-1.465a.531.531,0,0,1-.281-.464.55.55,0,0,1,.281-.464h0l2.437-1.465a1.064,1.064,0,0,1,1.078,0l2.413,1.465a.514.514,0,0,1-.023.928L253.249,341A.817.817,0,0,1,252.733,341.15Zm-2.765-2.051.047.049,2.413,1.465a.67.67,0,0,0,.609,0l2.437-1.465c.023-.024.047-.024.047-.049l-.047-.049-2.413-1.465a.67.67,0,0,0-.609,0l-2.437,1.465C249.992,339.075,249.969,339.075,249.969,339.1Z" transform="translate(-249.5 -337)"/>
        </g>
      </g>
      <g id="Group_2923" data-name="Group 2923" transform="translate(29.522 15.551)">
        <g id="Group_2922" data-name="Group 2922">
          <path id="Path_4135" data-name="Path 4135" class="cls-21" d="M234.633,351.65a1.055,1.055,0,0,1-.539-.146l-2.413-1.465a.514.514,0,0,1,.023-.928l2.437-1.465a1.064,1.064,0,0,1,1.078,0l2.413,1.465a.514.514,0,0,1-.023.928l-2.437,1.465A1,1,0,0,1,234.633,351.65Zm-2.765-2.075.047.049,2.413,1.465a.67.67,0,0,0,.609,0l2.437-1.465c.023-.024.047-.024.047-.049l-.047-.049-2.413-1.465a.67.67,0,0,0-.609,0l-2.437,1.465Z" transform="translate(-231.4 -347.5)"/>
        </g>
      </g>
      <g id="Group_2925" data-name="Group 2925" transform="translate(50.75 5.526)">
        <g id="Group_2924" data-name="Group 2924">
          <path id="Path_4136" data-name="Path 4136" class="cls-22" d="M325.233,313.141a1,1,0,0,1-.539-.146l-2.413-1.465a.514.514,0,0,1,.023-.928l6.678-4.028a1.126,1.126,0,0,1,1.078,0l2.413,1.465a.531.531,0,0,1,.281.464.583.583,0,0,1-.281.464l-6.725,4.028A.916.916,0,0,1,325.233,313.141Zm-2.788-2.075.047.049,2.413,1.465a.67.67,0,0,0,.609,0l6.678-4.028.047-.049-.047-.049-2.413-1.465a.67.67,0,0,0-.609,0l-6.678,4.028Z" transform="translate(-322 -306.437)"/>
        </g>
      </g>
      <g id="Group_2927" data-name="Group 2927" transform="translate(46.486 10.4)">
        <g id="Group_2926" data-name="Group 2926">
          <path id="Path_4137" data-name="Path 4137" class="cls-23" d="M307.033,330.55a1.054,1.054,0,0,1-.539-.147l-2.413-1.465a.531.531,0,0,1-.281-.464.583.583,0,0,1,.281-.464h0l2.437-1.465a1.065,1.065,0,0,1,1.078,0l2.413,1.465a.56.56,0,0,1,.281.464.59.59,0,0,1-.3.464l-2.437,1.465A.864.864,0,0,1,307.033,330.55Zm-2.765-2.075.047.049,2.413,1.465a.67.67,0,0,0,.609,0l2.437-1.465.047-.049-.047-.049-2.413-1.465a.67.67,0,0,0-.609,0l-2.437,1.465Z" transform="translate(-303.8 -326.4)"/>
        </g>
      </g>
      <g id="Group_2929" data-name="Group 2929" transform="translate(42.105 13.085)">
        <g id="Group_2928" data-name="Group 2928">
          <path id="Path_4138" data-name="Path 4138" class="cls-24" d="M288.333,341.55a1.054,1.054,0,0,1-.539-.146l-2.413-1.465a.56.56,0,0,1-.281-.464.55.55,0,0,1,.281-.464h0l2.437-1.465a1.065,1.065,0,0,1,1.078,0l2.413,1.465a.514.514,0,0,1-.023.928l-2.437,1.465A.759.759,0,0,1,288.333,341.55Zm-2.788-2.051.047.049,2.413,1.465a.67.67,0,0,0,.609,0l2.437-1.465.047-.049-.047-.049-2.413-1.465a.67.67,0,0,0-.609,0l-2.437,1.465Z" transform="translate(-285.1 -337.4)"/>
        </g>
      </g>
      <g id="Group_2931" data-name="Group 2931" transform="translate(37.864 15.649)">
        <g id="Group_2930" data-name="Group 2930">
          <path id="Path_4139" data-name="Path 4139" class="cls-25" d="M270.233,352.05a1,1,0,0,1-.539-.146l-2.413-1.465a.514.514,0,0,1,.023-.928l2.437-1.465a1.065,1.065,0,0,1,1.078,0l2.413,1.465a.531.531,0,0,1,.281.464.55.55,0,0,1-.281.464L270.8,351.9A1.208,1.208,0,0,1,270.233,352.05ZM267.445,350l.047.049,2.413,1.465a.67.67,0,0,0,.609,0l2.437-1.465L273,350l-.047-.049-2.413-1.465a.67.67,0,0,0-.609,0l-2.437,1.465C267.469,349.975,267.445,349.975,267.445,350Z" transform="translate(-267 -347.9)"/>
        </g>
      </g>
      <g id="Group_2933" data-name="Group 2933" transform="translate(21.251 15.35)">
        <g id="Group_2932" data-name="Group 2932">
          <path id="Path_4140" data-name="Path 4140" class="cls-26" d="M199.333,350.807a1.054,1.054,0,0,1-.539-.146l-2.413-1.465a.531.531,0,0,1-.281-.464.5.5,0,0,1,.281-.464h0l2.437-1.465a1.2,1.2,0,0,1,1.078,0l2.413,1.465a.514.514,0,0,1-.023.928l-2.437,1.465A.916.916,0,0,1,199.333,350.807Zm-2.788-2.075.047.049,2.413,1.465a.67.67,0,0,0,.609,0l2.437-1.465.047-.049-.047-.049-2.413-1.465a.67.67,0,0,0-.609,0l-2.437,1.465Z" transform="translate(-196.1 -346.675)"/>
        </g>
      </g>
      <g id="Group_2935" data-name="Group 2935" transform="translate(25.282 18.114)">
        <g id="Group_2934" data-name="Group 2934">
          <path id="Path_4141" data-name="Path 4141" class="cls-27" d="M216.533,362.15a1.054,1.054,0,0,1-.539-.146l-2.413-1.465a.561.561,0,0,1-.281-.464.583.583,0,0,1,.281-.464l2.437-1.465a1.064,1.064,0,0,1,1.078,0l2.413,1.465a.514.514,0,0,1-.023.928L217.049,362A.916.916,0,0,1,216.533,362.15Zm-2.788-2.075.047.049,2.413,1.465a.67.67,0,0,0,.609,0l2.437-1.465.047-.049-.047-.049-2.413-1.465a.67.67,0,0,0-.609,0l-2.437,1.465C213.769,360.051,213.769,360.075,213.745,360.075Z" transform="translate(-213.3 -358)"/>
        </g>
      </g>
      <g id="Group_2937" data-name="Group 2937" transform="translate(33.599 18.212)">
        <g id="Group_2936" data-name="Group 2936">
          <path id="Path_4142" data-name="Path 4142" class="cls-28" d="M252.033,362.55a1.055,1.055,0,0,1-.539-.146l-2.413-1.465a.56.56,0,0,1-.281-.464.55.55,0,0,1,.281-.464h0l2.437-1.465a1.065,1.065,0,0,1,1.078,0l2.413,1.465a.56.56,0,0,1,.281.464.55.55,0,0,1-.281.464l-2.437,1.465A1,1,0,0,1,252.033,362.55Zm-2.765-2.075.047.049,2.413,1.465a.67.67,0,0,0,.609,0l2.437-1.465.047-.049-.047-.049-2.413-1.465a.67.67,0,0,0-.609,0l-2.437,1.465Z" transform="translate(-248.8 -358.4)"/>
        </g>
      </g>
      <g id="Group_2939" data-name="Group 2939" transform="translate(29.358 20.775)">
        <g id="Group_2938" data-name="Group 2938">
          <path id="Path_4143" data-name="Path 4143" class="cls-29" d="M233.933,373.05a1.054,1.054,0,0,1-.539-.146l-2.413-1.465a.514.514,0,0,1,.023-.928l2.437-1.465a1.065,1.065,0,0,1,1.078,0l2.413,1.465a.56.56,0,0,1,.281.464.549.549,0,0,1-.281.464L234.5,372.9A1.208,1.208,0,0,1,233.933,373.05Zm-2.788-2.075.047.049,2.413,1.465a.67.67,0,0,0,.609,0l2.437-1.465.047-.049-.047-.049-2.413-1.465a.67.67,0,0,0-.609,0l-2.437,1.465C231.169,370.951,231.169,370.975,231.145,370.975Z" transform="translate(-230.7 -368.9)"/>
        </g>
      </g>
      <g id="Group_2941" data-name="Group 2941" transform="translate(50.352 8.007)">
        <g id="Group_2940" data-name="Group 2940">
          <path id="Path_4144" data-name="Path 4144" class="cls-30" d="M323.533,325.877a1.054,1.054,0,0,1-.539-.146l-2.413-1.465a.531.531,0,0,1-.281-.464.583.583,0,0,1,.281-.464h0l10.942-6.591a1.064,1.064,0,0,1,1.078,0l2.413,1.465a.514.514,0,0,1-.023.928l-10.942,6.591A.916.916,0,0,1,323.533,325.877Zm-2.788-2.051.047.049,2.413,1.465a.67.67,0,0,0,.609,0l10.942-6.591.047-.049-.047-.049-2.413-1.465a.67.67,0,0,0-.609,0l-10.942,6.591h0C320.769,323.8,320.745,323.8,320.745,323.826Z" transform="translate(-320.3 -316.6)"/>
        </g>
      </g>
      <g id="Group_2943" data-name="Group 2943" transform="translate(46.182 15.697)">
        <g id="Group_2942" data-name="Group 2942">
          <path id="Path_4145" data-name="Path 4145" class="cls-31" d="M305.733,352.25a1.054,1.054,0,0,1-.539-.146l-2.413-1.465a.531.531,0,0,1-.281-.464.583.583,0,0,1,.281-.464l2.437-1.465a1.065,1.065,0,0,1,1.078,0l2.413,1.465a.531.531,0,0,1,.281.464.55.55,0,0,1-.281.464l-2.437,1.465A1.054,1.054,0,0,1,305.733,352.25Zm-2.788-2.051.047.049,2.413,1.465a.67.67,0,0,0,.609,0l2.437-1.465.047-.049-.047-.049-2.413-1.465a.67.67,0,0,0-.609,0l-2.437,1.465Z" transform="translate(-302.5 -348.1)"/>
        </g>
      </g>
      <g id="Group_2945" data-name="Group 2945" transform="translate(41.917 18.261)">
        <g id="Group_2944" data-name="Group 2944">
          <path id="Path_4146" data-name="Path 4146" class="cls-32" d="M287.533,362.75a1.055,1.055,0,0,1-.539-.146l-2.413-1.465a.561.561,0,0,1-.281-.464.527.527,0,0,1,.3-.464l2.437-1.465a1.064,1.064,0,0,1,1.078,0l2.413,1.465a.56.56,0,0,1,.281.464.622.622,0,0,1-.281.464L288.1,362.6A1.078,1.078,0,0,1,287.533,362.75Zm-2.765-2.051.047.049,2.413,1.465a.67.67,0,0,0,.609,0l2.437-1.465.047-.049-.047-.049-2.413-1.465a.67.67,0,0,0-.609,0l-2.437,1.465A.051.051,0,0,0,284.769,360.7Z" transform="translate(-284.3 -358.6)"/>
        </g>
      </g>
      <g id="Group_2947" data-name="Group 2947" transform="translate(37.676 20.824)">
        <g id="Group_2946" data-name="Group 2946">
          <path id="Path_4147" data-name="Path 4147" class="cls-33" d="M269.433,373.25a1.054,1.054,0,0,1-.539-.146l-2.413-1.465a.514.514,0,0,1,.023-.928l2.437-1.465a1.065,1.065,0,0,1,1.078,0l2.413,1.465a.531.531,0,0,1,.281.464.557.557,0,0,1-.3.464l-2.437,1.465A1,1,0,0,1,269.433,373.25Zm-2.765-2.075.047.049,2.413,1.465a.67.67,0,0,0,.609,0l2.437-1.465.047-.049-.047-.049-2.413-1.465a.67.67,0,0,0-.609,0l-2.437,1.465Z" transform="translate(-266.2 -369.1)"/>
        </g>
      </g>
      <g id="Group_2949" data-name="Group 2949" transform="translate(33.435 23.387)">
        <g id="Group_2948" data-name="Group 2948">
          <path id="Path_4148" data-name="Path 4148" class="cls-34" d="M251.333,383.75a1.055,1.055,0,0,1-.539-.146l-2.413-1.465a.56.56,0,0,1-.281-.464.583.583,0,0,1,.281-.464h0l2.437-1.465a1.065,1.065,0,0,1,1.078,0l2.413,1.465a.514.514,0,0,1-.023.928l-2.437,1.465A.916.916,0,0,1,251.333,383.75Zm-2.788-2.075.047.049,2.413,1.465a.67.67,0,0,0,.609,0l2.437-1.465.047-.049-.047-.049-2.413-1.465a.67.67,0,0,0-.609,0l-2.437,1.465C248.569,381.651,248.569,381.675,248.545,381.675Z" transform="translate(-248.1 -379.6)"/>
        </g>
      </g>
      <g id="Group_2951" data-name="Group 2951" transform="translate(16.987 17.913)">
        <g id="Group_2950" data-name="Group 2950">
          <path id="Path_4149" data-name="Path 4149" class="cls-35" d="M181.133,361.307a1.054,1.054,0,0,1-.539-.146l-2.413-1.465a.56.56,0,0,1-.281-.464.583.583,0,0,1,.281-.464l2.437-1.465a1.2,1.2,0,0,1,1.078,0l2.413,1.465a.531.531,0,0,1,.281.464.583.583,0,0,1-.281.464l-2.437,1.465A1,1,0,0,1,181.133,361.307Zm-2.765-2.075.047.049,2.413,1.465a.67.67,0,0,0,.609,0l2.437-1.465c.023-.024.047-.024.047-.049l-.047-.049-2.413-1.465a.67.67,0,0,0-.609,0l-2.437,1.465Z" transform="translate(-177.9 -357.175)"/>
        </g>
      </g>
      <g id="Group_2953" data-name="Group 2953" transform="translate(21.017 20.653)">
        <g id="Group_2952" data-name="Group 2952">
          <path id="Path_4150" data-name="Path 4150" class="cls-36" d="M198.333,372.55a1.054,1.054,0,0,1-.539-.146l-2.413-1.465a.514.514,0,0,1,.023-.928l2.437-1.465a1.065,1.065,0,0,1,1.078,0l2.413,1.465a.561.561,0,0,1,.281.464.583.583,0,0,1-.281.464L198.9,372.4A1.078,1.078,0,0,1,198.333,372.55Zm-2.765-2.051.047.049,2.413,1.465a.67.67,0,0,0,.609,0l2.437-1.465.047-.049-.047-.049-2.413-1.465a.67.67,0,0,0-.609,0l-2.437,1.465Z" transform="translate(-195.1 -368.4)"/>
        </g>
      </g>
      <g id="Group_2955" data-name="Group 2955" transform="translate(25.094 23.314)">
        <g id="Group_2954" data-name="Group 2954">
          <path id="Path_4151" data-name="Path 4151" class="cls-37" d="M215.733,383.45a1,1,0,0,1-.539-.146l-2.413-1.465a.531.531,0,0,1-.281-.464.583.583,0,0,1,.281-.464h0l2.437-1.465a1.065,1.065,0,0,1,1.078,0l2.413,1.465a.561.561,0,0,1,.281.464.583.583,0,0,1-.281.464l-2.437,1.465A.787.787,0,0,1,215.733,383.45Zm-2.765-2.051.047.049,2.413,1.465a.67.67,0,0,0,.609,0l2.437-1.465.047-.049-.047-.049-2.413-1.465a.67.67,0,0,0-.609,0l-2.437,1.465Z" transform="translate(-212.5 -379.3)"/>
        </g>
      </g>
      <g id="Group_2957" data-name="Group 2957" transform="translate(29.171 25.926)">
        <g id="Group_2956" data-name="Group 2956">
          <path id="Path_4152" data-name="Path 4152" class="cls-38" d="M233.133,394.15a1.054,1.054,0,0,1-.539-.147l-2.413-1.465a.531.531,0,0,1-.281-.464.583.583,0,0,1,.281-.464l2.437-1.465a1.065,1.065,0,0,1,1.078,0l2.413,1.465a.531.531,0,0,1,.281.464.583.583,0,0,1-.281.464L233.672,394A.941.941,0,0,1,233.133,394.15Zm-2.765-2.051.047.049,2.413,1.465a.67.67,0,0,0,.609,0l2.437-1.465.047-.049-.047-.049-2.413-1.465a.67.67,0,0,0-.609,0l-2.437,1.465C230.392,392.075,230.369,392.075,230.369,392.1Z" transform="translate(-229.9 -390)"/>
        </g>
      </g>
      <g id="Group_2959" data-name="Group 2959" transform="translate(62.747 10.595)">
        <g id="Group_2958" data-name="Group 2958">
          <path id="Path_4153" data-name="Path 4153" class="cls-39" d="M376.433,331.35a1.055,1.055,0,0,1-.539-.146l-2.413-1.465a.523.523,0,0,1,0-.928h0l2.437-1.465a1.064,1.064,0,0,1,1.078,0l2.413,1.465a.561.561,0,0,1,.281.464.583.583,0,0,1-.281.464l-2.437,1.465A1.055,1.055,0,0,1,376.433,331.35Zm-2.788-2.075a.081.081,0,0,0,.047.024l2.413,1.465a.67.67,0,0,0,.609,0l2.437-1.465.047-.049-.047-.049-2.413-1.465a.67.67,0,0,0-.609,0l-2.437,1.465C373.669,329.251,373.669,329.275,373.645,329.275Z" transform="translate(-373.2 -327.2)"/>
        </g>
      </g>
      <g id="Group_2961" data-name="Group 2961" transform="translate(58.67 13.03)">
        <g id="Group_2960" data-name="Group 2960">
          <path id="Path_4154" data-name="Path 4154" class="cls-40" d="M359.033,341.307a1.055,1.055,0,0,1-.539-.146l-2.413-1.465a.531.531,0,0,1-.281-.464.55.55,0,0,1,.281-.464h0l2.437-1.465a1.2,1.2,0,0,1,1.078,0l2.413,1.465a.56.56,0,0,1,.281.464.583.583,0,0,1-.281.464l-2.437,1.465A.941.941,0,0,1,359.033,341.307Zm-2.765-2.075.047.049,2.413,1.465a.67.67,0,0,0,.609,0l2.437-1.465.047-.049-.047-.049-2.413-1.465a.67.67,0,0,0-.609,0l-2.437,1.465Z" transform="translate(-355.8 -337.175)"/>
        </g>
      </g>
      <g id="Group_2963" data-name="Group 2963" transform="translate(54.429 15.575)">
        <g id="Group_2962" data-name="Group 2962">
          <path id="Path_4155" data-name="Path 4155" class="cls-41" d="M340.933,351.75a1.055,1.055,0,0,1-.539-.146l-2.413-1.465a.514.514,0,0,1,.023-.928l2.437-1.465a1.065,1.065,0,0,1,1.078,0l2.413,1.465a.56.56,0,0,1,.281.464.583.583,0,0,1-.281.464L341.5,351.6A1.14,1.14,0,0,1,340.933,351.75Zm-2.765-2.075.047.049,2.413,1.465a.67.67,0,0,0,.609,0l2.437-1.465.047-.049-.047-.049-2.413-1.465a.67.67,0,0,0-.609,0l-2.437,1.465Z" transform="translate(-337.7 -347.6)"/>
        </g>
      </g>
      <g id="Group_2965" data-name="Group 2965" transform="translate(33.178 18.139)">
        <g id="Group_2964" data-name="Group 2964">
          <path id="Path_4156" data-name="Path 4156" class="cls-42" d="M250.233,372.479a1.055,1.055,0,0,1-.539-.146l-2.413-1.465A.56.56,0,0,1,247,370.4a.583.583,0,0,1,.281-.464l19.424-11.694a1.065,1.065,0,0,1,1.078,0l2.413,1.465a.514.514,0,0,1-.023.928l-19.424,11.694A.817.817,0,0,1,250.233,372.479Zm-2.765-2.075.047.049,2.413,1.465a.67.67,0,0,0,.609,0l19.424-11.694.047-.049-.047-.049-2.413-1.465a.67.67,0,0,0-.609,0l-19.424,11.694Z" transform="translate(-247 -358.1)"/>
        </g>
      </g>
      <g id="Group_2967" data-name="Group 2967" transform="translate(12.746 20.458)">
        <g id="Group_2966" data-name="Group 2966">
          <path id="Path_4157" data-name="Path 4157" class="cls-43" d="M163.033,371.75a1.054,1.054,0,0,1-.539-.147l-2.413-1.465a.56.56,0,0,1-.281-.464.549.549,0,0,1,.281-.464l2.437-1.465a1.065,1.065,0,0,1,1.078,0l2.413,1.465a.56.56,0,0,1,.281.464.583.583,0,0,1-.281.464l-2.437,1.465A1.054,1.054,0,0,1,163.033,371.75Zm-2.788-2.075.047.049,2.413,1.465a.67.67,0,0,0,.609,0l2.437-1.465.047-.049-.047-.049-2.413-1.465a.67.67,0,0,0-.609,0l-2.437,1.465C160.269,369.651,160.269,369.675,160.245,369.675Z" transform="translate(-159.8 -367.6)"/>
        </g>
      </g>
      <g id="Group_2969" data-name="Group 2969" transform="translate(8.482 22.997)">
        <g id="Group_2968" data-name="Group 2968">
          <path id="Path_4158" data-name="Path 4158" class="cls-44" d="M144.833,382.15a1.054,1.054,0,0,1-.539-.146l-2.413-1.465a.561.561,0,0,1-.281-.464.583.583,0,0,1,.281-.464h0l2.437-1.465a1.065,1.065,0,0,1,1.078,0l2.413,1.465a.5.5,0,0,1,.281.464.527.527,0,0,1-.3.464L145.349,382A.817.817,0,0,1,144.833,382.15Zm-2.765-2.051.047.049,2.413,1.465a.67.67,0,0,0,.609,0l2.437-1.465.047-.049a.081.081,0,0,0-.047-.024l-2.413-1.465a.67.67,0,0,0-.609,0l-2.437,1.465C142.092,380.075,142.069,380.075,142.069,380.1Z" transform="translate(-141.6 -378)"/>
        </g>
      </g>
      <g id="Group_2971" data-name="Group 2971" transform="translate(0 25.56)">
        <g id="Group_2970" data-name="Group 2970">
          <path id="Path_4159" data-name="Path 4159" class="cls-45" d="M108.633,395.214a1.055,1.055,0,0,1-.539-.146l-2.413-1.465a.56.56,0,0,1-.281-.464.583.583,0,0,1,.281-.464l6.678-4.028a1.064,1.064,0,0,1,1.078,0l2.413,1.465a.531.531,0,0,1,.281.464.557.557,0,0,1-.3.464l-6.678,4.028A.916.916,0,0,1,108.633,395.214Zm-2.788-2.075.047.049,2.413,1.465a.67.67,0,0,0,.609,0l6.678-4.028c.023-.024.047-.024.047-.049l-.047-.049-2.413-1.465a.67.67,0,0,0-.609,0l-6.678,4.028Z" transform="translate(-105.4 -388.5)"/>
        </g>
      </g>
      <g id="Group_2973" data-name="Group 2973" transform="translate(16.776 23.217)">
        <g id="Group_2972" data-name="Group 2972">
          <path id="Path_4160" data-name="Path 4160" class="cls-46" d="M180.233,383.05a1.054,1.054,0,0,1-.539-.146l-2.413-1.465a.514.514,0,0,1,.023-.928l2.437-1.465a1.065,1.065,0,0,1,1.078,0l2.413,1.465a.514.514,0,0,1-.023.928l-2.437,1.465A1.054,1.054,0,0,1,180.233,383.05ZM177.469,381l.047.049,2.413,1.465a.67.67,0,0,0,.609,0l2.437-1.465.047-.049-.047-.049-2.413-1.465a.67.67,0,0,0-.609,0l-2.437,1.465C177.469,380.975,177.469,380.975,177.469,381Z" transform="translate(-177 -378.9)"/>
        </g>
      </g>
      <g id="Group_2975" data-name="Group 2975" transform="translate(12.535 25.78)">
        <g id="Group_2974" data-name="Group 2974">
          <path id="Path_4161" data-name="Path 4161" class="cls-47" d="M162.133,393.55a1,1,0,0,1-.539-.147l-2.413-1.465a.531.531,0,0,1-.281-.464.55.55,0,0,1,.281-.464h0l2.437-1.465a1.065,1.065,0,0,1,1.078,0l2.413,1.465a.531.531,0,0,1,.281.464.55.55,0,0,1-.281.464l-2.437,1.465A1.054,1.054,0,0,1,162.133,393.55Zm-2.788-2.075.047.049,2.413,1.465a.67.67,0,0,0,.609,0l2.437-1.465.047-.049-.047-.049-2.413-1.465a.67.67,0,0,0-.609,0l-2.437,1.465Z" transform="translate(-158.9 -389.4)"/>
        </g>
      </g>
      <g id="Group_2977" data-name="Group 2977" transform="translate(8.271 28.343)">
        <g id="Group_2976" data-name="Group 2976">
          <path id="Path_4162" data-name="Path 4162" class="cls-48" d="M143.933,404.05a1.055,1.055,0,0,1-.539-.146l-2.413-1.465a.531.531,0,0,1-.281-.464.549.549,0,0,1,.281-.464h0l2.437-1.465a1.064,1.064,0,0,1,1.078,0l2.413,1.465a.56.56,0,0,1,.281.464.583.583,0,0,1-.281.464l-2.437,1.465A1,1,0,0,1,143.933,404.05Zm-2.765-2.075.047.049,2.413,1.465a.67.67,0,0,0,.609,0l2.437-1.465c.023-.024.047-.024.047-.049l-.047-.049-2.413-1.465a.67.67,0,0,0-.609,0l-2.437,1.465Z" transform="translate(-140.7 -399.9)"/>
        </g>
      </g>
      <g id="Group_2979" data-name="Group 2979" transform="translate(4.03 30.882)">
        <g id="Group_2978" data-name="Group 2978">
          <path id="Path_4163" data-name="Path 4163" class="cls-49" d="M125.833,414.45a1.055,1.055,0,0,1-.539-.146l-2.413-1.465a.56.56,0,0,1-.281-.464.583.583,0,0,1,.281-.464h0l2.437-1.465a1.065,1.065,0,0,1,1.078,0l2.413,1.465a.531.531,0,0,1,.281.464.55.55,0,0,1-.281.464l-2.437,1.465A.862.862,0,0,1,125.833,414.45Zm-2.788-2.051.047.049,2.413,1.465a.67.67,0,0,0,.609,0l2.437-1.465.047-.049-.047-.049-2.413-1.465a.67.67,0,0,0-.609,0l-2.437,1.465C123.069,412.375,123.069,412.4,123.045,412.4Z" transform="translate(-122.6 -410.3)"/>
        </g>
      </g>
      <g id="Group_2981" data-name="Group 2981" transform="translate(20.853 25.878)">
        <g id="Group_2980" data-name="Group 2980">
          <path id="Path_4164" data-name="Path 4164" class="cls-46" d="M197.633,393.95a1,1,0,0,1-.539-.146l-2.413-1.465a.514.514,0,0,1,.023-.928l2.437-1.465a1.065,1.065,0,0,1,1.078,0l2.413,1.465a.514.514,0,0,1-.023.928l-2.437,1.465A1,1,0,0,1,197.633,393.95Zm-2.765-2.051.047.049,2.413,1.465a.67.67,0,0,0,.609,0l2.437-1.465.047-.049-.047-.049-2.413-1.465a.67.67,0,0,0-.609,0l-2.437,1.465C194.869,391.875,194.869,391.875,194.869,391.9Z" transform="translate(-194.4 -389.8)"/>
        </g>
      </g>
      <g id="Group_2983" data-name="Group 2983" transform="translate(16.612 28.441)">
        <g id="Group_2982" data-name="Group 2982">
          <path id="Path_4165" data-name="Path 4165" class="cls-50" d="M179.533,404.45a1.054,1.054,0,0,1-.539-.147l-2.413-1.465a.531.531,0,0,1-.281-.464.583.583,0,0,1,.281-.464h0l2.437-1.465a1.065,1.065,0,0,1,1.078,0l2.413,1.465a.514.514,0,0,1-.023.928l-2.437,1.465A.916.916,0,0,1,179.533,404.45Zm-2.788-2.075.047.049,2.413,1.465a.67.67,0,0,0,.609,0l2.437-1.465.047-.049-.047-.049-2.413-1.465a.67.67,0,0,0-.609,0l-2.437,1.465Z" transform="translate(-176.3 -400.3)"/>
        </g>
      </g>
      <g id="Group_2985" data-name="Group 2985" transform="translate(8.107 31.224)">
        <g id="Group_2984" data-name="Group 2984">
          <path id="Path_4166" data-name="Path 4166" class="cls-51" d="M143.233,418.414a1.055,1.055,0,0,1-.539-.146l-2.413-1.465a.561.561,0,0,1-.281-.464.583.583,0,0,1,.281-.464l6.678-4.028a1.065,1.065,0,0,1,1.078,0l2.413,1.465a.531.531,0,0,1,.281.464.55.55,0,0,1-.281.464l-6.678,4.028A1.054,1.054,0,0,1,143.233,418.414Zm-2.788-2.051.047.049,2.413,1.465a.67.67,0,0,0,.609,0l6.678-4.028.047-.049-.047-.049-2.413-1.465a.67.67,0,0,0-.609,0l-6.678,4.028Z" transform="translate(-140 -411.7)"/>
        </g>
      </g>
      <g id="Group_2987" data-name="Group 2987" transform="translate(24.93 28.49)">
        <g id="Group_2986" data-name="Group 2986">
          <path id="Path_4167" data-name="Path 4167" class="cls-52" d="M215.033,404.65a1,1,0,0,1-.539-.146l-2.413-1.465a.514.514,0,0,1,.023-.928l2.437-1.465a1.065,1.065,0,0,1,1.078,0l2.413,1.465a.531.531,0,0,1,.281.464.583.583,0,0,1-.281.464L215.6,404.5A1.14,1.14,0,0,1,215.033,404.65Zm-2.765-2.051.047.049,2.413,1.465a.67.67,0,0,0,.609,0l2.437-1.465.047-.049-.047-.049-2.413-1.465a.67.67,0,0,0-.609,0l-2.437,1.465C212.292,402.575,212.269,402.575,212.269,402.6Z" transform="translate(-211.8 -400.5)"/>
        </g>
      </g>
      <g id="Group_2989" data-name="Group 2989" transform="translate(20.689 31.053)">
        <g id="Group_2988" data-name="Group 2988">
          <path id="Path_4168" data-name="Path 4168" class="cls-53" d="M196.933,415.15a1.055,1.055,0,0,1-.539-.146l-2.413-1.465a.531.531,0,0,1-.281-.464.583.583,0,0,1,.281-.464l2.437-1.465a1.065,1.065,0,0,1,1.078,0l2.413,1.465a.531.531,0,0,1,.281.464.55.55,0,0,1-.281.464L197.472,415A1.055,1.055,0,0,1,196.933,415.15Zm-2.788-2.075.047.049,2.413,1.465a.67.67,0,0,0,.609,0l2.437-1.465.047-.049-.047-.049-2.413-1.465a.67.67,0,0,0-.609,0l-2.437,1.465C194.169,413.051,194.169,413.075,194.145,413.075Z" transform="translate(-193.7 -411)"/>
        </g>
      </g>
      <g id="Group_2991" data-name="Group 2991" transform="translate(12.16 33.616)">
        <g id="Group_2990" data-name="Group 2990">
          <path id="Path_4169" data-name="Path 4169" class="cls-54" d="M160.369,428.262a.745.745,0,0,1-.4-.1l-2.39-1.562a.523.523,0,0,1,0-.928h0l6.678-4.028a1.065,1.065,0,0,1,1.078,0l2.413,1.465a.56.56,0,0,1,.281.464.531.531,0,0,1-.281.464l-6.678,4.028A1.355,1.355,0,0,1,160.369,428.262Zm-2.577-2.124.047.049,2.39,1.587a.721.721,0,0,0,.633-.122l6.678-4.028.047-.049-.047-.049-2.413-1.465a.67.67,0,0,0-.609,0l-6.678,4.028C157.792,426.114,157.792,426.138,157.792,426.138Z" transform="translate(-157.3 -421.5)"/>
        </g>
      </g>
      <g id="Group_2993" data-name="Group 2993" transform="translate(28.937 30.907)">
        <g id="Group_2992" data-name="Group 2992">
          <path id="Path_4170" data-name="Path 4170" class="cls-55" d="M232.133,414.55a1,1,0,0,1-.539-.146l-2.413-1.465a.523.523,0,0,1,0-.928h0l2.437-1.465a1.065,1.065,0,0,1,1.078,0l2.413,1.465a.561.561,0,0,1,.281.464.583.583,0,0,1-.281.464l-2.437,1.465A1.055,1.055,0,0,1,232.133,414.55Zm-2.788-2.051.047.049,2.413,1.465a.67.67,0,0,0,.609,0l2.437-1.465c.023-.024.047-.024.047-.049l-.047-.049-2.413-1.465a.67.67,0,0,0-.609,0l-2.437,1.465Z" transform="translate(-228.9 -410.4)"/>
        </g>
      </g>
      <g id="Group_2995" data-name="Group 2995" transform="translate(16.003 36.131)">
        <g id="Group_2994" data-name="Group 2994">
          <path id="Path_4171" data-name="Path 4171" class="cls-56" d="M176.933,438.513a1,1,0,0,1-.539-.146l-2.413-1.465a.514.514,0,0,1,.023-.928l6.678-4.028a1.065,1.065,0,0,1,1.078,0l2.413,1.465a.531.531,0,0,1,.281.464.55.55,0,0,1-.281.464l-6.678,4.028A1.078,1.078,0,0,1,176.933,438.513Zm-2.765-2.075.047.049,2.413,1.465a.67.67,0,0,0,.609,0l6.678-4.028.047-.049-.047-.049-2.413-1.465a.67.67,0,0,0-.609,0l-6.678,4.028Z" transform="translate(-173.7 -431.8)"/>
        </g>
      </g>
      <g id="Group_2997" data-name="Group 2997" transform="translate(24.672 33.47)">
        <g id="Group_2996" data-name="Group 2996">
          <path id="Path_4172" data-name="Path 4172" class="cls-57" d="M213.933,425.05a1.054,1.054,0,0,1-.539-.146l-2.413-1.465a.531.531,0,0,1-.281-.464.557.557,0,0,1,.3-.464l2.437-1.465a1.065,1.065,0,0,1,1.078,0l2.413,1.465a.514.514,0,0,1-.023.928l-2.437,1.465A.941.941,0,0,1,213.933,425.05ZM211.169,423l.047.049,2.413,1.465a.67.67,0,0,0,.609,0l2.437-1.465.047-.049-.047-.049-2.413-1.465a.67.67,0,0,0-.609,0l-2.437,1.465A.052.052,0,0,0,211.169,423Z" transform="translate(-210.7 -420.9)"/>
        </g>
      </g>
    </g>
    <g id="Group_2999" data-name="Group 2999" transform="translate(101.007 63.791)">
      <path id="Path_4173" data-name="Path 4173" class="cls-8" d="M235.748,242.563l-.843-.513-7.4-4.15.844.513Z" transform="translate(-227.5 -237.9)"/>
    </g>
    <g id="Group_3000" data-name="Group 3000" transform="translate(108.997 66.842)">
      <path id="Path_4174" data-name="Path 4174" class="cls-8" d="M261.623,250.4l.843.513-.609,1.1.609-1.1-.867-.488Z" transform="translate(-261.6 -250.4)"/>
    </g>
    <g id="Group_3001" data-name="Group 3001" transform="translate(62.3 29.077)">
      <path id="Path_4175" data-name="Path 4175" class="cls-10" d="M63.753,172.605h0l-.844-.513a1.187,1.187,0,0,1-.492-1.05L62.3,132.3a3.169,3.169,0,0,1,1.382-2.49l56.327-33.885a1.065,1.065,0,0,1,1.125-.1l.843.513h0l-.234.415a.619.619,0,0,0-.656.1l-56.3,33.885a2.663,2.663,0,0,0-1.148,2.075l.117,38.743a.7.7,0,0,0,.258.635Zm56.96-76.412a.867.867,0,0,0-.445.146l-56.35,33.885a2.663,2.663,0,0,0-1.148,2.075l.117,38.743a.7.7,0,0,0,.258.635l.141.073v-.2l-.117-38.743a3.169,3.169,0,0,1,1.382-2.49l56.327-33.885a.691.691,0,0,1,.187-.1l-.141-.073A.368.368,0,0,0,120.712,96.193Z" transform="translate(-62.3 -95.706)"/>
    </g>
    <g id="Group_3002" data-name="Group 3002" transform="translate(65.674 32.274)">
      <path id="Path_4176" data-name="Path 4176" class="cls-58" d="M76.817,179.939,76.7,141.806,131.574,108.8l.094,38.133L76.817,179.939" transform="translate(-76.7 -108.8)"/>
    </g>
    <g id="Group_3006" data-name="Group 3006" transform="translate(73.523 44.383)">
      <g id="Group_3003" data-name="Group 3003" transform="translate(36.294)">
        <path id="Path_4177" data-name="Path 4177" class="cls-59" d="M265.943,158.913l-.843-.513.047,23.632.867.513Z" transform="translate(-265.1 -158.4)"/>
      </g>
      <g id="Group_3004" data-name="Group 3004" transform="translate(2.273 18.505)">
        <path id="Path_4178" data-name="Path 4178" class="cls-59" d="M120.509,238.985l-.609,1.1,10.661,6.982,5.412-7.568,6.045,3.369,4.639-7.251,7.4,4.15.609-1.1L146.7,234.2l-4.639,7.275-6-3.345-5.389,7.544Z" transform="translate(-119.9 -234.2)"/>
      </g>
      <g id="Group_3005" data-name="Group 3005" transform="translate(0 23.632)">
        <path id="Path_4179" data-name="Path 4179" class="cls-59" d="M145.885,255.591l.047.049.07-.122.539-.317.867.513-36.341,21.849-.867-.513Z" transform="translate(-110.2 -255.2)"/>
      </g>
    </g>
  </g>
</svg>
