<svg xmlns="http://www.w3.org/2000/svg" xmlns:xlink="http://www.w3.org/1999/xlink" viewBox="756.685 839.042 81.389 59.69">
  <defs>
    <style>
      .cls-1, .cls-4 {
        fill: #fff;
      }

      .cls-1, .cls-5 {
        opacity: 0.5;
      }

      .cls-2 {
        fill: url(#linear-gradient);
      }

      .cls-3 {
        fill: url(#linear-gradient-2);
      }

      .cls-6 {
        fill: url(#linear-gradient-3);
      }

      .cls-7 {
        fill: url(#linear-gradient-4);
      }

      .cls-8 {
        fill: url(#linear-gradient-5);
      }

      .cls-9 {
        fill: url(#linear-gradient-6);
      }

      .cls-10 {
        fill: url(#linear-gradient-7);
      }
    </style>
    <linearGradient id="linear-gradient" y1="0.5" x2="1" y2="0.5" gradientUnits="objectBoundingBox">
      <stop offset="0" stop-color="#3e77bc"/>
      <stop offset="1" stop-color="#529fd8"/>
    </linearGradient>
    <linearGradient id="linear-gradient-2" x1="-0.001" y1="0.5" x2="1" y2="0.5" xlink:href="#linear-gradient"/>
    <linearGradient id="linear-gradient-3" x1="-1.841" y1="-1.997" x2="-1.872" y2="-1.997" gradientUnits="objectBoundingBox">
      <stop offset="0" stop-color="#3e77bc"/>
      <stop offset="0.047" stop-color="#407bbf"/>
      <stop offset="0.366" stop-color="#4a8fcd"/>
      <stop offset="0.685" stop-color="#509bd5"/>
      <stop offset="1" stop-color="#529fd8"/>
    </linearGradient>
    <linearGradient id="linear-gradient-4" x1="0.493" y1="0.478" x2="0.508" y2="0.522" xlink:href="#linear-gradient-3"/>
    <linearGradient id="linear-gradient-5" x1="-17.289" y1="36.941" x2="-17.33" y2="36.941" xlink:href="#linear-gradient-3"/>
    <linearGradient id="linear-gradient-6" x1="0.488" y1="0.523" x2="0.512" y2="0.479" xlink:href="#linear-gradient-3"/>
    <linearGradient id="linear-gradient-7" x1="-0.001" y1="0.5" x2="1" y2="0.5" xlink:href="#linear-gradient"/>
  </defs>
  <g id="Group_3367" data-name="Group 3367" transform="translate(-12 8)">
    <g id="icon_31" data-name="icon 31" transform="translate(669.379 760.73)">
      <g id="Group_3318" data-name="Group 3318" transform="translate(99.306 81.141)">
        <path id="Path_5051" data-name="Path 5051" class="cls-1" d="M183.8,156.06l-37.14,23.071L102.9,153.847,140.04,130.8Z" transform="translate(-102.654 -130.517)"/>
        <g id="Group_3317" data-name="Group 3317" transform="translate(0 0)">
          <path id="Path_5052" data-name="Path 5052" class="cls-2" d="M145.9,178.511a.222.222,0,0,1-.123-.025L102.023,153.2a.261.261,0,0,1,0-.443l37.14-23.071a.223.223,0,0,1,.246,0l43.757,25.26a.261.261,0,0,1,0,.443l-37.14,23.071A.188.188,0,0,1,145.9,178.511ZM102.613,152.98l43.265,24.99,36.673-22.776L139.286,130.2Z" transform="translate(-101.9 -129.65)"/>
        </g>
      </g>
      <g id="Group_3321" data-name="Group 3321" transform="translate(133.924 65.318)">
        <path id="Path_5055" data-name="Path 5055" class="cls-3" d="M305.166,125.242l-20.194-11.659a3.993,3.993,0,0,1-1.673-3.2V87.093c0-1.23.762-1.8,1.673-1.279l20.194,11.659a3.994,3.994,0,0,1,1.673,3.2v23.293C306.839,125.218,306.1,125.783,305.166,125.242Z" transform="translate(-283.3 -80.629)"/>
        <path id="Path_5056" data-name="Path 5056" class="cls-4" d="M313.293,148.889l-1.869,1.181-.3-.615.049-.025a.322.322,0,0,0,.123-.418l-.861-1.771a1.566,1.566,0,0,1-.1-1.107l.59-2.041a1.641,1.641,0,0,1,.664-.91l1.648-1.033a.322.322,0,0,0,.123-.418l-.025-.049.59-.369.959,1.992a.355.355,0,0,0,.517.148.471.471,0,0,0,.172-.59l-.959-1.992.344-.221a.353.353,0,0,0,.123-.443.287.287,0,0,0-.394-.123l-.344.221-.959-1.992a.355.355,0,0,0-.517-.148.472.472,0,0,0-.172.59l.959,1.992-.59.369-.025-.049a.237.237,0,0,0-.369-.1L311.03,142a1.252,1.252,0,0,1-1.008.172l-1.82-.516a1.277,1.277,0,0,1-.787-.689l-.836-1.746a.237.237,0,0,0-.369-.1l-.049.025-.3-.615,1.869-1.181a.471.471,0,0,0,.172-.59.355.355,0,0,0-.517-.148L305.52,137.8l-.172-.369a.287.287,0,0,0-.394-.123.353.353,0,0,0-.123.443l.172.369-1.869,1.181a.471.471,0,0,0-.172.59h0a.355.355,0,0,0,.517.148l1.869-1.181.3.615-.049.025a.322.322,0,0,0-.123.418l.836,1.746a1.566,1.566,0,0,1,.1,1.107l-.59,2.042a1.641,1.641,0,0,1-.664.91l-1.648,1.033a.322.322,0,0,0-.123.418l.025.049-.59.369-.959-1.992a.355.355,0,0,0-.517-.148h0a.471.471,0,0,0-.172.59l.959,1.992-.344.221a.353.353,0,0,0-.123.443.287.287,0,0,0,.394.123l.344-.221.959,1.992a.355.355,0,0,0,.517.148.472.472,0,0,0,.172-.59l-.959-1.992.59-.369.025.049a.237.237,0,0,0,.369.1l1.648-1.033a1.252,1.252,0,0,1,1.008-.172l1.82.517a1.277,1.277,0,0,1,.787.689l.836,1.746a.237.237,0,0,0,.369.1l.049-.025.3.615-1.869,1.181a.471.471,0,0,0-.172.59.355.355,0,0,0,.517.148l1.869-1.181.172.369a.287.287,0,0,0,.394.123h0a.353.353,0,0,0,.123-.443l-.172-.369,1.869-1.181a.472.472,0,0,0,.172-.59A.325.325,0,0,0,313.293,148.889Z" transform="translate(-297.74 -120.034)"/>
        <g id="XMLID_78_" transform="translate(20.642 9)">
          <g id="Group_3320" data-name="Group 3320" class="cls-5">
            <path id="Path_5057" data-name="Path 5057" class="cls-6" d="M338.919,77.021l1.082-.64a.308.308,0,1,1,.3.541l-1.082.64a.3.3,0,0,1-.418-.123A.329.329,0,0,1,338.919,77.021Zm3.788-2.189,1.082-.64a.308.308,0,1,1,.3.541l-1.082.64a.3.3,0,0,1-.418-.123A.315.315,0,0,1,342.707,74.832Zm3.788-2.214,1.082-.64a.308.308,0,0,1,.3.541l-1.082.64a.3.3,0,0,1-.418-.123A.322.322,0,0,1,346.495,72.619Zm3.788-2.189,1.082-.64a.308.308,0,0,1,.3.541l-1.082.64a.3.3,0,0,1-.418-.123A.315.315,0,0,1,350.283,70.429Zm3.812-2.214,1.082-.64a.308.308,0,0,1,.3.541l-1.082.64a.3.3,0,0,1-.418-.123A.282.282,0,0,1,354.1,68.216ZM357.883,66l1.082-.64a.308.308,0,1,1,.3.541l-1.082.64a.3.3,0,0,1-.418-.123A.329.329,0,0,1,357.883,66Z" transform="translate(-338.762 -65.318)"/>
          </g>
          <path id="Path_5058" data-name="Path 5058" class="cls-7" d="M359.113,65.4a.35.35,0,0,0-.148.049l-1.082.64a.322.322,0,0,0-.123.418.309.309,0,0,0,.271.148.35.35,0,0,0,.148-.049l1.082-.64a.322.322,0,0,0,.123-.418.283.283,0,0,0-.271-.148Zm-3.788,2.214a.349.349,0,0,0-.148.049L354.1,68.3a.322.322,0,0,0-.123.418.309.309,0,0,0,.271.148.349.349,0,0,0,.148-.049l1.082-.64a.322.322,0,0,0,.123-.418.309.309,0,0,0-.271-.148ZM351.537,69.8a.35.35,0,0,0-.148.049l-1.082.64a.322.322,0,0,0-.123.418.309.309,0,0,0,.271.148.35.35,0,0,0,.148-.049l1.082-.64a.322.322,0,0,0,.123-.418.375.375,0,0,0-.271-.148Zm-3.788,2.214a.349.349,0,0,0-.148.049l-1.082.639a.322.322,0,0,0-.123.418.309.309,0,0,0,.271.148.35.35,0,0,0,.148-.049l1.082-.64a.322.322,0,0,0,.123-.418.34.34,0,0,0-.271-.148Zm-3.788,2.189a.35.35,0,0,0-.148.049l-1.082.64a.322.322,0,0,0-.123.418.309.309,0,0,0,.271.148.35.35,0,0,0,.148-.049l1.082-.64a.322.322,0,0,0,.123-.418.427.427,0,0,0-.271-.148Zm-3.812,2.214a.349.349,0,0,0-.148.049l-1.082.64a.322.322,0,0,0-.123.418.309.309,0,0,0,.271.148.35.35,0,0,0,.148-.049l1.082-.64a.322.322,0,0,0,.123-.418.283.283,0,0,0-.271-.148Z" transform="translate(-338.762 -65.38)"/>
        </g>
      </g>
      <g id="Group_3322" data-name="Group 3322" transform="translate(3 -1)">
        <g id="XMLID_120_" transform="translate(98.46 79.578)">
          <g id="Group_3319" data-name="Group 3319" class="cls-5" transform="translate(0 0)">
            <path id="Path_5053" data-name="Path 5053" class="cls-8" d="M103.143,131.256l-1.008-.738A.317.317,0,1,1,102.5,130l1.008.738a.315.315,0,0,1,.074.443A.318.318,0,0,1,103.143,131.256ZM99.6,128.673l-1.008-.738a.317.317,0,1,1,.369-.517l1.008.738a.315.315,0,0,1,.074.443A.321.321,0,0,1,99.6,128.673Zm13.922,10.134-1.008-.738a.317.317,0,1,1,.369-.517l1.008.738a.315.315,0,0,1,.074.443A.321.321,0,0,1,113.523,138.807Zm-3.542-2.583-1.008-.738a.317.317,0,1,1,.369-.517l1.008.738a.315.315,0,0,1,.074.443A.321.321,0,0,1,109.981,136.225Zm-3.566-2.583-1.008-.738a.317.317,0,0,1,.369-.517l1.008.738a.317.317,0,0,1-.369.517Z" transform="translate(-98.46 -127.36)"/>
          </g>
          <path id="Path_5054" data-name="Path 5054" class="cls-9" d="M98.765,127.4a.3.3,0,0,0-.246.123.315.315,0,0,0,.074.443l1.008.738a.234.234,0,0,0,.172.049.3.3,0,0,0,.246-.123.315.315,0,0,0-.074-.443l-1.008-.738a.355.355,0,0,0-.172-.049Zm3.542,2.583a.3.3,0,0,0-.246.123.315.315,0,0,0,.074.443l1.008.738a.234.234,0,0,0,.172.049.3.3,0,0,0,.246-.123.315.315,0,0,0-.074-.443l-1.008-.738a.355.355,0,0,0-.172-.049Zm3.3,2.386a.3.3,0,0,0-.246.123.315.315,0,0,0,.074.443l1.008.738a.234.234,0,0,0,.172.049.3.3,0,0,0,.246-.123.315.315,0,0,0-.074-.443l-1.008-.738a.456.456,0,0,0-.172-.049Zm3.542,2.583a.3.3,0,0,0-.246.123.315.315,0,0,0,.074.443l1.008.738a.234.234,0,0,0,.172.049.3.3,0,0,0,.246-.123.315.315,0,0,0-.074-.443L109.317,135a.456.456,0,0,0-.172-.049Zm3.542,2.583a.3.3,0,0,0-.246.123.315.315,0,0,0,.074.443l1.008.738a.234.234,0,0,0,.172.049.3.3,0,0,0,.246-.123.315.315,0,0,0-.074-.443l-1.008-.738a.355.355,0,0,0-.172-.049Z" transform="translate(-98.46 -127.39)"/>
        </g>
        <path id="Path_5059" data-name="Path 5059" class="cls-10" d="M184.866,155.042l-20.194-11.659a3.993,3.993,0,0,1-1.673-3.2V116.893c0-1.23.763-1.8,1.673-1.279l20.194,11.659a3.994,3.994,0,0,1,1.673,3.2v23.293C186.539,155.018,185.776,155.583,184.866,155.042Z" transform="translate(-48.666 -37.781)"/>
        <path id="Path_5060" data-name="Path 5060" class="cls-4" d="M193.068,178.765l-1.869,1.181-.3-.615.049-.025a.322.322,0,0,0,.123-.418l-.836-1.746a1.566,1.566,0,0,1-.1-1.107l.59-2.041a1.641,1.641,0,0,1,.664-.91l1.648-1.033a.322.322,0,0,0,.123-.418l-.025-.049.59-.369.959,1.992a.355.355,0,0,0,.517.148.472.472,0,0,0,.172-.59l-.959-1.992.344-.221a.353.353,0,0,0,.123-.443.287.287,0,0,0-.394-.123l-.344.221-.959-1.992a.355.355,0,0,0-.517-.148.472.472,0,0,0-.172.59l.959,1.992-.59.369-.025-.049a.237.237,0,0,0-.369-.1L190.83,171.9a1.252,1.252,0,0,1-1.008.172l-1.82-.517a1.277,1.277,0,0,1-.787-.689l-.836-1.746a.237.237,0,0,0-.369-.1l-.049.025-.3-.615,1.869-1.181a.471.471,0,0,0,.172-.59.355.355,0,0,0-.517-.148l-1.869,1.181-.172-.369a.287.287,0,0,0-.394-.123.353.353,0,0,0-.123.443l.172.369-1.869,1.181a.471.471,0,0,0-.172.59h0a.355.355,0,0,0,.516.148l1.869-1.181.3.615-.049.025a.322.322,0,0,0-.123.418l.836,1.746a1.566,1.566,0,0,1,.1,1.107l-.59,2.041a1.641,1.641,0,0,1-.664.91l-1.648,1.033a.322.322,0,0,0-.123.418l.025.049-.59.369-.959-1.992a.355.355,0,0,0-.517-.148h0a.472.472,0,0,0-.172.59l.959,1.992-.344.221a.353.353,0,0,0-.123.443.287.287,0,0,0,.394.123l.344-.221.959,1.992a.355.355,0,0,0,.516.148.472.472,0,0,0,.172-.59l-.959-1.992.59-.369.025.049a.237.237,0,0,0,.369.1l1.648-1.033a1.252,1.252,0,0,1,1.008-.172l1.82.517a1.277,1.277,0,0,1,.787.689l.836,1.746a.237.237,0,0,0,.369.1l.049-.025.3.615-1.869,1.181a.472.472,0,0,0-.172.59.355.355,0,0,0,.517.148L191.027,181l.172.369a.287.287,0,0,0,.394.123h0a.353.353,0,0,0,.123-.443l-.172-.369,1.869-1.181a.472.472,0,0,0,.172-.59A.346.346,0,0,0,193.068,178.765Z" transform="translate(-63.181 -77.262)"/>
      </g>
    </g>
  </g>
</svg>
