<svg xmlns="http://www.w3.org/2000/svg" xmlns:xlink="http://www.w3.org/1999/xlink" viewBox="7510 3756 251 155">
  <defs>
    <style>
      .cls-1 {
        fill: #fff;
        stroke: #95989a;
      }

      .cls-2 {
        clip-path: url(#clip-path);
      }

      .cls-3 {
        opacity: 0.89;
      }

      .cls-4 {
        fill: #c5d9f1;
      }

      .cls-5, .cls-6, .cls-7 {
        fill: none;
        stroke: #377bd0;
        stroke-width: 1.5px;
      }

      .cls-5 {
        stroke-linejoin: round;
      }

      .cls-5, .cls-7 {
        stroke-miterlimit: 10;
      }
    </style>
    <clipPath id="clip-path">
      <rect id="Rectangle_2359" data-name="Rectangle 2359" class="cls-1" width="251" height="155" transform="translate(378 2906)"/>
    </clipPath>
  </defs>
  <g id="Mask_Group_156" data-name="Mask Group 156" class="cls-2" transform="translate(7132 850)">
    <g id="Group_2844" data-name="Group 2844" class="cls-3" transform="translate(233.298 -1.5)">
      <g id="Group_2839" data-name="Group 2839" transform="translate(139.675 3007.609)">
        <path id="Path_4028" data-name="Path 4028" class="cls-4" d="M17.422,8.636,15.5,6.816l-.481-.486C13.333,4.508,12.253,3.05,12.268,0h0a.426.426,0,0,0-.242.123,1.075,1.075,0,0,1-.6-.119V.126c-.016,3.294-1.23,4.52-2.81,6.357L6.788,8.444l-.486.49C4.482,10.529,3.147,11.756.126,11.77a.422.422,0,0,0,.12.243A1.76,1.76,0,0,1,0,12.747c3.142-.015,4.345,1.2,6.271,2.775L8.2,17.343l.481.486c1.562,1.822,2.764,3.158,2.749,6.33a.726.726,0,0,1,.484-.124.438.438,0,0,1,.362.12c.136-3.05,1.23-4.4,2.81-6.235L16.9,15.958l.486-.49c1.821-1.717,3.277-2.822,6.3-2.837h.121a1.1,1.1,0,0,1-.118-.609c0-.122,0-.244.122-.245h0C20.672,11.426,19.348,10.213,17.422,8.636Z" transform="matrix(-0.978, 0.208, -0.208, -0.978, 49.245, 46.809)"/>
        <g id="drone" transform="matrix(-0.978, 0.208, -0.208, -0.978, 73.967, 61.573)">
          <g id="Group_2838" data-name="Group 2838" transform="translate(0 0)">
            <path id="Path_4029" data-name="Path 4029" class="cls-5" d="M17.422,8.636,15.5,6.816l-.481-.486C13.333,4.508,12.253,3.05,12.268,0h0a.426.426,0,0,0-.242.123,1.075,1.075,0,0,1-.6-.119V.126c-.016,3.294-1.23,4.52-2.81,6.357L6.788,8.444l-.486.49C4.482,10.529,3.147,11.756.126,11.77a.422.422,0,0,0,.12.243A1.76,1.76,0,0,1,0,12.747c3.142-.015,4.345,1.2,6.271,2.775L8.2,17.343l.481.486c1.562,1.822,2.764,3.158,2.749,6.33a.726.726,0,0,1,.484-.124.438.438,0,0,1,.362.12c.136-3.05,1.23-4.4,2.81-6.235L16.9,15.958l.486-.49c1.821-1.717,3.277-2.822,6.3-2.837h.121a1.1,1.1,0,0,1-.118-.609c0-.122,0-.244.122-.245h0C20.672,11.426,19.348,10.213,17.422,8.636Z" transform="translate(19.093 19.152)"/>
            <path id="Path_4030" data-name="Path 4030" class="cls-6" d="M9.741,19.763a9.952,9.952,0,0,0,9.837-9.929A9.721,9.721,0,0,0,9.837,0,9.952,9.952,0,0,0,0,9.929,9.721,9.721,0,0,0,9.741,19.763Z" transform="translate(21.287 43.186)"/>
            <line id="Line_910" data-name="Line 910" class="cls-7" y1="7.686" x2="0.037" transform="translate(31.086 43.186)"/>
            <path id="Path_4031" data-name="Path 4031" class="cls-6" d="M2.165,4.392A2.212,2.212,0,0,0,4.351,2.185,2.16,2.16,0,0,0,2.186,0,2.212,2.212,0,0,0,0,2.207,2.16,2.16,0,0,0,2.165,4.392Z" transform="translate(28.9 50.871)"/>
            <line id="Line_911" data-name="Line 911" class="cls-7" x1="7.614" y2="0.037" transform="translate(33.13 53.02)"/>
            <line id="Line_912" data-name="Line 912" class="cls-7" x1="7.614" y2="0.037" transform="translate(21.287 53.078)"/>
            <path id="Path_4032" data-name="Path 4032" class="cls-6" d="M9.741,19.763a9.952,9.952,0,0,0,9.837-9.929A9.721,9.721,0,0,0,9.837,0,9.952,9.952,0,0,0,0,9.929,9.721,9.721,0,0,0,9.741,19.763Z" transform="translate(21.496 0)"/>
            <line id="Line_913" data-name="Line 913" class="cls-7" x1="0.037" y2="7.686" transform="translate(31.237 12.077)"/>
            <path id="Path_4033" data-name="Path 4033" class="cls-6" d="M2.165,4.392A2.212,2.212,0,0,0,4.351,2.185,2.16,2.16,0,0,0,2.186,0,2.212,2.212,0,0,0,0,2.207,2.16,2.16,0,0,0,2.165,4.392Z" transform="translate(29.109 7.686)"/>
            <line id="Line_914" data-name="Line 914" class="cls-7" y1="0.037" x2="7.614" transform="translate(21.496 9.892)"/>
            <line id="Line_915" data-name="Line 915" class="cls-7" y1="0.037" x2="7.614" transform="translate(33.339 9.834)"/>
            <path id="Path_4034" data-name="Path 4034" class="cls-6" d="M9.741,19.763a9.952,9.952,0,0,0,9.837-9.929A9.721,9.721,0,0,0,9.837,0,9.952,9.952,0,0,0,0,9.929,9.721,9.721,0,0,0,9.741,19.763Z" transform="translate(42.661 21.489)"/>
            <line id="Line_916" data-name="Line 916" class="cls-7" x1="7.614" y2="0.037" transform="translate(42.782 31.381)"/>
            <path id="Path_4035" data-name="Path 4035" class="cls-6" d="M2.165,4.392A2.212,2.212,0,0,0,4.351,2.185,2.16,2.16,0,0,0,2.186,0,2.212,2.212,0,0,0,0,2.207,2.16,2.16,0,0,0,2.165,4.392Z" transform="translate(50.275 29.175)"/>
            <line id="Line_917" data-name="Line 917" class="cls-7" x1="0.037" y2="7.686" transform="translate(52.461 21.489)"/>
            <line id="Line_918" data-name="Line 918" class="cls-7" x1="0.037" y2="7.686" transform="translate(52.403 33.566)"/>
            <path id="Path_4036" data-name="Path 4036" class="cls-6" d="M9.741,19.763a9.952,9.952,0,0,0,9.837-9.929A9.721,9.721,0,0,0,9.837,0,9.952,9.952,0,0,0,0,9.929,9.721,9.721,0,0,0,9.741,19.763Z" transform="translate(0 21.697)"/>
            <line id="Line_919" data-name="Line 919" class="cls-7" y1="0.037" x2="7.614" transform="translate(11.965 31.531)"/>
            <path id="Path_4037" data-name="Path 4037" class="cls-6" d="M2.165,4.392A2.212,2.212,0,0,0,4.351,2.185,2.16,2.16,0,0,0,2.186,0,2.212,2.212,0,0,0,0,2.207,2.16,2.16,0,0,0,2.165,4.392Z" transform="translate(7.614 29.383)"/>
            <line id="Line_920" data-name="Line 920" class="cls-7" y1="7.686" x2="0.037" transform="translate(9.741 33.775)"/>
            <line id="Line_921" data-name="Line 921" class="cls-7" y1="7.686" x2="0.037" transform="translate(9.8 21.697)"/>
          </g>
        </g>
      </g>
      <g id="Group_2841" data-name="Group 2841" transform="translate(123.702 2985)">
        <path id="Path_4038" data-name="Path 4038" class="cls-4" d="M10.912,5.409,9.707,4.269l-.3-.3A5.088,5.088,0,0,1,7.684,0h0a.267.267,0,0,0-.152.077A.673.673,0,0,1,7.154,0V.079a5.206,5.206,0,0,1-1.76,3.982L4.252,5.289l-.3.307A5.2,5.2,0,0,1,.079,7.372a.264.264,0,0,0,.075.152A1.1,1.1,0,0,1,0,7.984c1.968-.01,2.721.751,3.928,1.738l1.206,1.14.3.3a5.223,5.223,0,0,1,1.722,3.965.455.455,0,0,1,.3-.078.274.274,0,0,1,.227.075,5.577,5.577,0,0,1,1.76-3.905L10.587,10l.3-.307a5.1,5.1,0,0,1,3.945-1.777h.076a.691.691,0,0,1-.074-.382c0-.076,0-.153.076-.153h0A6.642,6.642,0,0,1,10.912,5.409Z" transform="matrix(-0.978, 0.208, -0.208, -0.978, 30.844, 29.318)"/>
        <g id="drone-2" data-name="drone" transform="matrix(-0.978, 0.208, -0.208, -0.978, 46.329, 38.566)">
          <g id="Group_2840" data-name="Group 2840" transform="translate(0 0)">
            <path id="Path_4039" data-name="Path 4039" class="cls-5" d="M10.912,5.409,9.707,4.269l-.3-.3A5.088,5.088,0,0,1,7.684,0h0a.267.267,0,0,0-.152.077A.673.673,0,0,1,7.154,0V.079a5.206,5.206,0,0,1-1.76,3.982L4.252,5.289l-.3.307A5.2,5.2,0,0,1,.079,7.372a.264.264,0,0,0,.075.152A1.1,1.1,0,0,1,0,7.984c1.968-.01,2.721.751,3.928,1.738l1.206,1.14.3.3a5.223,5.223,0,0,1,1.722,3.965.455.455,0,0,1,.3-.078.274.274,0,0,1,.227.075,5.577,5.577,0,0,1,1.76-3.905L10.587,10l.3-.307a5.1,5.1,0,0,1,3.945-1.777h.076a.691.691,0,0,1-.074-.382c0-.076,0-.153.076-.153h0A6.642,6.642,0,0,1,10.912,5.409Z" transform="translate(11.959 11.996)"/>
            <path id="Path_4040" data-name="Path 4040" class="cls-6" d="M6.1,12.378a6.233,6.233,0,0,0,6.161-6.219A6.089,6.089,0,0,0,6.161,0,6.233,6.233,0,0,0,0,6.219,6.089,6.089,0,0,0,6.1,12.378Z" transform="translate(13.333 27.049)"/>
            <line id="Line_922" data-name="Line 922" class="cls-7" y1="4.814" x2="0.023" transform="translate(19.471 27.049)"/>
            <path id="Path_4041" data-name="Path 4041" class="cls-6" d="M1.356,2.751A1.385,1.385,0,0,0,2.725,1.369,1.353,1.353,0,0,0,1.369,0,1.385,1.385,0,0,0,0,1.382,1.353,1.353,0,0,0,1.356,2.751Z" transform="translate(18.102 31.863)"/>
            <line id="Line_923" data-name="Line 923" class="cls-7" x1="4.769" y2="0.023" transform="translate(20.751 33.209)"/>
            <line id="Line_924" data-name="Line 924" class="cls-7" x1="4.769" y2="0.023" transform="translate(13.333 33.245)"/>
            <path id="Path_4042" data-name="Path 4042" class="cls-6" d="M6.1,12.378a6.233,6.233,0,0,0,6.161-6.219A6.089,6.089,0,0,0,6.161,0,6.233,6.233,0,0,0,0,6.219,6.089,6.089,0,0,0,6.1,12.378Z" transform="translate(13.464 0)"/>
            <line id="Line_925" data-name="Line 925" class="cls-7" x1="0.023" y2="4.814" transform="translate(19.565 7.565)"/>
            <path id="Path_4043" data-name="Path 4043" class="cls-6" d="M1.356,2.751A1.385,1.385,0,0,0,2.725,1.369,1.353,1.353,0,0,0,1.369,0,1.385,1.385,0,0,0,0,1.382,1.353,1.353,0,0,0,1.356,2.751Z" transform="translate(18.232 4.814)"/>
            <line id="Line_926" data-name="Line 926" class="cls-7" y1="0.023" x2="4.769" transform="translate(13.464 6.196)"/>
            <line id="Line_927" data-name="Line 927" class="cls-7" y1="0.023" x2="4.769" transform="translate(20.882 6.16)"/>
            <path id="Path_4044" data-name="Path 4044" class="cls-6" d="M6.1,12.378a6.233,6.233,0,0,0,6.161-6.219A6.089,6.089,0,0,0,6.161,0,6.233,6.233,0,0,0,0,6.219,6.089,6.089,0,0,0,6.1,12.378Z" transform="translate(26.721 13.459)"/>
            <line id="Line_928" data-name="Line 928" class="cls-7" x1="4.769" y2="0.023" transform="translate(26.796 19.655)"/>
            <path id="Path_4045" data-name="Path 4045" class="cls-6" d="M1.356,2.751A1.385,1.385,0,0,0,2.725,1.369,1.353,1.353,0,0,0,1.369,0,1.385,1.385,0,0,0,0,1.382,1.353,1.353,0,0,0,1.356,2.751Z" transform="translate(31.489 18.273)"/>
            <line id="Line_929" data-name="Line 929" class="cls-7" x1="0.023" y2="4.814" transform="translate(32.859 13.46)"/>
            <line id="Line_930" data-name="Line 930" class="cls-7" x1="0.023" y2="4.814" transform="translate(32.822 21.024)"/>
            <path id="Path_4046" data-name="Path 4046" class="cls-6" d="M6.1,12.378a6.233,6.233,0,0,0,6.161-6.219A6.089,6.089,0,0,0,6.161,0,6.233,6.233,0,0,0,0,6.219,6.089,6.089,0,0,0,6.1,12.378Z" transform="translate(0 13.59)"/>
            <line id="Line_931" data-name="Line 931" class="cls-7" y1="0.023" x2="4.769" transform="translate(7.494 19.749)"/>
            <path id="Path_4047" data-name="Path 4047" class="cls-6" d="M1.356,2.751A1.385,1.385,0,0,0,2.725,1.369,1.353,1.353,0,0,0,1.369,0,1.385,1.385,0,0,0,0,1.382,1.353,1.353,0,0,0,1.356,2.751Z" transform="translate(4.769 18.404)"/>
            <line id="Line_932" data-name="Line 932" class="cls-7" y1="4.814" x2="0.023" transform="translate(6.101 21.155)"/>
            <line id="Line_933" data-name="Line 933" class="cls-7" y1="4.814" x2="0.023" transform="translate(6.138 13.59)"/>
          </g>
        </g>
      </g>
      <g id="Group_2843" data-name="Group 2843" transform="translate(246.763 3041.512) rotate(146)">
        <path id="Path_4048" data-name="Path 4048" class="cls-4" d="M8.025,3.978,7.139,3.14l-.222-.224A3.742,3.742,0,0,1,5.651,0h0a.2.2,0,0,0-.112.057A.5.5,0,0,1,5.261,0V.058A3.829,3.829,0,0,1,3.966,2.986l-.839.9L2.9,4.115A3.822,3.822,0,0,1,.058,5.422a.194.194,0,0,0,.055.112A.811.811,0,0,1,0,5.872,3.866,3.866,0,0,1,2.889,7.15l.887.839L4,8.212a3.841,3.841,0,0,1,1.266,2.916.334.334,0,0,1,.223-.057.2.2,0,0,1,.167.055A4.1,4.1,0,0,1,6.947,8.254l.839-.9.224-.226a3.753,3.753,0,0,1,2.9-1.307h.056a.508.508,0,0,1-.054-.281c0-.056,0-.112.056-.113h0A4.885,4.885,0,0,1,8.025,3.978Z" transform="matrix(0.978, -0.208, 0.208, 0.978, 11.388, 12.762)"/>
        <g id="drone-3" data-name="drone" transform="matrix(0.978, -0.208, 0.208, 0.978, 0, 5.961)">
          <g id="Group_2842" data-name="Group 2842" transform="translate(0 0)">
            <path id="Path_4049" data-name="Path 4049" class="cls-5" d="M8.025,3.978,7.139,3.14l-.222-.224A3.742,3.742,0,0,1,5.651,0h0a.2.2,0,0,0-.112.057A.5.5,0,0,1,5.261,0V.058A3.829,3.829,0,0,1,3.966,2.986l-.839.9L2.9,4.115A3.822,3.822,0,0,1,.058,5.422a.194.194,0,0,0,.055.112A.811.811,0,0,1,0,5.872,3.866,3.866,0,0,1,2.889,7.15l.887.839L4,8.212a3.841,3.841,0,0,1,1.266,2.916.334.334,0,0,1,.223-.057.2.2,0,0,1,.167.055A4.1,4.1,0,0,1,6.947,8.254l.839-.9.224-.226a3.753,3.753,0,0,1,2.9-1.307h.056a.508.508,0,0,1-.054-.281c0-.056,0-.112.056-.113h0A4.885,4.885,0,0,1,8.025,3.978Z" transform="translate(8.795 8.822)"/>
            <path id="Path_4050" data-name="Path 4050" class="cls-6" d="M4.487,9.1A4.584,4.584,0,0,0,9.018,4.53,4.478,4.478,0,0,0,4.531,0,4.584,4.584,0,0,0,0,4.574,4.478,4.478,0,0,0,4.487,9.1Z" transform="translate(9.805 19.893)"/>
            <line id="Line_934" data-name="Line 934" class="cls-7" y1="3.54" x2="0.017" transform="translate(14.319 19.893)"/>
            <path id="Path_4051" data-name="Path 4051" class="cls-6" d="M1,2.023A1.019,1.019,0,0,0,2,1.007,1,1,0,0,0,1.007,0,1.019,1.019,0,0,0,0,1.016,1,1,0,0,0,1,2.023Z" transform="translate(13.312 23.433)"/>
            <line id="Line_935" data-name="Line 935" class="cls-7" x1="3.507" y2="0.017" transform="translate(15.261 24.423)"/>
            <line id="Line_936" data-name="Line 936" class="cls-7" x1="3.507" y2="0.017" transform="translate(9.805 24.449)"/>
            <path id="Path_4052" data-name="Path 4052" class="cls-6" d="M4.487,9.1A4.584,4.584,0,0,0,9.018,4.53,4.478,4.478,0,0,0,4.531,0,4.584,4.584,0,0,0,0,4.574,4.478,4.478,0,0,0,4.487,9.1Z" transform="translate(9.901 0)"/>
            <line id="Line_937" data-name="Line 937" class="cls-7" x1="0.017" y2="3.54" transform="translate(14.389 5.563)"/>
            <path id="Path_4053" data-name="Path 4053" class="cls-6" d="M1,2.023A1.019,1.019,0,0,0,2,1.007,1,1,0,0,0,1.007,0,1.019,1.019,0,0,0,0,1.016,1,1,0,0,0,1,2.023Z" transform="translate(13.409 3.54)"/>
            <line id="Line_938" data-name="Line 938" class="cls-7" y1="0.017" x2="3.507" transform="translate(9.902 4.557)"/>
            <line id="Line_939" data-name="Line 939" class="cls-7" y1="0.017" x2="3.507" transform="translate(15.357 4.53)"/>
            <path id="Path_4054" data-name="Path 4054" class="cls-6" d="M4.487,9.1A4.584,4.584,0,0,0,9.018,4.53,4.478,4.478,0,0,0,4.531,0,4.584,4.584,0,0,0,0,4.574,4.478,4.478,0,0,0,4.487,9.1Z" transform="translate(19.651 9.898)"/>
            <line id="Line_940" data-name="Line 940" class="cls-7" x1="3.507" y2="0.017" transform="translate(19.707 14.455)"/>
            <path id="Path_4055" data-name="Path 4055" class="cls-6" d="M1,2.023A1.019,1.019,0,0,0,2,1.007,1,1,0,0,0,1.007,0,1.019,1.019,0,0,0,0,1.016,1,1,0,0,0,1,2.023Z" transform="translate(23.158 13.439)"/>
            <line id="Line_941" data-name="Line 941" class="cls-7" x1="0.017" y2="3.54" transform="translate(24.165 9.899)"/>
            <line id="Line_942" data-name="Line 942" class="cls-7" x1="0.017" y2="3.54" transform="translate(24.138 15.462)"/>
            <path id="Path_4056" data-name="Path 4056" class="cls-6" d="M4.487,9.1A4.584,4.584,0,0,0,9.018,4.53,4.478,4.478,0,0,0,4.531,0,4.584,4.584,0,0,0,0,4.574,4.478,4.478,0,0,0,4.487,9.1Z" transform="translate(0 9.994)"/>
            <line id="Line_943" data-name="Line 943" class="cls-7" y1="0.017" x2="3.507" transform="translate(5.511 14.524)"/>
            <path id="Path_4057" data-name="Path 4057" class="cls-6" d="M1,2.023A1.019,1.019,0,0,0,2,1.007,1,1,0,0,0,1.007,0,1.019,1.019,0,0,0,0,1.016,1,1,0,0,0,1,2.023Z" transform="translate(3.507 13.535)"/>
            <line id="Line_944" data-name="Line 944" class="cls-7" y1="3.54" x2="0.017" transform="translate(4.487 15.558)"/>
            <line id="Line_945" data-name="Line 945" class="cls-7" y1="3.54" x2="0.017" transform="translate(4.514 9.994)"/>
          </g>
        </g>
      </g>
    </g>
  </g>
</svg>
