<svg xmlns="http://www.w3.org/2000/svg" xmlns:xlink="http://www.w3.org/1999/xlink" viewBox="756.585 1058 80 80.87">
  <defs>
    <style>
      .cls-1, .cls-6 {
        fill: #fff;
      }

      .cls-1 {
        opacity: 0.5;
      }

      .cls-2 {
        fill: url(#linear-gradient);
      }

      .cls-3 {
        fill: #623a1a;
      }

      .cls-4 {
        fill: url(#linear-gradient-2);
      }

      .cls-5 {
        fill: url(#linear-gradient-3);
      }

      .cls-7 {
        fill: url(#linear-gradient-4);
      }

      .cls-8 {
        fill: url(#linear-gradient-5);
      }

      .cls-9 {
        fill: url(#linear-gradient-6);
      }

      .cls-10 {
        fill: url(#linear-gradient-7);
      }
    </style>
    <linearGradient id="linear-gradient" y1="0.5" x2="1" y2="0.5" gradientUnits="objectBoundingBox">
      <stop offset="0" stop-color="#3e77bc"/>
      <stop offset="1" stop-color="#529fd8"/>
    </linearGradient>
    <linearGradient id="linear-gradient-2" x1="0" y1="0.5" x2="1" y2="0.5" xlink:href="#linear-gradient"/>
    <linearGradient id="linear-gradient-3" x1="0.501" y1="0.15" x2="0.501" y2="0.888" xlink:href="#linear-gradient"/>
    <linearGradient id="linear-gradient-4" x1="0.001" y1="0.5" x2="1.006" y2="0.5" xlink:href="#linear-gradient"/>
    <linearGradient id="linear-gradient-5" x1="0" y1="0.501" x2="0.999" y2="0.501" xlink:href="#linear-gradient"/>
    <linearGradient id="linear-gradient-6" x1="2.491" y1="0.499" x2="3.491" y2="0.499" xlink:href="#linear-gradient"/>
    <linearGradient id="linear-gradient-7" x1="2.141" y1="0.758" x2="3.155" y2="0.758" xlink:href="#linear-gradient"/>
  </defs>
  <g id="icon_27" data-name="icon 27" transform="translate(683.685 1016)">
    <g id="Group_3279" data-name="Group 3279" transform="translate(72.9 74.868)">
      <path id="Path_4482" data-name="Path 4482" class="cls-1" d="M153.416,203.829,116.91,226.507,73.9,201.678,110.407,179Z" transform="translate(-73.658 -178.746)"/>
      <g id="Group_3278" data-name="Group 3278" transform="translate(0 0)">
        <path id="Path_4483" data-name="Path 4483" class="cls-2" d="M116.152,225.952a.218.218,0,0,1-.121-.024L73.021,201.1a.256.256,0,0,1,0-.435l36.507-22.678a.22.22,0,0,1,.242,0l43.01,24.829a.256.256,0,0,1,0,.435l-36.507,22.678A.181.181,0,0,1,116.152,225.952ZM73.6,200.881l42.526,24.563,36.047-22.387-42.551-24.563Z" transform="translate(-72.9 -177.95)"/>
      </g>
    </g>
    <g id="Group_3280" data-name="Group 3280" transform="translate(92.048 74.034)">
      <path id="Path_4484" data-name="Path 4484" class="cls-3" d="M152.1,179.77l9.09-5.27,30.535,17.625-9.09,5.27Z" transform="translate(-152.1 -174.5)"/>
    </g>
    <path id="Path_4485" data-name="Path 4485" class="cls-4" d="M179.213,168.141l-23.886-13.781c-1.837-1.064-3.336-.218-3.336,1.91l-.024,7.882-.024,9.671c0,2.1-.338,4.908,1.886,6.431a6.822,6.822,0,0,0,4.569,1.136l11.145,6.431s.822,5.512,5.561,5.778,7.422,1.015,7.374-2.128l.024-9.671.024-7.882A7.362,7.362,0,0,0,179.213,168.141Z" transform="translate(-59.919 -84.848)"/>
    <path id="Path_4486" data-name="Path 4486" class="cls-5" d="M194.706,152.176v-.314a.471.471,0,0,0-.024-.169c0-.048-.024-.121-.024-.169h0c0-.048-.024-.1-.024-.169,0-.048-.024-.121-.024-.169a.089.089,0,0,0-.024-.073v-.048a.089.089,0,0,0-.024-.073c-.024-.048-.024-.121-.048-.169a.185.185,0,0,0-.048-.121v-.048c-.024-.048-.024-.121-.048-.169a.448.448,0,0,1-.048-.169v-.048c-.024-.024-.024-.073-.048-.1a1.172,1.172,0,0,1-.073-.169c-.024-.048-.024-.073-.048-.121v-.048a1.175,1.175,0,0,1-.073-.169.605.605,0,0,0-.1-.169,108.441,108.441,0,0,0-.048-.048l-.073-.145c-.024-.048-.073-.121-.1-.169-.024-.024-.024-.048-.048-.1l-.024-.024c-.024-.048-.072-.1-.1-.145l-.145-.218-.024-.024-.218-.29h0c-.048-.073-.1-.121-.145-.193-.048-.048-.073-.1-.121-.145h0a1140.634,1140.634,0,0,1-.242-.29l-.024-.024-.024-.024-.1-.1-.145-.145-.048-.048-.024-.024-.073-.073a.641.641,0,0,0-.145-.121c-.024-.024-.048-.024-.073-.048l-.024-.024-.048-.048c-.048-.048-.1-.073-.145-.121-.024-.024-.073-.048-.1-.073a.024.024,0,0,1-.024-.024l-.024-.024c-.048-.024-.1-.073-.145-.1a.506.506,0,0,1-.145-.1l-.024-.024-23.886-13.781a.183.183,0,0,0-.1-.048l-.145-.073c-.024-.024-.048-.024-.1-.048h-.048a.343.343,0,0,0-.145-.048c-.048-.024-.1-.024-.145-.048h-.048c-.024,0-.048-.024-.1-.024-.048-.024-.1-.024-.145-.048a.089.089,0,0,1-.073-.024h-.073c-.048,0-.1-.024-.145-.024h-.459c-.073,0-.121.024-.193.024h-.048c-.073.024-.121.024-.193.048h-.024a1.3,1.3,0,0,0-.266.121h0L156,137.864a.894.894,0,0,1,.266-.121.569.569,0,0,1,.193-.048h.048a.822.822,0,0,1,.242-.024h.314a.868.868,0,0,1,.266.048h.024l.29.073h.024a1.681,1.681,0,0,1,.314.121h.024c.1.048.218.1.338.169l23.886,13.781c.121.073.218.145.338.218a.024.024,0,0,1,.024.024l.29.218.024.024c.1.073.193.169.29.242l.024.024a2.75,2.75,0,0,1,.266.266l.024.024c.1.1.193.218.29.314h0a3.257,3.257,0,0,1,.266.338h0a2.931,2.931,0,0,0,.242.339l.145.218c.048.073.073.121.121.193.024.024.024.048.048.1.048.1.121.218.169.314a.024.024,0,0,0,.024.024c.073.121.121.266.193.387v.024c.048.121.1.266.145.387v.024c.048.121.1.266.145.387v.024a2.264,2.264,0,0,1,.1.387v.024c.024.121.048.266.073.387h0a2.114,2.114,0,0,1,.048.387v.024c0,.121.024.266.024.387l-.024,7.882-.024,9.671a1.828,1.828,0,0,1-.024.363v.024a1.416,1.416,0,0,1-.048.314v.048c-.024.1-.048.193-.073.266,0,.024,0,.024-.024.048a1.009,1.009,0,0,1-.1.242v.024a2.127,2.127,0,0,1-.145.242l-.024.024a1.022,1.022,0,0,1-.121.169c-.024.024-.024.048-.048.048l-.121.121-.048.048c-.073.048-.121.1-.193.145l9.09-5.27c.073-.048.121-.1.193-.145l.048-.048c.048-.048.1-.073.121-.121.024-.024.024-.048.048-.048a.734.734,0,0,0,.121-.169l.024-.024h0a.98.98,0,0,0,.121-.218h0v-.024l.073-.145c0-.024.024-.048.024-.073s0-.024.024-.048c0-.024,0-.024.024-.048.024-.048.024-.121.048-.169a.089.089,0,0,1,.024-.073v-.1c0-.048.024-.1.024-.169v-.508h0l.024-9.671.024-7.882C194.706,152.273,194.706,152.225,194.706,152.176Z" transform="translate(-63.009 -68.544)"/>
    <path id="Path_4487" data-name="Path 4487" class="cls-6" d="M188.425,191.8,173,182.882c-1.185-.677-2.152-.145-2.152,1.233l-.024,5.1-.024,6.262a4.773,4.773,0,0,0,2.152,3.723l15.425,8.921c1.185.677,2.152.145,2.152-1.233l.024-6.262.024-5.1A4.736,4.736,0,0,0,188.425,191.8Z" transform="translate(-74.231 -106.599)"/>
    <g id="Group_3281" data-name="Group 3281" transform="translate(119.464 42)">
      <path id="Path_4488" data-name="Path 4488" class="cls-6" d="M267.854,43h0a1.352,1.352,0,0,0-1.354,1.354V78.37a1.352,1.352,0,0,0,1.354,1.354h0a1.352,1.352,0,0,0,1.354-1.354V44.354A1.337,1.337,0,0,0,267.854,43Z" transform="translate(-266.258 -42.758)"/>
      <path id="Path_4489" data-name="Path 4489" class="cls-7" d="M267.1,79.232a1.594,1.594,0,0,1-1.6-1.6V43.6a1.6,1.6,0,1,1,3.191,0V77.612A1.584,1.584,0,0,1,267.1,79.232Zm0-36.748a1.109,1.109,0,0,0-1.112,1.112V77.612a1.112,1.112,0,0,0,2.224,0V43.6A1.094,1.094,0,0,0,267.1,42.484Z" transform="translate(-265.5 -42)"/>
    </g>
    <g id="XMLID_77_" transform="translate(99.736 80.94)">
      <path id="Path_4490" data-name="Path 4490" class="cls-8" d="M191.927,217.458a5.269,5.269,0,0,1-2.539-.774,12.124,12.124,0,0,1-5.488-9.5,4.041,4.041,0,0,1,1.717-3.723,4.09,4.09,0,0,1,4.086.363,12.124,12.124,0,0,1,5.488,9.5,4.041,4.041,0,0,1-1.717,3.723A2.856,2.856,0,0,1,191.927,217.458ZM187.164,203.7a2.342,2.342,0,0,0-1.233.314,3.469,3.469,0,0,0-1.4,3.167,11.428,11.428,0,0,0,5.174,8.945,3.405,3.405,0,0,0,3.457.363,3.469,3.469,0,0,0,1.4-3.167,11.428,11.428,0,0,0-5.174-8.945A4.771,4.771,0,0,0,187.164,203.7Z" transform="translate(-183.9 -203.065)"/>
    </g>
    <path id="Path_4491" data-name="Path 4491" class="cls-9" d="M199.4,215.579a4.122,4.122,0,0,0,1.837,3.191c1.015.58,1.837.121,1.837-1.064a4.122,4.122,0,0,0-1.837-3.191C200.222,213.935,199.4,214.394,199.4,215.579Z" transform="translate(-95.917 -130.618)"/>
    <path id="Path_4492" data-name="Path 4492" class="cls-10" d="M201.721,238.818l-.1-1.233a4.2,4.2,0,0,0-1.717-3.046l-.725-.435a1.1,1.1,0,0,0-1.813.87l-.169.6C197.224,235.578,199.352,238.842,201.721,238.818Z" transform="translate(-94.249 -145.467)"/>
  </g>
</svg>
