<svg xmlns="http://www.w3.org/2000/svg" viewBox="-5289 3582 96 96">
  <defs>
    <style>
      .cls-1 {
        fill: #fff;
        stroke: #377bd0;
      }

      .cls-2 {
        fill: #377bd0;
      }

      .cls-3 {
        stroke: none;
      }

      .cls-4 {
        fill: none;
      }
    </style>
  </defs>
  <g id="Group_3288" data-name="Group 3288" transform="translate(-5782 -167)">
    <g id="Ellipse_442" data-name="Ellipse 442" class="cls-1" transform="translate(493 3749)">
      <circle class="cls-3" cx="48" cy="48" r="48"/>
      <circle class="cls-4" cx="48" cy="48" r="47.5"/>
    </g>
    <g id="Group_3223" data-name="Group 3223" transform="translate(-27.066 411.581)">
      <g id="Group_756" data-name="Group 756" transform="translate(532.066 3372.647)">
        <path id="Path_1607" data-name="Path 1607" class="cls-2" d="M18.852,5.2H2.635A2.582,2.582,0,0,1,0,2.635,2.638,2.638,0,0,1,2.635,0H18.92a2.638,2.638,0,0,1,2.635,2.635A2.6,2.6,0,0,1,18.852,5.2ZM2.635,1.351A1.242,1.242,0,0,0,1.351,2.635,1.283,1.283,0,0,0,2.635,3.919H18.92a1.284,1.284,0,0,0,0-2.568Z" transform="translate(0 0)"/>
      </g>
      <g id="Group_757" data-name="Group 757" transform="translate(539.769 3376.567)">
        <path id="Path_1608" data-name="Path 1608" class="cls-2" d="M28.312,14.528H20.136a.684.684,0,0,1-.608-.405L17.974,9.933,6.081,3.379H2.7A2.711,2.711,0,0,1,0,.676.638.638,0,0,1,.676,0a.638.638,0,0,1,.676.676A1.355,1.355,0,0,0,2.7,2.027H6.216a.609.609,0,0,1,.338.068l12.3,6.757a.814.814,0,0,1,.338.338l1.487,3.987h7.7a.638.638,0,0,1,.676.676A.787.787,0,0,1,28.312,14.528Z" transform="translate(0 0)"/>
      </g>
      <g id="Group_758" data-name="Group 758" transform="translate(548.173 3376.685)">
        <path id="Path_1609" data-name="Path 1609" class="cls-2" d="M19.908,4.679H10.043a.248.248,0,0,1-.2-.068L.448,1.3A.7.7,0,0,1,.042.422.656.656,0,0,1,.853.017L10.11,3.328h9.73A.638.638,0,0,1,20.516,4,.588.588,0,0,1,19.908,4.679Z" transform="translate(0 0)"/>
      </g>
      <g id="Group_759" data-name="Group 759" transform="translate(557.557 3375.891)">
        <path id="Path_1610" data-name="Path 1610" class="cls-2" d="M.658,5.473a.96.96,0,0,1-.405-.135.727.727,0,0,1-.135-.946C.253,4.189,3.632,0,10.524,0A.638.638,0,0,1,11.2.676a.638.638,0,0,1-.676.676A12.319,12.319,0,0,0,1.2,5.271.767.767,0,0,1,.658,5.473Z" transform="translate(0 0)"/>
      </g>
      <g id="Group_760" data-name="Group 760" transform="translate(565.581 3389.81)">
        <path id="Path_1611" data-name="Path 1611" class="cls-2" d="M.676,3.108A.638.638,0,0,1,0,2.433V.676A.638.638,0,0,1,.676,0a.638.638,0,0,1,.676.676V2.433A.727.727,0,0,1,.676,3.108Z" transform="translate(0 0)"/>
      </g>
      <g id="Group_761" data-name="Group 761" transform="translate(560.919 3391.77)">
        <path id="Path_1612" data-name="Path 1612" class="cls-2" d="M7.162,10.338H1.757A1.789,1.789,0,0,1,0,8.581V1.757A1.789,1.789,0,0,1,1.757,0H7.162a.638.638,0,0,1,.676.676.638.638,0,0,1-.676.676H1.757a.436.436,0,0,0-.405.405V8.581a.436.436,0,0,0,.405.405H7.162a.638.638,0,0,1,.676.676A.727.727,0,0,1,7.162,10.338Z" transform="translate(0 0)"/>
      </g>
      <g id="Group_763" data-name="Group 763" transform="translate(582.541 3372.647)">
        <path id="Path_1614" data-name="Path 1614" class="cls-2" d="M18.92,5.2H2.635A2.638,2.638,0,0,1,0,2.568,2.581,2.581,0,0,1,2.635,0H18.92a2.638,2.638,0,0,1,2.635,2.635A2.581,2.581,0,0,1,18.92,5.2ZM2.635,1.351a1.284,1.284,0,1,0,0,2.568H18.92a1.284,1.284,0,1,0,0-2.568Z" transform="translate(0)"/>
      </g>
      <g id="Group_764" data-name="Group 764" transform="translate(567.405 3376.567)">
        <path id="Path_1615" data-name="Path 1615" class="cls-2" d="M8.852,14.528H.676a.676.676,0,1,1,0-1.351h7.7L9.865,9.19a.555.555,0,0,1,.338-.338L22.5,2.095a.506.506,0,0,1,.338-.068h3.514A1.355,1.355,0,0,0,27.7.676a.676.676,0,0,1,1.351,0,2.711,2.711,0,0,1-2.7,2.7H22.974L11.082,9.933,9.527,14.122A.822.822,0,0,1,8.852,14.528Z" transform="translate(0 0)"/>
      </g>
      <g id="Group_765" data-name="Group 765" transform="translate(567.405 3376.659)">
        <path id="Path_1616" data-name="Path 1616" class="cls-2" d="M10.473,4.7H.676A.638.638,0,0,1,0,4.029a.638.638,0,0,1,.676-.676h9.73L19.663.042a.7.7,0,0,1,.878.405.7.7,0,0,1-.405.878L10.744,4.637A.406.406,0,0,1,10.473,4.7Z" transform="translate(0 0)"/>
      </g>
      <g id="Group_766" data-name="Group 766" transform="translate(567.338 3375.823)">
        <path id="Path_1617" data-name="Path 1617" class="cls-2" d="M10.541,5.541A.615.615,0,0,1,10,5.271h0A12.152,12.152,0,0,0,.676,1.351.638.638,0,0,1,0,.676.638.638,0,0,1,.676,0,13.9,13.9,0,0,1,11.082,4.392a.661.661,0,0,1-.135.946A.482.482,0,0,1,10.541,5.541Z" transform="translate(0 0)"/>
      </g>
      <g id="Group_767" data-name="Group 767" transform="translate(569.162 3389.81)">
        <path id="Path_1618" data-name="Path 1618" class="cls-2" d="M.676,3.108A.638.638,0,0,1,0,2.433V.676A.638.638,0,0,1,.676,0a.638.638,0,0,1,.676.676V2.433A.677.677,0,0,1,.676,3.108Z" transform="translate(0 0)"/>
      </g>
      <g id="Group_768" data-name="Group 768" transform="translate(567.338 3391.77)">
        <path id="Path_1619" data-name="Path 1619" class="cls-2" d="M6.081,10.338H.676a.676.676,0,0,1,0-1.351H6.081a.436.436,0,0,0,.405-.405V1.757a.436.436,0,0,0-.405-.405H.676A.638.638,0,0,1,0,.676.638.638,0,0,1,.676,0H6.081A1.789,1.789,0,0,1,7.838,1.757V8.581A1.745,1.745,0,0,1,6.081,10.338Z" transform="translate(0 0)"/>
      </g>
      <g id="Group_769" data-name="Group 769" transform="translate(560.648 3383.188)">
        <path id="Path_1620" data-name="Path 1620" class="cls-2" d="M13.041,3.514H1.757A1.745,1.745,0,0,1,0,1.757,1.745,1.745,0,0,1,1.757,0H13.041A1.745,1.745,0,0,1,14.8,1.757,1.7,1.7,0,0,1,13.041,3.514ZM1.757,1.284a.389.389,0,0,0-.405.405.389.389,0,0,0,.405.405H13.041a.389.389,0,0,0,.405-.405.389.389,0,0,0-.405-.405Z" transform="translate(0 0)"/>
      </g>
      <g id="Group_770" data-name="Group 770" transform="translate(565.581 3394.405)">
        <path id="Path_1621" data-name="Path 1621" class="cls-2" d="M2.5,5A2.539,2.539,0,0,1,0,2.5,2.539,2.539,0,0,1,2.5,0,2.539,2.539,0,0,1,5,2.5,2.539,2.539,0,0,1,2.5,5Zm0-3.649A1.184,1.184,0,0,0,1.351,2.5,1.184,1.184,0,0,0,2.5,3.649,1.184,1.184,0,0,0,3.649,2.5,1.235,1.235,0,0,0,2.5,1.351Z" transform="translate(0 0)"/>
      </g>
      <g id="Group_772" data-name="Group 772" transform="translate(576.544 3387.665)">
        <path id="Path_1623" data-name="Path 1623" class="cls-2" d="M4.645,17.754H3.429a.676.676,0,0,1,0-1.351H4.645A.963.963,0,0,0,5.456,16a1.18,1.18,0,0,0,.27-.811L.051.929A.649.649,0,0,1,.456.051a.649.649,0,0,1,.878.405L7.078,14.781c0,.068,0,.068.068.135a2.474,2.474,0,0,1-.541,2.027A2.706,2.706,0,0,1,4.645,17.754Z" transform="translate(0 0)"/>
      </g>
      <g id="Group_3222" data-name="Group 3222" transform="translate(552.607 3387.665)">
        <path id="Path_1623-2" data-name="Path 1623" class="cls-2" d="M2.541,17.754H3.758a.676.676,0,1,0,0-1.351H2.541A.963.963,0,0,1,1.73,16a1.18,1.18,0,0,1-.27-.811L7.136.929A.649.649,0,0,0,6.731.051a.649.649,0,0,0-.878.405L.109,14.781c0,.068,0,.068-.068.135a2.474,2.474,0,0,0,.541,2.027A2.706,2.706,0,0,0,2.541,17.754Z" transform="translate(0 0)"/>
      </g>
    </g>
  </g>
</svg>
