<svg xmlns="http://www.w3.org/2000/svg" viewBox="-5064 3582 96 96">
  <defs>
    <style>
      .cls-1 {
        fill: #fff;
        stroke: #377bd0;
      }

      .cls-2 {
        fill: #377bd0;
      }

      .cls-3 {
        stroke: none;
      }

      .cls-4 {
        fill: none;
      }
    </style>
  </defs>
  <g id="Group_3289" data-name="Group 3289" transform="translate(-5782 -167)">
    <g id="Ellipse_443" data-name="Ellipse 443" class="cls-1" transform="translate(718 3749)">
      <circle class="cls-3" cx="48" cy="48" r="48"/>
      <circle class="cls-4" cx="48" cy="48" r="47.5"/>
    </g>
    <g id="Group_3219" data-name="Group 3219" transform="translate(-354 3601.886)">
      <g id="Group_640" data-name="Group 640" transform="translate(1090 162)">
        <g id="Group_528" data-name="Group 528" transform="translate(0 13.832)">
          <path id="Path_1509" data-name="Path 1509" class="cls-2" d="M57.249,63.543,50.442,51.78l-.07.035v-7.54A3.888,3.888,0,0,0,46.5,40.4H13.162a3.888,3.888,0,0,0-3.875,3.875v7.61L2.55,63.543A14.592,14.592,0,0,0,.7,69.652V87.8H15.047V78.379l4.782-6.318H39.866l4.782,6.318V87.8H58.995V69.652A14.035,14.035,0,0,0,57.249,63.543ZM14.034,78.065v8.727H1.782v-17.1A12.943,12.943,0,0,1,3.493,64.1L9.322,54.014V65.882l-2.06,2.653.838.628,7.575-9.7a3.505,3.505,0,0,1,5.515,4.328l-7.575,9.7.838.628,1.536-1.99h2.653Zm2.688-6.981L21.3,65.219v3.875h4.922V64.172H22.1a4.58,4.58,0,0,0-.908-6.179,4.627,4.627,0,0,0-3.351-.943,4.564,4.564,0,0,0-3.037,1.71l-4.468,5.725V44.275a2.816,2.816,0,0,1,2.827-2.827H46.5a2.816,2.816,0,0,1,2.827,2.827V64.346L45,58.8a4.487,4.487,0,0,0-3.037-1.71,4.433,4.433,0,0,0-3.351.942,4.511,4.511,0,0,0-.908,6.179H33.3v4.922h4.922V64.87l4.852,6.213H16.722Zm5.62-3.037V65.219H25.17v2.827Zm14.8-2.827v2.827H34.315V65.219ZM58.017,86.791H45.765V78.065L41.227,72.13H43.88l1.536,1.99.838-.628-7.575-9.7a3.505,3.505,0,0,1,5.515-4.328l7.575,9.7.838-.628-2.2-2.827V53.769l5.934,10.3a13.92,13.92,0,0,1,1.71,5.585V86.791Z" transform="translate(-0.456 -40.121)"/>
          <path id="Path_1510" data-name="Path 1510" class="cls-2" d="M58.888,87.6H43.983V78L39.34,71.854H19.548L14.87,78v9.6H0V69.166a14.912,14.912,0,0,1,1.85-6.248l6.7-11.589V43.754A4.164,4.164,0,0,1,12.706,39.6H46.042A4.164,4.164,0,0,1,50.2,43.754v7.33L57,62.883a14.739,14.739,0,0,1,1.885,6.248V87.6Zm-14.382-.524H58.329V69.166a13.753,13.753,0,0,0-1.815-6L49.882,51.608l-.209.14V43.754a3.628,3.628,0,0,0-3.63-3.63H12.706a3.628,3.628,0,0,0-3.63,3.63v7.68L2.3,63.162a14.443,14.443,0,0,0-1.78,6V87.073H14.347v-9.25l4.922-6.458H39.584l4.922,6.458Zm13.334-.524H45.03v-8.9l-4.782-6.283h3.316L45.03,73.25l.419-.314-7.435-9.495A3.763,3.763,0,0,1,41.434,57.4a3.782,3.782,0,0,1,2.513,1.431l7.435,9.495.419-.314-2.094-2.688V52.271L56.13,63.407a13.5,13.5,0,0,1,1.745,5.725V86.55Zm-12.287-.524H57.282V69.166a13.027,13.027,0,0,0-1.676-5.48l-5.445-9.46V65.082l2.3,2.932-1.222.977-7.749-9.914a3.252,3.252,0,0,0-2.164-1.222,3.185,3.185,0,0,0-2.374.663,3.258,3.258,0,0,0-.559,4.538l7.749,9.914-1.222.977-1.641-2.094h-1.99l4.259,5.585Zm-31.73.524H1.047V69.166a14.474,14.474,0,0,1,1.71-5.725L9.076,52.516V65.431L7.121,67.944l.419.314,7.435-9.495a3.757,3.757,0,1,1,5.934,4.608L13.474,72.9l.419.314,1.466-1.885h3.316l-4.782,6.283V86.55ZM1.571,86.026H13.3V77.474l4.259-5.585h-1.99l-1.641,2.094-1.222-.977,7.749-9.914a3.233,3.233,0,0,0-5.1-3.979L7.61,69.027l-1.222-.977,2.164-2.793V54.435l-5.341,9.25a13.592,13.592,0,0,0-1.676,5.48v16.86ZM43.145,70.807h-27.4l5.376-6.877v4.4h4.4v-4.4H21.154l.279-.419a4.312,4.312,0,0,0-.873-5.829,4.267,4.267,0,0,0-3.142-.873,4.193,4.193,0,0,0-2.862,1.606L9.634,64.733V43.754a3.114,3.114,0,0,1,3.107-3.107H46.077a3.114,3.114,0,0,1,3.107,3.107V64.593L44.332,58.45a4.291,4.291,0,0,0-6-.733,4.307,4.307,0,0,0-.873,5.829l.14.175Zm-26.32-.524H42.1l-4.049-5.2v3.735h-5.48V63.372h4.189a4.761,4.761,0,0,1,1.222-6.109,4.661,4.661,0,0,1,3.561-.977A4.8,4.8,0,0,1,44.751,58.1l3.875,4.957v-19.3a2.577,2.577,0,0,0-2.583-2.583H12.706a2.577,2.577,0,0,0-2.583,2.583V63.2L14.1,58.066a4.859,4.859,0,0,1,3.211-1.815,4.7,4.7,0,0,1,3.561.977A4.769,4.769,0,0,1,22.1,63.337h3.91v5.445H20.6V65.4Zm16.267-1.955h4.4v-4.4h-4.4Zm3.875-.524H33.615V64.454h3.351Zm-2.827-.524h2.3v-2.3h-2.3Zm-9.146.524H21.642V64.454h3.351Zm-2.827-.524h2.3v-2.3h-2.3Z" transform="translate(0 -39.6)"/>
        </g>
        <g id="Group_529" data-name="Group 529" transform="translate(15.045 17.323)">
          <path id="Path_1511" data-name="Path 1511" class="cls-2" d="M72.14,58.6V54.275A3.888,3.888,0,0,0,68.265,50.4H47.775A3.888,3.888,0,0,0,43.9,54.275V58.6a3.888,3.888,0,0,0,3.875,3.875h20.49A3.888,3.888,0,0,0,72.14,58.6Zm-27.192,0V54.275a2.816,2.816,0,0,1,2.827-2.827h20.49a2.816,2.816,0,0,1,2.827,2.827V58.6a2.816,2.816,0,0,1-2.827,2.827H47.775A2.838,2.838,0,0,1,44.947,58.6Z" transform="translate(-43.621 -50.121)"/>
          <path id="Path_1512" data-name="Path 1512" class="cls-2" d="M67.744,62.2H47.254A4.164,4.164,0,0,1,43.1,58.047V53.754A4.164,4.164,0,0,1,47.254,49.6h20.49A4.164,4.164,0,0,1,71.9,53.754v4.328A4.157,4.157,0,0,1,67.744,62.2ZM47.254,50.124a3.628,3.628,0,0,0-3.63,3.63v4.328a3.628,3.628,0,0,0,3.63,3.63h20.49a3.628,3.628,0,0,0,3.63-3.63V53.754a3.628,3.628,0,0,0-3.63-3.63Zm20.49,11.031H47.254a3.114,3.114,0,0,1-3.107-3.107V53.754a3.114,3.114,0,0,1,3.107-3.107h20.49a3.114,3.114,0,0,1,3.107,3.107v4.328A3.106,3.106,0,0,1,67.744,61.154Zm-20.49-9.983a2.577,2.577,0,0,0-2.583,2.583v4.328a2.577,2.577,0,0,0,2.583,2.583h20.49a2.577,2.577,0,0,0,2.583-2.583V53.754a2.577,2.577,0,0,0-2.583-2.583Z" transform="translate(-43.1 -49.6)"/>
        </g>
        <g id="Group_530" data-name="Group 530" transform="translate(24.679 18.928)">
          <path id="Path_1513" data-name="Path 1513" class="cls-2" d="M72.547,56.047h2.094V55H71.5v3h1.047Z" transform="translate(-71.221 -54.721)"/>
          <path id="Path_1514" data-name="Path 1514" class="cls-2" d="M72.271,57.726H70.7V54.2h3.7v1.571H72.271ZM71.224,57.2h.524V55.247h2.129v-.524H71.224Z" transform="translate(-70.7 -54.2)"/>
        </g>
        <g id="Group_531" data-name="Group 531" transform="translate(30.369 18.928)">
          <path id="Path_1515" data-name="Path 1515" class="cls-2" d="M87.8,56.047h2.129V58h1.047V55H87.8Z" transform="translate(-87.521 -54.721)"/>
          <path id="Path_1516" data-name="Path 1516" class="cls-2" d="M90.7,57.726H89.129V55.771H87V54.2h3.7ZM89.653,57.2h.524V54.724H87.524v.524h2.129Z" transform="translate(-87 -54.2)"/>
        </g>
        <g id="Group_532" data-name="Group 532" transform="translate(30.404 24.478)">
          <path id="Path_1517" data-name="Path 1517" class="cls-2" d="M89.929,73.1H87.8v1.047h3.177V70.8H89.929Z" transform="translate(-87.556 -70.556)"/>
          <path id="Path_1518" data-name="Path 1518" class="cls-2" d="M90.765,73.94H87.1V72.369h2.129V70.1H90.8v3.84Zm-3.142-.524h2.653V70.624h-.524v2.269H87.624Z" transform="translate(-87.1 -70.1)"/>
        </g>
        <g id="Group_533" data-name="Group 533" transform="translate(24.679 24.478)">
          <path id="Path_1519" data-name="Path 1519" class="cls-2" d="M72.547,70.8H71.5v3.351h3.142V73.1H72.547Z" transform="translate(-71.221 -70.556)"/>
          <path id="Path_1520" data-name="Path 1520" class="cls-2" d="M74.4,73.94H70.7V70.1h1.571v2.269H74.4Zm-3.177-.524h2.653v-.524H71.747V70.624h-.524Z" transform="translate(-70.7 -70.1)"/>
        </g>
        <g id="Group_534" data-name="Group 534" transform="translate(27.681 21.965)">
          <path id="Path_1521" data-name="Path 1521" class="cls-2" d="M82.9,64.442H81.99V63.5H80.942v.942H80V65.49h.942V66.4H81.99V65.49H82.9Z" transform="translate(-79.756 -63.291)"/>
          <path id="Path_1522" data-name="Path 1522" class="cls-2" d="M81.778,66.286H80.208v-.908H79.3V63.808h.908V62.9h1.571v.908h.908v1.571h-.908Zm-1.047-.524h.524v-.908h.908v-.524h-.908v-.908h-.524v.908h-.908v.524h.908Z" transform="translate(-79.3 -62.9)"/>
        </g>
        <g id="Group_535" data-name="Group 535" transform="translate(26.739 31.425)">
          <path id="Path_1523" data-name="Path 1523" class="cls-2" d="M77.3,95.622h4.922V90.7H77.3Zm1.047-3.875h2.827v2.827H78.347Z" transform="translate(-77.056 -90.456)"/>
          <path id="Path_1524" data-name="Path 1524" class="cls-2" d="M82.011,95.411H76.6V90h5.445v5.411Zm-4.887-.524h4.4V90.524h-4.4Zm3.84-.524H77.612V91.047h3.351Zm-2.793-.524h2.3v-2.3h-2.3Z" transform="translate(-76.6 -90)"/>
        </g>
        <g id="Group_536" data-name="Group 536" transform="translate(26.599 37.638)">
          <path id="Path_1525" data-name="Path 1525" class="cls-2" d="M77,113.422h4.922V108.5H77Zm1.047-3.875h2.827v2.827H78.047Z" transform="translate(-76.721 -108.256)"/>
          <path id="Path_1526" data-name="Path 1526" class="cls-2" d="M81.645,113.245H76.2V107.8h5.445Zm-4.922-.524h4.4v-4.4h-4.4ZM80.6,112.2H77.247v-3.351H80.6Zm-2.827-.524h2.3v-2.3h-2.3Z" transform="translate(-76.2 -107.8)"/>
        </g>
        <g id="Group_537" data-name="Group 537" transform="translate(17.872 0)">
          <path id="Path_1527" data-name="Path 1527" class="cls-2" d="M73.7,6.041l.733-.733a15.717,15.717,0,0,0-22.236,0l.733.733A14.706,14.706,0,0,1,73.7,6.041Z" transform="translate(-51.851 -0.447)"/>
          <path id="Path_1528" data-name="Path 1528" class="cls-2" d="M73.052,5.953l-.175-.175a14.432,14.432,0,0,0-20.386,0l-.175.175L51.2,4.836l.175-.175a15.991,15.991,0,0,1,22.62,0l.175.175ZM51.9,4.836l.384.384a14.967,14.967,0,0,1,20.77,0l.384-.384A15.583,15.583,0,0,0,51.9,4.836Z" transform="translate(-51.2 0.025)"/>
        </g>
        <g id="Group_538" data-name="Group 538" transform="translate(21.991 5.873)">
          <path id="Path_1529" data-name="Path 1529" class="cls-2" d="M77.963,20.4a9.822,9.822,0,0,0-6.981-2.9A9.68,9.68,0,0,0,64,20.4l.733.733a8.849,8.849,0,0,1,12.5,0Z" transform="translate(-63.651 -17.256)"/>
          <path id="Path_1530" data-name="Path 1530" class="cls-2" d="M76.579,21.059l-.175-.175a8.512,8.512,0,0,0-12.078,0l-.209.175L63,19.942l.175-.175a10.113,10.113,0,0,1,14.312,0l.175.175ZM63.733,19.942l.384.384a9.116,9.116,0,0,1,12.5,0L77,19.942a9.71,9.71,0,0,0-13.265,0Z" transform="translate(-63 -16.8)"/>
        </g>
        <g id="Group_539" data-name="Group 539" transform="translate(25.377 10.62)">
          <path id="Path_1531" data-name="Path 1531" class="cls-2" d="M74.433,33.434a4.045,4.045,0,0,1,5.725,0l.733-.733a5.016,5.016,0,0,0-3.6-1.5,4.958,4.958,0,0,0-3.6,1.5Z" transform="translate(-73.351 -30.921)"/>
          <path id="Path_1532" data-name="Path 1532" class="cls-2" d="M79.542,33.262l-.175-.175a3.792,3.792,0,0,0-5.376,0l-.175.175L72.7,32.145l.175-.175a5.393,5.393,0,0,1,7.61,0l.175.175Zm-2.9-1.815a4.293,4.293,0,0,1,2.862,1.082l.384-.384a4.822,4.822,0,0,0-6.493,0l.384.384A4.36,4.36,0,0,1,76.645,31.447Z" transform="translate(-72.7 -30.4)"/>
        </g>
      </g>
    </g>
  </g>
</svg>
