<svg xmlns="http://www.w3.org/2000/svg" xmlns:xlink="http://www.w3.org/1999/xlink" viewBox="330.593 1308 81.407 74.183">
  <defs>
    <style>
      .cls-1, .cls-3 {
        fill: #fff;
      }

      .cls-1 {
        opacity: 0.5;
      }

      .cls-2 {
        fill: url(#linear-gradient);
      }

      .cls-4 {
        fill: url(#linear-gradient-2);
      }

      .cls-5 {
        fill: url(#linear-gradient-3);
      }

      .cls-6 {
        fill: url(#linear-gradient-5);
      }

      .cls-7 {
        fill: url(#linear-gradient-6);
      }

      .cls-8 {
        fill: url(#linear-gradient-7);
      }
    </style>
    <linearGradient id="linear-gradient" y1="0.5" x2="1" y2="0.5" gradientUnits="objectBoundingBox">
      <stop offset="0" stop-color="#3e77bc"/>
      <stop offset="1" stop-color="#529fd8"/>
    </linearGradient>
    <linearGradient id="linear-gradient-2" x1="0.002" y1="0.5" x2="1.002" y2="0.5" xlink:href="#linear-gradient"/>
    <linearGradient id="linear-gradient-3" x1="-0.001" y1="0.5" x2="1" y2="0.5" xlink:href="#linear-gradient"/>
    <linearGradient id="linear-gradient-5" x1="0" y1="0.5" x2="0.999" y2="0.5" xlink:href="#linear-gradient"/>
    <linearGradient id="linear-gradient-6" x1="-0.001" y1="0.5" x2="0.999" y2="0.5" xlink:href="#linear-gradient"/>
    <linearGradient id="linear-gradient-7" x1="0.53" y1="15.802" x2="1.564" y2="15.802" xlink:href="#linear-gradient"/>
  </defs>
  <g id="icon_29" data-name="icon 29" transform="translate(219.193 1220.926)">
    <g id="Group_3295" data-name="Group 3295" transform="translate(111.4 112.41)">
      <path id="Path_4507" data-name="Path 4507" class="cls-1" d="M193.339,240.866l-37.148,23.052L112.4,238.652,149.573,215.6Z" transform="translate(-112.154 -215.317)"/>
      <g id="Group_3294" data-name="Group 3294">
        <path id="Path_4508" data-name="Path 4508" class="cls-2" d="M155.437,263.3a.222.222,0,0,1-.123-.025l-43.791-25.266a.261.261,0,0,1,0-.443l37.148-23.076a.224.224,0,0,1,.246,0l43.766,25.266a.261.261,0,0,1,0,.443l-37.148,23.076A.148.148,0,0,1,155.437,263.3Zm-43.3-25.512,43.274,25L192.093,240l-43.274-25Z" transform="translate(-111.4 -214.45)"/>
      </g>
    </g>
    <g id="Group_3296" data-name="Group 3296" transform="translate(138.536 87.074)">
      <path id="Path_4509" data-name="Path 4509" class="cls-3" d="M247.354,102.623a6.512,6.512,0,0,0-2.928-5.068L228.583,88.4a2.945,2.945,0,0,0-1.4-.418c-1.624-.1-4.281,1.255-4.281,3.37l.271.172c.074-1.673,1.279-2.337,2.78-1.451l15.843,9.152a6.145,6.145,0,0,1,2.8,4.822v45.464c0,1.3-.689,2.042-1.673,1.968l.123.3c1.574.1,4.305-.861,4.305-3.567h0V102.623Z" transform="translate(-222.605 -87.757)"/>
      <path id="Path_4510" data-name="Path 4510" class="cls-4" d="M242.39,151.34H242l-.369-.812.418.025a1.142,1.142,0,0,0,.91-.3,1.889,1.889,0,0,0,.492-1.427V103.366a5.851,5.851,0,0,0-2.682-4.6l-15.843-9.152a1.8,1.8,0,0,0-1.722-.2,1.677,1.677,0,0,0-.713,1.451l-.025.443-.763-.492V90.7a3.052,3.052,0,0,1,1.082-2.263,5.075,5.075,0,0,1,3.469-1.353h0a3.07,3.07,0,0,1,1.5.443L243.6,96.675a6.739,6.739,0,0,1,3.051,5.289v45.562a3.529,3.529,0,0,1-1.107,2.608A4.62,4.62,0,0,1,242.39,151.34ZM223.816,88.753a2.937,2.937,0,0,1,1.378.418l15.843,9.152a6.506,6.506,0,0,1,2.928,5.043V148.83a2.384,2.384,0,0,1-.64,1.8,1.353,1.353,0,0,1-.221.172,4.2,4.2,0,0,0,2.19-1.033,2.882,2.882,0,0,0,.935-2.14h0V101.94a6.19,6.19,0,0,0-2.8-4.847L227.58,87.941a2.736,2.736,0,0,0-1.279-.394,4.464,4.464,0,0,0-3.124,1.23l-.246.246c.025-.025.049-.025.074-.049A1.43,1.43,0,0,1,223.816,88.753Z" transform="translate(-221.7 -87.074)"/>
    </g>
    <g id="Group_3299" data-name="Group 3299" transform="translate(138.585 88.483)">
      <g id="Group_3297" data-name="Group 3297" transform="translate(0 0)">
        <path id="Path_4511" data-name="Path 4511" class="cls-3" d="M243.073,156.165a2.944,2.944,0,0,1-1.4-.418L225.828,146.6a6.483,6.483,0,0,1-2.928-5.068V96.063c0-1.378.713-2.263,1.821-2.263a2.945,2.945,0,0,1,1.4.418l15.843,9.152a6.483,6.483,0,0,1,2.928,5.068V153.9C244.894,155.279,244.18,156.165,243.073,156.165Z" transform="translate(-222.654 -93.554)"/>
        <path id="Path_4512" data-name="Path 4512" class="cls-5" d="M242.319,155.657a3.084,3.084,0,0,1-1.525-.443l-15.843-9.152a6.739,6.739,0,0,1-3.051-5.289V95.309c0-1.5.836-2.509,2.067-2.509a3.084,3.084,0,0,1,1.525.443l15.843,9.152a6.739,6.739,0,0,1,3.051,5.289v45.464C244.386,154.648,243.549,155.657,242.319,155.657ZM223.967,93.292c-.984,0-1.574.763-1.574,2.017v45.464a6.19,6.19,0,0,0,2.8,4.847l15.843,9.152a2.736,2.736,0,0,0,1.279.394c.984,0,1.574-.763,1.574-2.017V107.684a6.19,6.19,0,0,0-2.8-4.846l-15.843-9.152A2.548,2.548,0,0,0,223.967,93.292Z" transform="translate(-221.9 -92.8)"/>
      </g>
      <g id="Group_3298" data-name="Group 3298" transform="translate(0 0)">
        <path id="Path_4513" data-name="Path 4513" class="cls-3" d="M243.073,156.165a2.944,2.944,0,0,1-1.4-.418L225.828,146.6a6.483,6.483,0,0,1-2.928-5.068V96.063c0-1.378.713-2.263,1.821-2.263a2.945,2.945,0,0,1,1.4.418l15.843,9.152a6.483,6.483,0,0,1,2.928,5.068V153.9C244.894,155.279,244.18,156.165,243.073,156.165Z" transform="translate(-222.654 -93.554)"/>
        <path id="Path_4514" data-name="Path 4514" class="cls-5" d="M242.319,155.657a3.084,3.084,0,0,1-1.525-.443l-15.843-9.152a6.739,6.739,0,0,1-3.051-5.289V95.309c0-1.5.836-2.509,2.067-2.509a3.084,3.084,0,0,1,1.525.443l15.843,9.152a6.739,6.739,0,0,1,3.051,5.289v45.464C244.386,154.648,243.549,155.657,242.319,155.657ZM223.967,93.292c-.984,0-1.574.763-1.574,2.017v45.464a6.19,6.19,0,0,0,2.8,4.847l15.843,9.152a2.736,2.736,0,0,0,1.279.394c.984,0,1.574-.763,1.574-2.017V107.684a6.19,6.19,0,0,0-2.8-4.846l-15.843-9.152A2.548,2.548,0,0,0,223.967,93.292Z" transform="translate(-221.9 -92.8)"/>
      </g>
    </g>
    <path id="Path_4515" data-name="Path 4515" class="cls-6" d="M247.383,168.722,227.8,157.43V117.6l19.583,11.317Z" transform="translate(-87.764 -23.016)"/>
    <g id="Group_3300" data-name="Group 3300" transform="translate(141.758 106.763)">
      <path id="Path_4516" data-name="Path 4516" class="cls-3" d="M249.94,194l-13.432-7.749a2.646,2.646,0,0,1-1.107-2.14v-15.5c0-.812.492-1.205,1.107-.836l13.432,7.749a2.646,2.646,0,0,1,1.107,2.14v15.5C251.047,193.974,250.555,194.368,249.94,194Z" transform="translate(-235.252 -167.504)"/>
      <path id="Path_4517" data-name="Path 4517" class="cls-7" d="M249.93,193.9a1.033,1.033,0,0,1-.517-.148L235.981,186a2.81,2.81,0,0,1-1.181-2.263v-15.5a1.133,1.133,0,0,1,.467-1.033.887.887,0,0,1,.886.049L249.586,175a2.81,2.81,0,0,1,1.181,2.263v15.5a1.133,1.133,0,0,1-.467,1.033A.694.694,0,0,1,249.93,193.9Zm-.369-.418a.562.562,0,0,0,.59.049.862.862,0,0,0,.32-.763v-15.5a2.507,2.507,0,0,0-1.033-1.993l-13.432-7.75a.562.562,0,0,0-.59-.049.862.862,0,0,0-.32.763v15.5a2.507,2.507,0,0,0,1.033,1.993Z" transform="translate(-234.8 -167.106)"/>
    </g>
    <path id="Path_4518" data-name="Path 4518" class="cls-8" d="M254.061,206.844l-1.255.787-.2-.418.025-.025a.2.2,0,0,0,.074-.271l-.566-1.156a1.084,1.084,0,0,1-.049-.738l.394-1.353a.982.982,0,0,1,.443-.59l1.107-.689a.2.2,0,0,0,.074-.271l-.025-.049.394-.246.64,1.328a.231.231,0,0,0,.344.1.35.35,0,0,0,.123-.394l-.64-1.328.221-.148a.228.228,0,0,0,.074-.3.2.2,0,0,0-.271-.074l-.221.148-.64-1.328a.231.231,0,0,0-.344-.1.35.35,0,0,0-.123.394l.64,1.329-.394.246-.025-.049a.171.171,0,0,0-.246-.074l-1.107.689a.851.851,0,0,1-.689.1l-1.205-.344a.84.84,0,0,1-.517-.443l-.566-1.156a.171.171,0,0,0-.246-.074l-.025.025-.2-.418,1.255-.787a.35.35,0,0,0,.123-.394.231.231,0,0,0-.344-.1l-1.255.787-.123-.246a.2.2,0,0,0-.271-.074.228.228,0,0,0-.074.3l.123.246-1.255.787a.35.35,0,0,0-.123.394h0a.231.231,0,0,0,.344.1l1.255-.787.2.418-.025.025a.2.2,0,0,0-.074.271l.566,1.156a1.084,1.084,0,0,1,.049.738l-.394,1.353a.982.982,0,0,1-.443.59l-1.107.689a.2.2,0,0,0-.074.271l.025.049-.394.246-.64-1.328a.231.231,0,0,0-.344-.1h0a.35.35,0,0,0-.123.394l.64,1.328-.221.148a.228.228,0,0,0-.074.3.2.2,0,0,0,.271.074l.221-.148.64,1.329a.231.231,0,0,0,.344.1.35.35,0,0,0,.123-.394l-.64-1.328.394-.246.025.049a.171.171,0,0,0,.246.074l1.107-.689a.851.851,0,0,1,.689-.1l1.206.344a.84.84,0,0,1,.517.443l.566,1.156a.171.171,0,0,0,.246.074l.025-.025.2.418-1.255.787a.35.35,0,0,0-.123.394.231.231,0,0,0,.344.1l1.255-.787.123.246a.2.2,0,0,0,.271.074h0a.228.228,0,0,0,.074-.3l-.123-.246,1.255-.787a.35.35,0,0,0,.123-.394A.218.218,0,0,0,254.061,206.844Z" transform="translate(-101.428 -84.116)"/>
  </g>
</svg>
