<svg xmlns="http://www.w3.org/2000/svg" viewBox="10359.255 5162 118.63 74.973">
  <defs>
    <style>
      .cls-1 {
        fill: #c5d9f1;
      }

      .cls-2 {
        fill: none;
        stroke: #377bd0;
      }
    </style>
  </defs>
  <g id="health_icon" data-name="health icon" transform="translate(10355.755 5162)">
    <path id="Path_3985" data-name="Path 3985" class="cls-1" d="M403.635,294.558h0l5.353-18.84h2.63l10.309,35.64,3.39-13.971,2.355-1.824h8.872l6.38-19.84h2.643l5.353,19.84h16.438a37.063,37.063,0,0,0,1.691-10.843c0-14.233-10.968-25.715-24.412-25.715a24.4,24.4,0,0,0-18.02,8.234A24.057,24.057,0,0,0,408.737,259c-13.448,0-24.537,11.49-24.537,25.715a30.685,30.685,0,0,0,1.824,9.843Z" transform="translate(-346.918 -259)"/>
    <path id="Path_3986" data-name="Path 3986" class="cls-1" d="M456,335.928h14.379c-10.317,22.2-38.779,36.549-38.779,36.549s-28.324-14.358-38.645-36.554h15.423l2.346-1.829,4.56-17.065,10.3,34.6h2.634l4.321-15.714h9.783l1.315-2.86,5.457-17.065,4.555,18.1Z" transform="translate(-351.894 -297.505)"/>
    <path id="Path_3987" data-name="Path 3987" class="cls-2" d="M14.077,0A14.077,14.077,0,1,1,0,14.077,14.077,14.077,0,0,1,14.077,0Z" transform="translate(4 22.179)"/>
    <path id="Path_3988" data-name="Path 3988" class="cls-2" d="M32.6,66.392H27.183V60.98H20.416v5.412H15V73.16h5.416v5.412h6.767V73.16H32.6Z" transform="translate(-5.721 -33.519)"/>
    <path id="Path_3989" data-name="Path 3989" class="cls-2" d="M34.617,36.924l23.159.4,5.589-19.559L75.141,54.29l5.188-16.964H89.51l7.784-20.557,6.785,21.155h17.364"/>
  </g>
</svg>
