<svg xmlns="http://www.w3.org/2000/svg" viewBox="6969.999 1800.526 167.8 60.073">
  <defs>
    <style>
      .cls-1 {
        fill: #1a2857;
      }

      .cls-2 {
        fill: #fff;
      }

      .cls-3 {
        fill: #65656a;
      }
    </style>
  </defs>
  <g id="_9E8F83FD" data-name="9E8F83FD" transform="translate(6916.046 1751.126)">
    <g id="Group_3046" data-name="Group 3046" transform="translate(53.953 49.4)">
      <g id="Group_3045" data-name="Group 3045" transform="translate(0)">
        <path id="Path_4265" data-name="Path 4265" class="cls-1" d="M99.133,74.705c-.143-.179-.5-.036-.5-.036L92.824,76.82a20.614,20.614,0,0,0-1.541-3.083l1.864-5.126s.251-.5.036-.645-.573.215-.573.215l-3.405,2.8a14.138,14.138,0,0,0-4.7-3.369,20.483,20.483,0,0,0-2.079-.753l-1.039-4.05s-.108-.394-.358-.394c-.287,0-.358.394-.358.394l-.681,3.584a17.74,17.74,0,0,0-9.068,1.219,14.325,14.325,0,0,0-2.4,1.362,2.51,2.51,0,0,0-.358.287c-.717-1.792-1.255-3.3-1.362-3.728a6.4,6.4,0,0,0,1.4-2.509,4.328,4.328,0,0,0-.108-2.724c-.215-.681-.645-1.29-.609-1.72a1.107,1.107,0,0,1,.323-.681.733.733,0,0,0-.717-.681,3.349,3.349,0,0,0-.86.072c-.072-.143-.215-.108-.108-.573.179-.681,1.505-1.039,2.617-1.434a3.231,3.231,0,0,0,2.222-3.154,2.541,2.541,0,0,0-1.434-2.437A3.23,3.23,0,0,1,68.2,51.049a2.466,2.466,0,0,1-1.577.251,1.8,1.8,0,0,0-.932-1.9,2.41,2.41,0,0,1-2.079.824c-1.147-.036-1.219-.287-2.8-.287-2.258,0-4.158,1.362-4.373,3.369a4.792,4.792,0,0,0,.717,2.975,10.065,10.065,0,0,0-1.075,1.039.9.9,0,0,0-1.147-.108,1.486,1.486,0,0,1,.036.968,11.4,11.4,0,0,0-1,3.226,4.046,4.046,0,0,0,2.186,4.122.935.935,0,0,0-.108,1.039.779.779,0,0,0,.789.394,1.087,1.087,0,0,0-.179,1.147c.179.466.717,1.147,1.219,1.147a9.052,9.052,0,0,0,.251,1.72,1.782,1.782,0,0,0-.323,1.111,1.146,1.146,0,0,0,.86,1.147,3.241,3.241,0,0,0,.358.789,2.99,2.99,0,0,0,.681.645,2.1,2.1,0,0,0,1.219.43,5.037,5.037,0,0,0,1.111-.036c0,.143.036,1.4.108,2.76A33.548,33.548,0,0,0,60.35,89.079h0c0,7.384,2.115,13.943,6.129,18.173a3.737,3.737,0,0,0,.86.717,46.358,46.358,0,0,1,3.154-4.588,19.133,19.133,0,0,1,1.649-1.792c.932-.824,1.864-1.541,2.724-2.186a22.966,22.966,0,0,1,7.957-3.513,33.047,33.047,0,0,0-7.6,4.839,28.063,28.063,0,0,0-6.631,8.029,3.189,3.189,0,0,0,1.613.717,42.854,42.854,0,0,1,5.842-7.563,27.657,27.657,0,0,1,18.531-7.563,41.478,41.478,0,0,0,.358-5.269,36.66,36.66,0,0,0-.932-8.387l4.875-5.448C98.953,75.243,99.276,74.921,99.133,74.705Z" transform="translate(-53.953 -49.4)"/>
        <path id="Path_4266" data-name="Path 4266" class="cls-2" d="M72.279,103.512a3.473,3.473,0,0,0-1.685-.5,3.294,3.294,0,0,0-1.685.466.575.575,0,0,1-.143-.753c.143-.323.323-.358.323-.358l-.179-3.083a7.934,7.934,0,0,1,1.111-.681.469.469,0,0,0,.358-.5,5.21,5.21,0,0,1,1.255,1.255,2.314,2.314,0,0,1,.466,1.362,7.2,7.2,0,0,1-.072,1.72c.179.179.394.323.394.574C72.458,103.19,72.387,103.3,72.279,103.512Z" transform="translate(-63.409 -80.644)"/>
        <path id="Path_4267" data-name="Path 4267" class="cls-2" d="M155.347,129.642a6.268,6.268,0,0,0-1.147-2.581l7.348-3.262Z" transform="translate(-118.268 -97.133)"/>
        <path id="Path_4268" data-name="Path 4268" class="cls-2" d="M101.2,106.1l6.237,5.627a4.389,4.389,0,0,0-1.756,2.007Z" transform="translate(-84.265 -85.777)"/>
        <path id="Path_4269" data-name="Path 4269" class="cls-2" d="M107.066,135.183a2.113,2.113,0,0,0-.358.932,2.893,2.893,0,0,0,.036.968l-1.9-1.326c.036-.43-.108-1.183-.108-1.577A1.552,1.552,0,0,1,104.7,134Z" transform="translate(-86.511 -103.676)"/>
        <path id="Path_4270" data-name="Path 4270" class="cls-2" d="M76.23,105.888c-.108-.215-.681-11.685-.681-12.115l.609-.43v-.108a1.55,1.55,0,0,1-1.147-.466l-.179-3.513a2.722,2.722,0,0,1-1.47-.466.937.937,0,0,1-.179-1.29,4.415,4.415,0,0,0,1.971.466c.179,0,.5.358.717.43.215.108.609.287.789.394.179.072.251.466.323.609.036.143,5.735,14.911,5.842,15.09a25.74,25.74,0,0,1,.43,2.832,16.976,16.976,0,0,0,1.039,2.366,4.453,4.453,0,0,0-3.011,1.4,9.851,9.851,0,0,0-2.079,4.086C79.133,114.633,76.337,106.1,76.23,105.888Z" transform="translate(-66.177 -73.844)"/>
        <path id="Path_4271" data-name="Path 4271" class="cls-2" d="M94.694,161.632a13.926,13.926,0,0,1-1.649,5.627c-.538.9-2.043,2.724-2.545,3.441a16.04,16.04,0,0,0,.968-5.986c-.036-1.4-.43-4.445-.072-6.452a7.449,7.449,0,0,1,2.473-4.731,4.61,4.61,0,0,1,4.409-.968l1.756,3.3a3.948,3.948,0,0,0-3.011.609C95.446,157.689,94.945,159.3,94.694,161.632Z" transform="translate(-77.4 -115.466)"/>
        <path id="Path_4272" data-name="Path 4272" class="cls-2" d="M102.7,174.226a33.011,33.011,0,0,0,1.147-4.588,6.211,6.211,0,0,1,1.792-4.05,2.842,2.842,0,0,1,2.258-.5l1.971,4.014a1.23,1.23,0,0,0,1.147.574C109.152,170.284,104.456,172.506,102.7,174.226Z" transform="translate(-85.227 -123.58)"/>
        <path id="Path_4273" data-name="Path 4273" class="cls-2" d="M149.229,152.234a1.264,1.264,0,0,0-.036,1.326c.215.358,1.255,2.294,1.255,2.294a11.941,11.941,0,0,0,.9,1.9h1.828c-.681-1.541-2.258-4.552-2.258-4.552l-.108-2.4A5.418,5.418,0,0,0,149.229,152.234Z" transform="translate(-114.946 -114.455)"/>
        <path id="Path_4274" data-name="Path 4274" class="cls-2" d="M126.1,101.357a7.991,7.991,0,0,1,3.118.287L127.426,91.5Z" transform="translate(-100.24 -76.41)"/>
        <path id="Path_4275" data-name="Path 4275" class="cls-2" d="M77.011,89.3a1.13,1.13,0,0,0-.323-.609c-.179-.072-.573-.287-.789-.394-.179-.072-.538-.43-.717-.43a4.165,4.165,0,0,1-1.971-.466.973.973,0,0,0,.179,1.29,2.544,2.544,0,0,0,1.47.466l.179,3.513a1.537,1.537,0,0,0,1.147.43v.108l-.609.466c.036.394.573,11.9.681,12.115s2.9,8.71,2.975,9.248a10.067,10.067,0,0,1,2.079-4.086,4.453,4.453,0,0,1,3.011-1.4,16.976,16.976,0,0,1-1.039-2.366c-.036-.179-.358-2.652-.43-2.832C82.746,104.211,77.047,89.443,77.011,89.3Z" transform="translate(-66.205 -73.779)"/>
        <path id="Path_4276" data-name="Path 4276" class="cls-2" d="M69.394,83.039a3.7,3.7,0,0,1,2.76,1.039,1.514,1.514,0,0,0-.538-1.434A3.717,3.717,0,0,0,69.322,82a3.336,3.336,0,0,0-2.007.609,1.308,1.308,0,0,0-.394,1.4C67.064,83.541,68.068,83.039,69.394,83.039Z" transform="translate(-62.244 -70.315)"/>
        <path id="Path_4277" data-name="Path 4277" class="cls-2" d="M65.892,56.909a2.765,2.765,0,0,0,.394,1.613c.179.215.538.645.824.609.394-.036.789-.789,1.72-.753.609.036,1,.9,1.541.932.394.036.609-.394,1.039-.43.358-.036.466.143.681.358a2.463,2.463,0,0,1,.86-.932c.645-.466,2.8-.932,3.728-1.756a1.769,1.769,0,0,0,.43-1.685,3.2,3.2,0,0,1-2.258,1.039,5.413,5.413,0,0,1-2.007-.394,1.231,1.231,0,0,0,.108-1.111,5.761,5.761,0,0,1-2.151.358c-.538,0-1.541-.215-2.33-.179A2.578,2.578,0,0,0,65.892,56.909Z" transform="translate(-61.61 -52.608)"/>
        <path id="Path_4278" data-name="Path 4278" class="cls-2" d="M64.119,72.066c3.728.072,5.412,1.792,5.484,3.226A2.621,2.621,0,0,0,69.747,74c-.036-.394-.573-1.434-.609-1.792a2.808,2.808,0,0,1,.143-.932c-.251.036-1.075.394-1.434.108-.394-.323-.108-1.075-.609-1.255s-1.29.394-1.756.323c-.5-.072-.932-.753-1.434-.753-.538,0-.789.645-1.434.789-.5.108-1.075-.179-1.362-.179-.323.036-.5.287-.645.573a.781.781,0,0,1-.645.538c-.287.072-.753-.179-.932-.143a1.513,1.513,0,0,1,.108,1.219,5.654,5.654,0,0,0-.645,1.649,2.658,2.658,0,0,0,.287,1.219C58.635,73.32,60.857,72.03,64.119,72.066Z" transform="translate(-56.862 -62.424)"/>
        <path id="Path_4279" data-name="Path 4279" class="cls-2" d="M65.034,91.745a2.238,2.238,0,0,0-1.075.932,2.717,2.717,0,0,0,.681,1.147,1.978,1.978,0,0,1,.573-.932,3.037,3.037,0,0,1,.645-.358c.179-.108.251-.179.251-.394A1.438,1.438,0,0,0,66,91.6c.179-.036.538,0,.645-.179a1.19,1.19,0,0,0,.179-.573c0-.215-.108-.251-.323-.287a6.1,6.1,0,0,0-1.147,0s.466-.251.609-.323a.477.477,0,0,0,.215-.323,2.688,2.688,0,0,0-.036-.717,5.4,5.4,0,0,0-2.294.932l.251.645h-.466a1.95,1.95,0,0,0,.108,1.111A3.6,3.6,0,0,1,65.034,91.745Z" transform="translate(-60.142 -74.934)"/>
        <path id="Path_4280" data-name="Path 4280" class="cls-2" d="M127.449,127.526c-.072-.466-1.255-1.828-3.19-3.333a10.077,10.077,0,0,0-5.627-2.294,4.469,4.469,0,0,0-4.624,3.3,3.668,3.668,0,0,0,.036,1.792,2.027,2.027,0,0,0-.789,1.255,1.26,1.26,0,0,0,.323,1.147,2.2,2.2,0,0,1,.538-1.326,3.424,3.424,0,0,1,1.183-.789l.072.86c-.394.251-.9.717-.932,1l.036,1.4,1.075-.645.215.43-.394,2.473.609-.108,1.111.466-1.075.9v.358a.72.72,0,0,1,.538-.215,5.387,5.387,0,0,1,1.326.466l-.072.179h-1.864c-.072.251.143.43.287.538a4.455,4.455,0,0,1,.645-.215c.143,0,.466.072.753.108l-.323.466a.614.614,0,0,1-.5.072c-.179-.036-.358.215-.358.43a4.664,4.664,0,0,0,.143.753.842.842,0,0,0,1.075.609,16.511,16.511,0,0,0,2.222-.645l-1.613,2.258.717,2.437a40.7,40.7,0,0,1,7.742-2.151,17.564,17.564,0,0,1-.9-1.828l-1.756-4.086.251-.609a1.712,1.712,0,0,0,1.4-.466,4.718,4.718,0,0,0,1.039-1.255.592.592,0,0,0-.681.036c-.215.143-.358.43-.681.287s-.179-.5-.143-.824-.358-.323-.645-.072a1.042,1.042,0,0,1-1.29-.251,26.3,26.3,0,0,0-2.939-2.33,5.171,5.171,0,0,0-3.226-.538c-.573.108-.968.358-1.183.251l-.717-1.075.108-.072c.251.108.466.323.789.179a10.516,10.516,0,0,1,2.258-.358,10.778,10.778,0,0,1,3.907.824c.036.932,1.9,2.079,2.724,2.186a2.171,2.171,0,0,0,1.577-.358l-1.792-1.577.968-1.219s1.541,1.47,1.72,1.756A1.782,1.782,0,0,0,127.449,127.526Zm-10.9,1.828a7.6,7.6,0,0,1,1.505-.609,4.27,4.27,0,0,1,3.118,1.075l-.179.251-1.219.287a1.667,1.667,0,0,0-1.183-.287,3.059,3.059,0,0,0-.789.179l.251.394-.573.143a2.44,2.44,0,0,0-1-.824v-.609Zm-1.828-2.8a2.77,2.77,0,0,1,.932-2.509l.609,1.4A9.963,9.963,0,0,0,114.724,126.558Zm5.592-1.183a6.065,6.065,0,0,0-3.226-.143l-.573-1.649a3.655,3.655,0,0,1,1.971-.538,4.959,4.959,0,0,1,2.115.466Zm3.692,1.649a18.152,18.152,0,0,0-2.76-1.4l.681-1.756a30.8,30.8,0,0,1,2.975,1.864Z" transform="translate(-91.983 -95.912)"/>
        <path id="Path_4281" data-name="Path 4281" class="cls-2" d="M142.6,112.3a13.689,13.689,0,0,1,2.545,1.792l3.764-7.993Z" transform="translate(-110.826 -85.777)"/>
      </g>
    </g>
    <g id="Group_3051" data-name="Group 3051" transform="translate(104.079 66.605)">
      <g id="Group_3047" data-name="Group 3047" transform="translate(0.108 0)">
        <path id="Path_4282" data-name="Path 4282" class="cls-3" d="M199.333,112.917c0,1.219.5,1.613,2.366,1.613s2.688-.573,3.907-3.083h.43l-.43,3.907H194.1v-.43c1.72-.43,1.9-.824,1.9-2.437v-9.642c0-1.326-.323-1.72-1.9-2.115v-.43h7.133v.43c-1.505.394-1.9.681-1.9,2.007Z" transform="translate(-194.1 -99.261)"/>
        <path id="Path_4283" data-name="Path 4283" class="cls-3" d="M232.66,111.451c0,.968.5,1.505,1.577,1.649v.43h-6.093v-.43c1.326-.251,1.613-.609,1.613-1.864v-5.2c0-1.183-.323-1.505-1.756-1.792v-.43l4.23-.358h.43ZM231.226,97.4a1.683,1.683,0,0,1,1.685,1.685,1.685,1.685,0,1,1-3.369,0A1.66,1.66,0,0,1,231.226,97.4Z" transform="translate(-215.849 -97.4)"/>
        <path id="Path_4284" data-name="Path 4284" class="cls-3" d="M250.873,105.895a3.092,3.092,0,0,1,2.258-1.147c1.72,0,2.867,1.649,2.867,4.014,0,3.154-1.434,4.445-3.62,4.445-1.147,0-1.541-.5-1.541-1.613v-5.7Zm0-8.495h-.43l-3.943.287v.43c.9.143,1.47.609,1.47,1.434V113.53a23.806,23.806,0,0,0,4.731.394c4.731,0,6.559-2.473,6.559-5.448a4.756,4.756,0,0,0-4.624-5.018,4.938,4.938,0,0,0-3.728,1.792V97.4Z" transform="translate(-227.718 -97.4)"/>
        <path id="Path_4285" data-name="Path 4285" class="cls-3" d="M288.418,118.064c.072-1.864.86-3.083,2.079-3.083,1.183,0,2.079,1.29,2.151,3.083Zm7.384.609a4.84,4.84,0,0,0-5.09-4.373,5.252,5.252,0,0,0-5.412,5.3,5.116,5.116,0,0,0,5.3,5.2,5.5,5.5,0,0,0,5.2-3.369h-.43a4.024,4.024,0,0,1-3.477,2.115c-1.792,0-3.62-1.649-3.441-4.839H295.8Z" transform="translate(-252.611 -108.242)"/>
        <path id="Path_4286" data-name="Path 4286" class="cls-3" d="M324.368,118.028a3.412,3.412,0,0,0-2.186-1.255c-.86,0-1.434.358-2.151,1.4v3.979c0,1.147.215,1.505,1.649,1.792v.43h-6.2v-.43c1.29-.323,1.613-.681,1.613-1.792v-5.126c0-1.255-.538-1.792-1.792-1.9v-.43l4.265-.394H320v3.083h.036c.968-2.115,2.007-3.083,3.226-3.083a2.262,2.262,0,0,1,1.72.824Z" transform="translate(-271.858 -108.242)"/>
        <path id="Path_4287" data-name="Path 4287" class="cls-3" d="M358.62,108.5v.43c1.255.251,1.505,1.039.645,3.083l-1.326,3.118-2.079-4.265c-.609-1.255-.609-1.792.5-1.971v-.43h-8.6V104.7h-.5a18.808,18.808,0,0,1-4.158,4.05v.5h1.756v6.237c0,2.222,1.47,3.083,3.3,3.083a3.256,3.256,0,0,0,3.118-1.72l-.323-.287a1.839,1.839,0,0,1-1.4.789c-1.362,0-1.792-.932-1.792-2.509v-5.592h2.617c1.434,0,1.828.5,2.437,1.828l3.549,7.491c-1.183,3.19-2.222,4.48-4.014,4.48a4.322,4.322,0,0,1-1.326-.215l-.609,2.939a7.221,7.221,0,0,0,.824.036c2.007,0,3.118-.86,4.158-3.226L360.3,111.4c.789-1.792,1.111-2.151,2.33-2.509v-.43H358.62Z" transform="translate(-289.693 -102.083)"/>
      </g>
      <g id="Group_3049" data-name="Group 3049" transform="translate(0 20.933)">
        <g id="Group_3048" data-name="Group 3048">
          <path id="Path_4288" data-name="Path 4288" class="cls-3" d="M252.8,156.517h-59V155.8h59Z" transform="translate(-193.8 -155.8)"/>
        </g>
        <path id="Path_4289" data-name="Path 4289" class="cls-3" d="M393.694,156.517H381.4V155.8h12.294Z" transform="translate(-314.158 -155.8)"/>
      </g>
      <path id="Path_4290" data-name="Path 4290" class="cls-3" d="M199.871,172.881h-.287a2.8,2.8,0,0,0-2.437-2.007,1.474,1.474,0,0,0-1.613,1.326,1.438,1.438,0,0,0,.5,1.039c.5.5,2.724,1.685,3.333,2.258a3,3,0,0,1,1.075,2.258,2.918,2.918,0,0,1-3.154,2.832,17.148,17.148,0,0,1-2.4-.394.541.541,0,0,0-.5.323H194.1v-2.939h.287A2.7,2.7,0,0,0,197,180.049c1.039,0,1.792-.574,1.792-1.4a1.629,1.629,0,0,0-.5-1.111c-.753-.753-2.473-1.47-3.3-2.294a2.894,2.894,0,0,1,2.222-4.946,4.23,4.23,0,0,1,1,.143,3.625,3.625,0,0,0,.824.143.739.739,0,0,0,.5-.251h.287v2.545Z" transform="translate(-193.992 -144.17)"/>
      <path id="Path_4291" data-name="Path 4291" class="cls-3" d="M213.847,181.9c0-.86-.108-1.147-1.147-1.362v-.287l2.76-.251h.287v1.219A3.272,3.272,0,0,1,218.292,180a3.085,3.085,0,0,1,2.975,3.333,3.29,3.29,0,0,1-3.3,3.477,3.1,3.1,0,0,1-2.222-.932v3.979c0,.9.215,1.147,1.183,1.326v.287h-4.194v-.287c.968-.108,1.147-.466,1.147-1.577V181.9Zm1.9,3.549a2.185,2.185,0,0,0,1.541.717c1.111,0,1.864-1.039,1.864-2.652,0-1.649-.717-2.688-1.828-2.688a1.951,1.951,0,0,0-1.613.824v3.8Z" transform="translate(-205.926 -150.393)"/>
      <path id="Path_4292" data-name="Path 4292" class="cls-3" d="M241.307,182.932c-.108,2.079,1.075,3.154,2.258,3.154a2.651,2.651,0,0,0,2.258-1.362h.287a3.569,3.569,0,0,1-3.369,2.186,3.317,3.317,0,0,1-3.441-3.369,3.393,3.393,0,0,1,3.513-3.441,3.137,3.137,0,0,1,3.3,2.832Zm2.76-.394c-.072-1.183-.645-2.007-1.4-2.007s-1.29.789-1.326,2.007Z" transform="translate(-222.991 -150.458)"/>
      <path id="Path_4293" data-name="Path 4293" class="cls-3" d="M267.41,182.23h-.287c-.609-1.29-1.326-1.9-2.33-1.9-1.29,0-2.079,1.075-2.079,2.8,0,1.792.86,2.832,2.33,2.832a2.565,2.565,0,0,0,2.222-1.183h.323a3.432,3.432,0,0,1-3.405,1.971,3.281,3.281,0,0,1-3.584-3.3,3.6,3.6,0,0,1,3.8-3.548,5.548,5.548,0,0,1,1.183.108c.358.036.645.108.9.108a.629.629,0,0,0,.5-.215h.251Z" transform="translate(-236.657 -150.329)"/>
      <path id="Path_4294" data-name="Path 4294" class="cls-3" d="M283.883,178.24a.977.977,0,0,0,1,1.075v.287h-3.979v-.287c.86-.179,1.039-.394,1.039-1.219v-3.369c0-.753-.215-.968-1.147-1.183v-.287l2.724-.251h.287v5.233Zm-.932-9.14a1.078,1.078,0,0,1,1.075,1.075,1.093,1.093,0,1,1-1.075-1.075Z" transform="translate(-249.616 -143.4)"/>
      <path id="Path_4295" data-name="Path 4295" class="cls-3" d="M298.95,185.341c0,.574.108.824.394.824.251,0,.43-.215.5-.573h.251c-.072.789-.609,1.219-1.541,1.219a1.438,1.438,0,0,1-1.505-.9l-.143.143a2.717,2.717,0,0,1-2.007.753,1.8,1.8,0,0,1-1.9-1.649c0-1.72,2.509-1.828,4.05-2.4,0-1.111-.43-1.649-1.577-1.649a2.1,2.1,0,0,0-1.9,1.039h-.215A2.7,2.7,0,0,1,296.19,180c1.362,0,2.76.609,2.76,2.366Zm-1.9-2.258c-1.577.681-2.043,1.039-2.043,1.9,0,.681.358,1.147.86,1.147a1.719,1.719,0,0,0,1.183-.645Z" transform="translate(-257.443 -150.393)"/>
      <path id="Path_4296" data-name="Path 4296" class="cls-3" d="M315.383,170.82c0-.9-.287-1.219-1.183-1.255v-.287l2.8-.179h.43v8.925c-.143.824.036,1.039.968,1.255v.287H314.2v-.287c.932-.143,1.183-.466,1.183-1.255Z" transform="translate(-271.045 -143.4)"/>
      <path id="Path_4297" data-name="Path 4297" class="cls-3" d="M335.515,176.337v.287c.789.179,1,.681.43,2.007l-.86,2.043-1.326-2.76c-.394-.789-.394-1.183.323-1.29v-.287h-5.735V173.9h-.323a11.358,11.358,0,0,1-2.724,2.617v.323h1.147v4.05A1.9,1.9,0,0,0,328.6,182.9a2.088,2.088,0,0,0,2.007-1.111l-.215-.179a1.128,1.128,0,0,1-.932.5c-.9,0-1.147-.609-1.147-1.613v-3.62h1.936c.86.108,1.075.358,1.47,1.183l2.294,4.875c-.753,2.079-1.434,2.9-2.617,2.9a2.131,2.131,0,0,1-.86-.143l-.394,1.9a3.1,3.1,0,0,0,.538.036c1.29,0,2.007-.538,2.688-2.079l3.19-7.276c.5-1.183.717-1.4,1.505-1.613v-.287h-2.545Z" transform="translate(-278.166 -146.48)"/>
      <g id="Group_3050" data-name="Group 3050" transform="translate(62.117 25.628)">
        <path id="Path_4298" data-name="Path 4298" class="cls-3" d="M380.541,170.8v.287a1.607,1.607,0,0,0-.86.394,1.056,1.056,0,0,0-.287.789,1.744,1.744,0,0,0,.036.43l.9,6.165a1.757,1.757,0,0,0,.466,1.039,2.023,2.023,0,0,0,1.039.5v.287h-4.875v-.287a1.458,1.458,0,0,0,.86-.5,1.442,1.442,0,0,0,.251-.932,6.57,6.57,0,0,0-.072-.753l-.824-5.627-3.262,8.1h-.358l-3.19-8.1-.86,5.807a3.685,3.685,0,0,0-.036.609,1.219,1.219,0,0,0,1.219,1.4v.287H367.1v-.287a1.486,1.486,0,0,0,1.183-.538,3.478,3.478,0,0,0,.573-1.649l.968-6.452a2.161,2.161,0,0,0-1.434-.681V170.8h3.584l2.617,6.524,2.617-6.488h3.333Z" transform="translate(-367.1 -170.119)"/>
        <path id="Path_4299" data-name="Path 4299" class="cls-3" d="M411,186.782a2.059,2.059,0,0,1-1.362-.5,1.531,1.531,0,0,1-.538-1.183,1.41,1.41,0,0,1,.538-1.147,7.414,7.414,0,0,1,2.294-.932c.574-.143.968-.287,1.219-.358a1.913,1.913,0,0,0-.394-1.29,1.654,1.654,0,0,0-1.219-.394,2.021,2.021,0,0,0-1.9,1.075h-.215a2.7,2.7,0,0,1,1-1.577,3.115,3.115,0,0,1,1.864-.574,3.225,3.225,0,0,1,2.043.609,2.176,2.176,0,0,1,.753,1.756v3.011c0,.573.143.86.394.86.287,0,.43-.215.5-.609h.287a1.114,1.114,0,0,1-.466.9,1.779,1.779,0,0,1-1.111.323,1.707,1.707,0,0,1-.932-.215,1.634,1.634,0,0,1-.609-.681l-.143.143A3.011,3.011,0,0,1,411,186.782Zm2.151-1.362v-2.4a7.16,7.16,0,0,0-1.685.932,1.226,1.226,0,0,0-.394,1,1.2,1.2,0,0,0,.251.824.766.766,0,0,0,.645.323A2.048,2.048,0,0,0,413.15,185.42Z" transform="translate(-394.046 -175.957)"/>
        <path id="Path_4300" data-name="Path 4300" class="cls-3" d="M433.483,179.9v2.007h.036c.609-1.362,1.29-2.007,2.115-2.007a1.391,1.391,0,0,1,1.111.538l-.43,1.936a2.407,2.407,0,0,0-1.434-.824,1.138,1.138,0,0,0-.717.215,2.643,2.643,0,0,0-.681.717V185.1a1.2,1.2,0,0,0,.215.824,1.966,1.966,0,0,0,.86.358v.287h-4.05v-.287a1.749,1.749,0,0,0,.86-.394,1.153,1.153,0,0,0,.215-.789v-3.369a1.277,1.277,0,0,0-.287-.9,1.226,1.226,0,0,0-.9-.358v-.287l2.8-.251h.287Z" transform="translate(-407.711 -175.957)"/>
        <path id="Path_4301" data-name="Path 4301" class="cls-3" d="M448,179.438v-.287a1.478,1.478,0,0,0,.753-.394,1.009,1.009,0,0,0,.215-.717V170.37a.876.876,0,0,0-.215-.645,1.832,1.832,0,0,0-.753-.358v-.287l2.581-.179h.287v7.133l2.258-1.613a.578.578,0,0,0,.072-.9.7.7,0,0,0-.5-.143v-.287h3.513v.287a5.533,5.533,0,0,0-1.039.251,5.111,5.111,0,0,0-.968.573l-1.649,1.183,3.011,3.154a2.692,2.692,0,0,0,.538.466,1.432,1.432,0,0,0,.645.143v.287h-2.9l-2.939-3.047v1.434a1.6,1.6,0,0,0,.143.86,1.676,1.676,0,0,0,.789.43v.287H448Z" transform="translate(-419.003 -168.9)"/>
        <path id="Path_4302" data-name="Path 4302" class="cls-3" d="M478.259,184.56h.287a3.451,3.451,0,0,1-1.326,1.613,3.7,3.7,0,0,1-2.043.609,3.368,3.368,0,0,1-3.477-3.405,3.243,3.243,0,0,1,1-2.473,3.377,3.377,0,0,1,2.509-1,3.277,3.277,0,0,1,2.258.789,3.1,3.1,0,0,1,1.075,2.079h-4.8v.251a3.306,3.306,0,0,0,.645,2.115,2,2,0,0,0,1.613.824A2.822,2.822,0,0,0,478.259,184.56Zm-4.552-2.186h2.76A2.652,2.652,0,0,0,476,180.9a1.176,1.176,0,0,0-.968-.574,1.039,1.039,0,0,0-.932.538A3.565,3.565,0,0,0,473.707,182.373Z" transform="translate(-434.208 -175.957)"/>
        <path id="Path_4303" data-name="Path 4303" class="cls-3" d="M496.326,181.478l.215.179a2.491,2.491,0,0,1-3.62.573,1.921,1.921,0,0,1-.573-1.505v-4.05H491.2v-.323a10.929,10.929,0,0,0,2.724-2.652h.323v2.473h2.079v.5h-2.079v3.656a2.23,2.23,0,0,0,.287,1.255,1.02,1.02,0,0,0,.9.394A1.165,1.165,0,0,0,496.326,181.478Z" transform="translate(-446.718 -171.98)"/>
        <path id="Path_4304" data-name="Path 4304" class="cls-3" d="M508.236,186.846v-2.437h.287c.645,1.326,1.4,2.007,2.294,2.007a1.181,1.181,0,0,0,.789-.287.814.814,0,0,0,.323-.645,1.066,1.066,0,0,0-.287-.717,3.938,3.938,0,0,0-1.326-.681,4.51,4.51,0,0,1-1.721-.968,1.659,1.659,0,0,1-.394-1.147,1.929,1.929,0,0,1,.609-1.4,2.389,2.389,0,0,1,1.613-.574,7.665,7.665,0,0,1,1.255.143,2.986,2.986,0,0,0,.43.036A.9.9,0,0,0,512.5,180h.287v2.007H512.5a2.7,2.7,0,0,0-.824-1.147,1.72,1.72,0,0,0-1.147-.394,1.325,1.325,0,0,0-.753.215.541.541,0,0,0-.287.5.645.645,0,0,0,.251.538,5.352,5.352,0,0,0,1.147.574,4.473,4.473,0,0,1,1.828,1.075,1.937,1.937,0,0,1,.466,1.326,1.973,1.973,0,0,1-.717,1.541,2.286,2.286,0,0,1-1.577.645,4.865,4.865,0,0,1-1.039-.108,4.532,4.532,0,0,0-.753-.108.757.757,0,0,0-.574.215h-.287Z" transform="translate(-457.625 -176.021)"/>
      </g>
    </g>
  </g>
</svg>
