<svg xmlns="http://www.w3.org/2000/svg" viewBox="3274 1709 137.79 64.6">
  <defs>
    <style>
      .cls-1 {
        fill: #254476;
      }

      .cls-2 {
        fill: #fff;
      }

      .cls-3 {
        fill: #687073;
      }
    </style>
  </defs>
  <g id="liberrty_logo" data-name="liberrty logo" transform="translate(3235.015 1687.7)">
    <g id="Group_1711" data-name="Group 1711" transform="translate(38.985 21.3)">
      <path id="Path_2646" data-name="Path 2646" class="cls-1" d="M87.446,48.625c-.144-.216-.577-.072-.577-.072L80.6,50.86a23.721,23.721,0,0,0-1.658-3.317l2.019-5.479s.288-.577,0-.649c-.216-.144-.577.216-.577.216L76.7,44.66a17.168,17.168,0,0,0-5.047-3.677,20.378,20.378,0,0,0-2.235-.793l-1.154-4.326s-.072-.433-.36-.433-.36.433-.36.433l-.721,3.821c-.793-.072-1.586-.144-2.451-.144a17.729,17.729,0,0,0-7.282,1.442,15.021,15.021,0,0,0-2.6,1.442,1.573,1.573,0,0,0-.36.288,29.15,29.15,0,0,1-1.442-4.037,7,7,0,0,0,1.514-2.74,5.08,5.08,0,0,0-.072-2.956c-.216-.721-.721-1.37-.649-1.875a.989.989,0,0,1,.36-.721.777.777,0,0,0-.793-.721c-.36-.072-.577.072-.937.072-.072-.144-.216-.144-.144-.577.144-.721,1.586-1.081,2.812-1.586a3.445,3.445,0,0,0,2.379-3.389,2.71,2.71,0,0,0-1.514-2.6,3.106,3.106,0,0,1-1.442,1.442,2.81,2.81,0,0,1-1.658.288A1.79,1.79,0,0,0,51.541,21.3a2.5,2.5,0,0,1-2.235.865,15.917,15.917,0,0,0-3.028-.288c-2.451,0-4.47,1.442-4.686,3.6a4.788,4.788,0,0,0,.793,3.172,8.7,8.7,0,0,0-1.154,1.154.843.843,0,0,0-1.226-.072,1.584,1.584,0,0,1,.072,1.009A14.038,14.038,0,0,0,39,34.206,4.4,4.4,0,0,0,41.3,38.6a1.129,1.129,0,0,0-.144,1.154.923.923,0,0,0,.865.433,1.228,1.228,0,0,0-.216,1.226c.072.577.649,1.3,1.226,1.3a8.439,8.439,0,0,0,.288,1.875,2.472,2.472,0,0,0-.36,1.226,1.193,1.193,0,0,0,.937,1.226,3.241,3.241,0,0,0,.433.865,3.342,3.342,0,0,0,.721.721,2.013,2.013,0,0,0,1.3.433,4.8,4.8,0,0,0,1.154-.072c0,.144.072,1.514.144,2.956A35.575,35.575,0,0,0,45.7,64.054h0c0,7.931,2.235,15,6.561,19.539a3.5,3.5,0,0,0,.937.721,59.947,59.947,0,0,1,3.389-4.975,22.176,22.176,0,0,1,1.8-1.947c1.009-.865,2.019-1.658,2.956-2.379a24.948,24.948,0,0,1,8.58-3.749,34.458,34.458,0,0,0-8.147,5.191,29.667,29.667,0,0,0-7.138,8.652,3.221,3.221,0,0,0,1.73.793,46.015,46.015,0,0,1,6.273-8.147,29.707,29.707,0,0,1,19.971-8.147,47.055,47.055,0,0,0,.36-5.624,40.127,40.127,0,0,0-1.009-9.012l5.263-5.84C87.23,49.2,87.59,48.841,87.446,48.625Z" transform="translate(-38.985 -21.3)"/>
      <path id="Path_2647" data-name="Path 2647" class="cls-2" d="M50.52,53.34a4.809,4.809,0,0,0-1.8-.577,2.951,2.951,0,0,0-1.8.5.616.616,0,0,1-.144-.793.7.7,0,0,1,.36-.433l-.216-3.317A7.852,7.852,0,0,1,48.141,48a.461.461,0,0,0,.36-.5,8.205,8.205,0,0,1,1.37,1.37,2.683,2.683,0,0,1,.5,1.442,16.317,16.317,0,0,1-.072,1.8c.216.144.433.36.433.577A6.807,6.807,0,0,1,50.52,53.34Z" transform="translate(-41.137 -28.61)"/>
      <path id="Path_2648" data-name="Path 2648" class="cls-2" d="M93.626,67.545A7.6,7.6,0,0,0,92.4,64.733l7.931-3.533Z" transform="translate(-53.889 -32.433)"/>
      <path id="Path_2649" data-name="Path 2649" class="cls-2" d="M64,51.8l6.705,6.056a5.015,5.015,0,0,0-1.875,2.163Z" transform="translate(-45.965 -29.81)"/>
      <path id="Path_2650" data-name="Path 2650" class="cls-2" d="M68.4,68.026a2.422,2.422,0,0,0-.36,1.009,4.711,4.711,0,0,0,0,1.009L65.944,68.6a10.927,10.927,0,0,0-.144-1.658V66.8Z" transform="translate(-46.467 -33.995)"/>
      <path id="Path_2651" data-name="Path 2651" class="cls-2" d="M52.379,61.6c-.144-.216-.721-12.617-.721-13.05l.649-.5V47.9a1.615,1.615,0,0,1-1.226-.5l-.144-3.821a3.4,3.4,0,0,1-1.586-.5,1.037,1.037,0,0,1-.216-1.37,5.006,5.006,0,0,0,2.163.5c.144,0,.577.433.793.5a4.846,4.846,0,0,1,.865.433c.144.072.288.5.36.649s6.2,16.078,6.273,16.222.433,2.812.5,3.028a13.075,13.075,0,0,0,1.154,2.523A5.035,5.035,0,0,0,58,67.079a10.217,10.217,0,0,0-2.235,4.4C55.552,70.972,52.524,61.815,52.379,61.6Z" transform="translate(-41.77 -26.992)"/>
      <path id="Path_2652" data-name="Path 2652" class="cls-2" d="M62.77,86.549a16.311,16.311,0,0,1-1.73,6.056,40.65,40.65,0,0,1-2.74,3.677,17.741,17.741,0,0,0,1.009-6.489c0-1.514-.5-4.758-.072-6.921A7.714,7.714,0,0,1,61.9,77.825a4.936,4.936,0,0,1,4.758-1.009l1.875,3.533A4.391,4.391,0,0,0,65.294,81C63.635,82.3,63.058,84.025,62.77,86.549Z" transform="translate(-44.375 -36.729)"/>
      <path id="Path_2653" data-name="Path 2653" class="cls-2" d="M64.8,93.257a31.3,31.3,0,0,0,1.226-4.975c.216-1.226.433-3.1,1.947-4.326a3.326,3.326,0,0,1,2.451-.577l2.163,4.326a1.217,1.217,0,0,0,1.226.577C71.721,89,66.675,91.383,64.8,93.257Z" transform="translate(-46.188 -38.607)"/>
      <path id="Path_2654" data-name="Path 2654" class="cls-2" d="M89.815,77.286a1.3,1.3,0,0,0,0,1.442c.216.433,1.37,2.451,1.37,2.451a18.847,18.847,0,0,0,.937,2.019h1.947c-.721-1.658-2.451-4.9-2.451-4.9l-.144-2.6A6.829,6.829,0,0,0,89.815,77.286Z" transform="translate(-53.107 -36.479)"/>
      <path id="Path_2655" data-name="Path 2655" class="cls-2" d="M77.3,54.6a7.043,7.043,0,0,1,3.317.36L78.742,44Z" transform="translate(-49.676 -27.634)"/>
      <path id="Path_2656" data-name="Path 2656" class="cls-2" d="M53.11,43.791c-.072-.144-.144-.577-.36-.649a9.626,9.626,0,0,1-.865-.433c-.216-.072-.577-.5-.793-.5a5.006,5.006,0,0,1-2.163-.5c-.36.721-.144,1.081.216,1.37a2.943,2.943,0,0,0,1.586.5l.144,3.821c.144.288.721.433,1.226.5v.144l-.649.5c0,.433.577,12.761.721,13.05.144.216,3.1,9.373,3.172,9.95a10.626,10.626,0,0,1,2.235-4.4,5.035,5.035,0,0,1,3.244-1.514c-.144-.216-1.081-2.307-1.154-2.523a20.413,20.413,0,0,0-.5-3.028C59.31,59.869,53.182,43.935,53.11,43.791Z" transform="translate(-41.708 -26.992)"/>
      <path id="Path_2657" data-name="Path 2657" class="cls-2" d="M48.347,39.954A4.091,4.091,0,0,1,51.3,41.035a1.592,1.592,0,0,0-.577-1.514,3.792,3.792,0,0,0-2.451-.721,3.5,3.5,0,0,0-2.163.649,1.419,1.419,0,0,0-.433,1.514C45.823,40.53,46.9,39.954,48.347,39.954Z" transform="translate(-40.838 -26.183)"/>
      <path id="Path_2658" data-name="Path 2658" class="cls-2" d="M45.095,26.768a2.59,2.59,0,0,0,.433,1.73c.144.216.577.649.865.649.433,0,.865-.865,1.875-.793.649,0,1.081.937,1.658,1.009.433,0,.649-.433,1.081-.433.36-.072.5.144.721.36.144-.36.36-.577.937-1.009.721-.5,3.028-1.009,4.037-1.875a1.888,1.888,0,0,0,.433-1.8,3.747,3.747,0,0,1-2.451,1.154,7.211,7.211,0,0,1-2.163-.433,1.454,1.454,0,0,0,.144-1.226,5.753,5.753,0,0,1-2.307.36c-.577,0-1.658-.216-2.523-.216A2.859,2.859,0,0,0,45.095,26.768Z" transform="translate(-40.686 -22.081)"/>
      <path id="Path_2659" data-name="Path 2659" class="cls-2" d="M47.251,34.9c4.037.072,5.84,1.947,5.912,3.461a2.88,2.88,0,0,0,.144-1.37c0-.433-.649-1.514-.649-1.947A4.869,4.869,0,0,1,52.8,34.03c-.288.072-1.154.433-1.514.072-.433-.36-.144-1.154-.649-1.37s-1.37.433-1.875.36-1.009-.793-1.514-.793c-.577,0-.865.721-1.514.865-.5.144-1.154-.216-1.514-.144-.36,0-.577.288-.721.649s-.288.433-.649.577c-.288.072-.793-.216-1.009-.144a1.566,1.566,0,0,1,.072,1.3,6.241,6.241,0,0,0-.721,1.73,2.469,2.469,0,0,0,.288,1.3C41.267,36.193,43.718,34.823,47.251,34.9Z" transform="translate(-39.598 -24.369)"/>
      <path id="Path_2660" data-name="Path 2660" class="cls-2" d="M45.431,45.412a2.422,2.422,0,0,0-1.154,1.009A3.063,3.063,0,0,0,45,47.647a2.051,2.051,0,0,1,.649-1.009,3.819,3.819,0,0,1,.721-.433.4.4,0,0,0,.288-.433.867.867,0,0,0-.144-.577c.216,0,.577,0,.721-.144a1.006,1.006,0,0,0,.216-.649c0-.216-.072-.288-.36-.288a6.905,6.905,0,0,0-1.226,0s.5-.288.649-.36a.4.4,0,0,0,.216-.36,3.882,3.882,0,0,0-.072-.793,5.476,5.476,0,0,0-2.451,1.009l.288.721h-.5a2.055,2.055,0,0,0,.144,1.154A8.749,8.749,0,0,1,45.431,45.412Z" transform="translate(-40.374 -27.243)"/>
      <path id="Path_2661" data-name="Path 2661" class="cls-2" d="M85.775,66.256c-.072-.5-1.3-1.947-3.461-3.6A11.428,11.428,0,0,0,76.258,60.2c-3.389,0-4.758,2.307-4.975,3.533a3.443,3.443,0,0,0,.072,1.947,2.361,2.361,0,0,0-.865,1.37,1.33,1.33,0,0,0,.36,1.226,2.144,2.144,0,0,1,.577-1.442c.288-.433.793-.577,1.3-.865l.072.937a2.37,2.37,0,0,0-1.009,1.081V69.5l1.154-.721.216.433-.433,2.668.649-.144,1.154.5-1.154.937v.36a.676.676,0,0,1,.577-.216,5.254,5.254,0,0,1,1.442.5l-.072.216H73.3a.527.527,0,0,0,.288.577,6.672,6.672,0,0,1,.721-.216,4.708,4.708,0,0,1,.793.144l-.36.5a.675.675,0,0,1-.5.072c-.216-.072-.36.216-.36.433a5.386,5.386,0,0,0,.144.793A.923.923,0,0,0,75.177,77a20.358,20.358,0,0,0,2.379-.721l-1.73,2.451.793,2.6a38.628,38.628,0,0,1,8.363-2.307,15.514,15.514,0,0,1-1.009-1.947l-1.875-4.4.288-.649a1.854,1.854,0,0,0,1.514-.5,3.787,3.787,0,0,0,1.081-1.37.546.546,0,0,0-.721.072c-.216.144-.433.433-.721.288-.36-.144-.144-.5-.144-.865.072-.36-.36-.36-.721-.072-.288.288-.937.144-1.37-.288a30.489,30.489,0,0,0-3.172-2.523,5.9,5.9,0,0,0-3.461-.577c-.577.072-1.009.36-1.226.288l-.721-1.154.144-.072c.288.144.5.36.865.216a8.374,8.374,0,0,1,2.451-.36,12.124,12.124,0,0,1,4.182.865c.072,1.009,2.019,2.235,2.956,2.379a2.7,2.7,0,0,0,1.658-.36l-1.947-1.73,1.009-1.3s1.658,1.586,1.875,1.875A1.117,1.117,0,0,1,85.775,66.256ZM74.023,68.275a6.109,6.109,0,0,1,1.658-.649A4.641,4.641,0,0,1,79.07,68.78l-.144.288-1.3.288a1.651,1.651,0,0,0-1.226-.288,2.237,2.237,0,0,0-.865.216l.288.433-.577.144A2.406,2.406,0,0,0,74.167,69v-.721Zm-1.947-3.028a3.02,3.02,0,0,1,1.009-2.74l.649,1.514A9.884,9.884,0,0,0,72.076,65.247Zm5.984-1.3c-.577-.433-2.668-.36-3.461-.144l-.577-1.73a3.842,3.842,0,0,1,2.163-.577,6,6,0,0,1,2.307.5Zm3.965,1.8a23.241,23.241,0,0,0-2.956-1.514l.721-1.875a21.859,21.859,0,0,1,3.172,2.019Z" transform="translate(-47.769 -32.154)"/>
      <path id="Path_2662" data-name="Path 2662" class="cls-2" d="M86.2,58.405a14.078,14.078,0,0,1,2.74,1.947L92.977,51.7Z" transform="translate(-52.159 -29.782)"/>
    </g>
    <g id="Group_1714" data-name="Group 1714" transform="translate(91.123 40.334)">
      <g id="Group_1713" data-name="Group 1713">
        <g id="Group_1712" data-name="Group 1712">
          <path id="Path_2663" data-name="Path 2663" class="cls-3" d="M118.624,62.754c0,1.3.577,1.73,2.523,1.73,2.019,0,2.884-.577,4.182-3.317h.433l-.433,4.182H113v-.433c1.875-.5,2.019-.865,2.019-2.6V51.94c0-1.442-.36-1.875-2.019-2.235v-.5h7.642v.5c-1.586.433-2.019.721-2.019,2.163Z" transform="translate(-111.774 -48.119)"/>
          <path id="Path_2664" data-name="Path 2664" class="cls-3" d="M136.047,62.7a1.625,1.625,0,0,0,1.658,1.8V65h-6.561v-.5c1.442-.288,1.73-.649,1.73-2.019V56.929c0-1.3-.36-1.658-1.875-1.947v-.5l4.542-.36h.5V62.7Zm-1.514-15a1.8,1.8,0,1,1,0,3.6,1.831,1.831,0,0,1-1.8-1.8A1.742,1.742,0,0,1,134.533,47.7Z" transform="translate(-116.797 -47.7)"/>
          <path id="Path_2665" data-name="Path 2665" class="cls-3" d="M145.658,56.784c1.081-.937,1.586-1.226,2.451-1.226,1.875,0,3.1,1.8,3.1,4.326,0,3.389-1.514,4.758-3.893,4.758-1.226,0-1.658-.577-1.658-1.73Zm0-9.084h-.5l-4.254.288v.5c.937.144,1.586.649,1.586,1.514V65a27.133,27.133,0,0,0,5.119.433c5.119,0,6.994-2.668,6.994-5.84a5.138,5.138,0,0,0-4.975-5.407,5.43,5.43,0,0,0-4.037,1.875V47.7Z" transform="translate(-119.559 -47.7)"/>
          <path id="Path_2666" data-name="Path 2666" class="cls-3" d="M164.961,60.71c.072-2.019.937-3.317,2.235-3.317s2.235,1.37,2.307,3.317Zm7.859.577A5.2,5.2,0,0,0,167.34,56.6a5.652,5.652,0,0,0-5.84,5.7,5.5,5.5,0,0,0,5.7,5.552,5.846,5.846,0,0,0,5.552-3.6h-.5a4.354,4.354,0,0,1-3.749,2.235c-1.947,0-3.893-1.8-3.677-5.191h8Z" transform="translate(-125.307 -50.183)"/>
          <path id="Path_2667" data-name="Path 2667" class="cls-3" d="M187.361,60.637a3.93,3.93,0,0,0-2.379-1.37c-.937,0-1.514.36-2.307,1.514v4.254c0,1.226.216,1.658,1.8,1.947v.5h-6.633v-.5c1.37-.36,1.73-.721,1.73-1.947V59.556a1.752,1.752,0,0,0-1.875-2.019v-.5l4.542-.433h.5v3.317h.072c1.009-2.235,2.163-3.317,3.461-3.317a2.427,2.427,0,0,1,1.875.865Z" transform="translate(-129.827 -50.183)"/>
          <path id="Path_2668" data-name="Path 2668" class="cls-3" d="M209.055,55.637v.5c1.3.288,1.658,1.081.721,3.317l-1.442,3.317L206.1,58.233c-.649-1.3-.649-1.947.577-2.091v-.5h-9.3V51.6h-.5a18.982,18.982,0,0,1-4.47,4.326v.5h1.875v6.705c0,2.379,1.586,3.317,3.533,3.317a3.467,3.467,0,0,0,3.317-1.875l-.361-.288a1.974,1.974,0,0,1-1.514.865c-1.442,0-1.875-1.009-1.875-2.668V56.5h2.812c1.514,0,1.947.577,2.6,1.947l3.821,8.075c-1.3,3.461-2.379,4.831-4.326,4.831a4.065,4.065,0,0,1-1.442-.216l-.649,3.172a3.81,3.81,0,0,0,.865.072c2.163,0,3.317-.937,4.47-3.461l5.263-11.968c.865-1.947,1.154-2.307,2.523-2.668v-.5h-4.254Z" transform="translate(-133.928 -48.788)"/>
          <path id="Path_2669" data-name="Path 2669" class="cls-3" d="M132.929,92.65a2.643,2.643,0,0,0,2.451,2.523v.5h-8v-.5c1.8-.433,2.091-1.442,1.8-3.533l-1.3-9.229h-.072l-5.263,13.266h-.577l-5.191-13.266h-.072l-1.442,9.517c-.288,1.875.072,3.172,1.875,3.317v.5H111.3v-.5c1.73-.072,2.451-1.081,2.884-3.533l1.586-10.526a3.473,3.473,0,0,0-2.379-1.081v-.5h5.84l4.254,10.671L127.738,79.6h5.479v.288c-1.658.288-2.019,1.154-1.8,2.6Z" transform="translate(-111.3 -56.601)"/>
          <path id="Path_2670" data-name="Path 2670" class="cls-3" d="M145.858,89.44c0-1.154-.36-1.586-1.658-1.8v-.5l4.254-.433h.5v7.715a1.709,1.709,0,0,0,1.947,1.8c1.081,0,1.658-.433,2.6-1.875V89.151c0-.865-.577-1.37-1.658-1.514v-.5L156.1,86.7h.5v8.291c0,1.37.288,1.73,1.658,2.091v.5l-4.758.433V95.5h-.072a4.647,4.647,0,0,1-4.182,2.523c-2.163,0-3.461-1.154-3.461-3.172V89.44Z" transform="translate(-120.48 -58.582)"/>
          <path id="Path_2671" data-name="Path 2671" class="cls-3" d="M166.375,86.631H164.5v-.5a18.982,18.982,0,0,0,4.47-4.326h.5v4.037h3.461v.793h-3.461v5.984c0,1.658.433,2.668,1.875,2.668a1.786,1.786,0,0,0,1.514-.865l.36.288a3.537,3.537,0,0,1-3.317,1.875c-1.947,0-3.533-.937-3.533-3.317Z" transform="translate(-126.144 -57.215)"/>
          <path id="Path_2672" data-name="Path 2672" class="cls-3" d="M178.358,89.44c0-1.154-.36-1.586-1.658-1.8v-.5l4.254-.433h.5v7.715a1.709,1.709,0,0,0,1.947,1.8c1.081,0,1.658-.433,2.6-1.875V89.151c0-.865-.577-1.37-1.658-1.514v-.5L188.6,86.7h.5v8.291c0,1.37.288,1.73,1.658,2.091v.5L186,98.019V95.5h-.072a4.647,4.647,0,0,1-4.182,2.523c-2.163,0-3.461-1.154-3.461-3.172V89.44Z" transform="translate(-129.548 -58.582)"/>
          <path id="Path_2673" data-name="Path 2673" class="cls-3" d="M203.505,95.812a2.839,2.839,0,0,1-1.947,1.081c-.865,0-1.442-.721-1.442-1.875,0-1.442.793-2.019,3.389-3.172Zm3.172-5.119c0-2.884-2.379-3.893-4.614-3.893a4.486,4.486,0,0,0-4.686,3.533h.433a3.347,3.347,0,0,1,3.1-1.73c1.875,0,2.6.865,2.6,2.74-2.523.937-6.705,1.154-6.705,3.965a2.971,2.971,0,0,0,3.1,2.74,4.544,4.544,0,0,0,3.317-1.226l.216-.216a2.36,2.36,0,0,0,2.523,1.442c1.514,0,2.451-.721,2.523-2.019h-.433c-.144.649-.36.937-.865.937s-.649-.433-.649-1.37v-4.9Z" transform="translate(-135.156 -58.61)"/>
          <path id="Path_2674" data-name="Path 2674" class="cls-3" d="M215.347,80.684c0-1.442-.5-2.019-1.947-2.091v-.5l4.614-.288h.5V92.58c0,1.37.288,1.73,1.875,2.091v.5h-6.921v-.5c1.514-.216,1.947-.721,1.947-2.091v-11.9Z" transform="translate(-139.788 -56.098)"/>
        </g>
        <path id="Path_2675" data-name="Path 2675" class="cls-3" d="M223.6,98.988h.793v2.091h.36V98.988h.793V98.7H223.6v.288Z" transform="translate(-142.634 -61.93)"/>
        <path id="Path_2676" data-name="Path 2676" class="cls-3" d="M229.019,101.079V99.06h0l-.649,2.019h-.288l-.649-2.019h0v2.019H227V98.7h.433l.721,2.019h0L228.8,98.7h.433v2.379Z" transform="translate(-143.582 -61.93)"/>
      </g>
    </g>
  </g>
</svg>
