<svg xmlns="http://www.w3.org/2000/svg" viewBox="2937 741 170.494 50.9">
  <defs>
    <style>
      .cls-1, .cls-3 {
        fill: #fff;
      }

      .cls-2 {
        fill: #89d313;
      }

      .cls-3 {
        stroke: #fff;
        stroke-miterlimit: 10;
        stroke-width: 0.272px;
      }
    </style>
  </defs>
  <g id="droneinsurance_logo_on_dark_bg_with_tm_" data-name="droneinsurance logo(on dark bg)(with tm)" transform="translate(2882.5 497.3)">
    <path id="Path_2584" data-name="Path 2584" class="cls-1" d="M54.5,278.31V244.7H67.041a18.741,18.741,0,0,1,7.288,1.318,14.725,14.725,0,0,1,8.412,8.936,19.451,19.451,0,0,1,1.066,6.513,19.235,19.235,0,0,1-1.182,6.939,14.7,14.7,0,0,1-3.392,5.292,15.364,15.364,0,0,1-5.292,3.411,18.656,18.656,0,0,1-6.881,1.2Zm21.38-16.844a12.785,12.785,0,0,0-.6-4.051,8.8,8.8,0,0,0-1.725-3.14,7.333,7.333,0,0,0-2.791-2.035,9.535,9.535,0,0,0-3.741-.717H62.253v19.965h4.788a9.014,9.014,0,0,0,3.78-.756,7.5,7.5,0,0,0,2.772-2.113A9.445,9.445,0,0,0,75.3,265.44,12.948,12.948,0,0,0,75.88,261.466Z" transform="translate(0 -0.806)"/>
    <path id="Path_2585" data-name="Path 2585" class="cls-1" d="M229.3,278.31V244.7h15.138a9.814,9.814,0,0,1,4.381.989,11.558,11.558,0,0,1,3.47,2.6,12.06,12.06,0,0,1,2.287,3.644,11.036,11.036,0,0,1,.833,4.109,11.832,11.832,0,0,1-1.473,5.718,10.324,10.324,0,0,1-4.012,4.012l7.385,12.483h-8.761l-6.435-10.835h-5.059v10.835H229.3Zm7.753-17.6h7.094a2.9,2.9,0,0,0,2.365-1.3,5.364,5.364,0,0,0,.989-3.334,4.684,4.684,0,0,0-1.144-3.314,3.323,3.323,0,0,0-2.462-1.221h-6.862v9.168Z" transform="translate(-140.918 -0.806)"/>
    <path id="Path_2586" data-name="Path 2586" class="cls-1" d="M415.2,254.555a15.914,15.914,0,0,0-1.589-3.14l-5.156,8.625c0,.194.019.407.019.6a12.811,12.811,0,0,1-.543,3.722,10.48,10.48,0,0,1-1.628,3.256,8.493,8.493,0,0,1-2.752,2.345,8.006,8.006,0,0,1-3.877.892,8.223,8.223,0,0,1-3.78-.853,8.346,8.346,0,0,1-2.772-2.268,9.866,9.866,0,0,1-1.667-3.237,12.189,12.189,0,0,1-.562-3.76,12.811,12.811,0,0,1,.543-3.722,9.51,9.51,0,0,1,1.667-3.237,8.456,8.456,0,0,1,2.733-2.287,7.921,7.921,0,0,1,3.411-.872l9.866-3.993a15.9,15.9,0,0,0-2.5-1.454,15.506,15.506,0,0,0-6.823-1.473,16.134,16.134,0,0,0-6.726,1.4,16.772,16.772,0,0,0-5.311,3.741,17.2,17.2,0,0,0-3.508,5.427,16.851,16.851,0,0,0-1.241,6.4A17.438,17.438,0,0,0,384.2,267a17.952,17.952,0,0,0,3.373,5.466,17.008,17.008,0,0,0,5.253,3.857,16.716,16.716,0,0,0,13.549.039,16.882,16.882,0,0,0,8.781-9.188,16.852,16.852,0,0,0,1.241-6.4A18,18,0,0,0,415.2,254.555Z" transform="translate(-264.827)"/>
    <path id="Path_2587" data-name="Path 2587" class="cls-1" d="M586.153,259.1V278.31H578.4V244.7h6.048l15.661,19.732V244.7h7.753v33.591h-6.241Z" transform="translate(-422.352 -0.806)"/>
    <path id="Path_2588" data-name="Path 2588" class="cls-1" d="M787.309,271.487v6.823H763.7V244.7h23.182v6.823H771.453v6.532h13.239v6.3H771.434v7.152h15.875Z" transform="translate(-571.735 -0.806)"/>
    <g id="Group_1699" data-name="Group 1699" transform="translate(54.539 283.474)">
      <path id="Path_2589" data-name="Path 2589" class="cls-2" d="M54.7,460.332V449.4h1.085v10.932Z" transform="translate(-54.7 -449.303)"/>
      <path id="Path_2590" data-name="Path 2590" class="cls-2" d="M91.285,451.316v8.916H90.2V449.3h.833l7.23,9.091v-9.071h1.085v10.913h-.93Z" transform="translate(-83.319 -449.222)"/>
      <path id="Path_2591" data-name="Path 2591" class="cls-2" d="M170.149,451.052a3.364,3.364,0,0,0-1.221-.853,4.513,4.513,0,0,0-1.744-.329,3.286,3.286,0,0,0-2.113.543,1.81,1.81,0,0,0-.659,1.492,1.689,1.689,0,0,0,.174.814,1.455,1.455,0,0,0,.543.543,3.988,3.988,0,0,0,.95.407,12.73,12.73,0,0,0,1.357.33,13.117,13.117,0,0,1,1.57.407,4.621,4.621,0,0,1,1.2.581,2.378,2.378,0,0,1,.756.833,2.589,2.589,0,0,1,.252,1.221,2.733,2.733,0,0,1-.291,1.3,2.672,2.672,0,0,1-.814.93,3.449,3.449,0,0,1-1.241.543,6.767,6.767,0,0,1-1.589.174A6.453,6.453,0,0,1,162.9,458.4l.543-.872a3.475,3.475,0,0,0,.7.581,4.527,4.527,0,0,0,.911.485,6.207,6.207,0,0,0,1.066.33,6.02,6.02,0,0,0,1.2.116,3.766,3.766,0,0,0,2.035-.465,1.587,1.587,0,0,0,.737-1.415,1.685,1.685,0,0,0-.213-.853,1.847,1.847,0,0,0-.62-.6,4.659,4.659,0,0,0-1.027-.446c-.407-.116-.892-.252-1.434-.368q-.872-.2-1.512-.407a3.79,3.79,0,0,1-1.085-.543,2.163,2.163,0,0,1-.678-.775,2.473,2.473,0,0,1-.233-1.124,2.952,2.952,0,0,1,.291-1.337,2.859,2.859,0,0,1,.814-.989,3.992,3.992,0,0,1,1.221-.6,5.592,5.592,0,0,1,1.57-.213,5.412,5.412,0,0,1,1.938.33,5.085,5.085,0,0,1,1.551.93Z" transform="translate(-141.928 -448.9)"/>
      <path id="Path_2592" data-name="Path 2592" class="cls-2" d="M235.194,459.521a3.469,3.469,0,0,0,1.706-.388,3.074,3.074,0,0,0,1.085-1.027,3.993,3.993,0,0,0,.562-1.454A7.784,7.784,0,0,0,238.7,455v-5.5h1.085V455a8.152,8.152,0,0,1-.252,2.093,4.789,4.789,0,0,1-.795,1.744,3.878,3.878,0,0,1-1.415,1.2,4.749,4.749,0,0,1-2.132.446,4.61,4.61,0,0,1-2.171-.465,3.822,3.822,0,0,1-1.415-1.241,4.906,4.906,0,0,1-.775-1.744A8.856,8.856,0,0,1,230.6,455v-5.5h1.066V455a8.163,8.163,0,0,0,.174,1.686,4.4,4.4,0,0,0,.581,1.454,3.013,3.013,0,0,0,1.085,1.008A3.618,3.618,0,0,0,235.194,459.521Z" transform="translate(-196.505 -449.384)"/>
      <path id="Path_2593" data-name="Path 2593" class="cls-2" d="M307.2,460.332V449.4h4.613a2.9,2.9,0,0,1,1.3.291,3.681,3.681,0,0,1,1.027.775,4.038,4.038,0,0,1,.678,1.1,3.512,3.512,0,0,1,.233,1.241,3.715,3.715,0,0,1-.174,1.144,3.912,3.912,0,0,1-.485.989,3.029,3.029,0,0,1-.756.737,2.9,2.9,0,0,1-1.008.407l2.675,4.206h-1.221L311.5,456.3h-3.237v4.032Zm1.085-5h3.566a1.932,1.932,0,0,0,.872-.213,2.337,2.337,0,0,0,.678-.562,2.423,2.423,0,0,0,.426-.795,2.926,2.926,0,0,0,.155-.93,2.658,2.658,0,0,0-.174-.95,2.368,2.368,0,0,0-.485-.795,2.011,2.011,0,0,0-.717-.543,1.892,1.892,0,0,0-.853-.194h-3.47Z" transform="translate(-258.258 -449.303)"/>
      <path id="Path_2594" data-name="Path 2594" class="cls-2" d="M372.474,449.4h.911l4.536,10.932h-1.144l-1.415-3.411h-4.9l-1.4,3.411H367.9Zm2.636,6.668-2.19-5.408-2.229,5.408Z" transform="translate(-307.192 -449.303)"/>
      <path id="Path_2595" data-name="Path 2595" class="cls-2" d="M444.585,451.316v8.916H443.5V449.3h.833l7.23,9.091v-9.071h1.085v10.913h-.93Z" transform="translate(-368.139 -449.222)"/>
      <path id="Path_2596" data-name="Path 2596" class="cls-2" d="M517,454.547a5.715,5.715,0,0,1,.349-1.958,5.21,5.21,0,0,1,1.008-1.744,5.553,5.553,0,0,1,1.628-1.26,4.756,4.756,0,0,1,2.21-.485,4.541,4.541,0,0,1,2.5.659,3.978,3.978,0,0,1,1.531,1.725l-.853.523a3.193,3.193,0,0,0-.64-.911,3.4,3.4,0,0,0-.814-.6,3.1,3.1,0,0,0-.892-.33,4.85,4.85,0,0,0-.911-.1,3.623,3.623,0,0,0-1.744.407,3.917,3.917,0,0,0-1.26,1.047,4.374,4.374,0,0,0-.775,1.454,5.334,5.334,0,0,0-.271,1.648,4.869,4.869,0,0,0,.31,1.744,5.242,5.242,0,0,0,.853,1.473,4.117,4.117,0,0,0,1.3,1.008,3.582,3.582,0,0,0,1.628.368,4.1,4.1,0,0,0,.95-.116,3.217,3.217,0,0,0,.93-.368,3.818,3.818,0,0,0,.833-.64,3.487,3.487,0,0,0,.64-.911l.892.465a3.472,3.472,0,0,1-.737,1.085,4.774,4.774,0,0,1-1.066.795,4.59,4.59,0,0,1-1.241.485,4.954,4.954,0,0,1-1.279.174,4.286,4.286,0,0,1-2.055-.485,5.459,5.459,0,0,1-1.609-1.279,5.946,5.946,0,0,1-1.047-1.8A6.006,6.006,0,0,1,517,454.547Z" transform="translate(-427.392 -449.061)"/>
      <path id="Path_2597" data-name="Path 2597" class="cls-2" d="M598.346,459.282v.95H591V449.3h7.191v.95h-6.125v3.935h5.33v.911h-5.33v4.167h6.28Z" transform="translate(-487.048 -449.222)"/>
      <path id="Path_2598" data-name="Path 2598" class="cls-2" d="M653.3,499.512V498h.911v1.512Z" transform="translate(-537.273 -488.483)"/>
      <path id="Path_2599" data-name="Path 2599" class="cls-2" d="M680.8,454.547a5.715,5.715,0,0,1,.349-1.958,5.21,5.21,0,0,1,1.008-1.744,5.553,5.553,0,0,1,1.628-1.26,4.755,4.755,0,0,1,2.21-.485,4.541,4.541,0,0,1,2.5.659,3.978,3.978,0,0,1,1.531,1.725l-.853.523a3.191,3.191,0,0,0-.64-.911,3.4,3.4,0,0,0-.814-.6,3.1,3.1,0,0,0-.892-.33,4.85,4.85,0,0,0-.911-.1,3.623,3.623,0,0,0-1.744.407,3.918,3.918,0,0,0-1.26,1.047,4.375,4.375,0,0,0-.775,1.454,5.334,5.334,0,0,0-.271,1.648,4.87,4.87,0,0,0,.31,1.744,5.242,5.242,0,0,0,.853,1.473,4.117,4.117,0,0,0,1.3,1.008,3.582,3.582,0,0,0,1.628.368,4.1,4.1,0,0,0,.95-.116,3.217,3.217,0,0,0,.93-.368,3.818,3.818,0,0,0,.833-.64,3.489,3.489,0,0,0,.64-.911l.892.465a3.472,3.472,0,0,1-.737,1.085,4.774,4.774,0,0,1-1.066.795,4.59,4.59,0,0,1-1.241.485,4.954,4.954,0,0,1-1.279.174,4.286,4.286,0,0,1-2.055-.485,5.459,5.459,0,0,1-1.609-1.279,5.946,5.946,0,0,1-1.047-1.8A6.006,6.006,0,0,1,680.8,454.547Z" transform="translate(-559.442 -449.061)"/>
      <path id="Path_2600" data-name="Path 2600" class="cls-2" d="M755.636,460.168a4.734,4.734,0,0,1-2.093-.465,5.422,5.422,0,0,1-1.628-1.241,5.814,5.814,0,0,1,.058-7.7,5.612,5.612,0,0,1,1.628-1.221,4.815,4.815,0,0,1,4.129.039,5.165,5.165,0,0,1,1.609,1.26,6.088,6.088,0,0,1,1.047,1.783,5.616,5.616,0,0,1,.368,2.016,5.73,5.73,0,0,1-1.473,3.857,5.364,5.364,0,0,1-1.628,1.221A4.506,4.506,0,0,1,755.636,460.168Zm-4.051-5.544a5.007,5.007,0,0,0,.291,1.706,4.514,4.514,0,0,0,.833,1.454,4.042,4.042,0,0,0,1.279,1.008,3.551,3.551,0,0,0,1.648.368,3.5,3.5,0,0,0,1.686-.407,4.214,4.214,0,0,0,1.279-1.047,4.853,4.853,0,0,0,.814-1.454,4.948,4.948,0,0,0,.291-1.667,5.006,5.006,0,0,0-.291-1.706,4.9,4.9,0,0,0-.833-1.454,4.042,4.042,0,0,0-1.279-1.008,3.471,3.471,0,0,0-1.628-.368,3.712,3.712,0,0,0-2.966,1.434,4.853,4.853,0,0,0-.814,1.454A4.712,4.712,0,0,0,751.585,454.624Z" transform="translate(-615.632 -449.061)"/>
      <path id="Path_2601" data-name="Path 2601" class="cls-2" d="M839.311,460.332v-8.974l-3.993,6.939h-.64l-3.993-6.939v8.974H829.6V449.4h1.1l4.264,7.482,4.284-7.482h1.085v10.932Z" transform="translate(-679.401 -449.303)"/>
    </g>
    <g id="Group_1700" data-name="Group 1700" transform="translate(138.506 246.414)">
      <path id="Path_2602" data-name="Path 2602" class="cls-2" d="M498.638,257.7l-10.738,5a10.209,10.209,0,0,1,3.043,2.423,11.6,11.6,0,0,1,1.493,2.985Z" transform="translate(-487.9 -257.7)"/>
    </g>
    <g id="Group_1701" data-name="Group 1701" transform="translate(217.318 244.921)">
      <path id="Path_2603" data-name="Path 2603" class="cls-3" d="M897.524,250.407h-1.279v3.276h-.465v-3.276H894.5V250h3.024Z" transform="translate(-894.5 -250)"/>
      <path id="Path_2604" data-name="Path 2604" class="cls-3" d="M917.8,253.683v-2.849l-1.221,2.19h-.271l-1.241-2.19v2.849H914.6V250h.485l1.337,2.4,1.337-2.4h.485v3.683Z" transform="translate(-910.704 -250)"/>
    </g>
  </g>
</svg>
