<svg xmlns="http://www.w3.org/2000/svg" viewBox="2937 6562 226.634 67.674">
  <defs>
    <style>
      .cls-1, .cls-3 {
        fill: #227adb;
      }

      .cls-2 {
        fill: #89d313;
      }

      .cls-3 {
        stroke: #227adb;
        stroke-miterlimit: 10;
        stroke-width: 0.272px;
      }
    </style>
  </defs>
  <g id="droneinsurance_logo_with_tm_" data-name="droneinsurance logo(with tm)" transform="translate(2882.5 6318.3)">
    <g id="Group_1704" data-name="Group 1704" transform="translate(54.5 243.7)">
      <path id="Path_2605" data-name="Path 2605" class="cls-1" d="M54.5,289.386V244.7H71.174a24.918,24.918,0,0,1,9.69,1.752,19.578,19.578,0,0,1,11.184,11.88,25.86,25.86,0,0,1,1.417,8.659,25.574,25.574,0,0,1-1.572,9.226,19.547,19.547,0,0,1-4.51,7.035,20.427,20.427,0,0,1-7.035,4.536,24.8,24.8,0,0,1-9.149,1.6Zm28.425-22.395a17,17,0,0,0-.8-5.386,11.705,11.705,0,0,0-2.294-4.175,9.75,9.75,0,0,0-3.711-2.706,12.677,12.677,0,0,0-4.974-.954h-6.34v26.544h6.365A11.984,11.984,0,0,0,76.2,279.31a9.977,9.977,0,0,0,3.685-2.809,12.558,12.558,0,0,0,2.268-4.226A17.215,17.215,0,0,0,82.925,266.992Z" transform="translate(-54.5 -244.442)"/>
      <path id="Path_2606" data-name="Path 2606" class="cls-1" d="M229.3,289.386V244.7h20.127a13.048,13.048,0,0,1,5.824,1.314,15.367,15.367,0,0,1,4.613,3.453,16.035,16.035,0,0,1,3.041,4.845,14.673,14.673,0,0,1,1.108,5.463,15.731,15.731,0,0,1-1.959,7.6,13.727,13.727,0,0,1-5.335,5.335l9.819,16.6H254.89L246.334,274.9h-6.726v14.406H229.3Zm10.308-23.4h9.432a3.852,3.852,0,0,0,3.144-1.727,7.132,7.132,0,0,0,1.314-4.433,6.227,6.227,0,0,0-1.52-4.407,4.418,4.418,0,0,0-3.273-1.624h-9.123v12.189Z" transform="translate(-184.253 -244.442)"/>
      <path id="Path_2607" data-name="Path 2607" class="cls-1" d="M425.8,258.132a21.156,21.156,0,0,0-2.113-4.175l-6.855,11.468c0,.258.026.541.026.8a17.034,17.034,0,0,1-.722,4.948,13.934,13.934,0,0,1-2.165,4.329,11.291,11.291,0,0,1-3.659,3.118,10.644,10.644,0,0,1-5.154,1.185,10.932,10.932,0,0,1-5.025-1.134,11.1,11.1,0,0,1-3.685-3.015,13.118,13.118,0,0,1-2.216-4.3,16.207,16.207,0,0,1-.747-5,17.034,17.034,0,0,1,.722-4.948,12.644,12.644,0,0,1,2.216-4.3,11.242,11.242,0,0,1,3.634-3.041,10.532,10.532,0,0,1,4.536-1.16l13.117-5.309a21.136,21.136,0,0,0-3.324-1.933,20.616,20.616,0,0,0-9.071-1.959,21.451,21.451,0,0,0-8.942,1.855,22.3,22.3,0,0,0-7.061,4.974,22.871,22.871,0,0,0-4.664,7.216,22.4,22.4,0,0,0-1.649,8.5,23.185,23.185,0,0,0,1.6,8.427,23.869,23.869,0,0,0,4.484,7.267,22.613,22.613,0,0,0,6.984,5.128,22.224,22.224,0,0,0,18.014.052,22.445,22.445,0,0,0,11.674-12.215,22.4,22.4,0,0,0,1.649-8.5A23.927,23.927,0,0,0,425.8,258.132Z" transform="translate(-298.344 -243.7)"/>
      <path id="Path_2608" data-name="Path 2608" class="cls-1" d="M588.708,263.848v25.539H578.4V244.7h8.04l20.823,26.234V244.7h10.308v44.66h-8.3Z" transform="translate(-443.388 -244.442)"/>
      <path id="Path_2609" data-name="Path 2609" class="cls-1" d="M795.089,280.315v9.071H763.7V244.7h30.822v9.071H774.008v8.685h17.6v8.375H773.982v9.509h21.106Z" transform="translate(-580.935 -244.442)"/>
      <g id="Group_1702" data-name="Group 1702" transform="translate(0.052 52.881)">
        <path id="Path_2610" data-name="Path 2610" class="cls-2" d="M54.7,463.935V449.4h1.443v14.535Z" transform="translate(-54.7 -449.271)"/>
        <path id="Path_2611" data-name="Path 2611" class="cls-2" d="M91.643,451.98v11.854H90.2V449.3h1.108l9.612,12.086V449.326h1.443v14.509h-1.237Z" transform="translate(-81.051 -449.197)"/>
        <path id="Path_2612" data-name="Path 2612" class="cls-2" d="M172.538,451.761a4.473,4.473,0,0,0-1.624-1.134,6,6,0,0,0-2.319-.438,4.369,4.369,0,0,0-2.809.722,2.407,2.407,0,0,0-.876,1.984,2.245,2.245,0,0,0,.232,1.082,1.934,1.934,0,0,0,.722.722,5.3,5.3,0,0,0,1.263.541,16.925,16.925,0,0,0,1.8.438,17.454,17.454,0,0,1,2.087.541,6.145,6.145,0,0,1,1.6.773,3.161,3.161,0,0,1,1.005,1.108,3.442,3.442,0,0,1,.335,1.624,3.633,3.633,0,0,1-.387,1.727,3.552,3.552,0,0,1-1.082,1.237,4.585,4.585,0,0,1-1.649.722,9,9,0,0,1-2.113.232,8.579,8.579,0,0,1-5.824-2.113l.722-1.16a4.619,4.619,0,0,0,.928.773,6.018,6.018,0,0,0,1.211.644,8.252,8.252,0,0,0,1.417.438,8,8,0,0,0,1.6.155,5.007,5.007,0,0,0,2.706-.618,2.11,2.11,0,0,0,.979-1.881,2.241,2.241,0,0,0-.283-1.134,2.455,2.455,0,0,0-.825-.8,6.194,6.194,0,0,0-1.366-.593c-.541-.155-1.185-.335-1.907-.49q-1.16-.271-2.01-.541a5.039,5.039,0,0,1-1.443-.722,2.876,2.876,0,0,1-.9-1.031,3.288,3.288,0,0,1-.309-1.495,3.925,3.925,0,0,1,.387-1.778,3.8,3.8,0,0,1,1.082-1.314,5.306,5.306,0,0,1,1.624-.8,7.433,7.433,0,0,1,2.087-.284,7.2,7.2,0,0,1,2.577.438,6.76,6.76,0,0,1,2.062,1.237Z" transform="translate(-135.016 -448.9)"/>
        <path id="Path_2613" data-name="Path 2613" class="cls-2" d="M236.708,462.823a4.612,4.612,0,0,0,2.268-.515,4.086,4.086,0,0,0,1.443-1.366,5.309,5.309,0,0,0,.747-1.933,10.349,10.349,0,0,0,.206-2.191V449.5h1.443v7.319a10.84,10.84,0,0,1-.335,2.783,6.366,6.366,0,0,1-1.057,2.319,5.156,5.156,0,0,1-1.881,1.6,6.314,6.314,0,0,1-2.835.593,6.129,6.129,0,0,1-2.886-.618,5.081,5.081,0,0,1-1.881-1.649,6.523,6.523,0,0,1-1.031-2.319,11.774,11.774,0,0,1-.309-2.706V449.5h1.417v7.319a10.854,10.854,0,0,0,.232,2.242,5.848,5.848,0,0,0,.773,1.933,4.006,4.006,0,0,0,1.443,1.34A4.811,4.811,0,0,0,236.708,462.823Z" transform="translate(-185.27 -449.345)"/>
        <path id="Path_2614" data-name="Path 2614" class="cls-2" d="M307.2,463.935V449.4h6.133a3.859,3.859,0,0,1,1.727.387,4.893,4.893,0,0,1,1.366,1.031,5.368,5.368,0,0,1,.9,1.469,4.669,4.669,0,0,1,.309,1.649,4.938,4.938,0,0,1-.232,1.52,5.2,5.2,0,0,1-.644,1.314,4.027,4.027,0,0,1-1.005.979,3.859,3.859,0,0,1-1.34.541l3.556,5.592h-1.624l-3.427-5.309h-4.3v5.36Zm1.443-6.649h4.742a2.569,2.569,0,0,0,1.16-.283,3.106,3.106,0,0,0,.9-.747,3.221,3.221,0,0,0,.567-1.057,3.891,3.891,0,0,0,.206-1.237,3.535,3.535,0,0,0-.232-1.263,3.149,3.149,0,0,0-.644-1.057,2.673,2.673,0,0,0-.953-.722,2.516,2.516,0,0,0-1.134-.258h-4.613Z" transform="translate(-242.129 -449.271)"/>
        <path id="Path_2615" data-name="Path 2615" class="cls-2" d="M373.982,449.4h1.211l6.03,14.535H379.7l-1.881-4.536H371.3l-1.855,4.536H367.9Zm3.5,8.865-2.912-7.19-2.964,7.19Z" transform="translate(-287.187 -449.271)"/>
        <path id="Path_2616" data-name="Path 2616" class="cls-2" d="M444.943,451.98v11.854H443.5V449.3h1.108l9.612,12.086V449.326h1.443v14.509h-1.237Z" transform="translate(-343.304 -449.197)"/>
        <path id="Path_2617" data-name="Path 2617" class="cls-2" d="M517,456.342a7.6,7.6,0,0,1,.464-2.6,6.926,6.926,0,0,1,1.34-2.319,7.382,7.382,0,0,1,2.165-1.675,6.323,6.323,0,0,1,2.938-.644,6.038,6.038,0,0,1,3.324.876,5.289,5.289,0,0,1,2.036,2.294l-1.134.7a4.242,4.242,0,0,0-.85-1.211,4.516,4.516,0,0,0-1.082-.8,4.125,4.125,0,0,0-1.185-.438,6.445,6.445,0,0,0-1.211-.129,4.816,4.816,0,0,0-2.319.541,5.209,5.209,0,0,0-1.675,1.392,5.817,5.817,0,0,0-1.031,1.933,7.093,7.093,0,0,0-.361,2.19,6.475,6.475,0,0,0,.412,2.319,6.968,6.968,0,0,0,1.134,1.959,5.474,5.474,0,0,0,1.727,1.34,4.763,4.763,0,0,0,2.165.49,5.457,5.457,0,0,0,1.263-.155,4.277,4.277,0,0,0,1.237-.49,5.072,5.072,0,0,0,1.108-.85,4.635,4.635,0,0,0,.85-1.211l1.185.618a4.617,4.617,0,0,1-.979,1.443,6.348,6.348,0,0,1-1.417,1.057,6.1,6.1,0,0,1-1.649.644,6.584,6.584,0,0,1-1.7.232,5.7,5.7,0,0,1-2.732-.644,7.258,7.258,0,0,1-2.139-1.7,7.9,7.9,0,0,1-1.392-2.4A7.984,7.984,0,0,1,517,456.342Z" transform="translate(-397.863 -449.048)"/>
        <path id="Path_2618" data-name="Path 2618" class="cls-2" d="M600.767,462.572v1.263H591V449.3h9.561v1.263h-8.144v5.231H599.5v1.211h-7.087v5.541h8.35Z" transform="translate(-452.792 -449.197)"/>
        <path id="Path_2619" data-name="Path 2619" class="cls-2" d="M653.3,500.01V498h1.211v2.01Z" transform="translate(-499.037 -485.347)"/>
        <path id="Path_2620" data-name="Path 2620" class="cls-2" d="M680.8,456.342a7.6,7.6,0,0,1,.464-2.6,6.926,6.926,0,0,1,1.34-2.319,7.382,7.382,0,0,1,2.165-1.675,6.323,6.323,0,0,1,2.938-.644,6.038,6.038,0,0,1,3.324.876,5.289,5.289,0,0,1,2.036,2.294l-1.134.7a4.242,4.242,0,0,0-.85-1.211,4.516,4.516,0,0,0-1.082-.8,4.125,4.125,0,0,0-1.185-.438,6.445,6.445,0,0,0-1.211-.129,4.817,4.817,0,0,0-2.319.541,5.21,5.21,0,0,0-1.675,1.392,5.817,5.817,0,0,0-1.031,1.933,7.093,7.093,0,0,0-.361,2.19,6.475,6.475,0,0,0,.412,2.319,6.97,6.97,0,0,0,1.134,1.959,5.475,5.475,0,0,0,1.727,1.34,4.763,4.763,0,0,0,2.165.49,5.456,5.456,0,0,0,1.263-.155,4.277,4.277,0,0,0,1.237-.49,5.072,5.072,0,0,0,1.108-.85,4.636,4.636,0,0,0,.85-1.211l1.185.618a4.616,4.616,0,0,1-.979,1.443,6.35,6.35,0,0,1-1.417,1.057,6.1,6.1,0,0,1-1.649.644,6.584,6.584,0,0,1-1.7.232,5.7,5.7,0,0,1-2.732-.644,7.258,7.258,0,0,1-2.139-1.7,7.9,7.9,0,0,1-1.392-2.4A7.984,7.984,0,0,1,680.8,456.342Z" transform="translate(-519.45 -449.048)"/>
        <path id="Path_2621" data-name="Path 2621" class="cls-2" d="M757.329,463.815a6.294,6.294,0,0,1-2.783-.619,7.208,7.208,0,0,1-2.165-1.649,7.73,7.73,0,0,1,.077-10.231,7.461,7.461,0,0,1,2.165-1.624,6.4,6.4,0,0,1,5.489.052,6.868,6.868,0,0,1,2.139,1.675,8.093,8.093,0,0,1,1.392,2.371,7.466,7.466,0,0,1,.49,2.68,7.619,7.619,0,0,1-1.958,5.128,7.132,7.132,0,0,1-2.165,1.624A5.991,5.991,0,0,1,757.329,463.815Zm-5.386-7.37a6.656,6.656,0,0,0,.387,2.268,6,6,0,0,0,1.108,1.933,5.374,5.374,0,0,0,1.7,1.34,4.721,4.721,0,0,0,2.19.49,4.653,4.653,0,0,0,2.242-.541,5.6,5.6,0,0,0,1.7-1.392,6.452,6.452,0,0,0,1.082-1.933,6.58,6.58,0,0,0,.387-2.216,6.656,6.656,0,0,0-.387-2.268,6.518,6.518,0,0,0-1.108-1.933,5.374,5.374,0,0,0-1.7-1.34,4.614,4.614,0,0,0-2.165-.49,4.935,4.935,0,0,0-3.943,1.907,6.451,6.451,0,0,0-1.082,1.933A6.263,6.263,0,0,0,751.943,456.445Z" transform="translate(-571.188 -449.048)"/>
        <path id="Path_2622" data-name="Path 2622" class="cls-2" d="M842.511,463.935V452l-5.309,9.226h-.85L831.043,452v11.932H829.6V449.4h1.469l5.669,9.947,5.7-9.947h1.443v14.535Z" transform="translate(-629.904 -449.271)"/>
      </g>
      <g id="Group_1703" data-name="Group 1703" transform="translate(111.69 3.608)">
        <path id="Path_2623" data-name="Path 2623" class="cls-2" d="M502.177,257.7,487.9,264.349a13.573,13.573,0,0,1,4.046,3.221,15.423,15.423,0,0,1,1.984,3.969Z" transform="translate(-487.9 -257.7)"/>
      </g>
    </g>
    <g id="Group_1705" data-name="Group 1705" transform="translate(270.973 245.324)">
      <path id="Path_2624" data-name="Path 2624" class="cls-3" d="M898.52,250.541h-1.7V254.9H896.2v-4.355h-1.7V250h4.02Z" transform="translate(-894.5 -250)"/>
      <path id="Path_2625" data-name="Path 2625" class="cls-3" d="M918.852,254.9v-3.788l-1.624,2.912h-.361l-1.649-2.912V254.9H914.6V250h.644l1.778,3.2L918.8,250h.644v4.9Z" transform="translate(-909.42 -250)"/>
    </g>
  </g>
</svg>
