<svg xmlns="http://www.w3.org/2000/svg" viewBox="8625.48 7487.362 709.817 439.146">
  <defs>
    <style>
      .cls-1 {
        opacity: 0.36;
      }

      .cls-2 {
        fill: #ccc;
        stroke: #fff;
      }
    </style>
  </defs>
  <g id="Group_2407" data-name="Group 2407" class="cls-1" transform="translate(8280.861 -196.125)">
    <path id="Path_2442" data-name="Path 2442" class="cls-2" d="M253.24,105.057l-100.1-2.292L139.764,102,139,110.406l40.882,2.292-1.146,33.24h1.528l.764.764,2.292,2.674.764.382,2.674-.382,1.146-.764,1.528.764.382.764v.764l.764,1.146.382.382,3.821.764,1.146.764h.764l.382-.382,1.146-.382.764,1.528,1.528.382,1.146-.764,3.439.382v.382l1.528,1.528.764.382v1.528l2.674.764.382-1.91,1.146-.382,3.439,2.674h.382l1.528-1.146h1.146v1.91l.382,1.146.764-.382v-1.146l1.146-1.528,1.146-.764h.764v1.146l1.528.764h.764l.764-.764h.764l.382.382v.382l1.528.382,1.91,1.528,2.292-1.528.764-.382,3.057-.382,2.675-.764.764-.382h1.528l3.057.382,1.91-.764.382-.382,6.877,3.821,1.146.382.382.764h.764l.382-30.184-2.292-18.722Z" transform="translate(472.826 7826.697)"/>
    <path id="Path_2443" data-name="Path 2443" class="cls-2" d="M201.8,112.8l9.934,36.3,1.146.764.764,2.675.382,1.146,1.146.764,1.146.764-.382,1.528,1.146,1.528-.382.764-1.146,1.528v2.292l-.764,2.292V168.2l1.91,3.821-.382,4.2,1.528,2.674.382,1.146.382.764,1.146,1.146V183.1l.764,1.528,38.971-2.675.764,1.91.382.764,2.292.382.382-1.91-1.146-3.821v-1.146l.382-.764,1.146-.764,2.674,1.146,2.675.382,1.146-.382-.382-3.056-.382-1.528v-3.057L271.719,164l.382-2.292.764-2.675,1.146-2.292,1.146-1.146.764-.382.382-.764-1.146-.382v-.382h-2.675l-.382-.382-.764-.764-.764-3.439-1.528-2.675-2.292-.764-1.146-3.439-1.146-1.528-.764-1.91-1.146-.764-2.674-.764-1.146-1.91-1.91-1.146v-.764l-.764-1.91-.764-.382-1.91-.764-4.585-4.2-1.91-.764-.764-1.146-1.91-1.91-1.146-2.675-1.528-1.146-.382-1.146-2.674-.382-3.821-1.91-1.146-1.146,1.146-2.674,1.146-1.146.382-.764.382-.764h-.382l-20.25,2.675Z" transform="translate(649.968 7845.313)"/>
    <path id="Path_2444" data-name="Path 2444" class="cls-2" d="M310.114,129.274l-34,6.5L240.194,141.5l-.764-.382-1.528.382-3.821.382.382-.764-3.821.764v.382L208.1,144.939l.764-.764,4.967-2.292.382-1.146,2.675-1.91V137.68l.382-.764,1.528-.764v-1.528l1.528-1.146,6.877-6.113.382-1.528.382.382-.382,1.528,2.292,1.91,3.057,1.146h1.146l1.528-1.528v-.764l1.146-.382,1.146.764.764.382,1.146-.382,3.439-1.528.382-2.292h.382l.764.764,2.675-2.292.764.382,2.293-3.057-.382-1.146v-1.91l2.292-4.2,3.057-11.08h.382l1.528,1.146.382.764.764.764,1.91-.382,1.146-1.91,1.146-4.2.764-1.528,1.528.764,1.146-2.292,1.146-.382.764-1.528.764-2.292.764-.382v-.382l-.382-.382.382-3.439.382-.382.382-.382,6.113,3.821.764.382.382-.382.764-3.439h1.146l1.146.382,1.528.382-.764,1.528,1.528,1.528h2.675l1.146,1.146,1.528.764,1.146,1.528-.382.764-1.528,3.057-1.146,2.674.382,1.91h1.91l1.91-1.146,1.146,1.528.764.382h.764l1.146.764h.382l.764-.382h.382l3.057,1.528,2.292.764,1.146,1.528v.764l-.764.764.382,2.292-.382.382-.764.382v.382l2.292,1.146.764,1.91v.764l-.382.382-1.91-.382-.382.764.764.764h.382v.764l-1.146.382h-.382v.382l.764.382h1.528l1.528.382.382.764-1.528,1.528h-.764l-1.91-.764v.764l1.528.764,1.146,1.146,1.528-.382,1.528-1.146h3.439v.382l1.528,4.585L310.5,128.51h-.382Zm-.764-24.453h.382v2.292l-1.146,1.146-.382,1.146-.382,2.674.382,2.292v2.674l.764,1.91.382-2.675.764-2.675,1.528-3.821.764-1.528.382-1.528v-3.057l1.91-1.528.382-.764-4.585,1.528Z" transform="translate(667.739 7781.846)"/>
    <path id="Path_2445" data-name="Path 2445" class="cls-2" d="M283.681,122.87l11.08,3.821.764,1.91-.764.764-.382.764-.382.764v1.91l-.764.382-.382.382-1.146,1.91v.764l.382.382.764-.382v-.764l1.91-1.528H298.2l.764-.382,2.292-.764,1.91-.764,1.146-.764,1.528-1.528,6.113-4.2,1.91-.764,1.146-1.146,1.146-.382.764-.764,1.146-1.146.764-.382.764-1.528v-.764l-1.528,1.528-1.146.382-1.91.382-.764,1.146-.382.764-1.528.764-.382-.382.382-1.146,1.146-1.146,1.146-1.91-.382-.382-1.146,1.146-.382.764-1.146,1.146-3.439,1.91-4.2,2.292-3.821,1.528-1.146.764-1.528,1.91-.764-.764-.382-1.146.764-1.528,1.146-1.146-1.528-1.146,2.292-2.292v-.764L298.2,120.2l-1.91-12.608-.382-.382V95.361l-1.146-2.674-1.146-2.675V87.338l-.764-4.2-1.146-1.91h-.764v.382l-.382.382-.382-.764.382-2.292-2.292-4.967v-1.91l.764-1.528-.764-3.821-1.91-4.967v-.382l-.764-.764.382-.764-.764-1.528h0l-16.047,3.821-.382-.382H268.4l-1.528.764-3.821,4.2-3.821,5.349-.764.764.382.764-.382,2.292-.764.764-4.2,3.821-.382.764.382,1.91h1.528l.764.382.382,1.146-.764.764.382,1.146.764,1.528-.382,2.675-2.292.764-3.821,4.2-2.675.764-6.5,1.91-2.292-.764-1.91-.382-3.439.382-3.439.764-3.821,1.528-1.528,1.146L223.7,103v1.528l2.675,2.674.382.382v1.528l-.382,1.146-.764.382-1.146,2.674-4.967,5.349L217.2,120.2l1.146,4.2,54.636-11.08,1.146.764.382,1.146.382.382.382-.382.382.764H276.8l1.528,3.439.382,1.146.764.382v.382l3.057.382Z" transform="translate(693.408 7703.431)"/>
    <path id="Path_2446" data-name="Path 2446" class="cls-2" d="M234.025,129.839,196.2,133.659v.382l.382.382-.382.764v1.146l1.146,1.528.764.764h.382l1.146.764.382.382-.764,1.91v.382l.764.382.382.382v.382l-.764.764v.764l.382.382,1.91-.764.764-.382.764-1.91.382-.764.764.382h.764l.382-.382h.764v.764l-1.528,1.146.382.382,1.146-.764h1.528l6.877-2.292h1.146v.382l-1.528,1.146.764.382h3.057l2.675,1.146,3.057,1.528.764.382v-1.146l.382-.382.764.764,1.91.382.382.382v.382l-.764.382.382.382,3.821,3.057.382.764-.382,1.146v.764l-.764-.764-.382-.382v1.146l.764.382,5.349-1.528.382-.764h1.528l4.585-3.439h2.675v-.764l-.382-.382.764-1.91,4.585-.764,6.877,3.439V147.8l1.91,1.146,1.528,2.292,4.2,3.057.382,1.146,1.146,1.146h3.439l2.292,3.821.764.382L273,161.933l1.146,3.821-.382,4.2-1.146,4.2L273,177.98l.382,1.146,2.675,1.91.764-1.528-.764-.764-.764-2.292v-.382l1.528-.382,1.146,2.292h.764v-1.146l.382-.382.764.382v1.146l-.764,1.146-.764,1.146-.764,3.057-.764.382v1.146l.764,1.146,1.528,1.146L281.4,192.5l3.821,2.292.382-.382v-1.146h1.146l.764,2.292V196.7l1.146,2.674,1.528.764,1.528.764,2.675,7.259.764.382,3.821.764,1.146.764,4.2,4.967,1.91,1.146h.382l1.146.764.382.764-.764.382-.764-.382h-.382l-.764.382v.764l.764.382,1.91.382,1.146-.382,1.528-.382,5.731-2.292,1.528-2.292v-.382l-.764-3.439v-1.528l1.146-2.675h1.528l-1.528-5.731.382-3.057-.382-5.349-1.146-4.585L316.553,186l-4.2-5.349-2.674-6.113-3.057-4.2V168.81l-1.146-2.293v-1.146l1.146-1.528v-.382l-4.2-5.731-2.674-2.292-1.528-1.146-.382-.764-2.674-3.439-3.439-6.5-1.146-3.821-2.292-5.349v-.764l-.764-.764-.764-.382-.382-3.821-.382-1.146-1.146.382-2.675-.382-2.674-1.146-1.146.764-.382.764v1.146l1.146,3.821-.382,1.91-2.292-.382-.382-.764-.764-1.91-38.971,2.674-.764-1.528v-1.146l-1.146-1.146Z" transform="translate(634.172 7895.523)"/>
    <path id="Path_2447" data-name="Path 2447" class="cls-2" d="M128.055,99.6,114.3,196.265h0l12.608,1.528.764-7.641,23.688,3.057-.382-.382L150.6,191.3l.382-.764v-.382l-.382-.382.382-.382,51.2,4.585,6.113-76.8h.382l.764-8.406Z" transform="translate(403.154 7819.927)"/>
    <path id="Path_2448" data-name="Path 2448" class="cls-2" d="M267.2,83.1l-11.08,2.292L220.2,92.27l1.91,8.788.764-1.146.764-.382,2.674-3.057,1.146-.382,1.146-1.528.764-.382.764-1.91.764.764,1.528.382,1.91-.382.382-1.146,4.2-1.528.764.382h1.146l1.146-.382.382,1.528.764.382,1.528,3.057H245.8l1.146.382,1.146.382-.764,1.146,1.528,1.528h2.292l1.528,1.528,1.528.382,1.146,1.528-.382.764-1.528,3.057-1.146,2.675.382,1.91h1.91l1.91-1.146,1.146,1.91.764.382v-.764l1.91-.382,1.91.382,3.057.764,1.146.764.382-.382.382-.382-.764-.764-1.146-1.91-1.146-.382h-.382l.382-.764h.382l.382-.764-1.528-.382-.764-1.528-1.146-3.057-.382-1.146v-1.91l.382-3.057v-.764l-.764-.382V93.8l.382-.382.382-.764.382-1.146,2.292-1.528.382-.764.764-2.292,1.146.382.764.764-1.146,1.91-.764,1.146-.764,1.146-.764,1.528.764,1.528,1.146.382.382,3.057v.382l-1.91,1.146.382.764,1.528.382.382.764-.382,1.528.382.764v.764l.764,1.91,1.91,1.528h.764l.764-.764h1.146l.382.382-.382,1.146,1.146,1.91v.382l.764,1.146h1.528l.382.382.764-1.528,4.585-1.528v-.764l.382-.764,1.146-5.731-.382-.382-8.406,1.528Z" transform="translate(701.87 7773.384)"/>
    <path id="Path_2449" data-name="Path 2449" class="cls-2" d="M298.407,156.162h-.764l-.382-.764-1.146-.382-6.877-3.821-.382.382-1.91.764-3.057-.382H282.36l-.764.382-2.674.764-3.056.382-.764.382-2.292,1.528-1.91-1.528-1.528-.382v-.382l-.382-.382h-.764l-.764.764H266.7l-1.528-.764v-1.146H264.4l-1.146.764-1.146,1.528v1.146l-.764.382-.382-1.146v-1.91h-1.146l-1.528,1.146h-.382l-3.439-2.675-1.146.382-.382,1.91-2.674-.764v-1.528l-.764-.382-1.528-1.528v-.382l-3.439-.382-1.146.764-1.528-.382-.764-1.528-1.146.382-.382.382H238.8l-1.146-.764-3.821-.764-.382-.382-.764-1.146v-.764l-.382-.764-1.528-.764-1.146.764-2.674.382-.764-.382L223.9,140.5l-.764-.764h-1.528l1.146-33.24L181.875,104.2h-.382L175.38,181l-51.2-4.585-.382.382.382.382v.382l-.382.764.382,1.528.382.382,2.674,1.528.764,1.91.764,2.292,2.675,1.91,8.024,9.17,6.877,5.349.382,1.146.382,1.146v1.528l.382.764,1.528,2.292V215l.382,1.528,2.292,3.821,9.934,7.259,6.877,4.2,1.91.382,1.528-.764,1.146-1.528,1.528-1.146,2.674-6.5,1.528-2.293,1.146-.382,2.292.382h.382l.382-1.146.764-.764,1.528.382,1.146,1.146,3.821.382,1.146.382,2.293.764,1.146-.382,3.057,1.528.764,1.91.764.382v.382l.764.382,1.146.764,1.91,2.292,2.675,2.675,1.528,2.292.382.764,4.2,10.7.764,2.292,4.967,5.349.382,1.528,3.057,3.439,1.146.382,1.146,1.91.382.764v3.821l.764,1.146.764,4.2.764,1.146,3.439,6.877.382,1.528,2.292.382,2.675,1.528,3.439,1.146,4.585,3.057,6.5.764h1.528l3.439,2.292,1.528.764,1.91-1.91,1.146.382.764-.382v-1.146l-1.528-.382.382-.764-1.528-1.528-2.292-8.024-1.146-3.057,1.91-4.967-.382-1.528-.382-.382h-.382l-.382-.382v-.382l.382-.382,1.91-1.146,1.528-4.585-1.146-.382-.382-2.292,1.146-1.146,1.528,1.146,2.292-1.91.764-2.292-1.146-.764.382-1.146.382.382h.764l.764-.764.764.382h1.528V247.1l.382-.382h.764l.764.382,3.439-1.146h.382l.382-.764-.382-.382-1.91-1.146v-.764l3.439-.764.382-.764,1.146-.382v.382l-.382.382.764.764h.382l.764-.382,5.349-1.528,8.406-5.731.382-1.91,4.2-3.821v-.382l-1.528-2.292.382-1.91,2.675-1.146h.382l-.382,2.293.382.382,3.057-.382.382.764,6.113-2.674,3.821-.382h0v-.382l-.764-.764-.382-1.146.382-.382.382-1.146,1.146-1.146L311.78,215l-1.146-1.91v-1.146l.382-.764-.382-1.146.382-1.91,1.146-.764.764-1.528.382-3.439v-1.528l-.382-2.674-1.146-1.91-.382-.764v-.764l-.382-.764-.764-1.528-1.146-.764v-.764l.382-1.91-1.146-2.292-1.91-1.91-.764-1.146-.382-16.811v-9.17l-2.292-.764-1.91,1.146-.382-.382Z" transform="translate(429.951 7832.902)"/>
    <path id="Path_2450" data-name="Path 2450" class="cls-2" d="M145.375,88.7l87.113,1.91,5.731,4.2-1.528,2.292-.382,1.91.764,1.146,1.528.764.764,3.057,1.146.764,1.528.382.382.382.382,37.061L142.7,140.28Z" transform="translate(483.263 7789.181)"/>
    <path id="Path_2451" data-name="Path 2451" class="cls-2" d="M137,108.7l3.057-34,68.773,3.439,1.91,2.675h2.292l1.91-.382,1.146,1.146,1.146,2.292,1.528.382,1.91-.382,1.91-1.528h2.293l1.146.382,5.731,3.821,2.674,1.528v1.91l1.91,1.146v1.146l-1.146,2.292,1.528,1.146.764,3.057,1.528,1.146-.382,1.528.382,1.528,1.528,1.146.764,1.528-.764,1.146-.382,2.675,1.91,1.146.382,1.146-.764,1.528.382,1.146.764,1.528-.382,1.146.382,1.91.764.764.764,1.528,1.528,1.528.382,2.292,1.91,2.292.764.382-.382,1.91v.382l-87.113-1.91L162.6,111Z" transform="translate(467.185 7749.69)"/>
    <path id="Path_2452" data-name="Path 2452" class="cls-2" d="M137.8,111.934l2.675-34L142,61.5l88.641,3.821.382,1.528-.764,1.528-2.292,2.292V72.2l4.585,4.2v31.33l-.764-.382-1.146.382.382.764.764,1.146-.764,1.528.764,1.146.764,2.292-1.146,1.146.382,1.146-1.528,3.057,1.528,3.439.382,1.528v.382l-2.674-1.528-5.731-3.821-1.146-.382h-2.292l-1.91,1.528-1.91.382-1.528-.382-1.146-2.292-1.146-1.146-1.91.382h-2.292l-1.91-2.675Z" transform="translate(469.441 7712.458)"/>
    <path id="Path_2453" data-name="Path 2453" class="cls-2" d="M138.9,99.862,143.1,47.9l22.924,1.528,16.429,1.528,38.207.764.382,1.528,1.146,3.821L221.81,58.6l-.382,2.675V66.24l1.146,5.349,1.528,1.528.764,4.967.382,8.406.382,1.91v3.057l.382,1.528,1.91,5.731-.382,2.292v2.675Z" transform="translate(472.544 7674.095)"/>
    <path id="Path_2454" data-name="Path 2454" class="cls-2" d="M236.662,130.395l-84.438-10.316-1.146,8.788h0l-1.146-1.146-.764-1.91-1.528-1.91-1.528,1.146v1.146h-3.439l-.382.382-1.528-.764h-3.439l-.382-.764h-1.146l-1.146,1.146H133.5l-2.675-1.146-.382.382-1.146,1.528-1.528-.764-.764-1.91v-.764l.382-2.292-.382-.764-1.146-1.91h-1.528l-1.146-1.91.764-1.528v-1.146l-1.528-1.91-.764-2.292v-3.439l.382-1.91-.764-.764-.382-.382-.382-1.146-.382-.382-.382.382-3.821,3.057h-.764l-2.292-2.292.382-1.146V99.065l1.91-1.528.382-1.146-.382-.382V93.334l1.146-.764-.382-1.146,2.675-5.349-.764-1.146-2.292-.382-.382-1.146h-1.91l-.764-2.292-.382-2.292L110.2,74.23l-3.057-2.675-1.528-1.91-.764-.764.764-.764.764-1.91-.764-2.675-1.91-4.585L106.757,42.9l12.608,1.91,34,5.731,34.769,6.113L242.393,62l-4.2,51.962Z" transform="translate(373.255 7659.992)"/>
    <path id="Path_2455" data-name="Path 2455" class="cls-2" d="M202.723,141.425l3.057-34,2.675-34L124.016,63.1l-1.146,8.788-6.113,42.41h-.382L113.7,130.727l25.217,3.821Z" transform="translate(401.462 7716.969)"/>
    <path id="Path_2456" data-name="Path 2456" class="cls-2" d="M117.9,149.809,127.07,81.8l63.806,6.877,25.6,2.292-1.146,17.193-2.675,51.58-13.373-.764Z" transform="translate(413.309 7769.719)"/>
    <path id="Path_2457" data-name="Path 2457" class="cls-2" d="M167.545,169.836l9.17-68.009L151.5,98.007l2.675-16.429L116.729,74.7,100.3,159.52h0Z" transform="translate(363.664 7749.69)"/>
    <path id="Path_2458" data-name="Path 2458" class="cls-2" d="M120.5,42.3l11.08,2.292L128.522,60.64l1.91,4.585L131.2,67.9l-.764,1.91-.764.764.764.764,1.528,1.91,3.057,2.674,1.91,4.585.382,2.292.764,2.292h1.91l.382,1.146,2.292.382.764,1.146-2.674,5.349.382,1.146-1.146.764V97.7l.382.382-.382,1.146-1.91,1.528v2.674l-.382,1.146,2.292,2.292h.764l3.821-3.057.382-.382.382.382.382,1.146.382.382.764.764-.382,1.91v3.439l.764,2.292,1.528,1.91V116.8l-.764,1.528,1.146,1.91h1.528l1.146,1.91.382.764-.382,2.292v.764l.764,1.91,1.528.764,1.146-1.528.382-.382,2.675,1.146h1.146l1.146-1.146h1.146l.382.764h3.439l1.528.764.382-.382h3.439v-1.146l1.528-1.146,1.528,1.91.764,1.91,1.146,1.146h0l-6.113,42.41H169.4l-37.443-6.877L94.9,158.45l6.5-30.184,1.91-2.292v-1.91l.382-.382V123.3l.764-1.146-.764-1.146-1.91-1.146-.764-.764.764-2.292,3.057-4.585,1.91-.764,1.146-1.528v-1.146l1.146-1.146,6.113-8.788-.764-2.675-1.146-.764-.764-.382L110.947,93.5V91.97l-.382-2.292.764-.764v-.764l-.764-1.528V85.092l.764-.382Z" transform="translate(348.432 7658.299)"/>
    <path id="Path_2459" data-name="Path 2459" class="cls-2" d="M172.407,203.88l13.755-96.664L118.917,96.9h0l-1.528,8.788-2.675,7.259h-1.528L112.04,111.8l.382-.764-1.146-1.146-2.675-.382-1.91.382-.764.764.764,3.057-.764,8.024.382,1.528-.764,3.439-.764,1.146v4.967l1.146,1.91v1.91l.382,1.146.382,1.91,1.146.382.764,1.146v2.292l-.764-.382-1.528,1.528-2.292.382-1.146,2.292-1.146,4.585-2.675,3.439H97.521v.764l.382,1.528-.382.764-.382,2.292.382.764,1.91,1.91.382.382-.764.764-.382,1.146-1.146,1.146h-.382l-2.292-.382-1.146,4.2,49.669,28.273Z" transform="translate(345.047 7812.311)"/>
    <path id="Path_2460" data-name="Path 2460" class="cls-2" d="M94.608,70.4,82,121.216l55.783,82.146V202.6l.764-1.146.764-3.439-.382-1.528.764-8.024-.764-3.057.764-.764,1.91-.382,2.675.382,1.146,1.146-.382.764,1.146,1.146h1.528l2.675-7.259,1.528-8.788,16.429-84.82-37.061-7.641Z" transform="translate(312.045 7737.562)"/>
    <path id="Path_2461" data-name="Path 2461" class="cls-2" d="M159,100.278v.764l-.764.764.382,2.292-24.071-5.731-1.528.764h-1.146l-1.146-.382h-1.91l-.764-.382h-1.146l-1.528.382-1.528-.382H122.32l-1.91.764-1.146.382-3.057-.764-.764-.382-1.91-.764-5.349.764-1.146-1.528-4.585-1.146-1.91-.382-3.057.382-3.821-.382L89.844,93.4l-.382-1.146V87.67l.382-.764-.382-2.674-2.674-1.91h-1.91v-.764l-1.146-.764-2.292-1.146v-.382l-2.292-1.146h-.764L78,77.736v-.764l.764-1.91.382-.764V72.769h.382l.382,1.146-.382.764v1.146l1.91-1.528-.382-.764v-.764L81.821,72l-.382-1.146H80.292V68.184l.382-.382.764.382.382-.382,1.91-.382L82.2,66.273v-.382l-.382-.382-1.146.764V63.6l.382-2.292V59.778l-.382-1.528.382-3.439.382-1.528L79.91,48.7l.382-3.439.382-1.528.382-2.292,8.406,5.731,4.585,2.292,3.439,1.146,1.91,1.146h1.91l.382.382.764,1.146.382,4.2-.382.764L101.306,59.4l-.764,1.91v3.057l-.382.764v.382l.764.764,1.528-.764,1.146-3.821.764-.764.764-1.528L107.42,57.1V55.957l-.764-3.439-1.91-4.585V47.17l.382-.382.764.382,1.146-2.292V42.585h-1.528V41.057L105.127,38l17.957,4.967,17.193,4.585,27.891,6.877L159,96.839l-.764.382V98.75Z" transform="translate(300.762 7646.169)"/>
    <path id="Path_2462" data-name="Path 2462" class="cls-2" d="M177.709,226.125l-.764-1.146L175.8,224.6l-.382-1.91-.382-1.146v-1.91l-1.146-1.91v-4.2L118.105,131.37l12.608-50.816L79.9,66.8l-.764.764-.764,2.292.764,2.292-.382,4.585-1.146,1.91L76.459,79.79l-.382,2.292v.764L71.493,88.2l-1.91,3.057v1.528l-.382.764.382,2.292.764,1.528.764.764.382.764v1.146l1.528,3.439L73.4,107.3l-.382.764-1.146,1.91L70.728,113.8l.382,1.146.382,1.91-1.146,1.528,1.91,5.349,1.146,2.292,2.675,2.674v6.5l-.764,1.528,1.91.764,1.91,3.057,1.91.764.382-.764v-1.146l1.528-1.528.382.382-.382,2.292.382,1.91,1.146,3.057-.382,1.528-.382.382-1.91-1.146-.382-.764v-2.292l-.382-1.146-.764.382-.382,2.675-.382.382v1.528l-.382.764v5.731l.764,1.91,2.292,1.91,1.91.764,1.146,1.146-.382,3.057-1.528,1.528h-.764l-.764,1.146-.382,4.2,3.057,4.2.382,1.528.764,1.528v2.292l4.2,7.259,1.91,1.146-.382,1.91h-.382l-.382.382v1.91l1.91.764.382,2.292-.382.764-.382,1.91-.382,3.057L90.6,201.29v1.146l1.528,1.528,2.675,1.91h1.91l6.113,2.674,2.292.382,2.292,1.91,1.146,3.439,2.675,2.292,1.91.764,3.439.382,1.146,1.528-.382.764.764,1.146-.764,1.528,1.146,1.146h2.292l3.057,3.057,1.528,2.292,1.528,1.528,2.674,6.113.382,5.731-.382.382.764,1.528h0l.382.382v.382l-.382.764.382,1.528v.764l33.24,3.057,2.292.382h.382l1.146-1.146.382-.764.764-1.146-.382-.382-1.91-1.91-.382-.764.382-2.292.382-.764-.382-1.528v-.764h1.528l2.675-3.439,1.146-4.585,1.146-2.292,2.292-.382,1.528-1.528.764.382v-2.292Z" transform="translate(275.939 7727.407)"/>
    <path id="Path_2463" data-name="Path 2463" class="cls-2" d="M169.411,104.683v.382l-.382.382v1.91l-1.91,2.292-6.5,30.184-36.679-8.788L73.128,117.291l-.764-.764-.764-3.439.764-1.91V109.65l1.146-2.675-.764-5.349.764-1.146,1.146-.382.764-1.146.764-1.528.764-.764V94.367l.764-.382,3.057-3.821L82.3,86.725l3.057-5.349,3.057-9.552L90.7,68l1.91-6.113,2.292-7.259,1.146-2.675.382-1.91v-.764l1.146-.382,1.146.382.764-.382,2.292,1.146,1.146.764v.764h1.91l2.674,1.91.382,2.675-.382.764v4.585l.382,1.146,3.821,1.91,3.821.382,3.057-.382,1.91.382,4.585,1.146,1.146,1.528,5.349-.764,1.91.764.764.382,3.057.764,1.146-.382,1.91-.764H141.9L143.43,68l1.528-.382H146.1l.764.382h1.91l1.146.382h1.146l1.528-.764,24.071,5.731v1.528l1.528,1.528.764.382,1.146.764.764,2.674-6.113,8.788-1.146,1.146V91.31l-1.146,1.528-1.91.764L167.5,98.187l-.764,2.292.764.764,1.91,1.146" transform="translate(282.709 7676.916)"/>
    <path id="Path_2464" data-name="Path 2464" class="cls-2" d="M187.2,142l19.868-1.528v-1.91l-.382-.764,2.292-.382.764.764,56.165-5.349,1.146-.764,1.146-.764,4.967-2.292.382-1.146,2.675-1.91V124.8l.382-.764,1.528-.764v-1.528l1.528-1.146,6.877-6.113.382-1.146h-1.146l-.764-.764h-.382l-.382-.764-1.528-.382h-.382l-.382-.382-1.91-2.674-2.674-3.439-.382-1.146v-2.674l-.382-1.91-.382-.764-1.528-.764-1.528-.382-1.146-1.91-.764-1.146-1.528,1.146-.382.764-1.146.382v.382l-2.292.382-2.293-1.146-.764.382L261.7,98.059l-3.057-2.292-2.674.382-1.91-.764-1.146-2.292L250.242,90.8,249.1,91.946H247.95l-1.146-.764h-1.146l-.382,1.146v.764l.764,3.057-.764,1.146-1.146.382-1.91,1.528-2.292-.764-1.146,1.146v2.292l-5.349,6.877-1.146,3.057-3.057.382-1.528-1.91h-1.146l-.764,1.146-.764,3.439-1.146.764-1.528-.764-.764-1.146-2.292.764-.764,2.675h-.764l-.382-.382-4.2-1.91-3.057,1.528-2.674-.382-.382,1.146v.764l-.764.382h-1.146l-.382.764-.382,1.528-.382.382v.382l1.146,1.91v.382l-4.2,1.146-1.146.382v1.91l.764,3.439-1.528.764-1.91-1.146-1.528-.764-2.292-.382-1.528.764-.764,3.057v.382h.382l.764.764.382,1.528-1.146,4.2-.764.764-.764-.382-1.528.764Z" transform="translate(608.786 7795.104)"/>
    <path id="Path_2465" data-name="Path 2465" class="cls-2" d="M241.7,86.792l9.552,28.656v2.292l2.674,1.91.382.382.382.764v.764l1.146,2.292.382-.764.382-1.528v-2.292l1.146-1.91.764-3.439,1.146-1.146.382-.764-.764-.382-.764-1.91,3.439-2.674.382.382.382,1.146.764.382.382-.382v-2.292l2.675-.382.764-1.146v-.764l.382-.764h1.528l.764-.382.382-.764.764-1.91-.382-1.528,1.528-1.91V95.58h.764l1.528.382.764-.382.764-1.146.764-1.528h.382L278.379,91h1.91l1.528,1.528,1.528-3.439,1.91-.764,2.292-2.292.764-1.146.382-.382h.764l1.146-.764.764-1.146-.382-1.146-1.146-.764v.382l-.764-.382.382-1.146.382-.382v-.764L288.7,76.094l-1.146-.764-.764.382-.382.382-1.146.382-1.146-.382-1.146-4.2.382-.764-.382-.764-.382-.382h-.764l-.382.382-1.91-.764h-1.146L278,69.217l-.764-2.674v-.764L271.12,47.057,266.153,44h-2.675l-.764.764-.382.764h-.382l-1.91,1.146-2.675,1.91-.764.382-1.146-1.146.382-1.91-.764-.764h-.764l-1.91.764-4.2,14.519-.382,1.91.764,1.146v1.528L248.2,66.16l-.764.764-.382,1.146,1.528,6.113-.764,1.91v1.528L245.521,80.3l-.382,1.146.764,1.91v.382h-1.146v1.528l-.382.764h-.764l-.764-.382Z" transform="translate(762.516 7663.093)"/>
    <path id="Path_2466" data-name="Path 2466" class="cls-2" d="M234.868,121.605l35.915-6.877,11.08-2.292h.382l.382-.382v-.764l1.146-1.528H285.3l1.146.382,3.439-2.292.382-1.91,1.91-2.292,2.292-1.146v-.382l-1.91-1.146-.764-.764-.764-.764-.382-.382-1.528-.382-.764-1.91-1.528-.382-.382-.382V92.95l.764-.382v-1.91l-1.146-.764v-.764l.382-.382,1.528-1.528.382-2.674V83.78l.764-1.528h.764l-1.146-1.146-3.057-.382v-.382l-.764-.382-.382-1.146-1.528-3.439h-1.146l-.382-.764-.382.382-.382-.382-.382-1.146-1.146-.764L224.552,83.78l-1.146-4.2-2.675,2.675-.764.382-.382-.764H219.2l-.764,1.91-2.292,1.91L215,86.455,219.2,109,221.5,124.28Z" transform="translate(687.202 7744.048)"/>
    <path id="Path_2467" data-name="Path 2467" class="cls-2" d="M194.3,133.212l25.981-3.439.382,1.146,16.429-2.292.382-.764,1.91-4.2.764-.764v-2.675l.764-2.292,1.91-1.91v-2.292l.382-.382V112.2l1.146-1.146.764,1.528h.382l.764-.382.382-.764.382-1.146L246.644,108v-3.057l-.764-1.91-.382-3.821-3.821-9.934-3.821-1.146-1.528.764L234.8,90.8l-4.585,6.5h-.382l-.382-.382-1.528-.382-.764-.764-.382-1.528.382-2.675.764-1.146,2.292-1.146.382-1.146V86.981l.382-1.146,1.146-.382.764-2.292v-4.2l-.382-2.292-.764-1.146-1.528-1.528-.382-.764.382-1.146,1.528-.382.382-.764-1.91-3.057-1.528-.764-4.2-1.528-3.439-.764L219.9,63.675l-2.292-.764-2.674-.764L213.4,61l-1.146,1.146-1.146.382-1.528,2.292v1.91l.382.764h.382l.382.764-.382.382-1.146.764-.764.382-1.146,1.146-.764,1.91v1.91l.382,1.528-1.146,1.91-1.528.764V77.811L205,75.9l-.764-1.91V72.844l-.764.382-.764,1.528v1.528l-.764.764h-.764l-1.528,1.528-.764,1.146-.382.764-1.146,1.91v2.675l-.382,3.057v1.528l-1.146,2.292-1.146,1.528.382,1.146,1.146,3.821-.764,2.292,1.146,1.91L198.885,108l1.91,4.2v3.439l.764.764v.382l-.764.764-.382,3.439-.382,2.675-1.146,2.292-1.91,4.967-1.91,1.528Z" transform="translate(628.813 7711.046)"/>
    <path id="Path_2468" data-name="Path 2468" class="cls-2" d="M181.3,71.793l2.292-.764,1.146-.764,2.675-1.528.382-1.146,1.146-.382,4.585-1.528,3.439-1.91,3.439-3.821,1.528-.382,3.057-3.439,2.292-.764,3.439-.764h.764v.764l-1.528,1.146h-.764l-.764,1.91L205.753,61.1l-1.146,1.146-.764.764L203.46,65.3l.382,1.91.764-1.146,1.91-1.528h1.528l.764-.382,4.967,2.292,3.439,3.821,3.057-.382,1.528.382,1.146.382h1.146l1.146.382v.382l.764-.382.382-1.146,3.439-2.292,10.7-2.675,2.674-1.528,1.528-.764.382.764-.764,1.528v1.146l1.528,2.292.764.382.382-.382h1.91l.764-.382,3.439-.382,1.146,1.146,1.528,2.674,1.146.764,2.675,1.146,2.675-.382h.764l.764.382v1.146l-1.146,1.146h-2.674l-.382-.764h-.382L257.715,76l-1.528-.382-.764-.382L252.366,76l-1.91-.382-.382.382.382,1.528-.382.764-1.146-.382L247.4,76.378l-4.585-.764L242.05,76l-1.146-.382-3.057,2.292h-.764l-1.146.382-.382.764-.764.382-1.528-.764-1.91.764v1.146l-.382,1.146-3.821,3.057h-.764L226,84.02l1.528-1.91V80.963h-1.91l-1.146,1.91-.764.764-.764-.764v-1.91l-.764.382-.382,2.292-1.146,2.292-.764,2.675-.764,1.528-1.91,2.675v1.528l-.382.764L215.3,93.954l-.764-1.91.764-.764.382-.764-.382-.382-2.292.382h-.382l.764-4.2-.382-1.528-1.91-1.146-1.91-.764v-.382l.382-.382-.764-.764-1.528-.382-3.057-.764h-.764l-.382.764-.764-.764h-1.528l-2.292-1.91h-1.528L185.885,76l-.764-.382-.764-1.91-.764-.764-1.528-.382Z" transform="translate(592.143 7692.992)"/>
    <path id="Path_2469" data-name="Path 2469" class="cls-2" d="M237.8,75.052l9.17-1.91,14.9-3.439v-.382l.382-.382.382.382.382-.382-.382-1.146,1.146-.382,1.146-1.91h.764l1.146.382.382,1.91,1.91,1.146.382,1.146-.382.382-.764.382-.764,1.528-.764,1.91.382,1.146h1.528l1.528.764,2.675,2.674,1.146,1.91,1.146,1.146,3.057.382,1.91-.764.764-2.292-.382-.382-1.146-1.146-1.528-.764V76.2h1.91l1.91,3.057,1.146,3.057V83.84l-1.528-1.146L280.21,83.84l-2.292.764-2.292,1.91h-.764V85.75l-.382-1.528h-.764l-1.146,1.91-1.528,1.91-.382.764-.764-1.146-.382-.764h-.382l-.382-.382-.764-.382v-.764l-2.292-.382-.764-1.91h-.764l-.382-1.91-4.967,1.146-11.462,3.057-.382.764h0l-.764-.764-8.023,1.91L237.8,86.9Z" transform="translate(751.515 7723.74)"/>
    <path id="Path_2470" data-name="Path 2470" class="cls-2" d="M243.3,70.746l2.674,9.552-.382,1.146v1.146l.764.382,2.293-1.91,1.528-1.146V78.77l-.382-.764V76.477l1.146-1.146.382.382V78.77l.382.764h.764V78.006h.382L254,77.241h1.146L254.38,76.1,254,75.331h-.382l-.382-.382-.764-.382V73.8l-2.292-.382-.764-1.91h-.764l-.382-1.91Z" transform="translate(767.029 7735.305)"/>
    <path id="Path_2471" data-name="Path 2471" class="cls-2" d="M237.9,74.867l8.023-1.91.764.764h0l.382-.764L258.532,69.9l2.674,9.552-.382,1.146v1.146l-1.528.382-3.821,1.528h-1.146l-.382.382V84.8h-.382l-2.292.382-3.057,1.528-.382-.764-1.91,2.292-4.585,3.821-1.528.764-1.528-1.146,2.292-2.292v-.764l-.764-1.146Z" transform="translate(751.797 7736.151)"/>
    <path id="Path_2472" data-name="Path 2472" class="cls-2" d="M231.614,82.2h-.382l-1.146.764.764,1.528-1.91,1.528,2.675,1.528-1.146,6.113-.382,1.528v2.292l.382,1.91-1.528,1.146-.764.382-2.292,3.057v.382l-1.91.764-.764-.382-1.146,1.146-.382.764-1.146,1.146-1.146,2.675.382,2.292-1.528,1.528-1.146-1.91h-1.146l-1.146,4.2.382,1.91-.382,1.528-1.146,1.146-1.146,1.91-1.91.382.382,1.91v2.675l.382,1.146,2.675,3.439,1.91,2.674.382.382h.382l1.528.382.382.764h.382l.764.764h1.146l.382.382-.382,1.146,2.292,1.91,2.674,1.146,1.528.382,1.528-1.528v-.764l1.146-.764,1.146,1.146.764.382.764-.382,3.439-1.528.764-1.91h.382l.764.764,2.675-2.674.764.764,2.292-3.057-.382-1.146v-1.91l2.292-4.585,3.057-11.08h.382l1.528,1.146.382.764.764.764,1.91-.382,1.146-1.91,1.146-4.2.764-1.528,1.528.382,1.146-2.293,1.146-.382.764-1.146.764-2.292.764-.764.382-.382-.764-.764.382-3.057.382-.764.382-.382,6.113,3.821,1.146.382v-.382l.764-3.057h0L270.2,94.808l-.764-.382-.382-1.528-1.146.382h-1.146L266,92.9l-4.2,1.528-.382,1.146-1.91.382-1.528-.382-.764-.764-.764,1.91-.764.382-1.146,1.528-1.146.382-2.675,3.057-.764.382-.764,1.146-1.91-8.788-13.373,2.675Z" transform="translate(674.791 7770.845)"/>
    <path id="Path_2473" data-name="Path 2473" class="cls-2" d="M201.2,87.762l4.967,44.32h1.146l1.146.764h1.146l1.146-1.146,2.675,2.292,1.146,2.292,1.91.764,2.674-.382,3.057,2.292,1.146-1.528.764-.382,2.292,1.146,2.292-.382v-.382l1.146-.382.382-.764,1.528-1.146.764,1.146,1.146,1.91,1.528.382,1.528.764.382.764,1.91-.382,1.146-1.91,1.146-1.146.382-1.528-.382-1.91,1.146-4.2h1.146l1.146,1.91,1.528-1.528-.382-2.292,1.146-2.674L248.2,123.3l.382-.764,1.146-1.146.764.382L252.4,121v-.382l2.292-3.057.764-.382,1.528-1.146-.382-1.91v-2.292l.382-1.528,1.146-6.113-2.675-1.528,1.91-1.528-.764-1.528,1.146-.764h.382l-4.2-22.542-6.5,3.439-2.674,1.528-1.146,1.146-3.821,3.821-.764.764-1.146-.382h-2.293L234.44,87l-3.057,2.675-1.146-.382-2.675-.764-.382.382h-1.146l.764-1.146h-.382l-1.91-.382-4.2-1.528h-.764l-1.91.382V85.47Z" transform="translate(648.276 7754.204)"/>
    <path id="Path_2474" data-name="Path 2474" class="cls-2" d="M193.328,83.585l3.439,40.5-.764.764.382,1.528-.382,1.91,1.528,3.057.382,3.821L196,138.6v1.146l-1.146,2.674-2.292,1.91v2.675l-.764,3.057v.764l.382.764h1.146l.764-.382v-.764l.382-1.146,2.674.382,3.057-1.528,4.2,1.91.382.382h.764l.764-2.675,2.292-.764.764,1.146,1.528.764,1.146-.764.764-3.439.764-1.146h1.146l1.528,1.91,3.057-.382,1.146-3.057,5.349-6.877v-2.292l1.146-1.146,2.292.764,1.91-1.528,1.146-.382.764-1.146-.764-3.057v-.764l.382-1.146-4.967-44.32L227.333,79l-25.981,3.439-.764.764-1.91.764-1.146.382-2.675.764Z" transform="translate(621.761 7761.819)"/>
    <path id="Path_2475" data-name="Path 2475" class="cls-2" d="M223.62,76.8l-35.533,2.292.764,1.146,2.675,1.528v1.91l2.674,1.146.764,3.057v1.528l-.764,1.91-1.146.764v1.528L190.762,95.9l-1.91.764-.764.764h-2.675l-1.146.764-.764,1.91v1.146l1.528,1.91.382.764-.382,2.675-1.528,4.2-2.292,1.146-.382,1.528v1.146l-1.146,1.528v.764l-.382,1.91v3.057l1.146,3.057.382,1.146,3.821,4.585,3.821,3.057,1.146,1.146,2.292,6.113.382.382,1.146-1.146,1.146-.382,3.439,1.528.382,1.146-.764,1.91.382,2.674-2.292,2.675-.382,1.146.764,1.91,2.292,2.292,3.821,2.292,1.528.764,4.2,3.057.382,3.057,1.146,1.528v.764l-.764.764v.764l2.674,4.585h.382v-.764h1.146l.382.382.764-3.057,1.528-.764,2.292.382,1.528.764,1.91,1.146,1.528-.764-.764-3.439v-1.91l1.146-.382,4.2-1.146v-.382l-1.146-1.91v-.382l.382-.382.382-1.528.382-.764h0l-.382-.764v-.764l.764-3.057V150.54l2.293-1.91,1.146-2.675v-1.146l1.91-3.439-.382-3.821-1.528-3.057.382-1.91-.382-1.528.764-.764-3.439-40.5-.764-.382-.382-1.146-.764-3.821-.764-.764-1.146-1.146-1.146-2.675Z" transform="translate(586.502 7755.613)"/>
    <path id="Path_2476" data-name="Path 2476" class="cls-2" d="M205.5,142.867l.382-3.821h1.146l.382-.382,1.146-.764v-1.91l.382-.764,1.146-1.528,2.675-1.146,3.439-.764,3.057-2.675,1.146-.764,1.91-1.91.764-1.528h1.146l.382-.764.382-.382.764-1.146h.382l1.146.764,1.146-.764v-.382l1.91-1.146,1.146-.764h1.91l2.292-3.821,1.91-1.146.382-1.146v-2.292l.382-1.146v-.382l3.439-.764v.764l3.821-.382,1.146-.382h.764l35.915-5.731,34-6.5.764.764v.382l1.146.382.764.382.382.764.382.764.764,1.528-.382.382.382.382h-.764v-.764l-1.146.382h-.764l-.382-.382-.764.382.382.382v.382l-3.057,1.528-.764.764-1.146,1.146-2.292.382-.382,1.146v.382l.382.382.764-.382,2.292-.764,1.91-.764,1.528-.764h1.91v2.292l.764.382.764-.382.382-.764,1.146-1.528h1.146l.382,1.91.382,2.675.382.764v.382l-1.91,1.528-.382.764-.382.764-1.146,1.146-.764.382-1.146.764-2.292-.382h-1.528l-.382-.764v-.764l-.382-.382h-.382l-.382.382.382,1.91-.382.764-.382-.382.764,1.146h.764l1.146,1.146-.764,1.146.382.764-2.675,3.057H312.1l-1.528-.382h-.764l-.382.382,1.146.764h2.675l1.91-.764,2.293-1.146.382-.764.764.382.764.764-.764,1.91L316.3,128.73l-2.292.382-.764.764-3.057.382-2.292,3.821h-.764v.764h0l-2.674,1.528-1.528,1.91-1.528,3.439-.764,4.2-.764.764-1.146.764-5.731,1.146-.382.382-18.34-12.608-15.665,1.91-.382-2.292-2.674-1.91-1.146.764-.764-.764.382-.764v-.382l-18.34,2.292H235.3l-.382.382-3.821,1.528v.764h-1.146l-4.2,2.292Z" transform="translate(660.405 7813.722)"/>
    <path id="Path_2477" data-name="Path 2477" class="cls-2" d="M296.466,100.9l-22.924,2.675-1.146.764-56.165,5.349-.764-.764-2.292.382.382.764v1.91l-19.868,1.528-.764,2.292-.764,3.057.382.764-.764,2.675-.764.764.382.764-.382,1.528-1.91,1.91-.764,3.439-1.528,2.292.382,2.292-.382,3.057-.382.382-1.528,1.146,28.656-1.91,35.915-3.439,14.137-1.528.382-3.821h1.146l.382-.382,1.146-.764v-1.91l.382-.764,1.146-1.528,2.675-1.146,3.439-.764,3.057-2.675,1.146-.764,1.91-1.91.764-1.528h1.146l.382-.764.382-.382.764-1.146h.382l1.146.764,1.146-.764v-.382l1.91-1.146,1.146-.764h1.91l2.292-3.821,1.91-1.146.382-1.146v-2.292Z" transform="translate(602.298 7823.595)"/>
    <path id="Path_2478" data-name="Path 2478" class="cls-2" d="M251.746,159.044h-2.674l-.382-.382-.764-.764-.764-3.439-1.528-2.675-2.292-.764-1.146-3.439-1.146-1.528-.764-1.91-1.146-.764-2.675-.764-1.146-1.91-1.91-1.146v-.764l-.764-1.91-.764-.382-1.91-.764-4.585-4.2-1.91-.764-.764-1.146-1.91-1.91-1.146-2.675-1.528-1.146-.382-1.146-2.675-.382-3.821-1.91-1.146-1.146,1.146-2.675,1.146-1.146.382-.764.382-.764h-.382l4.2-2.292h1.146V110.9l3.821-1.528.382-.382h.382l18.34-2.292v.382l-.382.764.764.764,1.146-.764,2.675,1.91.382,2.292,15.665-1.91,18.339,12.608-.764.382-1.528,1.146L276.2,125.8l-1.91,2.292-1.146,2.674-.382,1.91v3.439L272,136.5l-.382.764-1.146.382-.764.764-.764.764-1.146,1.528-.382,1.146-2.292,1.91-1.528,1.91-1.146,1.146-1.528,1.146-1.146,1.146-.764.382-1.528.764-.764.382-.382.382.382.764h-.382l-.764,1.528-1.146,1.146h-1.146l-.382.382.382.382h.764v1.146l-.764.382-1.146,1.146Z" transform="translate(673.38 7839.953)"/>
    <path id="Path_2479" data-name="Path 2479" class="cls-2" d="M192.4,113.139l1.528,1.528-1.146,50.052.382,2.675,3.057,25.217.764-.382.764-.764,2.292.764.382-.764.382-3.821.764-2.292,1.528,2.292v1.146l.764,1.91,1.528,2.292h2.675l1.528-1.91h.764l.764-.764v-.382l-.382-.382-.764-.382v-.382l.764-1.91-.382-.382-1.146-.764h-.382l-.764-.764-1.146-1.528v-1.146l.382-.764-.382-.382v-.382l37.825-3.821-.382-1.146-1.528-2.675.382-4.2-1.91-3.821v-3.057l.764-2.292v-2.293l1.146-1.528.382-.764-1.146-1.528.382-1.528-1.146-.764-1.146-.764-.382-1.146-.764-2.674L238.249,146l-9.934-36.3Z" transform="translate(623.453 7848.416)"/>
    <path id="Path_2480" data-name="Path 2480" class="cls-2" d="M224.838,110.6l-28.656,1.91v1.146l-2.674,2.292-1.146,2.674.382,2.675-.382,1.528-2.675,1.528-1.528,2.292-.764.764V129.7l-1.146,1.528v1.91l-.764,2.292-1.528,2.292.764,2.292,1.146,1.528v1.91l.382.382v.764l-.764.382v3.821l1.528,3.439.382,3.439.764,1.528.764,1.146.382,1.528-1.91,1.146-.382.382-1.146,3.821-2.674,4.2-2.292,6.877v5.349l26.745-1.146.764.764-1.146,2.675v3.821l3.057,3.057.764,3.057h1.91l2.675-2.292,6.5-1.91,1.91.382,1.91-.764.764.764,1.146.382.764-.382L225.6,164.854l-.382-2.675,1.146-50.052Z" transform="translate(591.015 7850.955)"/>
    <path id="Path_2481" data-name="Path 2481" class="cls-2" d="M169,106.975l60.75-2.675-.382.764,1.146.764.764,1.528-.382,1.528-1.91,1.528-1.528,1.91v1.146l9.17-.764-.764.764.382.764-.382,1.528-1.91,1.91-.764,3.439L231.66,123.4l.382,2.293-.382,3.057-.382.382-1.528,1.146v1.146l-2.674,2.292-1.146,2.675.382,2.675-.382,1.528-2.675,1.528-1.528,2.292-.764.764v2.292L219.816,149v1.91l-.764,2.292-1.528,2.292.764,2.292,1.146,1.528v1.91l.382.382v.764l-.764.382v2.675l-41.264,1.146v-9.17l-2.292-.764-1.91,1.146-.382-.382-2.292-1.528.382-30.184Z" transform="translate(557.448 7833.184)"/>
    <path id="Path_2482" data-name="Path 2482" class="cls-2" d="M171.3,121.446l41.264-1.146v1.146l1.528,3.439.382,3.439.764,1.528L216,131l.382,1.528-1.91,1.146-.382.382-1.146,3.821-2.674,4.2-2.293,6.877V154.3l26.745-1.146.764.764-1.146,2.674v3.821l3.057,3.057.764,3.056-3.821-.764-3.439-1.528-1.146-.382-.764.764-2.674,2.292v1.146l1.146,1.146,1.146.382h3.057l1.528-1.146,1.146-.764h2.292l.382.764-.382.764-1.146.764.382,1.146.764.382.764.382.764-.764,1.146-1.91,3.057-1.528,1.146-.382h.764l.382,1.146-.382,1.146.382.382v1.146l-1.146.764-2.292,3.057-2.292,1.528v1.528l.764,1.146,2.674,1.91,5.349,1.91.382.764-.382,1.528h-1.146l-3.821,1.91-.382-3.439-2.292-.764-4.2-1.91-.764-1.528-.764-.382-1.146.764-.764,3.057.382.382.382.382-2.292,1.91-1.146-.382-1.146-1.91h-.764l-1.528.382-.382-.382h-.764l-1.91,2.292H220.97l-.764-.382-2.675-.764-3.439-4.2-1.91-.382-2.292-1.146-.764-1.146h-.382v-.382l-.382-.382.382-.764L207.6,175.7l-.382.382-1.91-.382h-.382v-1.146h-1.146l-2.675,2.675,1.146,1.146-.382.764h-4.585l-7.259-1.146-4.585-1.91-9.934,1.528-.764-.764-.382-1.146.382-.382.382-1.146,1.146-1.146,1.528-3.439-1.146-1.91v-1.146l.382-.764-.382-1.146.382-1.91,1.146-.764.764-1.528.382-3.439v-1.528l-.382-2.675-1.146-1.91-.382-.764v-.764l-.382-.764-.764-1.528-1.146-.764v-.764l.382-1.91-1.146-2.292-1.91-1.91-.764-1.146Z" transform="translate(563.936 7878.315)"/>
    <path id="Path_2483" data-name="Path 2483" class="cls-2" d="M180.565,158.312l60.75-2.675-.382.764,1.146.764.764,1.528-.382,1.528-1.91,1.528-1.528,1.91v1.146l9.17-.764.764-2.675-.382-.764.764-3.056.764-2.292,1.146-1.146,1.528-.764.764.382.764-.764,1.146-4.2-.382-1.528-.764-.764h-.382v-.382l-.382-.382h-1.146v.764h-.382l-2.675-4.585v-.764l.764-.764v-.764l-1.146-1.528-.382-3.057-4.2-3.057-1.528-.764-3.821-2.292L236.73,126.6l-.764-1.91.382-1.146,2.292-2.675-.382-2.675.764-1.91-.382-1.146-3.439-1.528-1.146.382-1.146,1.146-.382-.382-2.292-6.113-1.146-1.146-3.821-3.057-3.821-4.585-.382-1.146-1.146-3.057V92.6l.382-1.91v-.764L216.48,86.1,164.9,87.628l.764,1.528,1.528,1.528.382,2.292,1.91,2.292.764.382-.382,1.91v.382l5.731,4.2-1.528,2.292-.382,1.91.764,1.146,1.528.764.764,3.057,1.146.764,1.528.382.382.382.382,37.061Z" transform="translate(545.883 7781.846)"/>
    <path id="Path_2484" data-name="Path 2484" class="cls-2" d="M164.293,75.292,228.481,73l.764,2.292,1.528,1.146v1.146l-1.146,1.528.764,2.292,1.146,4.585,3.821,1.146,1.146,1.146.382,1.528.764,1.146,2.674,1.528V94.4L243,95.542l.764,3.057v1.528l-.764,1.91-1.146.764v1.528l-2.292,2.292-1.91.764-.764.764h-2.675l-1.146.764-.764,1.91v1.146l1.528,1.91.382.764-.382,2.674-1.528,4.2-2.292,1.146-.382,1.528v1.146l-1.146,1.528-3.821-3.821-51.58,1.528-.764-.764-.382-1.91.382-1.146-.764-1.528-.382-1.146.764-1.528-.382-1.146-1.91-1.146.382-2.675.764-1.146-.764-1.528-1.528-1.146-.382-1.528.382-1.528-1.528-1.146-.764-3.057-1.528-1.146,1.146-2.292V95.924l-1.91-1.146V92.486l-.382-1.528L162,87.519l1.528-3.057-.382-1.146,1.146-1.146-.764-2.292-.764-1.146.764-1.528-.764-1.146-.382-.764,1.146-.382Z" transform="translate(537.703 7744.896)"/>
    <path id="Path_2485" data-name="Path 2485" class="cls-2" d="M169.088,147.785v-31.33l-4.585-4.2v-1.528l2.292-2.292.764-1.528-.382-1.528V102.7l.382-2.292-1.91-5.731-.382-1.528V90.092l-.382-1.91-.382-8.406-.764-4.967-1.528-1.528-1.146-5.349V62.965l.382-2.675.382-1.528-1.146-3.821-.382-1.528h23.306V49.592l.382-2.292h1.528l2.675.764v3.821l.764,2.675v2.292l2.675,1.91.764-.382,1.91.382.764.764,1.91-.382,1.91.764.764.764v.382h3.439l.764-1.146,4.967-.382,3.439.764h.764l-.764,1.146,1.146.764.764-.382.382.764.382,2.292,1.528.764,1.146-1.91.764-.382,1.146.382.764,1.91,2.675.382,1.146,1.146,1.146,1.146h1.528l1.91-.382,4.2-3.439.764.764L234.8,66.4h6.877l1.146.382.764.382,1.528,1.146,1.528-.382,3.057-.382-1.91,1.528-3.821,2.292-2.292.764-1.528.382-1.528,1.91-3.439,1.528L233.658,77.1l-5.731,6.113L219.9,90.474,219.139,92l-.764.764v9.17l-.764,1.146-1.146.382-3.439,2.675v1.528l-.764.382-.764,2.675,1.91.764,1.146,2.292-1.146,1.91.382,1.91-.382,2.675v4.585l.764.764,1.146,1.146.382.764,3.057.382.764.382v1.146l.764.382,3.821,1.528,1.146,2.674,3.439,2.675,3.821,2.675.382.764v2.292l.382,3.057Z" transform="translate(532.908 7672.403)"/>
    <path id="Path_2486" data-name="Path 2486" class="cls-2" d="M203.884,133.533,203.5,132l-1.146-1.146-3.821-1.146-1.146-4.585-.764-2.292,1.146-1.528V120.16l-1.528-1.146-.764-2.292-.382-3.057v-2.292l-.382-.764-3.821-2.675-3.439-2.674-1.146-2.674-3.821-1.528-.764-.382V99.528l-.764-.382-3.057-.382L177.521,98l-1.146-1.146-.764-.764V91.5l.382-2.675-.382-1.91,1.146-1.91-1.146-2.292-1.91-.764.764-2.675.764-.382V77.368l3.439-2.675,1.146-.382.764-1.146V64l.764-.764.764-1.528,1.146.764,1.528.382,2.292-.382,3.057-1.528,6.113-3.057,1.146-.382.382.764V59.41l-.764,1.146v.764l-.382,2.292,1.91-1.146h1.528L201.209,64l1.528-.382.764.764,1.528.382.764.764.764,1.91.764.382,11.08,2.292h1.528l2.292,1.91h1.528l.764.764.382-.764h.764l3.057.764,1.528.382.764.764-.382.382v.382l1.91.764,1.91,1.146.382,1.528-.764,4.2h.382l2.293-.382.382.382-.382.764-.764.764.764,1.91,1.528,1.146V87.3L235.6,89.976l-1.528,3.057-.764,2.292v1.146l.382.382,1.91-1.146,1.91-3.439,2.292-1.91,1.146-.382V88.83l1.146-.764.382-1.146v-1.91l.764-.382.382-1.146.764-.764h.382l.382.764v1.91l-1.91,4.585-.764.764-.382,1.91v.764l-1.528,3.439V99.91l-.382,2.292-1.528,1.528-.382,1.146.382,2.292.382,4.2-.764.764-1.146,4.585.764,6.113,1.528,4.2-.382.764.382.764v2.675Z" transform="translate(570.706 7701.174)"/>
    <path id="Path_2487" data-name="Path 2487" class="cls-2" d="M234.264,103.091l-.764,3.057v.382h.382l.764,1.146,1.146,1.528,1.146,1.146L240,111.879l.764.382,2.292.382h.764v3.439l.764.382.764-.764,1.146-1.91v-1.91l1.146-2.292.764-2.292.764-6.877,1.91,2.292,1.146-1.91V99.653l-.382-5.731-.764-4.585-.764-1.146-1.91.382-.764.382h-.764v-.382l-.764.382-.382-.382v-.764l1.146-1.91.382-.382.764-.382v-1.91l.382-.764.382-.764.764-.764-.764-1.91L237.7,75.2h-.764l-.764,1.528v.764l-.382,2.675L234.264,81.7l-.382.382v.764l1.146.764v1.91l-.764.382v3.057l.382.382,1.528.382.764,1.91,1.528.382.382.382.764.764.764.764,1.91,1.146v.382L240,96.6l-1.91,2.292-.382,1.91Z" transform="translate(739.386 7751.101)"/>
    <path id="Path_2488" data-name="Path 2488" class="cls-2" d="M235,62.531l.764,1.528-.382.764.764.764v.382l1.91,4.967.764,3.821-.764,1.528V78.2l2.292,4.967-.382,2.292.382.764.382-.382v-.382h.764l1.146,1.91.764,4.2v2.674l1.146,2.675,1.146,2.674,9.17-1.91v-.764l-1.146-1.146v-1.91l.382-.382-.382-1.528-.764-7.259v-1.91l.764-4.2.764-2.675.382-1.91-.764-1.528V70.937l.382-1.146,2.675-1.91,1.528-3.821-1.528-2.292-.382-1.146.764-.382v-.764l-.764-2.675Z" transform="translate(743.616 7699.199)"/>
    <path id="Path_2489" data-name="Path 2489" class="cls-2" d="M261.478,94.936l-1.146-.382h-.764l-1.146,1.91-1.146.382.382,1.146-.382.382-.382-.382-.382.382v.382l-14.9,3.439v-.764l-1.146-1.146v-1.91l.382-.382-.382-1.528L239.7,89.2v-1.91l.764-4.2.764-2.675.382-1.91-.764-1.528V75.45l.382-1.146,2.675-1.91,1.528-3.821L243.9,66.28l-.382-1.146.764-.382v-.764l-.764-2.675.382-3.057-.764-1.146.382-.382h.764l.764-1.146.764.382.764-.382.764-.382,9.552,28.656v2.292l2.674,1.91.382.382.382.764v.764l1.146,2.292v2.675Z" transform="translate(756.874 7694.686)"/>
    <path id="Path_2490" data-name="Path 2490" class="cls-2" d="M247.4,104.56v-1.91l-1.146-2.292-1.528-1.528L242.434,97.3l-.764-1.146-.764-1.146L239,91.952l-.764-1.528L236.7,88.9l-.382-1.528V85.839l.764-3.057-1.146-.382H234.41l-1.146,1.528v.764l-.382.382H232.5l6.5,21.014Z" transform="translate(736.565 7771.409)"/>
    <path id="Path_2491" data-name="Path 2491" class="cls-2" d="M228.6,89.21l2.675-1.91,2.292,3.439-3.057,1.91Z" transform="translate(725.564 7785.231)"/>
  </g>
</svg>
