<svg xmlns="http://www.w3.org/2000/svg" xmlns:xlink="http://www.w3.org/1999/xlink" viewBox="-7490 734 68.606 133.708">
  <defs>
    <style>
      .cls-1, .cls-7 {
        fill: #fff;
      }

      .cls-1 {
        opacity: 0.51;
      }

      .cls-2 {
        fill: url(#linear-gradient);
      }

      .cls-3 {
        fill: url(#linear-gradient-2);
      }

      .cls-4 {
        fill: url(#linear-gradient-3);
      }

      .cls-5 {
        fill: url(#linear-gradient-4);
      }

      .cls-6, .cls-9 {
        opacity: 0.3;
      }

      .cls-6 {
        fill: url(#linear-gradient-6);
      }

      .cls-8 {
        fill: url(#linear-gradient-7);
      }

      .cls-9 {
        fill: url(#linear-gradient-8);
      }

      .cls-10 {
        fill: url(#linear-gradient-9);
      }

      .cls-11 {
        fill: url(#linear-gradient-10);
      }

      .cls-12 {
        fill: url(#linear-gradient-12);
      }
    </style>
    <linearGradient id="linear-gradient" y1="0.5" x2="1" y2="0.5" gradientUnits="objectBoundingBox">
      <stop offset="0" stop-color="#3e77bc"/>
      <stop offset="0.05" stop-color="#407bbf"/>
      <stop offset="0.37" stop-color="#4a8fcd"/>
      <stop offset="0.68" stop-color="#509bd5"/>
      <stop offset="1" stop-color="#529fd8"/>
    </linearGradient>
    <linearGradient id="linear-gradient-2" x1="0" y1="0.5" x2="1" y2="0.5" xlink:href="#linear-gradient"/>
    <linearGradient id="linear-gradient-3" y1="0.5" x2="1" y2="0.5" gradientUnits="objectBoundingBox">
      <stop offset="0" stop-color="#3e77bc"/>
      <stop offset="1" stop-color="#529fd8"/>
    </linearGradient>
    <linearGradient id="linear-gradient-4" x1="0" y1="0.5" y2="0.5" xlink:href="#linear-gradient-3"/>
    <linearGradient id="linear-gradient-6" x1="-0.233" y1="0.199" x2="0.624" y2="0.78" gradientUnits="objectBoundingBox">
      <stop offset="0" stop-color="#231f20"/>
      <stop offset="0.61" stop-color="#231f20" stop-opacity="0.29"/>
      <stop offset="1" stop-color="#231f20" stop-opacity="0"/>
    </linearGradient>
    <linearGradient id="linear-gradient-7" x1="0" y1="0.498" x2="1" y2="0.498" xlink:href="#linear-gradient"/>
    <linearGradient id="linear-gradient-8" x1="-0.232" y1="0.199" x2="0.624" y2="0.78" xlink:href="#linear-gradient-6"/>
    <linearGradient id="linear-gradient-9" x1="-0.001" y1="0.501" x2="1" y2="0.501" xlink:href="#linear-gradient"/>
    <linearGradient id="linear-gradient-10" x1="0" y1="0.5" y2="0.5" xlink:href="#linear-gradient-3"/>
    <linearGradient id="linear-gradient-12" x1="-0.197" y1="10.64" x2="0.841" y2="10.64" xlink:href="#linear-gradient-3"/>
  </defs>
  <g id="icon_22" data-name="icon 22" transform="translate(-7490.04 738.139)">
    <g id="DESIGNED_BY_FREEPIK" data-name="DESIGNED BY FREEPIK" transform="translate(0.04 -4.139)">
      <path id="Path_4885" data-name="Path 4885" class="cls-1" d="M180.167,296.781l13.456-7.471-.137,38.086-13.456,7.471Z" transform="translate(-125.321 -201.449)"/>
      <path id="Path_4886" data-name="Path 4886" class="cls-2" d="M321.924,361.016a.315.315,0,0,1-.152-.041.288.288,0,0,1-.152-.253l.134-38.086a.288.288,0,0,1,.152-.25l13.456-7.482a.316.316,0,0,1,.3,0,.288.288,0,0,1,.152.253l-.134,38.086a.288.288,0,0,1-.152.253l-13.456,7.468A.313.313,0,0,1,321.924,361.016Zm.438-38.211-.134,37.415,12.848-7.134.134-37.412Z" transform="translate(-267.212 -227.308)"/>
      <path id="Path_4887" data-name="Path 4887" class="cls-1" d="M55.554,241.684l-.137,38.086L1,249.759l.137-38.089Z" transform="translate(-0.708 -146.352)"/>
      <path id="Path_4888" data-name="Path 4888" class="cls-3" d="M197.332,305.948a.315.315,0,0,1-.152-.041L142.772,275.9a.288.288,0,0,1-.152-.253l.116-38.089a.288.288,0,0,1,.153-.25.316.316,0,0,1,.3,0L197.6,267.319a.288.288,0,0,1,.152.253l-.134,38.086a.288.288,0,0,1-.152.25A.315.315,0,0,1,197.332,305.948Zm-54.1-30.47,53.8,29.677.134-37.418L143.343,238.06Z" transform="translate(-142.62 -172.24)"/>
      <path id="Path_4889" data-name="Path 4889" class="cls-4" d="M1.6,139.711l13.456-7.471,54.417,30.014-13.456,7.468Z" transform="translate(-1.126 -89.985)"/>
      <path id="Path_4890" data-name="Path 4890" class="cls-5" d="M180.526,243.078l13.456-7.468-.046,15.592-13.456,7.471Z" transform="translate(-125.634 -163.341)"/>
      <path id="Path_4891" data-name="Path 4891" class="cls-4" d="M55.913,187.981l-.046,15.595L1.45,173.562,1.5,157.97Z" transform="translate(-1.021 -108.244)"/>
      <path id="Path_4892" data-name="Path 4892" class="cls-6" d="M47.52,202l.021,5.427,2.264,2.163,3.109-2.436Z" transform="translate(-33.088 -139.49)"/>
      <path id="Path_4893" data-name="Path 4893" class="cls-7" d="M181.645,225.973a5.322,5.322,0,0,1,2.547,4.222c-.006,1.553-1.149,2.175-2.565,1.4a5.309,5.309,0,0,1-2.547-4.219C179.086,225.822,180.232,225.2,181.645,225.973Z" transform="translate(-167.998 -163.989)"/>
      <path id="Path_4894" data-name="Path 4894" class="cls-8" d="M182.317,231.692a2.627,2.627,0,0,1-1.249-.363,5.538,5.538,0,0,1-2.647-4.384,1.855,1.855,0,0,1,.851-1.742,2.11,2.11,0,0,1,2.015.174h0a5.549,5.549,0,0,1,2.65,4.387,1.874,1.874,0,0,1-.851,1.742A1.6,1.6,0,0,1,182.317,231.692ZM180.04,225.4a1.154,1.154,0,0,0-.568.136,1.51,1.51,0,0,0-.65,1.405,5.156,5.156,0,0,0,2.432,4.05,1.678,1.678,0,0,0,1.617.174,1.491,1.491,0,0,0,.647-1.4,5.172,5.172,0,0,0-2.447-4.065h0a2.2,2.2,0,0,0-1.03-.311Z" transform="translate(-167.538 -163.549)"/>
      <path id="Path_4895" data-name="Path 4895" class="cls-9" d="M139.76,255.26l.024,5.43,2.261,2.16,3.113-2.433Z" transform="translate(-97.291 -177.286)"/>
      <path id="Path_4896" data-name="Path 4896" class="cls-7" d="M273.9,279.239a5.324,5.324,0,0,1,2.547,4.219c-.006,1.551-1.155,2.175-2.565,1.4a5.328,5.328,0,0,1-2.55-4.219C271.336,279.085,272.482,278.458,273.9,279.239Z" transform="translate(-232.208 -201.787)"/>
      <path id="Path_4897" data-name="Path 4897" class="cls-10" d="M274.567,284.894a2.608,2.608,0,0,1-1.246-.363,5.534,5.534,0,0,1-2.651-4.384,1.871,1.871,0,0,1,.851-1.742,2.07,2.07,0,0,1,2.018.174,5.538,5.538,0,0,1,2.647,4.384,1.874,1.874,0,0,1-.851,1.742A1.6,1.6,0,0,1,274.567,284.894Zm-2.277-6.289a1.185,1.185,0,0,0-.568.136,1.5,1.5,0,0,0-.65,1.405,5.176,5.176,0,0,0,2.45,4.065,1.676,1.676,0,0,0,1.614.171,1.5,1.5,0,0,0,.65-1.4,5.168,5.168,0,0,0-2.45-4.065h0A2.2,2.2,0,0,0,272.29,278.605Z" transform="translate(-231.748 -201.299)"/>
      <path id="Path_4898" data-name="Path 4898" class="cls-11" d="M214.843,330.526v2.613l-10.255-5.656V324.87l3.754,2.073V315.1c0-.47,0-.944.036-1.429l-2.666.976a.72.72,0,0,1-.456,0,1.447,1.447,0,0,1-.422-.226,2.12,2.12,0,0,1-.353-.34,1.844,1.844,0,0,1-.231-.36l-1-2.056,5.654-2.152,2.6,1.437v17.746Z" transform="translate(-184.821 -223.507)"/>
      <path id="Path_4899" data-name="Path 4899" class="cls-7" d="M267.317,74.386,242.35,60.614a4.68,4.68,0,0,1-2.07-3.775V29.335c0-1.452.927-2.128,2.07-1.5l24.967,13.769a4.68,4.68,0,0,1,2.07,3.775v27.5C269.375,74.345,268.463,75.016,267.317,74.386Z" transform="translate(-210.596 -23.452)"/>
      <path id="Path_4900" data-name="Path 4900" class="cls-4" d="M269.729,78.065a2.179,2.179,0,0,1-1.055-.3L241.682,62.882a5.333,5.333,0,0,1-2.4-4.357V28.792a2.146,2.146,0,0,1,.937-2,1.825,1.825,0,0,1,1.794.113L269,41.8a5.335,5.335,0,0,1,2.4,4.36V75.89a2.14,2.14,0,0,1-.937,2A1.51,1.51,0,0,1,269.729,78.065Zm-28.77-50.836a.869.869,0,0,0-.414.1,1.6,1.6,0,0,0-.608,1.46V58.525a4.726,4.726,0,0,0,2.074,3.814L269,77.224a1.192,1.192,0,0,0,1.137.113,1.584,1.584,0,0,0,.608-1.457V46.148a4.731,4.731,0,0,0-2.074-3.817L241.682,27.445A1.562,1.562,0,0,0,240.959,27.229Z" transform="translate(-209.9 -26.606)"/>
      <path id="Path_4901" data-name="Path 4901" class="cls-12" d="M274.471,94.217l-2.514,1.516-.394-.785.072-.044a.4.4,0,0,0,.161-.537l-1.13-2.244a1.948,1.948,0,0,1-.115-1.422l.779-2.593a2.028,2.028,0,0,1,.887-1.149l2.2-1.328a.4.4,0,0,0,.161-.537l-.036-.072.782-.471,1.285,2.552a.464.464,0,0,0,.3.254.488.488,0,0,0,.4-.063.572.572,0,0,0,.223-.747l-1.285-2.555.447-.273a.429.429,0,0,0,.168-.556.347.347,0,0,0-.225-.187.366.366,0,0,0-.294.045l-.45.27-1.285-2.552a.464.464,0,0,0-.3-.254.488.488,0,0,0-.4.063.575.575,0,0,0-.223.747l1.288,2.555-.782.471-.036-.072a.324.324,0,0,0-.214-.186.341.341,0,0,0-.285.048l-2.2,1.331a1.739,1.739,0,0,1-1.36.21l-2.405-.669a1.642,1.642,0,0,1-1.038-.866l-1.13-2.241a.324.324,0,0,0-.215-.184.341.341,0,0,0-.284.049l-.072.041-.4-.794,2.484-1.516a.576.576,0,0,0,.227-.747.464.464,0,0,0-.3-.254.488.488,0,0,0-.4.063l-2.484,1.516-.23-.458a.35.35,0,0,0-.225-.187.369.369,0,0,0-.295.042.438.438,0,0,0-.168.559l.23.458-2.507,1.513a.575.575,0,0,0-.223.75h0a.464.464,0,0,0,.3.253.488.488,0,0,0,.4-.061l2.507-1.516.4.794-.069.044a.4.4,0,0,0-.161.537l1.127,2.241a1.915,1.915,0,0,1,.115,1.422l-.776,2.593a2.031,2.031,0,0,1-.887,1.149l-2.2,1.328a.413.413,0,0,0-.161.537l.036.072-.779.474-1.288-2.555a.46.46,0,0,0-.3-.254.485.485,0,0,0-.4.063h0a.579.579,0,0,0-.227.75l1.288,2.552-.45.273a.438.438,0,0,0-.168.556.351.351,0,0,0,.225.185.369.369,0,0,0,.294-.044l.45-.27,1.288,2.552a.46.46,0,0,0,.3.254.485.485,0,0,0,.4-.063.576.576,0,0,0,.227-.747l-1.288-2.555.782-.471.036.072a.324.324,0,0,0,.214.186.341.341,0,0,0,.285-.048l2.2-1.331a1.736,1.736,0,0,1,1.341-.2l2.415.659a1.658,1.658,0,0,1,1.038.866l1.147,2.241a.323.323,0,0,0,.214.186.341.341,0,0,0,.285-.048l.072-.044.4.794-2.511,1.516a.575.575,0,0,0-.223.747.464.464,0,0,0,.3.254.488.488,0,0,0,.4-.063l2.507-1.513.23.455a.347.347,0,0,0,.224.189.366.366,0,0,0,.3-.044h0a.441.441,0,0,0,.168-.559l-.233-.458,2.511-1.513a.578.578,0,0,0,.223-.75.467.467,0,0,0-.3-.258A.492.492,0,0,0,274.471,94.217Z" transform="translate(-222.624 -62.179)"/>
    </g>
  </g>
</svg>
