<svg xmlns="http://www.w3.org/2000/svg" xmlns:xlink="http://www.w3.org/1999/xlink" viewBox="7952.39 -1985.246 78.318 104.246">
  <defs>
    <style>
      .cls-1 {
        fill: url(#linear-gradient);
      }

      .cls-2 {
        fill: url(#linear-gradient-2);
      }

      .cls-3 {
        fill: url(#linear-gradient-3);
      }

      .cls-4 {
        fill: url(#linear-gradient-4);
      }

      .cls-11, .cls-5, .cls-9 {
        fill: #fff;
      }

      .cls-5 {
        opacity: 0.51;
      }

      .cls-6 {
        fill: url(#linear-gradient-5);
      }

      .cls-7 {
        fill: url(#linear-gradient-6);
      }

      .cls-8 {
        fill: url(#linear-gradient-8);
      }

      .cls-9 {
        opacity: 0.48;
      }

      .cls-10 {
        fill: url(#linear-gradient-9);
      }

      .cls-12 {
        fill: url(#linear-gradient-10);
      }

      .cls-13 {
        fill: url(#linear-gradient-11);
      }

      .cls-14 {
        fill: url(#linear-gradient-12);
      }

      .cls-15 {
        fill: url(#linear-gradient-13);
      }

      .cls-16 {
        fill: url(#linear-gradient-14);
      }

      .cls-17 {
        fill: url(#linear-gradient-16);
      }

      .cls-18 {
        fill: url(#linear-gradient-17);
      }
    </style>
    <linearGradient id="linear-gradient" y1="0.5" x2="1" y2="0.5" gradientUnits="objectBoundingBox">
      <stop offset="0" stop-color="#3e77bc"/>
      <stop offset="1" stop-color="#529fd8"/>
    </linearGradient>
    <linearGradient id="linear-gradient-2" x1="0" y1="0.5" x2="1" y2="0.5" xlink:href="#linear-gradient"/>
    <linearGradient id="linear-gradient-3" x1="0.001" y1="0.5" x2="1" y2="0.5" xlink:href="#linear-gradient"/>
    <linearGradient id="linear-gradient-4" x1="0" y1="0.5" x2="1" y2="0.5" xlink:href="#linear-gradient"/>
    <linearGradient id="linear-gradient-5" y1="0.5" x2="1" y2="0.5" gradientUnits="objectBoundingBox">
      <stop offset="0" stop-color="#3e77bc"/>
      <stop offset="0.05" stop-color="#407bbf"/>
      <stop offset="0.37" stop-color="#4a8fcd"/>
      <stop offset="0.68" stop-color="#509bd5"/>
      <stop offset="1" stop-color="#529fd8"/>
    </linearGradient>
    <linearGradient id="linear-gradient-6" x1="-0.185" y1="12.345" x2="0.851" y2="12.345" xlink:href="#linear-gradient"/>
    <linearGradient id="linear-gradient-8" x1="-0.557" y1="13.139" x2="0.48" y2="13.139" xlink:href="#linear-gradient"/>
    <linearGradient id="linear-gradient-9" x1="0" y1="0.5" x2="1" y2="0.5" xlink:href="#linear-gradient"/>
    <linearGradient id="linear-gradient-10" x1="0" y1="0.5" x2="1" y2="0.5" xlink:href="#linear-gradient-5"/>
    <linearGradient id="linear-gradient-11" x1="0" y1="0.5" x2="1" y2="0.5" xlink:href="#linear-gradient-5"/>
    <linearGradient id="linear-gradient-12" x1="-0.001" y1="0.5" x2="1" y2="0.5" xlink:href="#linear-gradient-5"/>
    <linearGradient id="linear-gradient-13" x1="-0.007" y1="0.5" x2="1.007" y2="0.5" xlink:href="#linear-gradient-5"/>
    <linearGradient id="linear-gradient-14" x1="-0.002" y1="0.5" x2="0.998" y2="0.5" xlink:href="#linear-gradient-5"/>
    <linearGradient id="linear-gradient-16" x1="-0.001" y1="0.5" x2="1" y2="0.5" xlink:href="#linear-gradient-5"/>
    <linearGradient id="linear-gradient-17" x1="-0.006" y1="0.5" x2="0.993" y2="0.5" xlink:href="#linear-gradient-5"/>
  </defs>
  <g id="icon_16" data-name="icon 16" transform="translate(7952.39 -1985.243)">
    <path id="Path_3707" data-name="Path 3707" class="cls-1" d="M141.341,316.86a1.226,1.226,0,0,1,0,.131.928.928,0,0,1,0,.115v.133a.346.346,0,0,1-.012.112,1.078,1.078,0,0,0-.019.133.42.42,0,0,1-.016.112.607.607,0,0,0-.023.136l-.021.11a.549.549,0,0,1-.03.133c-.012.044-.016.075-.023.11s-.023.091-.037.136l-.028.108-.042.138a.363.363,0,0,1-.033.105l-.051.141-.035.1c-.026.068-.054.136-.082.206l-.014.037c-.035.08-.07.161-.11.234a.7.7,0,0,1-.035.073c-.026.056-.054.112-.082.168l-.049.094c-.026.049-.051.1-.08.147l-.049.084-.1.166-.061.1-.1.152-.068.1-.1.147-.073.1c-.037.051-.075.1-.115.152l-.068.089c-.07.089-.143.178-.22.267l-.037.042c-.066.075-.131.15-.2.222l-.075.082-.192.2-.066.068c-.087.087-.175.171-.267.255l-.1.094-.133.119-.11.094-.136.117-.117.094-.14.112-.124.1-.143.11-.131.094c-.049.035-.1.073-.147.108l-.136.094-.152.105-.138.091-.159.1-.145.091-.164.1-.26.154c-.19.11-.384.215-.58.321l-.154.082c-.175.089-.353.18-.534.264l-.073.035c-.2.1-.407.187-.613.276l-.161.07-.536.215-.117.047c-.213.082-.428.159-.646.234l-.159.054-.445.143-.426.131-.363.1-.435.117c-.122.03-.234.063-.367.091s-.3.07-.445.1l-.372.082c-.152.033-.3.061-.456.089L129,326.3l-.187.033c-.208.035-.419.068-.629.1l-.105.014c-.234.035-.482.065-.723.094l-.185.019c-.234.026-.468.049-.7.068h-.028c-.248.021-.5.04-.749.054h-.129c-.234,0-.468.021-.683.028h-1.416l-.342.023-.5-.019-.349-.014-.538-.037-.309-.021c-.218-.019-.433-.04-.648-.063l-.192-.019c-.281-.033-.559-.068-.838-.105l-.129-.021-.716-.112c-.1-.016-.194-.037-.293-.056-.18-.033-.363-.066-.541-.1-.234-.044-.449-.094-.669-.145l-.133-.03c-.234-.056-.468-.112-.686-.173l-.091-.026c-.2-.054-.4-.11-.594-.168l-.168-.051c-.234-.068-.447-.14-.667-.215l-.126-.044c-.183-.063-.365-.129-.543-.2l-.185-.068-.424-.171-.29-.122-.4-.18-.267-.122c-.147-.07-.29-.143-.435-.218l-.215-.108c-.215-.112-.426-.234-.632-.346a15.168,15.168,0,0,1-1.488-.976c-.183-.136-.358-.274-.527-.412-.25-.211-.489-.424-.7-.641-.147-.145-.288-.293-.424-.44a8.854,8.854,0,0,1-.725-.906c-.108-.152-.208-.307-.3-.468a6.926,6.926,0,0,1-.8-1.909c-.042-.161-.075-.325-.1-.487-.014-.082-.026-.164-.035-.234a5.952,5.952,0,0,1-.044-.735l-.026,5.686c0,2.609,1.715,5.221,5.162,7.212.206.119.417.234.632.346.07.037.143.07.215.108.143.073.288.147.435.215l.257.105.407.182c.1.042.194.08.29.119l.278.117.147.054.183.07c.178.068.36.133.543.2l.126.044c.22.075.442.147.667.215l.169.049.29.087c.1.03.2.056.307.084l.089.026c.234.061.456.117.686.171l.131.033.611.133.061.012c.178.037.358.07.538.1l.295.056c.234.04.468.077.7.11l.129.021h0c.276.04.555.075.833.108l.2.019c.213.023.428.044.641.063h.016l.318.033.536.035.351.016.5.019h1.832l.59-.026h.129c.25-.016.5-.033.749-.054h.028l.445-.04.253-.028.183-.021c.234-.026.484-.056.725-.091l.105-.016.632-.1.183-.03.15-.026.26-.052.468-.089.372-.082.445-.1.367-.091.435-.117.363-.1.426-.131.185-.056.26-.087.157-.054c.22-.075.435-.155.648-.234l.117-.047c.18-.07.358-.143.536-.218l.161-.068c.206-.089.412-.18.613-.276l.073-.035q.271-.131.534-.267l.154-.08c.2-.105.391-.211.58-.321l.213-.126a.318.318,0,0,0,.047-.03l.164-.1.145-.089.157-.1.14-.094.152-.1.136-.094.147-.108.131-.1.143-.108.124-.1.138-.112.119-.1.133-.115.112-.094.131-.119.094-.084h.012c.091-.084.18-.168.267-.255l.066-.068c.066-.066.129-.131.192-.2l.075-.08c.068-.073.133-.147.2-.222.012-.014.026-.028.037-.044.077-.087.15-.176.22-.264a.091.091,0,0,1,.019-.023l.049-.066.115-.152.073-.1c.035-.049.07-.1.1-.15l.068-.1.1-.152.061-.1c.033-.054.066-.108.1-.164l.04-.065.012-.021.077-.145c.019-.03.035-.063.051-.094l.082-.166c.012-.026.026-.049.035-.075.04-.08.075-.161.11-.234l.014-.037c.028-.068.056-.136.082-.206h0a.357.357,0,0,1,.033-.091c.009-.03.035-.094.051-.143s.021-.07.033-.105l.042-.136.028-.11q.021-.068.035-.133l.028-.112.028-.131a.083.083,0,0,0,0-.023.652.652,0,0,1,.016-.089c0-.03.016-.089.023-.133a.421.421,0,0,1,.016-.112.483.483,0,0,0,.019-.133.945.945,0,0,0,0-.115.515.515,0,0,1,.012-.131.946.946,0,0,0,0-.115,1.268,1.268,0,0,0,0-.131.289.289,0,0,0,0-.044v-.152l.026-5.686A.34.34,0,0,1,141.341,316.86Z" transform="translate(-106.131 -247.626)"/>
    <path id="Path_3708" data-name="Path 3708" class="cls-2" d="M136.24,276.445c6.849,3.957,6.884,10.369.08,14.323s-17.875,3.955-24.727,0-6.887-10.366-.08-14.321S129.389,272.49,136.24,276.445Z" transform="translate(-106.185 -214.619)"/>
    <path id="Path_3709" data-name="Path 3709" class="cls-3" d="M280.25,373.368v.344a.74.74,0,0,1-.016.185c-.016.063,0,.105-.016.159a1.461,1.461,0,0,0-.026.185c-.009.061-.014.105-.023.157s-.021.126-.033.19-.019.1-.03.152-.026.124-.04.185l-.063.159-.049.185-.042.152c-.019.066-.04.129-.059.192s-.03.1-.047.145l-.07.2c-.023.065-.03.091-.049.138-.035.1-.075.192-.115.288l-.021.051c-.047.115-.1.234-.15.339l-.049.1c-.037.08-.075.157-.117.234s-.044.087-.068.129-.073.138-.11.206l-.07.119c-.044.077-.089.154-.136.234l-.084.136-.138.213-.094.138c-.047.07-.1.138-.145.208l-.1.136-.162.2-.1.122c-.1.126-.2.25-.3.372l-.054.061c-.089.1-.183.208-.276.311l-.105.112-.267.274-.094.1c-.122.119-.246.234-.372.356l-.143.129c-.061.056-.122.112-.185.166l-.154.133-.19.161-.164.131-.194.157-.173.133-.2.152-.18.131-.206.15-.187.131c-.07.049-.14.1-.213.145l-.194.129-.222.143c-.066.044-.133.087-.2.129s-.15.094-.234.138q-.178.112-.365.218c-.264.154-.534.3-.807.447l-.215.112c-.246.129-.494.253-.747.372l-.1.049c-.283.133-.569.26-.856.386l-.234.094c-.248.1-.5.2-.746.3l-.166.066c-.295.112-.6.222-.9.325l-.22.075c-.206.07-.412.136-.62.2s-.4.122-.594.18l-.505.145c-.2.056-.4.11-.606.161l-.513.131-.622.143c-.171.037-.344.077-.517.112-.211.044-.424.087-.636.126l-.569.105-.257.045c-.293.049-.585.1-.88.138l-.147.021c-.335.047-.672.089-1.009.129l-.257.028c-.323.035-.646.068-.971.1h-.04c-.346.03-.7.054-1.044.073l-.18.012c-.318.016-.637.028-.952.04l-.7.014H254.83c-.234,0-.468-.019-.7-.028l-.484-.021c-.25-.014-.5-.033-.751-.051-.143,0-.288-.016-.431-.028-.3-.026-.6-.056-.906-.089l-.269-.026q-.583-.068-1.17-.147l-.18-.028c-.335-.049-.667-.1-1-.157l-.41-.077c-.253-.047-.505-.094-.756-.145q-.468-.094-.936-.2l-.183-.042c-.323-.077-.641-.157-.957-.234l-.126-.035c-.278-.075-.555-.154-.831-.234l-.234-.07c-.314-.1-.622-.2-.936-.3l-.176-.063q-.384-.131-.758-.274l-.255-.1c-.2-.077-.4-.157-.592-.234l-.4-.166-.566-.255c-.124-.056-.248-.11-.37-.168-.206-.1-.407-.2-.606-.3-.1-.051-.2-.1-.3-.152-.3-.154-.592-.316-.88-.482a21.121,21.121,0,0,1-2.078-1.36q-.379-.283-.73-.576c-.353-.293-.683-.59-.995-.894-.206-.2-.4-.407-.59-.613a12.72,12.72,0,0,1-1.013-1.261c-.15-.215-.29-.431-.421-.648a9.689,9.689,0,0,1-1.123-2.663c-.056-.234-.1-.452-.138-.679-.019-.112-.035-.234-.049-.339a8.348,8.348,0,0,1-.061-1.023l-.035,7.928c0,3.639,2.389,7.282,7.2,10.062.288.166.58.325.878.482l.3.15c.2.1.4.2.608.3.122.058.246.112.37.168.187.087.374.173.566.255l.4.166c.131.054.26.11.391.161l.2.077.255.1q.374.141.758.274c.058.019.115.042.175.061.307.105.618.2.936.3l.234.068.4.122.428.117.124.033c.318.087.637.166.959.234l.183.044c.281.066.564.129.849.187l.084.016c.25.051.5.1.751.143.138.026.274.054.412.077.33.056.66.108.992.157l.178.028h0q.578.084,1.17.147l.281.028c.3.03.594.061.892.087h.023c.136.012.274.019.412.028.248.019.5.037.746.051l.491.019c.234,0,.468.021.7.028H256.5c.234,0,.468,0,.7-.014h.131c.276,0,.55-.023.824-.037h.178c.349-.021.7-.044,1.046-.075h.037c.206-.016.414-.035.62-.056l.353-.04a1.9,1.9,0,0,0,.255-.028q.505-.056,1.011-.126l.145-.023c.295-.042.59-.089.882-.138l.255-.042.208-.035.363-.072.636-.124.517-.115.62-.143.515-.129.606-.161.505-.145.592-.18.26-.08.363-.122.22-.075c.3-.105.6-.215.9-.328l.164-.063c.253-.1.5-.2.746-.3l.234-.094q.435-.187.856-.386l.1-.049c.253-.119.5-.234.744-.37l.218-.115c.271-.145.543-.292.807-.445l.3-.178a.6.6,0,0,0,.066-.04l.234-.14.2-.126.22-.143.2-.131.211-.145.19-.131.206-.147.18-.133c.068-.049.133-.1.2-.152s.117-.087.173-.133l.194-.154.166-.133.187-.159.157-.133.182-.166.131-.117.014-.014c.126-.117.25-.234.372-.356.03-.03.061-.063.094-.094.091-.091.178-.185.267-.276l.1-.112c.1-.1.187-.206.276-.309l.054-.063c.105-.122.208-.246.307-.37l.026-.033c.023-.03.044-.061.07-.091l.161-.213.1-.136c.049-.068.1-.138.145-.208s.063-.091.094-.138.091-.14.136-.213.059-.089.087-.133l.136-.234.054-.094.014-.028c.04-.065.075-.133.11-.2s.049-.089.07-.131.077-.154.115-.234c.016-.033.035-.068.051-.1.052-.112.1-.234.15-.337l.021-.054c.04-.1.077-.192.115-.288v-.012c.016-.042.031-.084.044-.126l.07-.2c.016-.049.03-.1.047-.147s.04-.126.058-.19.026-.1.04-.154.035-.122.049-.185.026-.105.037-.157.028-.122.04-.183v-.033a.584.584,0,0,1,.023-.124c.009-.042.023-.124.033-.185s.014-.105.023-.159.016-.124.023-.185.012-.105.019-.159.012-.124.016-.185,0-.105,0-.159v-.459l.035-7.928A.44.44,0,0,1,280.25,373.368Z" transform="translate(-201.934 -290.828)"/>
    <path id="Path_3710" data-name="Path 3710" class="cls-4" d="M273.268,317c9.552,5.515,9.594,14.457.11,19.972s-24.926,5.515-34.48,0S229.3,322.516,238.786,317,263.714,311.494,273.268,317Z" transform="translate(-202.143 -244.79)"/>
    <path id="Path_3711" data-name="Path 3711" class="cls-5" d="M317.242,48.909a57.151,57.151,0,0,1-12.561-11.66c-.273.036-5.463.729-12.584-2.859-.085.9-1.687,17.887,12.494,34.979C318.829,68.681,317.33,49.9,317.242,48.909Z" transform="translate(-249.875 -33.87)"/>
    <path id="Path_3712" data-name="Path 3712" class="cls-6" d="M303.833,68.862a.257.257,0,0,1-.211-.1c-13.854-16.695-12.731-33.336-12.558-35.18a.272.272,0,0,1,.4-.214c6.848,3.449,11.873,2.9,12.425,2.833a.278.278,0,0,1,.258.1,56.554,56.554,0,0,0,12.492,11.59.278.278,0,0,1,.126.209l-.276.021.276-.021c.144,1.834.626,11.26-4.247,16.8a11.832,11.832,0,0,1-8.667,3.956ZM291.578,34.035c-.214,3.124-.531,18.64,12.378,34.268A11.255,11.255,0,0,0,312.1,64.54c4.621-5.249,4.273-14.181,4.121-16.257A57.8,57.8,0,0,1,303.8,36.757C302.761,36.855,297.96,37.149,291.578,34.035Z" transform="translate(-249.108 -33.088)"/>
    <path id="Path_3713" data-name="Path 3713" class="cls-7" d="M326.563,85.413l-1.646,1.03-.258-.546.046-.031a.288.288,0,0,0,.108-.368l-.742-1.545a1.383,1.383,0,0,1-.077-.976l.515-1.78a1.4,1.4,0,0,1,.582-.791l1.445-.912a.291.291,0,0,0,.106-.371l-.023-.049.515-.325.845,1.754a.307.307,0,0,0,.458.131.4.4,0,0,0,.147-.515l-.845-1.757.294-.185a.3.3,0,0,0,.111-.381.229.229,0,0,0-.34-.1l-.3.185-.845-1.754A.307.307,0,0,0,326.2,76a.407.407,0,0,0-.147.515l.845,1.754-.515.325-.023-.052a.219.219,0,0,0-.33-.093l-1.442.912a1.1,1.1,0,0,1-.894.144l-1.6-.428a1.1,1.1,0,0,1-.68-.595l-.742-1.545a.222.222,0,0,0-.33-.1l-.046.031-.258-.546,1.646-1.03a.4.4,0,0,0,.147-.515.306.306,0,0,0-.458-.131l-1.646,1.03-.149-.314a.234.234,0,0,0-.342-.1.307.307,0,0,0-.108.384l.152.314L317.636,77a.4.4,0,0,0-.149.515h0a.307.307,0,0,0,.458.131l1.646-1.03.258.546-.046.031a.286.286,0,0,0-.106.368l.742,1.545a1.371,1.371,0,0,1,.075.976L320,81.861a1.37,1.37,0,0,1-.582.788l-1.442.914a.283.283,0,0,0-.106.368l.023.049-.515.325-.845-1.754a.306.306,0,0,0-.458-.131h0a.4.4,0,0,0-.147.515l.845,1.754-.3.185a.307.307,0,0,0-.108.384.232.232,0,0,0,.34.1l.3-.188.842,1.754a.307.307,0,0,0,.458.131.4.4,0,0,0,.149-.515l-.845-1.757.515-.322.023.049a.219.219,0,0,0,.33.093l1.442-.912a1.1,1.1,0,0,1,.894-.144L322.4,84a1.09,1.09,0,0,1,.68.595l.742,1.545a.216.216,0,0,0,.327.1l.049-.031.258.546L322.808,87.8a.4.4,0,0,0-.149.515.309.309,0,0,0,.458.131l1.646-1.03.152.314a.229.229,0,0,0,.34.1h0a.3.3,0,0,0,.111-.381l-.152-.314,1.646-1.043a.4.4,0,0,0,.147-.515.306.306,0,0,0-.443-.157Z" transform="translate(-267.607 -63.719)"/>
    <path id="Path_3714" data-name="Path 3714" class="cls-5" d="M160,36.191a51.743,51.743,0,0,1-11.41-10.6c-.248.033-4.966.662-11.436-2.6-.077.812-1.533,16.251,11.351,31.78C161.441,54.155,160.077,37.089,160,36.191Z" transform="translate(-129.656 -22.752)"/>
    <path id="Path_3715" data-name="Path 3715" class="cls-6" d="M147.712,54.208a.255.255,0,0,1-.192-.091c-12.6-15.168-11.578-30.289-11.419-31.962a.246.246,0,0,1,.36-.2c6.222,3.131,10.787,2.637,11.291,2.574a.25.25,0,0,1,.234.1,51.417,51.417,0,0,0,11.351,10.53.257.257,0,0,1,.112.19c.133,1.666.571,10.228-3.856,15.264a10.768,10.768,0,0,1-7.881,3.6ZM136.569,22.567c-.194,2.836-.484,16.935,11.244,31.134a10.231,10.231,0,0,0,7.4-3.419c4.245-4.825,3.847-13.319,3.744-14.77A52.242,52.242,0,0,1,147.673,25.04C146.73,25.138,142.365,25.393,136.569,22.567Z" transform="translate(-128.847 -21.93)"/>
    <path id="Path_3716" data-name="Path 3716" class="cls-8" d="M170.659,72.947l-1.5.936-.234-.5.042-.026a.26.26,0,0,0,.1-.335l-.674-1.4a1.252,1.252,0,0,1-.068-.889l.468-1.617a1.238,1.238,0,0,1,.529-.716l1.31-.831a.262.262,0,0,0,.1-.335l-.023-.044.468-.295.768,1.594a.279.279,0,0,0,.417.119.367.367,0,0,0,.133-.468l-.768-1.594.269-.168a.278.278,0,0,0,.1-.349.211.211,0,0,0-.309-.089l-.267.171-.768-1.6a.278.278,0,0,0-.417-.117.363.363,0,0,0-.133.468l.765,1.594-.468.295-.023-.044a.2.2,0,0,0-.3-.087l-1.313.831a1,1,0,0,1-.812.131l-1.439-.414a.994.994,0,0,1-.62-.541l-.674-1.4a.2.2,0,0,0-.3-.087l-.042.026-.234-.5,1.5-.936a.367.367,0,0,0,.136-.468.278.278,0,0,0-.417-.119l-1.5.936-.138-.285a.208.208,0,0,0-.309-.089.276.276,0,0,0-.1.346l.138.285-1.5.936a.37.37,0,0,0-.133.468h0a.278.278,0,0,0,.417.119l1.5-.936.234.5-.042.026a.262.262,0,0,0-.1.337l.672,1.4a1.257,1.257,0,0,1,.07.887l-.468,1.617a1.271,1.271,0,0,1-.529.718l-1.317.852a.264.264,0,0,0-.1.337l.021.044-.468.295-.768-1.594a.278.278,0,0,0-.417-.119h0a.367.367,0,0,0-.133.468l.768,1.594-.267.171a.274.274,0,0,0-.1.346.208.208,0,0,0,.309.089l.269-.168.768,1.594a.278.278,0,0,0,.417.119.37.37,0,0,0,.133-.468l-.768-1.594.468-.295.021.047a.2.2,0,0,0,.295.07l1.313-.828a.988.988,0,0,1,.81-.131l1.441.412a1,1,0,0,1,.618.541l.674,1.4a.2.2,0,0,0,.3.084l.042-.026.234.5-1.5.936a.367.367,0,0,0-.133.468.278.278,0,0,0,.417.119l1.5-.936.136.285a.213.213,0,0,0,.311.089h0a.279.279,0,0,0,.1-.349l-.138-.285,1.5-.936a.37.37,0,0,0,.136-.468.281.281,0,0,0-.407-.126Z" transform="translate(-147.959 -53.464)"/>
    <path id="Path_3717" data-name="Path 3717" class="cls-9" d="M136.19,266.651c6.852,3.955,6.887,10.366.08,14.323s-17.875,3.955-24.725,0-6.887-10.369-.082-14.323S129.34,262.7,136.19,266.651Z" transform="translate(-106.149 -207.116)"/>
    <path id="Path_3718" data-name="Path 3718" class="cls-10" d="M123.155,283.442a25.54,25.54,0,0,1-12.5-2.991c-3.4-1.963-5.274-4.586-5.279-7.387s1.842-5.382,5.2-7.341c6.859-3.978,18.058-3.978,24.961,0,3.4,1.963,5.274,4.586,5.279,7.387s-1.842,5.382-5.2,7.341A25.2,25.2,0,0,1,123.155,283.442ZM123.04,263.2a24.9,24.9,0,0,0-12.229,2.932c-3.2,1.872-4.968,4.327-4.963,6.934s1.795,5.108,5.045,6.985c6.774,3.91,17.761,3.91,24.491,0,3.206-1.872,4.968-4.324,4.966-6.933s-1.795-5.108-5.045-6.985A25.088,25.088,0,0,0,123.04,263.2Z" transform="translate(-105.38 -206.392)"/>
    <path id="Path_3719" data-name="Path 3719" class="cls-11" d="M82.27,224.3l3.122-1.813.059-19.977-3.124,1.816Z" transform="translate(-63.019 -155.124)"/>
    <path id="Path_3720" data-name="Path 3720" class="cls-12" d="M186.83,245.67a.234.234,0,0,1-.124-.035.246.246,0,0,1-.126-.218l.056-19.974a.25.25,0,0,1,.126-.215l3.122-1.816a.253.253,0,0,1,.25,0,.246.246,0,0,1,.124.218L190.2,243.6a.255.255,0,0,1-.124.218l-3.122,1.814a.233.233,0,0,1-.126.035Zm.316-20.082-.056,19.4,2.623-1.523.054-19.4Z" transform="translate(-167.579 -176.241)"/>
    <path id="Path_3721" data-name="Path 3721" class="cls-11" d="M74.063,167.337l3.122-1.814L72.292,152.89,69.17,154.7Z" transform="translate(-52.984 -117.116)"/>
    <path id="Path_3722" data-name="Path 3722" class="cls-13" d="M178.622,188.694a.263.263,0,0,1-.084-.014.257.257,0,0,1-.15-.147L173.495,175.9a.25.25,0,0,1,.108-.307l3.122-1.813a.25.25,0,0,1,.208-.021.255.255,0,0,1,.152.147l4.893,12.636a.253.253,0,0,1-.108.307l-3.122,1.814A.234.234,0,0,1,178.622,188.694Zm-4.584-12.786,4.71,12.168,2.684-1.558-4.71-12.168Z" transform="translate(-157.543 -138.22)"/>
    <path id="Path_3723" data-name="Path 3723" class="cls-11" d="M52.969,160.64l-4.949,6.952,1.769,1.023-.056,19.977,6.3,3.636.056-19.974,1.771,1.02Z" transform="translate(-36.783 -123.052)"/>
    <path id="Path_3724" data-name="Path 3724" class="cls-14" d="M160.617,213.627a.234.234,0,0,1-.124-.035l-6.3-3.639a.248.248,0,0,1-.124-.218l.056-19.829-1.638-.95a.25.25,0,0,1-.077-.363l4.94-6.94a.249.249,0,0,1,.435.054l4.893,12.636a.249.249,0,0,1-.358.307l-1.4-.8-.056,19.544a.25.25,0,0,1-.126.215A.234.234,0,0,1,160.617,213.627Zm-6.051-4.034,5.8,3.351.054-19.544a.253.253,0,0,1,.377-.218l1.154.667-4.469-11.539-4.507,6.362,1.533.885a.248.248,0,0,1,.124.215Z" transform="translate(-141.365 -144.198)"/>
    <path id="Path_3725" data-name="Path 3725" class="cls-11" d="M160.816,216.85l-.056,19.977S161.155,223.769,160.816,216.85Z" transform="translate(-147.801 -171.241)"/>
    <path id="Path_3726" data-name="Path 3726" class="cls-15" d="M159.966,236.257h0a.25.25,0,0,1-.246-.253l.056-19.974a.25.25,0,0,1,.234-.25.257.257,0,0,1,.257.234c.335,6.849-.054,19.864-.059,20a.248.248,0,0,1-.243.248Z" transform="translate(-147.004 -170.421)"/>
    <path id="Path_3729" data-name="Path 3729" class="cls-11" d="M239.57,265.937l4.355-2.53L244,235.55l-4.352,2.532Z" transform="translate(-183.51 -180.433)"/>
    <path id="Path_3730" data-name="Path 3730" class="cls-16" d="M344.18,287.334a.266.266,0,0,1-.126-.033.25.25,0,0,1-.124-.218l.077-27.846a.255.255,0,0,1,.126-.215l4.352-2.532a.255.255,0,0,1,.253,0,.25.25,0,0,1,.124.218l-.08,27.846a.248.248,0,0,1-.124.215L344.3,287.3A.257.257,0,0,1,344.18,287.334Zm.328-27.961-.094,27.275,3.854-2.239.077-27.275Z" transform="translate(-288.109 -201.579)"/>
    <path id="Path_3731" data-name="Path 3731" class="cls-11" d="M228.113,186.5l4.355-2.532-6.823-17.618-4.355,2.532Z" transform="translate(-169.508 -127.426)"/>
    <path id="Path_3732" data-name="Path 3732" class="cls-6" d="M332.676,207.861a.234.234,0,0,1-.082-.014.255.255,0,0,1-.152-.147l-6.824-17.618a.255.255,0,0,1,.108-.307l4.355-2.53a.234.234,0,0,1,.208-.019.253.253,0,0,1,.152.145l6.824,17.618a.253.253,0,0,1-.108.307l-4.355,2.53A.234.234,0,0,1,332.676,207.861ZM326.164,190.1l6.641,17.145,3.915-2.275-6.641-17.145Z" transform="translate(-274.07 -148.537)"/>
    <path id="Path_3733" data-name="Path 3733" class="cls-11" d="M198.7,177.17l-6.9,9.695,2.469,1.423-.08,27.858,8.789,5.073.08-27.856,2.466,1.425Z" transform="translate(-146.918 -135.714)"/>
    <path id="Path_3734" data-name="Path 3734" class="cls-17" d="M307.6,242.578a.267.267,0,0,1-.126-.033l-8.787-5.076a.234.234,0,0,1-.126-.215l.08-27.713-2.34-1.353a.25.25,0,0,1-.08-.36l6.9-9.695a.25.25,0,0,1,.438.054l6.809,17.618a.255.255,0,0,1-.07.281.25.25,0,0,1-.288.026l-2.094-1.207-.082,27.425a.255.255,0,0,1-.126.215A.264.264,0,0,1,307.6,242.578Zm-8.55-5.478,8.288,4.785.077-27.423a.252.252,0,0,1,.377-.218l1.853,1.072-6.4-16.525-6.472,9.093,2.23,1.287a.253.253,0,0,1,.126.218Z" transform="translate(-251.53 -156.823)"/>
    <path id="Path_3735" data-name="Path 3735" class="cls-11" d="M307.537,246.89l-.077,27.858S308.01,256.54,307.537,246.89Z" transform="translate(-260.173 -194.251)"/>
    <path id="Path_3736" data-name="Path 3736" class="cls-18" d="M306.656,274.207h0a.25.25,0,0,1-.246-.25l.077-27.846a.25.25,0,1,1,.5,0c.468,9.547-.073,27.694-.08,27.877A.248.248,0,0,1,306.656,274.207Z" transform="translate(-259.369 -193.462)"/>
  </g>
</svg>
