<svg xmlns="http://www.w3.org/2000/svg" xmlns:xlink="http://www.w3.org/1999/xlink" viewBox="-4945.946 671 505.94 393.81">
  <defs>
    <style>
      .cls-1, .cls-13, .cls-15, .cls-20, .cls-21, .cls-22, .cls-6 {
        fill: #fff;
      }

      .cls-19, .cls-2, .cls-4, .cls-9 {
        fill: none;
      }

      .cls-2, .cls-4 {
        stroke: #c5d9f1;
      }

      .cls-19, .cls-2, .cls-20, .cls-22 {
        stroke-miterlimit: 10;
      }

      .cls-15, .cls-17, .cls-19, .cls-2, .cls-20, .cls-21 {
        stroke-width: 2px;
      }

      .cls-3 {
        clip-path: url(#clip-path);
      }

      .cls-14, .cls-5, .cls-8 {
        fill: #c5d9f1;
      }

      .cls-5 {
        opacity: 0.56;
      }

      .cls-15, .cls-16, .cls-17, .cls-19, .cls-20, .cls-21, .cls-22, .cls-23, .cls-6 {
        stroke: #377bd0;
      }

      .cls-6 {
        stroke-width: 0.8px;
      }

      .cls-7 {
        clip-path: url(#clip-path-2);
      }

      .cls-8 {
        font-size: 14px;
        font-family: Lato-Regular, Lato;
      }

      .cls-9 {
        stroke: #fff;
        stroke-width: 3px;
      }

      .cls-10, .cls-11, .cls-12, .cls-16, .cls-17, .cls-23 {
        fill: #377bd0;
      }

      .cls-10 {
        opacity: 0.39;
      }

      .cls-12, .cls-13 {
        stroke: rgba(0,0,0,0);
      }

      .cls-16 {
        stroke-width: 0.7px;
      }

      .cls-18 {
        fill: rgba(57,109,174,0);
      }

      .cls-19, .cls-20, .cls-21 {
        stroke-linecap: round;
      }

      .cls-24 {
        filter: url(#Path_3269);
      }

      .cls-25 {
        filter: url(#Path_2587);
      }

      .cls-26 {
        filter: url(#Path_2588);
      }
    </style>
    <filter id="Path_2588" x="-4721.088" y="611" width="262.286" height="373.753" filterUnits="userSpaceOnUse">
      <feOffset input="SourceAlpha"/>
      <feGaussianBlur stdDeviation="20" result="blur"/>
      <feFlood flood-color="#377bd0" flood-opacity="0.141"/>
      <feComposite operator="in" in2="blur"/>
      <feComposite in="SourceGraphic"/>
    </filter>
    <filter id="Path_2587" x="-4683" y="674.865" width="178.286" height="289.753" filterUnits="userSpaceOnUse">
      <feOffset dy="3" input="SourceAlpha"/>
      <feGaussianBlur stdDeviation="6" result="blur-2"/>
      <feFlood flood-color="#377bd0" flood-opacity="0.38"/>
      <feComposite operator="in" in2="blur-2"/>
      <feComposite in="SourceGraphic"/>
    </filter>
    <clipPath id="clip-path">
      <g class="cls-26" transform="matrix(1, 0, 0, 1, 0, 0)">
        <path id="Path_2588-2" data-name="Path 2588" class="cls-1" d="M17.711,0H124.575c9.782,0,17.711,7.292,17.711,16.287v221.18c0,8.995-7.93,16.287-17.711,16.287H17.711C7.93,253.753,0,246.462,0,237.467V16.287C0,7.292,7.93,0,17.711,0Z" transform="translate(142.29 253.75) rotate(180)"/>
      </g>
    </clipPath>
    <filter id="Path_3269" x="-4794.15" y="678.85" width="248.8" height="248.8" filterUnits="userSpaceOnUse">
      <feOffset dy="3" input="SourceAlpha"/>
      <feGaussianBlur stdDeviation="8" result="blur-3"/>
      <feFlood flood-color="#377bd0" flood-opacity="0.278"/>
      <feComposite operator="in" in2="blur-3"/>
      <feComposite in="SourceGraphic"/>
    </filter>
    <clipPath id="clip-path-2">
      <circle id="Ellipse_393" data-name="Ellipse 393" class="cls-1" cx="100" cy="100" r="100" transform="translate(1008 1170)"/>
    </clipPath>
  </defs>
  <g id="Group_3287" data-name="Group 3287" transform="translate(-5782 -167)">
    <g id="Group_3214" data-name="Group 3214" transform="translate(1 -590)">
      <g id="Group_2405" data-name="Group 2405">
        <rect id="Rectangle_2250" data-name="Rectangle 2250" class="cls-2" width="27.774" height="52.825" transform="translate(862.616 1767.375)"/>
        <rect id="Rectangle_2251" data-name="Rectangle 2251" class="cls-2" width="27.774" height="43.716" transform="translate(890.391 1776.435)"/>
        <rect id="Rectangle_2252" data-name="Rectangle 2252" class="cls-2" width="27.774" height="52.825" transform="translate(918.165 1767.375)"/>
        <line id="Line_779" data-name="Line 779" class="cls-2" x2="11.733" transform="translate(898.411 1784.009)"/>
        <line id="Line_780" data-name="Line 780" class="cls-2" x2="11.733" transform="translate(898.411 1792.624)"/>
        <line id="Line_781" data-name="Line 781" class="cls-2" x2="11.733" transform="translate(898.411 1801.288)"/>
        <line id="Line_782" data-name="Line 782" class="cls-2" x2="11.733" transform="translate(898.411 1809.902)"/>
        <line id="Line_783" data-name="Line 783" class="cls-2" y2="8.119" transform="translate(927.126 1774.256)"/>
        <line id="Line_784" data-name="Line 784" class="cls-2" y2="8.119" transform="translate(936.978 1774.256)"/>
        <line id="Line_785" data-name="Line 785" class="cls-2" y2="8.119" transform="translate(927.126 1789.703)"/>
        <line id="Line_786" data-name="Line 786" class="cls-2" y2="8.119" transform="translate(936.978 1789.703)"/>
        <line id="Line_787" data-name="Line 787" class="cls-2" y2="8.119" transform="translate(927.126 1805.149)"/>
        <line id="Line_788" data-name="Line 788" class="cls-2" y2="8.119" transform="translate(936.978 1805.149)"/>
        <line id="Line_789" data-name="Line 789" class="cls-2" y2="8.119" transform="translate(871.528 1774.256)"/>
        <line id="Line_790" data-name="Line 790" class="cls-2" y2="8.119" transform="translate(881.43 1774.256)"/>
        <line id="Line_791" data-name="Line 791" class="cls-2" y2="8.119" transform="translate(871.528 1789.703)"/>
        <line id="Line_792" data-name="Line 792" class="cls-2" y2="8.119" transform="translate(881.43 1789.703)"/>
        <line id="Line_793" data-name="Line 793" class="cls-2" y2="8.119" transform="translate(871.528 1805.149)"/>
        <line id="Line_794" data-name="Line 794" class="cls-2" y2="8.119" transform="translate(881.43 1805.149)"/>
        <path id="Path_3263" data-name="Path 3263" class="cls-2" d="M744.774,337.925V325.3L717,337.925Z" transform="translate(201.165 1429.45)"/>
        <path id="Path_3264" data-name="Path 3264" class="cls-2" d="M632.574,337.925V325.3L604.8,337.925Z" transform="translate(257.816 1429.45)"/>
      </g>
      <g id="Group_2401" data-name="Group 2401">
        <rect id="Rectangle_2221" data-name="Rectangle 2221" class="cls-2" width="38.27" height="11.783" transform="translate(969.385 1689.944)"/>
        <rect id="Rectangle_2222" data-name="Rectangle 2222" class="cls-2" width="42.726" height="123.474" transform="translate(967.158 1696.726)"/>
        <rect id="Rectangle_2223" data-name="Rectangle 2223" class="cls-2" width="11.535" height="11.535" transform="translate(974.534 1704.351)"/>
        <rect id="Rectangle_2224" data-name="Rectangle 2224" class="cls-2" width="11.535" height="11.535" transform="translate(991.219 1704.351)"/>
        <rect id="Rectangle_2225" data-name="Rectangle 2225" class="cls-2" width="11.535" height="11.535" transform="translate(974.534 1720.886)"/>
        <rect id="Rectangle_2226" data-name="Rectangle 2226" class="cls-2" width="11.535" height="11.535" transform="translate(991.219 1720.886)"/>
        <rect id="Rectangle_2227" data-name="Rectangle 2227" class="cls-2" width="11.535" height="11.535" transform="translate(974.534 1737.422)"/>
        <rect id="Rectangle_2228" data-name="Rectangle 2228" class="cls-2" width="11.535" height="11.535" transform="translate(991.219 1737.422)"/>
        <rect id="Rectangle_2229" data-name="Rectangle 2229" class="cls-2" width="11.535" height="11.535" transform="translate(974.534 1753.908)"/>
        <rect id="Rectangle_2230" data-name="Rectangle 2230" class="cls-2" width="11.535" height="11.535" transform="translate(991.219 1753.908)"/>
        <rect id="Rectangle_2231" data-name="Rectangle 2231" class="cls-2" width="11.535" height="11.535" transform="translate(974.534 1770.444)"/>
        <rect id="Rectangle_2232" data-name="Rectangle 2232" class="cls-2" width="11.535" height="11.535" transform="translate(991.219 1770.444)"/>
        <rect id="Rectangle_2233" data-name="Rectangle 2233" class="cls-2" width="11.535" height="11.535" transform="translate(974.534 1786.98)"/>
        <rect id="Rectangle_2234" data-name="Rectangle 2234" class="cls-2" width="11.535" height="11.535" transform="translate(991.219 1786.98)"/>
        <path id="Path_3261" data-name="Path 3261" class="cls-2" d="M178,177.688,196.962,161.4l19.011,16.288Z" transform="translate(791.534 1512.255)"/>
        <line id="Line_708" data-name="Line 708" class="cls-2" y1="10.001" transform="translate(988.496 1663.655)"/>
      </g>
      <g id="Group_2404" data-name="Group 2404" transform="translate(0 1)">
        <ellipse id="Ellipse_395" data-name="Ellipse 395" class="cls-2" cx="7.657" cy="10.602" rx="7.657" ry="10.602" transform="translate(836.053 1789.31)"/>
        <line id="Line_833" data-name="Line 833" class="cls-2" y2="9.228" transform="translate(843.71 1810.58)"/>
      </g>
      <g id="Group_2402" data-name="Group 2402">
        <rect id="Rectangle_2208" data-name="Rectangle 2208" class="cls-2" width="48.062" height="111.944" transform="translate(1020.327 1707.789)"/>
        <path id="Path_3259" data-name="Path 3259" class="cls-2" d="M473.062,196.171,425,157.5v38.671Z" transform="translate(595.327 1511.618)"/>
        <path id="Path_3260" data-name="Path 3260" class="cls-2" d="M484.5,202.828,462.6,185.2v17.628Z" transform="translate(565.009 1497.83)"/>
        <rect id="Rectangle_2209" data-name="Rectangle 2209" class="cls-2" width="12.254" height="12.254" transform="translate(1049.004 1714.82)"/>
        <rect id="Rectangle_2210" data-name="Rectangle 2210" class="cls-2" width="12.254" height="12.254" transform="translate(1028.614 1714.82)"/>
        <rect id="Rectangle_2211" data-name="Rectangle 2211" class="cls-2" width="12.254" height="12.254" transform="translate(1049.004 1733.854)"/>
        <rect id="Rectangle_2212" data-name="Rectangle 2212" class="cls-2" width="12.254" height="12.254" transform="translate(1028.614 1733.854)"/>
        <rect id="Rectangle_2213" data-name="Rectangle 2213" class="cls-2" width="12.254" height="12.254" transform="translate(1049.004 1752.888)"/>
        <rect id="Rectangle_2214" data-name="Rectangle 2214" class="cls-2" width="12.254" height="12.254" transform="translate(1028.614 1752.888)"/>
        <rect id="Rectangle_2215" data-name="Rectangle 2215" class="cls-2" width="12.254" height="12.254" transform="translate(1049.004 1771.922)"/>
        <rect id="Rectangle_2216" data-name="Rectangle 2216" class="cls-2" width="12.254" height="12.254" transform="translate(1028.614 1771.922)"/>
        <rect id="Rectangle_2217" data-name="Rectangle 2217" class="cls-2" width="12.254" height="12.254" transform="translate(1049.004 1790.956)"/>
        <rect id="Rectangle_2218" data-name="Rectangle 2218" class="cls-2" width="12.254" height="12.254" transform="translate(1028.614 1790.956)"/>
      </g>
      <g id="Group_2403" data-name="Group 2403" transform="translate(0 1)">
        <ellipse id="Ellipse_398" data-name="Ellipse 398" class="cls-2" cx="7.511" cy="10.546" rx="7.511" ry="10.546" transform="translate(1100.103 1789.946)"/>
        <line id="Line_836" data-name="Line 836" class="cls-2" y2="9.162" transform="translate(1107.614 1811.038)"/>
      </g>
    </g>
    <g id="Group_3216" data-name="Group 3216" transform="translate(-1 -594)">
      <g id="Group_2210" data-name="Group 2210" transform="translate(61 300)">
        <g id="Group_2203" data-name="Group 2203" transform="translate(1057 1132)">
          <g id="Group_2202" data-name="Group 2202" transform="translate(0 0)">
            <g class="cls-25" transform="matrix(1, 0, 0, 1, 4665, -671)">
              <path id="Path_2587-2" data-name="Path 2587" class="cls-1" d="M17.711,0H124.575c9.782,0,17.711,7.292,17.711,16.287v221.18c0,8.995-7.93,16.287-17.711,16.287H17.711C7.93,253.753,0,246.462,0,237.467V16.287C0,7.292,7.93,0,17.711,0Z" transform="translate(-4522.71 943.62) rotate(180)"/>
            </g>
          </g>
        </g>
        <path id="Path_3072" data-name="Path 3072" class="cls-4" d="M12.429.5A11.974,11.974,0,0,0,5.8,22.414a11.724,11.724,0,0,0,6.63,2.017A11.965,11.965,0,0,0,12.429.5Z" transform="translate(1118 1363.781)"/>
      </g>
      <rect id="Rectangle_2198" data-name="Rectangle 2198" class="cls-5" width="104.127" height="11" rx="5.5" transform="translate(1142 1510)"/>
      <rect id="Rectangle_2199" data-name="Rectangle 2199" class="cls-5" width="104.127" height="11" rx="5.5" transform="translate(1142 1533)"/>
      <rect id="Rectangle_2200" data-name="Rectangle 2200" class="cls-5" width="104.127" height="11" rx="5.5" transform="translate(1142 1555)"/>
      <rect id="Rectangle_2201" data-name="Rectangle 2201" class="cls-5" width="104.127" height="11" rx="5.5" transform="translate(1142 1578)"/>
      <rect id="Rectangle_2202" data-name="Rectangle 2202" class="cls-5" width="104.127" height="11" rx="5.5" transform="translate(1142 1602)"/>
    </g>
    <g class="cls-24" transform="matrix(1, 0, 0, 1, 5782, 167)">
      <path id="Path_3269-2" data-name="Path 3269" class="cls-6" d="M100.25.25a99.9,99.9,0,1,1-15.5,1.194A100,100,0,0,1,100.25.25Z" transform="translate(-4770 700)"/>
    </g>
    <g id="Mask_Group_123" data-name="Mask Group 123" class="cls-7" transform="translate(4 -303)">
      <g id="Group_2233" data-name="Group 2233" transform="translate(1015.811 1134.575)">
        <text id="Su_Mo_Tu_We_Th_Fr_Sa" data-name="Su     Mo    Tu     We    Th      Fr      Sa" class="cls-8" transform="translate(27.857 14)"><tspan x="0" y="0" xml:space="preserve">Su     Mo    Tu     We    Th      Fr      Sa</tspan></text>
        <g id="Group_2200" data-name="Group 2200" transform="translate(57.299 63.397)">
          <path id="Path_1796" data-name="Path 1796" class="cls-9" d="M5689.176,947.4l-4.954,8.941-3.153-3.866-.268-.432" transform="translate(-5680.801 -947.4)"/>
        </g>
        <path id="Path_3073" data-name="Path 3073" class="cls-10" d="M0,0H110.493V30.44H0Z" transform="translate(25.744 153.981)"/>
        <path id="Path_5001" data-name="Path 5001" class="cls-11" d="M0,0H35.9V30.437H0Z" transform="translate(25.587 91.529)"/>
        <path id="Path_5002" data-name="Path 5002" class="cls-10" d="M0,0H65.174V30.437H0Z" transform="translate(136.237 91.529)"/>
        <path id="Path_5107" data-name="Path 5107" class="cls-12" d="M8.25-5.37a8.694,8.694,0,0,1-.3,2.441,5.1,5.1,0,0,1-.829,1.706,3.33,3.33,0,0,1-1.241,1,3.621,3.621,0,0,1-1.534.33,3.589,3.589,0,0,1-1.534-.33,3.347,3.347,0,0,1-1.234-1A5.049,5.049,0,0,1,.75-2.929,8.8,8.8,0,0,1,.45-5.37a8.837,8.837,0,0,1,.3-2.445,5.09,5.09,0,0,1,.825-1.714,3.334,3.334,0,0,1,1.234-1.009,3.589,3.589,0,0,1,1.534-.33,3.621,3.621,0,0,1,1.534.33A3.317,3.317,0,0,1,7.118-9.529a5.141,5.141,0,0,1,.829,1.714A8.734,8.734,0,0,1,8.25-5.37Zm-1.387,0a8.784,8.784,0,0,0-.206-2.066A4.143,4.143,0,0,0,6.1-8.783,2.1,2.1,0,0,0,5.3-9.514a2.162,2.162,0,0,0-.952-.221,2.162,2.162,0,0,0-.953.221,2.069,2.069,0,0,0-.8.731,4.2,4.2,0,0,0-.551,1.346A8.784,8.784,0,0,0,1.83-5.37a8.735,8.735,0,0,0,.206,2.063,4.2,4.2,0,0,0,.551,1.342,2.069,2.069,0,0,0,.8.731,2.162,2.162,0,0,0,.953.221A2.162,2.162,0,0,0,5.3-1.234,2.1,2.1,0,0,0,6.1-1.965a4.143,4.143,0,0,0,.555-1.342A8.736,8.736,0,0,0,6.863-5.37Zm9.472,4.35V0h-5.76V-1.02h2.3V-8.347q0-.33.022-.668L10.988-7.373a.432.432,0,0,1-.2.1.488.488,0,0,1-.18,0,.429.429,0,0,1-.154-.06.381.381,0,0,1-.109-.1L9.93-8l3.2-2.767H14.22v9.75ZM44.85-5.37a8.693,8.693,0,0,1-.3,2.441,5.1,5.1,0,0,1-.829,1.706,3.33,3.33,0,0,1-1.241,1,3.621,3.621,0,0,1-1.534.33,3.589,3.589,0,0,1-1.534-.33,3.347,3.347,0,0,1-1.234-1,5.049,5.049,0,0,1-.825-1.706,8.8,8.8,0,0,1-.3-2.441,8.837,8.837,0,0,1,.3-2.445,5.09,5.09,0,0,1,.825-1.714,3.334,3.334,0,0,1,1.234-1.009,3.589,3.589,0,0,1,1.534-.33,3.621,3.621,0,0,1,1.534.33,3.317,3.317,0,0,1,1.241,1.009,5.141,5.141,0,0,1,.829,1.714A8.734,8.734,0,0,1,44.85-5.37Zm-1.388,0a8.784,8.784,0,0,0-.206-2.066A4.143,4.143,0,0,0,42.7-8.783a2.1,2.1,0,0,0-.806-.731,2.162,2.162,0,0,0-.952-.221,2.162,2.162,0,0,0-.952.221,2.069,2.069,0,0,0-.8.731,4.2,4.2,0,0,0-.551,1.346A8.784,8.784,0,0,0,38.43-5.37a8.735,8.735,0,0,0,.206,2.063,4.2,4.2,0,0,0,.551,1.342,2.069,2.069,0,0,0,.8.731,2.162,2.162,0,0,0,.952.221,2.162,2.162,0,0,0,.952-.221,2.1,2.1,0,0,0,.806-.731,4.143,4.143,0,0,0,.555-1.342A8.735,8.735,0,0,0,43.462-5.37Zm9.24,4.1a.466.466,0,0,1,.345.128.447.447,0,0,1,.127.33V0h-7.17V-.458a.785.785,0,0,1,.06-.292.826.826,0,0,1,.188-.278l3.443-3.458q.427-.435.78-.836a5.846,5.846,0,0,0,.6-.806,3.857,3.857,0,0,0,.382-.821,2.864,2.864,0,0,0,.135-.889,2.123,2.123,0,0,0-.15-.829,1.625,1.625,0,0,0-.409-.589,1.7,1.7,0,0,0-.611-.349,2.4,2.4,0,0,0-.757-.116,2.292,2.292,0,0,0-.757.12,2.035,2.035,0,0,0-.611.334,1.965,1.965,0,0,0-.446.506,2.024,2.024,0,0,0-.255.645.6.6,0,0,1-.244.349.7.7,0,0,1-.431.049l-.7-.12a3.9,3.9,0,0,1,.409-1.3,3.15,3.15,0,0,1,.765-.949,3.256,3.256,0,0,1,1.054-.581,4.009,4.009,0,0,1,1.282-.2,3.917,3.917,0,0,1,1.275.2,2.978,2.978,0,0,1,1.028.589,2.725,2.725,0,0,1,.682.941,3.063,3.063,0,0,1,.248,1.26,3.346,3.346,0,0,1-.18,1.114,4.417,4.417,0,0,1-.487.979,7.565,7.565,0,0,1-.709.907q-.4.443-.851.893L47.9-1.088a5.591,5.591,0,0,1,.607-.131,3.785,3.785,0,0,1,.593-.049ZM81.45-5.37a8.693,8.693,0,0,1-.3,2.441,5.1,5.1,0,0,1-.829,1.706,3.33,3.33,0,0,1-1.241,1,3.621,3.621,0,0,1-1.534.33,3.588,3.588,0,0,1-1.534-.33,3.347,3.347,0,0,1-1.234-1,5.049,5.049,0,0,1-.825-1.706,8.8,8.8,0,0,1-.3-2.441,8.836,8.836,0,0,1,.3-2.445,5.091,5.091,0,0,1,.825-1.714,3.334,3.334,0,0,1,1.234-1.009,3.589,3.589,0,0,1,1.534-.33,3.621,3.621,0,0,1,1.534.33,3.317,3.317,0,0,1,1.241,1.009,5.141,5.141,0,0,1,.829,1.714A8.734,8.734,0,0,1,81.45-5.37Zm-1.387,0a8.784,8.784,0,0,0-.206-2.066A4.143,4.143,0,0,0,79.3-8.783a2.1,2.1,0,0,0-.806-.731,2.162,2.162,0,0,0-.952-.221,2.162,2.162,0,0,0-.952.221,2.069,2.069,0,0,0-.8.731,4.2,4.2,0,0,0-.551,1.346A8.784,8.784,0,0,0,75.03-5.37a8.736,8.736,0,0,0,.206,2.063,4.2,4.2,0,0,0,.551,1.342,2.069,2.069,0,0,0,.8.731,2.162,2.162,0,0,0,.952.221,2.162,2.162,0,0,0,.952-.221,2.1,2.1,0,0,0,.806-.731,4.143,4.143,0,0,0,.555-1.342A8.735,8.735,0,0,0,80.062-5.37Zm2.812-2.468a3.953,3.953,0,0,1,.4-1.3,3.1,3.1,0,0,1,.761-.949,3.249,3.249,0,0,1,1.058-.581,4.043,4.043,0,0,1,1.286-.2,3.916,3.916,0,0,1,1.26.2,2.935,2.935,0,0,1,.994.555,2.515,2.515,0,0,1,.649.87,2.7,2.7,0,0,1,.232,1.133,2.926,2.926,0,0,1-.131.911,2.169,2.169,0,0,1-.375.7,2.275,2.275,0,0,1-.589.51,3.515,3.515,0,0,1-.772.345,2.868,2.868,0,0,1,1.579.926,2.528,2.528,0,0,1,.529,1.639,3.075,3.075,0,0,1-.281,1.335A3,3,0,0,1,88.71-.739,3.439,3.439,0,0,1,87.574-.1,4.282,4.282,0,0,1,86.182.12,4.425,4.425,0,0,1,84.72-.094a3.033,3.033,0,0,1-1.027-.589A3.135,3.135,0,0,1,83-1.571a6.656,6.656,0,0,1-.458-1.114l.578-.24a.713.713,0,0,1,.439-.053.429.429,0,0,1,.311.247q.1.21.244.5a2.36,2.36,0,0,0,.4.563,2.153,2.153,0,0,0,.649.457,2.331,2.331,0,0,0,1,.188,2.462,2.462,0,0,0,.986-.184,2.149,2.149,0,0,0,.705-.476,2,2,0,0,0,.424-.653,1.925,1.925,0,0,0,.143-.712,2.656,2.656,0,0,0-.113-.8,1.331,1.331,0,0,0-.42-.622,2.2,2.2,0,0,0-.844-.413,5.232,5.232,0,0,0-1.376-.15v-.968a4.367,4.367,0,0,0,1.174-.15,2.232,2.232,0,0,0,.787-.39,1.459,1.459,0,0,0,.442-.593,2.033,2.033,0,0,0,.139-.765,2.064,2.064,0,0,0-.146-.81,1.556,1.556,0,0,0-.4-.57,1.679,1.679,0,0,0-.6-.337,2.442,2.442,0,0,0-.754-.113,2.3,2.3,0,0,0-.754.12,2.025,2.025,0,0,0-.615.334,1.965,1.965,0,0,0-.446.506,2.024,2.024,0,0,0-.255.645A.649.649,0,0,1,84-7.766a.665.665,0,0,1-.424.049ZM118.05-5.37a8.693,8.693,0,0,1-.3,2.441,5.1,5.1,0,0,1-.829,1.706,3.33,3.33,0,0,1-1.241,1,3.621,3.621,0,0,1-1.534.33,3.588,3.588,0,0,1-1.534-.33,3.347,3.347,0,0,1-1.234-1,5.049,5.049,0,0,1-.825-1.706,8.8,8.8,0,0,1-.3-2.441,8.836,8.836,0,0,1,.3-2.445,5.091,5.091,0,0,1,.825-1.714,3.334,3.334,0,0,1,1.234-1.009,3.589,3.589,0,0,1,1.534-.33,3.621,3.621,0,0,1,1.534.33,3.317,3.317,0,0,1,1.241,1.009,5.141,5.141,0,0,1,.829,1.714A8.734,8.734,0,0,1,118.05-5.37Zm-1.387,0a8.784,8.784,0,0,0-.206-2.066,4.143,4.143,0,0,0-.555-1.346,2.1,2.1,0,0,0-.806-.731,2.162,2.162,0,0,0-.952-.221,2.162,2.162,0,0,0-.952.221,2.069,2.069,0,0,0-.8.731,4.2,4.2,0,0,0-.551,1.346,8.784,8.784,0,0,0-.206,2.066,8.736,8.736,0,0,0,.206,2.063,4.2,4.2,0,0,0,.551,1.342,2.069,2.069,0,0,0,.8.731,2.162,2.162,0,0,0,.952.221,2.162,2.162,0,0,0,.952-.221,2.1,2.1,0,0,0,.806-.731,4.143,4.143,0,0,0,.555-1.342A8.735,8.735,0,0,0,116.662-5.37Zm7.312,1.493V-8.31q0-.195.015-.427t.045-.472L120.12-3.878Zm2.8,0v.765a.3.3,0,0,1-.071.2.277.277,0,0,1-.221.082h-1.335V0h-1.17V-2.828H119.2a.4.4,0,0,1-.259-.086.378.378,0,0,1-.139-.214l-.135-.682,5.228-6.938h1.245v6.87ZM154.65-5.37a8.693,8.693,0,0,1-.3,2.441,5.1,5.1,0,0,1-.829,1.706,3.33,3.33,0,0,1-1.241,1,3.621,3.621,0,0,1-1.534.33,3.589,3.589,0,0,1-1.534-.33,3.347,3.347,0,0,1-1.234-1,5.049,5.049,0,0,1-.825-1.706,8.8,8.8,0,0,1-.3-2.441,8.837,8.837,0,0,1,.3-2.445,5.091,5.091,0,0,1,.825-1.714,3.334,3.334,0,0,1,1.234-1.009,3.589,3.589,0,0,1,1.534-.33,3.621,3.621,0,0,1,1.534.33,3.317,3.317,0,0,1,1.241,1.009,5.141,5.141,0,0,1,.829,1.714A8.734,8.734,0,0,1,154.65-5.37Zm-1.387,0a8.784,8.784,0,0,0-.206-2.066,4.143,4.143,0,0,0-.555-1.346,2.1,2.1,0,0,0-.806-.731,2.162,2.162,0,0,0-.952-.221,2.162,2.162,0,0,0-.952.221,2.069,2.069,0,0,0-.8.731,4.2,4.2,0,0,0-.551,1.346,8.784,8.784,0,0,0-.206,2.066,8.736,8.736,0,0,0,.206,2.063,4.2,4.2,0,0,0,.551,1.342,2.069,2.069,0,0,0,.8.731,2.162,2.162,0,0,0,.952.221,2.162,2.162,0,0,0,.952-.221,2.1,2.1,0,0,0,.806-.731,4.143,4.143,0,0,0,.555-1.342A8.736,8.736,0,0,0,153.262-5.37Zm4.552-1.32a7.416,7.416,0,0,1,1.545-.18,4.127,4.127,0,0,1,1.485.248,3.008,3.008,0,0,1,1.076.682,2.863,2.863,0,0,1,.653,1.028,3.659,3.659,0,0,1,.221,1.29,3.878,3.878,0,0,1-.3,1.545A3.5,3.5,0,0,1,161.681-.9a3.594,3.594,0,0,1-1.226.754,4.329,4.329,0,0,1-1.522.263,4.3,4.3,0,0,1-.908-.094,4.687,4.687,0,0,1-.814-.251,4.733,4.733,0,0,1-.7-.36,4.032,4.032,0,0,1-.57-.428l.413-.57a.411.411,0,0,1,.352-.2.658.658,0,0,1,.338.116q.188.116.457.259a3.917,3.917,0,0,0,.634.259,2.86,2.86,0,0,0,.866.116,2.706,2.706,0,0,0,1.013-.18,2.191,2.191,0,0,0,.772-.514,2.269,2.269,0,0,0,.495-.8,2.98,2.98,0,0,0,.173-1.043,2.658,2.658,0,0,0-.146-.908,1.782,1.782,0,0,0-.443-.69,2.03,2.03,0,0,0-.739-.443,3.085,3.085,0,0,0-1.035-.157,5.551,5.551,0,0,0-.844.067,5.622,5.622,0,0,0-.9.218l-.84-.247.863-5.025h5.092v.585a.65.65,0,0,1-.176.469.815.815,0,0,1-.6.184H158.31Z" transform="translate(114.427 73.378)"/>
        <path id="Path_5106" data-name="Path 5106" class="cls-12" d="M8.25-5.37a8.694,8.694,0,0,1-.3,2.441,5.1,5.1,0,0,1-.829,1.706,3.33,3.33,0,0,1-1.241,1,3.621,3.621,0,0,1-1.534.33,3.589,3.589,0,0,1-1.534-.33,3.347,3.347,0,0,1-1.234-1A5.049,5.049,0,0,1,.75-2.929,8.8,8.8,0,0,1,.45-5.37a8.837,8.837,0,0,1,.3-2.445,5.09,5.09,0,0,1,.825-1.714,3.334,3.334,0,0,1,1.234-1.009,3.589,3.589,0,0,1,1.534-.33,3.621,3.621,0,0,1,1.534.33A3.317,3.317,0,0,1,7.118-9.529a5.141,5.141,0,0,1,.829,1.714A8.734,8.734,0,0,1,8.25-5.37Zm-1.387,0a8.784,8.784,0,0,0-.206-2.066A4.143,4.143,0,0,0,6.1-8.783,2.1,2.1,0,0,0,5.3-9.514a2.162,2.162,0,0,0-.952-.221,2.162,2.162,0,0,0-.953.221,2.069,2.069,0,0,0-.8.731,4.2,4.2,0,0,0-.551,1.346A8.784,8.784,0,0,0,1.83-5.37a8.735,8.735,0,0,0,.206,2.063,4.2,4.2,0,0,0,.551,1.342,2.069,2.069,0,0,0,.8.731,2.162,2.162,0,0,0,.953.221A2.162,2.162,0,0,0,5.3-1.234,2.1,2.1,0,0,0,6.1-1.965a4.143,4.143,0,0,0,.555-1.342A8.736,8.736,0,0,0,6.863-5.37ZM13.035-.99a2.655,2.655,0,0,0,.979-.173,2.2,2.2,0,0,0,.75-.48,2.122,2.122,0,0,0,.48-.728,2.432,2.432,0,0,0,.169-.915,2.6,2.6,0,0,0-.165-.949,2.008,2.008,0,0,0-.469-.72,2.057,2.057,0,0,0-.724-.454,2.608,2.608,0,0,0-.923-.158,2.483,2.483,0,0,0-.975.184,2.231,2.231,0,0,0-.739.495,2.15,2.15,0,0,0-.465.72,2.3,2.3,0,0,0-.161.851,2.838,2.838,0,0,0,.15.945,2.05,2.05,0,0,0,.439.735,1.965,1.965,0,0,0,.7.476A2.508,2.508,0,0,0,13.035-.99Zm-.78-5.73q-.143.18-.274.349t-.251.334a3.109,3.109,0,0,1,.84-.4,3.34,3.34,0,0,1,1-.142,3.515,3.515,0,0,1,1.23.214,2.924,2.924,0,0,1,1.009.623,2.977,2.977,0,0,1,.686,1,3.433,3.433,0,0,1,.255,1.361A3.5,3.5,0,0,1,16.478-2a3.373,3.373,0,0,1-.754,1.11,3.485,3.485,0,0,1-1.162.743,4.014,4.014,0,0,1-1.5.27,4,4,0,0,1-1.47-.259,3.125,3.125,0,0,1-1.121-.735,3.264,3.264,0,0,1-.713-1.155A4.349,4.349,0,0,1,9.51-3.548a4.151,4.151,0,0,1,.311-1.5,7.323,7.323,0,0,1,.994-1.706l2.73-3.668a.843.843,0,0,1,.289-.229.92.92,0,0,1,.424-.094h1.185ZM44.85-5.37a8.693,8.693,0,0,1-.3,2.441,5.1,5.1,0,0,1-.829,1.706,3.33,3.33,0,0,1-1.241,1,3.621,3.621,0,0,1-1.534.33,3.589,3.589,0,0,1-1.534-.33,3.347,3.347,0,0,1-1.234-1,5.049,5.049,0,0,1-.825-1.706,8.8,8.8,0,0,1-.3-2.441,8.837,8.837,0,0,1,.3-2.445,5.09,5.09,0,0,1,.825-1.714,3.334,3.334,0,0,1,1.234-1.009,3.589,3.589,0,0,1,1.534-.33,3.621,3.621,0,0,1,1.534.33,3.317,3.317,0,0,1,1.241,1.009,5.141,5.141,0,0,1,.829,1.714A8.734,8.734,0,0,1,44.85-5.37Zm-1.388,0a8.784,8.784,0,0,0-.206-2.066A4.143,4.143,0,0,0,42.7-8.783a2.1,2.1,0,0,0-.806-.731,2.162,2.162,0,0,0-.952-.221,2.162,2.162,0,0,0-.952.221,2.069,2.069,0,0,0-.8.731,4.2,4.2,0,0,0-.551,1.346A8.784,8.784,0,0,0,38.43-5.37a8.735,8.735,0,0,0,.206,2.063,4.2,4.2,0,0,0,.551,1.342,2.069,2.069,0,0,0,.8.731,2.162,2.162,0,0,0,.952.221,2.162,2.162,0,0,0,.952-.221,2.1,2.1,0,0,0,.806-.731,4.143,4.143,0,0,0,.555-1.342A8.735,8.735,0,0,0,43.462-5.37Zm9.945-5.378v.6a1.322,1.322,0,0,1-.056.42,2.818,2.818,0,0,1-.109.277L48.787-.472a1,1,0,0,1-.27.334A.708.708,0,0,1,48.06,0H47.1l4.515-8.865a3.7,3.7,0,0,1,.2-.345,3.352,3.352,0,0,1,.225-.3h-5.61a.3.3,0,0,1-.225-.1.321.321,0,0,1-.1-.229v-.908ZM81.45-5.37a8.693,8.693,0,0,1-.3,2.441,5.1,5.1,0,0,1-.829,1.706,3.33,3.33,0,0,1-1.241,1,3.621,3.621,0,0,1-1.534.33,3.588,3.588,0,0,1-1.534-.33,3.347,3.347,0,0,1-1.234-1,5.049,5.049,0,0,1-.825-1.706,8.8,8.8,0,0,1-.3-2.441,8.836,8.836,0,0,1,.3-2.445,5.091,5.091,0,0,1,.825-1.714,3.334,3.334,0,0,1,1.234-1.009,3.589,3.589,0,0,1,1.534-.33,3.621,3.621,0,0,1,1.534.33,3.317,3.317,0,0,1,1.241,1.009,5.141,5.141,0,0,1,.829,1.714A8.734,8.734,0,0,1,81.45-5.37Zm-1.387,0a8.784,8.784,0,0,0-.206-2.066A4.143,4.143,0,0,0,79.3-8.783a2.1,2.1,0,0,0-.806-.731,2.162,2.162,0,0,0-.952-.221,2.162,2.162,0,0,0-.952.221,2.069,2.069,0,0,0-.8.731,4.2,4.2,0,0,0-.551,1.346A8.784,8.784,0,0,0,75.03-5.37a8.736,8.736,0,0,0,.206,2.063,4.2,4.2,0,0,0,.551,1.342,2.069,2.069,0,0,0,.8.731,2.162,2.162,0,0,0,.952.221,2.162,2.162,0,0,0,.952-.221,2.1,2.1,0,0,0,.806-.731,4.143,4.143,0,0,0,.555-1.342A8.735,8.735,0,0,0,80.062-5.37ZM86.25-.945a2.829,2.829,0,0,0,.941-.146A2.005,2.005,0,0,0,87.9-1.5a1.785,1.785,0,0,0,.442-.638,2.126,2.126,0,0,0,.154-.821,2.23,2.23,0,0,0-.184-.949,1.747,1.747,0,0,0-.5-.641,2.043,2.043,0,0,0-.716-.364,3.057,3.057,0,0,0-.848-.116,3.057,3.057,0,0,0-.847.116,2.043,2.043,0,0,0-.716.364,1.747,1.747,0,0,0-.495.641,2.23,2.23,0,0,0-.184.949,2.126,2.126,0,0,0,.154.821A1.785,1.785,0,0,0,84.6-1.5a2.005,2.005,0,0,0,.705.413A2.829,2.829,0,0,0,86.25-.945Zm0-8.888a2.3,2.3,0,0,0-.844.142,1.719,1.719,0,0,0-.607.39,1.628,1.628,0,0,0-.368.577,1.991,1.991,0,0,0-.124.705,2.433,2.433,0,0,0,.1.712,1.647,1.647,0,0,0,.338.611,1.668,1.668,0,0,0,.6.427,2.243,2.243,0,0,0,.9.161,2.243,2.243,0,0,0,.9-.161,1.668,1.668,0,0,0,.6-.427,1.647,1.647,0,0,0,.338-.611,2.434,2.434,0,0,0,.105-.712,1.991,1.991,0,0,0-.124-.705A1.628,1.628,0,0,0,87.7-9.3a1.719,1.719,0,0,0-.607-.39A2.3,2.3,0,0,0,86.25-9.833ZM87.787-5.6a2.955,2.955,0,0,1,1.545.953,2.632,2.632,0,0,1,.54,1.71,2.952,2.952,0,0,1-.266,1.271,2.781,2.781,0,0,1-.743.964,3.362,3.362,0,0,1-1.144.611A4.8,4.8,0,0,1,86.25.12a4.8,4.8,0,0,1-1.47-.214,3.4,3.4,0,0,1-1.147-.611,2.723,2.723,0,0,1-.743-.964,2.987,2.987,0,0,1-.262-1.271,2.632,2.632,0,0,1,.54-1.71A2.955,2.955,0,0,1,84.712-5.6a2.591,2.591,0,0,1-1.279-.941A2.573,2.573,0,0,1,83-8.04a2.677,2.677,0,0,1,.232-1.11,2.656,2.656,0,0,1,.66-.9,3.119,3.119,0,0,1,1.024-.6,3.862,3.862,0,0,1,1.331-.218,3.871,3.871,0,0,1,1.327.218,3.111,3.111,0,0,1,1.028.6,2.657,2.657,0,0,1,.66.9A2.677,2.677,0,0,1,89.5-8.04a2.573,2.573,0,0,1-.431,1.5A2.591,2.591,0,0,1,87.787-5.6Zm30.262.233a8.693,8.693,0,0,1-.3,2.441,5.1,5.1,0,0,1-.829,1.706,3.33,3.33,0,0,1-1.241,1,3.621,3.621,0,0,1-1.534.33,3.588,3.588,0,0,1-1.534-.33,3.347,3.347,0,0,1-1.234-1,5.049,5.049,0,0,1-.825-1.706,8.8,8.8,0,0,1-.3-2.441,8.836,8.836,0,0,1,.3-2.445,5.091,5.091,0,0,1,.825-1.714,3.334,3.334,0,0,1,1.234-1.009,3.589,3.589,0,0,1,1.534-.33,3.621,3.621,0,0,1,1.534.33,3.317,3.317,0,0,1,1.241,1.009,5.141,5.141,0,0,1,.829,1.714A8.734,8.734,0,0,1,118.05-5.37Zm-1.387,0a8.784,8.784,0,0,0-.206-2.066,4.143,4.143,0,0,0-.555-1.346,2.1,2.1,0,0,0-.806-.731,2.162,2.162,0,0,0-.952-.221,2.162,2.162,0,0,0-.952.221,2.069,2.069,0,0,0-.8.731,4.2,4.2,0,0,0-.551,1.346,8.784,8.784,0,0,0-.206,2.066,8.736,8.736,0,0,0,.206,2.063,4.2,4.2,0,0,0,.551,1.342,2.069,2.069,0,0,0,.8.731,2.162,2.162,0,0,0,.952.221,2.162,2.162,0,0,0,.952-.221,2.1,2.1,0,0,0,.806-.731,4.143,4.143,0,0,0,.555-1.342A8.735,8.735,0,0,0,116.662-5.37Zm3.96-2.22a2.65,2.65,0,0,0,.146.911,1.856,1.856,0,0,0,.42.679,1.767,1.767,0,0,0,.667.42,2.576,2.576,0,0,0,.881.142,2.434,2.434,0,0,0,.956-.176,2.117,2.117,0,0,0,.7-.469,2.008,2.008,0,0,0,.435-.675,2.159,2.159,0,0,0,.15-.8,2.464,2.464,0,0,0-.161-.911,2.01,2.01,0,0,0-.446-.694,1.95,1.95,0,0,0-.679-.439,2.362,2.362,0,0,0-.866-.154,2.413,2.413,0,0,0-.9.161,2.1,2.1,0,0,0-.7.446,1.935,1.935,0,0,0-.45.683A2.341,2.341,0,0,0,120.622-7.59Zm3.12,3.308q.165-.217.308-.412t.27-.39a2.988,2.988,0,0,1-.93.5,3.44,3.44,0,0,1-1.1.173,3.272,3.272,0,0,1-1.151-.2,2.769,2.769,0,0,1-.956-.6,2.868,2.868,0,0,1-.656-.968,3.341,3.341,0,0,1-.244-1.316,3.327,3.327,0,0,1,.263-1.32,3.256,3.256,0,0,1,.735-1.072,3.446,3.446,0,0,1,1.125-.72,3.8,3.8,0,0,1,1.432-.263,3.707,3.707,0,0,1,1.4.255,3.154,3.154,0,0,1,1.08.712,3.138,3.138,0,0,1,.694,1.1,3.919,3.919,0,0,1,.244,1.41,4.336,4.336,0,0,1-.086.881,4.8,4.8,0,0,1-.247.818,5.865,5.865,0,0,1-.394.795q-.233.394-.525.806l-2.618,3.78a.685.685,0,0,1-.278.229A.943.943,0,0,1,121.7,0h-1.23ZM154.035-1.02V0h-5.76V-1.02h2.3V-8.347q0-.33.022-.668l-1.912,1.642a.432.432,0,0,1-.2.1.488.488,0,0,1-.18,0,.429.429,0,0,1-.154-.06.381.381,0,0,1-.109-.1L147.63-8l3.2-2.767h1.088v9.75Zm9.315-4.35a8.693,8.693,0,0,1-.3,2.441,5.1,5.1,0,0,1-.829,1.706,3.33,3.33,0,0,1-1.241,1,3.621,3.621,0,0,1-1.534.33,3.589,3.589,0,0,1-1.534-.33,3.347,3.347,0,0,1-1.234-1,5.049,5.049,0,0,1-.825-1.706,8.8,8.8,0,0,1-.3-2.441,8.837,8.837,0,0,1,.3-2.445,5.091,5.091,0,0,1,.825-1.714,3.334,3.334,0,0,1,1.234-1.009,3.589,3.589,0,0,1,1.534-.33,3.621,3.621,0,0,1,1.534.33,3.317,3.317,0,0,1,1.241,1.009,5.141,5.141,0,0,1,.829,1.714A8.734,8.734,0,0,1,163.35-5.37Zm-1.387,0a8.784,8.784,0,0,0-.206-2.066,4.143,4.143,0,0,0-.555-1.346,2.1,2.1,0,0,0-.806-.731,2.162,2.162,0,0,0-.952-.221,2.162,2.162,0,0,0-.952.221,2.069,2.069,0,0,0-.8.731,4.2,4.2,0,0,0-.551,1.346,8.784,8.784,0,0,0-.206,2.066,8.736,8.736,0,0,0,.206,2.063,4.2,4.2,0,0,0,.551,1.342,2.069,2.069,0,0,0,.8.731,2.162,2.162,0,0,0,.952.221,2.162,2.162,0,0,0,.952-.221,2.1,2.1,0,0,0,.806-.731,4.143,4.143,0,0,0,.555-1.342A8.736,8.736,0,0,0,161.962-5.37Zm28.673,4.35V0h-5.76V-1.02h2.3V-8.347q0-.33.022-.668l-1.912,1.642a.432.432,0,0,1-.2.1.488.488,0,0,1-.18,0,.429.429,0,0,1-.154-.06.381.381,0,0,1-.109-.1L184.23-8l3.2-2.767h1.088v9.75Zm8.7,0V0h-5.76V-1.02h2.3V-8.347q0-.33.022-.668l-1.912,1.642a.432.432,0,0,1-.2.1.488.488,0,0,1-.18,0,.429.429,0,0,1-.154-.06.381.381,0,0,1-.109-.1L192.93-8l3.2-2.767h1.088v9.75Zm27.9,0V0h-5.76V-1.02h2.3V-8.347q0-.33.022-.668l-1.912,1.642a.432.432,0,0,1-.2.1.488.488,0,0,1-.18,0,.429.429,0,0,1-.154-.06.381.381,0,0,1-.109-.1L220.83-8l3.2-2.767h1.088v9.75Zm8.467-.248a.466.466,0,0,1,.345.128.446.446,0,0,1,.128.33V0H229V-.458a.785.785,0,0,1,.06-.292.826.826,0,0,1,.188-.278l3.443-3.458q.427-.435.78-.836a5.845,5.845,0,0,0,.6-.806,3.856,3.856,0,0,0,.383-.821,2.864,2.864,0,0,0,.135-.889,2.123,2.123,0,0,0-.15-.829,1.625,1.625,0,0,0-.409-.589,1.7,1.7,0,0,0-.611-.349,2.4,2.4,0,0,0-.757-.116,2.292,2.292,0,0,0-.758.12,2.035,2.035,0,0,0-.611.334,1.964,1.964,0,0,0-.446.506,2.024,2.024,0,0,0-.255.645.6.6,0,0,1-.244.349.7.7,0,0,1-.431.049l-.7-.12a3.9,3.9,0,0,1,.409-1.3,3.15,3.15,0,0,1,.765-.949,3.256,3.256,0,0,1,1.054-.581,4.009,4.009,0,0,1,1.283-.2,3.917,3.917,0,0,1,1.275.2,2.978,2.978,0,0,1,1.027.589,2.725,2.725,0,0,1,.682.941,3.063,3.063,0,0,1,.247,1.26,3.346,3.346,0,0,1-.18,1.114,4.417,4.417,0,0,1-.488.979,7.565,7.565,0,0,1-.709.907q-.4.443-.851.893L230.9-1.088a5.591,5.591,0,0,1,.608-.131,3.785,3.785,0,0,1,.592-.049ZM7.635,29.98V31H1.875V29.98h2.3V22.653q0-.33.022-.667L2.288,23.627a.432.432,0,0,1-.195.1.488.488,0,0,1-.18,0,.429.429,0,0,1-.154-.06.381.381,0,0,1-.109-.1L1.23,23l3.2-2.767H5.52v9.75Zm2.04-6.818a3.953,3.953,0,0,1,.4-1.3,3.1,3.1,0,0,1,.761-.949,3.249,3.249,0,0,1,1.058-.581,4.043,4.043,0,0,1,1.286-.2,3.916,3.916,0,0,1,1.26.195,2.935,2.935,0,0,1,.994.555,2.515,2.515,0,0,1,.649.87,2.7,2.7,0,0,1,.232,1.133,2.926,2.926,0,0,1-.131.911,2.169,2.169,0,0,1-.375.7,2.275,2.275,0,0,1-.589.51,3.515,3.515,0,0,1-.773.345,2.868,2.868,0,0,1,1.579.926,2.528,2.528,0,0,1,.529,1.639,3.075,3.075,0,0,1-.281,1.335,3,3,0,0,1-.769,1.009,3.439,3.439,0,0,1-1.136.638,4.282,4.282,0,0,1-1.391.221,4.425,4.425,0,0,1-1.462-.214,3.033,3.033,0,0,1-1.028-.589,3.135,3.135,0,0,1-.69-.889,6.656,6.656,0,0,1-.457-1.114l.577-.24a.713.713,0,0,1,.439-.053.429.429,0,0,1,.311.248q.1.21.244.5a2.36,2.36,0,0,0,.4.563,2.153,2.153,0,0,0,.649.458,2.331,2.331,0,0,0,1,.188,2.462,2.462,0,0,0,.986-.184,2.149,2.149,0,0,0,.705-.476,2,2,0,0,0,.424-.653,1.925,1.925,0,0,0,.142-.712,2.656,2.656,0,0,0-.113-.8,1.331,1.331,0,0,0-.42-.622,2.2,2.2,0,0,0-.844-.413,5.232,5.232,0,0,0-1.376-.15v-.968a4.367,4.367,0,0,0,1.174-.15,2.232,2.232,0,0,0,.788-.39,1.459,1.459,0,0,0,.443-.592,2.033,2.033,0,0,0,.139-.765,2.064,2.064,0,0,0-.146-.81,1.556,1.556,0,0,0-.4-.57,1.679,1.679,0,0,0-.6-.337,2.442,2.442,0,0,0-.754-.113,2.3,2.3,0,0,0-.754.12,2.025,2.025,0,0,0-.615.334,1.965,1.965,0,0,0-.446.506,2.024,2.024,0,0,0-.255.645.649.649,0,0,1-.244.349.665.665,0,0,1-.424.049Zm34.56,6.818V31h-5.76V29.98h2.3V22.653q0-.33.022-.667l-1.913,1.642a.432.432,0,0,1-.195.1.488.488,0,0,1-.18,0,.429.429,0,0,1-.154-.06.381.381,0,0,1-.109-.1L37.83,23l3.2-2.767H42.12v9.75Zm6.54-2.858V22.69q0-.195.015-.427t.045-.472L46.92,27.122Zm2.8,0v.765a.3.3,0,0,1-.071.2.277.277,0,0,1-.221.083H51.945V31h-1.17V28.173h-4.77a.4.4,0,0,1-.259-.086.378.378,0,0,1-.139-.214l-.135-.682L50.7,20.252h1.245v6.87ZM80.835,29.98V31h-5.76V29.98h2.3V22.653q0-.33.022-.667l-1.912,1.642a.432.432,0,0,1-.195.1.488.488,0,0,1-.18,0,.429.429,0,0,1-.154-.06.381.381,0,0,1-.109-.1L74.43,23l3.2-2.767H78.72v9.75Zm3.78-5.67a7.416,7.416,0,0,1,1.545-.18,4.127,4.127,0,0,1,1.485.248,3.008,3.008,0,0,1,1.076.682,2.863,2.863,0,0,1,.652,1.028,3.659,3.659,0,0,1,.221,1.29,3.879,3.879,0,0,1-.3,1.545,3.5,3.5,0,0,1-.817,1.181,3.6,3.6,0,0,1-1.226.754,4.506,4.506,0,0,1-2.43.169,4.7,4.7,0,0,1-1.515-.611,4.033,4.033,0,0,1-.57-.428l.413-.57a.411.411,0,0,1,.353-.195.658.658,0,0,1,.337.116q.188.116.458.259a3.917,3.917,0,0,0,.634.259,2.86,2.86,0,0,0,.866.116,2.706,2.706,0,0,0,1.012-.18,2.191,2.191,0,0,0,.772-.514,2.269,2.269,0,0,0,.5-.8,2.98,2.98,0,0,0,.173-1.042,2.658,2.658,0,0,0-.146-.908,1.782,1.782,0,0,0-.443-.69,2.03,2.03,0,0,0-.739-.443,3.086,3.086,0,0,0-1.035-.157,5.551,5.551,0,0,0-.844.067,5.621,5.621,0,0,0-.9.218l-.84-.247.862-5.025h5.092v.585a.65.65,0,0,1-.176.469.815.815,0,0,1-.6.184H85.11Zm32.82,5.67V31h-5.76V29.98h2.3V22.653q0-.33.022-.667l-1.912,1.642a.432.432,0,0,1-.195.1.488.488,0,0,1-.18,0,.429.429,0,0,1-.154-.06.381.381,0,0,1-.109-.1L111.03,23l3.2-2.767h1.087v9.75Zm5.4.03a2.655,2.655,0,0,0,.979-.173,2.2,2.2,0,0,0,.75-.48,2.122,2.122,0,0,0,.48-.728,2.432,2.432,0,0,0,.169-.915,2.6,2.6,0,0,0-.165-.949,2.009,2.009,0,0,0-.469-.72,2.057,2.057,0,0,0-.724-.454,2.608,2.608,0,0,0-.923-.157,2.483,2.483,0,0,0-.975.184,2.23,2.23,0,0,0-.739.5,2.15,2.15,0,0,0-.465.72,2.3,2.3,0,0,0-.161.851,2.838,2.838,0,0,0,.15.945,2.05,2.05,0,0,0,.439.735,1.965,1.965,0,0,0,.705.476A2.508,2.508,0,0,0,122.835,30.01Zm-.78-5.73q-.143.18-.274.349t-.251.334a3.109,3.109,0,0,1,.84-.405,3.34,3.34,0,0,1,1-.142,3.515,3.515,0,0,1,1.23.214,2.924,2.924,0,0,1,1.009.622,2.977,2.977,0,0,1,.686,1,3.433,3.433,0,0,1,.255,1.361,3.5,3.5,0,0,1-.27,1.38,3.373,3.373,0,0,1-.754,1.11,3.485,3.485,0,0,1-1.162.743,4.293,4.293,0,0,1-2.966.011,3.125,3.125,0,0,1-1.121-.735,3.264,3.264,0,0,1-.713-1.155,4.349,4.349,0,0,1-.251-1.519,4.151,4.151,0,0,1,.311-1.5,7.323,7.323,0,0,1,.994-1.706l2.73-3.668a.843.843,0,0,1,.289-.229.92.92,0,0,1,.424-.094h1.185Zm31.98,5.7V31h-5.76V29.98h2.3V22.653q0-.33.022-.667l-1.912,1.642a.432.432,0,0,1-.2.1.488.488,0,0,1-.18,0,.429.429,0,0,1-.154-.06.381.381,0,0,1-.109-.1L147.63,23l3.2-2.767h1.088v9.75Zm9.173-9.728v.6a1.323,1.323,0,0,1-.056.42,2.822,2.822,0,0,1-.109.278l-4.455,8.978a1,1,0,0,1-.27.334.708.708,0,0,1-.458.139h-.96l4.515-8.865a3.7,3.7,0,0,1,.2-.345,3.349,3.349,0,0,1,.225-.3h-5.61a.3.3,0,0,1-.225-.1.321.321,0,0,1-.1-.229v-.908Zm27.427,9.728V31h-5.76V29.98h2.3V22.653q0-.33.022-.667l-1.912,1.642a.432.432,0,0,1-.2.1.488.488,0,0,1-.18,0,.429.429,0,0,1-.154-.06.381.381,0,0,1-.109-.1L184.23,23l3.2-2.767h1.088v9.75Zm5.415.075a2.829,2.829,0,0,0,.941-.146,2.005,2.005,0,0,0,.705-.413,1.784,1.784,0,0,0,.443-.638,2.127,2.127,0,0,0,.154-.821,2.23,2.23,0,0,0-.184-.949,1.747,1.747,0,0,0-.495-.641,2.043,2.043,0,0,0-.716-.364,3.147,3.147,0,0,0-1.695,0,2.043,2.043,0,0,0-.716.364,1.747,1.747,0,0,0-.5.641,2.23,2.23,0,0,0-.184.949,2.127,2.127,0,0,0,.154.821,1.784,1.784,0,0,0,.443.638,2.005,2.005,0,0,0,.705.413A2.829,2.829,0,0,0,196.05,30.055Zm0-8.888a2.3,2.3,0,0,0-.844.142,1.719,1.719,0,0,0-.608.39,1.628,1.628,0,0,0-.367.577,1.991,1.991,0,0,0-.124.7,2.434,2.434,0,0,0,.1.712,1.647,1.647,0,0,0,.338.611,1.668,1.668,0,0,0,.6.427,2.571,2.571,0,0,0,1.792,0,1.669,1.669,0,0,0,.6-.427,1.647,1.647,0,0,0,.337-.611,2.434,2.434,0,0,0,.1-.712,1.991,1.991,0,0,0-.124-.7,1.628,1.628,0,0,0-.367-.577,1.719,1.719,0,0,0-.607-.39A2.3,2.3,0,0,0,196.05,21.167Zm1.537,4.23a2.955,2.955,0,0,1,1.545.953,2.632,2.632,0,0,1,.54,1.71,2.952,2.952,0,0,1-.266,1.271,2.781,2.781,0,0,1-.743.964,3.362,3.362,0,0,1-1.144.611,5.162,5.162,0,0,1-2.94,0,3.4,3.4,0,0,1-1.148-.611,2.723,2.723,0,0,1-.742-.964,2.987,2.987,0,0,1-.263-1.271,2.632,2.632,0,0,1,.54-1.71,2.955,2.955,0,0,1,1.545-.953,2.442,2.442,0,0,1-1.71-2.437,2.66,2.66,0,0,1,.893-2.01,3.119,3.119,0,0,1,1.024-.6,4.171,4.171,0,0,1,2.659,0,3.111,3.111,0,0,1,1.027.6,2.659,2.659,0,0,1,.893,2.01,2.442,2.442,0,0,1-1.71,2.438Zm29.647,4.583V31h-5.76V29.98h2.3V22.653q0-.33.022-.667l-1.912,1.642a.432.432,0,0,1-.2.1.488.488,0,0,1-.18,0,.429.429,0,0,1-.154-.06.381.381,0,0,1-.109-.1L220.83,23l3.2-2.767h1.088v9.75Zm3.188-6.57a2.65,2.65,0,0,0,.146.911,1.856,1.856,0,0,0,.42.679,1.767,1.767,0,0,0,.667.42,2.576,2.576,0,0,0,.881.142,2.434,2.434,0,0,0,.956-.176,2.117,2.117,0,0,0,.7-.469,2.008,2.008,0,0,0,.435-.675,2.159,2.159,0,0,0,.15-.8,2.464,2.464,0,0,0-.161-.911,2.01,2.01,0,0,0-.446-.694,1.95,1.95,0,0,0-.679-.439,2.362,2.362,0,0,0-.866-.154,2.413,2.413,0,0,0-.9.161,2.1,2.1,0,0,0-.7.446,1.935,1.935,0,0,0-.45.683A2.341,2.341,0,0,0,230.422,23.41Zm3.12,3.307q.165-.217.308-.412t.27-.39a2.988,2.988,0,0,1-.93.5,3.44,3.44,0,0,1-1.1.173,3.272,3.272,0,0,1-1.151-.2,2.769,2.769,0,0,1-.956-.6,2.867,2.867,0,0,1-.656-.968,3.559,3.559,0,0,1,.019-2.636,3.256,3.256,0,0,1,.735-1.073,3.446,3.446,0,0,1,1.125-.72,3.8,3.8,0,0,1,1.432-.263,3.707,3.707,0,0,1,1.4.255,3.085,3.085,0,0,1,1.774,1.807,3.919,3.919,0,0,1,.244,1.41,4.337,4.337,0,0,1-.086.881,4.8,4.8,0,0,1-.247.817,5.865,5.865,0,0,1-.394.8q-.232.394-.525.806l-2.617,3.78a.686.686,0,0,1-.277.229A.944.944,0,0,1,231.5,31h-1.23ZM7.4,60.732a.466.466,0,0,1,.345.128.447.447,0,0,1,.128.33V62H.705v-.458a.785.785,0,0,1,.06-.292.826.826,0,0,1,.188-.278l3.442-3.458q.428-.435.78-.836a5.846,5.846,0,0,0,.6-.806,3.857,3.857,0,0,0,.383-.821,2.864,2.864,0,0,0,.135-.889,2.123,2.123,0,0,0-.15-.829,1.625,1.625,0,0,0-.409-.589,1.7,1.7,0,0,0-.611-.349,2.4,2.4,0,0,0-.758-.116,2.292,2.292,0,0,0-.757.12A2.035,2.035,0,0,0,3,52.734a1.965,1.965,0,0,0-.446.506,2.024,2.024,0,0,0-.255.645.6.6,0,0,1-.244.349.7.7,0,0,1-.431.049l-.7-.12a3.9,3.9,0,0,1,.409-1.3,3.15,3.15,0,0,1,.765-.949,3.256,3.256,0,0,1,1.054-.581,4.009,4.009,0,0,1,1.283-.2,3.917,3.917,0,0,1,1.275.2,2.978,2.978,0,0,1,1.028.589,2.725,2.725,0,0,1,.682.941,3.063,3.063,0,0,1,.248,1.26,3.346,3.346,0,0,1-.18,1.114A4.417,4.417,0,0,1,7,56.217a7.565,7.565,0,0,1-.709.908q-.4.443-.851.893L2.6,60.912a5.592,5.592,0,0,1,.608-.131,3.785,3.785,0,0,1,.592-.049Zm9.548-4.1a8.694,8.694,0,0,1-.3,2.441,5.1,5.1,0,0,1-.829,1.706,3.33,3.33,0,0,1-1.241,1.005,3.729,3.729,0,0,1-3.068,0,3.347,3.347,0,0,1-1.234-1.005,5.049,5.049,0,0,1-.825-1.706,10.1,10.1,0,0,1,0-4.886,5.091,5.091,0,0,1,.825-1.714,3.334,3.334,0,0,1,1.234-1.009,3.729,3.729,0,0,1,3.068,0,3.317,3.317,0,0,1,1.241,1.009,5.141,5.141,0,0,1,.829,1.714A8.734,8.734,0,0,1,16.95,56.63Zm-1.388,0a8.784,8.784,0,0,0-.206-2.066,4.143,4.143,0,0,0-.555-1.346,2.1,2.1,0,0,0-.806-.731,2.161,2.161,0,0,0-1.9,0,2.069,2.069,0,0,0-.8.731,4.2,4.2,0,0,0-.551,1.346,10.434,10.434,0,0,0,0,4.129,4.2,4.2,0,0,0,.551,1.342,2.069,2.069,0,0,0,.8.731,2.161,2.161,0,0,0,1.9,0,2.1,2.1,0,0,0,.806-.731,4.143,4.143,0,0,0,.555-1.342A8.735,8.735,0,0,0,15.563,56.63ZM44,60.732a.466.466,0,0,1,.345.128.447.447,0,0,1,.127.33V62h-7.17v-.458a.785.785,0,0,1,.06-.292.826.826,0,0,1,.188-.278l3.443-3.458q.427-.435.78-.836a5.846,5.846,0,0,0,.6-.806,3.857,3.857,0,0,0,.382-.821,2.864,2.864,0,0,0,.135-.889,2.123,2.123,0,0,0-.15-.829,1.625,1.625,0,0,0-.409-.589,1.7,1.7,0,0,0-.611-.349,2.4,2.4,0,0,0-.757-.116,2.292,2.292,0,0,0-.757.12,2.035,2.035,0,0,0-.611.334,1.965,1.965,0,0,0-.446.506,2.024,2.024,0,0,0-.255.645.6.6,0,0,1-.244.349.7.7,0,0,1-.431.049l-.7-.12a3.9,3.9,0,0,1,.409-1.3,3.15,3.15,0,0,1,.765-.949,3.256,3.256,0,0,1,1.054-.581,4.009,4.009,0,0,1,1.282-.2,3.917,3.917,0,0,1,1.275.2,2.978,2.978,0,0,1,1.028.589,2.725,2.725,0,0,1,.682.941,3.063,3.063,0,0,1,.248,1.26,3.346,3.346,0,0,1-.18,1.114,4.417,4.417,0,0,1-.487.979,7.565,7.565,0,0,1-.709.908q-.4.443-.851.893L39.2,60.912a5.592,5.592,0,0,1,.607-.131,3.785,3.785,0,0,1,.593-.049Zm8.932.248V62h-5.76V60.98h2.3V53.653q0-.33.022-.667l-1.913,1.642a.432.432,0,0,1-.195.1.488.488,0,0,1-.18,0,.429.429,0,0,1-.154-.06.381.381,0,0,1-.109-.1L46.53,54l3.2-2.767H50.82v9.75ZM80.6,60.732a.466.466,0,0,1,.345.128.447.447,0,0,1,.128.33V62H73.9v-.458a.785.785,0,0,1,.06-.292.826.826,0,0,1,.188-.278l3.442-3.458q.428-.435.78-.836a5.846,5.846,0,0,0,.6-.806,3.857,3.857,0,0,0,.382-.821,2.864,2.864,0,0,0,.135-.889,2.123,2.123,0,0,0-.15-.829,1.625,1.625,0,0,0-.409-.589,1.7,1.7,0,0,0-.611-.349,2.4,2.4,0,0,0-.757-.116,2.292,2.292,0,0,0-.757.12,2.035,2.035,0,0,0-.611.334,1.965,1.965,0,0,0-.446.506,2.024,2.024,0,0,0-.255.645.6.6,0,0,1-.244.349.7.7,0,0,1-.431.049l-.7-.12a3.9,3.9,0,0,1,.409-1.3,3.15,3.15,0,0,1,.765-.949,3.256,3.256,0,0,1,1.054-.581,4.009,4.009,0,0,1,1.283-.2,3.917,3.917,0,0,1,1.275.2,2.978,2.978,0,0,1,1.028.589,2.725,2.725,0,0,1,.683.941,3.063,3.063,0,0,1,.247,1.26,3.346,3.346,0,0,1-.18,1.114,4.417,4.417,0,0,1-.488.979,7.564,7.564,0,0,1-.709.908q-.4.443-.851.893L75.8,60.912a5.592,5.592,0,0,1,.607-.131A3.785,3.785,0,0,1,77,60.732Zm8.7,0a.466.466,0,0,1,.345.128.447.447,0,0,1,.128.33V62H82.6v-.458a.785.785,0,0,1,.06-.292.826.826,0,0,1,.188-.278l3.442-3.458q.428-.435.78-.836a5.846,5.846,0,0,0,.6-.806,3.857,3.857,0,0,0,.382-.821,2.864,2.864,0,0,0,.135-.889,2.123,2.123,0,0,0-.15-.829,1.625,1.625,0,0,0-.409-.589,1.7,1.7,0,0,0-.611-.349,2.4,2.4,0,0,0-.757-.116,2.292,2.292,0,0,0-.757.12,2.035,2.035,0,0,0-.611.334,1.965,1.965,0,0,0-.446.506,2.024,2.024,0,0,0-.255.645.6.6,0,0,1-.244.349.7.7,0,0,1-.431.049l-.7-.12a3.9,3.9,0,0,1,.409-1.3A3.15,3.15,0,0,1,84,51.912a3.256,3.256,0,0,1,1.054-.581,4.009,4.009,0,0,1,1.283-.2,3.917,3.917,0,0,1,1.275.2,2.978,2.978,0,0,1,1.028.589,2.725,2.725,0,0,1,.683.941,3.063,3.063,0,0,1,.247,1.26,3.346,3.346,0,0,1-.18,1.114,4.417,4.417,0,0,1-.488.979,7.564,7.564,0,0,1-.709.908q-.4.443-.851.893L84.5,60.912a5.592,5.592,0,0,1,.607-.131,3.785,3.785,0,0,1,.592-.049Zm27.9,0a.466.466,0,0,1,.345.128.447.447,0,0,1,.128.33V62H110.5v-.458a.785.785,0,0,1,.06-.292.826.826,0,0,1,.188-.278l3.442-3.458q.428-.435.78-.836a5.846,5.846,0,0,0,.6-.806,3.857,3.857,0,0,0,.382-.821,2.864,2.864,0,0,0,.135-.889,2.123,2.123,0,0,0-.15-.829,1.625,1.625,0,0,0-.409-.589,1.7,1.7,0,0,0-.611-.349,2.4,2.4,0,0,0-.757-.116,2.292,2.292,0,0,0-.757.12,2.035,2.035,0,0,0-.611.334,1.965,1.965,0,0,0-.446.506,2.024,2.024,0,0,0-.255.645.6.6,0,0,1-.244.349.7.7,0,0,1-.431.049l-.7-.12a3.9,3.9,0,0,1,.409-1.3,3.15,3.15,0,0,1,.765-.949,3.256,3.256,0,0,1,1.054-.581,4.009,4.009,0,0,1,1.283-.2,3.917,3.917,0,0,1,1.275.2,2.978,2.978,0,0,1,1.028.589,2.725,2.725,0,0,1,.683.941,3.063,3.063,0,0,1,.247,1.26,3.346,3.346,0,0,1-.18,1.114,4.417,4.417,0,0,1-.488.979,7.564,7.564,0,0,1-.709.908q-.4.443-.851.893L112.4,60.912a5.592,5.592,0,0,1,.607-.131,3.785,3.785,0,0,1,.592-.049Zm2.272-6.57a3.953,3.953,0,0,1,.4-1.3,3.1,3.1,0,0,1,.761-.949,3.249,3.249,0,0,1,1.058-.581,4.043,4.043,0,0,1,1.286-.2,3.916,3.916,0,0,1,1.26.195,2.935,2.935,0,0,1,.994.555,2.515,2.515,0,0,1,.649.87,2.7,2.7,0,0,1,.232,1.133,2.926,2.926,0,0,1-.131.911,2.169,2.169,0,0,1-.375.7,2.275,2.275,0,0,1-.589.51,3.515,3.515,0,0,1-.772.345,2.868,2.868,0,0,1,1.579.926,2.528,2.528,0,0,1,.529,1.639,3.075,3.075,0,0,1-.281,1.335,3,3,0,0,1-.769,1.009,3.439,3.439,0,0,1-1.136.638,4.282,4.282,0,0,1-1.391.221,4.425,4.425,0,0,1-1.463-.214,3.033,3.033,0,0,1-1.027-.589,3.135,3.135,0,0,1-.69-.889,6.656,6.656,0,0,1-.458-1.114l.578-.24a.713.713,0,0,1,.439-.053.429.429,0,0,1,.311.248q.1.21.244.5a2.36,2.36,0,0,0,.4.563,2.153,2.153,0,0,0,.649.458,2.331,2.331,0,0,0,1,.188,2.462,2.462,0,0,0,.986-.184,2.149,2.149,0,0,0,.705-.476,2,2,0,0,0,.424-.653,1.925,1.925,0,0,0,.143-.712,2.656,2.656,0,0,0-.113-.8,1.331,1.331,0,0,0-.42-.623,2.2,2.2,0,0,0-.844-.412,5.232,5.232,0,0,0-1.376-.15v-.967a4.367,4.367,0,0,0,1.174-.15,2.232,2.232,0,0,0,.787-.39,1.459,1.459,0,0,0,.442-.592,2.033,2.033,0,0,0,.139-.765,2.064,2.064,0,0,0-.146-.81,1.556,1.556,0,0,0-.4-.57,1.679,1.679,0,0,0-.6-.337,2.442,2.442,0,0,0-.754-.113,2.3,2.3,0,0,0-.754.12,2.025,2.025,0,0,0-.615.334,1.965,1.965,0,0,0-.446.506,2.024,2.024,0,0,0-.255.645.649.649,0,0,1-.244.349.665.665,0,0,1-.424.049Zm34.327,6.57a.466.466,0,0,1,.345.128.446.446,0,0,1,.128.33V62H147.1v-.458a.785.785,0,0,1,.06-.292.826.826,0,0,1,.188-.278l3.443-3.458q.427-.435.78-.836a5.845,5.845,0,0,0,.6-.806,3.856,3.856,0,0,0,.383-.821,2.864,2.864,0,0,0,.135-.889,2.123,2.123,0,0,0-.15-.829,1.625,1.625,0,0,0-.409-.589,1.7,1.7,0,0,0-.611-.349,2.4,2.4,0,0,0-.757-.116,2.292,2.292,0,0,0-.758.12,2.035,2.035,0,0,0-.611.334,1.964,1.964,0,0,0-.446.506,2.024,2.024,0,0,0-.255.645.6.6,0,0,1-.244.349.7.7,0,0,1-.431.049l-.7-.12a3.9,3.9,0,0,1,.409-1.3,3.15,3.15,0,0,1,.765-.949,3.256,3.256,0,0,1,1.054-.581,4.009,4.009,0,0,1,1.283-.2,3.917,3.917,0,0,1,1.275.2,2.978,2.978,0,0,1,1.027.589,2.725,2.725,0,0,1,.682.941,3.063,3.063,0,0,1,.247,1.26,3.346,3.346,0,0,1-.18,1.114,4.417,4.417,0,0,1-.488.979,7.565,7.565,0,0,1-.709.908q-.4.443-.851.893L149,60.912a5.592,5.592,0,0,1,.608-.131,3.785,3.785,0,0,1,.592-.049Zm6.773-2.61V53.69q0-.195.015-.427t.045-.472l-3.915,5.333Zm2.8,0v.765a.3.3,0,0,1-.071.2.277.277,0,0,1-.221.083h-1.335V62h-1.17V59.173H155.8a.4.4,0,0,1-.259-.086.378.378,0,0,1-.139-.214l-.135-.683,5.227-6.937h1.245v6.87Zm27.03,2.61a.466.466,0,0,1,.345.128.446.446,0,0,1,.128.33V62H183.7v-.458a.785.785,0,0,1,.06-.292.826.826,0,0,1,.188-.278l3.443-3.458q.427-.435.78-.836a5.845,5.845,0,0,0,.6-.806,3.856,3.856,0,0,0,.383-.821,2.864,2.864,0,0,0,.135-.889,2.123,2.123,0,0,0-.15-.829,1.625,1.625,0,0,0-.409-.589,1.7,1.7,0,0,0-.611-.349,2.4,2.4,0,0,0-.757-.116,2.292,2.292,0,0,0-.758.12,2.035,2.035,0,0,0-.611.334,1.964,1.964,0,0,0-.446.506,2.024,2.024,0,0,0-.255.645.6.6,0,0,1-.244.349.7.7,0,0,1-.431.049l-.7-.12a3.9,3.9,0,0,1,.409-1.3,3.15,3.15,0,0,1,.765-.949,3.256,3.256,0,0,1,1.054-.581,4.009,4.009,0,0,1,1.283-.2,3.917,3.917,0,0,1,1.275.2,2.978,2.978,0,0,1,1.027.589,2.725,2.725,0,0,1,.682.941,3.063,3.063,0,0,1,.247,1.26,3.346,3.346,0,0,1-.18,1.114,4.417,4.417,0,0,1-.488.979,7.565,7.565,0,0,1-.709.908q-.4.443-.851.893L185.6,60.912a5.592,5.592,0,0,1,.608-.131,3.785,3.785,0,0,1,.592-.049Zm4.012-5.422a7.416,7.416,0,0,1,1.545-.18,4.127,4.127,0,0,1,1.485.247,3.008,3.008,0,0,1,1.076.682,2.863,2.863,0,0,1,.653,1.028,3.659,3.659,0,0,1,.221,1.29,3.878,3.878,0,0,1-.3,1.545,3.5,3.5,0,0,1-.817,1.181,3.594,3.594,0,0,1-1.226.754,4.506,4.506,0,0,1-2.43.169,4.7,4.7,0,0,1-1.515-.611,4.031,4.031,0,0,1-.57-.428l.413-.57a.411.411,0,0,1,.352-.195.658.658,0,0,1,.338.116q.188.116.457.259a3.917,3.917,0,0,0,.634.259,2.86,2.86,0,0,0,.866.116,2.706,2.706,0,0,0,1.013-.18,2.191,2.191,0,0,0,.772-.514,2.269,2.269,0,0,0,.495-.8,2.98,2.98,0,0,0,.173-1.042,2.658,2.658,0,0,0-.146-.908,1.782,1.782,0,0,0-.443-.69,2.03,2.03,0,0,0-.739-.443,3.086,3.086,0,0,0-1.035-.158,5.551,5.551,0,0,0-.844.068,5.622,5.622,0,0,0-.9.218l-.84-.248.863-5.025h5.092v.585a.65.65,0,0,1-.176.469.815.815,0,0,1-.6.184H194.91ZM227,60.732a.466.466,0,0,1,.345.128.446.446,0,0,1,.128.33V62H220.3v-.458a.785.785,0,0,1,.06-.292.826.826,0,0,1,.188-.278l3.443-3.458q.427-.435.78-.836a5.845,5.845,0,0,0,.6-.806,3.856,3.856,0,0,0,.383-.821,2.864,2.864,0,0,0,.135-.889,2.123,2.123,0,0,0-.15-.829,1.625,1.625,0,0,0-.409-.589,1.7,1.7,0,0,0-.611-.349,2.4,2.4,0,0,0-.757-.116,2.292,2.292,0,0,0-.758.12,2.035,2.035,0,0,0-.611.334,1.964,1.964,0,0,0-.446.506,2.024,2.024,0,0,0-.255.645.6.6,0,0,1-.244.349.7.7,0,0,1-.431.049l-.7-.12a3.9,3.9,0,0,1,.409-1.3,3.15,3.15,0,0,1,.765-.949,3.256,3.256,0,0,1,1.054-.581,4.009,4.009,0,0,1,1.283-.2,3.917,3.917,0,0,1,1.275.2,2.978,2.978,0,0,1,1.027.589,2.725,2.725,0,0,1,.682.941,3.063,3.063,0,0,1,.247,1.26,3.346,3.346,0,0,1-.18,1.114,4.417,4.417,0,0,1-.488.979,7.565,7.565,0,0,1-.709.908q-.4.443-.851.893L222.2,60.912a5.592,5.592,0,0,1,.608-.131,3.785,3.785,0,0,1,.592-.049Zm5.633.278a2.655,2.655,0,0,0,.979-.172,2.2,2.2,0,0,0,.75-.48,2.122,2.122,0,0,0,.48-.727,2.432,2.432,0,0,0,.169-.915,2.6,2.6,0,0,0-.165-.949,2.008,2.008,0,0,0-.469-.72,2.057,2.057,0,0,0-.724-.454,2.608,2.608,0,0,0-.923-.158,2.483,2.483,0,0,0-.975.184,2.231,2.231,0,0,0-.739.495,2.15,2.15,0,0,0-.465.72,2.3,2.3,0,0,0-.161.851,2.839,2.839,0,0,0,.15.945,2.05,2.05,0,0,0,.439.735,1.965,1.965,0,0,0,.705.476A2.508,2.508,0,0,0,232.635,61.01Zm-.78-5.73q-.142.18-.274.349t-.251.334a3.109,3.109,0,0,1,.84-.405,3.34,3.34,0,0,1,1-.142,3.515,3.515,0,0,1,1.23.214,2.924,2.924,0,0,1,1.009.623,2.977,2.977,0,0,1,.686,1,3.433,3.433,0,0,1,.255,1.361,3.5,3.5,0,0,1-.27,1.38,3.373,3.373,0,0,1-.754,1.11,3.485,3.485,0,0,1-1.162.743,4.293,4.293,0,0,1-2.966.011,3.125,3.125,0,0,1-1.121-.735,3.264,3.264,0,0,1-.712-1.155,4.349,4.349,0,0,1-.251-1.519,4.151,4.151,0,0,1,.311-1.5,7.323,7.323,0,0,1,.994-1.706l2.73-3.668a.843.843,0,0,1,.289-.229.92.92,0,0,1,.424-.094h1.185ZM7.4,91.732a.466.466,0,0,1,.345.128.447.447,0,0,1,.128.33V93H.705v-.457a.785.785,0,0,1,.06-.293.826.826,0,0,1,.188-.277l3.442-3.458q.428-.435.78-.836a5.846,5.846,0,0,0,.6-.806,3.857,3.857,0,0,0,.383-.821,2.864,2.864,0,0,0,.135-.889,2.123,2.123,0,0,0-.15-.829,1.625,1.625,0,0,0-.409-.589,1.7,1.7,0,0,0-.611-.349,2.4,2.4,0,0,0-.758-.116,2.292,2.292,0,0,0-.757.12A2.035,2.035,0,0,0,3,83.734a1.965,1.965,0,0,0-.446.506,2.024,2.024,0,0,0-.255.645.6.6,0,0,1-.244.349.7.7,0,0,1-.431.049l-.7-.12a3.9,3.9,0,0,1,.409-1.3,3.15,3.15,0,0,1,.765-.949,3.256,3.256,0,0,1,1.054-.581,4.009,4.009,0,0,1,1.283-.2,3.917,3.917,0,0,1,1.275.2,2.978,2.978,0,0,1,1.028.589,2.725,2.725,0,0,1,.682.941,3.063,3.063,0,0,1,.248,1.26,3.346,3.346,0,0,1-.18,1.114A4.417,4.417,0,0,1,7,87.217a7.564,7.564,0,0,1-.709.908q-.4.442-.851.893L2.6,91.912a5.591,5.591,0,0,1,.608-.131,3.785,3.785,0,0,1,.592-.049Zm9.405-9.48v.6a1.322,1.322,0,0,1-.056.42,2.818,2.818,0,0,1-.109.278l-4.455,8.977a1,1,0,0,1-.27.334A.708.708,0,0,1,11.46,93H10.5l4.515-8.865a3.7,3.7,0,0,1,.2-.345,3.351,3.351,0,0,1,.225-.3H9.832a.3.3,0,0,1-.225-.1.321.321,0,0,1-.1-.229v-.908ZM44,91.732a.466.466,0,0,1,.345.128.447.447,0,0,1,.127.33V93h-7.17v-.457a.785.785,0,0,1,.06-.293.826.826,0,0,1,.188-.277l3.443-3.458q.427-.435.78-.836a5.846,5.846,0,0,0,.6-.806,3.857,3.857,0,0,0,.382-.821,2.864,2.864,0,0,0,.135-.889,2.123,2.123,0,0,0-.15-.829,1.625,1.625,0,0,0-.409-.589,1.7,1.7,0,0,0-.611-.349,2.4,2.4,0,0,0-.757-.116,2.292,2.292,0,0,0-.757.12,2.035,2.035,0,0,0-.611.334,1.965,1.965,0,0,0-.446.506,2.024,2.024,0,0,0-.255.645.6.6,0,0,1-.244.349.7.7,0,0,1-.431.049l-.7-.12a3.9,3.9,0,0,1,.409-1.3,3.15,3.15,0,0,1,.765-.949,3.256,3.256,0,0,1,1.054-.581,4.009,4.009,0,0,1,1.282-.2,3.917,3.917,0,0,1,1.275.2,2.978,2.978,0,0,1,1.028.589,2.725,2.725,0,0,1,.682.941,3.063,3.063,0,0,1,.248,1.26,3.346,3.346,0,0,1-.18,1.114,4.417,4.417,0,0,1-.487.979,7.564,7.564,0,0,1-.709.908q-.4.442-.851.893L39.2,91.912a5.591,5.591,0,0,1,.607-.131,3.785,3.785,0,0,1,.593-.049Zm5.648.323a2.829,2.829,0,0,0,.941-.146A2.005,2.005,0,0,0,51.3,91.5a1.784,1.784,0,0,0,.443-.637,2.126,2.126,0,0,0,.154-.821,2.23,2.23,0,0,0-.184-.949,1.747,1.747,0,0,0-.495-.641,2.043,2.043,0,0,0-.716-.364,3.147,3.147,0,0,0-1.695,0,2.043,2.043,0,0,0-.716.364,1.747,1.747,0,0,0-.5.641,2.23,2.23,0,0,0-.184.949,2.127,2.127,0,0,0,.154.821A1.784,1.784,0,0,0,48,91.5a2.005,2.005,0,0,0,.7.413A2.829,2.829,0,0,0,49.65,92.055Zm0-8.888a2.3,2.3,0,0,0-.844.143,1.719,1.719,0,0,0-.607.39,1.628,1.628,0,0,0-.368.577,1.991,1.991,0,0,0-.124.705,2.434,2.434,0,0,0,.1.713,1.647,1.647,0,0,0,.337.611,1.668,1.668,0,0,0,.6.427,2.571,2.571,0,0,0,1.792,0,1.668,1.668,0,0,0,.6-.427,1.647,1.647,0,0,0,.337-.611,2.434,2.434,0,0,0,.1-.713,1.991,1.991,0,0,0-.124-.705A1.628,1.628,0,0,0,51.1,83.7a1.719,1.719,0,0,0-.607-.39A2.3,2.3,0,0,0,49.65,83.167Zm1.537,4.23a2.955,2.955,0,0,1,1.545.952,2.632,2.632,0,0,1,.54,1.71,2.952,2.952,0,0,1-.266,1.271,2.781,2.781,0,0,1-.743.964,3.363,3.363,0,0,1-1.144.611,5.162,5.162,0,0,1-2.94,0,3.4,3.4,0,0,1-1.147-.611,2.723,2.723,0,0,1-.743-.964,2.987,2.987,0,0,1-.263-1.271,2.632,2.632,0,0,1,.54-1.71,2.955,2.955,0,0,1,1.545-.952A2.442,2.442,0,0,1,46.4,84.96a2.659,2.659,0,0,1,.892-2.01,3.119,3.119,0,0,1,1.024-.6,4.171,4.171,0,0,1,2.659,0,3.111,3.111,0,0,1,1.028.6,2.659,2.659,0,0,1,.892,2.01,2.442,2.442,0,0,1-1.71,2.438ZM80.6,91.732a.466.466,0,0,1,.345.128.447.447,0,0,1,.128.33V93H73.9v-.457a.785.785,0,0,1,.06-.293.826.826,0,0,1,.188-.277l3.442-3.458q.428-.435.78-.836a5.846,5.846,0,0,0,.6-.806,3.857,3.857,0,0,0,.382-.821,2.864,2.864,0,0,0,.135-.889,2.123,2.123,0,0,0-.15-.829,1.625,1.625,0,0,0-.409-.589,1.7,1.7,0,0,0-.611-.349,2.4,2.4,0,0,0-.757-.116,2.292,2.292,0,0,0-.757.12,2.035,2.035,0,0,0-.611.334,1.965,1.965,0,0,0-.446.506,2.024,2.024,0,0,0-.255.645.6.6,0,0,1-.244.349.7.7,0,0,1-.431.049l-.7-.12a3.9,3.9,0,0,1,.409-1.3,3.15,3.15,0,0,1,.765-.949,3.256,3.256,0,0,1,1.054-.581,4.009,4.009,0,0,1,1.283-.2,3.917,3.917,0,0,1,1.275.2,2.978,2.978,0,0,1,1.028.589,2.725,2.725,0,0,1,.683.941,3.063,3.063,0,0,1,.247,1.26,3.346,3.346,0,0,1-.18,1.114,4.417,4.417,0,0,1-.488.979,7.563,7.563,0,0,1-.709.908q-.4.442-.851.893L75.8,91.912a5.591,5.591,0,0,1,.607-.131A3.785,3.785,0,0,1,77,91.732Zm9.547-4.1a8.693,8.693,0,0,1-.3,2.441,5.1,5.1,0,0,1-.829,1.706,3.33,3.33,0,0,1-1.241,1.005,3.729,3.729,0,0,1-3.067,0,3.347,3.347,0,0,1-1.234-1.005,5.049,5.049,0,0,1-.825-1.706,10.1,10.1,0,0,1,0-4.886,5.091,5.091,0,0,1,.825-1.714,3.334,3.334,0,0,1,1.234-1.009,3.729,3.729,0,0,1,3.067,0,3.317,3.317,0,0,1,1.241,1.009,5.141,5.141,0,0,1,.829,1.714A8.734,8.734,0,0,1,90.15,87.63Zm-1.387,0a8.784,8.784,0,0,0-.206-2.066A4.143,4.143,0,0,0,88,84.217a2.1,2.1,0,0,0-.806-.731,2.161,2.161,0,0,0-1.9,0,2.069,2.069,0,0,0-.8.731,4.2,4.2,0,0,0-.551,1.346,10.435,10.435,0,0,0,0,4.129,4.2,4.2,0,0,0,.551,1.343,2.069,2.069,0,0,0,.8.731,2.161,2.161,0,0,0,1.9,0A2.1,2.1,0,0,0,88,91.035a4.143,4.143,0,0,0,.555-1.343A8.735,8.735,0,0,0,88.762,87.63Zm22.012-2.467a3.953,3.953,0,0,1,.4-1.3,3.1,3.1,0,0,1,.761-.949A3.249,3.249,0,0,1,113,82.331a4.043,4.043,0,0,1,1.286-.2,3.916,3.916,0,0,1,1.26.195,2.935,2.935,0,0,1,.994.555,2.515,2.515,0,0,1,.649.87,2.7,2.7,0,0,1,.232,1.132,2.926,2.926,0,0,1-.131.911,2.169,2.169,0,0,1-.375.7,2.275,2.275,0,0,1-.589.51,3.515,3.515,0,0,1-.772.345,2.868,2.868,0,0,1,1.579.926,2.528,2.528,0,0,1,.529,1.639,3.075,3.075,0,0,1-.281,1.335,3,3,0,0,1-.769,1.009,3.439,3.439,0,0,1-1.136.637,4.282,4.282,0,0,1-1.391.221,4.425,4.425,0,0,1-1.463-.214,3.033,3.033,0,0,1-1.027-.589,3.135,3.135,0,0,1-.69-.889,6.656,6.656,0,0,1-.458-1.114l.578-.24a.713.713,0,0,1,.439-.052.429.429,0,0,1,.311.247q.1.21.244.5a2.36,2.36,0,0,0,.4.563,2.153,2.153,0,0,0,.649.458,2.331,2.331,0,0,0,1,.188,2.462,2.462,0,0,0,.986-.184,2.149,2.149,0,0,0,.705-.476,2,2,0,0,0,.424-.652,1.925,1.925,0,0,0,.143-.713,2.656,2.656,0,0,0-.113-.795,1.331,1.331,0,0,0-.42-.623,2.2,2.2,0,0,0-.844-.412,5.232,5.232,0,0,0-1.376-.15v-.967a4.367,4.367,0,0,0,1.174-.15,2.232,2.232,0,0,0,.787-.39,1.459,1.459,0,0,0,.442-.592,2.033,2.033,0,0,0,.139-.765,2.064,2.064,0,0,0-.146-.81,1.556,1.556,0,0,0-.4-.57,1.679,1.679,0,0,0-.6-.337,2.442,2.442,0,0,0-.754-.113,2.3,2.3,0,0,0-.754.12,2.025,2.025,0,0,0-.615.334,1.965,1.965,0,0,0-.446.506,2.024,2.024,0,0,0-.255.645.649.649,0,0,1-.244.349.665.665,0,0,1-.424.049ZM126.75,87.63a8.693,8.693,0,0,1-.3,2.441,5.1,5.1,0,0,1-.829,1.706,3.33,3.33,0,0,1-1.241,1.005,3.729,3.729,0,0,1-3.067,0,3.347,3.347,0,0,1-1.234-1.005,5.049,5.049,0,0,1-.825-1.706,10.1,10.1,0,0,1,0-4.886,5.091,5.091,0,0,1,.825-1.714,3.334,3.334,0,0,1,1.234-1.009,3.729,3.729,0,0,1,3.067,0,3.317,3.317,0,0,1,1.241,1.009,5.141,5.141,0,0,1,.829,1.714A8.734,8.734,0,0,1,126.75,87.63Zm-1.387,0a8.784,8.784,0,0,0-.206-2.066,4.143,4.143,0,0,0-.555-1.346,2.1,2.1,0,0,0-.806-.731,2.161,2.161,0,0,0-1.9,0,2.069,2.069,0,0,0-.8.731,4.2,4.2,0,0,0-.551,1.346,10.435,10.435,0,0,0,0,4.129,4.2,4.2,0,0,0,.551,1.343,2.069,2.069,0,0,0,.8.731,2.161,2.161,0,0,0,1.9,0,2.1,2.1,0,0,0,.806-.731,4.143,4.143,0,0,0,.555-1.343A8.735,8.735,0,0,0,125.362,87.63Zm22.012-2.467a3.953,3.953,0,0,1,.4-1.3,3.1,3.1,0,0,1,.761-.949,3.248,3.248,0,0,1,1.057-.581,4.043,4.043,0,0,1,1.286-.2,3.916,3.916,0,0,1,1.26.195,2.935,2.935,0,0,1,.994.555,2.515,2.515,0,0,1,.649.87,2.7,2.7,0,0,1,.232,1.132,2.926,2.926,0,0,1-.131.911,2.169,2.169,0,0,1-.375.7,2.275,2.275,0,0,1-.589.51,3.515,3.515,0,0,1-.772.345,2.868,2.868,0,0,1,1.579.926,2.528,2.528,0,0,1,.529,1.639,3.075,3.075,0,0,1-.281,1.335,3,3,0,0,1-.769,1.009,3.439,3.439,0,0,1-1.136.637,4.282,4.282,0,0,1-1.391.221,4.425,4.425,0,0,1-1.462-.214,3.033,3.033,0,0,1-1.028-.589,3.135,3.135,0,0,1-.69-.889,6.656,6.656,0,0,1-.457-1.114l.577-.24a.713.713,0,0,1,.439-.052.429.429,0,0,1,.311.247q.1.21.244.5a2.36,2.36,0,0,0,.4.563,2.153,2.153,0,0,0,.649.458,2.331,2.331,0,0,0,1,.188,2.462,2.462,0,0,0,.986-.184,2.149,2.149,0,0,0,.705-.476,2,2,0,0,0,.424-.652,1.926,1.926,0,0,0,.142-.713,2.656,2.656,0,0,0-.112-.795,1.331,1.331,0,0,0-.42-.623,2.2,2.2,0,0,0-.844-.412,5.232,5.232,0,0,0-1.376-.15v-.967a4.367,4.367,0,0,0,1.174-.15,2.232,2.232,0,0,0,.788-.39,1.459,1.459,0,0,0,.443-.592,2.033,2.033,0,0,0,.139-.765,2.064,2.064,0,0,0-.146-.81,1.556,1.556,0,0,0-.4-.57,1.679,1.679,0,0,0-.6-.337,2.442,2.442,0,0,0-.754-.113,2.3,2.3,0,0,0-.754.12,2.025,2.025,0,0,0-.615.334,1.964,1.964,0,0,0-.446.506,2.024,2.024,0,0,0-.255.645.648.648,0,0,1-.244.349.665.665,0,0,1-.424.049Zm15.36,6.818V93h-5.76V91.98h2.3V84.652q0-.33.022-.667l-1.912,1.643a.432.432,0,0,1-.2.1.488.488,0,0,1-.18,0,.429.429,0,0,1-.154-.06.381.381,0,0,1-.109-.1L156.33,85l3.2-2.768h1.088v9.75Z" transform="translate(35.001 112.194)"/>
        <path id="Path_5108" data-name="Path 5108" class="cls-13" d="M2.809-.218a3.347,3.347,0,0,1-1.234-1A5.049,5.049,0,0,1,.75-2.929,8.8,8.8,0,0,1,.45-5.37a8.837,8.837,0,0,1,.3-2.445,5.09,5.09,0,0,1,.825-1.714,3.334,3.334,0,0,1,1.234-1.009,3.589,3.589,0,0,1,1.534-.33,3.621,3.621,0,0,1,1.534.33A3.317,3.317,0,0,1,7.118-9.529a5.141,5.141,0,0,1,.829,1.714C8.149-7.125,3.281,0,2.809-.218ZM6.863-5.37a8.784,8.784,0,0,0-.206-2.066A4.143,4.143,0,0,0,6.1-8.783,2.1,2.1,0,0,0,5.3-9.514a2.162,2.162,0,0,0-.952-.221,2.162,2.162,0,0,0-.953.221,2.069,2.069,0,0,0-.8.731,4.2,4.2,0,0,0-.551,1.346A8.784,8.784,0,0,0,1.83-5.37a8.735,8.735,0,0,0,.206,2.063,4.2,4.2,0,0,0,.551,1.342,2.069,2.069,0,0,0,.8.731,2.162,2.162,0,0,0,.953.221A2.162,2.162,0,0,0,5.3-1.234,2.1,2.1,0,0,0,6.1-1.965a4.143,4.143,0,0,0,.555-1.342A8.736,8.736,0,0,0,6.863-5.37ZM13.035-.99a2.655,2.655,0,0,0,.979-.173,2.2,2.2,0,0,0,.75-.48,2.122,2.122,0,0,0,.48-.728,2.432,2.432,0,0,0,.169-.915,2.6,2.6,0,0,0-.165-.949,2.008,2.008,0,0,0-.469-.72,2.057,2.057,0,0,0-.724-.454,2.608,2.608,0,0,0-.923-.158,2.483,2.483,0,0,0-.975.184,2.231,2.231,0,0,0-.739.495,2.15,2.15,0,0,0-.465.72,2.3,2.3,0,0,0-.161.851,2.838,2.838,0,0,0,.15.945,2.05,2.05,0,0,0,.439.735,1.965,1.965,0,0,0,.7.476A2.508,2.508,0,0,0,13.035-.99Zm-.78-5.73q-.143.18-.274.349t-.251.334a3.109,3.109,0,0,1,.84-.4,3.34,3.34,0,0,1,1-.142,3.515,3.515,0,0,1,1.23.214,2.924,2.924,0,0,1,1.009.623,2.977,2.977,0,0,1,.686,1,3.433,3.433,0,0,1,.255,1.361A3.5,3.5,0,0,1,16.478-2a3.373,3.373,0,0,1-.754,1.11,3.485,3.485,0,0,1-1.162.743,4.014,4.014,0,0,1-1.5.27,4,4,0,0,1-1.47-.259,3.125,3.125,0,0,1-1.121-.735,3.264,3.264,0,0,1-.713-1.155A4.349,4.349,0,0,1,9.51-3.548a4.151,4.151,0,0,1,.311-1.5,7.323,7.323,0,0,1,.994-1.706l2.73-3.668a.843.843,0,0,1,.289-.229.92.92,0,0,1,.424-.094h1.185ZM118.05-5.37a8.693,8.693,0,0,1-.3,2.441,5.1,5.1,0,0,1-.829,1.706,3.33,3.33,0,0,1-1.241,1,3.621,3.621,0,0,1-1.534.33,3.588,3.588,0,0,1-1.534-.33,3.347,3.347,0,0,1-1.234-1,5.049,5.049,0,0,1-.825-1.706,8.8,8.8,0,0,1-.3-2.441,8.836,8.836,0,0,1,.3-2.445,5.091,5.091,0,0,1,.825-1.714,3.334,3.334,0,0,1,1.234-1.009,3.589,3.589,0,0,1,1.534-.33,3.621,3.621,0,0,1,1.534.33,3.317,3.317,0,0,1,1.241,1.009,5.141,5.141,0,0,1,.829,1.714A8.734,8.734,0,0,1,118.05-5.37Zm-1.387,0a8.784,8.784,0,0,0-.206-2.066,4.143,4.143,0,0,0-.555-1.346,2.1,2.1,0,0,0-.806-.731,2.162,2.162,0,0,0-.952-.221,2.162,2.162,0,0,0-.952.221,2.069,2.069,0,0,0-.8.731,4.2,4.2,0,0,0-.551,1.346,8.784,8.784,0,0,0-.206,2.066,8.736,8.736,0,0,0,.206,2.063,4.2,4.2,0,0,0,.551,1.342,2.069,2.069,0,0,0,.8.731,2.162,2.162,0,0,0,.952.221,2.162,2.162,0,0,0,.952-.221,2.1,2.1,0,0,0,.806-.731,4.143,4.143,0,0,0,.555-1.342A8.735,8.735,0,0,0,116.662-5.37Zm3.96-2.22a2.65,2.65,0,0,0,.146.911,1.856,1.856,0,0,0,.42.679,1.767,1.767,0,0,0,.667.42,2.576,2.576,0,0,0,.881.142,2.434,2.434,0,0,0,.956-.176,2.117,2.117,0,0,0,.7-.469,2.008,2.008,0,0,0,.435-.675,2.159,2.159,0,0,0,.15-.8,2.464,2.464,0,0,0-.161-.911,2.01,2.01,0,0,0-.446-.694,1.95,1.95,0,0,0-.679-.439,2.362,2.362,0,0,0-.866-.154,2.413,2.413,0,0,0-.9.161,2.1,2.1,0,0,0-.7.446,1.935,1.935,0,0,0-.45.683A2.341,2.341,0,0,0,120.622-7.59Zm3.12,3.308q.165-.217.308-.412t.27-.39a2.988,2.988,0,0,1-.93.5,3.44,3.44,0,0,1-1.1.173,3.272,3.272,0,0,1-1.151-.2,2.769,2.769,0,0,1-.956-.6,2.868,2.868,0,0,1-.656-.968,3.341,3.341,0,0,1-.244-1.316,3.327,3.327,0,0,1,.263-1.32,3.256,3.256,0,0,1,.735-1.072,3.446,3.446,0,0,1,1.125-.72,3.8,3.8,0,0,1,1.432-.263,3.707,3.707,0,0,1,1.4.255,3.154,3.154,0,0,1,1.08.712,3.138,3.138,0,0,1,.694,1.1,3.919,3.919,0,0,1,.244,1.41,4.336,4.336,0,0,1-.086.881,4.8,4.8,0,0,1-.247.818,5.865,5.865,0,0,1-.394.795q-.233.394-.525.806l-2.618,3.78a.685.685,0,0,1-.278.229A.943.943,0,0,1,121.7,0h-1.23ZM154.035-1.02V0h-5.76V-1.02h2.3V-8.347q0-.33.022-.668l-1.912,1.642a.432.432,0,0,1-.2.1.488.488,0,0,1-.18,0,.429.429,0,0,1-.154-.06.381.381,0,0,1-.109-.1L147.63-8l3.2-2.767h1.088v9.75Zm9.315-4.35a8.693,8.693,0,0,1-.3,2.441,5.1,5.1,0,0,1-.829,1.706,3.33,3.33,0,0,1-1.241,1,3.621,3.621,0,0,1-1.534.33,3.589,3.589,0,0,1-1.534-.33,3.347,3.347,0,0,1-1.234-1,5.049,5.049,0,0,1-.825-1.706,8.8,8.8,0,0,1-.3-2.441,8.837,8.837,0,0,1,.3-2.445,5.091,5.091,0,0,1,.825-1.714,3.334,3.334,0,0,1,1.234-1.009,3.589,3.589,0,0,1,1.534-.33,3.621,3.621,0,0,1,1.534.33,3.317,3.317,0,0,1,1.241,1.009,5.141,5.141,0,0,1,.829,1.714A8.734,8.734,0,0,1,163.35-5.37Zm-1.387,0a8.784,8.784,0,0,0-.206-2.066,4.143,4.143,0,0,0-.555-1.346,2.1,2.1,0,0,0-.806-.731,2.162,2.162,0,0,0-.952-.221,2.162,2.162,0,0,0-.952.221,2.069,2.069,0,0,0-.8.731,4.2,4.2,0,0,0-.551,1.346,8.784,8.784,0,0,0-.206,2.066,8.736,8.736,0,0,0,.206,2.063,4.2,4.2,0,0,0,.551,1.342,2.069,2.069,0,0,0,.8.731,2.162,2.162,0,0,0,.952.221,2.162,2.162,0,0,0,.952-.221,2.1,2.1,0,0,0,.806-.731,4.143,4.143,0,0,0,.555-1.342A8.736,8.736,0,0,0,161.962-5.37ZM7.4,60.732a.466.466,0,0,1,.345.128.447.447,0,0,1,.128.33V62H.705v-.458a.785.785,0,0,1,.06-.292.826.826,0,0,1,.188-.278l3.442-3.458q.428-.435.78-.836a5.846,5.846,0,0,0,.6-.806,3.857,3.857,0,0,0,.383-.821,2.864,2.864,0,0,0,.135-.889,2.123,2.123,0,0,0-.15-.829,1.625,1.625,0,0,0-.409-.589,1.7,1.7,0,0,0-.611-.349,2.4,2.4,0,0,0-.758-.116,2.292,2.292,0,0,0-.757.12A2.035,2.035,0,0,0,3,52.734a1.965,1.965,0,0,0-.446.506,2.024,2.024,0,0,0-.255.645.6.6,0,0,1-.244.349.7.7,0,0,1-.431.049l-.7-.12a3.9,3.9,0,0,1,.409-1.3,3.15,3.15,0,0,1,.765-.949,3.256,3.256,0,0,1,1.054-.581,4.009,4.009,0,0,1,1.283-.2,3.917,3.917,0,0,1,1.275.2,2.978,2.978,0,0,1,1.028.589,2.725,2.725,0,0,1,.682.941,3.063,3.063,0,0,1,.248,1.26,3.346,3.346,0,0,1-.18,1.114A4.417,4.417,0,0,1,7,56.217a7.565,7.565,0,0,1-.709.908q-.4.443-.851.893L2.6,60.912a5.592,5.592,0,0,1,.608-.131,3.785,3.785,0,0,1,.592-.049Zm9.548-4.1a8.694,8.694,0,0,1-.3,2.441,5.1,5.1,0,0,1-.829,1.706,3.33,3.33,0,0,1-1.241,1.005,3.729,3.729,0,0,1-3.068,0,3.347,3.347,0,0,1-1.234-1.005,5.049,5.049,0,0,1-.825-1.706,10.1,10.1,0,0,1,0-4.886,5.091,5.091,0,0,1,.825-1.714,3.334,3.334,0,0,1,1.234-1.009,3.729,3.729,0,0,1,3.068,0,3.317,3.317,0,0,1,1.241,1.009,5.141,5.141,0,0,1,.829,1.714A8.734,8.734,0,0,1,16.95,56.63Zm-1.388,0a8.784,8.784,0,0,0-.206-2.066,4.143,4.143,0,0,0-.555-1.346,2.1,2.1,0,0,0-.806-.731,2.161,2.161,0,0,0-1.9,0,2.069,2.069,0,0,0-.8.731,4.2,4.2,0,0,0-.551,1.346,10.434,10.434,0,0,0,0,4.129,4.2,4.2,0,0,0,.551,1.342,2.069,2.069,0,0,0,.8.731,2.161,2.161,0,0,0,1.9,0,2.1,2.1,0,0,0,.806-.731,4.143,4.143,0,0,0,.555-1.342A8.735,8.735,0,0,0,15.563,56.63ZM44,60.732a.466.466,0,0,1,.345.128.447.447,0,0,1,.127.33V62h-7.17v-.458a.785.785,0,0,1,.06-.292.826.826,0,0,1,.188-.278l3.443-3.458q.427-.435.78-.836a5.846,5.846,0,0,0,.6-.806,3.857,3.857,0,0,0,.382-.821,2.864,2.864,0,0,0,.135-.889,2.123,2.123,0,0,0-.15-.829,1.625,1.625,0,0,0-.409-.589,1.7,1.7,0,0,0-.611-.349,2.4,2.4,0,0,0-.757-.116,2.292,2.292,0,0,0-.757.12,2.035,2.035,0,0,0-.611.334,1.965,1.965,0,0,0-.446.506,2.024,2.024,0,0,0-.255.645.6.6,0,0,1-.244.349.7.7,0,0,1-.431.049l-.7-.12a3.9,3.9,0,0,1,.409-1.3,3.15,3.15,0,0,1,.765-.949,3.256,3.256,0,0,1,1.054-.581,4.009,4.009,0,0,1,1.282-.2,3.917,3.917,0,0,1,1.275.2,2.978,2.978,0,0,1,1.028.589,2.725,2.725,0,0,1,.682.941,3.063,3.063,0,0,1,.248,1.26,3.346,3.346,0,0,1-.18,1.114,4.417,4.417,0,0,1-.487.979,7.565,7.565,0,0,1-.709.908q-.4.443-.851.893L39.2,60.912a5.592,5.592,0,0,1,.607-.131,3.785,3.785,0,0,1,.593-.049Zm8.932.248V62h-5.76V60.98h2.3V53.653q0-.33.022-.667l-1.913,1.642a.432.432,0,0,1-.195.1.488.488,0,0,1-.18,0,.429.429,0,0,1-.154-.06.381.381,0,0,1-.109-.1L46.53,54l3.2-2.767H50.82v9.75ZM80.6,60.732a.466.466,0,0,1,.345.128.447.447,0,0,1,.128.33V62H73.9v-.458a.785.785,0,0,1,.06-.292.826.826,0,0,1,.188-.278l3.442-3.458q.428-.435.78-.836a5.846,5.846,0,0,0,.6-.806,3.857,3.857,0,0,0,.382-.821,2.864,2.864,0,0,0,.135-.889,2.123,2.123,0,0,0-.15-.829,1.625,1.625,0,0,0-.409-.589,1.7,1.7,0,0,0-.611-.349,2.4,2.4,0,0,0-.757-.116,2.292,2.292,0,0,0-.757.12,2.035,2.035,0,0,0-.611.334,1.965,1.965,0,0,0-.446.506,2.024,2.024,0,0,0-.255.645.6.6,0,0,1-.244.349.7.7,0,0,1-.431.049l-.7-.12a3.9,3.9,0,0,1,.409-1.3,3.15,3.15,0,0,1,.765-.949,3.256,3.256,0,0,1,1.054-.581,4.009,4.009,0,0,1,1.283-.2,3.917,3.917,0,0,1,1.275.2,2.978,2.978,0,0,1,1.028.589,2.725,2.725,0,0,1,.683.941,3.063,3.063,0,0,1,.247,1.26,3.346,3.346,0,0,1-.18,1.114,4.417,4.417,0,0,1-.488.979,7.564,7.564,0,0,1-.709.908q-.4.443-.851.893L75.8,60.912a5.592,5.592,0,0,1,.607-.131A3.785,3.785,0,0,1,77,60.732Zm8.7,0a.466.466,0,0,1,.345.128.447.447,0,0,1,.128.33V62H82.6v-.458a.785.785,0,0,1,.06-.292.826.826,0,0,1,.188-.278l3.442-3.458q.428-.435.78-.836a5.846,5.846,0,0,0,.6-.806,3.857,3.857,0,0,0,.382-.821,2.864,2.864,0,0,0,.135-.889,2.123,2.123,0,0,0-.15-.829,1.625,1.625,0,0,0-.409-.589,1.7,1.7,0,0,0-.611-.349,2.4,2.4,0,0,0-.757-.116,2.292,2.292,0,0,0-.757.12,2.035,2.035,0,0,0-.611.334,1.965,1.965,0,0,0-.446.506,2.024,2.024,0,0,0-.255.645.6.6,0,0,1-.244.349.7.7,0,0,1-.431.049l-.7-.12a3.9,3.9,0,0,1,.409-1.3A3.15,3.15,0,0,1,84,51.912a3.256,3.256,0,0,1,1.054-.581,4.009,4.009,0,0,1,1.283-.2,3.917,3.917,0,0,1,1.275.2,2.978,2.978,0,0,1,1.028.589,2.725,2.725,0,0,1,.683.941,3.063,3.063,0,0,1,.247,1.26,3.346,3.346,0,0,1-.18,1.114,4.417,4.417,0,0,1-.488.979,7.564,7.564,0,0,1-.709.908q-.4.443-.851.893L84.5,60.912a5.592,5.592,0,0,1,.607-.131,3.785,3.785,0,0,1,.592-.049Z" transform="translate(35 112.194)"/>
      </g>
    </g>
    <g id="Group_3218" data-name="Group 3218" transform="matrix(-0.966, 0.259, -0.259, -0.966, 1351.626, 971.741)">
      <g id="Group_1037" data-name="Group 1037" transform="translate(38.743 2.5)">
        <path id="Path_1909" data-name="Path 1909" class="cls-11" d="M31.972.01a1.034,1.034,0,0,0-.96.617c-4.39,10.151-9.054,15.3-13.923,15.3h0C8.72,15.922,2.067.764,2,.627A1.034,1.034,0,0,0,.627.078,1.034,1.034,0,0,0,.078,1.45c.274.686,7.27,16.53,16.941,16.53h0c5.761,0,11.043-5.556,15.775-16.53A1.057,1.057,0,0,0,32.246.078C32.246.01,32.109.01,31.972.01Z" transform="translate(0 0)"/>
      </g>
      <g id="Group_1039" data-name="Group 1039" transform="translate(30.619 0)">
        <path id="Path_1912" data-name="Path 1912" class="cls-11" d="M47.915.04a.989.989,0,0,0-.892.549C40.1,14.1,32.688,20.891,25.006,20.891H24.8C11.838,20.685,2.029.795,1.961.589A1.048,1.048,0,0,0,.589.109a1.048,1.048,0,0,0-.48,1.372C.521,2.372,10.534,22.743,24.8,22.949h.206c8.5,0,16.53-7.2,23.869-21.468A1.021,1.021,0,0,0,48.464.109,1.932,1.932,0,0,0,47.915.04Z" transform="translate(0 0)"/>
      </g>
      <g id="Group_1040" data-name="Group 1040" transform="translate(38.135 12.798)">
        <path id="Path_1913" data-name="Path 1913" class="cls-1" d="M33.471,16.735A16.735,16.735,0,1,0,16.735,33.471,16.714,16.714,0,0,0,33.471,16.735Z" transform="translate(1.029 1.029)"/>
        <path id="Path_1914" data-name="Path 1914" class="cls-11" d="M17.764,0A17.764,17.764,0,1,0,35.529,17.764,17.768,17.768,0,0,0,17.764,0Zm0,33.471A15.707,15.707,0,1,1,33.471,17.764,15.748,15.748,0,0,1,17.764,33.471Z" transform="translate(0)"/>
      </g>
      <g id="Group_1041" data-name="Group 1041" transform="translate(4.733 26.241)">
        <path id="Path_1915" data-name="Path 1915" class="cls-1" d="M95.955,6.859H87.313a3.384,3.384,0,0,1-3.155-2.126H15.227a3.455,3.455,0,0,1-3.155,2.126H3.429A3.4,3.4,0,0,1,0,3.429,3.4,3.4,0,0,1,3.429,0h8.642a3.486,3.486,0,0,1,2.675,1.3H84.638A3.283,3.283,0,0,1,87.313,0h8.642a3.4,3.4,0,0,1,3.429,3.429A3.4,3.4,0,0,1,95.955,6.859Z" transform="translate(1.097 1.097)"/>
        <path id="Path_1916" data-name="Path 1916" class="cls-11" d="M97.052,0H88.41a4.523,4.523,0,0,0-3.155,1.3H16.324A4.523,4.523,0,0,0,13.169,0H4.527A4.567,4.567,0,0,0,0,4.527,4.567,4.567,0,0,0,4.527,9.054h8.642A4.55,4.55,0,0,0,17.01,6.927H84.569A4.55,4.55,0,0,0,88.41,9.054h8.642a4.527,4.527,0,1,0,0-9.054ZM15.3,3.5h70.92l.343-.412a2.382,2.382,0,0,1,1.783-.892h8.642a2.332,2.332,0,0,1,0,4.664H88.341a2.231,2.231,0,0,1-2.126-1.44l-.275-.686h-70.3l-.274.686a2.3,2.3,0,0,1-2.126,1.44H4.6a2.332,2.332,0,1,1,0-4.664h8.573a2.275,2.275,0,0,1,1.783.892Z"/>
      </g>
      <g id="Group_1042" data-name="Group 1042" transform="translate(26.269 22.674)">
        <path id="Path_1917" data-name="Path 1917" class="cls-14" d="M57.2,6.859A6.879,6.879,0,0,0,50.344,0H6.859A6.879,6.879,0,0,0,0,6.859H0a6.879,6.879,0,0,0,6.859,6.859H50.344A6.879,6.879,0,0,0,57.2,6.859Z" transform="translate(1.029 1.029)"/>
        <path id="Path_1918" data-name="Path 1918" class="cls-11" d="M51.372,0H7.888a7.888,7.888,0,0,0,0,15.775H51.372A7.888,7.888,0,1,0,51.372,0ZM7.888,13.718a5.83,5.83,0,0,1,0-11.66H51.373a5.83,5.83,0,0,1,0,11.66Z"/>
      </g>
      <g id="Group_1043" data-name="Group 1043" transform="translate(0 37.215)">
        <line id="Line_283" data-name="Line 283" class="cls-1" x2="26.818" transform="translate(0 1.097)"/>
        <rect id="Rectangle_1796" data-name="Rectangle 1796" class="cls-11" width="26.818" height="2.195" transform="translate(0 0)"/>
      </g>
      <g id="Group_1044" data-name="Group 1044" transform="translate(84.089 37.009)">
        <line id="Line_284" data-name="Line 284" class="cls-1" x2="26.818" transform="translate(0 1.097)"/>
        <rect id="Rectangle_1797" data-name="Rectangle 1797" class="cls-11" width="26.818" height="2.195" transform="translate(0)"/>
      </g>
      <g id="Group_1047" data-name="Group 1047" transform="translate(44.514 30.494)">
        <path id="Path_1920" data-name="Path 1920" class="cls-1" d="M20.919,2.744A2.752,2.752,0,0,0,18.176,0H2.744A2.752,2.752,0,0,0,0,2.744H0A2.752,2.752,0,0,0,2.744,5.487H18.176a2.752,2.752,0,0,0,2.744-2.744Z" transform="translate(1.097 1.097)"/>
        <path id="Path_1921" data-name="Path 1921" class="cls-11" d="M19.273,0H3.841a3.841,3.841,0,0,0,0,7.682H19.273a3.835,3.835,0,0,0,3.841-3.841A3.879,3.879,0,0,0,19.273,0ZM3.841,5.487A1.669,1.669,0,0,1,2.195,3.841,1.669,1.669,0,0,1,3.841,2.195H19.273a1.669,1.669,0,0,1,1.646,1.646,1.669,1.669,0,0,1-1.646,1.646Z" transform="translate(0 0)"/>
      </g>
    </g>
    <g id="Group_3228" data-name="Group 3228" transform="translate(-248 -1720)">
      <g id="Group_3227" data-name="Group 3227">
        <g id="Group_2245" data-name="Group 2245" transform="translate(1478.093 2788.238) rotate(-171)">
          <g id="Group_2241" data-name="Group 2241" transform="matrix(0.985, -0.174, 0.174, 0.985, 0, 8.459)">
            <path id="Path_3109" data-name="Path 3109" class="cls-15" d="M2.767,23.323l18.6-.206a2.869,2.869,0,0,0,2.828-2.82l.195-17.539A2.72,2.72,0,0,0,21.62,0L3.023.206A2.869,2.869,0,0,0,.195,3.026L0,20.565A2.72,2.72,0,0,0,2.767,23.323Z" transform="translate(33.364 0) rotate(51)"/>
            <g id="Group_2243" data-name="Group 2243" transform="translate(28.526 16.59) rotate(-14)">
              <g id="Group_2214" data-name="Group 2214" transform="translate(0 4.609) rotate(-30)">
                <path id="Path_3079" data-name="Path 3079" class="cls-1" d="M.1.625Z" transform="matrix(-0.23, -0.973, 0.973, -0.23, 5.499, 7.872)"/>
                <path id="Path_3080" data-name="Path 3080" class="cls-16" d="M5.192,7.917C7.724,8.249,9.5,6.74,9.18,4.581,8.857,2.4,6.534.375,4.025.046,1.493-.286-.283,1.223.037,3.382.334,5.539,2.66,7.585,5.192,7.917ZM4.121.692A5.064,5.064,0,0,1,8.43,4.482C8.7,6.3,7.206,7.548,5.1,7.271A5.064,5.064,0,0,1,.787,3.481C.518,1.664,2.011.415,4.121.692Z" transform="translate(0 0)"/>
              </g>
              <g id="Group_2216" data-name="Group 2216" transform="translate(4.72 4.746) rotate(-30)">
                <line id="Line_663" data-name="Line 663" class="cls-1" x2="0.482" y2="3.249" transform="translate(0.375 0.049)"/>
                <path id="Path_3082" data-name="Path 3082" class="cls-11" d="M.75.1,0,0,.482,3.249l.75.1Z" transform="translate(0 0)"/>
              </g>
              <g id="Group_2217" data-name="Group 2217" transform="translate(4.112 6.358) rotate(-30)">
                <line id="Line_664" data-name="Line 664" class="cls-1" x2="3.774" y2="0.495" transform="translate(0.048 0.323)"/>
                <path id="Path_3083" data-name="Path 3083" class="cls-11" d="M3.774.495,0,0,.1.646l3.774.495Z" transform="translate(0 0)"/>
              </g>
            </g>
            <path id="Path_3097" data-name="Path 3097" class="cls-17" d="M22.756.14h0L21.966,0,12.959,1.1,0,2.683" transform="translate(0 32.324) rotate(-30)"/>
            <g id="Group_2244" data-name="Group 2244" transform="translate(21.993 10.976) rotate(-14)">
              <g id="Group_2214-2" data-name="Group 2214" transform="translate(0 3.932) rotate(-30)">
                <path id="Path_3079-2" data-name="Path 3079" class="cls-1" d="M.085.534Z" transform="matrix(-0.23, -0.973, 0.973, -0.23, 4.692, 6.717)"/>
                <path id="Path_3080-2" data-name="Path 3080" class="cls-16" d="M4.43,6.755c2.16.283,3.676-1,3.4-2.847A5.177,5.177,0,0,0,3.435.039c-2.16-.283-3.676,1-3.4,2.847C.285,4.726,2.27,6.472,4.43,6.755ZM3.516.59A4.321,4.321,0,0,1,7.193,3.824c.23,1.55-1.044,2.616-2.844,2.38A4.321,4.321,0,0,1,.672,2.97C.442,1.42,1.716.354,3.516.59Z" transform="translate(0)"/>
              </g>
              <g id="Group_2216-2" data-name="Group 2216" transform="translate(4.027 4.05) rotate(-30)">
                <line id="Line_663-2" data-name="Line 663" class="cls-1" x2="0.411" y2="2.773" transform="translate(0.32 0.042)"/>
                <path id="Path_3082-2" data-name="Path 3082" class="cls-18" d="M.64.084,0,0,.411,2.773l.64.084Z" transform="translate(0 0)"/>
              </g>
            </g>
          </g>
        </g>
        <path id="Path_3110" data-name="Path 3110" class="cls-1" d="M8.175,2.256C6.668,1.252-.208.978-.208.978L-3.142,4.373,5.82,5S9.681,3.261,8.175,2.256Z" transform="matrix(0.978, -0.208, 0.208, 0.978, 1438.135, 2750.393)"/>
        <g id="Group_2242" data-name="Group 2242" transform="translate(1472.894 2804.806) rotate(172)">
          <path id="XMLID_20406_" class="cls-19" d="M17.645,10.244c1.166.639.559.806.907,2.087a11.02,11.02,0,0,0,.512,1.771s2.5,1.912,2.685,2a.141.141,0,0,0-.046.091L17.79,22.568,15.7,21.2C15.2,20.884,1.94,10.794,1.94,10.794L1.2,6.708,0,.093S3.894-1.263,4.816,6.382" transform="translate(17.774 57.12) rotate(-77)"/>
          <path id="XMLID_20402_" class="cls-20" d="M40.274,35.613,38.458,23.074l-14.138-12.4L14.9,2.412a1.131,1.131,0,0,0-1.548.182L7.743,8.77a1.08,1.08,0,0,0,.182,1.5l23.487,21.5,4.948,15.262" transform="translate(29.632 50.426) rotate(-68)"/>
        </g>
        <path id="XMLID_20422_" class="cls-20" d="M144.006,577.01c1.684,2.094-6.064,40.685-6.064,40.685l11.087,4.721,3.215-7.534s11.151-55.352,6.128-74.942" transform="translate(1247.127 2301.339)"/>
        <path id="XMLID_20372_" class="cls-20" d="M222.054,601.8l-.754,29.994h29.812v-3.1a5.218,5.218,0,0,0-4.1-5.1l-6.509-1.411c-1.821-.409-2.321-4.005-2.321-4.005l.032-14.662Z" transform="translate(1160.964 2318.375)"/>
        <path id="XMLID_20370_" class="cls-21" d="M29.812-1H0V2.053H29.812Z" transform="translate(1382.264 2948.757)"/>
        <path id="XMLID_20373_" class="cls-20" d="M18.574,6.922h0a2.945,2.945,0,0,1-3.6,2.139L2.234,5.83a2.945,2.945,0,0,1-2.139-3.6h0A2.945,2.945,0,0,1,3.69.095L16.434,3.326A2.945,2.945,0,0,1,18.574,6.922Z" transform="translate(1401.064 2922.046) rotate(169)"/>
        <path id="XMLID_20451_" class="cls-20" d="M37.58,62.446,47.73,6.827,10.363,0,.167,55.755A9.952,9.952,0,0,0,8.132,67.316l17.705,3.232A10.122,10.122,0,0,0,37.58,62.446Z" transform="translate(1416.138 2838.724) rotate(167)"/>
        <path id="XMLID_20427_" class="cls-20" d="M14.383,15.119l1.138-6.1c.045-.182.045-.364.091-.546A6.934,6.934,0,0,0,9.968.964L5.007.053A3.114,3.114,0,0,0,1.365,2.6L0,10.2Z" transform="translate(1395.318 2779.03) rotate(167)"/>
        <path id="XMLID_20425_" class="cls-22" d="M14.474,10l1-5.553c.046-.182.046-.364.091-.546A16.064,16.064,0,0,0,8.42.673L5.871.217A12.977,12.977,0,0,0,.91.263H.865L0,5.042H.046Z" transform="translate(1394.3 2774.622) rotate(167)"/>
        <path id="XMLID_20424_" class="cls-20" d="M14.474,15.287l1.138-6.1c.045-.182.046-.364.091-.546a6.934,6.934,0,0,0-5.644-7.51L4.051.04A2.111,2.111,0,0,0,1.593,1.724L0,10.326Z" transform="translate(1395.489 2779.163) rotate(167)"/>
        <path id="XMLID_20422_2" data-name="XMLID_20422_" class="cls-20" d="M133.236,542.7v.956a12.08,12.08,0,0,0,2.685,7.6c1.684,2.094-2.685,66.426-2.685,66.426l11.087,4.721,3.215-7.534L159.693,556.4" transform="translate(1234.755 2301.352)"/>
        <path id="XMLID_20421_" class="cls-21" d="M9.284.021,20.667-4.5" transform="translate(1379.508 2858.642)"/>
        <path id="XMLID_20420_" class="cls-20" d="M139.05,542.7h0a8.766,8.766,0,0,1-2.5,6.1l-1.047,1.047" transform="translate(1241.868 2301.352)"/>
        <g id="Group_3226" data-name="Group 3226">
          <path id="XMLID_20401_" class="cls-22" d="M32.178,30.348l2-11.015h0A16.029,16.029,0,0,0,21.255.673L18.706.217A13.43,13.43,0,0,0,3.095,11L.5,25.2.136,27.162a8.191,8.191,0,0,0,6.6,9.558L22.12,39.542a8.26,8.26,0,0,0,9.6-6.6l.728-3.914" transform="matrix(-0.809, 0.588, -0.588, -0.809, 1410.191, 2757.687)"/>
          <path id="XMLID_20396_" class="cls-19" d="M32.178,30.348l2-11.014h0A16.029,16.029,0,0,0,21.255.673L18.706.217A13.43,13.43,0,0,0,3.095,11L.5,25.2.136,27.162a8.191,8.191,0,0,0,6.6,9.558L22.12,39.542a8.26,8.26,0,0,0,9.6-6.6l.728-3.914" transform="matrix(-0.809, 0.588, -0.588, -0.809, 1410.138, 2757.614)"/>
          <path id="XMLID_20395_" class="cls-19" d="M3.778.036A2.431,2.431,0,0,0,.956,1.993L0,7.364" transform="matrix(-0.809, 0.588, -0.588, -0.809, 1396.692, 2752.194)"/>
          <path id="XMLID_20394_" class="cls-20" d="M0,0" transform="matrix(-0.809, 0.588, -0.588, -0.809, 1368.397, 2760.948)"/>
          <path id="XMLID_20393_" class="cls-11" d="M7.387,1.138,1.243,0,.554.123l-.54.7h0A1.1,1.1,0,0,0,.833,2.048L6.978,3.186a1.1,1.1,0,0,0,1.229-.819h0A1.018,1.018,0,0,0,7.387,1.138Z" transform="matrix(-0.809, 0.588, -0.588, -0.809, 1386.162, 2744.722)"/>
          <g id="XMLID_20391_" transform="matrix(-0.809, 0.588, -0.588, -0.809, 1403.239, 2736.735)">
            <path id="XMLID_20392_" class="cls-22" d="M39.916,14.454A14.094,14.094,0,0,1,23.531,25.787h-.046L6.69,22.738A8.172,8.172,0,0,1,.136,13.225h0A8.172,8.172,0,0,1,9.649,6.671l17.2,3.141A5.363,5.363,0,0,0,32.77,6.58L35,1.255a2.057,2.057,0,0,1,3.869.228L41.691,4.9l-1.73,9.558Z"/>
          </g>
          <g id="XMLID_20387_" transform="matrix(-0.809, 0.588, -0.588, -0.809, 1403.185, 2736.662)">
            <path id="XMLID_20388_" class="cls-19" d="M39.916,14.454A14.094,14.094,0,0,1,23.531,25.787h-.046L6.69,22.738A8.172,8.172,0,0,1,.136,13.225h0A8.172,8.172,0,0,1,9.649,6.671l17.2,3.141A5.363,5.363,0,0,0,32.77,6.58L35,1.255a2.057,2.057,0,0,1,3.869.228L41.691,4.9l-1.73,9.558Z"/>
          </g>
          <path id="XMLID_20386_" class="cls-11" d="M5.157.742,1.243.014A1.1,1.1,0,0,0,.014.833h0A1.1,1.1,0,0,0,.833,2.062l3.914.728a1.1,1.1,0,0,0,1.229-.819h0A1.051,1.051,0,0,0,5.157.742Z" transform="matrix(-0.809, 0.588, -0.588, -0.809, 1396.258, 2739.879)"/>
          <path id="XMLID_20385_" class="cls-20" d="M.069,3.3A4.026,4.026,0,1,0,4.757.064,3.869,3.869,0,0,0,2.709.246" transform="matrix(-0.809, 0.588, -0.588, -0.809, 1375.471, 2761.12)"/>
          <path id="XMLID_20384_" class="cls-20" d="M0,1.32A1.639,1.639,0,0,0,1.912,0" transform="matrix(-0.809, 0.588, -0.588, -0.809, 1369.944, 2759.824)"/>
          <path id="XMLID_20383_" class="cls-19" d="M8.648,2.594h0A5.8,5.8,0,0,0,5.553,1L0,0" transform="matrix(-0.809, 0.588, -0.588, -0.809, 1399.001, 2756.997)"/>
          <path id="XMLID_20382_" class="cls-19" d="M.014.838A1,1,0,0,1,1.2.021a1,1,0,0,1,.817,1.19,1,1,0,0,1-1.19.817A1.033,1.033,0,0,1,.014.838Z" transform="matrix(-0.809, 0.588, -0.588, -0.809, 1386.659, 2751.782)"/>
          <path id="XMLID_20381_" class="cls-19" d="M.013.765A.912.912,0,0,1,1.1.02a.912.912,0,0,1,.746,1.087.912.912,0,0,1-1.087.746A.943.943,0,0,1,.013.765Z" transform="matrix(-0.809, 0.588, -0.588, -0.809, 1396.952, 2746.892)"/>
        </g>
        <path id="XMLID_20372_2" data-name="XMLID_20372_" class="cls-20" d="M222.054,601.8l-.754,29.994h29.812v-3.1a5.218,5.218,0,0,0-4.1-5.1l-6.509-1.411c-1.821-.409-2.321-4.005-2.321-4.005l.032-14.662Z" transform="translate(1143.886 2318.375)"/>
        <path id="XMLID_20370_2" data-name="XMLID_20370_" class="cls-21" d="M29.812-1H0V2.053H29.812Z" transform="translate(1365.186 2948.757)"/>
        <path id="XMLID_20373_2" data-name="XMLID_20373_" class="cls-20" d="M18.574,6.922h0a2.945,2.945,0,0,1-3.6,2.139L2.234,5.83a2.945,2.945,0,0,1-2.139-3.6h0A2.945,2.945,0,0,1,3.69.095L16.434,3.326A2.945,2.945,0,0,1,18.574,6.922Z" transform="translate(1383.987 2922.046) rotate(169)"/>
        <g id="Group_2239" data-name="Group 2239" transform="translate(1462.472 2766.043) rotate(113)">
          <g id="Group_2248" data-name="Group 2248" transform="translate(-1.366 1.579) rotate(-7)">
            <path id="XMLID_20406_2" data-name="XMLID_20406_" class="cls-20" d="M8.947,3.474l-.519-.579A1.975,1.975,0,0,1,8.558.228.941.941,0,0,1,9.9.344l.908.927,2.2,2.2,3.069,3.071.908.927a11.95,11.95,0,0,1,2.637,4.4s2.378,2.434,2.551,2.55a.212.212,0,0,0-.043.116l-3.718,8.114-1.989-1.739a1.564,1.564,0,0,0-1.643-.29l-.605.406a2.513,2.513,0,0,1-1.773.521C8.263,20.4,1.166,15.391,4.582,11.42,9,15.974,8.6,15.238,8.256,14.775L.474,6.719a1.942,1.942,0,0,1-.13-2.376,1.2,1.2,0,0,1,1.772,0L3.846,6.024" transform="translate(2.273 1.252)"/>
            <path id="XMLID_20405_" class="cls-20" d="M4.649,7.739l-4.02-4A2.506,2.506,0,0,1,.283.9L.326.843A1.29,1.29,0,0,1,2.444.379L7.33,5.189" transform="translate(0 2.202)"/>
            <path id="XMLID_20404_" class="cls-20" d="M2.747,5.827.629,3.741A2.506,2.506,0,0,1,.283.9L.326.843A1.29,1.29,0,0,1,2.445.379L6.292,4.088" transform="translate(4.626 1.507)"/>
            <path id="XMLID_20403_" class="cls-20" d="M2.531,5.6.629,3.741A2.506,2.506,0,0,1,.283.9L.326.843A1.289,1.289,0,0,1,2.444.379L5.514,3.393" transform="translate(8.387 0)"/>
          </g>
          <path id="XMLID_20402_2" data-name="XMLID_20402_" class="cls-20" d="M39.339,47.248,27.287,16.3,15.609,7.177,6.785.286a.9.9,0,0,0-1.47.232l-5.1,9.1a1.712,1.712,0,0,0,.173,1.912L18.968,25.674,30.2,57.97" transform="translate(19.264 13.886)"/>
        </g>
      </g>
    </g>
    <g id="Group_2234" data-name="Group 2234" transform="translate(1276.576 906.206) rotate(-2)">
      <path id="Path_1795" data-name="Path 1795" class="cls-23" d="M5733.72,954.325a21.348,21.348,0,0,0,12.1-17.784c-11.61-7.028-11.71-6.941-11.71-6.941s0,.173-11.412,6.334C5721.913,949.122,5733.72,954.325,5733.72,954.325Z" transform="translate(-5722.663 -929.6)"/>
      <path id="Path_1796-2" data-name="Path 1796" class="cls-9" d="M5691.253,947.4l-6.183,7.655-3.936-3.31-.333-.37" transform="translate(-5674.675 -939.42)"/>
    </g>
  </g>
</svg>
