<svg xmlns="http://www.w3.org/2000/svg" xmlns:xlink="http://www.w3.org/1999/xlink" viewBox="-7074 732 103.29 137.37">
  <defs>
    <style>
      .cls-1 {
        fill: url(#linear-gradient);
      }

      .cls-2, .cls-5 {
        fill: #fff;
      }

      .cls-2 {
        opacity: 0.51;
      }

      .cls-3 {
        fill: url(#linear-gradient-4);
      }

      .cls-4 {
        fill: url(#linear-gradient-5);
      }

      .cls-6 {
        fill: url(#linear-gradient-6);
      }

      .cls-7 {
        fill: url(#linear-gradient-7);
      }

      .cls-8 {
        fill: url(#linear-gradient-8);
      }

      .cls-9 {
        fill: url(#linear-gradient-9);
      }

      .cls-10 {
        fill: url(#linear-gradient-10);
      }

      .cls-11 {
        fill: url(#linear-gradient-11);
      }

      .cls-12 {
        fill: url(#linear-gradient-12);
      }

      .cls-13 {
        fill: url(#linear-gradient-13);
      }

      .cls-14 {
        fill: url(#linear-gradient-14);
      }

      .cls-15 {
        fill: url(#linear-gradient-15);
      }

      .cls-16 {
        fill: url(#linear-gradient-16);
      }

      .cls-17 {
        fill: url(#linear-gradient-17);
      }

      .cls-18, .cls-36 {
        opacity: 0.3;
      }

      .cls-18 {
        fill: url(#linear-gradient-18);
      }

      .cls-19 {
        fill: url(#linear-gradient-21);
      }

      .cls-20 {
        fill: url(#linear-gradient-22);
      }

      .cls-21 {
        fill: url(#linear-gradient-24);
      }

      .cls-22 {
        fill: url(#linear-gradient-25);
      }

      .cls-23 {
        fill: url(#linear-gradient-26);
      }

      .cls-24 {
        fill: url(#linear-gradient-27);
      }

      .cls-25 {
        fill: url(#linear-gradient-28);
      }

      .cls-26 {
        fill: url(#linear-gradient-29);
      }

      .cls-27 {
        fill: url(#linear-gradient-30);
      }

      .cls-28 {
        fill: url(#linear-gradient-31);
      }

      .cls-29 {
        fill: url(#linear-gradient-32);
      }

      .cls-30 {
        fill: url(#linear-gradient-33);
      }

      .cls-31 {
        fill: url(#linear-gradient-34);
      }

      .cls-32 {
        fill: url(#linear-gradient-36);
      }

      .cls-33 {
        fill: url(#linear-gradient-39);
      }

      .cls-34 {
        fill: url(#linear-gradient-40);
      }

      .cls-35 {
        fill: url(#linear-gradient-43);
      }

      .cls-36 {
        fill: url(#linear-gradient-44);
      }

      .cls-37 {
        fill: url(#linear-gradient-45);
      }

      .cls-38 {
        fill: url(#linear-gradient-46);
      }

      .cls-39 {
        fill: url(#linear-gradient-47);
      }

      .cls-40 {
        fill: url(#linear-gradient-48);
      }

      .cls-41 {
        fill: url(#linear-gradient-49);
      }

      .cls-42 {
        fill: url(#linear-gradient-50);
      }

      .cls-43 {
        fill: url(#linear-gradient-51);
      }

      .cls-44 {
        fill: url(#linear-gradient-52);
      }

      .cls-45 {
        fill: url(#linear-gradient-53);
      }

      .cls-46 {
        fill: url(#linear-gradient-54);
      }

      .cls-47 {
        fill: url(#linear-gradient-55);
      }

      .cls-48 {
        fill: url(#linear-gradient-56);
      }

      .cls-49 {
        fill: url(#linear-gradient-57);
      }
    </style>
    <linearGradient id="linear-gradient" y1="0.5" x2="1" y2="0.5" gradientUnits="objectBoundingBox">
      <stop offset="0" stop-color="#3e77bc"/>
      <stop offset="0.05" stop-color="#407bbf"/>
      <stop offset="0.37" stop-color="#4a8fcd"/>
      <stop offset="0.68" stop-color="#509bd5"/>
      <stop offset="1" stop-color="#529fd8"/>
    </linearGradient>
    <linearGradient id="linear-gradient-4" y1="0.5" x2="1" y2="0.5" xlink:href="#linear-gradient"/>
    <linearGradient id="linear-gradient-5" y1="0.5" x2="1" y2="0.5" xlink:href="#linear-gradient"/>
    <linearGradient id="linear-gradient-6" x1="0.001" y1="0.5" x2="0.996" y2="0.5" xlink:href="#linear-gradient"/>
    <linearGradient id="linear-gradient-7" x1="0.004" y1="0.503" x2="0.999" y2="0.503" xlink:href="#linear-gradient"/>
    <linearGradient id="linear-gradient-8" x1="-0.003" y1="0.495" x2="1.001" y2="0.495" gradientUnits="objectBoundingBox">
      <stop offset="0" stop-color="#3e77bc"/>
      <stop offset="1" stop-color="#529fd8"/>
    </linearGradient>
    <linearGradient id="linear-gradient-9" x1="0.004" y1="0.496" x2="1" y2="0.496" xlink:href="#linear-gradient-8"/>
    <linearGradient id="linear-gradient-10" x1="0" y1="0.5" x2="1" y2="0.5" xlink:href="#linear-gradient-8"/>
    <linearGradient id="linear-gradient-11" x1="0.003" y1="0.501" x2="1" y2="0.501" xlink:href="#linear-gradient-8"/>
    <linearGradient id="linear-gradient-12" x1="0.001" y1="0.5" x2="1" y2="0.5" xlink:href="#linear-gradient-8"/>
    <linearGradient id="linear-gradient-13" x1="-0.005" y1="0.501" x2="0.994" y2="0.501" xlink:href="#linear-gradient-8"/>
    <linearGradient id="linear-gradient-14" x1="0.003" y1="0.499" x2="1" y2="0.499" xlink:href="#linear-gradient-8"/>
    <linearGradient id="linear-gradient-15" x1="0" y1="0.5" x2="1" y2="0.5" xlink:href="#linear-gradient-8"/>
    <linearGradient id="linear-gradient-16" x1="0.003" y1="0.5" x2="1" y2="0.5" xlink:href="#linear-gradient-8"/>
    <linearGradient id="linear-gradient-17" x1="0" y1="0.5" x2="1" y2="0.5" xlink:href="#linear-gradient-8"/>
    <linearGradient id="linear-gradient-18" x1="-0.232" y1="0.199" x2="0.625" y2="0.78" gradientUnits="objectBoundingBox">
      <stop offset="0" stop-color="#231f20"/>
      <stop offset="0.61" stop-color="#231f20" stop-opacity="0.29"/>
      <stop offset="1" stop-color="#231f20" stop-opacity="0"/>
    </linearGradient>
    <linearGradient id="linear-gradient-21" y1="0.5" x2="1" y2="0.5" xlink:href="#linear-gradient"/>
    <linearGradient id="linear-gradient-22" y1="0.5" x2="1" y2="0.5" xlink:href="#linear-gradient"/>
    <linearGradient id="linear-gradient-24" y1="0.5" x2="1" y2="0.5" xlink:href="#linear-gradient"/>
    <linearGradient id="linear-gradient-25" x1="0.003" y1="0.503" x2="0.997" y2="0.503" xlink:href="#linear-gradient"/>
    <linearGradient id="linear-gradient-26" x1="0.001" y1="0.499" x2="0.996" y2="0.499" xlink:href="#linear-gradient"/>
    <linearGradient id="linear-gradient-27" x1="-0.003" y1="0.497" x2="1.001" y2="0.497" xlink:href="#linear-gradient-8"/>
    <linearGradient id="linear-gradient-28" x1="0.004" y1="0.497" x2="1" y2="0.497" xlink:href="#linear-gradient-8"/>
    <linearGradient id="linear-gradient-29" x1="0" y1="0.5" x2="1" y2="0.5" xlink:href="#linear-gradient-8"/>
    <linearGradient id="linear-gradient-30" x1="-0.001" y1="0.5" x2="1" y2="0.5" xlink:href="#linear-gradient-8"/>
    <linearGradient id="linear-gradient-31" x1="0.001" y1="0.503" x2="1" y2="0.503" xlink:href="#linear-gradient-8"/>
    <linearGradient id="linear-gradient-32" x1="0" y1="0.501" x2="1" y2="0.501" xlink:href="#linear-gradient-8"/>
    <linearGradient id="linear-gradient-33" x1="-0.003" y1="0.5" x2="1" y2="0.5" xlink:href="#linear-gradient-8"/>
    <linearGradient id="linear-gradient-34" x1="0" y1="0.5" x2="1" y2="0.5" xlink:href="#linear-gradient-8"/>
    <linearGradient id="linear-gradient-36" x1="0" y1="0.501" x2="1" y2="0.501" xlink:href="#linear-gradient-8"/>
    <linearGradient id="linear-gradient-39" x1="0" y1="0.5" x2="1" y2="0.5" xlink:href="#linear-gradient-8"/>
    <linearGradient id="linear-gradient-40" x1="0" y1="0.5" x2="1" y2="0.5" xlink:href="#linear-gradient-8"/>
    <linearGradient id="linear-gradient-43" x1="0.002" y1="0.499" x2="0.998" y2="0.499" xlink:href="#linear-gradient"/>
    <linearGradient id="linear-gradient-44" x1="-0.233" y1="0.199" x2="0.625" y2="0.78" xlink:href="#linear-gradient-18"/>
    <linearGradient id="linear-gradient-45" x1="0.004" y1="0.503" x2="0.998" y2="0.503" xlink:href="#linear-gradient"/>
    <linearGradient id="linear-gradient-46" x1="0" y1="0.497" x2="1" y2="0.497" xlink:href="#linear-gradient-8"/>
    <linearGradient id="linear-gradient-47" x1="0" y1="0.498" x2="1" y2="0.498" xlink:href="#linear-gradient-8"/>
    <linearGradient id="linear-gradient-48" x1="0" y1="0.5" x2="1" y2="0.5" xlink:href="#linear-gradient-8"/>
    <linearGradient id="linear-gradient-49" x1="0" y1="0.501" x2="1" y2="0.501" xlink:href="#linear-gradient-8"/>
    <linearGradient id="linear-gradient-50" x1="0.001" y1="0.498" x2="1" y2="0.498" xlink:href="#linear-gradient-8"/>
    <linearGradient id="linear-gradient-51" x1="-0.005" y1="0.5" x2="0.995" y2="0.5" xlink:href="#linear-gradient-8"/>
    <linearGradient id="linear-gradient-52" x1="0" y1="0.5" x2="1" y2="0.5" xlink:href="#linear-gradient-8"/>
    <linearGradient id="linear-gradient-53" x1="0.001" y1="0.5" x2="1" y2="0.5" xlink:href="#linear-gradient-8"/>
    <linearGradient id="linear-gradient-54" x1="0.004" y1="0.5" x2="1" y2="0.5" xlink:href="#linear-gradient-8"/>
    <linearGradient id="linear-gradient-55" x1="0.004" y1="0.499" x2="1" y2="0.499" xlink:href="#linear-gradient-8"/>
    <linearGradient id="linear-gradient-56" x1="0" y1="0.5" x2="1" y2="0.5" xlink:href="#linear-gradient-8"/>
    <linearGradient id="linear-gradient-57" x1="-0.03" y1="10.516" x2="1.008" y2="10.516" xlink:href="#linear-gradient-8"/>
  </defs>
  <g id="Group_3210" data-name="Group 3210" transform="translate(-7958 -61.241)">
    <g id="icon_23" data-name="icon 23" transform="translate(884 818.598)">
      <g id="DESIGNED_BY_FREEPIK" data-name="DESIGNED BY FREEPIK" transform="translate(0 0)">
        <path id="Path_4902" data-name="Path 4902" class="cls-1" d="M363.875,370.212a.381.381,0,0,1-.375-.375l.1-29.214a.375.375,0,0,1,.188-.323l9.856-5.727a.375.375,0,0,1,.567.327l-.1,29.211a.375.375,0,0,1-.188.323l-9.859,5.727A.375.375,0,0,1,363.875,370.212Zm.477-29.372-.1,28.344,9.105-5.292.1-28.344Z" transform="translate(-270.956 -267.191)"/>
        <path id="Path_4903" data-name="Path 4903" class="cls-2" d="M181.317,235.548l-.1,29.211L141.35,241.741l.1-29.211Z" transform="translate(-88.3 -162.113)"/>
        <path id="Path_4904" data-name="Path 4904" class="cls-1" d="M297.521,341.437a.375.375,0,0,1-.188-.053l-39.866-23.018a.375.375,0,0,1-.188-.327l.1-29.21a.375.375,0,0,1,.563-.323l39.869,23.018a.375.375,0,0,1,.188.327l-.1,29.211a.375.375,0,0,1-.188.326A.409.409,0,0,1,297.521,341.437Zm-39.49-23.611,39.119,22.586.1-28.347-39.119-22.583Z" transform="translate(-204.601 -238.416)"/>
        <path id="Path_4905" data-name="Path 4905" class="cls-2" d="M141.71,171.127l9.859-5.727,39.866,23.018-9.856,5.727Z" transform="translate(-88.525 -132.671)"/>
        <path id="Path_4906" data-name="Path 4906" class="cls-1" d="M297.876,270.829a.375.375,0,0,1-.188-.049l-39.869-23.018a.375.375,0,0,1,0-.649l9.859-5.727a.375.375,0,0,1,.375,0L307.923,264.4a.375.375,0,0,1,0,.649l-9.859,5.731A.375.375,0,0,1,297.876,270.829Zm-39.119-23.393,39.119,22.586,9.109-5.3-39.119-22.583Z" transform="translate(-204.821 -208.98)"/>
        <path id="Path_4907" data-name="Path 4907" class="cls-2" d="M247.878,232.457l9.856-5.727-.034,11.957-9.859,5.731Z" transform="translate(-154.823 -170.983)"/>
        <path id="Path_4908" data-name="Path 4908" class="cls-3" d="M364.145,321.1a.381.381,0,0,1-.375-.379l.034-11.957a.375.375,0,0,1,.188-.323l9.856-5.727a.375.375,0,0,1,.567.323L374.365,315a.375.375,0,0,1-.188.323l-9.859,5.727A.376.376,0,0,1,364.145,321.1Zm.409-12.119-.034,11.09,9.094-5.273.03-11.09Z" transform="translate(-271.124 -247.289)"/>
        <path id="Path_4909" data-name="Path 4909" class="cls-2" d="M181.523,203.678l-.038,11.961L141.62,192.621l.034-11.961Z" transform="translate(-88.468 -142.204)"/>
        <path id="Path_4910" data-name="Path 4910" class="cls-4" d="M297.76,292.323a.376.376,0,0,1-.188-.053l-39.884-23.018a.375.375,0,0,1-.188-.323l.034-11.961a.375.375,0,0,1,.563-.323l39.869,23.018a.375.375,0,0,1,.188.327l-.034,11.957a.382.382,0,0,1-.36.375Zm-39.494-23.611L297.384,291.3l.034-11.094L258.3,257.618Z" transform="translate(-204.739 -218.513)"/>
        <path id="Path_4911" data-name="Path 4911" class="cls-5" d="M281.217,282.223a4.128,4.128,0,0,1,1.877,3.235c0,1.19-.844,1.67-1.877,1.073a4.129,4.129,0,0,1-1.877-3.235C279.34,282.107,280.181,281.627,281.217,282.223Z" transform="translate(-218.382 -234.362)"/>
        <path id="Path_4912" data-name="Path 4912" class="cls-6" d="M281.412,286.545a2.075,2.075,0,0,1-1.028-.311,4.466,4.466,0,0,1-2.053-3.558,1.663,1.663,0,0,1,.751-1.531,1.681,1.681,0,0,1,1.7.131h0a4.478,4.478,0,0,1,2.057,3.565,1.666,1.666,0,0,1-.751,1.528A1.344,1.344,0,0,1,281.412,286.545Zm-1.67-4.811a.6.6,0,0,0-.3.071.976.976,0,0,0-.375.882,3.753,3.753,0,0,0,1.678,2.909.781.781,0,0,0,1.317-.751,3.753,3.753,0,0,0-1.681-2.909h0A1.328,1.328,0,0,0,279.742,281.733Z" transform="translate(-217.748 -233.74)"/>
        <path id="Path_4913" data-name="Path 4913" class="cls-5" d="M335.957,313.823a4.128,4.128,0,0,1,1.877,3.239c0,1.186-.844,1.666-1.877,1.07a4.128,4.128,0,0,1-1.877-3.235C334.08,313.707,334.921,313.227,335.957,313.823Z" transform="translate(-252.577 -254.102)"/>
        <path id="Path_4914" data-name="Path 4914" class="cls-7" d="M336.122,318.075a2.109,2.109,0,0,1-1.028-.308,4.474,4.474,0,0,1-2.057-3.562,1.5,1.5,0,0,1,2.443-1.4,4.463,4.463,0,0,1,2.057,3.562,1.67,1.67,0,0,1-.751,1.527A1.343,1.343,0,0,1,336.122,318.075Zm-1.67-4.823a.559.559,0,0,0-.3.075.961.961,0,0,0-.375.878,3.753,3.753,0,0,0,1.681,2.909.789.789,0,0,0,1.329-.747,3.753,3.753,0,0,0-1.681-2.909h0A1.329,1.329,0,0,0,334.452,313.252Z" transform="translate(-251.913 -253.411)"/>
        <path id="Path_4915" data-name="Path 4915" class="cls-8" d="M328.515,348.076a1.2,1.2,0,0,1,.161-.484.589.589,0,0,1,.3-.24.729.729,0,0,1,.405,0,1.752,1.752,0,0,1,.492.2,2.326,2.326,0,0,1,.5.375,2.447,2.447,0,0,1,.375.465,2.274,2.274,0,0,1,.24.514,1.647,1.647,0,0,1,.083.51,1.219,1.219,0,0,1-.041.375.458.458,0,0,1-.124.218.353.353,0,0,1-.2.094.752.752,0,0,1-.267,0,2.431,2.431,0,0,1,.533.7,1.775,1.775,0,0,1,.176.769,1.088,1.088,0,0,1-.113.537.575.575,0,0,1-.3.27.785.785,0,0,1-.432.019,1.788,1.788,0,0,1-.522-.21,2.786,2.786,0,0,1-.522-.375,2.5,2.5,0,0,1-.375-.458,3.062,3.062,0,0,1-.282-.54,4.463,4.463,0,0,1-.2-.631l.3.03a.405.405,0,0,1,.221.1.484.484,0,0,1,.15.218c.034.09.071.184.109.278a2.119,2.119,0,0,0,.143.274,1.986,1.986,0,0,0,.191.248,1.217,1.217,0,0,0,.266.2.75.75,0,0,0,.3.113.323.323,0,0,0,.345-.2.642.642,0,0,0,.041-.233,1.727,1.727,0,0,0-.03-.315.9.9,0,0,0-.128-.3,1.429,1.429,0,0,0-.274-.308,3.044,3.044,0,0,0-.484-.334V349.4a1.719,1.719,0,0,0,.417.188.458.458,0,0,0,.263,0,.218.218,0,0,0,.135-.139.718.718,0,0,0,.037-.255,1.088,1.088,0,0,0-.158-.578,1.175,1.175,0,0,0-.417-.409.691.691,0,0,0-.221-.086.375.375,0,0,0-.184,0,.29.29,0,0,0-.135.086.409.409,0,0,0-.083.161c-.03.079-.071.12-.124.12a.375.375,0,0,1-.21-.1Z" transform="translate(-249.035 -275.189)"/>
        <path id="Path_4916" data-name="Path 4916" class="cls-9" d="M347.7,363.26v.45a.1.1,0,0,1-.034.086c-.026.019-.06,0-.1,0l-.375-.21v1.126l-.589-.338v-1.126l-1.678-.968a.352.352,0,0,1-.12-.116.462.462,0,0,1-.068-.161l-.071-.435,1.877-1.8.642.375v2.845Zm-1.088-.631v-1.5a3.2,3.2,0,0,1,.022-.454l-1.231,1.246Z" transform="translate(-259.186 -282.965)"/>
        <path id="Path_4917" data-name="Path 4917" class="cls-10" d="M269.215,346.035l-.139.116a.856.856,0,0,1,.248.041,1.287,1.287,0,0,1,.289.131,2.22,2.22,0,0,1,.439.338,2.485,2.485,0,0,1,.634,1.051,2.083,2.083,0,0,1,.1.653,1.281,1.281,0,0,1-.1.537.657.657,0,0,1-.285.323.706.706,0,0,1-.443.071,1.5,1.5,0,0,1-.574-.21,2.628,2.628,0,0,1-.57-.447,2.913,2.913,0,0,1-.432-.574,2.948,2.948,0,0,1-.274-.664,2.824,2.824,0,0,1-.094-.706,1.5,1.5,0,0,1,.116-.6,1.434,1.434,0,0,1,.353-.5l.946-.912a.2.2,0,0,1,.146-.049.5.5,0,0,1,.218.075l.6.349Zm.154,2.406a.721.721,0,0,0,.3.109.309.309,0,0,0,.372-.2.713.713,0,0,0,.056-.3,1.426,1.426,0,0,0-.2-.732,1.383,1.383,0,0,0-.229-.3,1.456,1.456,0,0,0-.3-.229.75.75,0,0,0-.3-.105.323.323,0,0,0-.225.045.375.375,0,0,0-.143.18.717.717,0,0,0-.053.3,1.573,1.573,0,0,0,.045.375,1.351,1.351,0,0,0,.135.342,1.216,1.216,0,0,0,.221.3A1.27,1.27,0,0,0,269.368,348.441Z" transform="translate(-211.304 -273.512)"/>
        <path id="Path_4918" data-name="Path 4918" class="cls-11" d="M289.331,354.383v.338a.721.721,0,0,1-.026.229.988.988,0,0,1-.056.124l-1.5,2.687a.236.236,0,0,1-.131.109.308.308,0,0,1-.229-.053l-.492-.285,1.535-2.6c.038-.049.071-.1.105-.135a.613.613,0,0,1,.113-.109l-1.91-1.085a.375.375,0,0,1-.113-.116.323.323,0,0,1-.045-.154v-.525Z" transform="translate(-222.905 -278.617)"/>
        <path id="Path_4919" data-name="Path 4919" class="cls-12" d="M306.3,366.344a2.308,2.308,0,0,1,.537.724,1.846,1.846,0,0,1,.173.781,1.092,1.092,0,0,1-.1.492.529.529,0,0,1-.281.255.8.8,0,0,1-.435.019,1.911,1.911,0,0,1-.563-.233,2.8,2.8,0,0,1-.563-.417,2.847,2.847,0,0,1-.435-.522,2.518,2.518,0,0,1-.281-.582,1.875,1.875,0,0,1-.1-.6.822.822,0,0,1,.173-.582.555.555,0,0,1,.537-.105,2.287,2.287,0,0,1-.432-.646,1.734,1.734,0,0,1-.143-.7.9.9,0,0,1,.09-.428.5.5,0,0,1,.255-.24.69.69,0,0,1,.4-.034,1.6,1.6,0,0,1,.5.2,2.472,2.472,0,0,1,.5.375,2.675,2.675,0,0,1,.394.488,2.625,2.625,0,0,1,.259.537,1.73,1.73,0,0,1,.09.537.818.818,0,0,1-.143.529A.469.469,0,0,1,306.3,366.344Zm-.668,1.43a.8.8,0,0,0,.293.116.376.376,0,0,0,.214-.03.327.327,0,0,0,.131-.158.8.8,0,0,0,.041-.27,1.276,1.276,0,0,0-.18-.672,1.427,1.427,0,0,0-.5-.48.551.551,0,0,0-.5-.094c-.124.06-.184.21-.184.462a1.188,1.188,0,0,0,.045.319,1.317,1.317,0,0,0,.345.582A1.265,1.265,0,0,0,305.636,367.774Zm0-3.464a.714.714,0,0,0-.263-.1.281.281,0,0,0-.18.041.266.266,0,0,0-.109.143.676.676,0,0,0-.034.225,1.507,1.507,0,0,0,.03.281.966.966,0,0,0,.1.281,1.191,1.191,0,0,0,.18.266,1.174,1.174,0,0,0,.278.218.647.647,0,0,0,.278.1.252.252,0,0,0,.18-.053.338.338,0,0,0,.1-.173,1.015,1.015,0,0,0,.03-.248.97.97,0,0,0-.038-.266,1.229,1.229,0,0,0-.105-.266,1.247,1.247,0,0,0-.184-.248A1.1,1.1,0,0,0,305.636,364.309Z" transform="translate(-233.944 -285.301)"/>
        <path id="Path_4920" data-name="Path 4920" class="cls-13" d="M324.369,377.577l.09-.079.079-.083a.778.778,0,0,1-.3-.019,1.42,1.42,0,0,1-.345-.15,1.894,1.894,0,0,1-.4-.315,2.015,2.015,0,0,1-.353-.45,2.292,2.292,0,0,1-.248-.552,2.043,2.043,0,0,1-.1-.627,1.2,1.2,0,0,1,.1-.518.638.638,0,0,1,.278-.308.683.683,0,0,1,.428-.071,1.467,1.467,0,0,1,.552.2,2.517,2.517,0,0,1,.548.424,2.787,2.787,0,0,1,.413.552,2.649,2.649,0,0,1,.266.627,2.5,2.5,0,0,1,.09.661,2.329,2.329,0,0,1-.03.375,1.785,1.785,0,0,1-.09.311,1.451,1.451,0,0,1-.139.263,2.084,2.084,0,0,1-.184.225l-.912.961a.172.172,0,0,1-.139.049.48.48,0,0,1-.21-.071l-.623-.375Zm-.9-1.944a1.329,1.329,0,0,0,.173.683,1.276,1.276,0,0,0,.488.48.724.724,0,0,0,.293.109.341.341,0,0,0,.218-.038.3.3,0,0,0,.131-.169.778.778,0,0,0,.045-.281,1.283,1.283,0,0,0-.049-.375,1.256,1.256,0,0,0-.139-.327,1.544,1.544,0,0,0-.214-.281,1.441,1.441,0,0,0-.274-.21.7.7,0,0,0-.278-.1.334.334,0,0,0-.214.041.323.323,0,0,0-.131.169.722.722,0,0,0-.064.3Z" transform="translate(-245.524 -292.102)"/>
        <path id="Path_4921" data-name="Path 4921" class="cls-14" d="M341.028,388.38v.582l-2.2-1.269v-.582l.8.465V384.6l-.57.221a.173.173,0,0,1-.1,0,.264.264,0,0,1-.09-.049.375.375,0,0,1-.075-.079.3.3,0,0,1-.049-.079l-.214-.462,1.208-.48.559.319v3.982Z" transform="translate(-255.363 -297.895)"/>
        <path id="Path_4922" data-name="Path 4922" class="cls-15" d="M349.361,391.314a3.473,3.473,0,0,1-.113.972,1.126,1.126,0,0,1-.308.548.608.608,0,0,1-.462.158,1.265,1.265,0,0,1-.578-.191,2.424,2.424,0,0,1-.578-.473,2.9,2.9,0,0,1-.458-.694,4.031,4.031,0,0,1-.308-.9,5.3,5.3,0,0,1-.109-1.1,3.613,3.613,0,0,1,.109-.972,1.168,1.168,0,0,1,.308-.552.615.615,0,0,1,.458-.161,1.377,1.377,0,0,1,.578.191,2.423,2.423,0,0,1,.578.477,2.9,2.9,0,0,1,.462.694,3.822,3.822,0,0,1,.308.9A5.024,5.024,0,0,1,349.361,391.314Zm-.7-.405a5.149,5.149,0,0,0-.06-.856,3.337,3.337,0,0,0-.169-.616,1.551,1.551,0,0,0-.244-.409,1.171,1.171,0,0,0-.285-.24.566.566,0,0,0-.281-.086.289.289,0,0,0-.24.131,1.014,1.014,0,0,0-.169.42,3.935,3.935,0,0,0-.06.784,5.142,5.142,0,0,0,.06.856,2.8,2.8,0,0,0,.169.612,1.371,1.371,0,0,0,.24.409,1.171,1.171,0,0,0,.281.24.57.57,0,0,0,.285.086.311.311,0,0,0,.244-.128,1.152,1.152,0,0,0,.169-.42A3.922,3.922,0,0,0,348.659,390.909Z" transform="translate(-260.303 -300.566)"/>
        <path id="Path_4923" data-name="Path 4923" class="cls-16" d="M297.438,332.664v.586l-2.2-1.269V331.4l.8.465v-2.976l-.57.218a.146.146,0,0,1-.1,0,.376.376,0,0,1-.09-.053l-.075-.075a.373.373,0,0,1-.049-.083l-.214-.462,1.209-.48.559.323v3.978Z" transform="translate(-228.133 -263.087)"/>
        <path id="Path_4924" data-name="Path 4924" class="cls-17" d="M313.784,343.375a.45.45,0,0,1,.173.173.413.413,0,0,1,.068.221v.469l-2.725-1.573v-.259a.394.394,0,0,1,.026-.15.191.191,0,0,1,.094-.1l1.2-.691a2.255,2.255,0,0,0,.27-.184.923.923,0,0,0,.2-.2.957.957,0,0,0,.124-.248,1.2,1.2,0,0,0-.116-.908,1.075,1.075,0,0,0-.18-.233,1.3,1.3,0,0,0-.24-.18.809.809,0,0,0-.221-.09.375.375,0,0,0-.184,0,.289.289,0,0,0-.135.086.375.375,0,0,0-.083.161c-.03.079-.071.12-.12.12a.376.376,0,0,1-.214-.1l-.357-.278a1.148,1.148,0,0,1,.158-.484.589.589,0,0,1,.3-.24.751.751,0,0,1,.405,0,1.665,1.665,0,0,1,.5.2,2.582,2.582,0,0,1,.5.375,2.683,2.683,0,0,1,.375.488,2.547,2.547,0,0,1,.251.555,1.981,1.981,0,0,1,.09.585,1.285,1.285,0,0,1-.064.428,1.127,1.127,0,0,1-.173.311,1.238,1.238,0,0,1-.255.229l-.3.2-.9.529a2.284,2.284,0,0,1,.259.083,1.77,1.77,0,0,1,.24.116Z" transform="translate(-238.347 -269.775)"/>
        <path id="Path_4925" data-name="Path 4925" class="cls-18" d="M23.28,96.11l.019,4.568,1.82,1.82,2.5-2.049Z" transform="translate(-14.543 -89.387)"/>
        <path id="Path_4926" data-name="Path 4926" class="cls-18" d="M83.35,130.79l.019,4.571,1.82,1.817,2.5-2.049Z" transform="translate(-52.068 -111.051)"/>
        <path id="Path_4927" data-name="Path 4927" class="cls-1" d="M223.525,284.006a.372.372,0,0,1-.375-.375l.1-29.21a.375.375,0,0,1,.184-.323l9.86-5.731a.375.375,0,0,1,.563.327l-.1,29.211a.375.375,0,0,1-.188.323l-9.859,5.731A.376.376,0,0,1,223.525,284.006ZM224,254.638l-.094,28.34,9.105-5.292.1-28.34Z" transform="translate(-183.281 -213.341)"/>
        <path id="Path_4928" data-name="Path 4928" class="cls-2" d="M40.967,149.338l-.1,29.211L1,155.531l.1-29.211Z" transform="translate(-0.625 -108.259)"/>
        <path id="Path_4929" data-name="Path 4929" class="cls-19" d="M157.165,255.264a.375.375,0,0,1-.188-.049l-39.869-23a.375.375,0,0,1-.188-.327l.1-29.211a.375.375,0,0,1,.563-.323l39.869,23.018a.375.375,0,0,1,.188.327l-.1,29.211a.375.375,0,0,1-.375.375Zm-39.494-23.607,39.122,22.582.094-28.344-39.119-22.579Z" transform="translate(-116.92 -184.599)"/>
        <path id="Path_4930" data-name="Path 4930" class="cls-2" d="M1.36,84.921l9.856-5.731,39.869,23.018-9.859,5.731Z" transform="translate(-0.85 -78.817)"/>
        <path id="Path_4931" data-name="Path 4931" class="cls-20" d="M157.517,184.623a.375.375,0,0,1-.188-.053l-39.866-23.014a.375.375,0,0,1,0-.653l9.841-5.727a.375.375,0,0,1,.375,0l39.866,23.018a.377.377,0,0,1,0,.649l-9.844,5.727A.375.375,0,0,1,157.517,184.623ZM118.4,161.23l39.119,22.583,9.113-5.292L127.51,155.934Z" transform="translate(-117.141 -155.126)"/>
        <path id="Path_4932" data-name="Path 4932" class="cls-2" d="M107.524,146.251l9.859-5.731-.034,11.961-9.859,5.727Z" transform="translate(-67.148 -117.129)"/>
        <path id="Path_4933" data-name="Path 4933" class="cls-1" d="M223.8,234.893a.375.375,0,0,1-.375-.375l.03-11.957a.375.375,0,0,1,.188-.327l9.859-5.727a.375.375,0,0,1,.563.327l-.034,11.957a.375.375,0,0,1-.188.323l-9.856,5.731A.375.375,0,0,1,223.8,234.893Zm.405-12.119-.03,11.09,9.105-5.292.034-11.09Z" transform="translate(-183.449 -193.438)"/>
        <path id="Path_4934" data-name="Path 4934" class="cls-2" d="M41.169,117.478l-.034,11.957L1.27,106.417,1.3,94.46Z" transform="translate(-0.793 -88.356)"/>
        <path id="Path_4935" data-name="Path 4935" class="cls-21" d="M157.435,206.113a.375.375,0,0,1-.188-.049l-39.869-23.018a.375.375,0,0,1-.188-.327l.034-11.957a.375.375,0,0,1,.563-.327l39.866,23.018a.375.375,0,0,1,.188.327l-.03,11.957a.377.377,0,0,1-.375.375Zm-39.494-23.607,39.119,22.583.03-11.094-39.119-22.583Z" transform="translate(-117.089 -164.659)"/>
        <path id="Path_4936" data-name="Path 4936" class="cls-5" d="M140.877,196.013a4.128,4.128,0,0,1,1.877,3.239c0,1.186-.844,1.666-1.877,1.07A4.128,4.128,0,0,1,139,197.087C139,195.9,139.837,195.417,140.877,196.013Z" transform="translate(-130.713 -180.508)"/>
        <path id="Path_4937" data-name="Path 4937" class="cls-22" d="M141.044,200.265a2.109,2.109,0,0,1-1.028-.308,4.474,4.474,0,0,1-2.049-3.562,1.5,1.5,0,0,1,2.443-1.4h0a4.474,4.474,0,0,1,2.057,3.562,1.666,1.666,0,0,1-.751,1.528A1.344,1.344,0,0,1,141.044,200.265Zm-1.67-4.823a.6.6,0,0,0-.3.075.983.983,0,0,0-.375.882,3.753,3.753,0,0,0,1.681,2.9.781.781,0,0,0,1.317-.751,3.779,3.779,0,0,0-1.681-2.909A1.366,1.366,0,0,0,139.374,195.443Z" transform="translate(-130.055 -179.817)"/>
        <path id="Path_4938" data-name="Path 4938" class="cls-5" d="M195.607,227.619a4.129,4.129,0,0,1,1.877,3.235c0,1.19-.848,1.67-1.877,1.07a4.128,4.128,0,0,1-1.877-3.235C193.73,227.5,194.582,227.019,195.607,227.619Z" transform="translate(-164.902 -200.25)"/>
        <path id="Path_4939" data-name="Path 4939" class="cls-23" d="M195.8,231.939a2.061,2.061,0,0,1-1.028-.308,4.466,4.466,0,0,1-2.057-3.562,1.655,1.655,0,0,1,.751-1.528,1.681,1.681,0,0,1,1.708.131h0a4.474,4.474,0,0,1,2.057,3.562,1.666,1.666,0,0,1-.751,1.528,1.324,1.324,0,0,1-.679.176Zm-1.67-4.823a.608.608,0,0,0-.3.075.976.976,0,0,0-.375.882,3.753,3.753,0,0,0,1.681,2.909.991.991,0,0,0,.953.131.979.979,0,0,0,.375-.878,3.783,3.783,0,0,0-1.681-2.912h0A1.366,1.366,0,0,0,194.125,227.116Z" transform="translate(-164.262 -199.631)"/>
        <path id="Path_4940" data-name="Path 4940" class="cls-24" d="M188.159,261.873a1.149,1.149,0,0,1,.161-.484.585.585,0,0,1,.293-.244.781.781,0,0,1,.409,0,1.8,1.8,0,0,1,.492.2,2.458,2.458,0,0,1,.5.375,2.625,2.625,0,0,1,.375.469,2.176,2.176,0,0,1,.24.51,1.667,1.667,0,0,1,.083.51,1.359,1.359,0,0,1-.041.375.529.529,0,0,1-.124.218.341.341,0,0,1-.2.094.82.82,0,0,1-.266,0,2.323,2.323,0,0,1,.533.7,1.708,1.708,0,0,1,.176.751,1.126,1.126,0,0,1-.109.54.552.552,0,0,1-.3.266.751.751,0,0,1-.432,0,1.772,1.772,0,0,1-.522-.206,2.842,2.842,0,0,1-.522-.375,2.338,2.338,0,0,1-.375-.454,3.075,3.075,0,0,1-.281-.54,5.411,5.411,0,0,1-.2-.631l.3.03a.406.406,0,0,1,.221.1.484.484,0,0,1,.15.214c.034.094.068.184.109.281a1.557,1.557,0,0,0,.143.27,1.462,1.462,0,0,0,.191.248,1.232,1.232,0,0,0,.266.206.8.8,0,0,0,.3.109.342.342,0,0,0,.218-.045.3.3,0,0,0,.128-.158.571.571,0,0,0,.045-.233,1.45,1.45,0,0,0-.034-.315.882.882,0,0,0-.124-.3,1.455,1.455,0,0,0-.278-.308,3.181,3.181,0,0,0-.48-.33v-.555a1.9,1.9,0,0,0,.413.184.458.458,0,0,0,.263,0,.2.2,0,0,0,.135-.135.728.728,0,0,0,.041-.255,1.077,1.077,0,0,0-.158-.578,1.175,1.175,0,0,0-.417-.409.642.642,0,0,0-.225-.09.408.408,0,0,0-.18,0,.263.263,0,0,0-.135.09.353.353,0,0,0-.083.158q-.049.116-.124.124a.436.436,0,0,1-.214-.1Z" transform="translate(-161.354 -221.338)"/>
        <path id="Path_4941" data-name="Path 4941" class="cls-25" d="M207.346,277.032v.45a.1.1,0,0,1-.038.09h-.1l-.375-.21v1.126l-.593-.342V277.02l-1.67-.98a.451.451,0,0,1-.188-.278l-.071-.435,1.877-1.8.646.375v2.841Zm-1.092-.631v-1.5a2.745,2.745,0,0,1,.026-.454l-1.235,1.246Z" transform="translate(-171.512 -229.092)"/>
        <path id="Path_4942" data-name="Path 4942" class="cls-26" d="M128.865,259.835l-.139.116a.778.778,0,0,1,.248.041,1.341,1.341,0,0,1,.289.128,2.1,2.1,0,0,1,.435.338,2.316,2.316,0,0,1,.375.473,2.781,2.781,0,0,1,.263.578,2.252,2.252,0,0,1,.1.653,1.288,1.288,0,0,1-.1.54.672.672,0,0,1-.285.323.75.75,0,0,1-.443.071,1.587,1.587,0,0,1-.574-.21,2.751,2.751,0,0,1-.57-.447,2.936,2.936,0,0,1-.432-.578,2.758,2.758,0,0,1-.274-.661,2.669,2.669,0,0,1-.094-.709,1.531,1.531,0,0,1,.113-.593,1.554,1.554,0,0,1,.353-.5l.95-.912a.2.2,0,0,1,.143-.045.424.424,0,0,1,.218.071l.608.349Zm.154,2.406a.822.822,0,0,0,.3.109.351.351,0,0,0,.387-.221.751.751,0,0,0,.053-.3,1.448,1.448,0,0,0-.049-.375,1.6,1.6,0,0,0-.15-.349,1.5,1.5,0,0,0-.233-.3,1.344,1.344,0,0,0-.3-.225.75.75,0,0,0-.293-.109.375.375,0,0,0-.225.045.42.42,0,0,0-.146.18.8.8,0,0,0-.053.3,1.527,1.527,0,0,0,.045.375,1.608,1.608,0,0,0,.135.345,1.525,1.525,0,0,0,.221.3A1.385,1.385,0,0,0,129.019,262.241Z" transform="translate(-123.629 -219.664)"/>
        <path id="Path_4943" data-name="Path 4943" class="cls-27" d="M149,268.184v.338a.72.72,0,0,1-.026.229.659.659,0,0,1-.056.124l-1.5,2.687a.229.229,0,0,1-.131.113.293.293,0,0,1-.229-.056l-.492-.285,1.535-2.593a1.508,1.508,0,0,1,.105-.139.6.6,0,0,1,.113-.105l-1.9-1.1a.3.3,0,0,1-.109-.116.311.311,0,0,1-.045-.154V266.6Z" transform="translate(-135.248 -224.762)"/>
        <path id="Path_4944" data-name="Path 4944" class="cls-28" d="M165.953,280.115a2.4,2.4,0,0,1,.537.724,1.851,1.851,0,0,1,.173.784,1.025,1.025,0,0,1-.1.488.525.525,0,0,1-.281.259.8.8,0,0,1-.435,0,1.914,1.914,0,0,1-.559-.229,3,3,0,0,1-1-.938,2.518,2.518,0,0,1-.282-.582,1.915,1.915,0,0,1-.1-.608.818.818,0,0,1,.173-.582.555.555,0,0,1,.537-.105,2.147,2.147,0,0,1-.432-.642,1.764,1.764,0,0,1-.146-.7.886.886,0,0,1,.094-.432.51.51,0,0,1,.255-.24.709.709,0,0,1,.394-.03,1.5,1.5,0,0,1,.507.2,2.584,2.584,0,0,1,.5.375,2.654,2.654,0,0,1,.375.484,2.442,2.442,0,0,1,.255.54,1.614,1.614,0,0,1,.094.533.815.815,0,0,1-.146.533.469.469,0,0,1-.413.165Zm-.668,1.434a.8.8,0,0,0,.293.113.334.334,0,0,0,.214-.03.274.274,0,0,0,.128-.158.694.694,0,0,0,.045-.266,1.268,1.268,0,0,0-.18-.672,1.363,1.363,0,0,0-.5-.48.552.552,0,0,0-.5-.1q-.18.09-.18.462a1.171,1.171,0,0,0,.045.319,1.3,1.3,0,0,0,.128.308,1.525,1.525,0,0,0,.214.278,1.373,1.373,0,0,0,.3.225Zm0-3.464a.652.652,0,0,0-.263-.1.285.285,0,0,0-.184.038.259.259,0,0,0-.105.146.676.676,0,0,0-.034.225,1.418,1.418,0,0,0,.026.278,1.166,1.166,0,0,0,.1.285,1.188,1.188,0,0,0,.184.263,1.126,1.126,0,0,0,.278.221.578.578,0,0,0,.274.1.244.244,0,0,0,.184-.053.338.338,0,0,0,.1-.173.971.971,0,0,0,.026-.244,1.175,1.175,0,0,0-.323-.784A1.07,1.07,0,0,0,165.285,278.084Z" transform="translate(-146.268 -231.428)"/>
        <path id="Path_4945" data-name="Path 4945" class="cls-29" d="M183.979,291.37l.086-.079.083-.079a.713.713,0,0,1-.3-.023,1.559,1.559,0,0,1-.345-.146,1.913,1.913,0,0,1-.405-.315,2.323,2.323,0,0,1-.349-.45,2.487,2.487,0,0,1-.251-.555,2.027,2.027,0,0,1-.094-.627,1.231,1.231,0,0,1,.1-.514.687.687,0,0,1,.278-.311.72.72,0,0,1,.428-.071,1.459,1.459,0,0,1,.555.2,2.511,2.511,0,0,1,.548.428,2.657,2.657,0,0,1,.413.548,2.629,2.629,0,0,1,.263.627,2.387,2.387,0,0,1,.094.664,2.316,2.316,0,0,1-.03.375,1.738,1.738,0,0,1-.09.315,1.43,1.43,0,0,1-.143.259,1.5,1.5,0,0,1-.184.225l-.908.965a.191.191,0,0,1-.139.045.413.413,0,0,1-.214-.071l-.623-.357Zm-.9-1.94a1.325,1.325,0,0,0,.173.679,1.269,1.269,0,0,0,.484.48.84.84,0,0,0,.3.113.342.342,0,0,0,.218-.041.323.323,0,0,0,.131-.169.75.75,0,0,0,.045-.278,1.283,1.283,0,0,0-.049-.375,1.336,1.336,0,0,0-.357-.608,1.239,1.239,0,0,0-.274-.21.751.751,0,0,0-.278-.105.353.353,0,0,0-.21.041.375.375,0,0,0-.135.169A.807.807,0,0,0,183.079,289.429Z" transform="translate(-157.824 -238.25)"/>
        <path id="Path_4946" data-name="Path 4946" class="cls-30" d="M200.7,302.16v.586l-2.184-1.265V300.9l.807.465v-2.976l-.57.218a.146.146,0,0,1-.1,0,.27.27,0,0,1-.09-.053.5.5,0,0,1-.079-.075.677.677,0,0,1-.049-.083l-.214-.458,1.212-.484.559.323v3.982Z" transform="translate(-167.707 -244.034)"/>
        <path id="Path_4947" data-name="Path 4947" class="cls-31" d="M209.011,305.11a3.453,3.453,0,0,1-.113.972,1.126,1.126,0,0,1-.308.548.634.634,0,0,1-.465.161,1.351,1.351,0,0,1-.578-.2,2.4,2.4,0,0,1-.574-.473,3,3,0,0,1-.462-.691,4.192,4.192,0,0,1-.3-.9,5.277,5.277,0,0,1-.109-1.1,3.638,3.638,0,0,1,.109-.972,1.2,1.2,0,0,1,.3-.548.615.615,0,0,1,.462-.161,1.265,1.265,0,0,1,.574.191,2.354,2.354,0,0,1,.578.473,3,3,0,0,1,.465.694,4.127,4.127,0,0,1,.308.9A5.027,5.027,0,0,1,209.011,305.11Zm-.7-.4a4.736,4.736,0,0,0-.064-.856,2.775,2.775,0,0,0-.169-.616,1.4,1.4,0,0,0-.24-.409,1.125,1.125,0,0,0-.278-.236.584.584,0,0,0-.281-.086.308.308,0,0,0-.24.131,1.1,1.1,0,0,0-.165.42,3.956,3.956,0,0,0-.06.784,5.144,5.144,0,0,0,.06.856,2.971,2.971,0,0,0,.165.612,1.5,1.5,0,0,0,.24.409,1.232,1.232,0,0,0,.281.24.593.593,0,0,0,.289.086.289.289,0,0,0,.24-.128,1.013,1.013,0,0,0,.169-.42A3.588,3.588,0,0,0,208.313,304.709Z" transform="translate(-172.628 -246.718)"/>
        <path id="Path_4948" data-name="Path 4948" class="cls-16" d="M157.082,246.458v.582l-2.2-1.269v-.582l.8.462v-2.976l-.57.218a.147.147,0,0,1-.1,0,.263.263,0,0,1-.09-.049.492.492,0,0,1-.075-.079.409.409,0,0,1-.053-.079l-.214-.462,1.212-.484.559.323v3.982Z" transform="translate(-140.452 -209.233)"/>
        <path id="Path_4949" data-name="Path 4949" class="cls-32" d="M173.428,257.151a.507.507,0,0,1,.173.173.409.409,0,0,1,.064.225v.465l-2.725-1.573v-.259a.413.413,0,0,1,.03-.15.2.2,0,0,1,.09-.1l1.209-.691a2.815,2.815,0,0,0,.27-.18,1.125,1.125,0,0,0,.2-.2.818.818,0,0,0,.12-.251,1.013,1.013,0,0,0,.045-.315,1.231,1.231,0,0,0-.041-.315,1.126,1.126,0,0,0-.3-.507.938.938,0,0,0-.236-.18.616.616,0,0,0-.225-.09.375.375,0,0,0-.18,0,.289.289,0,0,0-.135.086.439.439,0,0,0-.083.161c-.03.079-.071.12-.12.124a.375.375,0,0,1-.214-.1l-.375-.278a1.149,1.149,0,0,1,.158-.484.582.582,0,0,1,.3-.244.75.75,0,0,1,.405,0,1.707,1.707,0,0,1,.492.2,2.548,2.548,0,0,1,1.148,1.426,1.981,1.981,0,0,1,.09.585,1.325,1.325,0,0,1-.064.432,1.08,1.08,0,0,1-.176.308,1.125,1.125,0,0,1-.251.233l-.3.2-.9.533a1.544,1.544,0,0,1,.255.079,2.1,2.1,0,0,1,.244.116Z" transform="translate(-150.666 -215.914)"/>
        <path id="Path_4950" data-name="Path 4950" class="cls-5" d="M135.809,279.767l10.82-6.286-.109,32.059-10.82,6.286Z" transform="translate(-84.77 -200.188)"/>
        <path id="Path_4951" data-name="Path 4951" class="cls-1" d="M252,388.51a.424.424,0,0,1-.188-.049.375.375,0,0,1-.188-.326l.113-32.059a.375.375,0,0,1,.184-.323l10.82-6.286a.375.375,0,0,1,.563.327l-.109,32.055a.375.375,0,0,1-.188.323l-10.816,6.286A.375.375,0,0,1,252,388.51Zm.484-32.217-.105,31.188,10.066-5.851.109-31.188Z" transform="translate(-201.066 -276.497)"/>
        <path id="Path_4952" data-name="Path 4952" class="cls-5" d="M62.983,248.188l-.109,32.059L19.12,254.985l.109-32.055Z" transform="translate(-11.944 -168.61)"/>
        <path id="Path_4953" data-name="Path 4953" class="cls-1" d="M179.175,356.926a.424.424,0,0,1-.188-.049l-43.75-25.262a.375.375,0,0,1-.188-.327l.109-32.059a.375.375,0,0,1,.563-.323l43.754,25.262a.375.375,0,0,1,.188.327l-.113,32.055a.372.372,0,0,1-.375.375ZM135.8,331.074l43,24.827.105-31.192-43-24.827Z" transform="translate(-128.246 -244.912)"/>
        <path id="Path_4954" data-name="Path 4954" class="cls-33" d="M19.51,177.5l10.82-6.286,43.754,25.258-10.82,6.286Z" transform="translate(-12.188 -136.301)"/>
        <path id="Path_4955" data-name="Path 4955" class="cls-34" d="M136.028,244.8l10.82-6.286-.038,13.125-10.82,6.286Z" transform="translate(-84.951 -178.342)"/>
        <path id="Path_4956" data-name="Path 4956" class="cls-34" d="M63.2,213.218l-.038,13.125L19.41,201.085l.038-13.125Z" transform="translate(-12.125 -146.764)"/>
        <path id="Path_4957" data-name="Path 4957" class="cls-18" d="M49.41,216.63l.019,4.568,1.82,1.82,2.5-2.049Z" transform="translate(-30.866 -164.674)"/>
        <path id="Path_4958" data-name="Path 4958" class="cls-5" d="M161.22,291.914a4.5,4.5,0,0,1,2.049,3.55c0,1.3-.923,1.832-2.06,1.175a4.5,4.5,0,0,1-2.049-3.55C159.164,291.768,160.083,291.258,161.22,291.914Z" transform="translate(-143.307 -240.398)"/>
        <path id="Path_4959" data-name="Path 4959" class="cls-35" d="M161.852,296.826a2.053,2.053,0,0,1-1.006-.308,4.7,4.7,0,0,1-2.128-3.689,1.591,1.591,0,0,1,.683-1.464,1.61,1.61,0,0,1,1.621.146,4.7,4.7,0,0,1,2.128,3.693,1.58,1.58,0,0,1-.683,1.46A1.2,1.2,0,0,1,161.852,296.826Zm-1.832-5.3a.93.93,0,0,0-.458.116,1.3,1.3,0,0,0-.522,1.186,4.346,4.346,0,0,0,1.967,3.408,1.31,1.31,0,0,0,1.3.146,1.284,1.284,0,0,0,.522-1.182,4.342,4.342,0,0,0-1.967-3.412h0A1.727,1.727,0,0,0,160.02,291.53Z" transform="translate(-143.026 -240.137)"/>
        <path id="Path_4960" data-name="Path 4960" class="cls-36" d="M109.48,251.31l.019,4.571,1.82,1.816,2.5-2.049Z" transform="translate(-68.391 -186.338)"/>
        <path id="Path_4961" data-name="Path 4961" class="cls-5" d="M221.294,326.6a4.5,4.5,0,0,1,2.049,3.55c0,1.306-.927,1.832-2.064,1.178a4.5,4.5,0,0,1-2.049-3.554C219.234,326.468,220.157,325.942,221.294,326.6Z" transform="translate(-180.832 -262.066)"/>
        <path id="Path_4962" data-name="Path 4962" class="cls-37" d="M221.9,331.456a2.023,2.023,0,0,1-1-.3,4.718,4.718,0,0,1-2.136-3.693,1.415,1.415,0,0,1,2.308-1.314h0a4.7,4.7,0,0,1,2.132,3.689,1.591,1.591,0,0,1-.687,1.46A1.186,1.186,0,0,1,221.9,331.456Zm-1.832-5.292a.931.931,0,0,0-.458.113,1.3,1.3,0,0,0-.522,1.186,4.339,4.339,0,0,0,1.97,3.408,1.1,1.1,0,0,0,1.82-1.036,4.358,4.358,0,0,0-1.97-3.412h0a1.719,1.719,0,0,0-.841-.259Z" transform="translate(-180.525 -261.751)"/>
        <path id="Path_4963" data-name="Path 4963" class="cls-38" d="M213.118,364.189a1.272,1.272,0,0,1,.173-.533.656.656,0,0,1,.326-.266.831.831,0,0,1,.443,0,1.933,1.933,0,0,1,.544.221,2.8,2.8,0,0,1,.544.413,2.671,2.671,0,0,1,.413.514,2.294,2.294,0,0,1,.263.559,1.807,1.807,0,0,1,.094.563,1.311,1.311,0,0,1-.049.394.567.567,0,0,1-.131.24.375.375,0,0,1-.218.1.981.981,0,0,1-.293,0,2.6,2.6,0,0,1,.585.769,1.926,1.926,0,0,1,.191.841,1.231,1.231,0,0,1-.12.589.611.611,0,0,1-.327.3.859.859,0,0,1-.473.022,1.927,1.927,0,0,1-.57-.233,2.864,2.864,0,0,1-1-.916,3.286,3.286,0,0,1-.308-.593,4.879,4.879,0,0,1-.218-.694l.327.034a.462.462,0,0,1,.244.109.563.563,0,0,1,.165.233c.038.105.075.206.12.308a1.739,1.739,0,0,0,.154.3,1.472,1.472,0,0,0,.214.27,1.166,1.166,0,0,0,.289.225.75.75,0,0,0,.334.12.394.394,0,0,0,.236-.045.376.376,0,0,0,.139-.173.619.619,0,0,0,.049-.255,1.776,1.776,0,0,0-.034-.349.99.99,0,0,0-.139-.33,1.735,1.735,0,0,0-.3-.338,3.531,3.531,0,0,0-.529-.375v-.623a1.875,1.875,0,0,0,.458.2.507.507,0,0,0,.285,0,.24.24,0,0,0,.15-.15.8.8,0,0,0,.041-.281,1.2,1.2,0,0,0-.169-.634,1.3,1.3,0,0,0-.462-.45.849.849,0,0,0-.244-.1.376.376,0,0,0-.2,0,.3.3,0,0,0-.15.094.413.413,0,0,0-.09.176q-.053.131-.135.135a.466.466,0,0,1-.233-.113Z" transform="translate(-176.934 -285.207)"/>
        <path id="Path_4964" data-name="Path 4964" class="cls-39" d="M234.2,380.842v.5a.109.109,0,0,1-.041.1c-.026.019-.06,0-.109,0l-.4-.229v1.22l-.649-.375v-1.224l-1.839-1.062a.375.375,0,0,1-.131-.128.446.446,0,0,1-.075-.176l-.079-.477,2.068-1.974.706.409v3.119Zm-1.2-.691v-1.644a4.679,4.679,0,0,1,.026-.5l-1.351,1.367Z" transform="translate(-188.109 -293.734)"/>
        <path id="Path_4965" data-name="Path 4965" class="cls-40" d="M148.05,361.949l-.15.128a.923.923,0,0,1,.27.045,1.622,1.622,0,0,1,.315.143,2.541,2.541,0,0,1,.893.893,2.744,2.744,0,0,1,.285.631,2.29,2.29,0,0,1,.109.717,1.467,1.467,0,0,1-.109.593.751.751,0,0,1-.315.353.792.792,0,0,1-.488.079,1.639,1.639,0,0,1-.627-.233,2.732,2.732,0,0,1-.627-.488,3.22,3.22,0,0,1-.473-.631,3,3,0,0,1-.3-.728,2.871,2.871,0,0,1-.105-.777,1.576,1.576,0,0,1,.514-1.2l1.04-1a.2.2,0,0,1,.158-.053.544.544,0,0,1,.24.079l.661.375Zm.169,2.627a.875.875,0,0,0,.327.12.4.4,0,0,0,.255-.045.446.446,0,0,0,.169-.2.777.777,0,0,0,.06-.33,1.55,1.55,0,0,0-.056-.417,1.6,1.6,0,0,0-.165-.375,1.5,1.5,0,0,0-.251-.327,1.645,1.645,0,0,0-.327-.251.867.867,0,0,0-.323-.116.409.409,0,0,0-.248.049.424.424,0,0,0-.158.2.852.852,0,0,0-.06.33,1.622,1.622,0,0,0,.053.405,1.653,1.653,0,0,0,.146.375,1.587,1.587,0,0,0,.578.589Z" transform="translate(-135.541 -283.369)"/>
        <path id="Path_4966" data-name="Path 4966" class="cls-41" d="M170.14,371.114v.375a.751.751,0,0,1-.03.251.578.578,0,0,1-.06.135l-1.651,2.95a.248.248,0,0,1-.143.12.319.319,0,0,1-.251-.06l-.54-.311,1.685-2.849a1.743,1.743,0,0,1,.113-.15.627.627,0,0,1,.128-.116l-2.087-1.2a.376.376,0,0,1-.12-.128.353.353,0,0,1-.053-.169v-.578Z" transform="translate(-148.286 -288.968)"/>
        <path id="Path_4967" data-name="Path 4967" class="cls-42" d="M188.761,384.262a2.571,2.571,0,0,1,.586.8,2.034,2.034,0,0,1,.191.859,1.174,1.174,0,0,1-.109.537.567.567,0,0,1-.312.281.867.867,0,0,1-.477.019,2.132,2.132,0,0,1-.616-.251,3.258,3.258,0,0,1-.616-.462,3.126,3.126,0,0,1-.48-.57,2.7,2.7,0,0,1-.308-.638,2.052,2.052,0,0,1-.109-.664.882.882,0,0,1,.188-.638.6.6,0,0,1,.589-.116,2.4,2.4,0,0,1-.477-.709,1.929,1.929,0,0,1-.158-.751.975.975,0,0,1,.1-.469.585.585,0,0,1,.281-.266.806.806,0,0,1,.432-.034,1.745,1.745,0,0,1,.555.218,2.844,2.844,0,0,1,.552.424,2.89,2.89,0,0,1,.432.533,2.579,2.579,0,0,1,.285.589,1.954,1.954,0,0,1,.1.589.9.9,0,0,1-.158.582A.51.51,0,0,1,188.761,384.262Zm-.751,1.573a.855.855,0,0,0,.323.124.375.375,0,0,0,.233-.03.323.323,0,0,0,.143-.176.751.751,0,0,0,.049-.293,1.408,1.408,0,0,0-.2-.751,1.535,1.535,0,0,0-.548-.525.6.6,0,0,0-.548-.105c-.135.064-.2.233-.2.507a1.393,1.393,0,0,0,.045.349,1.415,1.415,0,0,0,.146.338,1.367,1.367,0,0,0,.233.3,1.442,1.442,0,0,0,.338.259Zm0-3.8a.751.751,0,0,0-.289-.109.278.278,0,0,0-.315.2.717.717,0,0,0-.038.248,1.777,1.777,0,0,0,.03.308,1.279,1.279,0,0,0,.308.6,1.226,1.226,0,0,0,.3.24.68.68,0,0,0,.3.109.27.27,0,0,0,.2-.06.341.341,0,0,0,.105-.184,1.031,1.031,0,0,0,.034-.274,1.125,1.125,0,0,0-.041-.289,1.313,1.313,0,0,0-.116-.3,1.254,1.254,0,0,0-.2-.27,1.221,1.221,0,0,0-.27-.225Z" transform="translate(-160.391 -296.333)"/>
        <path id="Path_4968" data-name="Path 4968" class="cls-43" d="M208.568,396.564l.094-.086.09-.086a.8.8,0,0,1-.334-.026,1.532,1.532,0,0,1-.375-.161,2.149,2.149,0,0,1-.443-.345,2.43,2.43,0,0,1-.375-.5,2.8,2.8,0,0,1-.274-.608,2.3,2.3,0,0,1-.1-.687,1.3,1.3,0,0,1,.109-.567.706.706,0,0,1,.3-.338.75.75,0,0,1,.469-.079,1.531,1.531,0,0,1,.6.221,2.722,2.722,0,0,1,.6.469,3.2,3.2,0,0,1,.454.6,3,3,0,0,1,.289.691,2.675,2.675,0,0,1,.1.724,2.383,2.383,0,0,1-.034.42,1.737,1.737,0,0,1-.1.342,1.764,1.764,0,0,1-.154.289,1.8,1.8,0,0,1-.2.244l-1,1.058a.21.21,0,0,1-.154.053.552.552,0,0,1-.233-.079l-.683-.394Zm-.991-2.132a1.5,1.5,0,0,0,.188.751,1.4,1.4,0,0,0,.537.529.841.841,0,0,0,.323.12.332.332,0,0,0,.383-.229.807.807,0,0,0,.049-.3,1.4,1.4,0,0,0-.053-.4,1.534,1.534,0,0,0-.154-.375,1.568,1.568,0,0,0-.236-.3,1.265,1.265,0,0,0-.3-.233.78.78,0,0,0-.3-.113.341.341,0,0,0-.233.045.375.375,0,0,0-.146.184A.863.863,0,0,0,207.577,394.432Z" transform="translate(-173.097 -303.77)"/>
        <path id="Path_4969" data-name="Path 4969" class="cls-44" d="M226.875,408.4v.642l-2.406-1.392v-.642l.886.51v-3.258l-.627.24a.154.154,0,0,1-.109,0,.286.286,0,0,1-.1-.056.432.432,0,0,1-.083-.083.4.4,0,0,1-.056-.09l-.233-.5,1.329-.533.612.357v4.369Z" transform="translate(-183.905 -310.12)"/>
        <path id="Path_4970" data-name="Path 4970" class="cls-45" d="M236.011,411.653a3.792,3.792,0,0,1-.124,1.066,1.239,1.239,0,0,1-.338.6.672.672,0,0,1-.507.173,1.418,1.418,0,0,1-.634-.21,2.566,2.566,0,0,1-.634-.522,3.288,3.288,0,0,1-.5-.751,4.327,4.327,0,0,1-.334-.991,5.509,5.509,0,0,1-.12-1.2,3.817,3.817,0,0,1,.12-1.07,1.265,1.265,0,0,1,.334-.6.687.687,0,0,1,.5-.176,1.449,1.449,0,0,1,.634.21,2.71,2.71,0,0,1,.634.522,3.2,3.2,0,0,1,.507.751,4.155,4.155,0,0,1,.338.991A5.511,5.511,0,0,1,236.011,411.653Zm-.769-.443a5.63,5.63,0,0,0-.068-.938,3.2,3.2,0,0,0-.188-.676,1.606,1.606,0,0,0-.266-.45,1.339,1.339,0,0,0-.311-.266.691.691,0,0,0-.312-.094.33.33,0,0,0-.263.146,1.126,1.126,0,0,0-.184.462,4.287,4.287,0,0,0-.068.859,5.661,5.661,0,0,0,.068.938,3.244,3.244,0,0,0,.184.672,1.7,1.7,0,0,0,.263.45,1.316,1.316,0,0,0,.312.263.645.645,0,0,0,.311.094.323.323,0,0,0,.266-.139,1.171,1.171,0,0,0,.188-.462A4.312,4.312,0,0,0,235.242,411.211Z" transform="translate(-189.319 -313.073)"/>
        <path id="Path_4971" data-name="Path 4971" class="cls-46" d="M179.016,347.276v.638l-2.409-1.392v-.638l.882.51v-3.269l-.631.24a.169.169,0,0,1-.105,0l-.1-.056a.6.6,0,0,1-.083-.086.443.443,0,0,1-.053-.086l-.236-.507,1.329-.529.616.353v4.369Z" transform="translate(-154.001 -271.926)"/>
        <path id="Path_4972" data-name="Path 4972" class="cls-47" d="M196.94,359.046a.484.484,0,0,1,.191.188.462.462,0,0,1,.071.248v.51l-3-1.726v-.285a.4.4,0,0,1,.034-.161.188.188,0,0,1,.1-.113l1.321-.751a2.9,2.9,0,0,0,.3-.2,1.046,1.046,0,0,0,.221-.225.95.95,0,0,0,.131-.27,1.1,1.1,0,0,0,.049-.349,1.3,1.3,0,0,0-.045-.345,1.538,1.538,0,0,0-.128-.3,1.458,1.458,0,0,0-.2-.255,1.369,1.369,0,0,0-.263-.2.79.79,0,0,0-.244-.1.406.406,0,0,0-.2,0,.316.316,0,0,0-.146.1.413.413,0,0,0-.09.176c-.034.086-.079.131-.135.131a.42.42,0,0,1-.233-.109l-.375-.308a1.272,1.272,0,0,1,.176-.529.645.645,0,0,1,.323-.266.806.806,0,0,1,.447,0,1.769,1.769,0,0,1,.54.221,2.8,2.8,0,0,1,.98.957,2.469,2.469,0,0,1,.278.608,2.121,2.121,0,0,1,.1.642,1.459,1.459,0,0,1-.071.473,1.234,1.234,0,0,1-.191.338,1.282,1.282,0,0,1-.278.255c-.105.071-.218.143-.334.214l-.983.585a2.04,2.04,0,0,1,.281.09,1.585,1.585,0,0,1,.266.128Z" transform="translate(-165.196 -279.283)"/>
      </g>
    </g>
    <path id="Path_4992" data-name="Path 4992" class="cls-48" d="M293.976,100.743a1.987,1.987,0,0,1-.992-.309L267.6,85.779a5.3,5.3,0,0,1-2.259-4.289V52.239a2.142,2.142,0,0,1,.884-1.972,1.647,1.647,0,0,1,1.684.111l25.385,14.655a5.316,5.316,0,0,1,2.262,4.293V98.6a2.166,2.166,0,0,1-.884,1.969A1.369,1.369,0,0,1,293.976,100.743Zm-.683-.831a1.079,1.079,0,0,0,1.069.111,1.591,1.591,0,0,0,.575-1.434V69.326a4.712,4.712,0,0,0-1.953-3.755L267.6,50.913a1.088,1.088,0,0,0-1.066-.111,1.6,1.6,0,0,0-.575,1.437V81.511a4.709,4.709,0,0,0,1.95,3.755Z" transform="translate(667.99 743.154)"/>
    <path id="Path_4993" data-name="Path 4993" class="cls-49" d="M299.526,117.449l-2.361,1.5-.374-.782.065-.043a.408.408,0,0,0,.151-.528l-1.06-2.207a1.984,1.984,0,0,1-.111-1.4l.732-2.55a1.978,1.978,0,0,1,.834-1.131l2.067-1.31a.414.414,0,0,0,.155-.528l-.037-.071.736-.464,1.211,2.512a.436.436,0,0,0,.655.189.578.578,0,0,0,.21-.736l-1.208-2.516.423-.266a.442.442,0,0,0,.155-.55.334.334,0,0,0-.488-.139l-.42.269-1.211-2.516a.439.439,0,0,0-.655-.189.581.581,0,0,0-.213.739l1.211,2.512-.736.464-.034-.071a.309.309,0,0,0-.47-.133l-2.071,1.307a1.573,1.573,0,0,1-1.279.207l-2.278-.658a1.573,1.573,0,0,1-.977-.853l-1.063-2.207a.309.309,0,0,0-.47-.133l-.068.04-.371-.785,2.358-1.493a.578.578,0,0,0,.213-.736.442.442,0,0,0-.658-.189l-2.364,1.49-.216-.451a.331.331,0,0,0-.488-.139.439.439,0,0,0-.158.547l.216.451-2.358,1.49a.584.584,0,0,0-.21.739h0a.442.442,0,0,0,.655.189l2.361-1.493.374.782-.065.043a.411.411,0,0,0-.151.528l1.06,2.207a1.984,1.984,0,0,1,.111,1.4l-.732,2.553a1.978,1.978,0,0,1-.834,1.131l-2.067,1.307a.414.414,0,0,0-.155.528l.037.074-.736.464-1.211-2.516a.442.442,0,0,0-.655-.189h0a.581.581,0,0,0-.21.739l1.208,2.513-.423.269a.439.439,0,0,0-.155.547.331.331,0,0,0,.488.139l.42-.266,1.211,2.513a.439.439,0,0,0,.655.189.578.578,0,0,0,.213-.736l-1.211-2.516.736-.464.034.071a.309.309,0,0,0,.47.136l2.071-1.31a1.57,1.57,0,0,1,1.279-.2l2.271.649a1.582,1.582,0,0,1,.977.853l1.063,2.207a.309.309,0,0,0,.47.136l.068-.043.386.788-2.358,1.493a.578.578,0,0,0-.213.736.442.442,0,0,0,.658.189l2.358-1.49.216.451a.334.334,0,0,0,.488.139h0a.439.439,0,0,0,.158-.547l-.216-.451,2.358-1.493a.581.581,0,0,0,.21-.736.439.439,0,0,0-.658-.189Z" transform="translate(656.637 707.337)"/>
  </g>
</svg>
