<svg xmlns="http://www.w3.org/2000/svg" xmlns:xlink="http://www.w3.org/1999/xlink" viewBox="8511.999 1537 126.025 106.693">
  <defs>
    <style>
      .cls-1 {
        fill: url(#linear-gradient);
      }

      .cls-2, .cls-4 {
        fill: #fff;
      }

      .cls-3 {
        fill: url(#linear-gradient-2);
      }

      .cls-4 {
        opacity: 0.5;
      }

      .cls-5 {
        fill: url(#linear-gradient-5);
      }

      .cls-6 {
        fill: url(#linear-gradient-6);
      }

      .cls-7 {
        fill: url(#linear-gradient-7);
      }

      .cls-8 {
        fill: url(#linear-gradient-9);
      }

      .cls-9 {
        fill: url(#linear-gradient-10);
      }

      .cls-10 {
        fill: url(#linear-gradient-12);
      }

      .cls-11 {
        fill: url(#linear-gradient-14);
      }
    </style>
    <linearGradient id="linear-gradient" y1="0.5" x2="1" y2="0.5" gradientUnits="objectBoundingBox">
      <stop offset="0" stop-color="#3e77bc"/>
      <stop offset="1" stop-color="#529fd8"/>
    </linearGradient>
    <linearGradient id="linear-gradient-2" x1="0" y1="0.5" x2="1" y2="0.5" xlink:href="#linear-gradient"/>
    <linearGradient id="linear-gradient-5" x1="0" y1="0.5" x2="0.999" y2="0.5" xlink:href="#linear-gradient"/>
    <linearGradient id="linear-gradient-6" x1="0" y1="0.5" x2="1" y2="0.5" xlink:href="#linear-gradient"/>
    <linearGradient id="linear-gradient-7" x1="0" y1="0.5" x2="1" y2="0.5" xlink:href="#linear-gradient"/>
    <linearGradient id="linear-gradient-9" x1="0" y1="0.5" x2="1" y2="0.5" xlink:href="#linear-gradient"/>
    <linearGradient id="linear-gradient-10" x1="0" y1="0.5" x2="1" y2="0.5" xlink:href="#linear-gradient"/>
    <linearGradient id="linear-gradient-12" x1="-51.917" y1="0.5" x2="-50.917" y2="0.5" xlink:href="#linear-gradient"/>
    <linearGradient id="linear-gradient-14" x1="-49.392" y1="0.5" x2="-48.392" y2="0.5" xlink:href="#linear-gradient"/>
  </defs>
  <g id="icon_13" data-name="icon 13" transform="translate(8511.97 1537.005)">
    <path id="Path_3582" data-name="Path 3582" class="cls-1" d="M216.4,142.608h-.557l-.473-1.056.454.033a2.1,2.1,0,0,0,1.629-.53,3.277,3.277,0,0,0,.864-2.477V62.926a9.961,9.961,0,0,0-4.513-7.783L187.429,39.916a3.048,3.048,0,0,0-2.987-.345,2.819,2.819,0,0,0-1.244,2.547l-.016.481-.991-.646v-.147a5.022,5.022,0,0,1,1.741-3.669,8.283,8.283,0,0,1,5.676-2.213h0a4.934,4.934,0,0,1,2.444.739L218.423,51.89a11.086,11.086,0,0,1,5.027,8.669v75.817a5.659,5.659,0,0,1-1.792,4.239A8.057,8.057,0,0,1,216.4,142.608ZM185.481,38.773a4.505,4.505,0,0,1,2.219.673l26.375,15.23a10.562,10.562,0,0,1,4.785,8.253v75.627a3.81,3.81,0,0,1-1.035,2.876,2.5,2.5,0,0,1-1.257.63,7.423,7.423,0,0,0,4.706-1.844,5.04,5.04,0,0,0,1.629-3.723h0V60.558a10.485,10.485,0,0,0-4.755-8.2L191.771,37.133a4.41,4.41,0,0,0-2.189-.652,7.694,7.694,0,0,0-5.285,2.067,4.953,4.953,0,0,0-1.437,2.27,2.865,2.865,0,0,1,1.314-1.708,2.661,2.661,0,0,1,1.306-.337Z" transform="translate(-137.27 -35.92)"/>
    <path id="Path_3583" data-name="Path 3583" class="cls-2" d="M216.685,149.431a4.693,4.693,0,0,1-2.325-.7L187.988,133.5a10.794,10.794,0,0,1-4.888-8.438V49.439c0-2.289,1.2-3.769,3.047-3.769a4.693,4.693,0,0,1,2.325.7L214.846,61.6a10.8,10.8,0,0,1,4.888,8.435v75.629C219.735,147.951,218.537,149.431,216.685,149.431Z" transform="translate(-137.932 -43.026)"/>
    <path id="Path_3584" data-name="Path 3584" class="cls-3" d="M215.949,148.975a4.953,4.953,0,0,1-2.46-.739L187.114,133.02a11.091,11.091,0,0,1-5.024-8.671V48.708c0-2.444,1.3-4.038,3.319-4.038a4.948,4.948,0,0,1,2.46.736l26.375,15.23a11.09,11.09,0,0,1,5.024,8.669v75.629C219.271,147.389,217.964,148.975,215.949,148.975ZM185.409,45.213c-1.686,0-2.775,1.358-2.775,3.5V124.33a10.49,10.49,0,0,0,4.752,8.2l26.375,15.227a4.44,4.44,0,0,0,2.189.665c1.686,0,2.775-1.374,2.775-3.5V69.3a10.486,10.486,0,0,0-4.752-8.2L187.6,45.878A4.394,4.394,0,0,0,185.409,45.213Z" transform="translate(-137.197 -42.298)"/>
    <path id="Path_3585" data-name="Path 3585" class="cls-2" d="M216.685,149.431a4.693,4.693,0,0,1-2.325-.7L187.988,133.5a10.794,10.794,0,0,1-4.888-8.438V49.439c0-2.289,1.2-3.769,3.047-3.769a4.693,4.693,0,0,1,2.325.7L214.846,61.6a10.8,10.8,0,0,1,4.888,8.435v75.629C219.735,147.951,218.537,149.431,216.685,149.431Z" transform="translate(-137.932 -43.026)"/>
    <path id="Path_3586" data-name="Path 3586" class="cls-3" d="M215.949,148.975a4.953,4.953,0,0,1-2.46-.739L187.114,133.02a11.091,11.091,0,0,1-5.024-8.671V48.708c0-2.444,1.3-4.038,3.319-4.038a4.948,4.948,0,0,1,2.46.736l26.375,15.23a11.09,11.09,0,0,1,5.024,8.669v75.629C219.271,147.389,217.964,148.975,215.949,148.975ZM185.409,45.213c-1.686,0-2.775,1.358-2.775,3.5V124.33a10.49,10.49,0,0,0,4.752,8.2l26.375,15.227a4.44,4.44,0,0,0,2.189.665c1.686,0,2.775-1.374,2.775-3.5V69.3a10.486,10.486,0,0,0-4.752-8.2L187.6,45.878A4.394,4.394,0,0,0,185.409,45.213Z" transform="translate(-137.197 -42.298)"/>
    <path id="Path_3587" data-name="Path 3587" class="cls-3" d="M206.294,130.769l-32.564-18.8V45.74l32.564,18.8Z" transform="translate(-126.528 -33.322)"/>
    <path id="Path_3588" data-name="Path 3588" class="cls-4" d="M189.327,183.623l-13.94-8.049a2.771,2.771,0,0,1-1.157-2.208V157.281c0-.853.519-1.244,1.157-.874l13.94,8.047a2.77,2.77,0,0,1,1.154,2.211v16.074C190.481,183.588,189.965,183.979,189.327,183.623Z" transform="translate(-133.471 -124.589)"/>
    <path id="Path_3589" data-name="Path 3589" class="cls-5" d="M189.064,183.3a1.2,1.2,0,0,1-.595-.177h0l-13.937-8.047a3.027,3.027,0,0,1-1.293-2.444V156.557a1.279,1.279,0,0,1,.543-1.17,1.01,1.01,0,0,1,1.029.06l13.94,8.049a3.028,3.028,0,0,1,1.29,2.444v16.074a1.276,1.276,0,0,1-.543,1.17A.855.855,0,0,1,189.064,183.3Zm-.323-.646a.491.491,0,0,0,.483.06.79.79,0,0,0,.272-.7V165.94a2.512,2.512,0,0,0-1.018-1.974l-13.945-8.049a.511.511,0,0,0-.486-.06.793.793,0,0,0-.272.7v16.074a2.515,2.515,0,0,0,1.021,1.974Z" transform="translate(-132.75 -123.865)"/>
    <ellipse id="Ellipse_401" data-name="Ellipse 401" class="cls-2" cx="2.107" cy="3.652" rx="2.107" ry="3.652" transform="translate(59.119 90.98) rotate(-30.174)"/>
    <path id="Path_3590" data-name="Path 3590" class="cls-6" d="M243.994,372.669a2.667,2.667,0,0,1-1.3-.394,6.04,6.04,0,0,1-2.74-4.728,2.062,2.062,0,0,1,.893-1.9,2.094,2.094,0,0,1,2.118.185,6.04,6.04,0,0,1,2.74,4.725,2.057,2.057,0,0,1-.893,1.9,1.605,1.605,0,0,1-.815.212Zm-2.335-6.691a1.07,1.07,0,0,0-.543.138,1.558,1.558,0,0,0-.622,1.431,5.455,5.455,0,0,0,2.458,4.255,1.577,1.577,0,0,0,1.575.185,1.554,1.554,0,0,0,.622-1.434,5.443,5.443,0,0,0-2.469-4.253A2.107,2.107,0,0,0,241.658,365.978Z" transform="translate(-179.344 -275.954)"/>
    <path id="Path_3591" data-name="Path 3591" class="cls-2" d="M78.182,221.91c4.85-.763,4.152-3.128,3.215-3.294s-10.14,1.331-10.14,1.331-.709-.163-.98.855,1.852,2.2,1.852,2.2.217-.057.831-.182l-6.944,5.2-3.848-2.6L39,237.935l19.485,1.415,10.969-5.1c3.552.948,5.719-1.572,6.7-3.275a1.222,1.222,0,0,0,.225.041l1.021.076a1.439,1.439,0,0,0,1.545-1.328l.076-1.021a1.426,1.426,0,0,0-.215-.864,1.581,1.581,0,0,0,1.206-1.415l.084-1.124a1.589,1.589,0,0,0-1.464-1.7l-1.124-.084a1.586,1.586,0,0,0-1.651,1.179,13.82,13.82,0,0,0-1.507-2.189C75.257,222.385,76.5,222.173,78.182,221.91Z" transform="translate(-32.966 -168.996)"/>
    <path id="Path_3592" data-name="Path 3592" class="cls-7" d="M56.028,238.873h-.071l-20.4-1.485,24.118-13.035,3.824,2.572,5.975-4.462c-.345-.2-2.262-1.342-1.955-2.49.255-.95.9-1.111,1.247-1.059,1.141-.187,9.247-1.491,10.184-1.323a1.176,1.176,0,0,1,.9,1.2c0,.6-.421,2.042-4.12,2.626h0c-1.271.2-2.4.386-3.37.543a14.856,14.856,0,0,1,.959,1.431,1.86,1.86,0,0,1,1.7-.85l1.127.084a1.86,1.86,0,0,1,1.714,1.991l-.084,1.124a1.852,1.852,0,0,1-1.086,1.553,1.689,1.689,0,0,1,.106.725l-.076,1.021a1.719,1.719,0,0,1-1.836,1.581l-1.021-.076h-.071c-.864,1.428-3.069,4.2-6.808,3.259Zm-18.575-1.9L55.92,238.33l11-5.108.1.027c3.457.921,5.488-1.578,6.393-3.148l.1-.177.2.046a1.083,1.083,0,0,0,.185.033l1.021.079A1.173,1.173,0,0,0,76.16,229l.079-1.021a1.173,1.173,0,0,0-.177-.7l-.2-.318.361-.09a1.306,1.306,0,0,0,1-1.165l.084-1.124a1.317,1.317,0,0,0-1.211-1.409l-1.127-.084a1.317,1.317,0,0,0-1.358.978l-.174.657-.329-.6a13.888,13.888,0,0,0-1.475-2.145L71.4,221.7l-7.876,5.9-3.873-2.615Zm31.184-17.524c-.13,0-.445.065-.606.665s.885,1.4,1.629,1.839c.122-.03.353-.084.736-.16l1.187-.242-.024.016.236-.043c1.065-.193,2.355-.407,3.835-.641h0c2.686-.424,3.653-1.358,3.661-2.094a.655.655,0,0,0-.451-.665c-.652-.117-6.368.733-10.048,1.333h-.1Z" transform="translate(-30.46 -168.247)"/>
    <path id="Path_3593" data-name="Path 3593" class="cls-2" d="M73.234,205.117l9.261-2.854A3.53,3.53,0,0,0,84.8,197.85l-4.074,1.195-12.655,3.734a2.1,2.1,0,0,0-1.043.766L62.168,210.3,39,222.818l18.467-.024,11.254-5.16c6.971.91,7.4-5.975,7.425-6.561l4.481-2.585h0l1.9-1.086a2.363,2.363,0,0,0-2.363-4.09l-6.17,3.563a.969.969,0,0,1-.964,0h0a.967.967,0,0,1,.2-1.757Z" transform="translate(-32.966 -153.879)"/>
    <path id="Path_3594" data-name="Path 3594" class="cls-3" d="M35.08,222.186l24.048-13,4.829-6.705a2.338,2.338,0,0,1,1.179-.866l12.65-3.737,4.345-1.271.079.255a3.8,3.8,0,0,1-2.488,4.755l-.763.234a2.349,2.349,0,0,1,.239.054,2.632,2.632,0,0,1,.635,4.82l-6.26,3.615a8.151,8.151,0,0,1-2.458,5.407,6.513,6.513,0,0,1-5.19,1.271l-11.238,5.141H54.63Zm46.688-24.9L77.95,198.4,65.3,202.147a1.814,1.814,0,0,0-.91.652L59.5,209.607,37.231,221.643l17.34-.024,11.267-5.16h.079a5.976,5.976,0,0,0,4.845-1.138,7.674,7.674,0,0,0,2.273-5.16v-.149l6.518-3.761a2.089,2.089,0,1,0-2.091-3.617l-6.17,3.56a1.236,1.236,0,1,1-1-2.246h0l9.261-2.854a3.259,3.259,0,0,0,2.2-3.818Zm-11.3,7.191a.693.693,0,1,0,.565,1.257l5.328-3.074Z" transform="translate(-30.11 -152.975)"/>
    <path id="Path_3595" data-name="Path 3595" class="cls-8" d="M25.246,271.689,48.009,261.3c1.054-.611,1.705-1.915,1.705-3.769a12.963,12.963,0,0,0-5.882-10.146c-1.752-1.013-3.324-1.04-4.4-.272L16.89,257.361" transform="translate(-16.86 -189.37)"/>
    <path id="Path_3596" data-name="Path 3596" class="cls-2" d="M277.72,220.884l-22.356-12.908a4.426,4.426,0,0,1-1.855-3.53v-25.8c0-1.358.831-1.993,1.855-1.4l22.356,12.9a4.436,4.436,0,0,1,1.855,3.544v25.78C279.575,220.848,278.744,221.476,277.72,220.884Z" transform="translate(-189.221 -138.708)"/>
    <path id="Path_3597" data-name="Path 3597" class="cls-9" d="M277.789,220.686a1.765,1.765,0,0,1-.864-.255L254.57,207.523a4.657,4.657,0,0,1-1.98-3.759V177.976a1.868,1.868,0,0,1,.766-1.716,1.428,1.428,0,0,1,1.464.1l22.356,12.908a4.65,4.65,0,0,1,1.98,3.759V218.8a1.867,1.867,0,0,1-.766,1.716A1.179,1.179,0,0,1,277.789,220.686Zm-23.83-44.068a.7.7,0,0,0-.353.092A1.425,1.425,0,0,0,253.09,178v25.78a4.174,4.174,0,0,0,1.73,3.327l22.356,12.908a.972.972,0,0,0,.964.1,1.425,1.425,0,0,0,.516-1.285V193.032a4.167,4.167,0,0,0-1.73-3.327L254.57,176.8A1.257,1.257,0,0,0,253.959,176.619Z" transform="translate(-188.551 -138.038)"/>
    <path id="Path_3598" data-name="Path 3598" class="cls-2" d="M389.76,285.375,367.4,272.468a4.429,4.429,0,0,1-1.855-3.544V243.146c0-1.358.828-1.993,1.855-1.4l22.356,12.908a4.424,4.424,0,0,1,1.852,3.53v25.78C391.613,285.34,390.784,285.967,389.76,285.375Z" transform="translate(-270.834 -185.692)"/>
    <path id="Path_3599" data-name="Path 3599" class="cls-3" d="M389.826,285.184a1.719,1.719,0,0,1-.861-.255L366.61,272.021a4.65,4.65,0,0,1-1.98-3.759v-25.78a1.868,1.868,0,0,1,.766-1.716,1.437,1.437,0,0,1,1.461.1l22.356,12.908a4.65,4.65,0,0,1,1.98,3.759v25.78a1.865,1.865,0,0,1-.766,1.716A1.178,1.178,0,0,1,389.826,285.184ZM366,241.105a.7.7,0,0,0-.353.092,1.426,1.426,0,0,0-.519,1.285v25.78a4.17,4.17,0,0,0,1.73,3.327L389.212,284.5a.977.977,0,0,0,.967.1,1.431,1.431,0,0,0,.516-1.285V257.53a4.178,4.178,0,0,0-1.73-3.327L366.61,241.3a1.276,1.276,0,0,0-.611-.19Z" transform="translate(-270.164 -185.027)"/>
    <path id="Path_3600" data-name="Path 3600" class="cls-2" d="M402.609,134.594c6.678,1.249,12.25,8.913,12.446,17.109s-5.062,13.85-11.74,12.6-12.253-8.918-12.449-17.122S395.928,133.345,402.609,134.594Z" transform="translate(-289.271 -107.675)"/>
    <path id="Path_3601" data-name="Path 3601" class="cls-10" d="M404.408,164.008a10.171,10.171,0,0,1-1.863-.177c-6.789-1.271-12.47-9.068-12.669-17.38-.106-4.519,1.428-8.468,4.209-10.833a9.263,9.263,0,0,1,7.851-2.026h0c6.789,1.271,12.465,9.065,12.663,17.38.109,4.522-1.426,8.473-4.209,10.841A9.133,9.133,0,0,1,404.408,164.008Zm-4.332-30.055a8.606,8.606,0,0,0-5.646,2.072c-2.659,2.259-4.122,6.056-4.019,10.415.193,8.074,5.679,15.64,12.221,16.867a8.734,8.734,0,0,0,7.4-1.9c2.659-2.262,4.125-6.061,4.019-10.42-.19-8.074-5.676-15.637-12.221-16.862h0A9.57,9.57,0,0,0,400.076,133.953Z" transform="translate(-288.551 -106.936)"/>
    <g id="_Group_" data-name="&lt;Group&gt;" transform="translate(107.451 37.428)">
      <path id="Path_3602" data-name="Path 3602" class="cls-3" d="M415.541,180.806H415.5a1.265,1.265,0,0,1-.345-.055,1.4,1.4,0,0,1-.626-.386l-1.864-2.017a.829.829,0,1,1,1.217-1.126l1.672,1.809,5.322-5.075a.829.829,0,0,1,1.142,1.2l-5.525,5.269A1.389,1.389,0,0,1,415.541,180.806Z" transform="translate(-411.566 -172.618)"/>
    </g>
    <path id="Path_3603" data-name="Path 3603" class="cls-2" d="M288.409,75.614c6.678,1.249,12.251,8.916,12.446,17.109s-5.062,13.85-11.74,12.6S276.861,96.4,276.666,88.2,281.731,74.365,288.409,75.614Z" transform="translate(-206.085 -64.712)"/>
    <path id="Path_3604" data-name="Path 3604" class="cls-11" d="M290.2,105.026a10.173,10.173,0,0,1-1.863-.177c-6.789-1.271-12.473-9.07-12.671-17.38-.109-4.522,1.426-8.473,4.209-10.838a9.261,9.261,0,0,1,7.854-2.029c6.789,1.271,12.47,9.065,12.669,17.38.109,4.524-1.428,8.478-4.212,10.844a9.127,9.127,0,0,1-5.985,2.2Zm-4.332-30.057a8.606,8.606,0,0,0-5.641,2.072c-2.659,2.259-4.122,6.056-4.019,10.412.193,8.071,5.676,15.637,12.221,16.862a8.731,8.731,0,0,0,7.4-1.9c2.659-2.262,4.122-6.059,4.019-10.417-.193-8.071-5.676-15.632-12.221-16.856h0A9.581,9.581,0,0,0,285.868,74.968Z" transform="translate(-205.356 -63.966)"/>
    <g id="_Group_2" data-name="&lt;Group&gt;" transform="translate(77.429 22.235)">
      <path id="Path_3605" data-name="Path 3605" class="cls-3" d="M300.662,120.289h-.034a1.1,1.1,0,0,1-.765-.35l-1.474-1.593a.655.655,0,0,1,.962-.889l1.321,1.431,4.2-4.011a.655.655,0,0,1,.9.949l-4.353,4.168A1.1,1.1,0,0,1,300.662,120.289Z" transform="translate(-298.215 -114.731)"/>
    </g>
    <path id="Path_3606" data-name="Path 3606" class="cls-3" d="M396.983,306.158l-2.078,1.314-.331-.69.06-.038a.358.358,0,0,0,.133-.464l-.934-1.944a1.749,1.749,0,0,1-.1-1.233l.644-2.246a1.749,1.749,0,0,1,.736-1l1.822-1.151a.364.364,0,0,0,.133-.467l-.03-.062.646-.41,1.067,2.216a.391.391,0,0,0,.578.166.511.511,0,0,0,.185-.649l-1.065-2.216.372-.234a.394.394,0,0,0,.138-.483.293.293,0,0,0-.432-.122l-.372.234-1.065-2.213a.388.388,0,0,0-.578-.166.511.511,0,0,0-.187.649l1.067,2.213-.646.41-.03-.062a.272.272,0,0,0-.415-.119l-1.822,1.151a1.391,1.391,0,0,1-1.127.182l-2-.573a1.388,1.388,0,0,1-.861-.75l-.934-1.944a.272.272,0,0,0-.416-.12l-.06.038-.331-.69,2.077-1.314a.51.51,0,0,0,.185-.649.388.388,0,0,0-.576-.166l-2.077,1.314-.193-.4a.291.291,0,0,0-.429-.122.386.386,0,0,0-.138.481l.19.4-2.075,1.312a.511.511,0,0,0-.187.649h0a.388.388,0,0,0,.578.166l2.078-1.312.331.687-.06.038a.369.369,0,0,0-.133.467l.937,1.942a1.749,1.749,0,0,1,.1,1.236l-.644,2.249a1.743,1.743,0,0,1-.736.994l-1.822,1.154a.361.361,0,0,0-.133.464l.03.062-.646.41-1.065-2.213a.388.388,0,0,0-.578-.166h0a.511.511,0,0,0-.187.649l1.067,2.213-.372.236a.383.383,0,0,0-.138.481.29.29,0,0,0,.429.125l.372-.236L386,308.053a.386.386,0,0,0,.578.166.511.511,0,0,0,.185-.646l-1.067-2.216.649-.407.03.062a.272.272,0,0,0,.415.117l1.822-1.151a1.382,1.382,0,0,1,1.124-.182l2,.573a1.39,1.39,0,0,1,.861.752l.934,1.942a.272.272,0,0,0,.415.12l.06-.038.331.69-2.078,1.314a.51.51,0,0,0-.185.649.388.388,0,0,0,.578.166l2.078-1.314.19.4a.293.293,0,0,0,.429.125h0a.386.386,0,0,0,.138-.483l-.19-.4,2.078-1.314a.511.511,0,0,0,.185-.649.388.388,0,0,0-.584-.168Z" transform="translate(-283.931 -222.817)"/>
    <path id="Path_3607" data-name="Path 3607" class="cls-3" d="M286.193,238.781l-2.078,1.314-.331-.69.057-.038a.358.358,0,0,0,.133-.464l-.934-1.942a1.743,1.743,0,0,1-.1-1.236l.644-2.246a1.757,1.757,0,0,1,.733-1l1.822-1.151a.367.367,0,0,0,.136-.467l-.03-.062.646-.41,1.065,2.216a.388.388,0,0,0,.578.166.516.516,0,0,0,.187-.649l-1.067-2.213.372-.236a.386.386,0,0,0,.138-.483.293.293,0,0,0-.429-.122l-.372.234L286.3,227.09a.388.388,0,0,0-.578-.166.511.511,0,0,0-.185.649l1.065,2.213-.646.41-.03-.062a.272.272,0,0,0-.415-.119l-1.833,1.154a1.385,1.385,0,0,1-1.127.179l-1.991-.562a1.382,1.382,0,0,1-.858-.75l-.937-1.966a.272.272,0,0,0-.415-.117l-.057.035-.318-.679L280.05,226a.513.513,0,0,0,.187-.649.388.388,0,0,0-.578-.166l-2.078,1.312-.19-.4a.293.293,0,0,0-.429-.122.386.386,0,0,0-.138.483l.19.4-2.077,1.312a.511.511,0,0,0-.185.649h0a.386.386,0,0,0,.578.166l2.075-1.312.334.69-.06.035a.364.364,0,0,0-.133.467l.934,1.942a1.744,1.744,0,0,1,.1,1.236l-.644,2.246a1.752,1.752,0,0,1-.733,1l-1.822,1.151a.361.361,0,0,0-.133.467l.03.062-.646.407-1.067-2.213a.388.388,0,0,0-.578-.166h0a.511.511,0,0,0-.185.649l1.051,2.205-.372.236a.388.388,0,0,0-.139.483.293.293,0,0,0,.429.122l.375-.236,1.065,2.216a.391.391,0,0,0,.578.166.511.511,0,0,0,.185-.649l-1.065-2.216.646-.407.03.062a.272.272,0,0,0,.416.119l1.822-1.154a1.388,1.388,0,0,1,1.127-.182l2,.576a1.393,1.393,0,0,1,.861.75l.934,1.942a.272.272,0,0,0,.415.119l.057-.035.334.687-2.078,1.314a.511.511,0,0,0-.187.649.388.388,0,0,0,.578.166l2.088-1.306.19.4a.3.3,0,0,0,.432.122h0a.391.391,0,0,0,.139-.483l-.193-.4L286.6,239.6a.513.513,0,0,0,.187-.649.388.388,0,0,0-.589-.166Z" transform="translate(-203.234 -173.739)"/>
  </g>
</svg>
