<svg xmlns="http://www.w3.org/2000/svg" xmlns:xlink="http://www.w3.org/1999/xlink" viewBox="9070 1541 88.029 99.312">
  <defs>
    <style>
      .cls-1 {
        fill: #fff;
      }

      .cls-2 {
        fill: url(#linear-gradient);
      }

      .cls-3 {
        fill: url(#linear-gradient-2);
      }

      .cls-4 {
        fill: url(#linear-gradient-3);
      }

      .cls-5 {
        fill: url(#linear-gradient-4);
      }

      .cls-6 {
        fill: url(#linear-gradient-5);
      }

      .cls-7 {
        fill: url(#linear-gradient-6);
      }

      .cls-8 {
        fill: url(#linear-gradient-8);
      }

      .cls-9 {
        fill: url(#linear-gradient-9);
      }

      .cls-10 {
        fill: url(#linear-gradient-10);
      }

      .cls-11 {
        fill: url(#linear-gradient-12);
      }

      .cls-12 {
        fill: url(#linear-gradient-13);
      }

      .cls-13 {
        fill: url(#linear-gradient-15);
      }

      .cls-14 {
        fill: url(#linear-gradient-18);
      }

      .cls-15 {
        fill: url(#linear-gradient-21);
      }

      .cls-16 {
        fill: url(#linear-gradient-24);
      }

      .cls-17 {
        fill: url(#linear-gradient-25);
      }

      .cls-18 {
        fill: url(#linear-gradient-26);
      }

      .cls-19 {
        fill: url(#linear-gradient-27);
      }

      .cls-20 {
        fill: url(#linear-gradient-30);
      }

      .cls-21 {
        fill: url(#linear-gradient-33);
      }

      .cls-22 {
        fill: url(#linear-gradient-34);
      }

      .cls-23 {
        fill: url(#linear-gradient-35);
      }

      .cls-24 {
        fill: url(#linear-gradient-36);
      }

      .cls-25 {
        fill: url(#linear-gradient-37);
      }

      .cls-26 {
        fill: url(#linear-gradient-39);
      }

      .cls-27 {
        fill: url(#linear-gradient-42);
      }

      .cls-28 {
        fill: url(#linear-gradient-43);
      }

      .cls-29 {
        fill: url(#linear-gradient-44);
      }

      .cls-30 {
        fill: url(#linear-gradient-45);
      }
    </style>
    <linearGradient id="linear-gradient" y1="0.5" x2="1.001" y2="0.5" gradientUnits="objectBoundingBox">
      <stop offset="0" stop-color="#3e77bc"/>
      <stop offset="1" stop-color="#529fd8"/>
    </linearGradient>
    <linearGradient id="linear-gradient-2" x1="0" y1="0.5" x2="1" y2="0.5" xlink:href="#linear-gradient"/>
    <linearGradient id="linear-gradient-3" x1="0" y1="0.499" x2="1" y2="0.499" xlink:href="#linear-gradient"/>
    <linearGradient id="linear-gradient-4" x1="0" y1="0.499" x2="1.001" y2="0.499" xlink:href="#linear-gradient"/>
    <linearGradient id="linear-gradient-5" x1="0" y1="0.5" x2="1" y2="0.5" xlink:href="#linear-gradient"/>
    <linearGradient id="linear-gradient-6" x1="0" y1="0.499" x2="1.001" y2="0.499" xlink:href="#linear-gradient"/>
    <linearGradient id="linear-gradient-8" x1="0" y1="0.5" x2="1" y2="0.5" xlink:href="#linear-gradient"/>
    <linearGradient id="linear-gradient-9" x1="0" y1="0.5" x2="1.001" y2="0.5" xlink:href="#linear-gradient"/>
    <linearGradient id="linear-gradient-10" x1="0" y1="0.499" x2="1.001" y2="0.499" xlink:href="#linear-gradient"/>
    <linearGradient id="linear-gradient-12" x1="-0.001" y1="0.5" x2="1.001" y2="0.5" xlink:href="#linear-gradient"/>
    <linearGradient id="linear-gradient-13" x1="0" y1="0.499" x2="1.001" y2="0.499" xlink:href="#linear-gradient"/>
    <linearGradient id="linear-gradient-15" x1="0" y1="0.501" x2="1.001" y2="0.501" xlink:href="#linear-gradient"/>
    <linearGradient id="linear-gradient-18" x1="0" y1="0.5" x2="1.001" y2="0.5" xlink:href="#linear-gradient"/>
    <linearGradient id="linear-gradient-21" x1="-0.001" y1="0.499" x2="1.001" y2="0.499" xlink:href="#linear-gradient"/>
    <linearGradient id="linear-gradient-24" x1="-0.001" y1="0.5" x2="1" y2="0.5" xlink:href="#linear-gradient"/>
    <linearGradient id="linear-gradient-25" x1="0" y1="0.5" x2="1" y2="0.5" xlink:href="#linear-gradient"/>
    <linearGradient id="linear-gradient-26" x1="0" y1="0.5" x2="1" y2="0.5" xlink:href="#linear-gradient"/>
    <linearGradient id="linear-gradient-27" x1="-0.001" y1="0.5" x2="1" y2="0.5" xlink:href="#linear-gradient"/>
    <linearGradient id="linear-gradient-30" x1="0" y1="0.499" x2="1" y2="0.499" xlink:href="#linear-gradient"/>
    <linearGradient id="linear-gradient-33" x1="0" y1="0.5" x2="1.001" y2="0.5" xlink:href="#linear-gradient"/>
    <linearGradient id="linear-gradient-34" x1="0" y1="0.499" x2="1" y2="0.499" xlink:href="#linear-gradient"/>
    <linearGradient id="linear-gradient-35" x1="0" y1="0.5" x2="1" y2="0.5" xlink:href="#linear-gradient"/>
    <linearGradient id="linear-gradient-36" x1="-0.001" y1="0.5" x2="1.001" y2="0.5" xlink:href="#linear-gradient"/>
    <linearGradient id="linear-gradient-37" x1="0" y1="0.5" x2="1" y2="0.5" xlink:href="#linear-gradient"/>
    <linearGradient id="linear-gradient-39" x1="-0.001" y1="0.501" x2="1.001" y2="0.501" xlink:href="#linear-gradient"/>
    <linearGradient id="linear-gradient-42" x1="0" y1="0.5" x2="1" y2="0.5" xlink:href="#linear-gradient"/>
    <linearGradient id="linear-gradient-43" x1="-0.001" y1="0.5" x2="1" y2="0.5" xlink:href="#linear-gradient"/>
    <linearGradient id="linear-gradient-44" x1="-0.001" y1="0.5" x2="0.998" y2="0.5" xlink:href="#linear-gradient"/>
    <linearGradient id="linear-gradient-45" x1="-0.001" y1="0.5" x2="0.999" y2="0.5" xlink:href="#linear-gradient"/>
  </defs>
  <g id="icon_15" data-name="icon 15" transform="translate(9070 1538.85)">
    <path id="Path_3608" data-name="Path 3608" class="cls-1" d="M105.365,286.443c-1.114,3.4-5.792,5.955-11.392,5.955S83.7,289.84,82.585,286.443a4.958,4.958,0,0,1-.255-1.506v3.069c0,4.16,5.213,7.534,11.643,7.534s11.655-3.367,11.655-7.527V284.87A4.869,4.869,0,0,1,105.365,286.443Z" transform="translate(-82.094 -224.135)"/>
    <path id="Path_3609" data-name="Path 3609" class="cls-2" d="M93.209,295.814c-6.55,0-11.879-3.487-11.879-7.77v-3.069H81.8a4.722,4.722,0,0,0,.236,1.433c1.105,3.358,5.8,5.794,11.163,5.794s10.065-2.437,11.168-5.794h0a4.722,4.722,0,0,0,.236-1.5h.472v3.143C105.1,292.326,99.763,295.814,93.209,295.814ZM81.8,287.078v.968c0,4.014,5.117,7.3,11.407,7.3s11.418-3.277,11.418-7.3v-.97c-1.452,3.27-6.125,5.591-11.414,5.591s-9.957-2.321-11.411-5.589Z" transform="translate(-81.33 -224.166)"/>
    <path id="Path_3610" data-name="Path 3610" class="cls-1" d="M93.973,268.052c5.6,0,10.278-2.557,11.392-5.955a4.869,4.869,0,0,0,.257-1.573c0-4.163-5.213-7.525-11.65-7.525s-11.643,3.365-11.643,7.527v.066a4.958,4.958,0,0,0,.255,1.506C83.7,265.5,88.391,268.052,93.973,268.052Z" transform="translate(-82.094 -199.79)"/>
    <path id="Path_3611" data-name="Path 3611" class="cls-3" d="M93.209,267.517c-5.563,0-10.446-2.574-11.612-6.118a5.2,5.2,0,0,1-.267-1.575v-.071c0-4.281,5.329-7.763,11.879-7.763s11.891,3.483,11.891,7.763a5.14,5.14,0,0,1-.269,1.653C103.662,264.943,98.776,267.517,93.209,267.517Zm0-15.055c-6.29,0-11.407,3.27-11.407,7.291v.066a4.723,4.723,0,0,0,.236,1.431c1.105,3.357,5.8,5.794,11.163,5.794s10.065-2.437,11.168-5.794a4.659,4.659,0,0,0,.236-1.5c.021-4.021-5.1-7.289-11.4-7.289Z" transform="translate(-81.33 -199.018)"/>
    <path id="Path_3612" data-name="Path 3612" class="cls-4" d="M106.528,267.741c.17.1.335.205.505.3a3.567,3.567,0,0,0-.335.366c-.033.04-.066.087-.1.132a1.95,1.95,0,0,0-.368,1.079h0a2.63,2.63,0,0,0,1.551,2.2c1.525.841,2.984.045,4.337-.708q1.551.928,3.11,1.868c-.17.09-.34.184-.517.264a13.982,13.982,0,0,1-1.454.571c-.092.026-.21.083-.335.111v.04l.534.269.944.472a9.946,9.946,0,0,0,1.99-1.032c.236.132.456.269.685.408l.652-.449.427-.3h-.014c-.2-.118-.394-.236-.586-.357-.071-.045-.144-.085-.217-.132a4.06,4.06,0,0,0,.472-.638,1.119,1.119,0,0,0,.132-.288c.434-1.181-.869-2.151-1.868-2.55a4.5,4.5,0,0,0-3.938.347c-.748-.446-1.492-.9-2.248-1.355-.158-.1-.323-.189-.472-.288.328-.144.663-.269.985-.392.1-.035.191-.076.283-.106a.618.618,0,0,0,.165-.094.3.3,0,0,0,.052-.038l-.052-.028-1.334-.72a12.532,12.532,0,0,0-1.381.609l-.907-.545-.236.158-.843.56v.1c.066.031.158.052.217.083S106.473,267.715,106.528,267.741Zm4.333,2.642a3.517,3.517,0,0,1-.472.236,2.425,2.425,0,0,1-1.757.2,1.2,1.2,0,0,1-1.025-.966,1.27,1.27,0,0,1,.586-1.126c.9.541,1.8,1.086,2.7,1.624Zm5.681,1.483a.847.847,0,0,1-.113.17c-.045.052-.1.1-.151.156l-2.326-1.407c-.187-.111-.375-.222-.56-.335a2.758,2.758,0,0,1,1.665-.156C115.559,270.424,117.047,270.957,116.541,271.866Z" transform="translate(-100.29 -210.255)"/>
    <path id="Path_3613" data-name="Path 3613" class="cls-1" d="M179.878,324.993c-1.117,3.4-5.792,5.955-11.395,5.955s-10.269-2.557-11.388-5.955a4.958,4.958,0,0,1-.255-1.506v3.069c0,4.16,5.213,7.534,11.643,7.534s11.652-3.374,11.652-7.534V323.42a4.933,4.933,0,0,1-.257,1.573Z" transform="translate(-139.011 -253.583)"/>
    <path id="Path_3614" data-name="Path 3614" class="cls-5" d="M167.719,334.371c-6.55,0-11.879-3.487-11.879-7.771v-3.069h.472a4.723,4.723,0,0,0,.236,1.433c1.105,3.358,5.8,5.794,11.163,5.794s10.068-2.437,11.171-5.792h0a4.658,4.658,0,0,0,.236-1.5h.472v3.143C179.607,330.884,174.273,334.371,167.719,334.371Zm-11.407-8.736v.968c0,4.014,5.117,7.3,11.407,7.3s11.416-3.275,11.416-7.3v-.97c-1.454,3.27-6.127,5.591-11.416,5.591s-9.952-2.323-11.407-5.591Z" transform="translate(-138.247 -253.621)"/>
    <path id="Path_3615" data-name="Path 3615" class="cls-1" d="M168.483,306.595c5.6,0,10.278-2.557,11.395-5.955a4.933,4.933,0,0,0,.257-1.573c0-4.163-5.216-7.527-11.652-7.527s-11.643,3.365-11.643,7.527v.066a4.959,4.959,0,0,0,.255,1.506C158.214,304.037,162.889,306.595,168.483,306.595Z" transform="translate(-139.011 -229.23)"/>
    <path id="Path_3616" data-name="Path 3616" class="cls-6" d="M167.719,306.067c-5.56,0-10.443-2.574-11.612-6.118a5.27,5.27,0,0,1-.267-1.575V298.3c0-4.281,5.329-7.763,11.879-7.763s11.888,3.483,11.888,7.763a5.121,5.121,0,0,1-.272,1.653C178.172,303.493,173.286,306.067,167.719,306.067Zm0-15.055c-6.29,0-11.407,3.27-11.407,7.291v.066a4.723,4.723,0,0,0,.236,1.431c1.105,3.357,5.8,5.794,11.163,5.794s10.068-2.437,11.171-5.792a4.684,4.684,0,0,0,.236-1.5C179.135,294.282,174.014,291.012,167.719,291.012Z" transform="translate(-138.247 -228.466)"/>
    <path id="Path_3617" data-name="Path 3617" class="cls-7" d="M181.022,306.291c.172.1.335.205.505.3a3.3,3.3,0,0,0-.331.366c-.033.04-.066.087-.1.132a1.969,1.969,0,0,0-.368,1.079h0a2.639,2.639,0,0,0,1.551,2.2c1.525.841,2.984.045,4.337-.708l3.112,1.868c-.172.09-.342.184-.519.264a13.943,13.943,0,0,1-1.452.571c-.094.026-.212.085-.335.111v.035l.531.269.944.472a10.029,10.029,0,0,0,1.993-1.032l.685.408.649-.449.427-.3h0l-.014-.012c-.2-.118-.394-.236-.586-.357-.071-.045-.144-.085-.215-.132a4.051,4.051,0,0,0,.472-.638,1.084,1.084,0,0,0,.132-.288c.434-1.181-.867-2.151-1.868-2.55a4.491,4.491,0,0,0-3.948.352c-.751-.446-1.495-.9-2.25-1.355-.158-.1-.321-.189-.472-.288.328-.144.663-.269.987-.392.1-.035.189-.076.281-.106a.583.583,0,0,0,.165-.094.238.238,0,0,0,.052-.038l-.052-.028L184,305.25a12.537,12.537,0,0,0-1.381.609c-.3-.184-.6-.361-.907-.545l-.236.158-.841.56v.1c.066.031.158.052.217.083S180.961,306.261,181.022,306.291Zm4.333,2.642a3.523,3.523,0,0,1-.472.236,2.423,2.423,0,0,1-1.757.2,1.2,1.2,0,0,1-1.025-.966,1.275,1.275,0,0,1,.586-1.126c.9.541,1.8,1.086,2.7,1.624Zm5.681,1.483a.946.946,0,0,1-.111.17c-.047.052-.106.1-.151.156l-2.328-1.4c-.187-.111-.375-.222-.56-.335a2.76,2.76,0,0,1,1.653-.156C190.063,308.969,191.541,309.507,191.036,310.416Z" transform="translate(-157.192 -239.703)"/>
    <path id="Path_3618" data-name="Path 3618" class="cls-1" d="M106.405,270.513c-1.114,3.4-5.792,5.955-11.392,5.955s-10.269-2.555-11.388-5.955a4.958,4.958,0,0,1-.255-1.5v3.069c0,4.163,5.213,7.534,11.643,7.534s11.645-3.367,11.645-7.53V268.94A4.857,4.857,0,0,1,106.405,270.513Z" transform="translate(-82.888 -211.966)"/>
    <path id="Path_3619" data-name="Path 3619" class="cls-5" d="M94.249,279.891c-6.55,0-11.879-3.485-11.879-7.77v-3.069h.472a4.722,4.722,0,0,0,.236,1.433c1.105,3.358,5.8,5.794,11.163,5.794s10.068-2.437,11.168-5.792h0a4.647,4.647,0,0,0,.236-1.5h.472v3.143C106.13,276.406,100.8,279.891,94.249,279.891Zm-11.407-8.736v.968c0,4.014,5.117,7.3,11.407,7.3s11.409-3.277,11.409-7.3v-.97c-1.452,3.27-6.125,5.591-11.414,5.591s-9.945-2.319-11.4-5.589Z" transform="translate(-82.124 -212.005)"/>
    <path id="Path_3620" data-name="Path 3620" class="cls-1" d="M95.013,252.115c5.6,0,10.278-2.557,11.392-5.955a4.856,4.856,0,0,0,.257-1.573c0-4.163-5.213-7.527-11.65-7.527s-11.643,3.365-11.643,7.527v.068a4.958,4.958,0,0,0,.255,1.5C84.744,249.56,89.422,252.115,95.013,252.115Z" transform="translate(-82.888 -187.614)"/>
    <path id="Path_3621" data-name="Path 3621" class="cls-8" d="M94.249,251.587c-5.56,0-10.446-2.571-11.612-6.115a5.213,5.213,0,0,1-.267-1.577v-.071c0-4.281,5.329-7.763,11.879-7.763s11.881,3.483,11.881,7.763a5.119,5.119,0,0,1-.269,1.653C104.713,249.016,99.816,251.587,94.249,251.587Zm0-15.055c-6.29,0-11.407,3.273-11.407,7.291v.068a4.722,4.722,0,0,0,.236,1.417c1.105,3.358,5.8,5.794,11.163,5.794s10.068-2.437,11.168-5.792a4.609,4.609,0,0,0,.236-1.5C105.658,239.8,100.544,236.532,94.249,236.532Z" transform="translate(-82.124 -186.85)"/>
    <path id="Path_3622" data-name="Path 3622" class="cls-9" d="M107.56,251.76c.17.1.335.2.505.3a3.6,3.6,0,0,0-.335.368l-.1.132a1.962,1.962,0,0,0-.368,1.077h0a2.639,2.639,0,0,0,1.551,2.2c1.525.841,2.984.045,4.337-.708,1.034.616,2.073,1.242,3.112,1.865-.172.092-.342.187-.519.264a15.118,15.118,0,0,1-1.454.571c-.092.026-.21.085-.333.111v.04l.531.269.944.472a9.784,9.784,0,0,0,1.993-1.032l.682.408.652-.446.427-.3h0l-.014-.014c-.2-.118-.394-.236-.586-.357-.071-.043-.144-.083-.215-.13a4.162,4.162,0,0,0,.472-.638,1.133,1.133,0,0,0,.132-.29c.434-1.181-.869-2.149-1.868-2.55a4.5,4.5,0,0,0-3.938.349c-.748-.449-1.492-.9-2.248-1.355-.158-.1-.323-.191-.472-.288.328-.146.663-.272.987-.394.1-.033.189-.073.281-.106a.557.557,0,0,0,.165-.092.236.236,0,0,0,.052-.04l-.052-.026-1.334-.722a12.526,12.526,0,0,0-1.381.609c-.3-.184-.6-.361-.907-.543l-.236.158-.848.555v.1c.066.033.156.052.217.085Zm4.333,2.642a3.819,3.819,0,0,1-.472.236,2.425,2.425,0,0,1-1.757.205,1.2,1.2,0,0,1-1.025-.968,1.27,1.27,0,0,1,.586-1.124c.9.538,1.8,1.084,2.7,1.624a.207.207,0,0,0-.033.026Zm5.681,1.48a.861.861,0,0,1-.111.17c-.047.052-.106.1-.153.158l-2.326-1.4c-.187-.111-.375-.222-.56-.335a2.76,2.76,0,0,1,1.653-.158C116.6,254.442,118.079,254.976,117.574,255.883Z" transform="translate(-101.076 -198.033)"/>
    <path id="Path_3623" data-name="Path 3623" class="cls-1" d="M106.405,254.333c-1.114,3.4-5.792,5.955-11.392,5.955s-10.269-2.557-11.388-5.955a4.958,4.958,0,0,1-.255-1.5V255.9c0,4.163,5.213,7.534,11.643,7.534s11.645-3.367,11.645-7.53V252.76A4.847,4.847,0,0,1,106.405,254.333Z" transform="translate(-82.888 -199.607)"/>
    <path id="Path_3624" data-name="Path 3624" class="cls-10" d="M94.249,263.731c-6.55,0-11.879-3.485-11.879-7.77v-3.069h.472a4.722,4.722,0,0,0,.236,1.433c1.105,3.36,5.8,5.794,11.163,5.794s10.068-2.434,11.168-5.792h0a4.647,4.647,0,0,0,.236-1.5h.472v3.143C106.13,260.242,100.8,263.731,94.249,263.731ZM82.842,255v.968c0,4.019,5.107,7.3,11.407,7.3s11.409-3.277,11.409-7.3V255c-1.452,3.27-6.125,5.591-11.414,5.591S84.3,258.258,82.842,255Z" transform="translate(-82.124 -199.66)"/>
    <path id="Path_3625" data-name="Path 3625" class="cls-1" d="M95.013,235.935c5.6,0,10.278-2.557,11.392-5.955a4.847,4.847,0,0,0,.257-1.573c0-4.16-5.213-7.527-11.65-7.527s-11.643,3.367-11.643,7.527v.068a4.959,4.959,0,0,0,.255,1.5C84.744,233.377,89.422,235.935,95.013,235.935Z" transform="translate(-82.888 -175.254)"/>
    <path id="Path_3626" data-name="Path 3626" class="cls-8" d="M94.249,235.407c-5.56,0-10.446-2.571-11.612-6.115a5.213,5.213,0,0,1-.267-1.577v-.071c0-4.281,5.329-7.763,11.879-7.763s11.881,3.483,11.881,7.763a5.119,5.119,0,0,1-.269,1.653C104.713,232.836,99.816,235.407,94.249,235.407Zm0-15.055c-6.29,0-11.407,3.272-11.407,7.291v.068a4.722,4.722,0,0,0,.236,1.428c1.105,3.36,5.8,5.794,11.163,5.794s10.068-2.434,11.168-5.792a4.609,4.609,0,0,0,.236-1.5C105.658,223.625,100.544,220.352,94.249,220.352Z" transform="translate(-82.124 -174.49)"/>
    <path id="Path_3627" data-name="Path 3627" class="cls-11" d="M107.583,235.578c.17.1.335.205.505.3a3.6,3.6,0,0,0-.335.368l-.1.132a1.962,1.962,0,0,0-.368,1.077h0a2.639,2.639,0,0,0,1.551,2.2c1.525.841,2.984.045,4.337-.708,1.034.616,2.073,1.242,3.112,1.865-.172.092-.342.187-.519.264a15.119,15.119,0,0,1-1.454.571c-.092.026-.21.085-.333.113v.038l.531.272.944.472a9.9,9.9,0,0,0,1.993-1.029l.682.406.652-.446.427-.3h0l-.014-.012-.586-.357c-.071-.045-.144-.085-.215-.132a4.162,4.162,0,0,0,.472-.638,1.133,1.133,0,0,0,.132-.29c.434-1.181-.869-2.149-1.868-2.548a4.5,4.5,0,0,0-3.938.347c-.748-.446-1.492-.9-2.248-1.355-.158-.1-.323-.191-.472-.288.328-.146.663-.272.987-.394.1-.033.189-.073.281-.106a.557.557,0,0,0,.165-.092.237.237,0,0,0,.052-.04l-.052-.026-1.334-.723a12.115,12.115,0,0,0-1.381.612c-.3-.184-.6-.364-.907-.545l-.236.158-.841.557v.1c.066.033.156.052.217.085S107.529,235.547,107.583,235.578Zm4.333,2.642a3.825,3.825,0,0,1-.472.236,2.413,2.413,0,0,1-1.757.205,1.2,1.2,0,0,1-1.025-.968,1.27,1.27,0,0,1,.586-1.124c.9.538,1.8,1.084,2.7,1.624Zm5.681,1.48a.864.864,0,0,1-.111.17c-.047.054-.106.1-.153.158l-2.326-1.4c-.187-.111-.375-.222-.56-.335a2.741,2.741,0,0,1,1.653-.156c.524.125,2,.659,1.5,1.565Z" transform="translate(-101.099 -185.673)"/>
    <path id="Path_3628" data-name="Path 3628" class="cls-1" d="M106.405,237.85c-1.114,3.4-5.792,5.955-11.392,5.955s-10.269-2.557-11.388-5.955a4.94,4.94,0,0,1-.255-1.5v3.069c0,4.163,5.213,7.534,11.643,7.534s11.645-3.367,11.645-7.53v-3.14A4.842,4.842,0,0,1,106.405,237.85Z" transform="translate(-82.888 -187.018)"/>
    <path id="Path_3629" data-name="Path 3629" class="cls-12" d="M94.249,247.229c-6.55,0-11.879-3.485-11.879-7.77v-3.069h.472a4.743,4.743,0,0,0,.236,1.436c1.105,3.358,5.8,5.792,11.163,5.792s10.068-2.434,11.168-5.792h0a4.642,4.642,0,0,0,.236-1.495h.472v3.14C106.13,243.744,100.8,247.229,94.249,247.229Zm-11.407-8.736v.968c0,4.014,5.117,7.3,11.407,7.3s11.409-3.275,11.409-7.3v-.968c-1.452,3.268-6.125,5.589-11.414,5.589s-9.945-2.319-11.4-5.589Z" transform="translate(-82.124 -187.056)"/>
    <path id="Path_3630" data-name="Path 3630" class="cls-1" d="M95.013,219.445c5.6,0,10.278-2.557,11.392-5.955a4.843,4.843,0,0,0,.257-1.57c0-4.163-5.213-7.53-11.65-7.53s-11.643,3.367-11.643,7.53v.066a4.94,4.94,0,0,0,.255,1.5C84.744,216.887,89.422,219.445,95.013,219.445Z" transform="translate(-82.888 -162.657)"/>
    <path id="Path_3631" data-name="Path 3631" class="cls-8" d="M94.249,218.917c-5.56,0-10.446-2.571-11.612-6.115a5.194,5.194,0,0,1-.267-1.577v-.068c0-4.283,5.329-7.766,11.879-7.766s11.881,3.483,11.881,7.766a5.114,5.114,0,0,1-.269,1.653C104.713,216.346,99.816,218.917,94.249,218.917Zm0-15.055c-6.29,0-11.407,3.273-11.407,7.294v.066a4.739,4.739,0,0,0,.236,1.431c1.105,3.358,5.8,5.792,11.163,5.792s10.068-2.434,11.168-5.792a4.606,4.606,0,0,0,.236-1.5C105.658,207.135,100.544,203.862,94.249,203.862Z" transform="translate(-82.124 -161.894)"/>
    <path id="Path_3632" data-name="Path 3632" class="cls-13" d="M107.545,219.067c.17.1.335.205.505.3a3.594,3.594,0,0,0-.335.368l-.1.132a1.962,1.962,0,0,0-.368,1.077h0a2.636,2.636,0,0,0,1.551,2.193c1.525.841,2.984.045,4.337-.708,1.034.616,2.073,1.242,3.112,1.865-.172.092-.342.187-.519.264a15.11,15.11,0,0,1-1.454.571c-.092.026-.21.085-.333.113v.038l.531.272.944.472A9.9,9.9,0,0,0,117.412,225l.682.406.652-.446.427-.3h0l-.014-.012-.586-.357c-.071-.045-.144-.085-.215-.132a4.161,4.161,0,0,0,.472-.637,1.133,1.133,0,0,0,.132-.29c.434-1.181-.869-2.149-1.868-2.548a4.5,4.5,0,0,0-3.938.347c-.748-.446-1.492-.9-2.248-1.355-.158-.1-.323-.191-.472-.288.328-.146.663-.272.987-.394.1-.033.189-.073.281-.106a.557.557,0,0,0,.165-.092.236.236,0,0,0,.052-.04l-.052-.026-1.346-.73a12.118,12.118,0,0,0-1.381.612l-.907-.545-.236.158-.841.557v.1c.066.033.156.052.217.085S107.491,219.034,107.545,219.067Zm4.333,2.642a3.825,3.825,0,0,1-.472.236,2.413,2.413,0,0,1-1.757.205,1.2,1.2,0,0,1-1.025-.968,1.27,1.27,0,0,1,.586-1.124c.9.538,1.8,1.084,2.7,1.624Zm5.681,1.485a.862.862,0,0,1-.111.17c-.047.054-.106.106-.153.158l-2.326-1.4c-.187-.111-.375-.222-.56-.335a2.741,2.741,0,0,1,1.653-.156C116.586,221.749,118.064,222.283,117.558,223.194Z" transform="translate(-101.061 -173.054)"/>
    <path id="Path_3633" data-name="Path 3633" class="cls-1" d="M179.878,308.793c-1.117,3.4-5.792,5.955-11.395,5.955s-10.269-2.557-11.388-5.955a4.958,4.958,0,0,1-.255-1.5v3.069c0,4.163,5.213,7.534,11.643,7.534s11.652-3.372,11.652-7.534V307.22A4.912,4.912,0,0,1,179.878,308.793Z" transform="translate(-139.011 -241.208)"/>
    <path id="Path_3634" data-name="Path 3634" class="cls-5" d="M167.719,318.171c-6.55,0-11.879-3.485-11.879-7.77v-3.069h.472a4.743,4.743,0,0,0,.236,1.436c1.105,3.358,5.8,5.792,11.163,5.792s10.068-2.434,11.171-5.792h0a4.649,4.649,0,0,0,.236-1.5h.472v3.143C179.607,314.686,174.273,318.171,167.719,318.171Zm-11.407-8.736v.966c0,4.026,5.117,7.3,11.407,7.3s11.416-3.272,11.416-7.3v-.97c-1.454,3.27-6.127,5.591-11.416,5.591S157.767,312.7,156.312,309.435Z" transform="translate(-138.247 -241.246)"/>
    <path id="Path_3635" data-name="Path 3635" class="cls-1" d="M168.483,290.395c5.6,0,10.278-2.557,11.395-5.955a4.911,4.911,0,0,0,.257-1.573c0-4.16-5.216-7.527-11.652-7.527s-11.643,3.367-11.643,7.527v.068a4.959,4.959,0,0,0,.255,1.5C158.214,287.837,162.889,290.395,168.483,290.395Z" transform="translate(-139.011 -216.855)"/>
    <path id="Path_3636" data-name="Path 3636" class="cls-6" d="M167.719,289.867c-5.56,0-10.443-2.571-11.612-6.115a5.287,5.287,0,0,1-.267-1.577V282.1c0-4.281,5.329-7.763,11.879-7.763s11.888,3.483,11.888,7.763a5.122,5.122,0,0,1-.272,1.653C178.172,287.3,173.286,289.867,167.719,289.867Zm0-15.055c-6.29,0-11.407,3.273-11.407,7.291v.068a4.739,4.739,0,0,0,.236,1.431c1.105,3.358,5.8,5.792,11.163,5.792s10.068-2.434,11.171-5.792a4.673,4.673,0,0,0,.236-1.5C179.135,278.085,174.014,274.812,167.719,274.812Z" transform="translate(-138.247 -216.091)"/>
    <path id="Path_3637" data-name="Path 3637" class="cls-14" d="M181.015,290.055c.172.1.335.2.505.3a3.32,3.32,0,0,0-.333.368c-.033.04-.066.085-.1.132a1.962,1.962,0,0,0-.368,1.077h0a2.639,2.639,0,0,0,1.551,2.2c1.525.841,2.984.045,4.337-.708,1.034.616,2.073,1.242,3.112,1.865-.172.092-.342.187-.519.264a15.084,15.084,0,0,1-1.452.571c-.094.026-.212.085-.335.113v.038l.531.272.944.472a9.9,9.9,0,0,0,1.993-1.029c.224.13.453.269.685.406l.649-.446.427-.3h0l-.014-.014c-.2-.118-.394-.236-.586-.357-.071-.042-.144-.083-.215-.13a4.162,4.162,0,0,0,.472-.638,1.132,1.132,0,0,0,.132-.29c.434-1.181-.867-2.149-1.868-2.548a4.5,4.5,0,0,0-3.936.347c-.751-.446-1.495-.9-2.25-1.355-.158-.1-.321-.191-.472-.288.328-.146.663-.272.987-.394.1-.033.189-.073.281-.106a.529.529,0,0,0,.165-.092.236.236,0,0,0,.052-.04l-.052-.026-1.346-.72a12.117,12.117,0,0,0-1.381.612c-.3-.187-.6-.364-.907-.545l-.236.158-.841.557v.1c.066.033.158.052.217.085S180.953,290.022,181.015,290.055Zm4.333,2.642a3.826,3.826,0,0,1-.472.236,2.425,2.425,0,0,1-1.757.205,1.2,1.2,0,0,1-1.025-.968,1.27,1.27,0,0,1,.586-1.124c.9.538,1.8,1.084,2.7,1.624Zm5.681,1.48a.862.862,0,0,1-.111.17c-.047.054-.106.1-.151.158l-2.328-1.4c-.187-.111-.375-.222-.56-.335a2.76,2.76,0,0,1,1.653-.158C190.056,292.738,191.534,293.271,191.028,294.178Z" transform="translate(-157.184 -227.29)"/>
    <path id="Path_3638" data-name="Path 3638" class="cls-1" d="M179.818,293.133c-1.117,3.4-5.792,5.955-11.395,5.955s-10.269-2.557-11.388-5.955a4.958,4.958,0,0,1-.255-1.506V294.7c0,4.16,5.216,7.534,11.643,7.534s11.652-3.374,11.652-7.534V291.56a4.933,4.933,0,0,1-.257,1.573Z" transform="translate(-138.965 -229.246)"/>
    <path id="Path_3639" data-name="Path 3639" class="cls-2" d="M167.659,302.5c-6.55,0-11.879-3.487-11.879-7.77v-3.069h.472a4.722,4.722,0,0,0,.236,1.433c1.1,3.358,5.8,5.794,11.163,5.794s10.068-2.437,11.171-5.794h0a4.658,4.658,0,0,0,.236-1.5h.472v3.143C179.547,299.014,174.213,302.5,167.659,302.5Zm-11.407-8.736v.968c0,4.014,5.117,7.3,11.407,7.3s11.416-3.275,11.416-7.3v-.97c-1.454,3.27-6.127,5.591-11.416,5.591s-9.938-2.323-11.407-5.591Z" transform="translate(-138.201 -229.276)"/>
    <path id="Path_3640" data-name="Path 3640" class="cls-1" d="M168.423,274.735c5.6,0,10.278-2.557,11.395-5.955a4.932,4.932,0,0,0,.257-1.573c0-4.163-5.216-7.527-11.652-7.527s-11.643,3.365-11.643,7.527v.066a4.958,4.958,0,0,0,.255,1.506C158.154,272.177,162.829,274.735,168.423,274.735Z" transform="translate(-138.965 -204.893)"/>
    <path id="Path_3641" data-name="Path 3641" class="cls-6" d="M167.659,274.207c-5.56,0-10.443-2.574-11.61-6.118a5.2,5.2,0,0,1-.269-1.575v-.071c0-4.281,5.329-7.763,11.879-7.763s11.888,3.483,11.888,7.763a5.131,5.131,0,0,1-.272,1.653C178.114,271.633,173.226,274.207,167.659,274.207Zm0-15.055c-6.29,0-11.407,3.27-11.407,7.291v.066a4.722,4.722,0,0,0,.236,1.431c1.1,3.357,5.8,5.794,11.163,5.794s10.068-2.437,11.171-5.794a4.659,4.659,0,0,0,.236-1.5C179.075,262.422,173.954,259.152,167.659,259.152Z" transform="translate(-138.201 -204.129)"/>
    <path id="Path_3642" data-name="Path 3642" class="cls-15" d="M181,274.439c.172.1.335.205.505.3a3.538,3.538,0,0,0-.333.368c-.033.04-.066.085-.1.132a1.967,1.967,0,0,0-.368,1.077h0a2.639,2.639,0,0,0,1.551,2.2c1.525.841,2.984.045,4.34-.708,1.032.616,2.071,1.242,3.11,1.868-.17.09-.342.184-.519.262a15.108,15.108,0,0,1-1.452.574c-.092.026-.213.083-.335.111v.04l.531.269.944.472a9.963,9.963,0,0,0,2-1.013l.685.408.649-.449.427-.3h0l-.014-.012c-.2-.12-.394-.236-.586-.357-.071-.045-.144-.085-.215-.132a4.05,4.05,0,0,0,.472-.638,1.046,1.046,0,0,0,.132-.288c.434-1.181-.867-2.151-1.868-2.55a4.5,4.5,0,0,0-3.936.347c-.751-.446-1.492-.9-2.25-1.355-.158-.1-.321-.189-.472-.288.328-.144.663-.269.987-.394.1-.033.189-.073.281-.1a.585.585,0,0,0,.165-.094.237.237,0,0,0,.052-.038l-.052-.028-1.334-.723a12.554,12.554,0,0,0-1.381.612l-.907-.545-.236.158-.841.56v.066c.066.031.158.052.217.083A1.733,1.733,0,0,1,181,274.439Zm4.333,2.644a5.073,5.073,0,0,1-.472.236,2.423,2.423,0,0,1-1.757.2,1.2,1.2,0,0,1-1.025-.966,1.273,1.273,0,0,1,.586-1.126c.9.541,1.8,1.086,2.7,1.624Zm5.681,1.48a.837.837,0,0,1-.111.172c-.047.052-.106.1-.151.156l-2.328-1.4c-.184-.111-.375-.222-.56-.335a2.761,2.761,0,0,1,1.653-.156c.524.12,2,.654,1.5,1.561Z" transform="translate(-157.184 -215.373)"/>
    <path id="Path_3643" data-name="Path 3643" class="cls-1" d="M252.815,368.89c-1.114,3.4-5.792,5.955-11.392,5.955s-10.269-2.564-11.388-5.955a4.959,4.959,0,0,1-.255-1.506v3.069c0,4.163,5.213,7.534,11.643,7.534s11.65-3.372,11.65-7.534V367.31a4.856,4.856,0,0,1-.257,1.58Z" transform="translate(-194.729 -287.11)"/>
    <path id="Path_3644" data-name="Path 3644" class="cls-5" d="M240.659,378.261c-6.55,0-11.879-3.485-11.879-7.77v-3.069h.472a4.723,4.723,0,0,0,.236,1.433c1.1,3.358,5.8,5.794,11.163,5.794s10.065-2.437,11.168-5.792h0a4.722,4.722,0,0,0,.236-1.5h.472V370.5C252.545,374.776,247.213,378.261,240.659,378.261Zm-11.407-8.736v.968c0,4.014,5.117,7.3,11.407,7.3s11.414-3.275,11.414-7.3v-.97c-1.452,3.27-6.125,5.591-11.414,5.591s-9.952-2.321-11.407-5.591Z" transform="translate(-193.965 -287.148)"/>
    <path id="Path_3645" data-name="Path 3645" class="cls-1" d="M241.423,350.485c5.6,0,10.278-2.557,11.392-5.955a4.856,4.856,0,0,0,.257-1.573c0-4.163-5.213-7.527-11.65-7.527s-11.643,3.365-11.643,7.527v.066a4.959,4.959,0,0,0,.255,1.506C231.154,347.927,235.829,350.485,241.423,350.485Z" transform="translate(-194.729 -262.757)"/>
    <path id="Path_3646" data-name="Path 3646" class="cls-6" d="M240.659,349.957c-5.56,0-10.446-2.571-11.612-6.118a5.2,5.2,0,0,1-.267-1.575v-.071c0-4.281,5.329-7.763,11.879-7.763s11.886,3.483,11.886,7.763a5.129,5.129,0,0,1-.269,1.653C251.112,347.386,246.226,349.957,240.659,349.957Zm0-15.055c-6.29,0-11.407,3.27-11.407,7.291v.066a4.723,4.723,0,0,0,.236,1.431c1.105,3.358,5.8,5.794,11.163,5.794s10.065-2.437,11.168-5.792a4.684,4.684,0,0,0,.236-1.5C252.073,338.172,246.954,334.9,240.659,334.9Z" transform="translate(-193.965 -261.993)"/>
    <path id="Path_3647" data-name="Path 3647" class="cls-16" d="M253.993,350.161c.17.1.335.2.505.3a3.565,3.565,0,0,0-.335.366,1.508,1.508,0,0,0-.1.135,1.943,1.943,0,0,0-.368,1.077h0a2.63,2.63,0,0,0,1.551,2.2c1.525.841,2.984.045,4.337-.708,1.034.616,2.073,1.242,3.11,1.865-.17.092-.34.187-.517.264a15.111,15.111,0,0,1-1.454.571c-.092.026-.21.085-.335.111v.04l.534.269.944.472a9.706,9.706,0,0,0,2-1.025c.224.132.456.269.685.408l.652-.449.427-.3h0l-.014-.012c-.2-.118-.394-.236-.586-.357l-.217-.13a4.133,4.133,0,0,0,.472-.638,1.133,1.133,0,0,0,.132-.29c.434-1.181-.869-2.149-1.868-2.55a4.5,4.5,0,0,0-3.938.349c-.749-.449-1.492-.9-2.248-1.355-.158-.1-.323-.191-.472-.288.328-.146.663-.272.985-.394.1-.033.191-.073.283-.106a.557.557,0,0,0,.165-.092.3.3,0,0,0,.052-.04l-.052-.026-1.334-.723a12.536,12.536,0,0,0-1.381.609c-.3-.184-.6-.361-.907-.543l-.236.158-.843.557v.1c.066.033.158.052.217.085Zm4.333,2.642a3.826,3.826,0,0,1-.472.236,2.425,2.425,0,0,1-1.757.205,1.2,1.2,0,0,1-1.025-.968,1.266,1.266,0,0,1,.586-1.124c.9.538,1.8,1.084,2.7,1.624A.136.136,0,0,0,258.326,352.8Zm5.681,1.476a.788.788,0,0,1-.113.17c-.045.052-.1.1-.151.158l-2.326-1.4-.56-.335a2.758,2.758,0,0,1,1.665-.158C263.034,352.843,264.512,353.377,264.007,354.279Z" transform="translate(-212.94 -273.207)"/>
    <path id="Path_3648" data-name="Path 3648" class="cls-1" d="M328.385,412.713c-1.114,3.4-5.792,5.95-11.392,5.95s-10.269-2.557-11.388-5.955a4.957,4.957,0,0,1-.255-1.5v3.069c0,4.163,5.213,7.534,11.643,7.534s11.65-3.362,11.65-7.525V411.14A4.858,4.858,0,0,1,328.385,412.713Z" transform="translate(-252.456 -320.591)"/>
    <path id="Path_3649" data-name="Path 3649" class="cls-17" d="M316.229,422.045c-6.55,0-11.879-3.485-11.879-7.77v-3.069h.472a4.722,4.722,0,0,0,.236,1.433c1.112,3.35,5.82,5.78,11.171,5.78s10.066-2.434,11.168-5.792h0a4.657,4.657,0,0,0,.236-1.5h.472v3.143C328.115,418.56,322.783,422.045,316.229,422.045Zm-11.407-8.736v.968c0,4.026,5.117,7.3,11.407,7.3s11.414-3.275,11.414-7.3v-.97c-1.452,3.27-6.125,5.586-11.414,5.586s-9.952-2.314-11.407-5.584Z" transform="translate(-251.692 -320.583)"/>
    <path id="Path_3650" data-name="Path 3650" class="cls-1" d="M316.993,394.295c5.6,0,10.278-2.557,11.392-5.955a4.858,4.858,0,0,0,.257-1.573c0-4.16-5.213-7.527-11.65-7.527s-11.643,3.367-11.643,7.527v.068a4.958,4.958,0,0,0,.255,1.5C306.724,391.742,311.406,394.295,316.993,394.295Z" transform="translate(-252.456 -296.223)"/>
    <path id="Path_3651" data-name="Path 3651" class="cls-18" d="M316.229,393.767c-5.56,0-10.446-2.571-11.612-6.115a5.194,5.194,0,0,1-.267-1.577V386c0-4.281,5.329-7.763,11.879-7.763s11.886,3.485,11.886,7.768a5.119,5.119,0,0,1-.269,1.653C326.682,391.2,321.8,393.767,316.229,393.767Zm0-15.055c-6.29,0-11.407,3.27-11.407,7.291v.068a4.723,4.723,0,0,0,.236,1.428c1.112,3.365,5.82,5.794,11.171,5.794s10.066-2.434,11.168-5.792a4.621,4.621,0,0,0,.236-1.5c.009-4.016-5.109-7.286-11.4-7.286Z" transform="translate(-251.692 -295.459)"/>
    <path id="Path_3652" data-name="Path 3652" class="cls-19" d="M329.594,393.945c.17.1.335.2.505.3a3.592,3.592,0,0,0-.335.368c-.033.04-.064.085-.1.132a1.962,1.962,0,0,0-.368,1.077h0a2.639,2.639,0,0,0,1.551,2.2c1.525.841,2.984.045,4.337-.708,1.034.616,2.073,1.242,3.112,1.865-.172.092-.342.187-.519.264a15.094,15.094,0,0,1-1.454.571c-.092.026-.21.085-.333.111v.04l.531.269.944.472a9.9,9.9,0,0,0,1.993-1.029c.222.13.453.267.682.406l.652-.446.427-.3h0l0-.019c-.2-.118-.394-.236-.586-.357-.071-.043-.144-.083-.215-.13a4.16,4.16,0,0,0,.472-.638,1.134,1.134,0,0,0,.132-.29c.434-1.181-.869-2.149-1.868-2.55a4.51,4.51,0,0,0-3.938.349c-.748-.449-1.492-.9-2.248-1.355-.158-.1-.323-.191-.472-.288.328-.146.663-.271.987-.394.1-.033.189-.073.281-.106a.559.559,0,0,0,.165-.092.236.236,0,0,0,.052-.04l-.052-.026-1.334-.723a12.527,12.527,0,0,0-1.381.609c-.3-.184-.6-.361-.907-.543l-.236.158-.841.557v.1c.066.033.156.052.217.085Zm4.333,2.642a3.818,3.818,0,0,1-.472.236,2.425,2.425,0,0,1-1.757.205,1.2,1.2,0,0,1-1.025-.968,1.27,1.27,0,0,1,.586-1.124c.9.538,1.8,1.084,2.7,1.624A.208.208,0,0,0,333.926,396.587Zm5.681,1.48a.86.86,0,0,1-.111.17c-.047.052-.106.1-.153.158l-2.326-1.4c-.187-.111-.375-.222-.56-.335a2.758,2.758,0,0,1,1.665-.158C338.634,396.627,340.112,397.158,339.607,398.067Z" transform="translate(-270.698 -306.642)"/>
    <path id="Path_3653" data-name="Path 3653" class="cls-1" d="M252.815,352.693c-1.114,3.4-5.792,5.955-11.392,5.955s-10.269-2.557-11.388-5.955a4.959,4.959,0,0,1-.255-1.506v3.07c0,4.16,5.213,7.534,11.643,7.534s11.65-3.374,11.65-7.534V351.12A4.869,4.869,0,0,1,252.815,352.693Z" transform="translate(-194.729 -274.743)"/>
    <path id="Path_3654" data-name="Path 3654" class="cls-5" d="M240.659,362.071c-6.55,0-11.879-3.487-11.879-7.771v-3.069h.472a4.722,4.722,0,0,0,.236,1.436c1.1,3.358,5.8,5.794,11.163,5.794s10.065-2.437,11.168-5.794h0a4.723,4.723,0,0,0,.236-1.5h.472v3.143C252.545,358.584,247.213,362.071,240.659,362.071Zm-11.407-8.736v.968c0,4.014,5.117,7.3,11.407,7.3s11.414-3.275,11.414-7.3v-.97c-1.452,3.268-6.125,5.589-11.414,5.589s-9.952-2.321-11.407-5.589Z" transform="translate(-193.965 -274.781)"/>
    <path id="Path_3655" data-name="Path 3655" class="cls-1" d="M241.423,334.295c5.6,0,10.278-2.557,11.392-5.955a4.869,4.869,0,0,0,.257-1.573c0-4.163-5.213-7.527-11.65-7.527s-11.643,3.365-11.643,7.527v.066a4.959,4.959,0,0,0,.255,1.506C231.154,331.737,235.829,334.295,241.423,334.295Z" transform="translate(-194.729 -250.39)"/>
    <path id="Path_3656" data-name="Path 3656" class="cls-6" d="M240.659,333.767c-5.56,0-10.446-2.574-11.612-6.118a5.194,5.194,0,0,1-.267-1.575V326c0-4.281,5.329-7.763,11.879-7.763s11.886,3.483,11.886,7.763a5.141,5.141,0,0,1-.269,1.653C251.112,331.193,246.226,333.767,240.659,333.767Zm0-15.055c-6.29,0-11.407,3.27-11.407,7.291v.066a4.722,4.722,0,0,0,.236,1.431c1.105,3.358,5.8,5.794,11.163,5.794s10.065-2.437,11.168-5.794a4.659,4.659,0,0,0,.236-1.5C252.073,321.982,246.954,318.712,240.659,318.712Z" transform="translate(-193.965 -249.626)"/>
    <path id="Path_3657" data-name="Path 3657" class="cls-20" d="M253.978,333.976c.17.1.335.205.505.3a3.859,3.859,0,0,0-.335.368,1.477,1.477,0,0,0-.1.132,1.948,1.948,0,0,0-.368,1.077h0a2.63,2.63,0,0,0,1.551,2.2c1.525.841,2.984.045,4.337-.708,1.034.616,2.073,1.242,3.11,1.868-.17.09-.34.184-.517.262a15.156,15.156,0,0,1-1.454.574c-.092.024-.21.083-.335.111v.04l.534.269.944.472a9.815,9.815,0,0,0,1.99-1.029c.224.132.456.269.685.408l.652-.449.427-.3h-.014c-.2-.12-.394-.236-.586-.357-.071-.045-.144-.085-.217-.132a3.921,3.921,0,0,0,.472-.638,1.1,1.1,0,0,0,.132-.29c.434-1.181-.869-2.149-1.868-2.548a4.5,4.5,0,0,0-3.938.347c-.749-.446-1.492-.9-2.248-1.355-.158-.1-.323-.189-.472-.288.328-.144.663-.269.985-.394.1-.033.191-.073.283-.106a.557.557,0,0,0,.165-.092.3.3,0,0,0,.052-.038l-.052-.028-1.334-.723a12.55,12.55,0,0,0-1.381.612l-.907-.545-.236.158-.843.56v.1c.066.033.158.054.217.085S253.931,333.945,253.978,333.976Zm4.333,2.642a3.516,3.516,0,0,1-.472.236,2.425,2.425,0,0,1-1.757.2,1.2,1.2,0,0,1-1.025-.966,1.268,1.268,0,0,1,.586-1.126c.9.541,1.8,1.086,2.7,1.624Zm5.681,1.48a.857.857,0,0,1-.113.172c-.045.052-.1.1-.151.156l-2.326-1.4c-.187-.111-.375-.222-.56-.335a2.758,2.758,0,0,1,1.665-.156C263.019,336.658,264.5,337.2,263.991,338.1Z" transform="translate(-212.925 -260.847)"/>
    <path id="Path_3658" data-name="Path 3658" class="cls-1" d="M179.878,278.785c-1.117,3.4-5.792,5.955-11.395,5.955s-10.269-2.557-11.388-5.955a4.94,4.94,0,0,1-.255-1.5v3.069c0,4.163,5.213,7.534,11.643,7.534s11.652-3.372,11.652-7.534v-3.14a4.907,4.907,0,0,1-.257,1.575Z" transform="translate(-139.011 -218.284)"/>
    <path id="Path_3659" data-name="Path 3659" class="cls-12" d="M167.719,288.179c-6.55,0-11.879-3.485-11.879-7.77v-3.069h.472a4.743,4.743,0,0,0,.236,1.436c1.105,3.358,5.8,5.792,11.163,5.792s10.068-2.434,11.171-5.792h0a4.635,4.635,0,0,0,.236-1.495h.472v3.14C179.607,284.694,174.273,288.179,167.719,288.179Zm-11.407-8.736v.966c0,4.026,5.117,7.3,11.407,7.3s11.416-3.273,11.416-7.3v-.97c-1.454,3.27-6.127,5.591-11.416,5.591S157.767,282.711,156.312,279.443Z" transform="translate(-138.247 -218.337)"/>
    <path id="Path_3660" data-name="Path 3660" class="cls-1" d="M168.483,260.395c5.6,0,10.278-2.557,11.395-5.955a4.906,4.906,0,0,0,.257-1.57c0-4.163-5.216-7.53-11.652-7.53s-11.643,3.367-11.643,7.53v.066a4.94,4.94,0,0,0,.255,1.5C158.214,257.837,162.889,260.395,168.483,260.395Z" transform="translate(-139.011 -193.939)"/>
    <path id="Path_3661" data-name="Path 3661" class="cls-6" d="M167.719,259.867c-5.56,0-10.443-2.571-11.612-6.115a5.287,5.287,0,0,1-.267-1.577v-.068c0-4.283,5.329-7.766,11.879-7.766s11.888,3.483,11.888,7.766a5.143,5.143,0,0,1-.272,1.653C178.172,257.3,173.286,259.867,167.719,259.867Zm0-15.055c-6.29,0-11.407,3.273-11.407,7.294v.066a4.739,4.739,0,0,0,.236,1.431c1.105,3.358,5.8,5.792,11.163,5.792s10.068-2.434,11.171-5.792a4.658,4.658,0,0,0,.236-1.5C179.135,248.085,174.014,244.812,167.719,244.812Z" transform="translate(-138.247 -193.175)"/>
    <path id="Path_3662" data-name="Path 3662" class="cls-21" d="M181.015,260.055c.172.1.335.205.505.3a3.323,3.323,0,0,0-.333.368c-.033.04-.066.085-.1.132a1.962,1.962,0,0,0-.368,1.077h0a2.636,2.636,0,0,0,1.551,2.194c1.525.843,2.984.045,4.337-.708,1.034.616,2.073,1.242,3.112,1.865-.172.092-.342.187-.519.264a15.092,15.092,0,0,1-1.452.571c-.094.026-.212.085-.335.113v.038l.531.272.944.472a9.9,9.9,0,0,0,1.993-1.029c.224.13.453.269.685.406l.649-.446.427-.3h0l-.014-.012-.578-.361c-.071-.045-.144-.085-.215-.132a4.051,4.051,0,0,0,.472-.638,1.132,1.132,0,0,0,.132-.29c.434-1.181-.867-2.149-1.868-2.548a4.5,4.5,0,0,0-3.936.347c-.751-.446-1.495-.9-2.25-1.355-.158-.1-.321-.191-.472-.288.328-.146.663-.272.987-.394.1-.033.189-.073.281-.106a.529.529,0,0,0,.165-.092.236.236,0,0,0,.052-.04l-.052-.026L183.995,259a12.122,12.122,0,0,0-1.381.612c-.3-.184-.6-.361-.907-.545l-.236.158-.841.557v.1c.066.033.158.052.217.085S180.953,260.022,181.015,260.055Zm4.333,2.642a3.831,3.831,0,0,1-.472.236,2.413,2.413,0,0,1-1.757.205,1.2,1.2,0,0,1-1.025-.966,1.273,1.273,0,0,1,.586-1.126c.9.538,1.8,1.086,2.7,1.624Zm5.681,1.48a.864.864,0,0,1-.111.17c-.047.054-.106.106-.151.158l-2.328-1.4c-.187-.111-.375-.222-.56-.335a2.741,2.741,0,0,1,1.653-.156C190.056,262.738,191.534,263.271,191.028,264.178Z" transform="translate(-157.184 -204.373)"/>
    <path id="Path_3663" data-name="Path 3663" class="cls-1" d="M106.045,221.653c-1.117,3.4-5.792,5.964-11.395,5.964s-10.269-2.557-11.385-5.955A4.958,4.958,0,0,1,83,220.146v3.069c0,4.16,5.216,7.534,11.643,7.534s11.652-3.374,11.652-7.534V220.08A4.932,4.932,0,0,1,106.045,221.653Z" transform="translate(-82.606 -174.643)"/>
    <path id="Path_3664" data-name="Path 3664" class="cls-22" d="M93.886,231.031c-6.55,0-11.886-3.485-11.886-7.77v-3.069h.472a4.722,4.722,0,0,0,.236,1.433c1.122,3.348,5.815,5.794,11.178,5.794s10.068-2.437,11.171-5.792h0a4.659,4.659,0,0,0,.236-1.5h.472v3.143C105.774,227.546,100.44,231.031,93.886,231.031Zm-11.414-8.739v.968c0,4.014,5.119,7.3,11.407,7.3s11.416-3.275,11.416-7.3v-.97c-1.447,3.27-6.12,5.6-11.409,5.6S83.936,225.561,82.472,222.293Z" transform="translate(-81.842 -174.681)"/>
    <path id="Path_3665" data-name="Path 3665" class="cls-1" d="M94.65,203.295c5.6,0,10.278-2.557,11.395-5.955a4.933,4.933,0,0,0,.257-1.573c0-4.163-5.216-7.527-11.652-7.527S83,191.6,83,195.758v.066a4.958,4.958,0,0,0,.257,1.506C84.381,200.728,89.056,203.295,94.65,203.295Z" transform="translate(-82.606 -150.321)"/>
    <path id="Path_3666" data-name="Path 3666" class="cls-23" d="M93.886,202.736c-5.56,0-10.443-2.574-11.61-6.118A5.194,5.194,0,0,1,82,195.034v-.071c0-4.269,5.336-7.763,11.886-7.763s11.888,3.483,11.888,7.763a5.131,5.131,0,0,1-.272,1.653C104.341,200.153,99.453,202.736,93.886,202.736Zm0-15.055c-6.288-.009-11.414,3.261-11.414,7.282v.066a4.722,4.722,0,0,0,.236,1.431c1.122,3.358,5.815,5.8,11.178,5.8s10.068-2.437,11.171-5.792a4.685,4.685,0,0,0,.236-1.5c.009-4.03-5.112-7.3-11.407-7.3Z" transform="translate(-81.842 -149.526)"/>
    <path id="Path_3667" data-name="Path 3667" class="cls-24" d="M107.245,202.915c.17.1.333.2.5.3a3.306,3.306,0,0,0-.333.366c-.033.04-.066.087-.1.132a1.969,1.969,0,0,0-.368,1.079h0a2.639,2.639,0,0,0,1.551,2.2c1.525.841,2.984.045,4.34-.708l3.11,1.868c-.17.092-.342.187-.519.264a13.941,13.941,0,0,1-1.452.571c-.092.026-.21.085-.335.111v.04l.531.269.944.472a9.843,9.843,0,0,0,1.993-1.032l.685.408.649-.449.427-.3h0l-.012-.012c-.2-.118-.394-.236-.588-.357l-.215-.13a4.118,4.118,0,0,0,.472-.637,1.058,1.058,0,0,0,.132-.29c.434-1.181-.867-2.149-1.865-2.55a4.5,4.5,0,0,0-3.938.347c-.751-.446-1.492-.9-2.25-1.353-.156-.1-.321-.191-.472-.288.328-.146.663-.272.987-.394.1-.035.189-.076.281-.106a.529.529,0,0,0,.165-.092.331.331,0,0,0,.052-.04l-.052-.026-1.334-.723a12.732,12.732,0,0,0-1.381.609c-.3-.184-.6-.361-.907-.543l-.236.158-.841.557v.1c.066.031.158.052.217.085Zm4.33,2.64a4.331,4.331,0,0,1-.472.236,2.432,2.432,0,0,1-1.754.205,1.207,1.207,0,0,1-1.027-.968,1.275,1.275,0,0,1,.586-1.126c.9.541,1.8,1.086,2.7,1.624Zm5.681,1.483a.692.692,0,0,1-.111.17c-.047.052-.106.1-.151.158l-2.328-1.4c-.184-.113-.373-.224-.56-.335a2.741,2.741,0,0,1,1.653-.158c.524.125,2,.656,1.5,1.565Z" transform="translate(-100.84 -160.725)"/>
    <path id="Path_3668" data-name="Path 3668" class="cls-1" d="M106.045,206.647c-1.117,3.4-5.792,5.962-11.395,5.962s-10.269-2.557-11.385-5.955A4.958,4.958,0,0,1,83,205.141v3.069c0,4.163,5.216,7.534,11.643,7.534s11.652-3.372,11.652-7.534v-3.14A4.932,4.932,0,0,1,106.045,206.647Z" transform="translate(-82.606 -163.177)"/>
    <path id="Path_3669" data-name="Path 3669" class="cls-25" d="M93.886,216.031c-6.55,0-11.886-3.485-11.886-7.768v-3.069h.472a4.722,4.722,0,0,0,.236,1.436c1.122,3.346,5.815,5.789,11.178,5.789s10.068-2.437,11.171-5.794h0a4.644,4.644,0,0,0,.236-1.495h.472v3.133C105.774,212.546,100.44,216.031,93.886,216.031Zm-11.414-8.739v.97c0,4.014,5.119,7.3,11.407,7.3s11.416-3.273,11.416-7.3v-.973c-1.447,3.27-6.12,5.6-11.409,5.6S83.936,210.563,82.472,207.293Z" transform="translate(-81.842 -163.223)"/>
    <path id="Path_3670" data-name="Path 3670" class="cls-1" d="M94.65,188.287c5.6,0,10.278-2.557,11.395-5.955a4.933,4.933,0,0,0,.257-1.573c0-4.163-5.216-7.53-11.652-7.53S83,176.59,83,180.753v.066a4.958,4.958,0,0,0,.257,1.506C84.381,185.723,89.056,188.287,94.65,188.287Z" transform="translate(-82.606 -138.855)"/>
    <path id="Path_3671" data-name="Path 3671" class="cls-23" d="M93.886,187.736c-5.56,0-10.443-2.574-11.61-6.118A5.194,5.194,0,0,1,82,180.034v-.068c0-4.271,5.336-7.766,11.886-7.766s11.888,3.483,11.888,7.766a5.143,5.143,0,0,1-.272,1.653C104.341,185.156,99.453,187.736,93.886,187.736Zm0-15.057c-6.288-.007-11.414,3.265-11.414,7.286v.066a4.722,4.722,0,0,0,.236,1.431c1.122,3.358,5.815,5.8,11.178,5.8s10.068-2.437,11.171-5.794a4.671,4.671,0,0,0,.236-1.5c.009-4.028-5.112-7.3-11.407-7.3Z" transform="translate(-81.842 -138.068)"/>
    <path id="Path_3672" data-name="Path 3672" class="cls-26" d="M107.268,187.885c.17.1.333.205.5.3a3.322,3.322,0,0,0-.333.368c-.033.04-.066.085-.1.132a1.967,1.967,0,0,0-.368,1.077h0a2.639,2.639,0,0,0,1.551,2.2c1.525.841,2.984.042,4.34-.708,1.032.616,2.071,1.242,3.11,1.865-.17.092-.342.187-.519.264a14.5,14.5,0,0,1-1.445.564c-.092.026-.21.085-.335.113v.04l.531.269.944.472a9.834,9.834,0,0,0,1.993-1.029c.224.13.453.269.685.406l.649-.446.427-.3h0l-.012-.012-.588-.357c-.071-.045-.144-.085-.215-.132a3.905,3.905,0,0,0,.472-.638,1.057,1.057,0,0,0,.132-.29c.434-1.181-.867-2.149-1.865-2.548a4.5,4.5,0,0,0-3.938.347c-.751-.446-1.492-.9-2.25-1.355-.156-.1-.321-.191-.472-.288.328-.146.663-.269.987-.394.1-.033.189-.073.281-.106a.529.529,0,0,0,.165-.092.237.237,0,0,0,.052-.04l-.052-.026-1.334-.723a12.758,12.758,0,0,0-1.381.612l-.907-.545-.236.158-.841.557v.1c.066.033.158.054.217.085S107.214,187.852,107.268,187.885Zm4.33,2.642a3.515,3.515,0,0,1-.472.236,2.418,2.418,0,0,1-1.754.2,1.2,1.2,0,0,1-1.027-.966,1.273,1.273,0,0,1,.586-1.126c.9.538,1.8,1.086,2.7,1.624Zm5.681,1.48a.746.746,0,0,1-.111.172c-.047.052-.106.1-.151.156l-2.328-1.4-.56-.335a2.741,2.741,0,0,1,1.653-.156C116.307,190.567,117.785,191.113,117.28,192.007Z" transform="translate(-100.863 -149.236)"/>
    <g id="_Group_" data-name="&lt;Group&gt;" transform="translate(15.827 10.688)">
      <path id="Path_3673" data-name="Path 3673" class="cls-1" d="M139.763,112.159,68.03,70.745V63.9l71.733,41.417Z" transform="translate(-67.794 -63.492)"/>
      <path id="Path_3674" data-name="Path 3674" class="cls-6" d="M220.563,152.074l-72.2-47.983V89.85l.354.229,71.849,46.254Zm-71.731-48.286,66.929,44.5,4.33,2.879V136.639L148.832,90.764Z" transform="translate(-148.36 -89.85)"/>
    </g>
    <path id="_Path_" data-name="&lt;Path&gt;" class="cls-6" d="M215.357,157.174,169.51,127.607v11.3l45.847,30.5Z" transform="translate(-128.723 -99.195)"/>
    <path id="Path_3706" data-name="Path 3706" class="cls-27" d="M0,0H1.511V21.614H0Z" transform="translate(39.41 22.845)"/>
    <path id="_Path_2" data-name="&lt;Path&gt;" class="cls-28" d="M202.9,43.8l-6.274-10.874A1.04,1.04,0,0,1,197,31.487l6.333-3.657.551.862-6.3,3.9,6.1,10.6Z" transform="translate(-161.288 -25.68)"/>
    <path id="_Path_3" data-name="&lt;Path&gt;" class="cls-29" d="M293.713,79.951l5.6-3.3-5.6-9.9.7-.533,5.754,9.966a.957.957,0,0,1-.347,1.31l-5.706,3.293Z" transform="translate(-224.113 -50.539)"/>
    <path id="Path_3675" data-name="Path 3675" class="cls-30" d="M245.8,40.388c.5.463,1,.943,1.485,1.435a12.567,12.567,0,0,1,1.325,1.566,8.067,8.067,0,0,1,.94,1.77,5.68,5.68,0,0,1,.361,2.055,4.884,4.884,0,0,1-.317,1.846,2.387,2.387,0,0,1-.923,1.164,2.428,2.428,0,0,1-1.485.326,5.284,5.284,0,0,1-2-.617l-.125,1.921a.4.4,0,0,1-.166.335.367.367,0,0,1-.4-.038l-.751-.434.166-2.556a13.227,13.227,0,0,1-2.288-2.07,14.723,14.723,0,0,1-1.8-2.5l.614-.719a.378.378,0,0,1,.227-.108.486.486,0,0,1,.291.079,1.641,1.641,0,0,1,.463.483c.172.242.373.524.608.847s.518.67.841,1.033a7.16,7.16,0,0,0,1.164,1.048l.384-5.86q-.728-.672-1.438-1.4a10.77,10.77,0,0,1-1.269-1.569,8.238,8.238,0,0,1-.908-1.819,6.484,6.484,0,0,1-.344-2.148,3.709,3.709,0,0,1,.291-1.546,2.082,2.082,0,0,1,.873-.984,2.466,2.466,0,0,1,1.426-.253,5.24,5.24,0,0,1,1.945.655l.1-1.613a.4.4,0,0,1,.169-.335.373.373,0,0,1,.4.038l.748.434-.146,2.271a10.61,10.61,0,0,1,1.889,1.747,14.146,14.146,0,0,1,1.4,2l-.489.582a.358.358,0,0,1-.509.1,1.43,1.43,0,0,1-.358-.349c-.143-.178-.314-.387-.512-.623s-.425-.495-.681-.771a7.054,7.054,0,0,0-.873-.786Zm-.914-6.113a3.578,3.578,0,0,0-1.132-.352,1.389,1.389,0,0,0-.78.111.955.955,0,0,0-.451.5,2.063,2.063,0,0,0-.146.812,3.3,3.3,0,0,0,.166,1.042,4.531,4.531,0,0,0,.463.978,7.217,7.217,0,0,0,.7.934c.265.306.553.611.873.914ZM245.3,48a2.147,2.147,0,0,0,1.988.175,1.835,1.835,0,0,0,.687-1.7,3.155,3.155,0,0,0-.183-1.074,4.8,4.8,0,0,0-.492-1,7.017,7.017,0,0,0-.731-.946q-.419-.46-.9-.917Z" transform="translate(-188.608 -26.238)"/>
  </g>
</svg>
