<svg xmlns="http://www.w3.org/2000/svg" viewBox="10387.393 4975.37 124.074 123.827">
  <defs>
    <style>
      .cls-1 {
        fill: #c5d9f1;
      }

      .cls-2 {
        fill: #377bd0;
      }

      .cls-3, .cls-4 {
        fill: none;
        stroke: #377bd0;
      }

      .cls-3 {
        stroke-miterlimit: 10;
      }
    </style>
  </defs>
  <g id="team_icon" data-name="team icon" transform="translate(10387.396 5023.704) rotate(-33)">
    <path id="Path_3990" data-name="Path 3990" class="cls-1" d="M212.49,438.135a35.781,35.781,0,0,0,32.254,32.273v-7.344a28.27,28.27,0,0,1-9.506-2.879l7.819-2.095,3.351-12.471-9.141-9.129L224.8,439.831l-2.093,7.817a28.244,28.244,0,0,1-2.874-9.514Z" transform="translate(-203.629 -387.204)"/>
    <path id="Path_3991" data-name="Path 3991" class="cls-2" d="M189.705,553.224a9.763,9.763,0,1,0,0,13.808A9.763,9.763,0,0,0,189.705,553.224Z" transform="translate(-171.802 -479.073)"/>
    <path id="Path_3992" data-name="Path 3992" class="cls-2" d="M528.781,567.032a9.763,9.763,0,1,0,0-13.808A9.763,9.763,0,0,0,528.781,567.032Z" transform="translate(-456.488 -479.073)"/>
    <path id="Path_3993" data-name="Path 3993" class="cls-1" d="M415.383,458.058l7,1.882a28.277,28.277,0,0,1-9.929,3.092v7.344A35.783,35.783,0,0,0,444.71,438.1h-7.344a28.309,28.309,0,0,1-2.083,7.817l-1.641-6.128-12.473-3.341-9.129,9.129Z" transform="translate(-364.615 -387.172)"/>
    <path id="Path_3994" data-name="Path 3994" class="cls-1" d="M412.462,243.35v7.344a28.339,28.339,0,0,1,8.289,2.29l-5.359,1.436L412.05,266.89l9.129,9.131,12.471-3.343,1.436-5.357a28.28,28.28,0,0,1,2.29,8.289h7.344a35.779,35.779,0,0,0-32.258-32.26Z" transform="translate(-364.623 -231.389)"/>
    <path id="Path_3995" data-name="Path 3995" class="cls-1" d="M528.777,214.13a9.765,9.765,0,1,0,0-13.81,9.765,9.765,0,0,0,0,13.81Z" transform="translate(-456.484 -194.368)"/>
    <path id="Path_3996" data-name="Path 3996" class="cls-1" d="M213.43,259.588a28.3,28.3,0,0,1,3.092-9.929l1.876,7L230.869,260,240,250.87,236.657,238.4l-6.128-1.641a28.244,28.244,0,0,1,7.817-2.085V227.33a35.781,35.781,0,0,0-32.256,32.254Z" transform="translate(-198.465 -218.465)"/>
    <path id="Path_3997" data-name="Path 3997" class="cls-1" d="M169.477,198.13a9.765,9.765,0,1,0,0-13.81,9.765,9.765,0,0,0,0,13.81Z" transform="translate(-166.62 -181.46)"/>
    <path id="Path_3998" data-name="Path 3998" class="cls-3" d="M219.87,275.588a28.346,28.346,0,0,1,3.092-9.929l1.876,7L237.309,276l9.139-9.129L243.107,254.4l-6.128-1.641a28.317,28.317,0,0,1,7.815-2.085V243.33a35.779,35.779,0,0,0-32.254,32.254Z" transform="translate(-203.669 -231.373)"/>
    <path id="Path_3999" data-name="Path 3999" class="cls-3" d="M175.887,214.13a9.765,9.765,0,1,0,0-13.81A9.765,9.765,0,0,0,175.887,214.13Z" transform="translate(-171.791 -194.368)"/>
    <path id="Path_4000" data-name="Path 4000" class="cls-4" d="M0,1.645A35.781,35.781,0,0,0,32.254,33.918V26.574a28.27,28.27,0,0,1-9.506-2.879L30.567,21.6,33.918,9.129,24.777,0,12.306,3.341l-2.093,7.817A28.244,28.244,0,0,1,7.34,1.645Z" transform="translate(12.074 49.247)"/>
    <path id="Path_4001" data-name="Path 4001" class="cls-4" d="M3.343,21.608l7,1.882A28.278,28.278,0,0,1,.414,26.582v7.344A35.783,35.783,0,0,0,32.67,1.652H25.326a28.308,28.308,0,0,1-2.083,7.817L21.6,3.341,9.129,0,0,9.129Z" transform="translate(50.638 49.239)"/>
    <path id="Path_4002" data-name="Path 4002" class="cls-4" d="M.412,0V7.344A28.339,28.339,0,0,1,8.7,9.634L3.341,11.07,0,23.54l9.129,9.131L21.6,29.328l1.436-5.357a28.28,28.28,0,0,1,2.29,8.289H32.67A35.779,35.779,0,0,0,.412,0Z" transform="translate(50.64 11.922)"/>
    <path id="Path_4003" data-name="Path 4003" class="cls-4" d="M2.861,16.67a9.765,9.765,0,1,0,0-13.81,9.765,9.765,0,0,0,0,13.81Z" transform="translate(72.645 3.053)"/>
  </g>
</svg>
