<svg xmlns="http://www.w3.org/2000/svg" xmlns:xlink="http://www.w3.org/1999/xlink" viewBox="3172.792 5901.728 700.428 432.969">
  <defs>
    <style>
      .cls-1 {
        fill: rgba(255,255,255,0.07);
        stroke: rgba(255,255,255,0.61);
        stroke-width: 0.4px;
      }

      .cls-2 {
        fill: #89d313;
      }

      .cls-3 {
        filter: url(#Path_2735);
      }

      .cls-4 {
        filter: url(#Path_2734);
      }

      .cls-5 {
        filter: url(#Path_2733);
      }

      .cls-6 {
        filter: url(#Path_2732);
      }

      .cls-7 {
        filter: url(#Path_2731);
      }

      .cls-8 {
        filter: url(#Path_2730);
      }

      .cls-9 {
        filter: url(#Path_2729);
      }

      .cls-10 {
        filter: url(#Path_2728);
      }

      .cls-11 {
        filter: url(#Path_2727);
      }

      .cls-12 {
        filter: url(#Path_2726);
      }

      .cls-13 {
        filter: url(#Path_2725);
      }

      .cls-14 {
        filter: url(#Path_2724);
      }

      .cls-15 {
        filter: url(#Path_2723);
      }

      .cls-16 {
        filter: url(#Path_2722);
      }

      .cls-17 {
        filter: url(#Path_2721);
      }

      .cls-18 {
        filter: url(#Path_2720);
      }

      .cls-19 {
        filter: url(#Path_2719);
      }

      .cls-20 {
        filter: url(#Path_2718);
      }

      .cls-21 {
        filter: url(#Path_2717);
      }

      .cls-22 {
        filter: url(#Path_2716);
      }

      .cls-23 {
        filter: url(#Path_2715);
      }

      .cls-24 {
        filter: url(#Path_2714);
      }

      .cls-25 {
        filter: url(#Path_2713);
      }

      .cls-26 {
        filter: url(#Path_2712);
      }

      .cls-27 {
        filter: url(#Path_2711);
      }

      .cls-28 {
        filter: url(#Path_2710);
      }

      .cls-29 {
        filter: url(#Path_2709);
      }

      .cls-30 {
        filter: url(#Path_2708);
      }

      .cls-31 {
        filter: url(#Path_2707);
      }

      .cls-32 {
        filter: url(#Path_2706);
      }

      .cls-33 {
        filter: url(#Path_2705);
      }

      .cls-34 {
        filter: url(#Path_2704);
      }

      .cls-35 {
        filter: url(#Path_2703);
      }

      .cls-36 {
        filter: url(#Path_2702);
      }

      .cls-37 {
        filter: url(#Path_2701);
      }

      .cls-38 {
        filter: url(#Path_2700);
      }

      .cls-39 {
        filter: url(#Path_2699);
      }

      .cls-40 {
        filter: url(#Path_2698);
      }

      .cls-41 {
        filter: url(#Path_2697);
      }

      .cls-42 {
        filter: url(#Path_2696);
      }

      .cls-43 {
        filter: url(#Path_2695);
      }

      .cls-44 {
        filter: url(#Path_2694);
      }

      .cls-45 {
        filter: url(#Path_2693);
      }

      .cls-46 {
        filter: url(#Path_2692);
      }

      .cls-47 {
        filter: url(#Path_2691);
      }

      .cls-48 {
        filter: url(#Path_2690);
      }

      .cls-49 {
        filter: url(#Path_2689);
      }

      .cls-50 {
        filter: url(#Path_2688);
      }

      .cls-51 {
        filter: url(#Path_2687);
      }

      .cls-52 {
        filter: url(#Path_2686);
      }
    </style>
    <filter id="Path_2686" x="3831.875" y="5946.245" width="26.004" height="26.004" filterUnits="userSpaceOnUse">
      <feOffset dy="2" input="SourceAlpha"/>
      <feGaussianBlur stdDeviation="2.5" result="blur"/>
      <feFlood flood-opacity="0.161"/>
      <feComposite operator="in" in2="blur"/>
      <feComposite in="SourceGraphic"/>
    </filter>
    <filter id="Path_2687" x="3812.312" y="5985.373" width="26.004" height="26.004" filterUnits="userSpaceOnUse">
      <feOffset dy="2" input="SourceAlpha"/>
      <feGaussianBlur stdDeviation="2.5" result="blur-2"/>
      <feFlood flood-opacity="0.161"/>
      <feComposite operator="in" in2="blur-2"/>
      <feComposite in="SourceGraphic"/>
    </filter>
    <filter id="Path_2688" x="3826.985" y="6002.49" width="26.004" height="26.004" filterUnits="userSpaceOnUse">
      <feOffset dy="2" input="SourceAlpha"/>
      <feGaussianBlur stdDeviation="2.5" result="blur-3"/>
      <feFlood flood-opacity="0.161"/>
      <feComposite operator="in" in2="blur-3"/>
      <feComposite in="SourceGraphic"/>
    </filter>
    <filter id="Path_2689" x="3825.762" y="6020.83" width="26.004" height="26.004" filterUnits="userSpaceOnUse">
      <feOffset dy="2" input="SourceAlpha"/>
      <feGaussianBlur stdDeviation="2.5" result="blur-4"/>
      <feFlood flood-opacity="0.161"/>
      <feComposite operator="in" in2="blur-4"/>
      <feComposite in="SourceGraphic"/>
    </filter>
    <filter id="Path_2690" x="3804.976" y="6007.381" width="26.004" height="26.004" filterUnits="userSpaceOnUse">
      <feOffset dy="2" input="SourceAlpha"/>
      <feGaussianBlur stdDeviation="2.5" result="blur-5"/>
      <feFlood flood-opacity="0.161"/>
      <feComposite operator="in" in2="blur-5"/>
      <feComposite in="SourceGraphic"/>
    </filter>
    <filter id="Path_2691" x="3797.64" y="5978.036" width="26.004" height="26.004" filterUnits="userSpaceOnUse">
      <feOffset dy="2" input="SourceAlpha"/>
      <feGaussianBlur stdDeviation="2.5" result="blur-6"/>
      <feFlood flood-opacity="0.161"/>
      <feComposite operator="in" in2="blur-6"/>
      <feComposite in="SourceGraphic"/>
    </filter>
    <filter id="Path_2692" x="3804.976" y="6024.499" width="26.004" height="26.004" filterUnits="userSpaceOnUse">
      <feOffset dy="2" input="SourceAlpha"/>
      <feGaussianBlur stdDeviation="2.5" result="blur-7"/>
      <feFlood flood-opacity="0.161"/>
      <feComposite operator="in" in2="blur-7"/>
      <feComposite in="SourceGraphic"/>
    </filter>
    <filter id="Path_2693" x="3768.295" y="6003.712" width="26.004" height="26.004" filterUnits="userSpaceOnUse">
      <feOffset dy="2" input="SourceAlpha"/>
      <feGaussianBlur stdDeviation="2.5" result="blur-8"/>
      <feFlood flood-opacity="0.161"/>
      <feComposite operator="in" in2="blur-8"/>
      <feComposite in="SourceGraphic"/>
    </filter>
    <filter id="Path_2694" x="3745.063" y="6044.062" width="26.004" height="26.004" filterUnits="userSpaceOnUse">
      <feOffset dy="2" input="SourceAlpha"/>
      <feGaussianBlur stdDeviation="2.5" result="blur-9"/>
      <feFlood flood-opacity="0.161"/>
      <feComposite operator="in" in2="blur-9"/>
      <feComposite in="SourceGraphic"/>
    </filter>
    <filter id="Path_2695" x="3790.303" y="6051.398" width="26.004" height="26.004" filterUnits="userSpaceOnUse">
      <feOffset dy="2" input="SourceAlpha"/>
      <feGaussianBlur stdDeviation="2.5" result="blur-10"/>
      <feFlood flood-opacity="0.161"/>
      <feComposite operator="in" in2="blur-10"/>
      <feComposite in="SourceGraphic"/>
    </filter>
    <filter id="Path_2696" x="3778.076" y="6075.853" width="26.004" height="26.004" filterUnits="userSpaceOnUse">
      <feOffset dy="2" input="SourceAlpha"/>
      <feGaussianBlur stdDeviation="2.5" result="blur-11"/>
      <feFlood flood-opacity="0.161"/>
      <feComposite operator="in" in2="blur-11"/>
      <feComposite in="SourceGraphic"/>
    </filter>
    <filter id="Path_2697" x="3763.404" y="6069.739" width="26.004" height="26.004" filterUnits="userSpaceOnUse">
      <feOffset dy="2" input="SourceAlpha"/>
      <feGaussianBlur stdDeviation="2.5" result="blur-12"/>
      <feFlood flood-opacity="0.161"/>
      <feComposite operator="in" in2="blur-12"/>
      <feComposite in="SourceGraphic"/>
    </filter>
    <filter id="Path_2698" x="3718.164" y="6090.525" width="26.004" height="26.004" filterUnits="userSpaceOnUse">
      <feOffset dy="2" input="SourceAlpha"/>
      <feGaussianBlur stdDeviation="2.5" result="blur-13"/>
      <feFlood flood-opacity="0.161"/>
      <feComposite operator="in" in2="blur-13"/>
      <feComposite in="SourceGraphic"/>
    </filter>
    <filter id="Path_2699" x="3754.845" y="6102.752" width="26.004" height="26.004" filterUnits="userSpaceOnUse">
      <feOffset dy="2" input="SourceAlpha"/>
      <feGaussianBlur stdDeviation="2.5" result="blur-14"/>
      <feFlood flood-opacity="0.161"/>
      <feComposite operator="in" in2="blur-14"/>
      <feComposite in="SourceGraphic"/>
    </filter>
    <filter id="Path_2700" x="3742.618" y="6139.433" width="26.004" height="26.004" filterUnits="userSpaceOnUse">
      <feOffset dy="2" input="SourceAlpha"/>
      <feGaussianBlur stdDeviation="2.5" result="blur-15"/>
      <feFlood flood-opacity="0.161"/>
      <feComposite operator="in" in2="blur-15"/>
      <feComposite in="SourceGraphic"/>
    </filter>
    <filter id="Path_2701" x="3730.391" y="6171.224" width="26.004" height="26.004" filterUnits="userSpaceOnUse">
      <feOffset dy="2" input="SourceAlpha"/>
      <feGaussianBlur stdDeviation="2.5" result="blur-16"/>
      <feFlood flood-opacity="0.161"/>
      <feComposite operator="in" in2="blur-16"/>
      <feComposite in="SourceGraphic"/>
    </filter>
    <filter id="Path_2702" x="3694.932" y="6195.678" width="26.004" height="26.004" filterUnits="userSpaceOnUse">
      <feOffset dy="2" input="SourceAlpha"/>
      <feGaussianBlur stdDeviation="2.5" result="blur-17"/>
      <feFlood flood-opacity="0.161"/>
      <feComposite operator="in" in2="blur-17"/>
      <feComposite in="SourceGraphic"/>
    </filter>
    <filter id="Path_2703" x="3731.614" y="6269.04" width="26.004" height="26.004" filterUnits="userSpaceOnUse">
      <feOffset dy="2" input="SourceAlpha"/>
      <feGaussianBlur stdDeviation="2.5" result="blur-18"/>
      <feFlood flood-opacity="0.161"/>
      <feComposite operator="in" in2="blur-18"/>
      <feComposite in="SourceGraphic"/>
    </filter>
    <filter id="Path_2704" x="3646.024" y="6195.678" width="26.004" height="26.004" filterUnits="userSpaceOnUse">
      <feOffset dy="2" input="SourceAlpha"/>
      <feGaussianBlur stdDeviation="2.5" result="blur-19"/>
      <feFlood flood-opacity="0.161"/>
      <feComposite operator="in" in2="blur-19"/>
      <feComposite in="SourceGraphic"/>
    </filter>
    <filter id="Path_2705" x="3609.343" y="6207.905" width="26.004" height="26.004" filterUnits="userSpaceOnUse">
      <feOffset dy="2" input="SourceAlpha"/>
      <feGaussianBlur stdDeviation="2.5" result="blur-20"/>
      <feFlood flood-opacity="0.161"/>
      <feComposite operator="in" in2="blur-20"/>
      <feComposite in="SourceGraphic"/>
    </filter>
    <filter id="Path_2706" x="3579.998" y="6244.586" width="26.004" height="26.004" filterUnits="userSpaceOnUse">
      <feOffset dy="2" input="SourceAlpha"/>
      <feGaussianBlur stdDeviation="2.5" result="blur-21"/>
      <feFlood flood-opacity="0.161"/>
      <feComposite operator="in" in2="blur-21"/>
      <feComposite in="SourceGraphic"/>
    </filter>
    <filter id="Path_2707" x="3567.771" y="6171.224" width="26.004" height="26.004" filterUnits="userSpaceOnUse">
      <feOffset dy="2" input="SourceAlpha"/>
      <feGaussianBlur stdDeviation="2.5" result="blur-22"/>
      <feFlood flood-opacity="0.161"/>
      <feComposite operator="in" in2="blur-22"/>
      <feComposite in="SourceGraphic"/>
    </filter>
    <filter id="Path_2708" x="3561.657" y="6112.534" width="26.004" height="26.004" filterUnits="userSpaceOnUse">
      <feOffset dy="2" input="SourceAlpha"/>
      <feGaussianBlur stdDeviation="2.5" result="blur-23"/>
      <feFlood flood-opacity="0.161"/>
      <feComposite operator="in" in2="blur-23"/>
      <feComposite in="SourceGraphic"/>
    </filter>
    <filter id="Path_2709" x="3603.229" y="6078.298" width="26.004" height="26.004" filterUnits="userSpaceOnUse">
      <feOffset dy="2" input="SourceAlpha"/>
      <feGaussianBlur stdDeviation="2.5" result="blur-24"/>
      <feFlood flood-opacity="0.161"/>
      <feComposite operator="in" in2="blur-24"/>
      <feComposite in="SourceGraphic"/>
    </filter>
    <filter id="Path_2710" x="3642.356" y="6078.298" width="26.004" height="26.004" filterUnits="userSpaceOnUse">
      <feOffset dy="2" input="SourceAlpha"/>
      <feGaussianBlur stdDeviation="2.5" result="blur-25"/>
      <feFlood flood-opacity="0.161"/>
      <feComposite operator="in" in2="blur-25"/>
      <feComposite in="SourceGraphic"/>
    </filter>
    <filter id="Path_2711" x="3682.705" y="6066.071" width="26.004" height="26.004" filterUnits="userSpaceOnUse">
      <feOffset dy="2" input="SourceAlpha"/>
      <feGaussianBlur stdDeviation="2.5" result="blur-26"/>
      <feFlood flood-opacity="0.161"/>
      <feComposite operator="in" in2="blur-26"/>
      <feComposite in="SourceGraphic"/>
    </filter>
    <filter id="Path_2712" x="3663.142" y="6117.425" width="26.004" height="26.004" filterUnits="userSpaceOnUse">
      <feOffset dy="2" input="SourceAlpha"/>
      <feGaussianBlur stdDeviation="2.5" result="blur-27"/>
      <feFlood flood-opacity="0.161"/>
      <feComposite operator="in" in2="blur-27"/>
      <feComposite in="SourceGraphic"/>
    </filter>
    <filter id="Path_2713" x="3646.024" y="6147.992" width="26.004" height="26.004" filterUnits="userSpaceOnUse">
      <feOffset dy="2" input="SourceAlpha"/>
      <feGaussianBlur stdDeviation="2.5" result="blur-28"/>
      <feFlood flood-opacity="0.161"/>
      <feComposite operator="in" in2="blur-28"/>
      <feComposite in="SourceGraphic"/>
    </filter>
    <filter id="Path_2714" x="3652.138" y="6018.385" width="26.004" height="26.004" filterUnits="userSpaceOnUse">
      <feOffset dy="2" input="SourceAlpha"/>
      <feGaussianBlur stdDeviation="2.5" result="blur-29"/>
      <feFlood flood-opacity="0.161"/>
      <feComposite operator="in" in2="blur-29"/>
      <feComposite in="SourceGraphic"/>
    </filter>
    <filter id="Path_2715" x="3591.002" y="6002.49" width="26.004" height="26.004" filterUnits="userSpaceOnUse">
      <feOffset dy="2" input="SourceAlpha"/>
      <feGaussianBlur stdDeviation="2.5" result="blur-30"/>
      <feFlood flood-opacity="0.161"/>
      <feComposite operator="in" in2="blur-30"/>
      <feComposite in="SourceGraphic"/>
    </filter>
    <filter id="Path_2716" x="3619.125" y="5973.145" width="26.004" height="26.004" filterUnits="userSpaceOnUse">
      <feOffset dy="2" input="SourceAlpha"/>
      <feGaussianBlur stdDeviation="2.5" result="blur-31"/>
      <feFlood flood-opacity="0.161"/>
      <feComposite operator="in" in2="blur-31"/>
      <feComposite in="SourceGraphic"/>
    </filter>
    <filter id="Path_2717" x="3533.535" y="5976.813" width="26.004" height="26.004" filterUnits="userSpaceOnUse">
      <feOffset dy="2" input="SourceAlpha"/>
      <feGaussianBlur stdDeviation="2.5" result="blur-32"/>
      <feFlood flood-opacity="0.161"/>
      <feComposite operator="in" in2="blur-32"/>
      <feComposite in="SourceGraphic"/>
    </filter>
    <filter id="Path_2718" x="3545.762" y="6050.176" width="26.004" height="26.004" filterUnits="userSpaceOnUse">
      <feOffset dy="2" input="SourceAlpha"/>
      <feGaussianBlur stdDeviation="2.5" result="blur-33"/>
      <feFlood flood-opacity="0.161"/>
      <feComposite operator="in" in2="blur-33"/>
      <feComposite in="SourceGraphic"/>
    </filter>
    <filter id="Path_2719" x="3484.627" y="6108.866" width="26.004" height="26.004" filterUnits="userSpaceOnUse">
      <feOffset dy="2" input="SourceAlpha"/>
      <feGaussianBlur stdDeviation="2.5" result="blur-34"/>
      <feFlood flood-opacity="0.161"/>
      <feComposite operator="in" in2="blur-34"/>
      <feComposite in="SourceGraphic"/>
    </filter>
    <filter id="Path_2720" x="3462.618" y="6059.957" width="26.004" height="26.004" filterUnits="userSpaceOnUse">
      <feOffset dy="2" input="SourceAlpha"/>
      <feGaussianBlur stdDeviation="2.5" result="blur-35"/>
      <feFlood flood-opacity="0.161"/>
      <feComposite operator="in" in2="blur-35"/>
      <feComposite in="SourceGraphic"/>
    </filter>
    <filter id="Path_2721" x="3465.063" y="6006.158" width="26.004" height="26.004" filterUnits="userSpaceOnUse">
      <feOffset dy="2" input="SourceAlpha"/>
      <feGaussianBlur stdDeviation="2.5" result="blur-36"/>
      <feFlood flood-opacity="0.161"/>
      <feComposite operator="in" in2="blur-36"/>
      <feComposite in="SourceGraphic"/>
    </filter>
    <filter id="Path_2722" x="3465.063" y="5957.249" width="26.004" height="26.004" filterUnits="userSpaceOnUse">
      <feOffset dy="2" input="SourceAlpha"/>
      <feGaussianBlur stdDeviation="2.5" result="blur-37"/>
      <feFlood flood-opacity="0.161"/>
      <feComposite operator="in" in2="blur-37"/>
      <feComposite in="SourceGraphic"/>
    </filter>
    <filter id="Path_2723" x="3355.02" y="5957.249" width="26.004" height="26.004" filterUnits="userSpaceOnUse">
      <feOffset dy="2" input="SourceAlpha"/>
      <feGaussianBlur stdDeviation="2.5" result="blur-38"/>
      <feFlood flood-opacity="0.161"/>
      <feComposite operator="in" in2="blur-38"/>
      <feComposite in="SourceGraphic"/>
    </filter>
    <filter id="Path_2724" x="3374.583" y="6023.276" width="26.004" height="26.004" filterUnits="userSpaceOnUse">
      <feOffset dy="2" input="SourceAlpha"/>
      <feGaussianBlur stdDeviation="2.5" result="blur-39"/>
      <feFlood flood-opacity="0.161"/>
      <feComposite operator="in" in2="blur-39"/>
      <feComposite in="SourceGraphic"/>
    </filter>
    <filter id="Path_2725" x="3292.662" y="5998.822" width="26.004" height="26.004" filterUnits="userSpaceOnUse">
      <feOffset dy="2" input="SourceAlpha"/>
      <feGaussianBlur stdDeviation="2.5" result="blur-40"/>
      <feFlood flood-opacity="0.161"/>
      <feComposite operator="in" in2="blur-40"/>
      <feComposite in="SourceGraphic"/>
    </filter>
    <filter id="Path_2726" x="3231.526" y="5925.459" width="26.004" height="26.004" filterUnits="userSpaceOnUse">
      <feOffset dy="2" input="SourceAlpha"/>
      <feGaussianBlur stdDeviation="2.5" result="blur-41"/>
      <feFlood flood-opacity="0.161"/>
      <feComposite operator="in" in2="blur-41"/>
      <feComposite in="SourceGraphic"/>
    </filter>
    <filter id="Path_2727" x="3231.526" y="5986.595" width="26.004" height="26.004" filterUnits="userSpaceOnUse">
      <feOffset dy="2" input="SourceAlpha"/>
      <feGaussianBlur stdDeviation="2.5" result="blur-42"/>
      <feFlood flood-opacity="0.161"/>
      <feComposite operator="in" in2="blur-42"/>
      <feComposite in="SourceGraphic"/>
    </filter>
    <filter id="Path_2728" x="3247.421" y="6064.848" width="26.004" height="26.004" filterUnits="userSpaceOnUse">
      <feOffset dy="2" input="SourceAlpha"/>
      <feGaussianBlur stdDeviation="2.5" result="blur-43"/>
      <feFlood flood-opacity="0.161"/>
      <feComposite operator="in" in2="blur-43"/>
      <feComposite in="SourceGraphic"/>
    </filter>
    <filter id="Path_2729" x="3202.181" y="6099.083" width="26.004" height="26.004" filterUnits="userSpaceOnUse">
      <feOffset dy="2" input="SourceAlpha"/>
      <feGaussianBlur stdDeviation="2.5" result="blur-44"/>
      <feFlood flood-opacity="0.161"/>
      <feComposite operator="in" in2="blur-44"/>
      <feComposite in="SourceGraphic"/>
    </filter>
    <filter id="Path_2730" x="3314.67" y="6079.521" width="26.004" height="26.004" filterUnits="userSpaceOnUse">
      <feOffset dy="2" input="SourceAlpha"/>
      <feGaussianBlur stdDeviation="2.5" result="blur-45"/>
      <feFlood flood-opacity="0.161"/>
      <feComposite operator="in" in2="blur-45"/>
      <feComposite in="SourceGraphic"/>
    </filter>
    <filter id="Path_2731" x="3392.924" y="6094.193" width="26.004" height="26.004" filterUnits="userSpaceOnUse">
      <feOffset dy="2" input="SourceAlpha"/>
      <feGaussianBlur stdDeviation="2.5" result="blur-46"/>
      <feFlood flood-opacity="0.161"/>
      <feComposite operator="in" in2="blur-46"/>
      <feComposite in="SourceGraphic"/>
    </filter>
    <filter id="Path_2732" x="3378.251" y="6167.555" width="26.004" height="26.004" filterUnits="userSpaceOnUse">
      <feOffset dy="2" input="SourceAlpha"/>
      <feGaussianBlur stdDeviation="2.5" result="blur-47"/>
      <feFlood flood-opacity="0.161"/>
      <feComposite operator="in" in2="blur-47"/>
      <feComposite in="SourceGraphic"/>
    </filter>
    <filter id="Path_2733" x="3298.775" y="6160.219" width="26.004" height="26.004" filterUnits="userSpaceOnUse">
      <feOffset dy="2" input="SourceAlpha"/>
      <feGaussianBlur stdDeviation="2.5" result="blur-48"/>
      <feFlood flood-opacity="0.161"/>
      <feComposite operator="in" in2="blur-48"/>
      <feComposite in="SourceGraphic"/>
    </filter>
    <filter id="Path_2734" x="3471.177" y="6229.914" width="26.004" height="26.004" filterUnits="userSpaceOnUse">
      <feOffset dy="2" input="SourceAlpha"/>
      <feGaussianBlur stdDeviation="2.5" result="blur-49"/>
      <feFlood flood-opacity="0.161"/>
      <feComposite operator="in" in2="blur-49"/>
      <feComposite in="SourceGraphic"/>
    </filter>
    <filter id="Path_2735" x="3500.522" y="6160.219" width="26.004" height="26.004" filterUnits="userSpaceOnUse">
      <feOffset dy="2" input="SourceAlpha"/>
      <feGaussianBlur stdDeviation="2.5" result="blur-50"/>
      <feFlood flood-opacity="0.161"/>
      <feComposite operator="in" in2="blur-50"/>
      <feComposite in="SourceGraphic"/>
    </filter>
  </defs>
  <g id="Group_328" data-name="Group 328" transform="translate(2967 545)">
    <g id="Group_1741" data-name="Group 1741" transform="translate(206 5357)">
      <path id="Path_2442" data-name="Path 2442" class="cls-1" d="M251.83,105.019l-98.868-2.264L139.755,102,139,110.3l40.377,2.264-1.132,32.83h1.51l.755.755,2.264,2.641.755.377,2.641-.377,1.132-.755,1.51.755.377.755v.755l.755,1.132.377.377,3.774.755,1.132.755h.755l.377-.377,1.132-.377.755,1.509,1.509.377,1.132-.755,3.4.377v.377l1.51,1.509.755.377v1.509l2.641.755.377-1.887,1.132-.377,3.4,2.641h.377l1.509-1.132h1.132v1.887l.377,1.132.755-.377v-1.132l1.132-1.509,1.132-.755h.755v1.132l1.509.755h.755l.755-.755h.755l.377.377v.377l1.509.377,1.887,1.509,2.264-1.509.755-.377,3.019-.377,2.642-.755.755-.377h1.509l3.019.377,1.887-.755.377-.377,6.792,3.774,1.132.377.377.755h.755l.377-29.811-2.264-18.491Z" transform="translate(124.396 139.51)"/>
      <path id="Path_2443" data-name="Path 2443" class="cls-1" d="M201.8,112.751l9.811,35.849,1.132.755L213.5,152l.377,1.132,1.132.755,1.132.755-.377,1.509,1.132,1.509-.377.755-1.132,1.509v2.264l-.755,2.264v3.019l1.887,3.774-.377,4.151,1.509,2.641.377,1.132.377.755,1.132,1.132v1.132l.755,1.509,38.491-2.642.755,1.887.377.755,2.264.377.377-1.887-1.132-3.774v-1.132l.377-.755,1.132-.755,2.641,1.132,2.642.377,1.132-.377-.377-3.019-.377-1.509v-3.019l2.264-6.038.377-2.264.755-2.642,1.132-2.264,1.132-1.132.755-.377.377-.755-1.132-.377v-.377h-2.642l-.377-.377-.755-.755-.755-3.4-1.509-2.642-2.264-.755-1.132-3.4-1.132-1.509-.755-1.887-1.132-.755-2.641-.755-1.132-1.887-1.887-1.132v-.755l-.755-1.887-.755-.377-1.887-.755-4.528-4.151-1.887-.755-.755-1.132-1.887-1.887-1.132-2.642-1.509-1.132-.377-1.132-2.641-.377-3.774-1.887-1.132-1.132,1.132-2.641,1.132-1.132.377-.755.377-.755h-.377l-20,2.641Z" transform="translate(298.577 157.815)"/>
      <path id="Path_2444" data-name="Path 2444" class="cls-1" d="M308.855,128.742l-33.585,6.415-35.472,5.66-.755-.377-1.509.377-3.774.377.377-.755-3.774.755v.377L208.1,144.213l.755-.755,4.906-2.264.377-1.132,2.642-1.887v-1.132l.377-.755,1.509-.755v-1.509l1.509-1.132,6.792-6.038.377-1.509.377.377-.377,1.509,2.264,1.887,3.019,1.132h1.132l1.509-1.509v-.755l1.132-.377,1.132.755.755.377,1.132-.377,3.4-1.509.377-2.264h.377l.755.755,2.642-2.264.755.377,2.264-3.019-.377-1.132v-1.887l2.264-4.151,3.019-10.943h.377l1.509,1.132.377.755.755.755,1.887-.377,1.132-1.887,1.132-4.151.755-1.509,1.509.755,1.132-2.264,1.132-.377.755-1.509.755-2.264.755-.377v-.377l-.377-.377.377-3.4.377-.377.377-.377,6.038,3.774.755.377.377-.377.755-3.4h1.132l1.132.377,1.509.377-.755,1.509,1.509,1.509H284.7l1.132,1.132,1.509.755,1.132,1.509-.377.755-1.509,3.019-1.132,2.641.377,1.887h1.887l1.887-1.132,1.132,1.509.755.377h.755l1.132.755h.377l.755-.377h.377l3.019,1.509,2.264.755,1.132,1.509v.755l-.755.755.377,2.264-.377.377-.755.377v.377l2.264,1.132.755,1.887v.755l-.377.377-1.887-.377-.377.755.755.755h.377v.755l-1.132.377H299.8v.377l.755.377h1.509l1.509.377.377.755-1.509,1.509h-.755l-1.887-.755v.755l1.509.755,1.132,1.132,1.509-.377,1.509-1.132h3.4v.377l1.509,4.528-1.132,1.132h-.377Zm-.755-24.151h.377v2.264l-1.132,1.132-.377,1.132-.377,2.641.377,2.264v2.641l.755,1.887.377-2.642.755-2.642,1.51-3.774.755-1.509.377-1.509v-3.019l1.887-1.509.377-.755-4.528,1.509Z" transform="translate(316.051 95.408)"/>
      <path id="Path_2445" data-name="Path 2445" class="cls-1" d="M282.86,122.074l10.943,3.774.755,1.887-.755.755-.377.755-.377.755v1.887l-.755.377-.378.377-1.132,1.887v.755l.377.377.755-.377v-.755l1.887-1.509h3.4l.755-.377,2.264-.755,1.887-.755,1.132-.755,1.509-1.509,6.038-4.151,1.887-.755,1.132-1.132,1.132-.377.755-.755,1.132-1.132.755-.377.755-1.509v-.755l-1.509,1.509-1.132.377-1.887.377-.755,1.132-.377.755-1.509.755-.377-.377.377-1.132,1.132-1.132,1.132-1.887-.377-.377-1.132,1.132-.377.755-1.132,1.132-3.4,1.887-4.151,2.264-3.774,1.509-1.132.755-1.51,1.887-.755-.755-.377-1.132.755-1.509,1.132-1.132-1.509-1.132,2.264-2.264v-.755l-.755-1.132-1.887-12.453-.377-.377V94.9L293.8,92.262l-1.132-2.642V86.979l-.755-4.151-1.132-1.887h-.755v.377l-.377.377-.377-.755.377-2.264-2.264-4.906V71.885l.755-1.509-.755-3.774L285.5,61.7v-.377l-.755-.755.377-.755L284.37,58.3h0l-15.849,3.774-.377-.377h-.377l-1.509.755L262.483,66.6l-3.774,5.283-.755.755.377.755-.377,2.264-.755.755-4.151,3.774-.377.755.377,1.887h1.509l.755.377.377,1.132-.755.755.377,1.132.755,1.509-.377,2.642-2.264.755-3.774,4.151-2.642.755L240.6,97.923l-2.264-.755-1.887-.377-3.4.377-3.4.755-3.774,1.509-1.509,1.132-.755,1.887v1.509l2.642,2.641.377.377v1.509l-.377,1.132L225.5,110l-1.132,2.641-4.906,5.283-2.264,1.509,1.132,4.151,53.962-10.943,1.132.755.377,1.132.377.377.377-.377.377.755h1.132l1.509,3.4.377,1.132.755.377v.377l3.019.377Z" transform="translate(341.29 18.304)"/>
      <path id="Path_2446" data-name="Path 2446" class="cls-1" d="M233.559,129.8,196.2,133.57v.377l.377.377-.377.755v1.132l1.132,1.509.755.755h.377l1.132.755.377.377-.755,1.887v.377l.755.377.377.377V143l-.755.755v.755l.377.377,1.887-.755.755-.377.755-1.887.377-.755.755.377h.755l.377-.377h.755v.755L204.879,143l.377.377,1.132-.755H207.9l6.792-2.264h1.132v.377l-1.509,1.132.755.377h3.019l2.642,1.132,3.019,1.509.755.377v-1.132l.377-.377.755.755,1.887.377.377.377v.377l-.755.377.377.377,3.774,3.019.377.755-.377,1.132v.755l-.755-.755-.377-.377v1.132l.755.377,5.283-1.509.377-.755h1.509l4.528-3.4h2.642v-.755l-.377-.377.755-1.887,4.528-.755,6.793,3.4v1.132l1.887,1.132,1.509,2.264,4.151,3.019.377,1.132,1.132,1.132h3.4l2.264,3.774.755.377-.377,1.132,1.132,3.774-.377,4.151-1.132,4.151.377,3.774.377,1.132,2.642,1.887.755-1.509-.755-.755-.755-2.264v-.377l1.509-.377,1.132,2.264h.755v-1.132l.377-.377.755.377v1.132l-.755,1.132-.755,1.132-.755,3.019-.755.377v1.132l.755,1.132,1.509,1.132,2.264,5.283,3.774,2.264.377-.377v-1.132h1.132l.755,2.264v1.132l1.132,2.642,1.509.755,1.509.755,2.641,7.17.755.377,3.773.755,1.132.755,4.151,4.906,1.887,1.132h.377l1.132.755.377.755-.755.377-.755-.377h-.377l-.755.377v.755l.755.377,1.887.377,1.132-.377,1.509-.377,5.66-2.264,1.509-2.264v-.377l-.755-3.4V207.91l1.132-2.642h1.51l-1.51-5.66.377-3.019-.377-5.283-1.132-4.528-.755-1.509-4.151-5.283-2.641-6.038-3.019-4.151v-1.509l-1.132-2.264v-1.132l1.132-1.509V163l-4.151-5.66-2.642-2.264-1.509-1.132-.377-.755-2.642-3.4-3.4-6.415-1.132-3.774-2.264-5.283v-.755l-.755-.755-.755-.377-.377-3.774-.377-1.132-1.132.377-2.642-.377-2.641-1.132-1.132.755-.377.755v1.132l1.132,3.774-.377,1.887-2.264-.377-.377-.755-.755-1.887-38.491,2.641-.755-1.509v-1.132l-1.132-1.132Z" transform="translate(283.045 207.186)"/>
      <path id="Path_2447" data-name="Path 2447" class="cls-1" d="M127.885,99.6,114.3,195.072h0l12.453,1.509.755-7.547,23.4,3.019-.377-.377-.377-1.509.377-.755v-.377l-.377-.377.377-.377,50.566,4.528,6.038-75.849h.377l.755-8.3Z" transform="translate(55.889 132.853)"/>
      <path id="Path_2448" data-name="Path 2448" class="cls-1" d="M266.615,83.1l-10.943,2.264L220.2,92.157l1.887,8.679.755-1.132.755-.377,2.641-3.019,1.132-.377,1.132-1.509.755-.377.755-1.887.755.755,1.509.377,1.887-.377.377-1.132,4.151-1.509.755.377h1.132l1.132-.377.377,1.509.755.377,1.509,3.019h1.132l1.132.377,1.132.377-.755,1.132,1.51,1.509h2.264l1.509,1.509,1.509.377,1.132,1.509-.377.755-1.509,3.019-1.132,2.642.377,1.887h1.887l1.887-1.132,1.132,1.887.755.377v-.755l1.887-.377,1.887.377,3.019.755,1.132.755.377-.377.377-.377-.755-.755-1.132-1.887-1.132-.377h-.377l.377-.755h.377l.377-.755-1.509-.377-.755-1.509-1.132-3.019-.377-1.132V98.949l.377-3.019v-.755L260.2,94.8V93.666l.377-.377.377-.755.377-1.132,2.264-1.509.377-.755.755-2.264,1.132.377.755.755-1.132,1.887-.755,1.132-.755,1.132-.755,1.509.755,1.509,1.132.377.377,3.019v.377l-1.887,1.132.377.755,1.509.377.377.755-.377,1.509.377.755v.755l.755,1.887,1.887,1.509h.755l.755-.755h1.132l.377.377-.377,1.132,1.132,1.887v.377l.755,1.132h1.509l.377.377.755-1.509,4.528-1.509v-.755l.377-.755,1.132-5.66-.377-.377-8.3,1.509Z" transform="translate(349.611 87.089)"/>
      <path id="Path_2449" data-name="Path 2449" class="cls-1" d="M296.253,155.521H295.5l-.377-.755-1.132-.377-6.792-3.774-.377.377-1.887.755-3.019-.377H280.4l-.755.377-2.642.755-3.019.377-.755.377-2.264,1.509-1.887-1.509-1.509-.377V152.5l-.377-.377h-.755l-.755.755h-.755l-1.509-.755v-1.132h-.755l-1.132.755-1.132,1.509v1.132l-.755.377-.377-1.132v-1.887H258.14l-1.509,1.132h-.377l-3.4-2.642-1.132.377-.377,1.887-2.641-.755v-1.509l-.755-.377-1.509-1.509v-.377l-3.4-.377-1.132.755-1.509-.377-.755-1.509-1.132.377-.377.377h-.755l-1.132-.755-3.774-.755-.377-.377-.755-1.132v-.755l-.377-.755-1.509-.755-1.132.755-2.641.377-.755-.377-2.264-2.642-.755-.755H220.4l1.132-32.83L181.159,104.2h-.377l-6.038,75.849-50.566-4.528-.377.377.377.377v.377l-.377.755.377,1.509.377.377L127.2,180.8l.755,1.887.755,2.264,2.642,1.887,7.924,9.057,6.792,5.283.377,1.132.377,1.132v1.509l.377.755,1.509,2.264v5.66l.377,1.509,2.264,3.774,9.811,7.17,6.792,4.151,1.887.377,1.509-.755,1.132-1.509,1.509-1.132,2.641-6.415,1.509-2.264,1.132-.377,2.264.377h.377l.377-1.132.755-.755,1.509.377,1.132,1.132,3.774.377,1.132.377,2.264.755,1.132-.377,3.019,1.509.755,1.887.755.377v.377l.755.377,1.132.755,1.887,2.264,2.642,2.642,1.509,2.264.377.755,4.151,10.566.755,2.264,4.906,5.283.377,1.509,3.019,3.4,1.132.377,1.132,1.887.377.755v3.774l.755,1.132.755,4.151.755,1.132,3.4,6.792.377,1.509,2.264.378,2.641,1.509,3.4,1.132,4.528,3.019,6.415.755h1.509l3.4,2.264,1.509.755,1.887-1.887,1.132.377.755-.377v-1.132l-1.509-.377.377-.755-1.509-1.509-2.264-7.925-1.132-3.019,1.887-4.906-.377-1.509-.377-.377h-.377l-.377-.377v-.377l.377-.377,1.887-1.132,1.51-4.528-1.132-.377-.377-2.264,1.132-1.132,1.509,1.132,2.264-1.887.755-2.264-1.132-.755.377-1.132.377.377h.755l.755-.755.755.377H263.8v-2.641l.377-.377h.755l.755.377,3.4-1.132h.377l.377-.755-.377-.377-1.887-1.132v-.755l3.4-.755.377-.755,1.132-.377v.377l-.377.377.755.755h.377l.755-.377,5.283-1.509,8.3-5.66.377-1.887L292.1,227.6v-.377l-1.509-2.264.377-1.887,2.642-1.132h.377l-.377,2.264.377.377,3.019-.377.377.755,6.038-2.641,3.774-.377h0v-.377l-.755-.755-.377-1.132.377-.377.377-1.132,1.132-1.132,1.509-3.4-1.132-1.887v-1.132l.377-.755-.377-1.132.377-1.887,1.132-.755.755-1.509.377-3.4v-1.509l-.377-2.641-1.132-1.887-.377-.755v-.755l-.377-.755-.755-1.509-1.132-.755v-.755l.377-1.887-1.132-2.264-1.887-1.887-.755-1.132-.377-16.6V157.03l-2.264-.755-1.887,1.132-.377-.377Z" transform="translate(82.238 145.612)"/>
      <path id="Path_2450" data-name="Path 2450" class="cls-1" d="M145.342,88.7l86.038,1.887,5.66,4.151L235.53,97l-.377,1.887.755,1.132,1.509.755.755,3.019,1.132.755,1.51.377.377.377.377,36.6L142.7,139.643Z" transform="translate(134.658 102.621)"/>
      <path id="Path_2451" data-name="Path 2451" class="cls-1" d="M137,108.285,140.019,74.7l67.925,3.4,1.887,2.642h2.264l1.887-.377,1.132,1.132,1.132,2.264,1.509.377,1.887-.377,1.887-1.509h2.264l1.132.377,5.66,3.774,2.641,1.509v1.887l1.887,1.132v1.132l-1.132,2.264,1.509,1.132.755,3.019,1.509,1.132-.377,1.509.377,1.509,1.509,1.132.755,1.509-.755,1.132-.377,2.642,1.887,1.132.377,1.132-.755,1.509.377,1.132.755,1.509-.377,1.132.377,1.887.755.755.755,1.509,1.509,1.509.377,2.264,1.887,2.264.755.377-.377,1.887v.377l-86.038-1.887,1.132-16.981Z" transform="translate(118.849 63.791)"/>
      <path id="Path_2452" data-name="Path 2452" class="cls-1" d="M137.8,111.311l2.642-33.585L141.951,61.5,229.5,65.274l.377,1.509-.755,1.509-2.264,2.264v1.509l4.528,4.151V107.16l-.755-.377-1.132.377.377.755.755,1.132-.755,1.509.755,1.132.755,2.264-1.132,1.132.377,1.132-1.509,3.019,1.509,3.4.377,1.509v.377l-2.641-1.509-5.66-3.774-1.132-.377h-2.264l-1.887,1.509-1.887.377-1.509-.377-1.132-2.264-1.132-1.132-1.887.377h-2.264l-1.887-2.641Z" transform="translate(121.068 27.18)"/>
      <path id="Path_2453" data-name="Path 2453" class="cls-1" d="M138.9,99.221,143.051,47.9l22.642,1.509,16.226,1.509,37.736.755.377,1.509,1.132,3.774-.377,1.509-.377,2.642v4.906l1.132,5.283,1.509,1.509.755,4.906.377,8.3.377,1.887v3.019l.377,1.509,1.887,5.66-.377,2.264v2.642Z" transform="translate(124.119 -10.542)"/>
      <path id="Path_2454" data-name="Path 2454" class="cls-1" d="M235.021,129.315l-83.4-10.189-1.132,8.679h0l-1.132-1.132-.755-1.887L147.1,122.9l-1.509,1.132v1.132h-3.4l-.377.377-1.509-.755h-3.4l-.377-.755H135.4l-1.132,1.132h-1.132l-2.642-1.132-.377.377-1.132,1.509-1.509-.755-.755-1.887v-.755l.377-2.264-.377-.755-1.132-1.887h-1.509l-1.132-1.887.755-1.509v-1.132l-1.509-1.887-.755-2.264v-3.4l.377-1.887-.755-.755-.377-.377-.377-1.132-.377-.377-.377.377-3.774,3.019h-.755l-2.264-2.264.377-1.132V98.372l1.887-1.509.377-1.132-.377-.377V92.711l1.132-.755-.377-1.132,2.642-5.283-.755-1.132-2.264-.377-.377-1.132h-1.887l-.755-2.264L112,78.372l-1.887-4.528L107.1,71.2l-1.509-1.887-.755-.755.755-.755.755-1.887-.755-2.642L103.7,58.749,106.719,42.9l12.453,1.887,33.585,5.66,34.34,6.038,53.585,5.283-4.151,51.321Z" transform="translate(26.489 -24.409)"/>
      <path id="Path_2455" data-name="Path 2455" class="cls-1" d="M201.625,140.459l3.019-33.585,2.642-33.585L123.889,63.1l-1.132,8.679-6.038,41.887h-.377L113.7,129.893l24.906,3.774Z" transform="translate(54.224 31.616)"/>
      <path id="Path_2456" data-name="Path 2456" class="cls-1" d="M117.9,148.97l9.057-67.17,63.019,6.792,25.283,2.264-1.132,16.981-2.642,50.943-13.208-.755Z" transform="translate(65.874 83.484)"/>
      <path id="Path_2457" data-name="Path 2457" class="cls-1" d="M166.715,168.662l9.057-67.17-24.906-3.774,2.642-16.226L116.526,74.7,100.3,158.474h0Z" transform="translate(17.058 63.791)"/>
      <path id="Path_2458" data-name="Path 2458" class="cls-1" d="M120.183,42.3l10.943,2.264-3.019,15.849,1.887,4.528.755,2.642-.755,1.887-.755.755.755.755,1.509,1.887,3.019,2.641,1.887,4.528.377,2.264.755,2.264h1.887l.377,1.132,2.264.377.755,1.132-2.641,5.283.377,1.132-1.132.755v2.642l.377.377-.377,1.132-1.887,1.509v2.641l-.377,1.132,2.264,2.264h.755l3.774-3.019.377-.377.377.377.377,1.132.377.377.755.755-.377,1.887v3.4l.755,2.264,1.509,1.887v1.132l-.755,1.509,1.132,1.887h1.51l1.132,1.887.377.755-.377,2.264v.755l.755,1.887,1.509.755,1.132-1.509.377-.377,2.641,1.132h1.132l1.132-1.132h1.132l.377.755h3.4l1.509.755.377-.377h3.4V125.7l1.509-1.132,1.509,1.887.755,1.887,1.132,1.132h0l-6.038,41.887h-.377L131.5,164.564l-36.6-7.547,6.415-29.811,1.887-2.264v-1.887l.377-.377V122.3l.755-1.132-.755-1.132-1.887-1.132-.755-.755.755-2.264,3.019-4.528,1.887-.755,1.132-1.509V107.96l1.132-1.132,6.038-8.679-.755-2.642-1.132-.755-.755-.377-1.509-1.509V91.357l-.377-2.264.755-.755v-.755l-.755-1.509V84.564l.755-.377Z" transform="translate(2.081 -26.073)"/>
      <path id="Path_2459" data-name="Path 2459" class="cls-1" d="M171.436,202.56l13.585-95.472L118.606,96.9h0l-1.509,8.679-2.642,7.17h-1.509l-1.132-1.132.377-.755-1.132-1.132-2.642-.377-1.887.377-.755.755.755,3.019-.755,7.925.377,1.509-.755,3.4-.755,1.132v4.906l1.132,1.887v1.887l.377,1.132.377,1.887,1.132.377.755,1.132v2.264l-.755-.377-1.509,1.509-2.264.377-1.132,2.264-1.132,4.528-2.642,3.4H97.474v.755l.377,1.509-.377.755-.377,2.264.377.755,1.887,1.887.377.377-.755.755-.377,1.132-1.132,1.132H97.1l-2.264-.377L93.7,169.73l49.057,27.924Z" transform="translate(-1.247 125.365)"/>
      <path id="Path_2460" data-name="Path 2460" class="cls-1" d="M94.453,70.4,82,120.589l55.094,81.132v-.755l.755-1.132.755-3.4-.377-1.509.755-7.925-.755-3.019.755-.755,1.887-.377,2.642.377,1.132,1.132-.377.755,1.132,1.132h1.509l2.642-7.17,1.509-8.679,16.226-83.774-36.6-7.547Z" transform="translate(-33.698 51.864)"/>
      <path id="Path_2461" data-name="Path 2461" class="cls-1" d="M158,99.509v.755l-.755.755.377,2.264-23.774-5.66-1.509.755h-1.132L130.075,98h-1.887l-.755-.377H126.3L124.792,98l-1.509-.377h-1.509l-1.887.755-1.132.377L115.736,98l-.755-.377-1.887-.755-5.283.755-1.132-1.509-4.528-1.132-1.887-.377-3.019.377L93.472,94.6,89.7,92.717l-.377-1.132V87.057L89.7,86.3l-.377-2.641-2.641-1.887H84.792v-.755l-1.132-.755L81.4,79.132v-.377l-2.264-1.132h-.755L78,77.245v-.755l.755-1.887.377-.755V72.34h.377l.377,1.132-.377.755v1.132L81.4,73.849l-.377-.755V72.34l.755-.755L81.4,70.453H80.264V67.811l.377-.377.755.377.377-.377,1.887-.377-1.509-1.132v-.377l-.377-.377-1.132.755V63.283l.377-2.264V59.509L80.642,58l.377-3.4.377-1.509-1.509-4.528.377-3.4.377-1.509.377-2.264,8.3,5.66,4.528,2.264,3.4,1.132,1.887,1.132h1.887l.377.377.755,1.132.377,4.151-.377.755-1.132,1.132-.755,1.887v3.019l-.377.755v.377l.755.755,1.509-.755,1.132-3.774.755-.755.755-1.509,2.264-2.264V55.736l-.755-3.4-1.887-4.528v-.755l.377-.377.755.377,1.132-2.264V42.528H105.17V41.019L104.792,38l17.736,4.906,16.981,4.528,27.547,6.792L158,96.113l-.755.377V98Z" transform="translate(-44.792 -38)"/>
      <path id="Path_2462" data-name="Path 2462" class="cls-1" d="M176.37,224.159l-.755-1.132-1.132-.377-.377-1.887-.377-1.132v-1.887l-1.132-1.887v-4.151L117.5,130.574l12.453-50.189L79.766,66.8l-.755.755-.755,2.264.755,2.264-.377,4.528L77.5,78.5,76.37,79.63l-.377,2.264v.755l-4.528,5.283-1.887,3.019V92.46l-.377.755.377,2.264.755,1.509.755.755.377.755V99.63l1.509,3.4.377,3.774-.377.755-1.132,1.887-1.132,3.774.377,1.132.377,1.887-1.132,1.509,1.887,5.283,1.132,2.264,2.641,2.641v6.415l-.755,1.509,1.887.755,1.887,3.019,1.887.755.377-.755V138.5l1.509-1.51.377.377-.377,2.264.377,1.887,1.132,3.019-.377,1.509-.377.377-1.887-1.132-.377-.755v-2.264L80.9,141.14l-.755.377-.377,2.642-.377.377v1.509l-.377.755v5.66l.755,1.887,2.264,1.887,1.887.755,1.132,1.132-.377,3.019-1.509,1.509h-.755l-.755,1.132-.377,4.151,3.019,4.151.377,1.509.755,1.509v2.264l4.151,7.17,1.887,1.132-.377,1.887h-.377l-.377.377v1.887l1.887.755.377,2.264-.377.755-.377,1.887-.377,3.019-1.132,1.132v1.132l1.509,1.509,2.642,1.887H96.37l6.038,2.642,2.264.377,2.264,1.887,1.132,3.4,2.642,2.264,1.887.755,3.4.377,1.132,1.509-.377.755.755,1.132-.755,1.509,1.132,1.132h2.264l3.019,3.019,1.509,2.264,1.509,1.509,2.641,6.038.377,5.66-.377.377.755,1.509h0l.377.377v.377l-.377.755.377,1.509v.755l32.83,3.019,2.264.377h.377l1.132-1.132.377-.755.755-1.132-.377-.377-1.887-1.887-.377-.755.377-2.264.377-.755-.377-1.509v-.755h1.509l2.641-3.4,1.132-4.528,1.132-2.264,2.264-.377,1.509-1.509.755.377v-2.264Z" transform="translate(-69.2 41.88)"/>
      <path id="Path_2463" data-name="Path 2463" class="cls-1" d="M168.2,103.994v.377l-.377.377v1.887L165.94,108.9l-6.415,29.811L123.3,130.032,73.109,116.447l-.755-.755-.755-3.4.755-1.887V108.9l1.132-2.642-.755-5.283.755-1.132,1.132-.377.755-1.132.755-1.509.755-.755V93.806l.755-.377,3.019-3.774,1.509-3.4,3.019-5.283L88.2,71.542l2.264-3.774,1.887-6.038,2.264-7.17,1.132-2.642.377-1.887v-.755L97.26,48.9l1.132.377.755-.377,2.264,1.132,1.132.755v.755h1.887l2.641,1.887.377,2.642-.377.755v4.528l.377,1.132,3.774,1.887,3.774.377,3.019-.377,1.887.377,4.528,1.132,1.132,1.509,5.283-.755,1.887.755.755.377,3.019.755,1.132-.377,1.887-.755h1.509l1.509.377,1.509-.377h1.132l.755.377h1.887l1.132.377h1.132l1.509-.755,23.774,5.66V74.56l1.509,1.509.755.377,1.132.755.755,2.642-6.038,8.679-1.132,1.132v1.132L171.223,92.3l-1.887.755-3.019,4.528-.755,2.264.755.755,1.887,1.132" transform="translate(-62.543 -7.768)"/>
      <path id="Path_2464" data-name="Path 2464" class="cls-1" d="M187.2,141.366l19.623-1.509V137.97l-.377-.755,2.264-.377.755.755,55.472-5.283,1.132-.755,1.132-.755,4.906-2.264.377-1.132,2.642-1.887v-1.132l.377-.755,1.509-.755v-1.509l1.509-1.132,6.792-6.038.377-1.132h-1.132l-.755-.755h-.377l-.377-.755-1.509-.377h-.377l-.377-.377-1.887-2.642-2.641-3.4-.377-1.132v-2.641L275.5,99.1l-.377-.755-1.509-.755-1.509-.377-1.132-1.887-.755-1.132-1.509,1.132-.377.755-1.132.377v.377l-2.264.377-2.264-1.132-.755.377-1.132,1.509-3.019-2.264-2.641.377-1.887-.755-1.132-2.264L249.464,90.8l-1.132,1.132H247.2l-1.132-.755h-1.132l-.377,1.132v.755l.755,3.019-.755,1.132-1.132.377L241.54,99.1l-2.264-.755-1.132,1.132v2.264l-5.283,6.792-1.132,3.019-3.019.377-1.509-1.887h-1.132l-.755,1.132-.755,3.4-1.132.755-1.509-.755-.755-1.132-2.264.755-.755,2.642h-.755l-.377-.377-4.151-1.887-3.019,1.509-2.641-.377-.377,1.132v.755l-.755.377h-1.132l-.377.755-.377,1.509-.377.377v.377l1.132,1.887v.377l-4.151,1.132-1.132.377v1.887l.755,3.4-1.509.755-1.887-1.132-1.509-.755-2.264-.377-1.509.755-.755,3.019v.377h.377l.755.755.377,1.509-1.132,4.151-.755.755-.755-.377-1.509.755Z" transform="translate(258.083 108.446)"/>
      <path id="Path_2465" data-name="Path 2465" class="cls-1" d="M241.7,86.264l9.434,28.3v2.264l2.641,1.887.377.377.377.755v.755l1.132,2.264.377-.755.377-1.509V118.34l1.132-1.887.755-3.4,1.132-1.132.377-.755-.755-.377-.755-1.887,3.4-2.641.377.377.377,1.132.755.377.377-.377v-2.264l2.642-.377.755-1.132v-.755l.378-.755h1.509l.755-.377.377-.755.755-1.887-.377-1.509,1.509-1.887V94.943h.755l1.509.377.755-.377.755-1.132.755-1.509h.377l1.132-1.887h1.887l1.509,1.509,1.509-3.4,1.887-.755,2.264-2.264.755-1.132.377-.377h.755L290,83.245l.755-1.132-.377-1.132-1.132-.755V80.6l-.755-.377.377-1.132.377-.377v-.755L288.115,75.7l-1.132-.755-.755.377-.377.377-1.132.377-1.132-.377-1.132-4.151.377-.755-.377-.755-.377-.377h-.755l-.377.377-1.887-.755h-1.132l-.377-.377-.755-2.641v-.755l-6.038-18.491L265.851,44h-2.642l-.755.755-.377.755H261.7l-1.887,1.132-2.641,1.887-.755.377-1.132-1.132.377-1.887-.755-.755h-.755l-1.887.755-4.151,14.34-.377,1.887.755,1.132v1.509l-.377,1.132-.755.755-.377,1.132,1.509,6.038-.755,1.887v1.509l-2.264,2.642-.377,1.132.755,1.887v.377h-1.132v1.509l-.377.755h-.755l-.755-.377Z" transform="translate(409.243 -21.36)"/>
      <path id="Path_2466" data-name="Path 2466" class="cls-1" d="M234.623,121l35.472-6.792,10.943-2.264h.377l.377-.377v-.755l1.132-1.509h1.509l1.132.377,3.4-2.264.377-1.887,1.887-2.264,2.264-1.132v-.377l-1.887-1.132-.755-.755-.755-.755-.377-.377-1.509-.377-.755-1.887-1.509-.377-.377-.377V92.7l.755-.377V90.436l-1.132-.755v-.755l.377-.377,1.509-1.509.377-2.641v-.755l.755-1.509h.755L287.83,81l-3.019-.377v-.377l-.755-.377-.377-1.132-1.509-3.4h-1.132l-.377-.755-.377.377-.377-.377-.377-1.132L278.4,72.7,224.434,83.643,223.3,79.492l-2.642,2.642-.755.377-.378-.755h-.377l-.755,1.887-2.264,1.887L215,86.285l4.151,22.264,2.264,15.094Z" transform="translate(335.189 58.243)"/>
      <path id="Path_2467" data-name="Path 2467" class="cls-1" d="M194.3,132.321l25.66-3.4.377,1.132,16.226-2.264.377-.755,1.887-4.151.755-.755v-2.642l.755-2.264,1.887-1.887v-2.264l.377-.377v-1.132l1.132-1.132.755,1.509h.377l.755-.377.377-.755.377-1.132L246,107.415V104.4l-.755-1.887-.377-3.774-3.774-9.811-3.774-1.132-1.509.755L234.3,90.434l-4.528,6.415h-.377l-.377-.377-1.509-.377-.755-.755-.377-1.509.377-2.642.755-1.132,2.264-1.132.377-1.132V86.66l.377-1.132,1.132-.377.755-2.264V78.736l-.377-2.264-.755-1.132-1.509-1.509-.377-.755.377-1.132,1.509-.377.377-.755-1.887-3.019-1.509-.755-4.151-1.509-3.4-.755-1.132-1.132-2.264-.755-2.642-.755L213.168,61l-1.132,1.132-1.132.377-1.509,2.264V66.66l.377.755h.377l.377.755-.377.377-1.132.755-.755.377-1.132,1.132-.755,1.887v1.887l.377,1.509-1.132,1.887-1.509.755V77.6l.755-1.887-.755-1.887V72.7l-.755.377-.755,1.509v1.509l-.755.755h-.755l-1.509,1.509-.755,1.132-.377.755-1.132,1.887v2.642l-.377,3.019V89.3l-1.132,2.264-1.132,1.509.377,1.132,1.132,3.774-.755,2.264,1.132,1.887,2.264,5.283,1.887,4.151v3.4l.755.755v.377l-.755.755-.377,3.4-.377,2.642-1.132,2.264-1.887,4.906-1.887,1.509Z" transform="translate(277.776 25.792)"/>
      <path id="Path_2468" data-name="Path 2468" class="cls-1" d="M181.3,71.581l2.264-.755,1.132-.755,2.642-1.509.377-1.132,1.132-.377,4.528-1.509,3.4-1.887,3.4-3.774,1.509-.377,3.019-3.4,2.264-.755,3.4-.755h.755v.755L209.6,56.487h-.755l-.755,1.887-2.641,2.641-1.132,1.132-.755.755-.377,2.264.377,1.887.755-1.132,1.887-1.509h1.509l.755-.377,4.906,2.264,3.4,3.774,3.019-.377,1.509.377,1.132.377h1.132l1.132.377V71.2l.755-.377.377-1.132,3.4-2.264,10.566-2.642,2.641-1.509,1.51-.755.377.755-.755,1.509v1.132l1.509,2.264.755.377.377-.377h1.887l.755-.377,3.4-.377,1.132,1.132,1.509,2.641,1.132.755,2.642,1.132,2.642-.377h.755l.755.377v1.132l-1.132,1.132h-2.642l-.377-.755h-.377l-1.509,1.132-1.509-.377-.755-.377-3.019.755-1.887-.377-.377.377.377,1.509-.377.755-1.132-.377-1.509-1.509-4.528-.755-.755.377-1.132-.377-3.019,2.264h-.755L235.262,78l-.377.755-.755.377-1.509-.755-1.887.755V80.26l-.377,1.132-3.774,3.019h-.755l-.377-.755,1.509-1.887V80.638h-1.887l-1.132,1.887-.755.755-.755-.755V80.638l-.755.377-.377,2.264-1.132,2.264-.755,2.642-.755,1.509-1.887,2.642v1.509l-.377.755-1.509-1.132-.755-1.887.755-.755.377-.755-.377-.377-2.264.377h-.377L213,85.921l-.377-1.509-1.887-1.132-1.887-.755v-.377l.377-.377-.755-.755-1.509-.377-3.019-.755h-.755l-.377.755-.755-.755h-1.509L198.281,78h-1.509l-10.943-2.264-.755-.377-.755-1.887-.755-.755-1.509-.377Z" transform="translate(241.719 8.04)"/>
      <path id="Path_2469" data-name="Path 2469" class="cls-1" d="M237.8,74.934l9.057-1.887,14.717-3.4v-.377l.377-.377.377.377.377-.377-.377-1.132,1.132-.377,1.132-1.887h.755l1.132.377.377,1.887,1.887,1.132.378,1.132-.378.377-.755.377-.755,1.509-.755,1.887.377,1.132h1.509l1.51.755,2.642,2.641,1.132,1.887,1.132,1.132,3.019.377,1.887-.755.755-2.264-.377-.377-1.132-1.132-1.509-.755v-.755h1.887l1.887,3.019,1.132,3.019v1.509l-1.509-1.132-1.132,1.132-2.264.755-2.264,1.887H274.4V85.5l-.377-1.509h-.755l-1.132,1.887-1.509,1.887-.377.755-.755-1.132-.377-.755h-.378l-.377-.377-.755-.377v-.755l-2.264-.377-.755-1.887h-.755l-.377-1.887L258.555,82.1l-11.321,3.019-.377.755h0l-.755-.755-7.924,1.887-.377-.377Z" transform="translate(398.426 38.274)"/>
      <path id="Path_2470" data-name="Path 2470" class="cls-1" d="M243.3,70.732l2.641,9.434-.377,1.132V82.43l.755.377,2.264-1.887,1.509-1.132V78.657l-.377-.755V76.392l1.132-1.132.377.377v3.019l.377.755h.755V77.9h.377l1.132-.755H255l-.755-1.132-.377-.755h-.378l-.377-.377-.755-.377v-.755l-2.264-.377-.755-1.887h-.755l-.377-1.887Z" transform="translate(413.681 49.646)"/>
      <path id="Path_2471" data-name="Path 2471" class="cls-1" d="M237.9,74.806l7.924-1.887.755.755h0l.378-.755L258.277,69.9l2.641,9.434-.377,1.132V81.6l-1.509.377-3.774,1.509h-1.132l-.377.377v.755h-.377l-2.264.377L248.089,86.5l-.377-.755-1.887,2.264L241.3,91.787l-1.509.755-1.509-1.132,2.264-2.264v-.755l-.755-1.132Z" transform="translate(398.704 50.478)"/>
      <path id="Path_2472" data-name="Path 2472" class="cls-1" d="M231.355,82.2h-.377l-1.132.755.755,1.509-1.887,1.509,2.642,1.509-1.132,6.038-.377,1.509v2.264l.377,1.887-1.509,1.132-.755.377-2.264,3.019v.377l-1.887.755-.755-.377-1.132,1.132-.377.755-1.132,1.132-1.132,2.642.377,2.264-1.509,1.509-1.132-1.887h-1.132l-1.132,4.151.377,1.887-.377,1.509-1.132,1.132-1.132,1.887-1.887.377.377,1.887v2.642l.377,1.132,2.642,3.4,1.887,2.642.377.377h.377l1.509.377.377.755h.377l.755.755h1.132l.377.377-.377,1.132,2.264,1.887,2.642,1.132,1.509.377,1.509-1.509v-.755l1.132-.755,1.132,1.132.755.377.755-.377,3.4-1.509.755-1.887h.377l.755.755,2.642-2.641.755.755,2.264-3.019-.377-1.132V129.37l2.264-4.528,3.019-10.943h.377l1.509,1.132.377.755.755.755,1.887-.377,1.132-1.887,1.132-4.151.755-1.509,1.509.377,1.132-2.264,1.132-.377.755-1.132.755-2.264.755-.755.377-.377-.755-.755.377-3.019.377-.755.377-.377,6.038,3.774,1.132.377v-.377l.755-3.019h0l-1.51-3.019-.755-.377-.377-1.509-1.132.377h-1.132l-.755-.377-4.151,1.509-.377,1.132-1.887.377-1.509-.377-.755-.755-.755,1.887-.755.377L254,98.426l-1.132.377-2.642,3.019-.755.377-.755,1.132-1.887-8.679-13.208,2.642Z" transform="translate(322.985 84.592)"/>
      <path id="Path_2473" data-name="Path 2473" class="cls-1" d="M201.2,87.621l4.906,43.774h1.132l1.132.755H209.5l1.132-1.132,2.642,2.264,1.132,2.264,1.887.755,2.641-.377,3.019,2.264,1.132-1.509.755-.377,2.264,1.132,2.264-.377v-.377l1.132-.377.377-.755,1.509-1.132.755,1.132,1.132,1.887,1.509.377,1.509.755.377.755,1.887-.377,1.132-1.887,1.132-1.132.377-1.509-.377-1.887,1.132-4.151h1.132l1.132,1.887,1.509-1.51-.377-2.264,1.132-2.641,1.132-1.132.377-.755,1.132-1.132.755.377,1.887-.755v-.377l2.264-3.019.755-.377,1.51-1.132-.377-1.887v-2.264l.377-1.509,1.132-6.038-2.642-1.509,1.887-1.509-.755-1.509,1.132-.755h.377L253.276,76.3l-6.415,3.4-2.641,1.509-1.132,1.132-3.774,3.774-.755.755-1.132-.377h-2.264l-1.132.377-3.019,2.642-1.132-.377-2.642-.755-.377.377h-1.132l.755-1.132h-.377l-1.887-.377-4.151-1.509h-.755l-1.887.377v-.755Z" transform="translate(296.913 68.229)"/>
      <path id="Path_2474" data-name="Path 2474" class="cls-1" d="M193.31,83.528l3.4,40-.755.755.377,1.509-.377,1.887,1.51,3.019.377,3.774-1.887,3.4V139l-1.132,2.641-2.264,1.887v2.641l-.755,3.019v.755l.377.755h1.132l.755-.377v-.755l.377-1.132,2.641.377L200.1,147.3l4.151,1.887.377.377h.755l.755-2.642,2.264-.755.755,1.132,1.509.755,1.132-.755.755-3.4.755-1.132h1.132l1.509,1.887,3.019-.377,1.132-3.019,5.283-6.792v-2.264l1.132-1.132,2.264.755,1.887-1.509,1.132-.377.755-1.132-.755-3.019v-.755l.377-1.132-4.906-43.774L226.894,79l-25.66,3.4-.755.755-1.887.755-1.132.377-2.642.755Z" transform="translate(270.841 75.717)"/>
      <path id="Path_2475" data-name="Path 2475" class="cls-1" d="M223.074,76.8l-35.094,2.264.755,1.132,2.642,1.509v1.887l2.641,1.132.755,3.019v1.509l-.755,1.887-1.132.755V93.4l-2.264,2.264-1.887.755-.755.755h-2.642l-1.132.755-.755,1.887v1.132l1.51,1.887.377.755-.377,2.642-1.51,4.151-2.264,1.132-.377,1.509v1.132l-1.132,1.509v.755l-.377,1.887v3.019l1.132,3.019.377,1.132,3.774,4.528,3.774,3.019,1.132,1.132,2.264,6.038.377.377,1.132-1.132,1.132-.377,3.4,1.509.377,1.132-.755,1.887.377,2.641-2.264,2.642-.377,1.132.755,1.887,2.264,2.264,3.774,2.264,1.509.755L207.6,160.2l.377,3.019,1.132,1.509v.755l-.755.755v.755L211,171.517h.377v-.755h1.132l.377.377.755-3.019,1.509-.755,2.264.377,1.509.755,1.887,1.132,1.509-.755-.755-3.4v-1.887l1.132-.377,4.151-1.132v-.377l-1.132-1.887v-.377l.377-.377.377-1.509.377-.755h0l-.377-.755v-.755l.755-3.019V149.63l2.264-1.887,1.132-2.642V143.97l1.887-3.4-.377-3.774-1.51-3.019.377-1.887-.377-1.509.755-.755-3.4-40-.755-.377-.377-1.132-.755-3.774-.755-.755-1.132-1.132-1.132-2.642Z" transform="translate(236.172 69.615)"/>
      <path id="Path_2476" data-name="Path 2476" class="cls-1" d="M205.5,142.306l.377-3.774h1.132l.377-.377,1.132-.755v-1.887l.377-.755,1.132-1.509,2.642-1.132,3.4-.755,3.019-2.642,1.132-.755,1.887-1.887.755-1.509h1.132l.377-.755.377-.377.755-1.132h.377l1.132.755,1.132-.755v-.377l1.887-1.132,1.132-.755h1.887l2.264-3.774,1.887-1.132.377-1.132V111.74l.377-1.132v-.377l3.4-.755v.755l3.774-.377,1.132-.377h.755l35.472-5.66L316.066,97.4l.755.755v.377l1.132.377.755.377.377.755.377.755.755,1.509-.377.377.377.377h-.755v-.755l-1.132.377h-.755l-.377-.377-.755.377.377.377v.377l-3.019,1.509-.755.755-1.132,1.132-2.264.377-.377,1.132v.377l.377.377.755-.377,2.264-.755,1.887-.755,1.51-.755h1.887v2.264l.755.377.755-.377.377-.755,1.132-1.509H322.1l.377,1.887.377,2.642.377.755v.377l-1.887,1.509-.377.755-.377.755-1.132,1.132-.755.377-1.132.755-2.264-.377H313.8l-.377-.755v-.755l-.377-.377h-.377l-.377.377.377,1.887-.377.755-.377-.377.755,1.132h.755l1.132,1.132-.755,1.132.377.755-2.641,3.019h-.755l-1.509-.377h-.755l-.377.377,1.132.755h2.642l1.887-.755,2.264-1.132.377-.755.755.377.755.755-.755,1.887-2.264,2.264-2.264.377-.755.755-3.019.377-2.264,3.774h-.755v.755h0l-2.642,1.509-1.509,1.887-1.509,3.4-.755,4.151-.755.755-1.132.755-5.66,1.132-.377.377-18.113-12.453-15.472,1.887-.377-2.264-2.641-1.887-1.132.755-.755-.755.377-.755v-.377l-18.113,2.264h-.377l-.377.377-3.774,1.509v.755h-1.132l-4.151,2.264Z" transform="translate(308.84 126.752)"/>
      <path id="Path_2477" data-name="Path 2477" class="cls-1" d="M295.089,100.9l-22.642,2.642-1.132.755-55.472,5.283-.755-.755-2.264.377.377.755v1.887l-19.623,1.509-.755,2.264-.755,3.019.377.755-.755,2.642-.755.755.377.755-.377,1.509-1.887,1.887-.755,3.4-1.509,2.264.377,2.264-.377,3.019-.377.377-1.509,1.132,28.3-1.887,35.472-3.4,13.962-1.509.377-3.774h1.132l.377-.377,1.132-.755v-1.887l.377-.755,1.132-1.509,2.641-1.132,3.4-.755,3.019-2.641,1.132-.755,1.887-1.887.755-1.509h1.132l.377-.755.377-.377.755-1.132h.377l1.132.755,1.132-.755v-.377l1.887-1.132,1.132-.755h1.887l2.264-3.774,1.887-1.132.377-1.132v-2.264Z" transform="translate(251.704 136.46)"/>
      <path id="Path_2478" data-name="Path 2478" class="cls-1" d="M251.232,158.4h-2.642l-.377-.377-.755-.755-.755-3.4-1.51-2.641-2.264-.755-1.132-3.4-1.132-1.509-.755-1.887-1.132-.755-2.641-.755-1.132-1.887-1.887-1.132V138.4l-.755-1.887-.755-.377-1.887-.755-4.528-4.151-1.887-.755-.755-1.132-1.887-1.887-1.132-2.641-1.509-1.132-.377-1.132-2.642-.377-3.774-1.887-1.132-1.132,1.132-2.642,1.132-1.132.377-.755.377-.755h-.377l4.151-2.264h1.132v-.755l3.774-1.509.377-.377h.377l18.113-2.264v.377l-.377.755.755.755,1.132-.755,2.642,1.887.377,2.264,15.472-1.887,18.113,12.453-.755.377-1.509,1.132-1.132,1.509-1.887,2.264-1.132,2.641-.377,1.887v3.4l-.755.377-.377.755-1.132.377-.755.755-.755.755-1.132,1.509-.377,1.132L264.44,143.3l-1.509,1.887-1.132,1.132-1.509,1.132-1.132,1.132-.755.377-1.509.755-.755.377-.377.377.377.755h-.377l-.755,1.509-1.132,1.132h-1.132l-.377.377.377.377h.755v1.132l-.755.377-1.132,1.132Z" transform="translate(321.598 152.545)"/>
      <path id="Path_2479" data-name="Path 2479" class="cls-1" d="M192.4,113.1l1.509,1.509-1.132,49.434.377,2.642,3.019,24.906.755-.377.755-.755,2.264.755.377-.755.377-3.774.755-2.264,1.509,2.264v1.132l.755,1.887,1.509,2.264h2.642l1.509-1.887h.755l.755-.755v-.377l-.377-.377-.755-.377v-.377l.755-1.887-.377-.377L209,184.795h-.377l-.755-.755-1.132-1.509V181.4l.377-.755-.377-.377v-.377l37.359-3.774-.377-1.132-1.509-2.642.377-4.151-1.887-3.774V161.4l.755-2.264V156.87l1.132-1.509.377-.755-1.132-1.509.377-1.509-1.132-.755-1.132-.755-.377-1.132-.755-2.641-1.132-.755L227.872,109.7Z" transform="translate(272.506 160.866)"/>
      <path id="Path_2480" data-name="Path 2480" class="cls-1" d="M224.3,110.6l-28.3,1.887v1.132l-2.641,2.264-1.132,2.641.377,2.642-.377,1.509-2.642,1.509-1.509,2.264-.755.755v2.264l-1.132,1.509v1.887l-.755,2.264-1.509,2.264.755,2.264,1.132,1.509v1.887l.378.377v.755l-.755.377v3.774l1.509,3.4.377,3.4.755,1.509.755,1.132.377,1.509-1.887,1.132-.377.377-1.132,3.774-2.641,4.151-2.264,6.792v5.283l26.415-1.132.755.755-1.132,2.642v3.774l3.019,3.019.755,3.019H212.6l2.642-2.264,6.415-1.887,1.887.377,1.887-.755.755.755,1.132.377.755-.377-3.019-24.906-.378-2.642,1.132-49.434Z" transform="translate(240.609 163.362)"/>
      <path id="Path_2481" data-name="Path 2481" class="cls-1" d="M169,106.942l60-2.642-.377.755,1.132.755.755,1.509-.377,1.51-1.887,1.509-1.509,1.887v1.132l9.056-.755-.755.755.377.755-.377,1.509-1.887,1.887-.755,3.4-1.509,2.264.377,2.264-.377,3.019-.377.377L229,129.96v1.132l-2.641,2.264L225.226,136l.377,2.642-.377,1.509-2.642,1.509-1.509,2.264-.755.755v2.264l-1.132,1.509v1.887l-.755,2.264-1.509,2.264.755,2.264,1.132,1.509v1.887l.377.377v.755l-.755.377v2.642l-40.755,1.132v-9.057L175.415,156l-1.887,1.132-.377-.377-2.264-1.509.377-29.811Z" transform="translate(207.604 145.889)"/>
      <path id="Path_2482" data-name="Path 2482" class="cls-1" d="M171.3,121.432l40.755-1.132v1.132l1.509,3.4.377,3.4.755,1.509.755,1.132.377,1.509-1.887,1.132-.377.377-1.132,3.774-2.641,4.151-2.264,6.792v5.283l26.415-1.132.755.755-1.132,2.641v3.774l3.019,3.019.755,3.019-3.774-.755-3.4-1.509-1.132-.377-.755.755-2.641,2.264v1.132l1.132,1.132,1.132.377h3.019l1.509-1.132,1.132-.755h2.264l.377.755-.377.755-1.132.755.377,1.132.755.377.755.377.755-.755,1.132-1.887,3.019-1.509,1.132-.377h.755l.377,1.132-.377,1.132.377.377v1.132l-1.132.755-2.264,3.019-2.264,1.509v1.509l.755,1.132,2.641,1.887,5.283,1.887.377.755-.377,1.51H245.64l-3.774,1.887-.377-3.4-2.264-.755-4.151-1.887-.755-1.509-.755-.377-1.132.755-.755,3.019.377.377.377.377-2.264,1.887-1.132-.377-1.132-1.887h-.755l-1.51.377-.377-.377h-.755l-1.887,2.264h-2.264l-.755-.377-2.642-.755-3.4-4.151-1.887-.377-2.264-1.132-.755-1.132h-.377v-.377l-.377-.377.377-.755-1.132-.377-.377.377-1.887-.377h-.377v-1.132h-1.132l-2.642,2.642,1.132,1.132-.377.755h-4.528l-7.17-1.132-4.528-1.887-9.811,1.51-.755-.755-.377-1.132.377-.377.377-1.132,1.132-1.132,1.509-3.4-1.132-1.887V165.96l.377-.755-.377-1.132.377-1.887,1.132-.755.755-1.509.377-3.4v-1.509l-.377-2.642-1.132-1.887-.377-.755v-.755l-.377-.755-.755-1.509-1.132-.755v-.755l.377-1.887-1.132-2.264-1.887-1.887-.755-1.132Z" transform="translate(213.983 190.266)"/>
      <path id="Path_2483" data-name="Path 2483" class="cls-1" d="M180.372,157.421l60-2.642-.377.755,1.132.755.755,1.509-.377,1.509-1.887,1.509-1.509,1.887v1.132l9.057-.755.755-2.642-.377-.755.755-3.019.755-2.264,1.132-1.132,1.509-.755.755.377.755-.755,1.132-4.151-.377-1.509-.755-.755h-.377v-.377l-.377-.377h-1.132v.755h-.377l-2.642-4.528v-.755l.755-.755v-.755l-1.132-1.509-.377-3.019-4.151-3.019-1.509-.755-3.774-2.264-2.264-2.264-.755-1.887.377-1.132,2.264-2.642-.377-2.642.755-1.887-.377-1.132-3.4-1.509-1.132.377-1.132,1.132-.377-.377-2.264-6.038-1.132-1.132-3.774-3.019-3.774-4.528-.377-1.132-1.132-3.019V92.515l.377-1.887v-.755L215.843,86.1,164.9,87.609l.755,1.509,1.509,1.509.377,2.264,1.887,2.264.755.377-.377,1.887V97.8l5.66,4.151-1.509,2.264-.377,1.887.755,1.132,1.509.755.755,3.019,1.132.755,1.509.377.377.377.377,36.6Z" transform="translate(196.232 95.408)"/>
      <path id="Path_2484" data-name="Path 2484" class="cls-1" d="M164.264,75.264,227.66,73l.755,2.264,1.509,1.132v1.132l-1.132,1.509.755,2.264,1.132,4.528,3.774,1.132,1.132,1.132.377,1.509.755,1.132,2.642,1.509v1.887L242,95.264l.755,3.019v1.51L242,101.679l-1.132.755v1.509l-2.264,2.264-1.887.755-.755.755h-2.642l-1.132.755-.755,1.887v1.132l1.51,1.887.377.755-.377,2.641-1.51,4.151-2.264,1.132-.377,1.509V124.7l-1.132,1.509-3.774-3.774-50.943,1.509-.755-.755-.377-1.887.377-1.132-.755-1.509-.377-1.132.755-1.509-.377-1.132-1.887-1.132.377-2.642.755-1.132-.755-1.509-1.509-1.132-.377-1.509.377-1.509-1.509-1.132-.755-3.019-1.509-1.132,1.132-2.264V95.642l-1.887-1.132V92.245l-.377-1.509L162,87.34l1.509-3.019-.377-1.132,1.132-1.132-.755-2.264-.755-1.132.755-1.509-.755-1.132-.377-.755,1.132-.377Z" transform="translate(188.189 59.077)"/>
      <path id="Path_2485" data-name="Path 2485" class="cls-1" d="M168.979,146.545V115.6l-4.528-4.151v-1.509l2.264-2.264.755-1.509-.377-1.509v-2.642l.377-2.264-1.887-5.66-.377-1.509V89.564l-.377-1.887-.377-8.3L163.7,74.47l-1.509-1.509-1.132-5.283V62.772l.377-2.642.377-1.509-1.132-3.774-.377-1.509h23.019V49.564L183.7,47.3h1.509l2.642.755v3.774l.755,2.642v2.264l2.642,1.887.755-.377,1.887.377.755.755L196.526,59l1.887.755.755.755v.377h3.4l.755-1.132,4.906-.377,3.4.755h.755l-.755,1.132,1.132.755.755-.377.377.755.377,2.264,1.509.755,1.132-1.887.755-.377,1.132.377.755,1.887,2.642.377,1.132,1.132,1.132,1.132h1.509l1.887-.377,4.151-3.4.755.755,1.132,1.132h6.793l1.132.377.755.377,1.509,1.132,1.509-.377L248.6,67.3l-1.887,1.509-3.773,2.264-2.264.755-1.509.377-1.509,1.887-3.4,1.509-1.509,1.132-5.66,6.038-7.925,7.17-.755,1.509-.755.755v9.057l-.755,1.132-1.132.377-3.4,2.642v1.509l-.755.377-.755,2.642,1.887.755,1.132,2.264-1.132,1.887.377,1.887-.377,2.642V123.9l.755.755,1.132,1.132.377.755,3.019.377.755.377v1.132l.755.377,3.774,1.509,1.132,2.641,3.4,2.642,3.774,2.642L232,139v2.264l.377,3.019Z" transform="translate(183.473 -12.205)"/>
      <path id="Path_2486" data-name="Path 2486" class="cls-1" d="M203.511,132.594l-.377-1.509L202,129.953l-3.774-1.132-1.132-4.528-.755-2.264,1.132-1.51v-1.132l-1.509-1.132-.755-2.264-.377-3.019v-2.264l-.377-.755-3.774-2.642-3.4-2.641-1.132-2.641-3.774-1.509-.755-.377V99.009l-.755-.377-3.019-.377-.377-.755-1.132-1.132-.755-.755V91.085l.377-2.642-.377-1.887,1.132-1.887-1.132-2.264-1.887-.755.755-2.642.755-.377V77.123l3.4-2.642,1.132-.377.755-1.132V63.915l.755-.755L182,61.651l1.132.755,1.509.377,2.264-.377,3.019-1.509,6.038-3.019L197.1,57.5l.377.755v1.132l-.755,1.132v.755l-.377,2.264,1.887-1.132h1.509l1.132,1.509,1.509-.377.755.755,1.509.377.755.755.755,1.887.755.377,10.943,2.264h1.509l2.264,1.887h1.509l.755.755.377-.755h.755l3.019.755,1.509.377.755.755-.377.377v.377l1.887.755,1.887,1.132.377,1.509-.755,4.151h.377l2.264-.377.377.377-.377.755-.755.755.755,1.887,1.509,1.132v.377l-2.642,2.641-1.509,3.019-.755,2.264v1.132l.377.377,1.887-1.132,1.887-3.4,2.264-1.887,1.132-.377V88.443l1.132-.755.377-1.132V84.67l.755-.377.377-1.132.755-.755h.377l.377.755v1.887l-1.887,4.528-.755.755-.377,1.887v.755l-1.509,3.4v3.019l-.377,2.264-1.509,1.509-.377,1.132.377,2.264.377,4.151-.755.755-1.132,4.528.755,6.038,1.51,4.151-.377.755.377.755v2.642Z" transform="translate(220.64 16.085)"/>
      <path id="Path_2487" data-name="Path 2487" class="cls-1" d="M234.255,102.747l-.755,3.019v.377h.377l.755,1.132,1.132,1.509,1.132,1.132,3.019,1.509.755.377,2.264.377h.755v3.4l.755.377.755-.755,1.132-1.887v-1.887l1.132-2.264.755-2.264.755-6.792,1.887,2.264,1.132-1.887V99.351l-.377-5.66-.755-4.528L250.1,88.03l-1.887.377-.755.377h-.755v-.377l-.755.377-.377-.377v-.755l1.132-1.887.377-.377.755-.377V83.125l.377-.755.377-.755.755-.755-.755-1.887L237.651,75.2H236.9l-.755,1.509v.755l-.377,2.642-1.509,1.509-.377.377v.755l1.132.755v1.887l-.755.377v3.019l.378.377,1.509.377.755,1.887,1.509.377.377.377.755.755.755.755,1.887,1.132V95.2l-2.264,1.132L238.028,98.6l-.377,1.887Z" transform="translate(386.5 65.177)"/>
      <path id="Path_2488" data-name="Path 2488" class="cls-1" d="M235,62.46l.755,1.509-.377.755.755.755v.377l1.887,4.906.755,3.774-.755,1.509v1.887l2.264,4.906-.377,2.264.377.755.377-.377V85.1h.755l1.132,1.887.755,4.151v2.641l1.132,2.642,1.132,2.641,9.057-1.887v-.755l-1.132-1.132V93.4l.377-.377-.377-1.509-.755-7.17V82.46l.755-4.151.755-2.642.377-1.887-.755-1.509V70.762l.377-1.132,2.642-1.887L258.4,63.97l-1.509-2.264-.377-1.132.755-.377v-.755l-.755-2.642Z" transform="translate(390.66 14.143)"/>
      <path id="Path_2489" data-name="Path 2489" class="cls-1" d="M261.209,94.445l-1.132-.377h-.755l-1.132,1.887-1.132.377.377,1.132-.377.377-.377-.377-.377.377v.377l-14.717,3.4v-.755l-1.132-1.132V97.842l.377-.377-.377-1.509-.755-7.17V86.9l.755-4.151.755-2.642.377-1.887-.755-1.509V75.2l.377-1.132,2.642-1.887,1.509-3.774-1.509-2.264-.377-1.132.755-.377v-.755l-.755-2.642.377-3.019-.755-1.132.377-.377h.755l.755-1.132.755.377.755-.377.755-.377,9.434,28.3v2.264l2.641,1.887.377.377.377.755v.755l1.132,2.264v2.642Z" transform="translate(403.696 9.706)"/>
      <path id="Path_2490" data-name="Path 2490" class="cls-1" d="M247.217,104.287V102.4l-1.132-2.264-1.509-1.509-2.264-1.509-.755-1.132-.755-1.132-1.887-3.019-.755-1.509-1.509-1.509-.377-1.509V85.8l.755-3.019L235.9,82.4h-1.509l-1.132,1.509v.755l-.377.377H232.5l6.415,20.755Z" transform="translate(383.726 85.147)"/>
      <path id="Path_2491" data-name="Path 2491" class="cls-1" d="M228.6,89.187l2.642-1.887,2.264,3.4-3.019,1.887Z" transform="translate(372.909 98.737)"/>
    </g>
    <g class="cls-52" transform="matrix(1, 0, 0, 1, -2967, -545)">
      <path id="Path_2686-2" data-name="Path 2686" class="cls-2" d="M5.5,0A5.5,5.5,0,1,1,0,5.5,5.5,5.5,0,0,1,5.5,0Z" transform="translate(3839.38 5951.75)"/>
    </g>
    <g class="cls-51" transform="matrix(1, 0, 0, 1, -2967, -545)">
      <path id="Path_2687-2" data-name="Path 2687" class="cls-2" d="M5.5,0A5.5,5.5,0,1,1,0,5.5,5.5,5.5,0,0,1,5.5,0Z" transform="translate(3819.81 5990.87)"/>
    </g>
    <g class="cls-50" transform="matrix(1, 0, 0, 1, -2967, -545)">
      <path id="Path_2688-2" data-name="Path 2688" class="cls-2" d="M5.5,0A5.5,5.5,0,1,1,0,5.5,5.5,5.5,0,0,1,5.5,0Z" transform="translate(3834.48 6007.99)"/>
    </g>
    <g class="cls-49" transform="matrix(1, 0, 0, 1, -2967, -545)">
      <path id="Path_2689-2" data-name="Path 2689" class="cls-2" d="M5.5,0A5.5,5.5,0,1,1,0,5.5,5.5,5.5,0,0,1,5.5,0Z" transform="translate(3833.26 6026.33)"/>
    </g>
    <g class="cls-48" transform="matrix(1, 0, 0, 1, -2967, -545)">
      <path id="Path_2690-2" data-name="Path 2690" class="cls-2" d="M5.5,0A5.5,5.5,0,1,1,0,5.5,5.5,5.5,0,0,1,5.5,0Z" transform="translate(3812.48 6012.88)"/>
    </g>
    <g class="cls-47" transform="matrix(1, 0, 0, 1, -2967, -545)">
      <path id="Path_2691-2" data-name="Path 2691" class="cls-2" d="M5.5,0A5.5,5.5,0,1,1,0,5.5,5.5,5.5,0,0,1,5.5,0Z" transform="translate(3805.14 5983.54)"/>
    </g>
    <g class="cls-46" transform="matrix(1, 0, 0, 1, -2967, -545)">
      <path id="Path_2692-2" data-name="Path 2692" class="cls-2" d="M5.5,0A5.5,5.5,0,1,1,0,5.5,5.5,5.5,0,0,1,5.5,0Z" transform="translate(3812.48 6030)"/>
    </g>
    <g class="cls-45" transform="matrix(1, 0, 0, 1, -2967, -545)">
      <path id="Path_2693-2" data-name="Path 2693" class="cls-2" d="M5.5,0A5.5,5.5,0,1,1,0,5.5,5.5,5.5,0,0,1,5.5,0Z" transform="translate(3775.79 6009.21)"/>
    </g>
    <g class="cls-44" transform="matrix(1, 0, 0, 1, -2967, -545)">
      <path id="Path_2694-2" data-name="Path 2694" class="cls-2" d="M5.5,0A5.5,5.5,0,1,1,0,5.5,5.5,5.5,0,0,1,5.5,0Z" transform="translate(3752.56 6049.56)"/>
    </g>
    <g class="cls-43" transform="matrix(1, 0, 0, 1, -2967, -545)">
      <path id="Path_2695-2" data-name="Path 2695" class="cls-2" d="M5.5,0A5.5,5.5,0,1,1,0,5.5,5.5,5.5,0,0,1,5.5,0Z" transform="translate(3797.8 6056.9)"/>
    </g>
    <g class="cls-42" transform="matrix(1, 0, 0, 1, -2967, -545)">
      <path id="Path_2696-2" data-name="Path 2696" class="cls-2" d="M5.5,0A5.5,5.5,0,1,1,0,5.5,5.5,5.5,0,0,1,5.5,0Z" transform="translate(3785.58 6081.35)"/>
    </g>
    <g class="cls-41" transform="matrix(1, 0, 0, 1, -2967, -545)">
      <path id="Path_2697-2" data-name="Path 2697" class="cls-2" d="M5.5,0A5.5,5.5,0,1,1,0,5.5,5.5,5.5,0,0,1,5.5,0Z" transform="translate(3770.9 6075.24)"/>
    </g>
    <g class="cls-40" transform="matrix(1, 0, 0, 1, -2967, -545)">
      <path id="Path_2698-2" data-name="Path 2698" class="cls-2" d="M5.5,0A5.5,5.5,0,1,1,0,5.5,5.5,5.5,0,0,1,5.5,0Z" transform="translate(3725.66 6096.03)"/>
    </g>
    <g class="cls-39" transform="matrix(1, 0, 0, 1, -2967, -545)">
      <path id="Path_2699-2" data-name="Path 2699" class="cls-2" d="M5.5,0A5.5,5.5,0,1,1,0,5.5,5.5,5.5,0,0,1,5.5,0Z" transform="translate(3762.34 6108.25)"/>
    </g>
    <g class="cls-38" transform="matrix(1, 0, 0, 1, -2967, -545)">
      <path id="Path_2700-2" data-name="Path 2700" class="cls-2" d="M5.5,0A5.5,5.5,0,1,1,0,5.5,5.5,5.5,0,0,1,5.5,0Z" transform="translate(3750.12 6144.93)"/>
    </g>
    <g class="cls-37" transform="matrix(1, 0, 0, 1, -2967, -545)">
      <path id="Path_2701-2" data-name="Path 2701" class="cls-2" d="M5.5,0A5.5,5.5,0,1,1,0,5.5,5.5,5.5,0,0,1,5.5,0Z" transform="translate(3737.89 6176.72)"/>
    </g>
    <g class="cls-36" transform="matrix(1, 0, 0, 1, -2967, -545)">
      <path id="Path_2702-2" data-name="Path 2702" class="cls-2" d="M5.5,0A5.5,5.5,0,1,1,0,5.5,5.5,5.5,0,0,1,5.5,0Z" transform="translate(3702.43 6201.18)"/>
    </g>
    <g class="cls-35" transform="matrix(1, 0, 0, 1, -2967, -545)">
      <path id="Path_2703-2" data-name="Path 2703" class="cls-2" d="M5.5,0A5.5,5.5,0,1,1,0,5.5,5.5,5.5,0,0,1,5.5,0Z" transform="translate(3739.11 6274.54)"/>
    </g>
    <g class="cls-34" transform="matrix(1, 0, 0, 1, -2967, -545)">
      <path id="Path_2704-2" data-name="Path 2704" class="cls-2" d="M5.5,0A5.5,5.5,0,1,1,0,5.5,5.5,5.5,0,0,1,5.5,0Z" transform="translate(3653.52 6201.18)"/>
    </g>
    <g class="cls-33" transform="matrix(1, 0, 0, 1, -2967, -545)">
      <path id="Path_2705-2" data-name="Path 2705" class="cls-2" d="M5.5,0A5.5,5.5,0,1,1,0,5.5,5.5,5.5,0,0,1,5.5,0Z" transform="translate(3616.84 6213.41)"/>
    </g>
    <g class="cls-32" transform="matrix(1, 0, 0, 1, -2967, -545)">
      <path id="Path_2706-2" data-name="Path 2706" class="cls-2" d="M5.5,0A5.5,5.5,0,1,1,0,5.5,5.5,5.5,0,0,1,5.5,0Z" transform="translate(3587.5 6250.09)"/>
    </g>
    <g class="cls-31" transform="matrix(1, 0, 0, 1, -2967, -545)">
      <path id="Path_2707-2" data-name="Path 2707" class="cls-2" d="M5.5,0A5.5,5.5,0,1,1,0,5.5,5.5,5.5,0,0,1,5.5,0Z" transform="translate(3575.27 6176.72)"/>
    </g>
    <g class="cls-30" transform="matrix(1, 0, 0, 1, -2967, -545)">
      <path id="Path_2708-2" data-name="Path 2708" class="cls-2" d="M5.5,0A5.5,5.5,0,1,1,0,5.5,5.5,5.5,0,0,1,5.5,0Z" transform="translate(3569.16 6118.03)"/>
    </g>
    <g class="cls-29" transform="matrix(1, 0, 0, 1, -2967, -545)">
      <path id="Path_2709-2" data-name="Path 2709" class="cls-2" d="M5.5,0A5.5,5.5,0,1,1,0,5.5,5.5,5.5,0,0,1,5.5,0Z" transform="translate(3610.73 6083.8)"/>
    </g>
    <g class="cls-28" transform="matrix(1, 0, 0, 1, -2967, -545)">
      <path id="Path_2710-2" data-name="Path 2710" class="cls-2" d="M5.5,0A5.5,5.5,0,1,1,0,5.5,5.5,5.5,0,0,1,5.5,0Z" transform="translate(3649.86 6083.8)"/>
    </g>
    <g class="cls-27" transform="matrix(1, 0, 0, 1, -2967, -545)">
      <path id="Path_2711-2" data-name="Path 2711" class="cls-2" d="M5.5,0A5.5,5.5,0,1,1,0,5.5,5.5,5.5,0,0,1,5.5,0Z" transform="translate(3690.21 6071.57)"/>
    </g>
    <g class="cls-26" transform="matrix(1, 0, 0, 1, -2967, -545)">
      <path id="Path_2712-2" data-name="Path 2712" class="cls-2" d="M5.5,0A5.5,5.5,0,1,1,0,5.5,5.5,5.5,0,0,1,5.5,0Z" transform="translate(3670.64 6122.92)"/>
    </g>
    <g class="cls-25" transform="matrix(1, 0, 0, 1, -2967, -545)">
      <path id="Path_2713-2" data-name="Path 2713" class="cls-2" d="M5.5,0A5.5,5.5,0,1,1,0,5.5,5.5,5.5,0,0,1,5.5,0Z" transform="translate(3653.52 6153.49)"/>
    </g>
    <g class="cls-24" transform="matrix(1, 0, 0, 1, -2967, -545)">
      <path id="Path_2714-2" data-name="Path 2714" class="cls-2" d="M5.5,0A5.5,5.5,0,1,1,0,5.5,5.5,5.5,0,0,1,5.5,0Z" transform="translate(3659.64 6023.89)"/>
    </g>
    <g class="cls-23" transform="matrix(1, 0, 0, 1, -2967, -545)">
      <path id="Path_2715-2" data-name="Path 2715" class="cls-2" d="M5.5,0A5.5,5.5,0,1,1,0,5.5,5.5,5.5,0,0,1,5.5,0Z" transform="translate(3598.5 6007.99)"/>
    </g>
    <g class="cls-22" transform="matrix(1, 0, 0, 1, -2967, -545)">
      <path id="Path_2716-2" data-name="Path 2716" class="cls-2" d="M5.5,0A5.5,5.5,0,1,1,0,5.5,5.5,5.5,0,0,1,5.5,0Z" transform="translate(3626.62 5978.65)"/>
    </g>
    <g class="cls-21" transform="matrix(1, 0, 0, 1, -2967, -545)">
      <path id="Path_2717-2" data-name="Path 2717" class="cls-2" d="M5.5,0A5.5,5.5,0,1,1,0,5.5,5.5,5.5,0,0,1,5.5,0Z" transform="translate(3541.03 5982.31)"/>
    </g>
    <g class="cls-20" transform="matrix(1, 0, 0, 1, -2967, -545)">
      <path id="Path_2718-2" data-name="Path 2718" class="cls-2" d="M5.5,0A5.5,5.5,0,1,1,0,5.5,5.5,5.5,0,0,1,5.5,0Z" transform="translate(3553.26 6055.68)"/>
    </g>
    <g class="cls-19" transform="matrix(1, 0, 0, 1, -2967, -545)">
      <path id="Path_2719-2" data-name="Path 2719" class="cls-2" d="M5.5,0A5.5,5.5,0,1,1,0,5.5,5.5,5.5,0,0,1,5.5,0Z" transform="translate(3492.13 6114.37)"/>
    </g>
    <g class="cls-18" transform="matrix(1, 0, 0, 1, -2967, -545)">
      <path id="Path_2720-2" data-name="Path 2720" class="cls-2" d="M5.5,0A5.5,5.5,0,1,1,0,5.5,5.5,5.5,0,0,1,5.5,0Z" transform="translate(3470.12 6065.46)"/>
    </g>
    <g class="cls-17" transform="matrix(1, 0, 0, 1, -2967, -545)">
      <path id="Path_2721-2" data-name="Path 2721" class="cls-2" d="M5.5,0A5.5,5.5,0,1,1,0,5.5,5.5,5.5,0,0,1,5.5,0Z" transform="translate(3472.56 6011.66)"/>
    </g>
    <g class="cls-16" transform="matrix(1, 0, 0, 1, -2967, -545)">
      <path id="Path_2722-2" data-name="Path 2722" class="cls-2" d="M5.5,0A5.5,5.5,0,1,1,0,5.5,5.5,5.5,0,0,1,5.5,0Z" transform="translate(3472.56 5962.75)"/>
    </g>
    <g class="cls-15" transform="matrix(1, 0, 0, 1, -2967, -545)">
      <path id="Path_2723-2" data-name="Path 2723" class="cls-2" d="M5.5,0A5.5,5.5,0,1,1,0,5.5,5.5,5.5,0,0,1,5.5,0Z" transform="translate(3362.52 5962.75)"/>
    </g>
    <g class="cls-14" transform="matrix(1, 0, 0, 1, -2967, -545)">
      <path id="Path_2724-2" data-name="Path 2724" class="cls-2" d="M5.5,0A5.5,5.5,0,1,1,0,5.5,5.5,5.5,0,0,1,5.5,0Z" transform="translate(3382.08 6028.78)"/>
    </g>
    <g class="cls-13" transform="matrix(1, 0, 0, 1, -2967, -545)">
      <path id="Path_2725-2" data-name="Path 2725" class="cls-2" d="M5.5,0A5.5,5.5,0,1,1,0,5.5,5.5,5.5,0,0,1,5.5,0Z" transform="translate(3300.16 6004.32)"/>
    </g>
    <g class="cls-12" transform="matrix(1, 0, 0, 1, -2967, -545)">
      <path id="Path_2726-2" data-name="Path 2726" class="cls-2" d="M5.5,0A5.5,5.5,0,1,1,0,5.5,5.5,5.5,0,0,1,5.5,0Z" transform="translate(3239.03 5930.96)"/>
    </g>
    <g class="cls-11" transform="matrix(1, 0, 0, 1, -2967, -545)">
      <path id="Path_2727-2" data-name="Path 2727" class="cls-2" d="M5.5,0A5.5,5.5,0,1,1,0,5.5,5.5,5.5,0,0,1,5.5,0Z" transform="translate(3239.03 5992.09)"/>
    </g>
    <g class="cls-10" transform="matrix(1, 0, 0, 1, -2967, -545)">
      <path id="Path_2728-2" data-name="Path 2728" class="cls-2" d="M5.5,0A5.5,5.5,0,1,1,0,5.5,5.5,5.5,0,0,1,5.5,0Z" transform="translate(3254.92 6070.35)"/>
    </g>
    <g class="cls-9" transform="matrix(1, 0, 0, 1, -2967, -545)">
      <path id="Path_2729-2" data-name="Path 2729" class="cls-2" d="M5.5,0A5.5,5.5,0,1,1,0,5.5,5.5,5.5,0,0,1,5.5,0Z" transform="translate(3209.68 6104.58)"/>
    </g>
    <g class="cls-8" transform="matrix(1, 0, 0, 1, -2967, -545)">
      <path id="Path_2730-2" data-name="Path 2730" class="cls-2" d="M5.5,0A5.5,5.5,0,1,1,0,5.5,5.5,5.5,0,0,1,5.5,0Z" transform="translate(3322.17 6085.02)"/>
    </g>
    <g class="cls-7" transform="matrix(1, 0, 0, 1, -2967, -545)">
      <path id="Path_2731-2" data-name="Path 2731" class="cls-2" d="M5.5,0A5.5,5.5,0,1,1,0,5.5,5.5,5.5,0,0,1,5.5,0Z" transform="translate(3400.42 6099.69)"/>
    </g>
    <g class="cls-6" transform="matrix(1, 0, 0, 1, -2967, -545)">
      <path id="Path_2732-2" data-name="Path 2732" class="cls-2" d="M5.5,0A5.5,5.5,0,1,1,0,5.5,5.5,5.5,0,0,1,5.5,0Z" transform="translate(3385.75 6173.06)"/>
    </g>
    <g class="cls-5" transform="matrix(1, 0, 0, 1, -2967, -545)">
      <path id="Path_2733-2" data-name="Path 2733" class="cls-2" d="M5.5,0A5.5,5.5,0,1,1,0,5.5,5.5,5.5,0,0,1,5.5,0Z" transform="translate(3306.28 6165.72)"/>
    </g>
    <g class="cls-4" transform="matrix(1, 0, 0, 1, -2967, -545)">
      <path id="Path_2734-2" data-name="Path 2734" class="cls-2" d="M5.5,0A5.5,5.5,0,1,1,0,5.5,5.5,5.5,0,0,1,5.5,0Z" transform="translate(3478.68 6235.41)"/>
    </g>
    <g class="cls-3" transform="matrix(1, 0, 0, 1, -2967, -545)">
      <path id="Path_2735-2" data-name="Path 2735" class="cls-2" d="M5.5,0A5.5,5.5,0,1,1,0,5.5,5.5,5.5,0,0,1,5.5,0Z" transform="translate(3508.02 6165.72)"/>
    </g>
  </g>
</svg>
