<svg xmlns="http://www.w3.org/2000/svg" viewBox="3110.71 5946 812.89 502.195">
  <defs>
    <style>
      .cls-1 {
        fill: #c5d9f1;
      }

      .cls-2 {
        fill: #98bbe6;
      }

      .cls-3 {
        fill: #377bd0;
      }

      .cls-4 {
        fill: #e3e3e3;
      }

      .cls-5 {
        fill: #191919;
      }

      .cls-6 {
        fill: #fff;
      }
    </style>
  </defs>
  <g id="states_maps" data-name="states maps" transform="translate(3041.51 5908)">
    <g id="OK_2_" transform="translate(375.075 318.458)">
      <g id="OK_3_">
        <path id="Path_2442" data-name="Path 2442" class="cls-1" d="M270.027,105.506l-114.813-2.629L139.876,102,139,111.641l46.889,2.629-1.315,38.125h1.753l.876.876,2.629,3.068.876.438,3.067-.438,1.315-.876,1.753.876.438.876v.876l.876,1.315.438.438,4.382.876,1.315.876h.876l.438-.438,1.315-.438.876,1.753,1.753.438,1.315-.876,3.944.438v.438l1.753,1.753.876.438v1.753l3.068.876.438-2.191,1.315-.438,3.944,3.068h.438l1.753-1.315h1.315v2.191l.438,1.315.876-.438v-1.315l1.315-1.753,1.315-.876h.876v1.315l1.753.876h.876l.876-.876h.876l.438.438v.438l1.753.438,2.191,1.753,2.629-1.753.877-.438,3.506-.438,3.068-.876.876-.438H256l3.506.438,2.191-.876.438-.438,7.888,4.382,1.315.438.438.876h.876l.438-34.619-2.629-21.473Z" transform="translate(-139 -102)"/>
      </g>
    </g>
    <g id="GA_2_" transform="translate(650.274 347.38)">
      <g id="GA_3_" transform="translate(0 0)">
        <path id="Path_2443" data-name="Path 2443" class="cls-2" d="M201.8,113.42l11.394,41.63,1.315.876.876,3.068.438,1.315,1.315.876,1.315.876-.438,1.753,1.315,1.753-.438.876-1.315,1.753v2.629l-.876,2.629v3.506l2.191,4.382-.438,4.82,1.753,3.067.438,1.315.438.876,1.315,1.315v1.315l.876,1.753,44.7-3.068.876,2.191.438.876,2.629.438.438-2.191-1.315-4.382v-1.315l.438-.876,1.315-.876,3.067,1.315,3.068.438,1.315-.438-.438-3.506-.438-1.753v-3.506l2.629-7.011.438-2.629.876-3.068,1.315-2.629,1.315-1.315.876-.438.438-.876-1.315-.438v-.438H282.87l-.438-.438-.876-.876-.876-3.944-1.753-3.067-2.629-.876-1.315-3.944-1.315-1.753-.876-2.191-1.315-.876-3.068-.876-1.315-2.191L264.9,137.96v-.876l-.876-2.191-.876-.438-2.191-.876-5.259-4.82-2.191-.876-.876-1.315-2.191-2.191-1.315-3.068-1.753-1.315-.438-1.315-3.068-.438-4.382-2.191-1.315-1.315,1.315-3.068,1.315-1.315.438-.876.438-.876h-.438l-23.225,3.068Z" transform="translate(-201.8 -108.6)"/>
      </g>
    </g>
    <g id="VA_2_" transform="translate(677.882 248.782)">
      <g id="VA_3_">
        <path id="Path_2444" data-name="Path 2444" class="cls-1" d="M325.1,135.618l-39,7.45-41.192,6.573-.876-.438-1.753.438-4.382.438.438-.876-4.382.876v.438L208.1,153.585l.876-.876,5.7-2.629.438-1.315,3.068-2.191v-1.315l.438-.876,1.753-.876v-1.753l1.753-1.315,7.888-7.011.438-1.753.438.438-.438,1.753,2.629,2.191,3.506,1.315H237.9l1.753-1.753v-.876l1.315-.438,1.315.876.876.438,1.315-.438,3.944-1.753.438-2.629h.438l.876.876,3.068-2.629.876.438,2.629-3.506-.438-1.315v-2.191l2.629-4.82,3.506-12.708h.438l1.753,1.315.438.876.876.876,2.191-.438,1.315-2.191,1.315-4.82.876-1.753,1.753.876,1.315-2.629,1.315-.438.876-1.753.876-2.629.876-.438v-.438l-.438-.438.438-3.944.438-.438.438-.438,7.011,4.382.876.438.438-.438.876-3.944h1.315l1.315.438,1.753.438-.876,1.753,1.753,1.753h3.068l1.315,1.315,1.753.876,1.315,1.753-.438.876-1.753,3.506-1.315,3.067.438,2.191h2.191l2.191-1.315,1.315,1.753.876.438h.876l1.315.876h.438l.876-.438h.438l3.506,1.753,2.629.876,1.315,1.753v.876l-.876.876.438,2.629-.438.438-.876.438v.438l2.629,1.315.876,2.191v.876l-.438.438-2.191-.438-.438.876.876.876h.438v.876l-1.315.438h-.438v.438l.876.438h1.753l1.753.438.438.876-1.753,1.753h-.876l-2.191-.876v.876l1.753.876,1.315,1.315,1.753-.438,1.753-1.315H325.1v.438l1.753,5.259-1.315,1.315H325.1Zm-.876-28.046h.438V110.2l-1.315,1.315-.438,1.315-.438,3.068.438,2.629V121.6l.876,2.191.438-3.068.876-3.067,1.753-4.382.876-1.753.438-1.753v-3.506l2.191-1.753.438-.876-5.259,1.753Z" transform="translate(-208.1 -86.1)"/>
      </g>
    </g>
    <g id="NY_3_" transform="translate(717.759 126.958)">
      <g id="NY_5_">
        <path id="Path_2445" data-name="Path 2445" class="cls-2" d="M293.45,132.358l12.708,4.382.876,2.191-.876.876-.438.876-.438.876v2.191l-.876.438-.438.438-1.315,2.191v.876l.438.438.876-.438v-.876l2.191-1.753H310.1l.877-.438,2.629-.876,2.191-.876,1.315-.876,1.753-1.753,7.011-4.82,2.191-.876,1.315-1.315,1.315-.438.876-.876,1.315-1.315.876-.438.876-1.753v-.876l-1.753,1.753-1.315.438-2.191.438-.876,1.315-.438.876-1.753.876-.438-.438.438-1.315,1.315-1.315,1.315-2.191-.438-.438-1.315,1.315-.438.876-1.315,1.315-3.944,2.191-4.82,2.629-4.382,1.753-1.315.876-1.753,2.191-.876-.876-.438-1.315.877-1.753,1.315-1.315-1.753-1.315,2.629-2.629v-.876l-.877-1.315-2.191-14.461-.438-.438V100.807l-1.315-3.068-1.315-3.068V91.6l-.876-4.82-1.315-2.191h-.876v.438l-.438.438-.438-.876.438-2.629-2.629-5.7V74.076l.876-1.753-.876-4.382-2.191-5.7v-.438l-.876-.876.438-.876L295.2,58.3h0L276.8,62.682l-.438-.438h-.438l-1.753.876-4.382,4.82L265.4,74.076l-.876.876.438.876-.438,2.629-.876.876-4.82,4.382-.438.876.438,2.191h1.753l.876.438.438,1.315-.876.876.438,1.315.876,1.753-.438,3.068-2.629.876-4.382,4.82-3.068.876-7.45,2.191-2.629-.876L239.549,103l-3.944.438-3.944.876-4.382,1.753-1.753,1.315-.876,2.191v1.753l3.068,3.067.438.438v1.753l-.438,1.315-.876.438-1.315,3.067-5.7,6.135-2.629,1.753,1.315,4.82L281.18,121.4l1.315.876.438,1.315.438.438.438-.438.438.876h1.315l1.753,3.944.438,1.315.876.438v.438l3.506.438Z" transform="translate(-217.2 -58.3)"/>
      </g>
    </g>
    <g id="FL_2_" transform="translate(625.734 425.383)">
      <g id="FL_3_">
        <path id="Path_2446" data-name="Path 2446" class="cls-1" d="M239.583,130.344,196.2,134.726v.438l.438.438-.438.876v1.315l1.315,1.753.876.876h.438l1.315.876.438.438-.876,2.191v.438l.876.438.438.438v.438l-.876.876v.876l.438.438,2.191-.876.876-.438.876-2.191.438-.876.876.438h.877l.438-.438h.876v.876l-1.753,1.315.438.438,1.315-.876h1.753l7.888-2.629h1.315v.438l-1.753,1.315.876.438h3.506l3.068,1.315,3.506,1.753.876.438V147l.438-.438.876.876,2.191.438.438.438v.438l-.876.438.438.438,4.382,3.506.438.876-.438,1.315v.876l-.876-.876-.438-.438V156.2l.876.438,6.135-1.753.438-.876h1.753l5.259-3.944h3.068v-.876l-.438-.438.876-2.191,5.259-.876,7.888,3.944v1.315l2.191,1.315,1.753,2.629,4.82,3.506.438,1.315,1.315,1.315h3.944l2.629,4.382.876.438-.438,1.315,1.315,4.382-.438,4.82-1.315,4.82.438,4.382.438,1.315,3.068,2.191.876-1.753-.876-.876-.877-2.629v-.438l1.753-.438,1.315,2.629h.876v-1.315l.438-.438.876.438v1.315l-.876,1.315-.876,1.315-.876,3.506-.876.438v1.315l.876,1.315,1.753,1.315,2.629,6.135,4.382,2.629.438-.438v-1.315h1.315l.876,2.629v1.315l1.315,3.067,1.753.876,1.753.876,3.068,8.326.876.438,4.382.876,1.315.876,4.82,5.7,2.191,1.315h.438l1.315.877.438.876-.876.438-.876-.438h-.438l-.876.438v.876l.876.438,2.191.438,1.315-.438,1.753-.438,6.573-2.629,1.753-2.629v-.438l-.877-3.944v-1.753l1.315-3.067h1.753l-1.753-6.573.438-3.506-.438-6.135-1.315-5.259-.876-1.753-4.82-6.135-3.068-7.011-3.506-4.82v-1.753l-1.315-2.629V171.1l1.315-1.753v-.438l-4.82-6.573-3.067-2.629L313.2,158.39l-.438-.876-3.068-3.944-3.944-7.45-1.315-4.382L301.81,135.6v-.876l-.876-.876-.876-.438-.438-4.382-.438-1.315-1.315.438-3.068-.438-3.067-1.315-1.315.876-.438.876v1.315l1.315,4.382-.438,2.191-2.629-.438-.438-.876-.877-2.191-44.7,3.067-.876-1.753v-1.315l-1.315-1.315Z" transform="translate(-196.2 -126.4)"/>
      </g>
    </g>
    <g id="NM_2_" transform="translate(266.835 307.941)">
      <g id="NM_3_">
        <path id="Path_2447" data-name="Path 2447" class="cls-3" d="M130.076,99.6,114.3,210.469h0l14.461,1.753.876-8.764,27.169,3.506-.438-.438-.438-1.753.438-.876v-.438l-.438-.438.438-.438,58.721,5.259,7.011-88.081h.438l.876-9.641Z" transform="translate(-114.3 -99.6)"/>
      </g>
    </g>
    <g id="MD_2_" transform="translate(730.906 235.635)">
      <g id="MD_3_" transform="translate(0)">
        <path id="Path_2448" data-name="Path 2448" class="cls-1" d="M274.1,83.1l-12.708,2.629L220.2,93.617l2.191,10.079.876-1.315.877-.438,3.067-3.506L228.526,98l1.315-1.753.876-.438.876-2.191.876.876,1.753.438,2.191-.438.438-1.315,4.82-1.753.876.438h1.315l1.315-.438.438,1.753.876.438,1.753,3.506h1.315l1.315.438L252.19,98l-.876,1.315,1.753,1.753H255.7l1.753,1.753,1.753.438,1.315,1.753-.438.876-1.753,3.506-1.315,3.068.438,2.191h2.191l2.191-1.315,1.315,2.191.876.438v-.876l2.191-.438,2.191.438,3.506.876,1.315.876.438-.438.438-.438-.876-.876-1.315-2.191-1.315-.438h-.438l.438-.876h.438l.438-.876-1.753-.438-.876-1.753-1.315-3.506-.438-1.315v-2.191L267.527,98v-.876l-.876-.438V95.37l.438-.438.438-.876.438-1.315,2.629-1.753.438-.876.876-2.629,1.315.438.876.876-1.315,2.191-.876,1.315-.876,1.315-.876,1.753.876,1.753,1.315.438.438,3.506v.438l-2.191,1.315.438.876,1.753.438.438.876-.438,1.753.438.876v.876l.876,2.191,2.191,1.753h.876l.876-.876h1.315l.438.438-.438,1.315,1.315,2.191v.438l.876,1.315H283.3l.438.438.876-1.753,5.259-1.753v-.876l.438-.876,1.315-6.573-.438-.438L281.55,107.2Z" transform="translate(-220.2 -83.1)"/>
      </g>
    </g>
    <g id="TX_2_" transform="translate(308.466 328.099)">
      <g id="TX_3_" transform="translate(0 0)">
        <path id="Path_2449" data-name="Path 2449" class="cls-2" d="M324.065,163.8h-.876l-.438-.876-1.315-.438-7.888-4.382-.438.438-2.191.876-3.506-.438H305.66l-.876.438-3.068.876-3.506.438-.877.438-2.629,1.753-2.191-1.753-1.753-.438v-.438l-.438-.438h-.876l-.876.876h-.876l-1.753-.876v-1.315h-.876l-1.315.876-1.315,1.753v1.315l-.876.438-.438-1.315v-2.191H279.8l-1.753,1.315h-.438l-3.944-3.068-1.315.438-.438,2.191-3.068-.876v-1.753l-.876-.438-1.753-1.753v-.438l-3.944-.438-1.315.876-1.753-.438-.876-1.753-1.315.438-.438.438H255.7l-1.315-.876-4.382-.876-.438-.438-.876-1.315v-.876l-.438-.876-1.753-.876-1.315.876-3.067.438-.876-.438-2.629-3.068-.876-.876h-1.753l1.315-38.125L190.409,104.2h-.438l-7.011,88.081-58.721-5.259-.438.438.438.438v.438l-.438.876.438,1.753.438.438,3.068,1.753.876,2.191.876,2.629,3.068,2.191,9.2,10.517,7.888,6.135.438,1.315.438,1.315V221.2l.438.876,1.753,2.629v6.573l.438,1.753,2.629,4.382,11.394,8.326,7.888,4.82,2.191.438,1.753-.876,1.315-1.753,1.753-1.315,3.068-7.45,1.753-2.629,1.315-.438,2.629.438h.438l.438-1.315.876-.876,1.753.438,1.315,1.315,4.382.438,1.315.438,2.629.876,1.315-.438,3.506,1.753.876,2.191.876.438v.438l.876.438,1.315.876,2.191,2.629,3.068,3.068,1.753,2.629.438.876,4.82,12.27.876,2.629,5.7,6.135.438,1.753,3.506,3.944,1.315.438,1.315,2.191.438.877v4.382l.876,1.315.876,4.82.876,1.315,3.944,7.888.438,1.753,2.629.438,3.067,1.753,3.944,1.315,5.259,3.506,7.45.876h1.753l3.944,2.629,1.753.876,2.191-2.191,1.315.438.876-.438v-1.315l-1.753-.438.438-.876-1.753-1.753-2.629-9.2-1.315-3.506,2.191-5.7-.438-1.753-.438-.438h-.438l-.438-.438v-.438l.438-.438,2.191-1.315,1.753-5.259L276.3,280.8l-.438-2.629,1.315-1.315,1.753,1.315,2.629-2.191.876-2.629-1.315-.876.438-1.315.438.438h.877l.876-.876.876.438h1.753v-3.068l.438-.438h.876l.876.438,3.944-1.315h.438l.438-.876-.438-.438-2.191-1.315v-.876l3.944-.876.438-.876,1.315-.438v.438l-.438.438.876.876h.438l.877-.438,6.135-1.753,9.641-6.573.438-2.191,4.82-4.382v-.438l-1.753-2.629.438-2.191L321,240.923h.438L321,243.553l.438.438,3.506-.438.438.876,7.011-3.068,4.382-.438h0v-.438l-.876-.876-.438-1.315.438-.438.438-1.315,1.315-1.315,1.753-3.944-1.315-2.191v-1.315l.438-.876-.438-1.315.438-2.191,1.315-.876.876-1.753.438-3.944v-1.753L340.717,212,339.4,209.81l-.438-.876v-.876l-.438-.876-.876-1.753-1.315-.876v-.876l.438-2.191-1.315-2.629-2.191-2.191-.877-1.315-.438-19.281V165.55l-2.629-.876-2.191,1.315-.438-.438Z" transform="translate(-123.8 -104.2)"/>
      </g>
    </g>
    <g id="KS_2_" transform="translate(391.289 260.175)">
      <g id="KS_3_">
        <path id="Path_2450" data-name="Path 2450" class="cls-3" d="M145.768,88.7l99.913,2.191,6.573,4.82L250.5,98.341l-.438,2.191.876,1.315,1.753.876.876,3.506,1.315.876,1.753.438.438.438.438,42.507L142.7,147.859Z" transform="translate(-142.7 -88.7)"/>
      </g>
    </g>
    <g id="NE_2_" transform="translate(366.31 198.825)">
      <g id="NE_3_">
        <path id="Path_2451" data-name="Path 2451" class="cls-1" d="M137,113.7l3.506-39,78.879,3.944,2.191,3.068H224.2l2.191-.438,1.315,1.315,1.315,2.629,1.753.438,2.191-.438,2.191-1.753h2.629l1.315.438,6.573,4.382,3.067,1.753v2.191l2.191,1.315v1.315l-1.315,2.629,1.753,1.315.876,3.506L254,103.622l-.438,1.753.438,1.753,1.753,1.315.876,1.753-.876,1.315-.438,3.068,2.191,1.315.438,1.315-.876,1.753.438,1.315.876,1.753-.438,1.315.438,2.191.876.876.876,1.753,1.753,1.753.438,2.629,2.191,2.629.876.438-.438,2.191v.438l-99.913-2.191,1.315-19.72Z" transform="translate(-137 -74.7)"/>
      </g>
    </g>
    <g id="SD_2_" transform="translate(369.816 140.981)">
      <g id="SD_3_">
        <path id="Path_2452" data-name="Path 2452" class="cls-3" d="M137.8,119.344l3.068-39L142.62,61.5l101.666,4.382.438,1.753-.876,1.753-2.629,2.629V73.77l5.259,4.82v35.934l-.876-.438-1.315.438.438.876.876,1.315-.876,1.753.876,1.315.876,2.629-1.315,1.315.438,1.315-1.753,3.506,1.753,3.944.438,1.753v.438l-3.067-1.753-6.573-4.382-1.315-.438h-2.629l-2.191,1.753-2.191.438-1.753-.438L225,127.232l-1.315-1.315-2.191.438H218.87l-2.191-3.068Z" transform="translate(-137.8 -61.5)"/>
      </g>
    </g>
    <g id="ND_3_" transform="translate(374.636 81.383)">
      <g id="ND_5_">
        <path id="Path_2453" data-name="Path 2453" class="cls-2" d="M138.9,107.5l4.82-59.6,26.293,1.753,18.843,1.753,43.822.876.438,1.753,1.315,4.382-.438,1.753-.438,3.068v5.7l1.315,6.135,1.753,1.753.876,5.7.438,9.641.438,2.191v3.506l.438,1.753L241,106.183l-.438,2.629v3.068Z" transform="translate(-138.9 -47.9)"/>
      </g>
    </g>
    <g id="MT_2_" transform="translate(220.384 59.473)">
      <g id="MT_3_">
        <path id="Path_2454" data-name="Path 2454" class="cls-1" d="M256.2,143.251,159.353,131.42,158.039,141.5h0l-1.315-1.315-.876-2.191-1.753-2.191-1.753,1.315v1.315H148.4l-.438.438-1.753-.876h-3.944l-.438-.876H140.51l-1.315,1.315h-1.315l-3.068-1.315-.438.438-1.315,1.753-1.753-.876-.876-2.191v-.876l.438-2.629-.438-.876-1.315-2.191h-1.753l-1.315-2.191.876-1.753v-1.315l-1.753-2.191-.876-2.629v-3.944l.438-2.191-.876-.876-.438-.438-.438-1.315-.438-.438-.438.438-4.382,3.506h-.876l-2.629-2.629.438-1.315v-3.068l2.191-1.753.438-1.315-.438-.438v-3.068l1.315-.876-.438-1.315,3.068-6.135-.876-1.315-2.629-.438-.438-1.315h-2.191l-.876-2.629-.438-2.629-2.191-5.259-3.506-3.068-1.753-2.191-.876-.876.876-.876.876-2.191-.876-3.068L103.7,61.305,107.206,42.9l14.461,2.191,39,6.573,39.878,7.011,62.227,6.135-4.82,59.6Z" transform="translate(-103.7 -42.9)"/>
      </g>
    </g>
    <g id="WY_2_" transform="translate(264.206 147.992)">
      <g id="WY_3_">
        <path id="Path_2455" data-name="Path 2455" class="cls-3" d="M215.8,152.934l3.506-39,3.068-39L125.532,63.1l-1.315,10.079-7.011,48.642h-.438L113.7,140.664l28.922,4.382Z" transform="translate(-113.7 -63.1)"/>
      </g>
    </g>
    <g id="CO_2_" transform="translate(282.611 229.939)">
      <g id="CO_3_">
        <path id="Path_2456" data-name="Path 2456" class="cls-2" d="M117.9,159.8l10.517-78L201.6,89.688l29.36,2.629-1.315,19.72L226.577,171.2l-15.338-.876Z" transform="translate(-117.9 -81.8)"/>
      </g>
    </g>
    <g id="UT_2_" transform="translate(205.485 198.825)">
      <g id="UT_3_">
        <path id="Path_2457" data-name="Path 2457" class="cls-1" d="M177.426,183.816l10.517-78-28.922-4.382,3.068-18.843L119.143,74.7,100.3,171.984h0Z" transform="translate(-100.3 -74.7)"/>
      </g>
    </g>
    <g id="ID_2_" transform="translate(181.821 56.843)">
      <g id="ID_3_">
        <path id="Path_2458" data-name="Path 2458" class="cls-2" d="M124.26,42.3l12.708,2.629-3.506,18.405,2.191,5.259.876,3.068-.876,2.191-.876.876.876.876,1.753,2.191,3.506,3.068,2.191,5.259.438,2.629.876,2.629h2.191l.438,1.315,2.629.438.876,1.315-3.068,6.135.438,1.315-1.315.876v3.068l.438.438-.438,1.315-2.191,1.753v3.068l-.438,1.315,2.629,2.629h.876l4.382-3.506.438-.438.438.438.438,1.315.438.438.876.876-.438,2.191v3.944l.876,2.629,1.753,2.191v1.315l-.876,1.753,1.315,2.191h1.753l1.315,2.191.438.876-.438,2.629v.876l.876,2.191,1.753.876,1.315-1.753.438-.438,3.068,1.315h1.315l1.315-1.315h1.315l.438.876h3.944l1.753.876.438-.438H182.1v-1.315l1.753-1.315,1.753,2.191.876,2.191,1.315,1.315h0L180.79,192.17h-.438l-42.945-7.888L94.9,175.518l7.45-34.619,2.191-2.629v-2.191l.438-.438V135.2l.876-1.315-.876-1.315-2.191-1.315-.876-.876.876-2.629,3.506-5.259,2.191-.876,1.315-1.753V118.55l1.315-1.315,7.011-10.079-.876-3.068-1.315-.876-.876-.438-1.753-1.753V99.268l-.438-2.629.876-.876v-.876l-.876-1.753V91.38l.876-.438Z" transform="translate(-94.9 -42.3)"/>
      </g>
    </g>
    <g id="AZ_2_" transform="translate(176.563 296.109)">
      <g id="AZ_3_" transform="translate(0 0)">
        <path id="Path_2459" data-name="Path 2459" class="cls-2" d="M183.972,219.6l15.776-110.869L122.622,96.9h0l-1.753,10.079-3.068,8.326h-1.753l-1.315-1.315.438-.876-1.315-1.315-3.068-.438-2.191.438-.876.876.876,3.506-.876,9.2.438,1.753-.876,3.944-.876,1.315v5.7l1.315,2.191v2.191l.438,1.315.438,2.191,1.315.438.876,1.315v2.629l-.876-.438-1.753,1.753-2.629.438-1.315,2.629L102.9,160l-3.068,3.944H98.082v.876l.438,1.753-.438.876-.438,2.629.438.876,2.191,2.191.438.438-.876.876-.438,1.315-1.315,1.315h-.438l-2.629-.438-1.315,4.82L150.668,213.9Z" transform="translate(-93.7 -96.9)"/>
      </g>
    </g>
    <g id="NV_2_" transform="translate(125.292 179.982)">
      <g id="NV_3_">
        <path id="Path_2460" data-name="Path 2460" class="cls-3" d="M96.461,70.4,82,128.683,145.98,222.9v-.876l.876-1.315.876-3.944-.438-1.753.876-9.2-.876-3.506.876-.876,2.191-.438,3.068.438,1.315,1.315-.438.876,1.315,1.315h1.753l3.068-8.326,1.753-10.079,18.843-97.284L138.53,80.479Z" transform="translate(-82 -70.4)"/>
      </g>
    </g>
    <g id="WA_2_" transform="translate(107.763 38)">
      <g id="WA_3_">
        <path id="Path_2461" data-name="Path 2461" class="cls-2" d="M170.9,109.429v.876l-.876.876.438,2.629-27.608-6.573-1.753.876h-1.315l-1.315-.438h-2.191l-.876-.438h-1.315l-1.753.438-1.753-.438h-1.753l-2.191.876-1.315.438-3.506-.876-.876-.438-2.191-.876-6.135.876-1.315-1.753-5.259-1.315-2.191-.438-3.506.438-4.382-.438-4.382-2.191-.438-1.315V94.968l.438-.876-.438-3.067-3.067-2.191H85.888v-.876l-1.315-.876-2.629-1.315v-.438l-2.629-1.315h-.876L78,83.574V82.7l.876-2.191.438-.876V77.878h.438l.438,1.315-.438.876v1.315l2.191-1.753-.438-.876v-.876L82.382,77l-.438-1.315H80.629V72.619l.438-.438.876.438.438-.438,2.191-.438L82.82,70.428V69.99l-.438-.438-1.315.876V67.36l.438-2.629V62.978l-.438-1.753.438-3.944.438-1.753L80.191,50.27l.438-3.944.438-1.753.438-2.629,9.641,6.573,5.259,2.629,3.944,1.315,2.191,1.315h2.191l.438.438.876,1.315.438,4.82-.438.876-1.315,1.315-.876,2.191v3.506l-.438.876v.438l.876.876,1.753-.876,1.315-4.382.876-.876.876-1.753,2.629-2.629V58.6l-.876-3.944-2.191-5.259v-.876l.438-.438.876.438,1.315-2.629V43.259h-1.753V41.506L109.113,38l20.6,5.7,19.72,5.259,31.99,7.888L170.9,105.485l-.876.438v1.753Z" transform="translate(-78 -38)"/>
      </g>
    </g>
    <g id="CA_2_" transform="translate(69.2 164.206)">
      <g id="CA_3_">
        <path id="Path_2462" data-name="Path 2462" class="cls-1" d="M193.653,249.536l-.876-1.315-1.315-.438-.438-2.191-.438-1.315v-2.191l-1.315-2.191v-4.82l-63.979-94.216,14.461-58.283L81.47,66.8l-.876.876-.876,2.629.876,2.629-.438,5.259-1.315,2.191L77.526,81.7l-.438,2.629v.876L71.829,91.34l-2.191,3.506V96.6l-.438.876.438,2.629.876,1.753.876.876.438.876v1.315l1.753,3.944.438,4.382-.438.876-1.315,2.191L70.953,120.7l.438,1.315.438,2.191-1.315,1.753,2.191,6.135,1.315,2.629,3.068,3.067v7.45l-.876,1.753,2.191.876,2.191,3.506,2.191.876.438-.876v-1.315l1.753-1.753.438.438-.438,2.629.438,2.191,1.315,3.506-.438,1.753-.438.438-2.191-1.315-.438-.876v-2.629l-.438-1.315-.876.438-.438,3.068-.438.438v1.753l-.438.876v6.573l.876,2.191,2.629,2.191,2.191.876,1.315,1.315-.438,3.506-1.753,1.753h-.876l-.876,1.315-.438,4.82,3.506,4.82.438,1.753.876,1.753V195.2l4.82,8.326,2.191,1.315-.438,2.191h-.438l-.438.438v2.191l2.191.876.438,2.629-.438.876-.438,2.191-.438,3.506-1.315,1.315v1.315l1.753,1.753,3.068,2.191h2.191l7.011,3.068,2.629.438,2.629,2.191,1.315,3.944,3.067,2.629,2.191.876,3.944.438,1.315,1.753-.438.876.876,1.315-.876,1.753,1.315,1.315h2.629l3.506,3.506,1.753,2.629,1.753,1.753,3.067,7.011.438,6.573-.438.438.876,1.753h0l.438.438v.438l-.438.876.438,1.753v.876l38.125,3.506,2.629.438h.438l1.315-1.315.438-.876.876-1.315-.438-.438-2.191-2.191-.438-.876.438-2.629.438-.876-.438-1.753v-.876H182.7l3.068-3.944,1.315-5.259,1.315-2.629,2.629-.438,1.753-1.753.876.438v-2.629Z" transform="translate(-69.2 -66.8)"/>
      </g>
    </g>
    <g id="OR_2_" transform="translate(79.717 85.766)">
      <g id="OR_3_">
        <path id="Path_2463" data-name="Path 2463" class="cls-1" d="M183.783,112.88v.438l-.438.438v2.191l-2.191,2.629L173.7,153.2l-42.069-10.079L73.353,127.341l-.876-.876L71.6,122.52l.876-2.191v-1.753l1.315-3.068-.876-6.135.876-1.315,1.315-.438.876-1.315.876-1.753.876-.876v-2.629l.876-.438,3.506-4.382,1.753-3.944,3.506-6.135,3.506-10.955,2.629-4.382L95.7,63.8l2.629-8.326,1.315-3.068.438-2.191v-.876L101.4,48.9l1.315.438.876-.438,2.629,1.315,1.315.876v.876h2.191l3.067,2.191.438,3.068-.438.876v5.259l.438,1.315,4.382,2.191,4.382.438,3.506-.438,2.191.438,5.259,1.315,1.315,1.753L140.4,69.5l2.191.876.876.438,3.506.876,1.315-.438,2.191-.876h1.753l1.753.438,1.753-.438h1.315l.876.438h2.191l1.315.438h1.315l1.753-.876,27.608,6.573V78.7l1.753,1.753.876.438,1.315.876.876,3.068-7.011,10.079L188.6,96.227v1.315l-1.315,1.753-2.191.876-3.506,5.259-.876,2.629.876.876,2.191,1.315" transform="translate(-71.6 -48.9)"/>
      </g>
    </g>
    <g id="KY_2_" transform="translate(586.295 269.378)">
      <g id="KY_3_">
        <path id="Path_2464" data-name="Path 2464" class="cls-3" d="M187.2,149.521l22.787-1.753v-2.191l-.438-.876,2.629-.438.876.876L277.473,139l1.315-.876,1.315-.876,5.7-2.629.438-1.315,3.068-2.191V129.8l.438-.876,1.753-.876V126.3l1.753-1.315,7.888-7.011.438-1.315H300.26l-.876-.876h-.438l-.438-.876-1.753-.438h-.438l-.438-.438-2.191-3.068-3.068-3.944-.438-1.315v-3.067l-.438-2.191-.438-.876-1.753-.876L285.8,98.25l-1.315-2.191-.876-1.315-1.753,1.315-.438.876-1.315.438v.438l-2.629.438-2.629-1.315-.876.438-1.315,1.753L269.146,96.5l-3.067.438-2.191-.876-1.315-2.629L259.506,90.8l-1.315,1.315h-1.315l-1.315-.876h-1.315l-.438,1.315v.876l.877,3.506-.877,1.315-1.315.438-2.191,1.753-2.629-.876-1.315,1.315v2.629l-6.135,7.888L238.91,114.9l-3.506.438-1.753-2.191h-1.315l-.876,1.315-.876,3.944-1.315.876-1.753-.876-.876-1.315-2.629.876-.877,3.068h-.876l-.438-.438L217,118.408l-3.506,1.753-3.067-.438-.438,1.315v.876l-.876.438H207.8l-.438.876-.438,1.753-.438.438v.438l1.315,2.191v.438l-4.82,1.315-1.315.438v2.191l.876,3.944-1.753.876-2.191-1.315-1.753-.876-2.629-.438-1.753.876L191.582,139v.438h.438l.876.876.438,1.753-1.315,4.82-.876.876-.877-.438-1.753.876Z" transform="translate(-187.2 -90.8)"/>
      </g>
    </g>
    <g id="ME_2_" transform="translate(825.122 64.293)">
      <g id="ME_3_">
        <path id="Path_2465" data-name="Path 2465" class="cls-1" d="M241.7,93.08l10.955,32.866v2.629l3.067,2.191.438.438.438.876v.876l1.315,2.629.438-.876.438-1.753v-2.629l1.315-2.191.876-3.944,1.315-1.315.438-.876-.876-.438-.876-2.191,3.944-3.068.438.438.438,1.315.876.438.438-.438v-2.629l3.068-.438.876-1.315V112.8l.438-.876h1.753l.876-.438.438-.876.876-2.191L275,106.665l1.753-2.191v-1.315h.876l1.753.438.876-.438.876-1.315.876-1.753h.438l1.315-2.191h2.191l1.753,1.753,1.753-3.944,2.191-.876,2.629-2.629.876-1.315.438-.438h.876l1.315-.876.876-1.315-.438-1.315-1.315-.876v.438l-.876-.438.438-1.315.438-.438v-.876L295.6,80.81l-1.315-.876-.876.438-.438.438-1.315.438-1.315-.438-1.315-4.82.438-.876-.438-.876-.438-.438h-.876l-.438.438-2.191-.876h-1.315l-.438-.438-.876-3.067v-.876l-7.011-21.473L269.746,44h-3.068l-.876.876-.438.876h-.438l-2.191,1.315-3.068,2.191-.876.438-1.315-1.315.438-2.191-.876-.876h-.876l-2.191.876-4.82,16.652-.438,2.191.876,1.315V68.1l-.438,1.315-.876.876-.438,1.315,1.753,7.011-.876,2.191v1.753l-2.629,3.068-.438,1.315.876,2.191v.438h-1.315v1.753l-.438.876h-.876l-.876-.438Z" transform="translate(-241.7 -44)"/>
      </g>
    </g>
    <g id="PA_2_" transform="translate(708.119 190.061)">
      <g id="PA_3_" transform="translate(0)">
        <path id="Path_2466" data-name="Path 2466" class="cls-3" d="M237.787,128.792,278.98,120.9l12.708-2.629h.438l.438-.438v-.876l1.315-1.753h1.753l1.315.438,3.944-2.629.438-2.191,2.191-2.629,2.629-1.315v-.438l-2.191-1.315-.876-.876-.876-.876-.438-.438-1.753-.438-.876-2.191-1.753-.438-.438-.438V95.925l.876-.438V93.3l-1.315-.876v-.876l.438-.438,1.753-1.753.438-3.067v-.876l.876-1.753h.877l-1.315-1.315L296.07,81.9v-.438l-.876-.438-.438-1.315L293,75.768h-1.315l-.438-.876-.438.438-.438-.438-.438-1.315L288.62,72.7,225.955,85.408l-1.315-4.82-3.068,3.067-.876.438-.438-.876h-.438l-.876,2.191L216.315,87.6,215,88.476l4.82,25.855,2.629,17.529Z" transform="translate(-215 -72.7)"/>
      </g>
    </g>
    <g id="MI_1_" transform="translate(560.44 110.744)">
      <g id="Group_1654" data-name="Group 1654" transform="translate(56.968 28.046)">
        <path id="Path_2467" data-name="Path 2467" class="cls-1" d="M194.3,143.823l29.8-3.944.438,1.315,18.843-2.629.438-.876,2.191-4.82.876-.876v-3.068l.876-2.629,2.191-2.191v-2.629l.438-.438v-1.315l1.315-1.315.876,1.753h.438l.876-.438.438-.876.438-1.315-.438-2.629v-3.506l-.876-2.191-.438-4.382-4.382-11.394-4.382-1.315-1.753.876-1.753,2.191-5.259,7.45h-.438l-.438-.438-1.753-.438-.877-.876-.438-1.753.438-3.068.877-1.315,2.629-1.315.438-1.315V90.8l.438-1.315,1.315-.438.876-2.629V81.6l-.438-2.629-.876-1.315L235.492,75.9l-.438-.876.438-1.315,1.753-.438.438-.876-2.191-3.506-1.753-.876-4.82-1.753-3.944-.876-1.315-1.315-2.629-.876-3.068-.876L216.211,61,214.9,62.315l-1.315.438-1.753,2.629v2.191l.438.876h.438l.438.876-.438.438-1.315.876-.876.438L209.2,72.394l-.876,2.191v2.191l.438,1.753-1.315,2.191-1.753.876V80.282l.876-2.191-.876-2.191V74.585l-.876.438-.876,1.753v1.753l-.876.876h-.876l-1.753,1.753-.876,1.315-.438.876-1.315,2.191v3.068l-.438,3.506v1.753L196.053,96.5l-1.315,1.753.438,1.315,1.315,4.382-.876,2.629,1.315,2.191,2.629,6.135,2.191,4.82v3.944l.876.876v.438l-.876.876-.438,3.944-.438,3.068-1.315,2.629-2.191,5.7-2.191,1.753Z" transform="translate(-194.3 -61)"/>
      </g>
      <g id="Group_1655" data-name="Group 1655">
        <path id="Path_2468" data-name="Path 2468" class="cls-1" d="M181.3,74.32l2.629-.876,1.315-.876,3.068-1.753.438-1.315,1.315-.438,5.259-1.753,3.944-2.191,3.944-4.382,1.753-.438,3.506-3.944,2.629-.876,3.944-.876h.876v.876l-1.753,1.315h-.876l-.877,2.191-3.067,3.068-1.315,1.315-.876.876-.438,2.629.438,2.191.876-1.315,2.191-1.753h1.753l.876-.438,5.7,2.629,3.944,4.382L226,72.129l1.753.438,1.315.438h1.315l1.315.438v.438l.876-.438.438-1.315,3.944-2.629,12.27-3.068,3.067-1.753,1.753-.876.438.876-.876,1.753v1.315l1.753,2.629.876.438.438-.438h2.191l.876-.438,3.944-.438L265,70.814l1.753,3.068,1.315.876,3.068,1.315,3.067-.438h.876l.876.438v1.315L274.64,78.7h-3.068l-.438-.876H270.7l-1.753,1.315L267.19,78.7l-.876-.438-3.506.876-2.191-.438-.438.438.438,1.753-.438.876-1.315-.438-1.753-1.753-5.259-.876-.876.438-1.315-.438-3.506,2.629h-.877l-1.315.438-.438.876-.876.438-1.753-.876-2.191.876V84.4l-.438,1.315-4.382,3.506h-.876l-.438-.876,1.753-2.191V84.837h-2.191l-1.315,2.191-.877.876-.876-.876V84.837l-.876.438-.438,2.629-1.315,2.629L225.56,93.6l-.876,1.753-2.191,3.068v1.753l-.438.876L220.3,99.736l-.876-2.191.876-.876.438-.876-.438-.438-2.629.438h-.438l.876-4.82-.438-1.753L215.481,87.9l-2.191-.876V86.59l.438-.438-.876-.876-1.753-.438-3.506-.876h-.876l-.438.876-.876-.876h-1.753l-2.629-2.191h-1.753L186.559,79.14l-.876-.438-.876-2.191-.877-.876-1.753-.438Z" transform="translate(-181.3 -54.6)"/>
      </g>
    </g>
    <g id="MA_2_" transform="translate(808.032 158.509)">
      <g id="MA_3_">
        <path id="Path_2469" data-name="Path 2469" class="cls-1" d="M237.8,76.455l10.517-2.191,17.09-3.944v-.438l.438-.438.438.438.438-.438-.438-1.315,1.315-.438,1.315-2.191h.877l1.315.438.438,2.191,2.191,1.315.438,1.315-.438.438-.876.438-.876,1.753-.877,2.191.438,1.315H273.3l1.753.876,3.068,3.067,1.315,2.191,1.315,1.315,3.506.438,2.191-.876.876-2.629-.438-.438-1.315-1.315-1.753-.876V77.77H286l2.191,3.506,1.315,3.506v1.753l-1.753-1.315-1.315,1.315-2.629.876L281.183,89.6h-.876v-.876l-.438-1.753h-.876l-1.315,2.191-1.753,2.191-.438.876-.876-1.315-.438-.876h-.438L273.3,89.6l-.876-.438v-.876l-2.629-.438-.877-2.191h-.876l-.438-2.191-5.7,1.315-13.146,3.506-.438.876h0l-.876-.876-9.2,2.191-.438-.438Z" transform="translate(-237.8 -65.5)"/>
      </g>
    </g>
    <g id="RI_2_" transform="translate(832.134 176.476)">
      <g id="RI_3_">
        <path id="Path_2470" data-name="Path 2470" class="cls-2" d="M243.3,70.915l3.067,10.955-.438,1.315V84.5l.876.438,2.629-2.191,1.753-1.315V80.117l-.438-.876V77.488l1.315-1.315.438.438v3.506l.438.876h.876V79.241h.438l1.315-.876h1.315l-.876-1.315-.438-.876h-.438l-.438-.438-.876-.438V74.42l-2.629-.438-.877-2.191h-.876L249,69.6Z" transform="translate(-243.3 -69.6)"/>
      </g>
    </g>
    <g id="CT_2_" transform="translate(808.47 177.791)">
      <g id="CT_3_">
        <path id="Path_2471" data-name="Path 2471" class="cls-1" d="M237.9,75.6l9.2-2.191.876.876h0l.438-.876L261.564,69.9l3.067,10.955-.438,1.315v1.315l-1.753.438-4.382,1.753h-1.315l-.438.438v.876h-.438l-2.629.438-3.506,1.753-.438-.876L247.1,90.934l-5.259,4.382-1.753.876-1.753-1.315,2.629-2.629v-.876l-.877-1.315Z" transform="translate(-237.9 -69.9)"/>
      </g>
    </g>
    <g id="WV_2_" transform="translate(688.837 231.691)">
      <g id="WV_3_">
        <path id="Path_2472" data-name="Path 2472" class="cls-2" d="M234.7,82.2h-.438l-1.315.876.876,1.753-2.191,1.753,3.068,1.753-1.315,7.011-.438,1.753v2.629l.438,2.191-1.753,1.315-.876.438-2.629,3.506v.438l-2.191.876-.877-.438-1.315,1.315-.438.876-1.315,1.315-1.315,3.068.438,2.629-1.753,1.753-1.315-2.191h-1.315l-1.315,4.82.438,2.191-.438,1.753-1.315,1.315-1.315,2.191-2.191.438.438,2.191v3.068l.438,1.315,3.068,3.944,2.191,3.067.438.438h.438l1.753.438.438.876h.438l.876.876h1.315l.438.438-.438,1.315,2.629,2.191L228.129,151l1.753.438,1.753-1.753v-.876l1.315-.876,1.315,1.315.876.438.876-.438,3.944-1.753.876-2.191h.438l.876.876,3.068-3.068.876.876,2.629-3.506-.438-1.315v-2.191l2.629-5.259,3.506-12.708h.438l1.753,1.315.438.876.876.876,2.191-.438,1.315-2.191,1.315-4.82.876-1.753,1.753.438,1.315-2.629,1.315-.438.876-1.315.876-2.629.876-.876.438-.438-.876-.876.438-3.506.438-.876.438-.438,7.011,4.382,1.315.438v-.438l.876-3.506h0l-1.753-3.506-.876-.438-.438-1.753-1.315.438h-1.315l-.876-.438-4.82,1.753-.438,1.315-2.191.438-1.753-.438-.876-.876-.876,2.191-.876.438-1.315,1.753-1.315.438-3.067,3.506-.877.438-.876,1.315-2.191-10.079-15.338,3.068Z" transform="translate(-210.6 -82.2)"/>
      </g>
    </g>
    <g id="OH_2_" transform="translate(647.645 205.837)">
      <g id="OH_3_">
        <path id="Path_2473" data-name="Path 2473" class="cls-1" d="M201.2,89.446l5.7,50.833h1.315l1.315.876h1.315l1.315-1.315,3.068,2.629,1.315,2.629,2.191.876,3.067-.438,3.506,2.629,1.315-1.753.876-.438,2.629,1.315,2.629-.438v-.438l1.315-.438.438-.876,1.753-1.315.876,1.315,1.315,2.191,1.753.438,1.753.876.438.876,2.191-.438,1.315-2.191,1.315-1.315.438-1.753-.438-2.191,1.315-4.82h1.315l1.315,2.191,1.753-1.753-.438-2.629,1.315-3.067L255.1,130.2l.438-.876,1.315-1.315.877.438,2.191-.876v-.438l2.629-3.506.876-.438,1.753-1.315-.438-2.191v-2.629l.438-1.753,1.315-7.011-3.068-1.753,2.191-1.753-.876-1.753,1.315-.876h.438L261.674,76.3l-7.45,3.944L251.157,82l-1.315,1.315-4.382,4.382-.876.876-1.315-.438h-2.629l-1.315.438-3.506,3.068L234.5,91.2l-3.068-.876-.438.438h-1.315l.876-1.315h-.438l-2.191-.438-4.82-1.753h-.876l-2.191.438v-.876Z" transform="translate(-201.2 -76.3)"/>
      </g>
    </g>
    <g id="IN_2_" transform="translate(606.453 217.668)">
      <g id="IN_3_" transform="translate(0)">
        <path id="Path_2474" data-name="Path 2474" class="cls-2" d="M193.553,84.259,197.5,130.71l-.876.876.438,1.753-.438,2.191,1.753,3.506.438,4.382-2.191,3.944v1.315l-1.315,3.068-2.629,2.191V157l-.876,3.506v.876l.438.876h1.315l.876-.438v-.876l.438-1.315,3.067.438,3.506-1.753,4.82,2.191.438.438h.876l.877-3.068,2.629-.876.876,1.315,1.753.876,1.315-.876.876-3.944.876-1.315h1.315l1.753,2.191,3.506-.438,1.315-3.506,6.135-7.888v-2.629l1.315-1.315,2.629.876,2.191-1.753,1.315-.438.877-1.315-.877-3.506v-.876l.438-1.315-5.7-50.833L232.554,79l-29.8,3.944-.876.876-2.191.876-1.315.438-3.067.876Z" transform="translate(-191.8 -79)"/>
      </g>
    </g>
    <g id="IL_2_" transform="translate(551.676 208.028)">
      <g id="IL_3_">
        <path id="Path_2475" data-name="Path 2475" class="cls-1" d="M230.133,76.8l-40.754,2.629.876,1.315,3.068,1.753v2.191L196.39,86l.876,3.506v1.753l-.876,2.191-1.315.876v1.753l-2.629,2.629-2.191.876-.876.876h-3.068L185,101.34l-.877,2.191v1.315l1.753,2.191.438.876-.438,3.068-1.753,4.82-2.629,1.315-.438,1.753v1.315l-1.315,1.753v.876L179.3,125v3.506l1.315,3.506.438,1.315,4.382,5.259,4.382,3.506,1.315,1.315,2.629,7.011.438.438,1.315-1.315,1.315-.438,3.944,1.753.438,1.315-.876,2.191.438,3.067-2.629,3.068-.438,1.315.876,2.191,2.629,2.629,4.382,2.629,1.753.876,4.82,3.506.438,3.506,1.315,1.753v.876l-.876.876v.876l3.068,5.259h.438v-.876h1.315l.438.438.876-3.506,1.753-.876,2.629.438,1.753.876L227.5,184.6l1.753-.876-.876-3.944V177.59l1.315-.438,4.82-1.315V175.4l-1.315-2.191v-.438l.438-.438.438-1.753.438-.876h0l-.438-.876v-.876l.876-3.506v-3.068l2.629-2.191,1.315-3.068V154.8l2.191-3.944-.438-4.382-1.753-3.506.438-2.191-.438-1.753.876-.876L235.83,91.7l-.876-.438-.438-1.315-.876-4.382-.876-.876-1.315-1.315-1.315-3.068Z" transform="translate(-179.3 -76.8)"/>
      </g>
    </g>
    <g id="NC_2_" transform="translate(666.488 298.3)">
      <g id="NC_3_">
        <path id="Path_2476" data-name="Path 2476" class="cls-3" d="M205.5,149.548l.438-4.382h1.315l.438-.438,1.315-.876V141.66l.438-.876,1.315-1.753,3.068-1.315,3.944-.876,3.506-3.068,1.315-.876,2.191-2.191.877-1.753h1.315l.438-.876.438-.438.876-1.315h.438l1.315.876,1.315-.876v-.438l2.191-1.315,1.315-.876h2.191l2.629-4.382L242.31,118l.438-1.315v-2.629l.438-1.315V112.3l3.944-.876v.876l4.382-.438,1.315-.438h.876L294.9,104.85l39-7.45.876.876v.438l1.315.438.876.438.438.876.438.876.876,1.753-.438.438.438.438h-.876V103.1l-1.315.438h-.876l-.438-.438-.877.438.438.438v.438l-3.506,1.753-.876.876-1.315,1.315-2.629.438-.438,1.315v.438l.438.438.876-.438,2.629-.876,2.191-.876,1.753-.876h2.191v2.629l.876.438.876-.438.438-.876,1.315-1.753h1.315l.438,2.191.438,3.068.438.876v.438l-2.191,1.753-.438.876-.438.876-1.315,1.315-.876.438-1.315.876-2.629-.438h-1.753l-.438-.876v-.876l-.438-.438h-.438l-.438.438.438,2.191-.438.876-.438-.438.876,1.315h.877l1.315,1.315-.876,1.315.438.876-3.067,3.506h-.876l-1.753-.438h-.876l-.438.438,1.315.876h3.068l2.191-.876,2.629-1.315.438-.876.877.438.876.876-.876,2.191-2.629,2.629-2.629.438-.876.876-3.506.438-2.629,4.382h-.876v.876h0L319,142.1l-1.753,2.191-1.753,3.944-.877,4.82-.876.876-1.315.876-6.573,1.315-.438.438L284.379,142.1l-17.967,2.191-.438-2.629-3.068-2.191-1.315.876-.876-.876.438-.876v-.438l-21.034,2.629h-.438l-.438.438-4.382,1.753v.876h-1.315l-4.82,2.629Z" transform="translate(-205.5 -97.4)"/>
      </g>
    </g>
    <g id="TN_2_" transform="translate(576.216 313.638)">
      <g id="TN_3_" transform="translate(0 0)">
        <path id="Path_2477" data-name="Path 2477" class="cls-1" d="M312.859,100.9l-26.293,3.067-1.315.876-64.418,6.135-.876-.876-2.629.438.438.876v2.191l-22.787,1.753-.876,2.629-.876,3.506.438.876-.876,3.068-.876.876.438.876-.438,1.753-2.191,2.191-.876,3.944-1.753,2.629.438,2.629-.438,3.506-.438.438L184.9,145.6l32.866-2.191,41.192-3.944,16.214-1.753.438-4.382h1.315l.438-.438,1.315-.876v-2.191l.438-.876,1.315-1.753,3.068-1.315,3.944-.876,3.506-3.068,1.315-.876,2.191-2.191.877-1.753h1.315l.438-.876.438-.438.876-1.315h.438l1.315.876,1.315-.876v-.438l2.191-1.315,1.315-.876h2.191l2.629-4.382,2.191-1.315.438-1.315v-2.629Z" transform="translate(-184.9 -100.9)"/>
      </g>
    </g>
    <g id="SC_2_" transform="translate(686.646 339.054)">
      <g id="SC_3_">
        <path id="Path_2478" data-name="Path 2478" class="cls-1" d="M257.866,166.736H254.8l-.438-.438-.876-.876-.876-3.944-1.753-3.068-2.629-.876-1.315-3.944-1.315-1.753-.876-2.191-1.315-.876-3.067-.876-1.315-2.191-2.191-1.315v-.876l-.876-2.191-.876-.438L232.887,140l-5.259-4.82-2.191-.876-.877-1.315L222.37,130.8l-1.315-3.067L219.3,126.42l-.438-1.315-3.068-.438-4.382-2.191-1.315-1.315,1.315-3.068,1.315-1.315.438-.876.438-.876h-.438l4.82-2.629H219.3v-.876l4.382-1.753.438-.438h.438L245.6,106.7v.438l-.438.876.876.876,1.315-.876,3.068,2.191.438,2.629,17.967-2.191,21.034,14.461-.876.438-1.753,1.315-1.315,1.753-2.191,2.629-1.315,3.067-.438,2.191v3.944l-.876.438-.438.876-1.315.438-.876.876-.876.876-1.315,1.753-.438,1.315-2.629,2.191L271.45,151.4l-1.315,1.315-1.753,1.315-1.315,1.315-.876.438-1.753.876-.876.438-.438.438.438.876h-.438l-.876,1.753-1.315,1.315h-1.315l-.438.438.438.438h.876v1.315l-.876.438-1.315,1.315Z" transform="translate(-210.1 -106.7)"/>
      </g>
    </g>
    <g id="AL_2_" transform="translate(609.082 352.201)">
      <g id="AL_3_">
        <path id="Path_2479" data-name="Path 2479" class="cls-3" d="M192.4,113.644l1.753,1.753L192.838,172.8l.438,3.068,3.506,28.922.876-.438.876-.876,2.629.876.438-.876.438-4.382.876-2.629,1.753,2.629v1.315l.876,2.191,1.753,2.629h3.068l1.753-2.191H213l.876-.876v-.438l-.438-.438-.876-.438v-.438l.876-2.191-.438-.438-1.315-.876h-.438l-.876-.876-1.315-1.753v-1.315l.438-.876-.438-.438v-.438l43.383-4.382L252,185.511l-1.753-3.068.438-4.82-2.191-4.382v-3.506l.876-2.629v-2.629l1.315-1.753.438-.876-1.315-1.753.438-1.753-1.315-.876-1.315-.876-.438-1.315-.876-3.068-1.315-.876L233.592,109.7Z" transform="translate(-192.4 -109.7)"/>
      </g>
    </g>
    <g id="MS_2_" transform="translate(558.687 356.145)">
      <g id="MS_3_" transform="translate(0 0)">
        <path id="Path_2480" data-name="Path 2480" class="cls-2" d="M231.295,110.6l-32.866,2.191v1.315l-3.067,2.629-1.315,3.068.438,3.068-.438,1.753-3.068,1.753-1.753,2.629-.876.876v2.629l-1.315,1.753v2.191l-.876,2.629-1.753,2.629.876,2.629L186.6,146.1v2.191l.438.438v.876l-.876.438v4.382l1.753,3.944.438,3.944.876,1.753.876,1.315.438,1.753-2.191,1.315-.438.438-1.315,4.382-3.067,4.82-2.629,7.888v6.135l30.675-1.315.877.876-1.315,3.068v4.382l3.506,3.506.876,3.506h2.191l3.068-2.629,7.45-2.191,2.191.438,2.191-.876.876.876,1.315.438.876-.438-3.506-28.922-.438-3.068,1.315-57.406Z" transform="translate(-180.9 -110.6)"/>
      </g>
    </g>
    <g id="AR_2_" transform="translate(506.539 328.537)">
      <g id="AR_3_">
        <path id="Path_2481" data-name="Path 2481" class="cls-3" d="M169,107.368l69.676-3.068-.438.876,1.315.876.876,1.753-.438,1.753-2.191,1.753-1.753,2.191v1.315l10.517-.876-.876.876.438.876-.438,1.753-2.191,2.191-.876,3.944-1.753,2.629.438,2.629-.438,3.506-.438.438-1.753,1.315v1.315l-3.067,2.629-1.315,3.067.438,3.068-.438,1.753-3.068,1.753-1.753,2.629-.876.876v2.629l-1.315,1.753v2.191l-.876,2.629-1.753,2.629.876,2.629,1.315,1.753v2.191l.438.438v.876l-.876.438v3.068l-47.327,1.315V165.212l-2.629-.876-2.191,1.315-.438-.438-2.629-1.753.438-34.619Z" transform="translate(-169 -104.3)"/>
      </g>
    </g>
    <g id="LA_2_" transform="translate(516.618 398.652)">
      <g id="LA_3_">
        <path id="Path_2482" data-name="Path 2482" class="cls-1" d="M171.3,121.615l47.327-1.315v1.315l1.753,3.944.438,3.944.876,1.753.876,1.315.438,1.753-2.191,1.315-.438.438-1.315,4.382L216,145.278l-2.629,7.888V159.3l30.675-1.315.876.876-1.315,3.068v4.382l3.506,3.506.876,3.506-4.382-.876-3.944-1.753-1.315-.438-.876.876-3.068,2.629v1.315l1.315,1.315,1.315.438h3.506l1.753-1.315,1.315-.876h2.629l.438.876-.438.876-1.315.876.438,1.315.876.438.877.438.876-.876,1.315-2.191,3.506-1.753,1.315-.438H255l.438,1.315L255,176.83l.438.438v1.315l-1.315.876-2.629,3.506-2.629,1.753v1.753l.876,1.315,3.068,2.191,6.135,2.191.438.876-.438,1.753h-1.315l-4.382,2.191-.438-3.944-2.629-.876-4.82-2.191-.876-1.753-.876-.438-1.315.876-.876,3.506.438.438.438.438-2.629,2.191-1.315-.438-1.315-2.191h-.876l-1.753.438-.438-.438h-.877l-2.191,2.629h-2.629l-.876-.438-3.068-.876-3.944-4.82-2.191-.438-2.629-1.315-.876-1.315h-.438v-.438l-.438-.438.438-.876-1.315-.438-.438.438-2.191-.438h-.438v-1.315h-1.315l-3.068,3.068,1.315,1.315-.438.876H201.1l-8.326-1.315-5.259-2.191-11.394,1.753-.876-.876-.438-1.315.438-.438.438-1.315L177,180.774l1.753-3.944-1.315-2.191v-1.315l.438-.876-.438-1.315.438-2.191,1.315-.876.876-1.753.438-3.944v-1.753l-.438-3.068-1.315-2.191-.438-.876V153.6l-.438-.876L177,150.975l-1.315-.876v-.876l.438-2.191-1.315-2.629-2.191-2.191-.877-1.315Z" transform="translate(-171.3 -120.3)"/>
      </g>
    </g>
    <g id="MO_2_" transform="translate(488.573 248.782)">
      <g id="MO_3_">
        <path id="Path_2483" data-name="Path 2483" class="cls-2" d="M182.867,168.923l69.676-3.068-.438.876,1.315.876.876,1.753-.438,1.753-2.191,1.753-1.753,2.191v1.315l10.517-.876.876-3.068-.438-.876.876-3.506.876-2.629,1.315-1.315,1.753-.876.877.438.876-.876,1.315-4.82-.438-1.753-.876-.876H267V154.9l-.438-.438h-1.315v.876h-.438l-3.068-5.259V149.2l.876-.876v-.876l-1.315-1.753-.438-3.506-4.82-3.506-1.753-.876-4.382-2.629-2.629-2.629-.876-2.191.438-1.315,2.629-3.068-.438-3.068.876-2.191-.438-1.315-3.944-1.753-1.315.438L242.9,119.4l-.438-.438-2.629-7.011-1.315-1.315-4.382-3.506-4.382-5.259-.438-1.315L228,97.055V93.55l.438-2.191v-.876L224.059,86.1,164.9,87.853l.876,1.753,1.753,1.753.438,2.629,2.191,2.629.876.438-.438,2.191v.438l6.573,4.82-1.753,2.629-.438,2.191.876,1.315,1.753.876.876,3.506,1.315.876,1.753.438.438.438.438,42.507Z" transform="translate(-164.9 -86.1)"/>
      </g>
    </g>
    <g id="IA_2_" transform="translate(475.864 191.376)">
      <g id="IA_3_">
        <path id="Path_2484" data-name="Path 2484" class="cls-3" d="M164.629,75.629,238.25,73l.876,2.629,1.753,1.315v1.315l-1.315,1.753.876,2.629,1.315,5.259,4.382,1.315,1.315,1.315.438,1.753.876,1.315,3.068,1.753V97.54l3.067,1.315.876,3.506v1.753L254.9,106.3l-1.315.876v1.753l-2.629,2.629-2.191.876-.876.876h-3.068l-1.315.876-.877,2.191V117.7l1.753,2.191.438.876-.438,3.068-1.753,4.82L240,129.968l-.438,1.753v1.315l-1.315,1.753-4.382-4.382-59.159,1.753-.876-.876-.438-2.191.438-1.315-.876-1.753-.438-1.315.876-1.753-.438-1.315-2.191-1.315.438-3.068.876-1.315-.876-1.753-1.753-1.315-.438-1.753.438-1.753-1.753-1.315-.876-3.506-1.753-1.315,1.315-2.629V99.293l-2.191-1.315V95.349l-.438-1.753L162,89.652l1.753-3.506-.438-1.315,1.315-1.315-.876-2.629-.876-1.315.876-1.753-.876-1.315-.438-.876,1.315-.438Z" transform="translate(-162 -73)"/>
      </g>
    </g>
    <g id="MN_2_" transform="translate(468.415 78.754)">
      <g id="MN_3_">
        <path id="Path_2485" data-name="Path 2485" class="cls-1" d="M170.379,162.551V126.617l-5.259-4.82v-1.753l2.629-2.629.876-1.753-.438-1.753v-3.068l.438-2.629-2.191-6.573L166,99.886V96.38l-.438-2.191-.438-9.641-.876-5.7L162.491,77.1l-1.315-6.135v-5.7l.438-3.068.438-1.753-1.315-4.382-.438-1.753h26.731V49.929l.438-2.629h1.753l3.068.876v4.382l.876,3.068v2.629l3.068,2.191.876-.438,2.191.438.876.876,2.191-.438,2.191.876.877.876v.438h3.944l.876-1.315,5.7-.438,3.944.876h.877l-.877,1.315,1.315.876.876-.438.438.876.438,2.629,1.753.876,1.315-2.191.876-.438,1.315.438.876,2.191,3.068.438,1.315,1.315L234.8,71.4h1.753l2.191-.438,4.82-3.944.876.876,1.315,1.315h7.888l1.315.438.877.438,1.753,1.315,1.753-.438,3.506-.438-2.191,1.753-4.382,2.629-2.629.876-1.753.438-1.753,2.191-3.944,1.753-1.753,1.315-6.573,7.011-9.2,8.326-.876,1.753-.876.876v10.517l-.876,1.315-1.315.438-3.944,3.068v1.753l-.877.438-.876,3.068,2.191.876,1.315,2.629-1.315,2.191.438,2.191L221.212,131v5.259l.876.876,1.315,1.315.438.876,3.506.438.876.438v1.315l.876.438,4.382,1.753,1.315,3.068,3.944,3.067,4.382,3.068.438.876v2.629l.438,3.506Z" transform="translate(-160.3 -47.3)"/>
      </g>
    </g>
    <g id="WI_2_" transform="translate(527.136 123.452)">
      <g id="WI_3_">
        <path id="Path_2486" data-name="Path 2486" class="cls-2" d="M208.319,144.7l-.438-1.753-1.315-1.315-4.382-1.315-1.315-5.259-.876-2.629,1.315-1.753v-1.315l-1.753-1.315-.876-2.629-.438-3.506v-2.629l-.438-.876-4.382-3.068-3.944-3.067-1.315-3.068-4.382-1.753-.876-.438V105.7l-.876-.438-3.506-.438-.438-.876-1.315-1.315-.876-.876V96.5l.438-3.068-.438-2.191,1.315-2.191-1.315-2.629-2.191-.876.876-3.068.877-.438V80.287L179.4,77.22l1.315-.438.876-1.315V64.95l.876-.876.876-1.753,1.315.876,1.753.438,2.629-.438,3.506-1.753,7.011-3.506,1.315-.438.438.876v1.315l-.876,1.315v.876l-.438,2.629,2.191-1.315h1.753l1.315,1.753L207,64.511l.876.876,1.753.438.877.876.876,2.191.876.438,12.708,2.629h1.753l2.629,2.191h1.753l.876.876.438-.876h.876l3.506.876,1.753.438.876.876-.438.438v.438l2.191.876,2.191,1.315.438,1.753-.876,4.82h.438l2.629-.438.438.438-.438.876-.876.876.876,2.191,1.753,1.315v.438l-3.068,3.067-1.753,3.506-.876,2.629V102.2l.438.438,2.191-1.315,2.191-3.944,2.629-2.191,1.315-.438V93.434l1.315-.876.438-1.315V89.052l.876-.438.438-1.315.876-.876h.438l.438.876V89.49l-2.191,5.259-.876.876-.438,2.191v.876l-1.753,3.944v3.506l-.438,2.629-1.753,1.753-.438,1.315.438,2.629.438,4.82-.876.876-1.315,5.259.876,7.011,1.753,4.82-.438.876.438.876v3.068Z" transform="translate(-173.7 -57.5)"/>
      </g>
    </g>
    <g id="NJ_2_" transform="translate(789.189 201.016)">
      <g id="NJ_3_">
        <path id="Path_2487" data-name="Path 2487" class="cls-1" d="M234.376,107.19,233.5,110.7v.438h.438l.876,1.315,1.315,1.753,1.315,1.315,3.506,1.753.876.438,2.629.438h.876v3.944l.876.438.876-.876,1.315-2.191v-2.191l1.315-2.629.876-2.629.877-7.888,2.191,2.629,1.315-2.191v-1.315l-.438-6.573-.876-5.259-.877-1.315-2.191.438-.876.438h-.876v-.438l-.876.438-.438-.438v-.876l1.315-2.191.438-.438.876-.438V84.4l.438-.876.438-.876.876-.876-.876-2.191L238.32,75.2h-.877l-.876,1.753v.876l-.438,3.068-1.753,1.753-.438.438v.876l1.315.876v2.191l-.876.438v3.506l.438.438,1.753.438.876,2.191,1.753.438.438.438.877.876.876.876,2.191,1.315v.438L240.95,99.74l-2.191,2.629-.438,2.191Z" transform="translate(-233.5 -75.2)"/>
      </g>
    </g>
    <g id="VT_2_" transform="translate(795.762 120.385)">
      <g id="VT_3_" transform="translate(0)">
        <path id="Path_2488" data-name="Path 2488" class="cls-1" d="M235,63.373l.876,1.753-.438.876.876.876v.438l2.191,5.7.876,4.382-.876,1.753V81.34l2.629,5.7-.438,2.629.438.876.438-.438v-.438h.876l1.315,2.191.876,4.82v3.067l1.315,3.068,1.315,3.068,10.517-2.191v-.876l-1.315-1.315V99.307l.438-.438-.438-1.753L255.6,88.79V86.6l.876-4.82.876-3.068.438-2.191-.876-1.753V73.014l.438-1.315,3.068-2.191,1.753-4.382L260.417,62.5l-.438-1.315.876-.438v-.876l-.876-3.067Z" transform="translate(-235 -56.8)"/>
      </g>
    </g>
    <g id="NH_3_" transform="translate(816.358 113.373)">
      <g id="NH_5_" transform="translate(0)">
        <path id="Path_2489" data-name="Path 2489" class="cls-2" d="M264.678,100.774l-1.315-.438h-.877l-1.315,2.191-1.315.438.438,1.315-.438.438-.438-.438-.438.438v.438l-17.09,3.944v-.876l-1.315-1.315v-2.191l.438-.438-.438-1.753L239.7,94.2V92.01l.876-4.82.876-3.068.438-2.191-.876-1.753V78.425l.438-1.315,3.068-2.191,1.753-4.382-1.753-2.629-.438-1.315.876-.438v-.876l-.876-3.068.438-3.506-.876-1.315.438-.438h.876l.877-1.315.876.438.876-.438.876-.438L259.42,88.066V90.7l3.068,2.191.438.438.438.876v.876l1.315,2.629v3.067Z" transform="translate(-239.7 -55.2)"/>
      </g>
    </g>
    <g id="DE_2_" transform="translate(784.806 232.568)">
      <g id="DE_3_" transform="translate(0)">
        <path id="Path_2490" data-name="Path 2490" class="cls-3" d="M249.59,107.817v-2.191L248.276,103l-1.753-1.753-2.629-1.753-.877-1.315-.876-1.315-2.191-3.506-.876-1.753L237.32,89.85l-.438-1.753V86.344l.876-3.506-1.315-.438h-1.753l-1.315,1.753v.876l-.438.438H232.5l7.45,24.1Z" transform="translate(-232.5 -82.4)"/>
      </g>
    </g>
    <g id="DC_2_" transform="translate(767.716 254.04)">
      <g id="DC_3_" transform="translate(0)">
        <path id="Path_2491" data-name="Path 2491" class="cls-4" d="M228.6,89.491l3.068-2.191,2.629,3.944-3.506,2.191Z" transform="translate(-228.6 -87.3)"/>
      </g>
    </g>
    <g id="STATES" transform="translate(119.595 76.563)">
      <g id="Group_1656" data-name="Group 1656" transform="translate(343.561 266.873)">
        <path id="Path_2492" data-name="Path 2492" class="cls-5" d="M166.111,111.744a6.334,6.334,0,0,1-.876,3.068c-.438.876-1.315.876-2.629.876a3.7,3.7,0,0,1-2.629-.876,5.806,5.806,0,0,1,0-6.135c.438-.876,1.315-.876,2.629-.876a3.7,3.7,0,0,1,2.629.876A6.333,6.333,0,0,1,166.111,111.744Zm-5.7,0a3.284,3.284,0,0,0,.438,2.191,2.191,2.191,0,0,0,3.506,0,5.7,5.7,0,0,0,0-4.382,2.191,2.191,0,0,0-3.506,0A3.284,3.284,0,0,0,160.415,111.744Z" transform="translate(-159.1 -107.362)"/>
        <path id="Path_2493" data-name="Path 2493" class="cls-5" d="M167.135,116.026H165.82l-2.629-3.506-.876.438v3.067H161v-7.888h1.315v3.506c.438-.438.876-.876.876-1.315l2.191-2.629H166.7a28.61,28.61,0,0,1-3.068,3.506Z" transform="translate(-152.674 -107.7)"/>
      </g>
      <g id="Group_1657" data-name="Group 1657" transform="translate(565.298 314.639)">
        <path id="Path_2494" data-name="Path 2494" class="cls-5" d="M213.206,122.106h2.629v3.944c-.438,0-.876.438-1.315.438h-1.315a3.7,3.7,0,0,1-2.629-.876,5.807,5.807,0,0,1,0-6.135c.876-.876,1.753-.876,3.068-.876a3.284,3.284,0,0,1,2.191.438l-.438,1.315a2.635,2.635,0,0,0-1.753-.438,2.277,2.277,0,0,0-1.753.876,3.348,3.348,0,0,0-.876,2.191,3.284,3.284,0,0,0,.438,2.191,2.277,2.277,0,0,0,1.753.876h1.315v-2.191h-1.753v-1.753Z" transform="translate(-209.7 -118.6)"/>
        <path id="Path_2495" data-name="Path 2495" class="cls-5" d="M217.335,126.488l-.876-2.191h-3.067l-.876,2.191H211.2l3.068-7.888h1.315l3.067,7.888Zm-.877-3.068-.876-2.191v-1.753c0,.438-.438.876-.438,1.315l-.876,2.191h2.191Z" transform="translate(-204.627 -118.6)"/>
      </g>
      <g id="Group_1658" data-name="Group 1658" transform="translate(626.648 205.085)">
        <path id="Path_2496" data-name="Path 2496" class="cls-5" d="M228.959,93.6h1.315l-2.629,7.888h-1.315L223.7,93.6h1.315l1.753,4.82c0,.438,0,.438.438.876v0c0-.438,0-.438.438-.876Z" transform="translate(-223.7 -93.6)"/>
        <path id="Path_2497" data-name="Path 2497" class="cls-5" d="M231.235,101.488l-.876-2.191h-3.068l-.876,2.191H225.1l3.068-7.888h1.315l3.068,7.888Zm-.876-3.506-.876-2.191V94.038c0,.438-.438.876-.438,1.315l-.876,2.191h2.191Z" transform="translate(-218.965 -93.6)"/>
      </g>
      <g id="NY_2_" transform="translate(652.065 90.272)">
        <path id="Path_2498" data-name="Path 2498" class="cls-5" d="M236.511,75.288h-1.753l-3.944-6.135h0v6.135H229.5V67.4h1.315l3.944,6.135h0V67.4h1.315v7.888Z" transform="translate(-229.5 -67.4)"/>
        <path id="Path_2499" data-name="Path 2499" class="cls-5" d="M234.706,71.006l1.753-3.506h1.315l-2.629,4.82v3.068h-1.315V72.32L231.2,67.5h1.315Z" transform="translate(-223.751 -67.062)"/>
      </g>
      <g id="Group_1659" data-name="Group 1659" transform="translate(611.749 393.08)">
        <path id="Path_2500" data-name="Path 2500" d="M221.615,144.388H220.3V136.5h4.382v.876h-3.067v2.191h3.067v.876h-3.067Z" transform="translate(-220.3 -136.5)"/>
        <path id="Path_2501" data-name="Path 2501" d="M221.6,144.388V136.5h1.315v6.573h3.067v.876H221.6Z" transform="translate(-215.903 -136.5)"/>
      </g>
      <g id="Group_1660" data-name="Group 1660" transform="translate(196.321 280.458)">
        <path id="Path_2502" data-name="Path 2502" class="cls-6" d="M132.511,118.688h-1.753l-3.944-6.135h0v6.135H125.5V110.8h1.315l3.944,6.135h0V110.8h1.315v7.888Z" transform="translate(-125.5 -110.8)"/>
        <path id="Path_2503" data-name="Path 2503" class="cls-6" d="M131.006,118.688l-2.191-6.573h0v6.573H127.5V110.8h1.753l2.191,6.135h0l2.191-6.135h1.753v7.888h-1.315v-6.573h0l-2.191,6.573h-.876Z" transform="translate(-118.736 -110.8)"/>
      </g>
      <g id="Group_1661" data-name="Group 1661" transform="translate(312.448 350.134)">
        <path id="Path_2504" data-name="Path 2504" class="cls-5" d="M155.506,134.15h-1.315v-6.573H152V126.7h5.7v.876h-2.191Z" transform="translate(-152 -126.7)"/>
        <path id="Path_2505" data-name="Path 2505" class="cls-5" d="M159.635,134.15H158.32l-1.753-3.068-1.753,3.068H153.5l2.629-3.944-2.191-3.506h1.315l1.753,3.068,1.753-3.068h1.315l-2.191,3.506Z" transform="translate(-146.927 -126.7)"/>
      </g>
      <g id="Group_1662" data-name="Group 1662" transform="translate(324.28 209.467)">
        <path id="Path_2506" data-name="Path 2506" class="cls-6" d="M160.835,102.926H159.52l-2.629-3.506-.876.438v3.068H154.7V95.038h1.315v3.506c.438-.438.876-.876.876-1.315l2.191-2.629H160.4a28.615,28.615,0,0,1-3.067,3.506Z" transform="translate(-154.7 -94.6)"/>
        <path id="Path_2507" data-name="Path 2507" class="cls-6" d="M161.359,100.735a2.277,2.277,0,0,1-.876,1.753,5.7,5.7,0,0,1-4.382,0v-1.315c.438,0,.876.438,1.315.438h1.315a1.61,1.61,0,0,0,1.315-.438c.438,0,.438-.438.438-.876s0-.438-.438-.876a6.3,6.3,0,0,1-1.315-.876c-.876-.438-1.315-.438-1.315-.876a1.61,1.61,0,0,1-.438-1.315c0-.438.438-1.315.876-1.315.438-.438.876-.438,1.753-.438a3.951,3.951,0,0,1,2.191.438l-.438.876a3.312,3.312,0,0,0-1.753-.438c-.438,0-.876,0-.876.438a1.53,1.53,0,0,0-.438.876v.438l.438.438a1.53,1.53,0,0,0,.876.438c.438.438.876.438,1.315.876.438,0,.438.438.438.876Z" transform="translate(-149.965 -94.6)"/>
      </g>
      <g id="Group_1663" data-name="Group 1663" transform="translate(303.684 147.679)">
        <path id="Path_2508" data-name="Path 2508" class="cls-5" d="M156.135,88.388h-1.753l-3.944-6.135h0v6.135H150V80.5h1.315l3.944,6.135h0V80.5h1.315v7.888Z" transform="translate(-150 -80.5)"/>
        <path id="Path_2509" data-name="Path 2509" class="cls-5" d="M156.282,88.388H151.9V80.5h4.382v.876h-3.067v2.191h3.067v.876h-3.067v2.191h3.067Z" transform="translate(-143.574 -80.5)"/>
      </g>
      <g id="Group_1664" data-name="Group 1664" transform="translate(300.178 92.025)">
        <path id="Path_2510" data-name="Path 2510" class="cls-6" d="M154.459,73.935a2.277,2.277,0,0,1-.876,1.753,5.7,5.7,0,0,1-4.382,0V74.373c.438,0,.876.438,1.315.438h1.315a1.61,1.61,0,0,0,1.315-.438c.438,0,.438-.438.438-.876s0-.438-.438-.876a6.3,6.3,0,0,1-1.315-.876c-.876-.438-1.315-.438-1.315-.876a1.61,1.61,0,0,1-.438-1.315c0-.438.438-1.315.876-1.315.438-.438.876-.438,1.753-.438a3.951,3.951,0,0,1,2.191.438l-.438.876a3.313,3.313,0,0,0-1.753-.438c-.438,0-.876,0-.876.438a1.53,1.53,0,0,0-.438.876v.438l.438.438a1.53,1.53,0,0,0,.876.438c.438.438.876.438,1.315.876.438,0,.438.438.438.876Z" transform="translate(-149.2 -67.8)"/>
        <path id="Path_2511" data-name="Path 2511" class="cls-6" d="M156.935,71.506a6.334,6.334,0,0,1-.876,3.068c-.876.876-1.753.876-3.067.876H150.8V68h2.191a6.333,6.333,0,0,1,3.067.876A4.7,4.7,0,0,1,156.935,71.506Zm-1.315,0a2.324,2.324,0,0,0-2.629-2.629h-.876v5.7h.876C154.744,74.573,155.62,73.7,155.62,71.506Z" transform="translate(-143.789 -67.124)"/>
      </g>
      <g id="ND_2_" transform="translate(301.931 31.99)">
        <path id="Path_2512" data-name="Path 2512" class="cls-5" d="M156.611,61.988h-1.753l-3.944-6.135h0v6.135H149.6V54.1h1.315l3.944,6.135h0V54.1h1.315v7.888Z" transform="translate(-149.6 -54.1)"/>
        <path id="Path_2513" data-name="Path 2513" class="cls-5" d="M157.835,58.044a6.334,6.334,0,0,1-.876,3.068c-.876.876-1.753.876-3.067.876H151.7V54.1h2.191a6.333,6.333,0,0,1,3.067.876A6.334,6.334,0,0,1,157.835,58.044Zm-1.315,0a2.324,2.324,0,0,0-2.629-2.629h-.876v5.7h.876C155.644,61.111,156.52,60.235,156.52,58.044Z" transform="translate(-142.497 -54.1)"/>
      </g>
      <g id="Group_1665" data-name="Group 1665" transform="translate(179.23 26.731)">
        <path id="Path_2514" data-name="Path 2514" class="cls-5" d="M125.106,60.788l-2.191-6.573h0v6.573H121.6V52.9h1.753l2.191,6.135h0l2.191-6.135h1.753v7.888h-1.315V54.215h0l-2.191,6.573Z" transform="translate(-121.6 -52.9)"/>
        <path id="Path_2515" data-name="Path 2515" class="cls-5" d="M127.206,60.45h-1.315V53.876H123.7V53h5.7v.876h-2.191Z" transform="translate(-114.497 -52.562)"/>
      </g>
      <g id="Group_1666" data-name="Group 1666" transform="translate(196.321 112.621)">
        <path id="Path_2516" data-name="Path 2516" class="cls-6" d="M132.511,80.388H131.2l-1.315-4.382v0l-1.315,4.382h-1.315l-.876-3.944L125.5,72.5h1.315l1.315,4.382c0,.876.438,1.315.438,1.753V76.882l1.315-4.382H131.2l1.315,4.382c0,.438.438.876.438,1.753a2.635,2.635,0,0,1,.438-1.753l.876-4.382h1.315Z" transform="translate(-125.5 -72.5)"/>
        <path id="Path_2517" data-name="Path 2517" class="cls-6" d="M131.006,76.006l1.753-3.506h1.315l-2.629,4.82v3.068h-1.315V77.32L127.5,72.5h1.315Z" transform="translate(-118.736 -72.5)"/>
      </g>
      <g id="Group_1667" data-name="Group 1667" transform="translate(212.096 194.13)">
        <path id="Path_2518" data-name="Path 2518" class="cls-6" d="M133.044,91.976a2.277,2.277,0,0,0-1.753.876,3.284,3.284,0,0,0-.438,2.191,3.284,3.284,0,0,0,.438,2.191,2.277,2.277,0,0,0,1.753.876h.876c.438,0,.438,0,.876-.438v.876a3.284,3.284,0,0,1-2.191.438,3.7,3.7,0,0,1-2.629-.876,6.333,6.333,0,0,1-.876-3.068,3.95,3.95,0,0,1,.438-2.191l1.315-1.315a2.635,2.635,0,0,1,1.753-.438,3.951,3.951,0,0,1,2.191.438l-.438.876c-.438,0-.438-.438-.876-.438Z" transform="translate(-129.1 -91.1)"/>
        <path id="Path_2519" data-name="Path 2519" class="cls-6" d="M137.811,95.044a6.334,6.334,0,0,1-.876,3.068c-.438.876-1.315.876-2.629.876a3.7,3.7,0,0,1-2.629-.876,5.806,5.806,0,0,1,0-6.135c.438-.876,1.315-.876,2.629-.876a3.7,3.7,0,0,1,2.629.876A6.334,6.334,0,0,1,137.811,95.044Zm-5.7,0a3.284,3.284,0,0,0,.438,2.191,2.191,2.191,0,0,0,3.506,0,3.284,3.284,0,0,0,.438-2.191,3.284,3.284,0,0,0-.438-2.191,2.191,2.191,0,0,0-3.506,0C132.115,93.291,132.115,93.729,132.115,95.044Z" transform="translate(-123.35 -91.1)"/>
      </g>
      <g id="Group_1668" data-name="Group 1668" transform="translate(128.397 180.983)">
        <path id="Path_2520" data-name="Path 2520" class="cls-5" d="M116.135,88.538v4.82a1.61,1.61,0,0,1-.438,1.315c-.438.438-.438.876-.876.876-.438.438-.876.438-1.753.438A3,3,0,0,1,110,92.92V88.1h1.315v4.82c0,.438,0,1.315.438,1.315a1.61,1.61,0,0,0,1.315.438c1.315,0,1.753-.438,1.753-1.753V88.1h1.315Z" transform="translate(-110 -88.1)"/>
        <path id="Path_2521" data-name="Path 2521" class="cls-5" d="M115.206,95.65h-1.315V89.076H111.7V88.2h5.7v.876h-2.191Z" transform="translate(-104.25 -87.762)"/>
      </g>
      <g id="Group_1669" data-name="Group 1669" transform="translate(104.734 82.385)">
        <path id="Path_2522" data-name="Path 2522" class="cls-5" d="M104.6,73.488V65.6h1.315v7.888Z" transform="translate(-104.6 -65.6)"/>
        <path id="Path_2523" data-name="Path 2523" class="cls-5" d="M111.535,69.544a6.334,6.334,0,0,1-.876,3.068c-.876.876-1.753.876-3.067.876H105.4V65.6h2.191a6.334,6.334,0,0,1,3.067.876A6.335,6.335,0,0,1,111.535,69.544Zm-1.315,0a2.324,2.324,0,0,0-2.629-2.629h-.876v5.7h.876C109.344,72.173,110.22,71.3,110.22,69.544Z" transform="translate(-101.894 -65.6)"/>
      </g>
      <g id="Group_1670" data-name="Group 1670" transform="translate(107.363 265.997)">
        <path id="Path_2524" data-name="Path 2524" class="cls-5" d="M111.335,115.388l-.876-2.191h-3.067l-.876,2.191H105.2l3.068-7.888h1.315l3.068,7.888Zm-1.315-3.068-.876-2.191v-1.753c0,.438-.438.876-.438,1.315l-.876,2.191h2.191Z" transform="translate(-105.2 -107.5)"/>
        <path id="Path_2525" data-name="Path 2525" class="cls-5" d="M112.259,115.05H107v-.876l3.944-5.7H107V107.6h5.259v.876l-3.944,5.7h3.944Z" transform="translate(-99.112 -107.162)"/>
      </g>
      <g id="Group_1671" data-name="Group 1671" transform="translate(50.395 159.511)">
        <path id="Path_2526" data-name="Path 2526" class="cls-6" d="M99.211,91.088H97.459l-3.944-6.135h0v6.135H92.2V83.2h1.315l3.944,6.135h0V83.2h1.315v7.888Z" transform="translate(-92.2 -83.2)"/>
        <path id="Path_2527" data-name="Path 2527" class="cls-6" d="M99.359,83.2h1.315l-2.629,7.888H96.729L94.1,83.2h1.315l1.753,4.82c0,.438,0,.438.438.876v0c0-.438,0-.438.438-.876Z" transform="translate(-85.774 -83.2)"/>
      </g>
      <g id="Group_1672" data-name="Group 1672" transform="translate(33.743)">
        <path id="Path_2528" data-name="Path 2528" class="cls-6" d="M95.411,54.688H94.1l-1.315-4.382v0l-1.315,4.382H90.153l-.876-3.944L88.4,46.8h1.315l1.315,4.382c0,.876.438,1.315.438,1.753V51.182L92.782,46.8H94.1l1.315,4.382c0,.438.438.876.438,1.753a2.635,2.635,0,0,1,.438-1.753l.876-4.382h1.315Z" transform="translate(-88.4 -46.8)"/>
        <path id="Path_2529" data-name="Path 2529" class="cls-6" d="M96.535,54.688,95.659,52.5H92.591l-.876,2.191H90.4L93.467,46.8h1.315l3.068,7.888ZM95.22,51.182l-.876-2.191V47.238c0,.438-.438.876-.438,1.315l-.876,2.629Z" transform="translate(-81.636 -46.8)"/>
      </g>
      <g id="Group_1673" data-name="Group 1673" transform="translate(0 210.782)">
        <path id="Path_2530" data-name="Path 2530" d="M84.644,95.876a2.277,2.277,0,0,0-1.753.876,5.7,5.7,0,0,0,0,4.382,2.277,2.277,0,0,0,1.753.876h.876c.438,0,.438,0,.876-.438v.876a3.284,3.284,0,0,1-2.191.438,3.7,3.7,0,0,1-2.629-.876,6.333,6.333,0,0,1-.876-3.067,3.951,3.951,0,0,1,.438-2.191l1.315-1.315A2.635,2.635,0,0,1,84.206,95a3.951,3.951,0,0,1,2.191.438v.876c-.438,0-.438-.438-.876-.438Z" transform="translate(-80.7 -94.562)"/>
        <path id="Path_2531" data-name="Path 2531" d="M88.235,102.788l-.876-2.191H84.291l-.876,2.191H82.1L85.168,94.9h1.315l3.068,7.888Zm-.876-3.068-.876-2.191V95.776c0,.438-.438.876-.438,1.315l-.876,2.629Z" transform="translate(-75.965 -94.9)"/>
      </g>
      <g id="Group_1674" data-name="Group 1674" transform="translate(14.899 59.597)">
        <path id="Path_2532" data-name="Path 2532" class="cls-5" d="M91.111,64.344a6.334,6.334,0,0,1-.876,3.068c-.438.876-1.315.876-2.629.876a3.7,3.7,0,0,1-2.629-.876,5.806,5.806,0,0,1,0-6.135c.438-.876,1.315-.876,2.629-.876a3.7,3.7,0,0,1,2.629.876A6.334,6.334,0,0,1,91.111,64.344Zm-5.7,0a3.284,3.284,0,0,0,.438,2.191,2.191,2.191,0,0,0,3.506,0,3.284,3.284,0,0,0,.438-2.191,3.284,3.284,0,0,0-.438-2.191,2.191,2.191,0,0,0-3.506,0A3.951,3.951,0,0,0,85.415,64.344Z" transform="translate(-84.1 -60.4)"/>
        <path id="Path_2533" data-name="Path 2533" class="cls-5" d="M87.415,65.22v3.068H86.1V60.4h2.191a3.284,3.284,0,0,1,2.191.438,2.277,2.277,0,0,1,.876,1.753,2.41,2.41,0,0,1-1.315,2.191l2.191,3.506H90.92L89.167,65.22Zm0-.876h.876a1.61,1.61,0,0,0,1.315-.438c.438,0,.438-.438.438-.876s0-.876-.438-.876-.876-.438-1.315-.438h-.876Z" transform="translate(-77.336 -60.4)"/>
      </g>
      <g id="Group_1675" data-name="Group 1675" transform="translate(528.05 220.861)">
        <path id="Path_2534" data-name="Path 2534" class="cls-6" d="M207.335,105.526H206.02l-2.629-3.506-.876.438v3.068H201.2V97.638h1.315v3.506c.438-.438.876-.876.876-1.315l2.191-2.629H206.9a28.615,28.615,0,0,1-3.067,3.506Z" transform="translate(-201.2 -97.2)"/>
        <path id="Path_2535" data-name="Path 2535" class="cls-6" d="M206.006,100.806l1.753-3.506h1.315l-2.629,4.82v3.068h-1.315V102.12L202.5,97.3h1.315Z" transform="translate(-196.803 -96.862)"/>
      </g>
      <g id="Group_1676" data-name="Group 1676" transform="translate(724.809 23.225)">
        <path id="Path_2536" data-name="Path 2536" d="M249.606,59.988l-2.191-6.573h0v6.573H246.1V52.1h1.753l2.191,6.135h0l2.191-6.135h1.753v7.888h-1.315V53.415h0l-2.191,6.573Z" transform="translate(-246.1 -52.1)"/>
        <path id="Path_2537" data-name="Path 2537" d="M252.782,59.988H248.4V52.1h4.382v.876h-3.067v2.191h3.067v.876h-3.067v2.191h3.067Z" transform="translate(-238.321 -52.1)"/>
      </g>
      <g id="Group_1677" data-name="Group 1677" transform="translate(625.772 135.847)">
        <path id="Path_2538" data-name="Path 2538" class="cls-6" d="M228.759,80.429a2.277,2.277,0,0,1-.876,1.753,3.284,3.284,0,0,1-2.191.438h-.876v3.067H223.5V77.8h2.191a3.284,3.284,0,0,1,2.191.438A2.833,2.833,0,0,1,228.759,80.429Zm-3.944,1.753h.876c.438,0,1.315,0,1.315-.438.438-.438.438-.438.438-.876s0-.876-.438-.876-.876-.438-1.315-.438h-.876Z" transform="translate(-223.5 -77.8)"/>
        <path id="Path_2539" data-name="Path 2539" class="cls-6" d="M230.935,85.788l-.876-2.191h-3.067l-.876,2.191H224.8l3.068-7.888h1.315l3.067,7.888Zm-1.315-3.506-.876-2.191V78.338c0,.438-.438.876-.438,1.315l-.876,2.191h2.191Z" transform="translate(-219.103 -77.462)"/>
      </g>
      <g id="Group_1678" data-name="Group 1678" transform="translate(524.983 107.801)">
        <path id="Path_2540" data-name="Path 2540" class="cls-5" d="M204.006,79.288l-2.191-6.573h0v6.573H200.5V71.4h1.753l2.191,6.135h0l2.191-6.135h1.753v7.888h-1.315V72.715h0l-2.191,6.573h-.876Z" transform="translate(-200.5 -71.4)"/>
        <path id="Path_2541" data-name="Path 2541" class="cls-5" d="M202.8,79.288V71.4h1.315v7.888Z" transform="translate(-192.721 -71.4)"/>
      </g>
      <g id="Group_1679" data-name="Group 1679" transform="translate(704.651 90.272)">
        <path id="Path_2542" data-name="Path 2542" class="cls-5" d="M245.006,75.288l-2.191-6.573h0v6.573H241.5V67.4h1.753l2.191,6.135h0l2.191-6.135h1.753v7.888h-1.315V68.715h0l-2.191,6.573h-.876Z" transform="translate(-241.5 -67.4)"/>
        <path id="Path_2543" data-name="Path 2543" class="cls-5" d="M249.635,75.288l-.876-2.191h-3.068l-.876,2.191H243.5l3.068-7.888h1.315l3.068,7.888Zm-.876-3.067-.876-2.191V68.276c0,.438-.438.876-.438,1.315l-.876,2.191h2.191Z" transform="translate(-234.736 -67.4)"/>
      </g>
      <g id="Group_1680" data-name="Group 1680" transform="translate(696.325 106.925)">
        <path id="Path_2544" data-name="Path 2544" class="cls-5" d="M243.544,72.076a2.277,2.277,0,0,0-1.753.876,3.284,3.284,0,0,0-.438,2.191,3.284,3.284,0,0,0,.438,2.191,2.277,2.277,0,0,0,1.753.876h.876c.438,0,.438,0,.876-.438v.876a3.284,3.284,0,0,1-2.191.438,3.7,3.7,0,0,1-2.629-.876,6.333,6.333,0,0,1-.876-3.068,3.95,3.95,0,0,1,.438-2.191l1.315-1.315a2.635,2.635,0,0,1,1.753-.438,3.95,3.95,0,0,1,2.191.438l-.438.876c-.438,0-.438-.438-.876-.438Z" transform="translate(-239.6 -71.2)"/>
        <path id="Path_2545" data-name="Path 2545" class="cls-5" d="M244.606,78.65h-1.315V72.076H241.1V71.2h5.7v.876h-2.191Z" transform="translate(-234.527 -71.2)"/>
      </g>
      <g id="Group_1681" data-name="Group 1681" transform="translate(586.771 193.691)">
        <path id="Path_2546" data-name="Path 2546" class="cls-5" d="M221.612,98.888H220.3l-1.315-4.382v0l-1.315,4.382h-1.315l-.876-3.944L214.6,91h1.315l1.315,4.382c0,.876.438,1.315.438,1.753V95.382L218.982,91H220.3l1.315,4.382c0,.438.438.876.438,1.753a2.634,2.634,0,0,1,.438-1.753L223.364,91h1.315Z" transform="translate(-214.6 -91)"/>
        <path id="Path_2547" data-name="Path 2547" class="cls-5" d="M221.959,91h1.315l-2.629,7.888h-1.315L216.7,91h1.315l1.753,4.82c0,.438,0,.438.438.876v0c0-.438,0-.438.438-.876Z" transform="translate(-207.498 -91)"/>
      </g>
      <g id="Group_1682" data-name="Group 1682" transform="translate(553.467 161.263)">
        <path id="Path_2548" data-name="Path 2548" class="cls-5" d="M214.011,87.544a6.334,6.334,0,0,1-.876,3.068c-.438.876-1.315.876-2.629.876a3.7,3.7,0,0,1-2.629-.876,5.807,5.807,0,0,1,0-6.135c.438-.876,1.315-.876,2.629-.876a3.7,3.7,0,0,1,2.629.876A6.334,6.334,0,0,1,214.011,87.544Zm-6.135,0a3.284,3.284,0,0,0,.438,2.191,2.191,2.191,0,0,0,3.506,0,3.284,3.284,0,0,0,.438-2.191,3.284,3.284,0,0,0-.438-2.191,2.191,2.191,0,0,0-3.506,0A18.978,18.978,0,0,0,207.876,87.544Z" transform="translate(-207 -83.6)"/>
        <path id="Path_2549" data-name="Path 2549" class="cls-5" d="M215.035,91.488H213.72V87.982h-3.506v3.506H208.9V83.6h1.315v3.067h3.506V83.6h1.315Z" transform="translate(-200.574 -83.6)"/>
      </g>
      <g id="Group_1683" data-name="Group 1683" transform="translate(510.521 172.657)">
        <path id="Path_2550" data-name="Path 2550" class="cls-5" d="M197.2,94.088V86.2h1.315v7.888Z" transform="translate(-197.2 -86.2)"/>
        <path id="Path_2551" data-name="Path 2551" class="cls-5" d="M204.135,94.088h-1.753l-3.944-6.135h0v6.135H198V86.2h1.315l3.944,6.135h0V86.2h1.315v7.888Z" transform="translate(-194.494 -86.2)"/>
      </g>
      <g id="Group_1684" data-name="Group 1684" transform="translate(463.194 166.084)">
        <path id="Path_2552" data-name="Path 2552" class="cls-5" d="M186.4,92.588V84.7h1.315v7.888Z" transform="translate(-186.4 -84.7)"/>
        <path id="Path_2553" data-name="Path 2553" class="cls-5" d="M187.2,92.588V84.7h1.315v6.573h3.068v.876H187.2Z" transform="translate(-183.694 -84.7)"/>
      </g>
      <g id="Group_1685" data-name="Group 1685" transform="translate(632.345 244.086)">
        <path id="Path_2554" data-name="Path 2554" class="cls-6" d="M232.011,110.388h-1.753l-3.944-6.135h0v6.135H225V102.5h1.315l3.944,6.135h0V102.5h1.315v7.888Z" transform="translate(-225 -102.5)"/>
        <path id="Path_2555" data-name="Path 2555" class="cls-6" d="M230.844,103.476a2.277,2.277,0,0,0-1.753.876,5.7,5.7,0,0,0,0,4.382,2.277,2.277,0,0,0,1.753.876h.876c.438,0,.438,0,.876-.438v.876a3.284,3.284,0,0,1-2.191.438,3.7,3.7,0,0,1-2.629-.876,6.333,6.333,0,0,1-.876-3.068,3.95,3.95,0,0,1,.438-2.191l1.315-1.315a2.635,2.635,0,0,1,1.753-.438,3.951,3.951,0,0,1,2.191.438l-.438.876c-.438,0-.438-.438-.876-.438Z" transform="translate(-218.574 -102.162)"/>
      </g>
      <g id="Group_1686" data-name="Group 1686" transform="translate(507.454 255.918)">
        <path id="Path_2556" data-name="Path 2556" class="cls-5" d="M200.006,112.75h-1.315v-6.573H196.5V105.3h5.7v.876h-2.191Z" transform="translate(-196.5 -104.862)"/>
        <path id="Path_2557" data-name="Path 2557" class="cls-5" d="M204.911,113.088h-1.753l-3.944-6.135h0v6.135H197.9V105.2h1.315l3.944,6.135h0V105.2h1.315v7.888Z" transform="translate(-191.765 -105.2)"/>
      </g>
      <g id="Group_1687" data-name="Group 1687" transform="translate(606.491 283.526)">
        <path id="Path_2558" data-name="Path 2558" class="cls-5" d="M224.359,117.635a2.277,2.277,0,0,1-.876,1.753,5.7,5.7,0,0,1-4.382,0v-1.315c.438,0,.876.438,1.315.438h1.315a1.61,1.61,0,0,0,1.315-.438c.438,0,.438-.438.438-.876s0-.438-.438-.876a6.3,6.3,0,0,1-1.315-.876c-.876-.438-1.315-.438-1.315-.876a1.61,1.61,0,0,1-.438-1.315c0-.438.438-1.315.876-1.315s.876-.438,1.753-.438a3.95,3.95,0,0,1,2.191.438l-.438.876a3.312,3.312,0,0,0-1.753-.438c-.438,0-.876,0-.876.438a1.53,1.53,0,0,0-.438.876v.438l.438.438a1.53,1.53,0,0,0,.876.438c.438.438.876.438,1.315.876.438,0,.438.438.438.876Z" transform="translate(-219.1 -111.5)"/>
        <path id="Path_2559" data-name="Path 2559" class="cls-5" d="M224.444,112.576a2.276,2.276,0,0,0-1.753.876,5.7,5.7,0,0,0,0,4.382,2.277,2.277,0,0,0,1.753.876h.876c.438,0,.438,0,.876-.438v.876a3.284,3.284,0,0,1-2.191.438,3.7,3.7,0,0,1-2.629-.876,6.333,6.333,0,0,1-.876-3.068,3.95,3.95,0,0,1,.438-2.191l1.315-1.315a2.635,2.635,0,0,1,1.753-.438,3.95,3.95,0,0,1,2.191.438l-.438.876c-.438,0-.438-.438-.876-.438Z" transform="translate(-214.365 -110.824)"/>
      </g>
      <g id="Group_1688" data-name="Group 1688" transform="translate(511.836 304.998)">
        <path id="Path_2560" data-name="Path 2560" class="cls-6" d="M203.2,124.288l-.876-2.191h-2.629l-.876,2.191H197.5l3.068-7.888h1.315l3.068,7.888Zm-.876-3.067-.876-2.191v-1.753c0,.438-.438.876-.438,1.315l-.876,2.191h2.191Z" transform="translate(-197.5 -116.4)"/>
        <path id="Path_2561" data-name="Path 2561" class="cls-6" d="M199.4,124.288V116.4h1.315v6.573h3.068v.876H199.4Z" transform="translate(-191.074 -116.4)"/>
      </g>
      <g id="Group_1689" data-name="Group 1689" transform="translate(463.632 301.493)">
        <path id="Path_2562" data-name="Path 2562" class="cls-5" d="M190.006,123.588l-2.191-6.573h0v6.573H186.5V115.7h1.753l2.191,6.135h0l2.191-6.135h1.753v7.888h-1.315v-6.573h0l-2.191,6.573h-.876Z" transform="translate(-186.5 -115.262)"/>
        <path id="Path_2563" data-name="Path 2563" class="cls-5" d="M193.859,121.735a2.277,2.277,0,0,1-.876,1.753,5.7,5.7,0,0,1-4.382,0v-1.315c.438,0,.876.438,1.315.438h1.315a1.61,1.61,0,0,0,1.315-.438c.438,0,.438-.438.438-.876s0-.438-.438-.876a6.305,6.305,0,0,1-1.315-.876c-.876-.438-1.315-.438-1.315-.876a1.61,1.61,0,0,1-.438-1.315c0-.438.438-1.315.876-1.315.438-.438.876-.438,1.753-.438a3.951,3.951,0,0,1,2.191.438l-.438.876a3.313,3.313,0,0,0-1.753-.438c-.438,0-.876,0-.876.438a1.53,1.53,0,0,0-.438.876v.438l.438.438a1.53,1.53,0,0,0,.876.438c.438.438.876.438,1.315.876.438,0,.438.438.438.876Z" transform="translate(-179.397 -115.6)"/>
      </g>
      <g id="Group_1690" data-name="Group 1690" transform="translate(416.305 279.582)">
        <path id="Path_2564" data-name="Path 2564" class="cls-6" d="M181.835,118.488l-.876-2.191h-3.067l-.876,2.191H175.7l3.068-7.888h1.315l3.067,7.888Zm-.877-3.506-.876-2.191v-1.753c0,.438-.438.876-.438,1.315l-.876,2.191h2.191Z" transform="translate(-175.7 -110.6)"/>
        <path id="Path_2565" data-name="Path 2565" class="cls-6" d="M178.915,115.42v3.068H177.6V110.6h2.191a3.284,3.284,0,0,1,2.191.438,2.277,2.277,0,0,1,.876,1.753,2.41,2.41,0,0,1-1.315,2.191l2.191,3.506H182.42l-1.753-3.068Zm0-1.315h.876a1.61,1.61,0,0,0,1.315-.438c.438,0,.438-.438.438-.876s0-.876-.438-.876-.876-.438-1.315-.438h-.876Z" transform="translate(-169.274 -110.6)"/>
      </g>
      <g id="Group_1691" data-name="Group 1691" transform="translate(420.249 349.258)">
        <path id="Path_2566" data-name="Path 2566" class="cls-5" d="M176.6,134.388V126.5h1.315v6.573h3.068v.876H176.6Z" transform="translate(-176.6 -126.5)"/>
        <path id="Path_2567" data-name="Path 2567" class="cls-5" d="M183.735,134.388l-.876-2.191h-3.067l-.876,2.191H177.6l3.067-7.888h1.315l3.067,7.888Zm-1.315-3.068-.876-2.191v-1.753c0,.438-.438.876-.438,1.315l-.876,2.191h2.191Z" transform="translate(-173.218 -126.5)"/>
      </g>
      <g id="Group_1692" data-name="Group 1692" transform="translate(415.867 212.096)">
        <path id="Path_2568" data-name="Path 2568" class="cls-5" d="M179.106,103.088l-2.191-6.573h0v6.573H175.6V95.2h1.753l2.191,6.135h0l2.191-6.135h1.753v7.888h-1.315V96.515h0l-2.191,6.573Z" transform="translate(-175.6 -95.2)"/>
        <path id="Path_2569" data-name="Path 2569" class="cls-5" d="M184.912,99.244a6.334,6.334,0,0,1-.876,3.068c-.438.876-1.315.876-2.629.876a3.7,3.7,0,0,1-2.629-.876,5.806,5.806,0,0,1,0-6.135c.438-.876,1.315-.876,2.629-.876a3.7,3.7,0,0,1,2.629.876A6.334,6.334,0,0,1,184.912,99.244Zm-5.7,0a3.284,3.284,0,0,0,.438,2.191,2.191,2.191,0,0,0,3.506,0,5.7,5.7,0,0,0,0-4.382,2.191,2.191,0,0,0-3.506,0C179.215,97.491,179.215,97.929,179.215,99.244Z" transform="translate(-167.821 -94.862)"/>
      </g>
      <g id="Group_1693" data-name="Group 1693" transform="translate(397.024 138.038)">
        <path id="Path_2570" data-name="Path 2570" class="cls-6" d="M171.3,86.188V78.3h1.315v7.888Z" transform="translate(-171.3 -78.3)"/>
        <path id="Path_2571" data-name="Path 2571" class="cls-6" d="M177.835,86.188,176.959,84h-3.068l-.876,2.191H171.7l3.068-7.888h1.315l3.067,7.888Zm-.876-3.506-.876-2.191V78.738c0,.438-.438.876-.438,1.315l-.876,2.191h2.191Z" transform="translate(-169.947 -78.3)"/>
      </g>
      <g id="Group_1694" data-name="Group 1694" transform="translate(382.562 58.721)">
        <path id="Path_2572" data-name="Path 2572" class="cls-5" d="M171.068,68.088l-2.191-6.573h0v6.573H168V60.2h1.753l2.191,6.135h0l2.191-6.135h1.753v7.888h-1.315V61.515h0l-2.191,6.573Z" transform="translate(-168 -60.2)"/>
        <path id="Path_2573" data-name="Path 2573" class="cls-5" d="M177.111,68.088h-1.753l-3.944-6.135h0v6.135H170.1V60.2h1.315l3.944,6.135h0V60.2h1.315v7.888Z" transform="translate(-160.897 -60.2)"/>
      </g>
      <g id="Group_1695" data-name="Group 1695" transform="translate(452.239 92.025)">
        <path id="Path_2574" data-name="Path 2574" class="cls-6" d="M190.912,75.688H189.6l-1.315-4.382v0l-1.315,4.382h-1.315l-.876-3.944L183.9,67.8h1.315l1.315,4.382c0,.876.438,1.315.438,1.753V72.182l1.315-4.382H189.6l1.315,4.382c0,.438.438.876.438,1.753a2.634,2.634,0,0,1,.438-1.753l.876-4.382h1.315Z" transform="translate(-183.9 -67.8)"/>
        <path id="Path_2575" data-name="Path 2575" class="cls-6" d="M186.2,75.688V67.8h1.315v7.888Z" transform="translate(-176.121 -67.8)"/>
      </g>
      <g id="Group_1696" data-name="Group 1696" transform="translate(673.976 154.69)">
        <path id="Path_2576" data-name="Path 2576" class="cls-5" d="M241.511,89.988h-1.753l-3.944-6.135h0v6.135H234.5V82.1h1.315l3.944,6.135h0V82.1h1.315v7.888Z" transform="translate(-234.5 -82.1)"/>
        <path id="Path_2577" data-name="Path 2577" class="cls-5" d="M237.076,91.841H236.2v-.876h.876c.876,0,.876-.438.876-1.315V82.2h1.315v7.45c0,.876,0,1.315-.438,1.753A2.635,2.635,0,0,1,237.076,91.841Z" transform="translate(-228.75 -81.762)"/>
      </g>
      <g id="Group_1697" data-name="Group 1697" transform="translate(684.493 54.777)">
        <path id="Path_2578" data-name="Path 2578" d="M242.159,59.3h1.315l-2.629,7.888h-1.315L236.9,59.3h1.315l1.753,4.82c0,.438,0,.438.438.876v0c0-.438,0-.438.438-.876Z" transform="translate(-236.9 -59.3)"/>
        <path id="Path_2579" data-name="Path 2579" d="M241.906,66.85h-1.315V60.276H238.4V59.4h5.7v.876h-2.191Z" transform="translate(-231.827 -58.962)"/>
      </g>
      <g id="NH_2_" transform="translate(700.269 68.8)">
        <path id="Path_2580" data-name="Path 2580" class="cls-5" d="M247.511,70.388h-1.753l-3.944-6.135h0v6.135H240.5V62.5h1.315l3.944,6.135h0V62.5h1.315v7.888Z" transform="translate(-240.5 -62.5)"/>
        <path id="Path_2581" data-name="Path 2581" class="cls-5" d="M248.635,70.388H247.32V66.882h-3.506v3.506H242.5V62.5h1.315v3.068h3.506V62.5h1.315Z" transform="translate(-233.736 -62.5)"/>
      </g>
      <g id="Group_1698" data-name="Group 1698" transform="translate(644.177 164.331)">
        <path id="Path_2582" data-name="Path 2582" class="cls-5" d="M233.835,88.244a6.334,6.334,0,0,1-.876,3.068c-.876.876-1.753.876-3.068.876H227.7V84.3h2.191a6.333,6.333,0,0,1,3.068.876C233.835,86.053,233.835,86.929,233.835,88.244Zm-1.315,0a2.324,2.324,0,0,0-2.629-2.629h-.876v5.7h.876C231.644,90.873,232.52,90,232.52,88.244Z" transform="translate(-227.7 -84.3)"/>
        <path id="Path_2583" data-name="Path 2583" class="cls-5" d="M233.344,85.176a2.277,2.277,0,0,0-1.753.876,3.284,3.284,0,0,0-.438,2.191,3.284,3.284,0,0,0,.438,2.191,2.277,2.277,0,0,0,1.753.876h.876c.438,0,.438,0,.876-.438v.876a3.284,3.284,0,0,1-2.191.438,3.7,3.7,0,0,1-2.629-.876,6.334,6.334,0,0,1-.876-3.068,3.951,3.951,0,0,1,.438-2.191l1.315-1.315a2.635,2.635,0,0,1,1.753-.438,3.951,3.951,0,0,1,2.191.438l-.438.876c-.438,0-.438-.438-.876-.438C233.782,85.615,233.344,85.176,233.344,85.176Z" transform="translate(-221.95 -84.3)"/>
      </g>
    </g>
  </g>
</svg>
