<svg xmlns="http://www.w3.org/2000/svg" xmlns:xlink="http://www.w3.org/1999/xlink" viewBox="328.267 1078 80 60.725">
  <defs>
    <style>
      .cls-1 {
        fill: url(#linear-gradient);
      }

      .cls-2 {
        fill: url(#linear-gradient-2);
      }

      .cls-3 {
        fill: url(#linear-gradient-3);
      }

      .cls-4 {
        fill: url(#linear-gradient-4);
      }

      .cls-5 {
        fill: url(#linear-gradient-5);
      }

      .cls-6 {
        fill: #ebedee;
      }

      .cls-7 {
        fill: url(#linear-gradient-6);
      }

      .cls-8 {
        opacity: 0.833;
      }

      .cls-9 {
        fill: url(#linear-gradient-7);
      }

      .cls-10 {
        opacity: 0.667;
      }

      .cls-11 {
        fill: url(#linear-gradient-8);
      }

      .cls-12 {
        opacity: 0.5;
      }

      .cls-13 {
        fill: url(#linear-gradient-9);
      }

      .cls-14 {
        opacity: 0.333;
      }

      .cls-15 {
        fill: url(#linear-gradient-10);
      }

      .cls-16 {
        opacity: 0.167;
      }

      .cls-17 {
        fill: url(#linear-gradient-11);
      }

      .cls-18 {
        opacity: 0;
      }

      .cls-19 {
        fill: url(#linear-gradient-12);
      }
    </style>
    <linearGradient id="linear-gradient" y1="0.5" x2="1" y2="0.5" gradientUnits="objectBoundingBox">
      <stop offset="0" stop-color="#3e77bc"/>
      <stop offset="1" stop-color="#529fd8"/>
    </linearGradient>
    <linearGradient id="linear-gradient-2" x1="-0.017" y1="0.47" x2="0.982" y2="0.47" xlink:href="#linear-gradient"/>
    <linearGradient id="linear-gradient-3" x1="-0.003" y1="0.475" x2="0.991" y2="0.475" xlink:href="#linear-gradient"/>
    <linearGradient id="linear-gradient-4" x1="0" y1="0.501" x2="1" y2="0.501" xlink:href="#linear-gradient"/>
    <linearGradient id="linear-gradient-5" x1="0.001" y1="0.504" x2="1.001" y2="0.504" xlink:href="#linear-gradient"/>
    <linearGradient id="linear-gradient-6" x1="-52.303" y1="-38.528" x2="-61.084" y2="-32" xlink:href="#linear-gradient"/>
    <linearGradient id="linear-gradient-7" x1="-31.698" y1="-23.214" x2="-37.152" y2="-19.262" xlink:href="#linear-gradient"/>
    <linearGradient id="linear-gradient-8" x1="-22.428" y1="-16.592" x2="-26.385" y2="-13.753" xlink:href="#linear-gradient"/>
    <linearGradient id="linear-gradient-9" x1="-17.192" y1="-12.867" x2="-20.304" y2="-10.655" xlink:href="#linear-gradient"/>
    <linearGradient id="linear-gradient-10" x1="-13.801" y1="-10.487" x2="-16.365" y2="-8.675" xlink:href="#linear-gradient"/>
    <linearGradient id="linear-gradient-11" x1="-11.422" y1="-8.837" x2="-13.603" y2="-7.302" xlink:href="#linear-gradient"/>
    <linearGradient id="linear-gradient-12" x1="-9.664" y1="-7.625" x2="-11.561" y2="-6.294" xlink:href="#linear-gradient"/>
  </defs>
  <g id="icon_28" data-name="icon 28" transform="translate(255.767 913.392)">
    <g id="Group_3283" data-name="Group 3283" transform="translate(72.5 187.941)">
      <g id="Group_3282" data-name="Group 3282" transform="translate(0)">
        <path id="Path_4493" data-name="Path 4493" class="cls-1" d="M115.732,299.093a.464.464,0,0,1-.24-.072L72.74,274.34a.465.465,0,0,1-.24-.409.5.5,0,0,1,.216-.409L91.749,261.7l.264.409L72.981,273.932l42.752,24.68,36.287-22.541-15.068-8.7.24-.409,15.068,8.7a.465.465,0,0,1,.24.409.5.5,0,0,1-.216.409L116,299.021A.485.485,0,0,1,115.732,299.093Z" transform="translate(-72.5 -261.7)"/>
      </g>
    </g>
    <g id="Group_3284" data-name="Group 3284" transform="translate(92.189 164.608)">
      <path id="Path_4495" data-name="Path 4495" class="cls-2" d="M160.443,225.536c.36-.072.625-.1.7-.12a3.053,3.053,0,0,1-.385-.144l-.216-.072a.782.782,0,0,0-.1.336Z" transform="translate(-158.985 -210.639)"/>
      <path id="Path_4496" data-name="Path 4496" class="cls-3" d="M304.3,220.344c-.168.048-.264.072-.553-.144l-.264-.216-.168.625a1.817,1.817,0,0,0-.216.7,1.685,1.685,0,0,0,.24.384.9.9,0,0,1,.144-.168l.12-.144c.264-.481.288-.5,1.514-.721h.024a2.724,2.724,0,0,0,.769-.1,2.162,2.162,0,0,0-.24-.288l-.12-.144c-.433-.409-.577-.457-.865-.36a.242.242,0,0,0-.072.024.611.611,0,0,0,.048.168.4.4,0,0,1,0,.288A1.12,1.12,0,0,0,304.3,220.344Z" transform="translate(-267.373 -206.48)"/>
      <path id="Path_4497" data-name="Path 4497" class="cls-4" d="M216.845,181.861a6.212,6.212,0,0,0,.841.913.658.658,0,0,0,.312-.216l.384-.264.553.409a.866.866,0,0,1,.577.433v.048c-.048.12-.409,1.2-.5,1.394l-.024.024h-.024c-.024,0-.072.072-.144.12a6,6,0,0,1-.673.529c-.481.409-.7.577-.841.553a.125.125,0,0,1-.1-.048h0a12.558,12.558,0,0,1-1.586-1.682l-.168-.192c-.625-.721-1.274-1.466-1.418-1.586h0l-.072-.048c-.024-.024-.072-.024-.144-.024a.409.409,0,0,0-.24.144l-.024.024a1.429,1.429,0,0,0,.048.312l.12.481,1.081,1.274a6.51,6.51,0,0,0,1.442,1.418l.048.024c.144.048.288.1.409.144a1.776,1.776,0,0,0,.481.144l.024-.048.048-.024,1.178-.336.264-.072h0l.024.072h0v.12h0c-.1.5-.577,2.163-.7,2.523-.336,1.322-.625,2.427-.673,2.6a1.13,1.13,0,0,0,.216.288c.168.1.24.24.433.721l.072.168c.288.745.288.769-.168,1.418l-.12.168a1.919,1.919,0,0,0,.072.745c.048.24.072.529.1.649v.048a32.911,32.911,0,0,1-1.394,3.557l-.913.264a3.992,3.992,0,0,0-.865.12l-.072.024-.024-.048c-.024-.048-.216-.312-.481-.673-.264-.384-.625-.865-1.009-1.442l-1.466-2.163.12-.481.144-.312-.384-1.3-.312-.168a9.515,9.515,0,0,0-.889-.673l-.6-.433.192-.385c.048-.1.1-.168.12-.216a2.258,2.258,0,0,0-.625-.168h-.024l-.7-.312-1.346.384c-1.3.264-1.322.264-1.538.168l-.024-.024a.861.861,0,0,0-.264-.144,7.438,7.438,0,0,1-.649-.384c-.168-.072-.36-.168-.481-.216-.072-.048-.168-.072-.192-.1l-.048.024-.024-.072c-.072-.12-.312-.841-.6-1.73l-.481-1.514,1.2-2.139,1.226-1.995,1.8-.817.409.264a.557.557,0,0,1,.336.433l.1.312.673.048c.144,0,.288.024.409.024.144,0,.288.024.336.024a1.66,1.66,0,0,0,.216-.433l.024-.024c.24-.288.312-.385.36-.385.048-.024.12,0,.433.144l.264.048,1.009-.168.817-.24a2.657,2.657,0,0,0-.409-.264.22.22,0,0,1-.12-.072c-.1-.072-.336-.264-.457-.24a.024.024,0,0,0-.024.024.521.521,0,0,1,0,.384.607.607,0,0,1-.336.216h-.12a.074.074,0,0,1-.048-.024H211.2c-.024,0-.048-.024-.072-.024h0c-.048-.024-.072-.024-.12-.048a.024.024,0,0,1-.024-.024c-.048-.024-.1-.024-.12-.048h-.024a.217.217,0,0,0-.12-.024c-.433-.168-.577-.264-.649-.409-.024-.072-.072-.144-.12-.264-.048-.1-.1-.216-.144-.336a1.582,1.582,0,0,0-.721-.817,6.836,6.836,0,0,0-1.081-.721c0,.024,0,.048-.024.048,0,.048-.024.048,0,.1.072.072.36.336.649.6.6.5.7.649.673.817s-.264.937-.385.961c-.1.024-.192,0-.529-.721-.12-.264-.192-.288-.673-.5-.12-.048-.264-.12-.457-.216l-.312-.12-.168.385c-.216.336-.288.409-.529.312l-.192.048a5.629,5.629,0,0,0-.7,1.25,3.9,3.9,0,0,0-.24.433l-.216.384v.024c-.264.481-.264.481-.312.5s-.1.024-.168-.072l-.024-.024h0l-.024-.024-.048-.048h0c-.1-.144-.264-.36-.529-.745l-.216-.336c-.384-.577-.481-.721-.433-.817.048-.072.144-.072.312-.072l1.057-.312.048-.24c.048-.36.048-.36-.264-.625l-.024-.024c-.144-.072-.312-.192-.336-.36l-.024-.072h.048v-.024a1.4,1.4,0,0,1,.312-.457c.216-.457.36-.529.6-.6l.048-.048a1.874,1.874,0,0,0,.481-.745,2.025,2.025,0,0,0,.312-.7c-.024-.048-.1-.144-.216-.336a1.286,1.286,0,0,1-.168-.216l-.024-.024c-.048-.192.312-.577.433-.625.048,0,.072-.024.384.192l.264.288.769-.36.865-.264v-.336L208,175.18l.865-.673c.312-.288.577-.553.721-.673l.048-.048a.913.913,0,0,0-.144-.12l-.144-.072-.5.288a1.684,1.684,0,0,0-.24.192c-.264.192-.312.24-.36.264l-.048.024-.024-.024a4.074,4.074,0,0,1-.649-.793V173.5a1.435,1.435,0,0,1,.312-.5,2.218,2.218,0,0,0,.12-.24.745.745,0,0,0,.12-.264,4.879,4.879,0,0,0-.529-.312c-.1.336-.5,1.538-.6,1.826.048.024.12.1.216.144l.288.216.216,1.105-.457.288c-.625.457-.7.5-1.009.1l-.048-.048a1.556,1.556,0,0,1-.192-.216,1.977,1.977,0,0,0-.5.288h-.024l-.649.192-.024-.048a5.217,5.217,0,0,1-.288-1.322c.024-.288,1.057-3.436,1.129-3.581.048-.12.192-.336,1.105-.769a5.44,5.44,0,0,1,1.081-.721,3.592,3.592,0,0,1,.769-.024h1.154c.985-.024,1.73-.12,1.754-.12l.048-.024.048.024h0l.024.024h0a1.8,1.8,0,0,1-.024.288v.048h0a2.742,2.742,0,0,1-.288.889c-.072.168-.12.192-.649.216h-.072l-.409.12a.835.835,0,0,0,.433.264l.024.024.457.336.12-.12c.048-.072.144-.216.312-.433a10.2,10.2,0,0,0,.7-.961l.336-.384a22.8,22.8,0,0,0-26.434-1.8c-.7.457-1.418.961-2.211,1.562A21.162,21.162,0,0,0,182,171.239l1.322-1.081,1.274-.24.673-.144c1.2-.264,1.418-.312,1.514-.24a.125.125,0,0,1,.048.1v.072h-.024a.406.406,0,0,1-.048.12,21.556,21.556,0,0,1-.841,1.995c-.192.481-.361.937-.5,1.322-.24.625-.336.865-.36.961h.024l.024.048a9.086,9.086,0,0,0,.937.481c.433.216.961.481,1.562.769,1.274.553,2.379,1.178,2.379,1.178l.048.024-.024.072s-.168.457-.36,1.057l-.457.841-1.2.216a6.188,6.188,0,0,1-1.226-.024h-.12l-.024-.024a2.91,2.91,0,0,1-.168-.817,6.871,6.871,0,0,0-.12-.721v-.024c-.024-.048-.048-.048-.336.024-.144.048-.312.1-.288.144v.072h-.024a3.227,3.227,0,0,0-.024.5l-.024.529.264.433c.1.168.264.457.24.529l-.024.048-.048.024-.721.216c-.192.024-.336.048-.457.072-.625.1-.625.1-.793.7l-.024.1c-.048.144-.072.288-.12.409a3,3,0,0,0-.1.433.666.666,0,0,0,.336.24.9.9,0,0,0,.841.144h.048a3.655,3.655,0,0,0,.673.072h.024l.024.024a.8.8,0,0,0,.144.072,3.721,3.721,0,0,1,.793.481c.1.072.216.144.312.216a4.417,4.417,0,0,0,.433.288,5.043,5.043,0,0,0,0-1.346c-.024-.024-.1-.12-.168-.192-.144-.1-.192-.24-.384-.865-.168-.577-.192-.721-.144-.793a.332.332,0,0,1,.1-.072,17.6,17.6,0,0,1,3.076-.192,14.717,14.717,0,0,1,1.562,1.154c.312.24.577.433.769.577.649.481.745.553.7.7v.048h-.024a2.644,2.644,0,0,0-.288.336c-.24.264-.577.673-.961,1.105a12.69,12.69,0,0,1-1.2,1.418,4.824,4.824,0,0,0,.12.577l.144.577-.336.1c-.24.072-.24.072-.409.36-.12.288-.12.409-.072.481l.072.12c.24.433.216.457-.12,1.105l-.12.24c-.24.409-.385.7-.433.769a2.243,2.243,0,0,0,.312.529l.1.168c.192.312.24.385.192.481-.024.072-.1.1-.192.12-.048,0-.072.024-.144.024-.336.1-.385.072-.7-.24-.048-.024-.1-.072-.144-.1-.336-.264-.336-.264-1.226,0l-.961.288a12.658,12.658,0,0,0-.264,1.634,3.3,3.3,0,0,0,1.033.553h0c.024,0,.1-.048.409-.385l.36-.409.625.144.072.433a4.984,4.984,0,0,0,.144.625l.048.168.192-.072c.144-.048.336-.1.433.048a1.624,1.624,0,0,1,.288.5l.072.144c.168.384.168.384.529.288.072-.024.168-.048.288-.1l.649-.192.529-.433.529-.577.553.12a6.259,6.259,0,0,0,.865-.072c.12-.024.264-.024.457-.048l.913-.264.024.048c.072.144.192.36.288.6a3,3,0,0,0,.24.529l.649-.192a1.906,1.906,0,0,1,.673-.072h.024c.048-.024.1-.024.36.649a1.928,1.928,0,0,0,.264.529h.024l.024.048c.048.072.192.024.457-.048l.457-.12.5.168h0l.985.336a16.307,16.307,0,0,1,1.514.649l.048.024-.024.072a5.119,5.119,0,0,1-.216.6c-.1.24-.168.481-.192.553v.024c.024.072.048.312.12.577v.024l.024.12h0c.024.1.024.192.048.288l.12.793-.168.481c-.24.481-3.292,7.45-3.364,7.738-.048.12-.048.12.072.312h0l.048.1h0c0,.024.024.048.024.072.024.024.024.048.048.072,0,.024.024.048.024.072.024.024.024.072.048.1,0,.024.024.024.024.048a.446.446,0,0,1,.048.168l.12.409-.24.649c-.024.024-.048.072-.072.1a3.1,3.1,0,0,0-.144.288l.048.048a1.065,1.065,0,0,0,.264.192l.024.024c.216.216.433.409.433.433h0a22.716,22.716,0,0,0,11.511-3.7c.192-.12.385-.264.6-.409a.125.125,0,0,1,.1-.048c.024,0,.024-.024.048-.024s.024-.024.048-.024l.072-.072.577-.433a22.678,22.678,0,0,0,7.618-10.43h-.024c-.216-.1-.409-.192-.553-.264a.526.526,0,0,1-.12-.072h-.048l-.024-.048a6.417,6.417,0,0,1-.1-1.514,7.072,7.072,0,0,1,.937-1.394.7.7,0,0,1,.625.312c0,.048.024.24.024.5a22.96,22.96,0,0,0-.144-10.91C218.984,181.644,217.3,181.813,216.845,181.861Zm-25.762,9.781c-.024.048-.024.072-.048.1-.024.12-.192.24-.7.24h-.072c-.192,0-.36-.024-.481-.024a1.857,1.857,0,0,1-.24-.024c-.024,0-.1,0-.12-.12,0,0-.12-.481-.024-.649.024-.12.24-.144,1.226-.1a1.246,1.246,0,0,0,.312,0l.048-.024.024.048A.765.765,0,0,1,191.084,191.641Zm6.945-20.5a10.832,10.832,0,0,1-.264,1.2c-.048.168-.1.36-.144.553-.312,1.514-.409,1.61-.553,1.778l-.048.048H197c-.072.024-.529.384-.913.673l-.24.192-.985.673-.072.937-.1.889-1.105.336c-.024,0-.048.024-.1.024-.144,0-.336-.168-1.033-.817l-.1-.1c-.312-.288-.6-.577-.793-.769l-.264-.264h0a13.54,13.54,0,0,1-.817-1.562c-.144-.264-.264-.5-.384-.745-.144-.312-.312-.577-.336-.649h0a7.678,7.678,0,0,0-1.346-.625c-.048.024-.216.192-.36.312l-.1.1a1.95,1.95,0,0,1-.553.312.2.2,0,0,1-.144-.048c-.192-.1-.793-.553-.817-.7a10.793,10.793,0,0,1,.529-1.73c.577-1.634.649-1.658.7-1.682h0c.7-.457,7.738-3.509,7.81-3.533a9.991,9.991,0,0,1,2.619,1.2c.024.048.048.192-.288.817-.072.12-.144.216-.192.312a1.028,1.028,0,0,0-.144.288v.072h0c.024.144.1.529.24,1.2.168.769.216,1.105.24,1.25C198.029,171.119,198.029,171.119,198.029,171.143Zm2.788,3.533c-.048.072-1.033,1.538-1.178,1.706l-.024.024h-.1a3.005,3.005,0,0,1-.7-.553l-.024-.024-.048-.048h0c-.673-.7-.7-.769-.7-.817h0v-.048l.048-.024c.048-.024.481-.288.817-.529.625-.409.769-.481.793-.5h.048c.048.024.192.1.36.192a2.879,2.879,0,0,1,.7.5v.12Zm1.826,2.836-.36-.216.192-.529c.12-.288.192-.433.288-.433a.1.1,0,0,1,.1.048,2.5,2.5,0,0,1,.384.457,1.04,1.04,0,0,0,.529.433,2.216,2.216,0,0,1,.24.12l.553.264.072.433c.048.288.048.409,0,.457-.024.168-.312.24-.6.336a2.05,2.05,0,0,1-.5.12.2.2,0,0,1-.192-.1.815.815,0,0,1,0-.481c.072-.433,0-.481-.144-.5l-.024-.024-.1-.072A3.8,3.8,0,0,0,202.643,177.511Z" transform="translate(-175.375 -164.608)"/>
      <path id="Path_4498" data-name="Path 4498" class="cls-5" d="M175.667,274.968v-.024l-.889-2.98-.385-2.884c-.072-.577-.168-1.105-.216-1.586-.12-.817-.192-1.442-.216-1.514,0-.024-.048-.048-.216-.072a3.959,3.959,0,0,0-.433-.072l-.721-.216-1.105-1.466c-.192-.288-.384-.553-.553-.769a6.623,6.623,0,0,1-.625-.937.862.862,0,0,1,.1-.625,1.432,1.432,0,0,0-.048-1.009l-.12-.433-1.226.36-.024-.048a2.9,2.9,0,0,0-.288-.312l-.216-.216-.409-.5-.312.1-.36.24-1.562-.5-1.538-.384-.577-.5a4.2,4.2,0,0,0-.577-.336H163.1l-.024-.048c-.048-.072-.312,0-.481.072l-.5.144-3.965-3.22-.288-1.154-.216-.985-.6-.5a6.761,6.761,0,0,0-.649-.553h-.024l-.024-.048c-.024-.048-.048-.048-.072-.024-.024,0-.072.024-.144.12l-.024.024-.336.1c-.072.024-.1,0-.481-.457-.192-.192-.288-.336-.264-.481.024-.1.144-.144.216-.168h0c-.12-.1-.409-.288-.7-.481a22.542,22.542,0,0,0,4.085,15.092,19.13,19.13,0,0,0,1.346,1.706l-.192-.1a22.774,22.774,0,0,0,16.533,8.026Z" transform="translate(-154.431 -229.935)"/>
    </g>
    <g id="Group_3285" data-name="Group 3285" transform="translate(92.614 195.414)">
      <path id="Path_4499" data-name="Path 4499" class="cls-6" d="M156.272,293.521l-.072-.144c.36-.192.7-.384,1.081-.577l.072.144Q156.777,293.233,156.272,293.521Z" transform="translate(-156.2 -292.8)"/>
    </g>
    <g id="Group_3293" data-name="Group 3293" transform="translate(124.347 165.331)">
      <g id="Group_3286" data-name="Group 3286" transform="translate(19.719 0.769)">
        <path id="Path_4500" data-name="Path 4500" class="cls-7" d="M371.265,174.368a2.263,2.263,0,0,1-.625-.721,2.357,2.357,0,0,1,.168-2.667.428.428,0,1,1,.673.529,1.53,1.53,0,0,0-.12,1.706,1.488,1.488,0,0,0,1.538.721.425.425,0,1,1,.12.841A2.276,2.276,0,0,1,371.265,174.368Z" transform="translate(-370.305 -170.814)"/>
      </g>
      <g id="Group_3287" data-name="Group 3287" class="cls-8" transform="translate(16.42 0.649)">
        <path id="Path_4501" data-name="Path 4501" class="cls-9" d="M358.193,176.15a3.642,3.642,0,0,1-1.057-1.2,3.954,3.954,0,0,1,.288-4.47.428.428,0,1,1,.673.529,3.13,3.13,0,0,0,2.956,5.023.425.425,0,0,1,.12.841A3.967,3.967,0,0,1,358.193,176.15Z" transform="translate(-356.577 -170.314)"/>
      </g>
      <g id="Group_3288" data-name="Group 3288" class="cls-10" transform="translate(13.147 0.529)">
        <path id="Path_4502" data-name="Path 4502" class="cls-11" d="M345.228,177.933a5.3,5.3,0,0,1-1.49-1.682,5.512,5.512,0,0,1,.433-6.272.428.428,0,0,1,.673.529,4.733,4.733,0,0,0,4.47,7.594.425.425,0,0,1,.12.841A5.6,5.6,0,0,1,345.228,177.933Z" transform="translate(-342.959 -169.814)"/>
      </g>
      <g id="Group_3289" data-name="Group 3289" class="cls-12" transform="translate(9.848 0.409)">
        <path id="Path_4503" data-name="Path 4503" class="cls-13" d="M332.156,179.716a7.244,7.244,0,0,1-1.923-2.163,7.106,7.106,0,0,1,.553-8.074.428.428,0,1,1,.673.529,6.347,6.347,0,0,0,5.984,10.189.425.425,0,0,1,.12.841A7.362,7.362,0,0,1,332.156,179.716Z" transform="translate(-329.232 -169.314)"/>
      </g>
      <g id="Group_3290" data-name="Group 3290" class="cls-14" transform="translate(6.574 0.264)">
        <path id="Path_4504" data-name="Path 4504" class="cls-15" d="M319.184,181.423a8.6,8.6,0,0,1-2.355-2.643,8.744,8.744,0,0,1,.673-9.9.428.428,0,0,1,.673.529,7.949,7.949,0,0,0,7.5,12.761.425.425,0,1,1,.12.841A8.733,8.733,0,0,1,319.184,181.423Z" transform="translate(-315.604 -168.714)"/>
      </g>
      <g id="Group_3291" data-name="Group 3291" class="cls-16" transform="translate(3.275 0.12)">
        <path id="Path_4505" data-name="Path 4505" class="cls-17" d="M306.112,183.106a10.467,10.467,0,0,1-1.995-14.827.428.428,0,0,1,.673.529A9.551,9.551,0,0,0,313.8,184.14a.425.425,0,1,1,.12.841A10.2,10.2,0,0,1,306.112,183.106Z" transform="translate(-301.877 -168.114)"/>
      </g>
      <g id="Group_3292" data-name="Group 3292" class="cls-18" transform="translate(0 0)">
        <path id="Path_4506" data-name="Path 4506" class="cls-19" d="M293.14,184.889a12.073,12.073,0,0,1-2.307-17.11.428.428,0,0,1,.673.529,11.172,11.172,0,0,0,10.526,17.927.425.425,0,0,1,.12.841A11.885,11.885,0,0,1,293.14,184.889Z" transform="translate(-288.25 -167.614)"/>
      </g>
    </g>
  </g>
</svg>
